<?xml version="1.0" encoding="utf-8" standalone="no"?>
<!DOCTYPE svg PUBLIC "-//W3C//DTD SVG 1.1//EN"
  "http://www.w3.org/Graphics/SVG/1.1/DTD/svg11.dtd">
<!-- Created with matplotlib (http://matplotlib.org/) -->
<svg height="369pt" version="1.1" viewBox="0 0 528 369" width="528pt" xmlns="http://www.w3.org/2000/svg" xmlns:xlink="http://www.w3.org/1999/xlink">
 <defs>
  <style type="text/css">
*{stroke-linecap:butt;stroke-linejoin:round;stroke-miterlimit:100000;}
  </style>
 </defs>
 <g id="figure_1">
  <g id="patch_1">
   <path d="M 0 369.235163 
L 528.035575 369.235163 
L 528.035575 0 
L 0 0 
z
" style="fill:none;opacity:0;"/>
  </g>
  <g id="axes_1">
   <g id="patch_2">
    <path d="M 60.035575 319.974688 
L 520.835575 319.974688 
L 520.835575 13.974688 
L 60.035575 13.974688 
z
" style="fill:#ffffff;"/>
   </g>
   <g id="matplotlib.axis_1">
    <g id="xtick_1">
     <g id="line2d_1">
      <path clip-path="url(#p68cd828bbf)" d="M 60.035575 319.974688 
L 60.035575 13.974688 
" style="fill:none;stroke:#cbcbcb;"/>
     </g>
     <g id="line2d_2"/>
     <g id="line2d_3"/>
     <g id="text_1">
      <!-- 0 -->
      <defs>
       <path d="M 31.78125 66.40625 
Q 24.171875 66.40625 20.328125 58.90625 
Q 16.5 51.421875 16.5 36.375 
Q 16.5 21.390625 20.328125 13.890625 
Q 24.171875 6.390625 31.78125 6.390625 
Q 39.453125 6.390625 43.28125 13.890625 
Q 47.125 21.390625 47.125 36.375 
Q 47.125 51.421875 43.28125 58.90625 
Q 39.453125 66.40625 31.78125 66.40625 
M 31.78125 74.21875 
Q 44.046875 74.21875 50.515625 64.515625 
Q 56.984375 54.828125 56.984375 36.375 
Q 56.984375 17.96875 50.515625 8.265625 
Q 44.046875 -1.421875 31.78125 -1.421875 
Q 19.53125 -1.421875 13.0625 8.265625 
Q 6.59375 17.96875 6.59375 36.375 
Q 6.59375 54.828125 13.0625 64.515625 
Q 19.53125 74.21875 31.78125 74.21875 
" id="BitstreamVeraSans-Roman-30"/>
      </defs>
      <g transform="translate(55.581825 334.6125)scale(0.14 -0.14)">
       <use xlink:href="#BitstreamVeraSans-Roman-30"/>
      </g>
     </g>
    </g>
    <g id="xtick_2">
     <g id="line2d_4">
      <path clip-path="url(#p68cd828bbf)" d="M 164.762848 319.974688 
L 164.762848 13.974688 
" style="fill:none;stroke:#cbcbcb;"/>
     </g>
     <g id="line2d_5"/>
     <g id="line2d_6"/>
     <g id="text_2">
      <!-- 5 -->
      <defs>
       <path d="M 10.796875 72.90625 
L 49.515625 72.90625 
L 49.515625 64.59375 
L 19.828125 64.59375 
L 19.828125 46.734375 
Q 21.96875 47.46875 24.109375 47.828125 
Q 26.265625 48.1875 28.421875 48.1875 
Q 40.625 48.1875 47.75 41.5 
Q 54.890625 34.8125 54.890625 23.390625 
Q 54.890625 11.625 47.5625 5.09375 
Q 40.234375 -1.421875 26.90625 -1.421875 
Q 22.3125 -1.421875 17.546875 -0.640625 
Q 12.796875 0.140625 7.71875 1.703125 
L 7.71875 11.625 
Q 12.109375 9.234375 16.796875 8.0625 
Q 21.484375 6.890625 26.703125 6.890625 
Q 35.15625 6.890625 40.078125 11.328125 
Q 45.015625 15.765625 45.015625 23.390625 
Q 45.015625 31 40.078125 35.4375 
Q 35.15625 39.890625 26.703125 39.890625 
Q 22.75 39.890625 18.8125 39.015625 
Q 14.890625 38.140625 10.796875 36.28125 
z
" id="BitstreamVeraSans-Roman-35"/>
      </defs>
      <g transform="translate(160.309097727 334.6125)scale(0.14 -0.14)">
       <use xlink:href="#BitstreamVeraSans-Roman-35"/>
      </g>
     </g>
    </g>
    <g id="xtick_3">
     <g id="line2d_7">
      <path clip-path="url(#p68cd828bbf)" d="M 269.49012 319.974688 
L 269.49012 13.974688 
" style="fill:none;stroke:#cbcbcb;"/>
     </g>
     <g id="line2d_8"/>
     <g id="line2d_9"/>
     <g id="text_3">
      <!-- 10 -->
      <defs>
       <path d="M 12.40625 8.296875 
L 28.515625 8.296875 
L 28.515625 63.921875 
L 10.984375 60.40625 
L 10.984375 69.390625 
L 28.421875 72.90625 
L 38.28125 72.90625 
L 38.28125 8.296875 
L 54.390625 8.296875 
L 54.390625 0 
L 12.40625 0 
z
" id="BitstreamVeraSans-Roman-31"/>
      </defs>
      <g transform="translate(260.582620455 334.6125)scale(0.14 -0.14)">
       <use xlink:href="#BitstreamVeraSans-Roman-31"/>
       <use x="63.623046875" xlink:href="#BitstreamVeraSans-Roman-30"/>
      </g>
     </g>
    </g>
    <g id="xtick_4">
     <g id="line2d_10">
      <path clip-path="url(#p68cd828bbf)" d="M 374.217393 319.974688 
L 374.217393 13.974688 
" style="fill:none;stroke:#cbcbcb;"/>
     </g>
     <g id="line2d_11"/>
     <g id="line2d_12"/>
     <g id="text_4">
      <!-- 15 -->
      <g transform="translate(365.309893182 334.6125)scale(0.14 -0.14)">
       <use xlink:href="#BitstreamVeraSans-Roman-31"/>
       <use x="63.623046875" xlink:href="#BitstreamVeraSans-Roman-35"/>
      </g>
     </g>
    </g>
    <g id="xtick_5">
     <g id="line2d_13">
      <path clip-path="url(#p68cd828bbf)" d="M 478.944666 319.974688 
L 478.944666 13.974688 
" style="fill:none;stroke:#cbcbcb;"/>
     </g>
     <g id="line2d_14"/>
     <g id="line2d_15"/>
     <g id="text_5">
      <!-- 20 -->
      <defs>
       <path d="M 19.1875 8.296875 
L 53.609375 8.296875 
L 53.609375 0 
L 7.328125 0 
L 7.328125 8.296875 
Q 12.9375 14.109375 22.625 23.890625 
Q 32.328125 33.6875 34.8125 36.53125 
Q 39.546875 41.84375 41.421875 45.53125 
Q 43.3125 49.21875 43.3125 52.78125 
Q 43.3125 58.59375 39.234375 62.25 
Q 35.15625 65.921875 28.609375 65.921875 
Q 23.96875 65.921875 18.8125 64.3125 
Q 13.671875 62.703125 7.8125 59.421875 
L 7.8125 69.390625 
Q 13.765625 71.78125 18.9375 73 
Q 24.125 74.21875 28.421875 74.21875 
Q 39.75 74.21875 46.484375 68.546875 
Q 53.21875 62.890625 53.21875 53.421875 
Q 53.21875 48.921875 51.53125 44.890625 
Q 49.859375 40.875 45.40625 35.40625 
Q 44.1875 33.984375 37.640625 27.21875 
Q 31.109375 20.453125 19.1875 8.296875 
" id="BitstreamVeraSans-Roman-32"/>
      </defs>
      <g transform="translate(470.037165909 334.6125)scale(0.14 -0.14)">
       <use xlink:href="#BitstreamVeraSans-Roman-32"/>
       <use x="63.623046875" xlink:href="#BitstreamVeraSans-Roman-30"/>
      </g>
     </g>
    </g>
    <g id="text_6">
     <!-- $\sf \lambda$ -->
     <defs>
      <path d="M 5.078125 1.703125 
Q 5.078125 3.171875 6.390625 4.5 
L 34.515625 32.078125 
L 24.609375 59.90625 
Q 23.4375 63.09375 22.140625 64.9375 
Q 20.84375 66.796875 18.40625 66.796875 
Q 17.28125 66.796875 17.28125 68.109375 
Q 17.390625 68.703125 17.78125 69.046875 
Q 18.171875 69.390625 18.796875 69.390625 
Q 29.296875 69.390625 31.5 63.1875 
L 51.8125 6.5 
Q 53.125 2.25 54.5 0.78125 
Q 54.984375 0.046875 54.984375 -0.203125 
Q 54.984375 -1.125 54.203125 -1.125 
L 48.78125 -1.125 
Q 46.296875 -0.390625 44.828125 3.21875 
L 35.6875 28.8125 
L 11.53125 0.390625 
Q 9.71875 -1.3125 8.296875 -1.3125 
Q 7.03125 -1.3125 6.046875 -0.4375 
Q 5.078125 0.4375 5.078125 1.703125 
" id="Cmmi10-b8"/>
     </defs>
     <g transform="translate(284.488375 357.8425125)scale(0.2016 -0.2016)">
      <use transform="translate(0.0 0.609375)" xlink:href="#Cmmi10-b8"/>
     </g>
    </g>
   </g>
   <g id="matplotlib.axis_2">
    <g id="ytick_1">
     <g id="line2d_16">
      <path clip-path="url(#p68cd828bbf)" d="M 60.035575 319.974688 
L 520.835575 319.974688 
" style="fill:none;stroke:#cbcbcb;"/>
     </g>
     <g id="line2d_17"/>
     <g id="line2d_18"/>
     <g id="text_7">
      <!-- 0.0 -->
      <defs>
       <path d="M 10.6875 12.40625 
L 21 12.40625 
L 21 0 
L 10.6875 0 
z
" id="BitstreamVeraSans-Roman-2e"/>
      </defs>
      <g transform="translate(33.7712 323.8378125)scale(0.14 -0.14)">
       <use xlink:href="#BitstreamVeraSans-Roman-30"/>
       <use x="63.623046875" xlink:href="#BitstreamVeraSans-Roman-2e"/>
       <use x="95.41015625" xlink:href="#BitstreamVeraSans-Roman-30"/>
      </g>
     </g>
    </g>
    <g id="ytick_2">
     <g id="line2d_19">
      <path clip-path="url(#p68cd828bbf)" d="M 60.035575 258.774688 
L 520.835575 258.774688 
" style="fill:none;stroke:#cbcbcb;"/>
     </g>
     <g id="line2d_20"/>
     <g id="line2d_21"/>
     <g id="text_8">
      <!-- 0.1 -->
      <g transform="translate(33.7712 262.6378125)scale(0.14 -0.14)">
       <use xlink:href="#BitstreamVeraSans-Roman-30"/>
       <use x="63.623046875" xlink:href="#BitstreamVeraSans-Roman-2e"/>
       <use x="95.41015625" xlink:href="#BitstreamVeraSans-Roman-31"/>
      </g>
     </g>
    </g>
    <g id="ytick_3">
     <g id="line2d_22">
      <path clip-path="url(#p68cd828bbf)" d="M 60.035575 197.574688 
L 520.835575 197.574688 
" style="fill:none;stroke:#cbcbcb;"/>
     </g>
     <g id="line2d_23"/>
     <g id="line2d_24"/>
     <g id="text_9">
      <!-- 0.2 -->
      <g transform="translate(33.7712 201.4378125)scale(0.14 -0.14)">
       <use xlink:href="#BitstreamVeraSans-Roman-30"/>
       <use x="63.623046875" xlink:href="#BitstreamVeraSans-Roman-2e"/>
       <use x="95.41015625" xlink:href="#BitstreamVeraSans-Roman-32"/>
      </g>
     </g>
    </g>
    <g id="ytick_4">
     <g id="line2d_25">
      <path clip-path="url(#p68cd828bbf)" d="M 60.035575 136.374687 
L 520.835575 136.374687 
" style="fill:none;stroke:#cbcbcb;"/>
     </g>
     <g id="line2d_26"/>
     <g id="line2d_27"/>
     <g id="text_10">
      <!-- 0.3 -->
      <defs>
       <path d="M 40.578125 39.3125 
Q 47.65625 37.796875 51.625 33 
Q 55.609375 28.21875 55.609375 21.1875 
Q 55.609375 10.40625 48.1875 4.484375 
Q 40.765625 -1.421875 27.09375 -1.421875 
Q 22.515625 -1.421875 17.65625 -0.515625 
Q 12.796875 0.390625 7.625 2.203125 
L 7.625 11.71875 
Q 11.71875 9.328125 16.59375 8.109375 
Q 21.484375 6.890625 26.8125 6.890625 
Q 36.078125 6.890625 40.9375 10.546875 
Q 45.796875 14.203125 45.796875 21.1875 
Q 45.796875 27.640625 41.28125 31.265625 
Q 36.765625 34.90625 28.71875 34.90625 
L 20.21875 34.90625 
L 20.21875 43.015625 
L 29.109375 43.015625 
Q 36.375 43.015625 40.234375 45.921875 
Q 44.09375 48.828125 44.09375 54.296875 
Q 44.09375 59.90625 40.109375 62.90625 
Q 36.140625 65.921875 28.71875 65.921875 
Q 24.65625 65.921875 20.015625 65.03125 
Q 15.375 64.15625 9.8125 62.3125 
L 9.8125 71.09375 
Q 15.4375 72.65625 20.34375 73.4375 
Q 25.25 74.21875 29.59375 74.21875 
Q 40.828125 74.21875 47.359375 69.109375 
Q 53.90625 64.015625 53.90625 55.328125 
Q 53.90625 49.265625 50.4375 45.09375 
Q 46.96875 40.921875 40.578125 39.3125 
" id="BitstreamVeraSans-Roman-33"/>
      </defs>
      <g transform="translate(33.7712 140.2378125)scale(0.14 -0.14)">
       <use xlink:href="#BitstreamVeraSans-Roman-30"/>
       <use x="63.623046875" xlink:href="#BitstreamVeraSans-Roman-2e"/>
       <use x="95.41015625" xlink:href="#BitstreamVeraSans-Roman-33"/>
      </g>
     </g>
    </g>
    <g id="ytick_5">
     <g id="line2d_28">
      <path clip-path="url(#p68cd828bbf)" d="M 60.035575 75.174688 
L 520.835575 75.174688 
" style="fill:none;stroke:#cbcbcb;"/>
     </g>
     <g id="line2d_29"/>
     <g id="line2d_30"/>
     <g id="text_11">
      <!-- 0.4 -->
      <defs>
       <path d="M 37.796875 64.3125 
L 12.890625 25.390625 
L 37.796875 25.390625 
z
M 35.203125 72.90625 
L 47.609375 72.90625 
L 47.609375 25.390625 
L 58.015625 25.390625 
L 58.015625 17.1875 
L 47.609375 17.1875 
L 47.609375 0 
L 37.796875 0 
L 37.796875 17.1875 
L 4.890625 17.1875 
L 4.890625 26.703125 
z
" id="BitstreamVeraSans-Roman-34"/>
      </defs>
      <g transform="translate(33.7712 79.0378125)scale(0.14 -0.14)">
       <use xlink:href="#BitstreamVeraSans-Roman-30"/>
       <use x="63.623046875" xlink:href="#BitstreamVeraSans-Roman-2e"/>
       <use x="95.41015625" xlink:href="#BitstreamVeraSans-Roman-34"/>
      </g>
     </g>
    </g>
    <g id="ytick_6">
     <g id="line2d_31">
      <path clip-path="url(#p68cd828bbf)" d="M 60.035575 13.974688 
L 520.835575 13.974688 
" style="fill:none;stroke:#cbcbcb;"/>
     </g>
     <g id="line2d_32"/>
     <g id="line2d_33"/>
     <g id="text_12">
      <!-- 0.5 -->
      <g transform="translate(33.7712 17.8378125)scale(0.14 -0.14)">
       <use xlink:href="#BitstreamVeraSans-Roman-30"/>
       <use x="63.623046875" xlink:href="#BitstreamVeraSans-Roman-2e"/>
       <use x="95.41015625" xlink:href="#BitstreamVeraSans-Roman-35"/>
      </g>
     </g>
    </g>
    <g id="text_13">
     <!-- $\sf C_p ( \lambda,\beta )$ -->
     <defs>
      <path d="M 8.015625 -19.390625 
L 8.015625 44.390625 
L 15.921875 44.390625 
L 15.921875 39.703125 
Q 22.953125 45.515625 33.015625 45.515625 
Q 37.9375 45.515625 41.375 41.75 
Q 44.828125 37.984375 46.5 32.53125 
Q 48.1875 27.09375 48.1875 22.21875 
Q 48.1875 16.890625 45.96875 11.375 
Q 43.75 5.859375 39.578125 2.359375 
Q 35.40625 -1.125 29.78125 -1.125 
Q 25.984375 -1.125 22.4375 0.359375 
Q 18.890625 1.859375 16.21875 4.390625 
L 16.21875 -19.390625 
z
M 16.21875 11.625 
Q 17.78125 8.734375 20.125 7.078125 
Q 22.46875 5.421875 25.484375 5.421875 
Q 29.78125 5.421875 33.078125 7.828125 
Q 36.375 10.25 38.171875 14.203125 
Q 39.984375 18.171875 39.984375 22.21875 
Q 39.984375 28.515625 36.328125 33.609375 
Q 32.671875 38.71875 26.703125 38.71875 
Q 24.703125 38.71875 22.671875 38.03125 
Q 20.65625 37.359375 19.046875 36.15625 
Q 17.4375 34.96875 16.21875 33.203125 
z
" id="Cmss10-70"/>
      <path d="M 2.6875 -19.390625 
Q 2.390625 -19.390625 2.140625 -19.046875 
Q 1.90625 -18.703125 1.90625 -18.40625 
L 17.28125 43.40625 
Q 18.609375 48.390625 21.140625 53.078125 
Q 23.6875 57.765625 27.515625 61.796875 
Q 31.34375 65.828125 35.9375 68.171875 
Q 40.53125 70.515625 45.703125 70.515625 
Q 49.421875 70.515625 52.421875 68.875 
Q 55.421875 67.234375 57.15625 64.28125 
Q 58.890625 61.328125 58.890625 57.625 
Q 58.890625 54.046875 57.515625 50.796875 
Q 56.15625 47.5625 53.703125 44.75 
Q 51.265625 41.9375 48.484375 40.1875 
Q 50.09375 39.15625 51.359375 37.5625 
Q 52.640625 35.984375 53.421875 34.25 
Q 54.203125 32.515625 54.640625 30.390625 
Q 55.078125 28.265625 55.078125 26.421875 
Q 55.078125 21.296875 52.875 16.3125 
Q 50.6875 11.328125 46.890625 7.265625 
Q 43.109375 3.21875 38.21875 0.84375 
Q 33.34375 -1.515625 28.21875 -1.515625 
Q 22.609375 -1.515625 18.109375 1.5625 
Q 13.625 4.640625 11.921875 9.90625 
L 4.6875 -18.796875 
Q 4.6875 -19.390625 3.90625 -19.390625 
z
M 28.421875 1.21875 
Q 32.90625 1.21875 36.546875 4.171875 
Q 40.1875 7.125 42.546875 11.59375 
Q 44.921875 16.0625 46.15625 21.0625 
Q 47.40625 26.078125 47.40625 30.171875 
Q 47.40625 35.25 44.484375 38.1875 
Q 41.0625 36.921875 37.796875 36.921875 
Q 29.890625 36.921875 29.890625 39.59375 
Q 29.890625 43.109375 38.921875 43.109375 
Q 42.140625 43.109375 44.828125 42.09375 
Q 46.96875 43.75 48.71875 46.96875 
Q 50.484375 50.203125 51.390625 53.71875 
Q 52.296875 57.234375 52.296875 60.296875 
Q 52.296875 63.578125 50.5625 65.75 
Q 48.828125 67.921875 45.515625 67.921875 
Q 39.40625 67.921875 34.15625 64.15625 
Q 28.90625 60.40625 25.296875 54.65625 
Q 21.6875 48.921875 20.125 42.828125 
L 14.59375 20.703125 
Q 14.0625 18.40625 13.921875 15.578125 
Q 13.921875 9.328125 18.015625 5.265625 
Q 22.125 1.21875 28.421875 1.21875 
M 32.90625 39.890625 
Q 34.421875 39.5 37.890625 39.5 
Q 39.59375 39.5 41.3125 40.09375 
Q 41.21875 40.1875 40.921875 40.1875 
Q 39.84375 40.484375 38.625 40.484375 
Q 34.078125 40.484375 32.90625 39.890625 
" id="Cmmi10-af"/>
      <path d="M 38.8125 -2.203125 
Q 31.6875 -2.203125 25.671875 0.921875 
Q 19.671875 4.046875 15.40625 9.375 
Q 11.140625 14.703125 8.8125 21.234375 
Q 6.5 27.78125 6.5 34.71875 
Q 6.5 41.65625 8.8125 48.21875 
Q 11.140625 54.78125 15.453125 60.125 
Q 19.78125 65.484375 25.734375 68.53125 
Q 31.6875 71.578125 38.8125 71.578125 
Q 42.53125 71.578125 45.53125 71.234375 
Q 48.53125 70.90625 51.65625 70.09375 
Q 54.78125 69.28125 57.71875 68.109375 
L 56.203125 59.515625 
L 56.109375 59.515625 
Q 51.953125 62.359375 47.890625 63.578125 
Q 43.84375 64.796875 38.8125 64.796875 
Q 33.296875 64.796875 28.96875 62.0625 
Q 24.65625 59.328125 21.71875 54.828125 
Q 18.796875 50.34375 17.3125 45.09375 
Q 15.828125 39.84375 15.828125 34.71875 
Q 15.828125 29.640625 17.328125 24.3125 
Q 18.84375 19 21.796875 14.5 
Q 24.75 10.015625 29.09375 7.296875 
Q 33.453125 4.59375 38.8125 4.59375 
Q 45.265625 4.59375 49.140625 5.8125 
Q 53.03125 7.03125 58.203125 10.6875 
L 58.796875 3.515625 
L 58.796875 3.421875 
Q 55.03125 1.078125 52.21875 -0.09375 
Q 49.421875 -1.265625 46.4375 -1.734375 
Q 43.453125 -2.203125 38.8125 -2.203125 
" id="Cmss10-43"/>
      <path d="M 9.90625 -18.015625 
Q 9.90625 -17.578125 10.296875 -17.1875 
Q 13.921875 -13.71875 15.921875 -9.171875 
Q 17.921875 -4.640625 17.921875 0.390625 
L 17.921875 1.609375 
Q 16.3125 0 13.921875 0 
Q 11.625 0 10.015625 1.609375 
Q 8.40625 3.21875 8.40625 5.515625 
Q 8.40625 7.859375 10.015625 9.421875 
Q 11.625 10.984375 13.921875 10.984375 
Q 17.484375 10.984375 19 7.6875 
Q 20.515625 4.390625 20.515625 0.390625 
Q 20.515625 -5.171875 18.28125 -10.171875 
Q 16.0625 -15.1875 12.015625 -19.1875 
Q 11.625 -19.390625 11.375 -19.390625 
Q 10.890625 -19.390625 10.390625 -18.9375 
Q 9.90625 -18.5 9.90625 -18.015625 
" id="Cmmi10-3b"/>
      <path d="M 31 -24.8125 
Q 25.4375 -20.40625 21.40625 -14.71875 
Q 17.390625 -9.03125 14.8125 -2.578125 
Q 12.25 3.859375 10.984375 10.890625 
Q 9.71875 17.921875 9.71875 25 
Q 9.71875 32.171875 10.984375 39.203125 
Q 12.25 46.234375 14.859375 52.734375 
Q 17.484375 59.234375 21.53125 64.890625 
Q 25.59375 70.5625 31 74.8125 
Q 31 75 31.5 75 
L 32.421875 75 
Q 32.71875 75 32.953125 74.734375 
Q 33.203125 74.46875 33.203125 74.125 
Q 33.203125 73.6875 33.015625 73.484375 
Q 28.125 68.703125 24.875 63.234375 
Q 21.625 57.765625 19.640625 51.578125 
Q 17.671875 45.40625 16.796875 38.78125 
Q 15.921875 32.171875 15.921875 25 
Q 15.921875 -6.78125 32.90625 -23.296875 
Q 33.203125 -23.578125 33.203125 -24.125 
Q 33.203125 -24.359375 32.9375 -24.671875 
Q 32.671875 -25 32.421875 -25 
L 31.5 -25 
Q 31 -25 31 -24.8125 
" id="Cmr10-28"/>
      <path d="M 6.5 -25 
Q 5.609375 -25 5.609375 -24.125 
Q 5.609375 -23.6875 5.8125 -23.484375 
Q 22.90625 -6.78125 22.90625 25 
Q 22.90625 56.78125 6 73.296875 
Q 5.609375 73.53125 5.609375 74.125 
Q 5.609375 74.46875 5.875 74.734375 
Q 6.15625 75 6.5 75 
L 7.421875 75 
Q 7.71875 75 7.90625 74.8125 
Q 15.09375 69.140625 19.875 61.03125 
Q 24.65625 52.9375 26.875 43.75 
Q 29.109375 34.578125 29.109375 25 
Q 29.109375 17.921875 27.90625 11.0625 
Q 26.703125 4.203125 24.09375 -2.453125 
Q 21.484375 -9.125 17.484375 -14.765625 
Q 13.484375 -20.40625 7.90625 -24.8125 
Q 7.71875 -25 7.421875 -25 
z
" id="Cmr10-29"/>
     </defs>
     <g transform="translate(22.32 202.0530875)rotate(-90.0)scale(0.2016 -0.2016)">
      <use xlink:href="#Cmss10-43"/>
      <use transform="translate(68.464609375 -17.700000000000003)scale(0.7)" xlink:href="#Cmss10-70"/>
      <use transform="translate(111.2300390625 0.0)" xlink:href="#Cmr10-28"/>
      <use transform="translate(150.0483984375 0.0)" xlink:href="#Cmmi10-b8"/>
      <use transform="translate(208.3491796875 0.0)" xlink:href="#Cmmi10-3b"/>
      <use transform="translate(251.9136328125 0.0)" xlink:href="#Cmmi10-af"/>
      <use transform="translate(308.4077734375 0.0)" xlink:href="#Cmr10-29"/>
     </g>
    </g>
   </g>
   <g id="line2d_34">
    <path clip-path="url(#p68cd828bbf)" d="M 70.508302 317.893887 
L 74.104996 317.179269 
L 77.701691 316.46465 
L 81.298385 315.749961 
L 84.895079 315.034203 
L 88.491773 314.311033 
L 92.088468 313.557803 
L 95.685162 312.720538 
L 99.281856 311.703128 
L 102.87855 310.367691 
L 106.475244 308.546827 
L 110.071939 306.063208 
L 113.668633 302.750473 
L 117.265327 298.470721 
L 120.862021 293.12622 
L 124.458715 286.664943 
L 128.05541 279.080802 
L 131.652104 270.409992 
L 135.248798 260.724907 
L 138.845492 250.126868 
L 142.442187 238.738622 
L 146.038881 226.697228 
L 149.635575 214.147735 
L 153.232269 201.237807 
L 156.828963 188.113373 
L 160.425658 174.915231 
L 164.022352 161.776535 
L 167.619046 148.821033 
L 171.21574 136.16195 
L 174.812435 123.90138 
L 178.409129 112.130087 
L 182.005823 100.927622 
L 185.602517 90.362672 
L 189.199211 80.493574 
L 192.795906 71.368939 
L 196.3926 63.028352 
L 199.989294 55.503095 
L 203.585988 48.816892 
L 207.182682 42.986634 
L 210.779377 38.02309 
L 214.376071 33.931572 
L 217.972765 30.71258 
L 221.569459 28.36238 
L 225.166154 26.873559 
L 228.762848 26.235522 
L 232.359542 26.434949 
L 235.956236 27.456207 
L 239.55293 29.281728 
L 243.149625 31.89234 
L 246.746319 35.267567 
L 250.343013 39.385896 
L 253.939707 44.225015 
L 257.536401 49.762019 
L 261.133096 55.973593 
L 264.72979 62.836175 
L 268.326484 70.326094 
L 271.923178 78.419689 
L 275.519873 87.093418 
L 279.116567 96.323945 
L 282.713261 106.088215 
L 286.309955 116.36352 
L 289.906649 127.127553 
L 293.503344 138.358451 
L 297.100038 150.034833 
L 300.696732 162.135828 
L 304.293426 174.641096 
L 307.89012 187.53085 
L 311.486815 200.785862 
L 315.083509 214.387476 
L 318.680203 228.317609 
L 322.276897 242.558753 
L 325.873592 257.093977 
L 329.470286 271.906917 
L 333.06698 286.981772 
L 336.663674 302.303301 
L 340.260368 317.856807 
L 343.857063 333.628132 
L 347.453757 349.603645 
L 351.050451 365.770226 
L 352.032952 370.235163 
" style="fill:none;stroke:#fc4f30;stroke-width:4.0;"/>
   </g>
   <g id="line2d_35">
    <path clip-path="url(#p68cd828bbf)" d="M 70.508302 317.89387 
L 74.104996 317.178912 
L 77.701691 316.461376 
L 81.298385 315.732311 
L 84.895079 314.968677 
L 88.491773 314.126963 
L 92.088468 313.141743 
L 95.685162 311.930293 
L 99.281856 310.40154 
L 102.87855 308.466426 
L 106.475244 306.047161 
L 110.071939 303.083907 
L 113.668633 299.538466 
L 117.265327 295.395248 
L 120.862021 290.660139 
L 124.458715 285.357986 
L 128.05541 279.529307 
L 131.652104 273.226742 
L 135.248798 266.511585 
L 138.845492 259.450619 
L 142.442187 252.113371 
L 146.038881 244.569828 
L 149.635575 236.888621 
L 153.232269 229.135629 
L 156.828963 221.372963 
L 160.425658 213.658274 
L 164.022352 206.044324 
L 167.619046 198.578769 
L 171.21574 191.304114 
L 174.812435 184.257796 
L 178.409129 177.472356 
L 182.005823 170.975684 
L 185.602517 164.791299 
L 189.199211 158.938669 
L 192.795906 153.433528 
L 196.3926 148.288209 
L 199.989294 143.511962 
L 203.585988 139.111265 
L 207.182682 135.090123 
L 210.779377 131.450342 
L 214.376071 128.191791 
L 217.972765 125.312642 
L 221.569459 122.809588 
L 225.166154 120.678051 
L 228.762848 118.912357 
L 232.359542 117.505908 
L 235.956236 116.451325 
L 239.55293 115.740588 
L 243.149625 115.365151 
L 246.746319 115.316049 
L 250.343013 115.583994 
L 253.939707 116.159453 
L 257.536401 117.03273 
L 261.133096 118.194019 
L 264.72979 119.63347 
L 268.326484 121.341231 
L 271.923178 123.307493 
L 275.519873 125.522525 
L 279.116567 127.976704 
L 282.713261 130.660545 
L 286.309955 133.564718 
L 289.906649 136.680069 
L 293.503344 139.997634 
L 297.100038 143.508653 
L 300.696732 147.204577 
L 304.293426 151.077076 
L 307.89012 155.118046 
L 311.486815 159.319612 
L 315.083509 163.674127 
L 318.680203 168.17418 
L 322.276897 172.812587 
L 325.873592 177.582396 
L 329.470286 182.476886 
L 333.06698 187.489557 
L 336.663674 192.614134 
L 340.260368 197.84456 
L 343.857063 203.174994 
L 347.453757 208.599802 
L 351.050451 214.113557 
L 354.647145 219.711033 
L 358.243839 225.387197 
L 361.840534 231.137209 
L 365.437228 236.956411 
L 369.033922 242.840326 
L 372.630616 248.784649 
L 376.227311 254.785247 
L 379.824005 260.838146 
L 383.420699 266.939534 
L 387.017393 273.08575 
L 390.614087 279.273281 
L 394.210782 285.498758 
L 397.807476 291.758948 
L 401.40417 298.050752 
L 405.000864 304.371199 
L 408.597558 310.717444 
L 412.194253 317.086758 
L 415.790947 323.476529 
L 419.387641 329.884255 
L 422.984335 336.307542 
L 426.58103 342.744097 
" style="fill:none;stroke:#5cb85c;stroke-width:4.0;"/>
   </g>
   <g id="line2d_36">
    <path clip-path="url(#p68cd828bbf)" d="M 70.508302 317.881381 
L 74.104996 317.129267 
L 77.701691 316.313169 
L 81.298385 315.375904 
L 84.895079 314.243803 
L 88.491773 312.835036 
L 92.088468 311.069628 
L 95.685162 308.878564 
L 99.281856 306.210415 
L 102.87855 303.034985 
L 106.475244 299.34421 
L 110.071939 295.150934 
L 113.668633 290.486284 
L 117.265327 285.396278 
L 120.862021 279.938192 
L 124.458715 274.177035 
L 128.05541 268.182354 
L 131.652104 262.025494 
L 135.248798 255.777347 
L 138.845492 249.506581 
L 142.442187 243.27831 
L 146.038881 237.153163 
L 149.635575 231.186662 
L 153.232269 225.428885 
L 156.828963 219.924332 
L 160.425658 214.711959 
L 164.022352 209.825336 
L 167.619046 205.292889 
L 171.21574 201.138207 
L 174.812435 197.38038 
L 178.409129 194.034369 
L 182.005823 191.111367 
L 185.602517 188.619166 
L 189.199211 186.562513 
L 192.795906 184.943443 
L 196.3926 183.761602 
L 199.989294 183.014541 
L 203.585988 182.697991 
L 207.182682 182.806113 
L 210.779377 183.331731 
L 214.376071 184.266535 
L 217.972765 185.601271 
L 221.569459 187.32591 
L 225.166154 189.429794 
L 228.762848 191.901774 
L 232.359542 194.730323 
L 235.956236 197.903645 
L 239.55293 201.409761 
L 243.149625 205.236593 
L 246.746319 209.37203 
L 250.343013 213.80399 
L 253.939707 218.520469 
L 257.536401 223.509587 
L 261.133096 228.759627 
L 264.72979 234.25906 
L 268.326484 239.996578 
L 271.923178 245.96111 
L 275.519873 252.141843 
L 279.116567 258.528234 
L 282.713261 265.110018 
L 286.309955 271.877223 
L 289.906649 278.820167 
L 293.503344 285.929465 
L 297.100038 293.196032 
L 300.696732 300.61108 
L 304.293426 308.166116 
L 307.89012 315.852945 
L 311.486815 323.663657 
L 315.083509 331.590633 
L 318.680203 339.626531 
L 322.276897 347.764286 
L 325.873592 355.997103 
L 329.470286 364.318447 
L 332.002609 370.235163 
" style="fill:none;stroke:#30a2da;stroke-width:4.0;"/>
   </g>
   <g id="line2d_37">
    <path clip-path="url(#p68cd828bbf)" d="M 70.508302 317.59382 
L 74.104996 316.529596 
L 77.701691 315.224933 
L 81.298385 313.608441 
L 84.895079 311.619552 
L 88.491773 309.215111 
L 92.088468 306.372981 
L 95.685162 303.092871 
L 99.281856 299.394987 
L 102.87855 295.31727 
L 106.475244 290.911861 
L 110.071939 286.241356 
L 113.668633 281.375182 
L 117.265327 276.386357 
L 120.862021 271.348727 
L 124.458715 266.334727 
L 128.05541 261.413654 
L 131.652104 256.650395 
L 135.248798 252.104563 
L 138.845492 247.829967 
L 142.442187 243.874353 
L 146.038881 240.279358 
L 149.635575 237.080628 
L 153.232269 234.308056 
L 156.828963 231.986098 
L 160.425658 230.134148 
L 164.022352 228.766937 
L 167.619046 227.894956 
L 171.21574 227.524867 
L 174.812435 227.65991 
L 178.409129 228.300293 
L 182.005823 229.443562 
L 185.602517 231.084939 
L 189.199211 233.217647 
L 192.795906 235.833192 
L 196.3926 238.921636 
L 199.989294 242.471833 
L 203.585988 246.471644 
L 207.182682 250.908132 
L 210.779377 255.76773 
L 214.376071 261.036396 
L 217.972765 266.699745 
L 221.569459 272.743166 
L 225.166154 279.151927 
L 228.762848 285.911257 
L 232.359542 293.00643 
L 235.956236 300.422826 
L 239.55293 308.145989 
L 243.149625 316.161672 
L 246.746319 324.455877 
L 250.343013 333.014891 
L 253.939707 341.825306 
L 257.536401 350.874045 
L 261.133096 360.148378 
L 264.72979 369.635934 
L 264.952237 370.235163 
" style="fill:none;stroke:#e5ae38;stroke-width:4.0;"/>
   </g>
   <g id="line2d_38">
    <path clip-path="url(#p68cd828bbf)" d="M 70.508302 316.0951 
L 74.104996 314.287304 
L 77.701691 312.121168 
L 81.298385 309.582653 
L 84.895079 306.679413 
L 88.491773 303.439314 
L 92.088468 299.907505 
L 95.685162 296.142725 
L 99.281856 292.213396 
L 102.87855 288.1939 
L 106.475244 284.161254 
L 110.071939 280.192318 
L 113.668633 276.361552 
L 117.265327 272.739323 
L 120.862021 269.390686 
L 124.458715 266.374592 
L 128.05541 263.743436 
L 131.652104 261.542888 
L 135.248798 259.811934 
L 138.845492 258.583084 
L 142.442187 257.882687 
L 146.038881 257.73133 
L 149.635575 258.144283 
L 153.232269 259.131966 
L 156.828963 260.700421 
L 160.425658 262.851782 
L 164.022352 265.584725 
L 167.619046 268.894896 
L 171.21574 272.77531 
L 174.812435 277.216722 
L 178.409129 282.207968 
L 182.005823 287.736274 
L 185.602517 293.787536 
L 189.199211 300.346572 
L 192.795906 307.397344 
L 196.3926 314.923159 
L 199.989294 322.906844 
L 203.585988 331.3309 
L 207.182682 340.177637 
L 210.779377 349.42929 
L 214.376071 359.068121 
L 217.972765 369.076504 
L 218.374999 370.235163 
" style="fill:none;stroke:#8b8b8b;stroke-width:4.0;"/>
   </g>
   <g id="patch_3">
    <path d="M 520.835575 319.974688 
L 520.835575 13.974688 
" style="fill:none;stroke:#ffffff;stroke-linecap:square;stroke-linejoin:miter;stroke-width:3.0;"/>
   </g>
   <g id="patch_4">
    <path d="M 60.035575 13.974688 
L 520.835575 13.974688 
" style="fill:none;stroke:#ffffff;stroke-linecap:square;stroke-linejoin:miter;stroke-width:3.0;"/>
   </g>
   <g id="patch_5">
    <path d="M 60.035575 319.974688 
L 60.035575 13.974688 
" style="fill:none;stroke:#ffffff;stroke-linecap:square;stroke-linejoin:miter;stroke-width:3.0;"/>
   </g>
   <g id="patch_6">
    <path d="M 60.035575 319.974688 
L 520.835575 319.974688 
" style="fill:none;stroke:#ffffff;stroke-linecap:square;stroke-linejoin:miter;stroke-width:3.0;"/>
   </g>
  </g>
 </g>
 <defs>
  <clipPath id="p68cd828bbf">
   <rect height="306.0" width="460.8" x="60.035575" y="13.9746875"/>
  </clipPath>
 </defs>
</svg>
