<?xml version="1.0" encoding="utf-8" standalone="no"?>
<!DOCTYPE svg PUBLIC "-//W3C//DTD SVG 1.1//EN"
  "http://www.w3.org/Graphics/SVG/1.1/DTD/svg11.dtd">
<!-- Created with matplotlib (http://matplotlib.org/) -->
<svg height="360pt" version="1.1" viewBox="0 0 518 360" width="518pt" xmlns="http://www.w3.org/2000/svg" xmlns:xlink="http://www.w3.org/1999/xlink">
 <defs>
  <style type="text/css">
*{stroke-linecap:butt;stroke-linejoin:round;stroke-miterlimit:100000;}
  </style>
 </defs>
 <g id="figure_1">
  <g id="patch_1">
   <path d="M 0 360.757125 
L 518.69175 360.757125 
L 518.69175 -0 
L 0 -0 
z
" style="fill:none;opacity:0;"/>
  </g>
  <g id="axes_1">
   <g id="patch_2">
    <path d="M 50.69175 319.006875 
L 511.49175 319.006875 
L 511.49175 13.006875 
L 50.69175 13.006875 
z
" style="fill:#ffffff;"/>
   </g>
   <g id="matplotlib.axis_1">
    <g id="xtick_1">
     <g id="line2d_1">
      <path clip-path="url(#pe9fa00db69)" d="M 50.69175 319.006875 
L 50.69175 13.006875 
" style="fill:none;stroke:#cbcbcb;"/>
     </g>
     <g id="line2d_2"/>
     <g id="line2d_3"/>
     <g id="text_1">
      <!-- 0 -->
      <defs>
       <path d="M 31.78125 66.40625 
Q 24.171875 66.40625 20.328125 58.90625 
Q 16.5 51.421875 16.5 36.375 
Q 16.5 21.390625 20.328125 13.890625 
Q 24.171875 6.390625 31.78125 6.390625 
Q 39.453125 6.390625 43.28125 13.890625 
Q 47.125 21.390625 47.125 36.375 
Q 47.125 51.421875 43.28125 58.90625 
Q 39.453125 66.40625 31.78125 66.40625 
M 31.78125 74.21875 
Q 44.046875 74.21875 50.515625 64.515625 
Q 56.984375 54.828125 56.984375 36.375 
Q 56.984375 17.96875 50.515625 8.265625 
Q 44.046875 -1.421875 31.78125 -1.421875 
Q 19.53125 -1.421875 13.0625 8.265625 
Q 6.59375 17.96875 6.59375 36.375 
Q 6.59375 54.828125 13.0625 64.515625 
Q 19.53125 74.21875 31.78125 74.21875 
" id="BitstreamVeraSans-Roman-30"/>
      </defs>
      <g transform="translate(46.87425 332.125)scale(0.12 -0.12)">
       <use xlink:href="#BitstreamVeraSans-Roman-30"/>
      </g>
     </g>
    </g>
    <g id="xtick_2">
     <g id="line2d_4">
      <path clip-path="url(#pe9fa00db69)" d="M 155.419023 319.006875 
L 155.419023 13.006875 
" style="fill:none;stroke:#cbcbcb;"/>
     </g>
     <g id="line2d_5"/>
     <g id="line2d_6"/>
     <g id="text_2">
      <!-- 5 -->
      <defs>
       <path d="M 10.796875 72.90625 
L 49.515625 72.90625 
L 49.515625 64.59375 
L 19.828125 64.59375 
L 19.828125 46.734375 
Q 21.96875 47.46875 24.109375 47.828125 
Q 26.265625 48.1875 28.421875 48.1875 
Q 40.625 48.1875 47.75 41.5 
Q 54.890625 34.8125 54.890625 23.390625 
Q 54.890625 11.625 47.5625 5.09375 
Q 40.234375 -1.421875 26.90625 -1.421875 
Q 22.3125 -1.421875 17.546875 -0.640625 
Q 12.796875 0.140625 7.71875 1.703125 
L 7.71875 11.625 
Q 12.109375 9.234375 16.796875 8.0625 
Q 21.484375 6.890625 26.703125 6.890625 
Q 35.15625 6.890625 40.078125 11.328125 
Q 45.015625 15.765625 45.015625 23.390625 
Q 45.015625 31 40.078125 35.4375 
Q 35.15625 39.890625 26.703125 39.890625 
Q 22.75 39.890625 18.8125 39.015625 
Q 14.890625 38.140625 10.796875 36.28125 
z
" id="BitstreamVeraSans-Roman-35"/>
      </defs>
      <g transform="translate(151.601522727 332.125)scale(0.12 -0.12)">
       <use xlink:href="#BitstreamVeraSans-Roman-35"/>
      </g>
     </g>
    </g>
    <g id="xtick_3">
     <g id="line2d_7">
      <path clip-path="url(#pe9fa00db69)" d="M 260.146295 319.006875 
L 260.146295 13.006875 
" style="fill:none;stroke:#cbcbcb;"/>
     </g>
     <g id="line2d_8"/>
     <g id="line2d_9"/>
     <g id="text_3">
      <!-- 10 -->
      <defs>
       <path d="M 12.40625 8.296875 
L 28.515625 8.296875 
L 28.515625 63.921875 
L 10.984375 60.40625 
L 10.984375 69.390625 
L 28.421875 72.90625 
L 38.28125 72.90625 
L 38.28125 8.296875 
L 54.390625 8.296875 
L 54.390625 0 
L 12.40625 0 
z
" id="BitstreamVeraSans-Roman-31"/>
      </defs>
      <g transform="translate(252.511295455 332.125)scale(0.12 -0.12)">
       <use xlink:href="#BitstreamVeraSans-Roman-31"/>
       <use x="63.623046875" xlink:href="#BitstreamVeraSans-Roman-30"/>
      </g>
     </g>
    </g>
    <g id="xtick_4">
     <g id="line2d_10">
      <path clip-path="url(#pe9fa00db69)" d="M 364.873568 319.006875 
L 364.873568 13.006875 
" style="fill:none;stroke:#cbcbcb;"/>
     </g>
     <g id="line2d_11"/>
     <g id="line2d_12"/>
     <g id="text_4">
      <!-- 15 -->
      <g transform="translate(357.238568182 332.125)scale(0.12 -0.12)">
       <use xlink:href="#BitstreamVeraSans-Roman-31"/>
       <use x="63.623046875" xlink:href="#BitstreamVeraSans-Roman-35"/>
      </g>
     </g>
    </g>
    <g id="xtick_5">
     <g id="line2d_13">
      <path clip-path="url(#pe9fa00db69)" d="M 469.600841 319.006875 
L 469.600841 13.006875 
" style="fill:none;stroke:#cbcbcb;"/>
     </g>
     <g id="line2d_14"/>
     <g id="line2d_15"/>
     <g id="text_5">
      <!-- 20 -->
      <defs>
       <path d="M 19.1875 8.296875 
L 53.609375 8.296875 
L 53.609375 0 
L 7.328125 0 
L 7.328125 8.296875 
Q 12.9375 14.109375 22.625 23.890625 
Q 32.328125 33.6875 34.8125 36.53125 
Q 39.546875 41.84375 41.421875 45.53125 
Q 43.3125 49.21875 43.3125 52.78125 
Q 43.3125 58.59375 39.234375 62.25 
Q 35.15625 65.921875 28.609375 65.921875 
Q 23.96875 65.921875 18.8125 64.3125 
Q 13.671875 62.703125 7.8125 59.421875 
L 7.8125 69.390625 
Q 13.765625 71.78125 18.9375 73 
Q 24.125 74.21875 28.421875 74.21875 
Q 39.75 74.21875 46.484375 68.546875 
Q 53.21875 62.890625 53.21875 53.421875 
Q 53.21875 48.921875 51.53125 44.890625 
Q 49.859375 40.875 45.40625 35.40625 
Q 44.1875 33.984375 37.640625 27.21875 
Q 31.109375 20.453125 19.1875 8.296875 
" id="BitstreamVeraSans-Roman-32"/>
      </defs>
      <g transform="translate(461.965840909 332.125)scale(0.12 -0.12)">
       <use xlink:href="#BitstreamVeraSans-Roman-32"/>
       <use x="63.623046875" xlink:href="#BitstreamVeraSans-Roman-30"/>
      </g>
     </g>
    </g>
    <g id="text_6">
     <!-- $\sf \lambda$ -->
     <defs>
      <path d="M 5.078125 1.703125 
Q 5.078125 3.171875 6.390625 4.5 
L 34.515625 32.078125 
L 24.609375 59.90625 
Q 23.4375 63.09375 22.140625 64.9375 
Q 20.84375 66.796875 18.40625 66.796875 
Q 17.28125 66.796875 17.28125 68.109375 
Q 17.390625 68.703125 17.78125 69.046875 
Q 18.171875 69.390625 18.796875 69.390625 
Q 29.296875 69.390625 31.5 63.1875 
L 51.8125 6.5 
Q 53.125 2.25 54.5 0.78125 
Q 54.984375 0.046875 54.984375 -0.203125 
Q 54.984375 -1.125 54.203125 -1.125 
L 48.78125 -1.125 
Q 46.296875 -0.390625 44.828125 3.21875 
L 35.6875 28.8125 
L 11.53125 0.390625 
Q 9.71875 -1.3125 8.296875 -1.3125 
Q 7.03125 -1.3125 6.046875 -0.4375 
Q 5.078125 0.4375 5.078125 1.703125 
" id="Cmmi10-b8"/>
     </defs>
     <g transform="translate(276.84375 350.562375)scale(0.144 -0.144)">
      <use transform="translate(0.0 0.609375)" xlink:href="#Cmmi10-b8"/>
     </g>
    </g>
   </g>
   <g id="matplotlib.axis_2">
    <g id="ytick_1">
     <g id="line2d_16">
      <path clip-path="url(#pe9fa00db69)" d="M 50.69175 319.006875 
L 511.49175 319.006875 
" style="fill:none;stroke:#cbcbcb;"/>
     </g>
     <g id="line2d_17"/>
     <g id="line2d_18"/>
     <g id="text_7">
      <!-- 0.0 -->
      <defs>
       <path d="M 10.6875 12.40625 
L 21 12.40625 
L 21 0 
L 10.6875 0 
z
" id="BitstreamVeraSans-Roman-2e"/>
      </defs>
      <g transform="translate(27.608 322.318125)scale(0.12 -0.12)">
       <use xlink:href="#BitstreamVeraSans-Roman-30"/>
       <use x="63.623046875" xlink:href="#BitstreamVeraSans-Roman-2e"/>
       <use x="95.41015625" xlink:href="#BitstreamVeraSans-Roman-30"/>
      </g>
     </g>
    </g>
    <g id="ytick_2">
     <g id="line2d_19">
      <path clip-path="url(#pe9fa00db69)" d="M 50.69175 257.806875 
L 511.49175 257.806875 
" style="fill:none;stroke:#cbcbcb;"/>
     </g>
     <g id="line2d_20"/>
     <g id="line2d_21"/>
     <g id="text_8">
      <!-- 0.1 -->
      <g transform="translate(27.608 261.118125)scale(0.12 -0.12)">
       <use xlink:href="#BitstreamVeraSans-Roman-30"/>
       <use x="63.623046875" xlink:href="#BitstreamVeraSans-Roman-2e"/>
       <use x="95.41015625" xlink:href="#BitstreamVeraSans-Roman-31"/>
      </g>
     </g>
    </g>
    <g id="ytick_3">
     <g id="line2d_22">
      <path clip-path="url(#pe9fa00db69)" d="M 50.69175 196.606875 
L 511.49175 196.606875 
" style="fill:none;stroke:#cbcbcb;"/>
     </g>
     <g id="line2d_23"/>
     <g id="line2d_24"/>
     <g id="text_9">
      <!-- 0.2 -->
      <g transform="translate(27.608 199.918125)scale(0.12 -0.12)">
       <use xlink:href="#BitstreamVeraSans-Roman-30"/>
       <use x="63.623046875" xlink:href="#BitstreamVeraSans-Roman-2e"/>
       <use x="95.41015625" xlink:href="#BitstreamVeraSans-Roman-32"/>
      </g>
     </g>
    </g>
    <g id="ytick_4">
     <g id="line2d_25">
      <path clip-path="url(#pe9fa00db69)" d="M 50.69175 135.406875 
L 511.49175 135.406875 
" style="fill:none;stroke:#cbcbcb;"/>
     </g>
     <g id="line2d_26"/>
     <g id="line2d_27"/>
     <g id="text_10">
      <!-- 0.3 -->
      <defs>
       <path d="M 40.578125 39.3125 
Q 47.65625 37.796875 51.625 33 
Q 55.609375 28.21875 55.609375 21.1875 
Q 55.609375 10.40625 48.1875 4.484375 
Q 40.765625 -1.421875 27.09375 -1.421875 
Q 22.515625 -1.421875 17.65625 -0.515625 
Q 12.796875 0.390625 7.625 2.203125 
L 7.625 11.71875 
Q 11.71875 9.328125 16.59375 8.109375 
Q 21.484375 6.890625 26.8125 6.890625 
Q 36.078125 6.890625 40.9375 10.546875 
Q 45.796875 14.203125 45.796875 21.1875 
Q 45.796875 27.640625 41.28125 31.265625 
Q 36.765625 34.90625 28.71875 34.90625 
L 20.21875 34.90625 
L 20.21875 43.015625 
L 29.109375 43.015625 
Q 36.375 43.015625 40.234375 45.921875 
Q 44.09375 48.828125 44.09375 54.296875 
Q 44.09375 59.90625 40.109375 62.90625 
Q 36.140625 65.921875 28.71875 65.921875 
Q 24.65625 65.921875 20.015625 65.03125 
Q 15.375 64.15625 9.8125 62.3125 
L 9.8125 71.09375 
Q 15.4375 72.65625 20.34375 73.4375 
Q 25.25 74.21875 29.59375 74.21875 
Q 40.828125 74.21875 47.359375 69.109375 
Q 53.90625 64.015625 53.90625 55.328125 
Q 53.90625 49.265625 50.4375 45.09375 
Q 46.96875 40.921875 40.578125 39.3125 
" id="BitstreamVeraSans-Roman-33"/>
      </defs>
      <g transform="translate(27.608 138.718125)scale(0.12 -0.12)">
       <use xlink:href="#BitstreamVeraSans-Roman-30"/>
       <use x="63.623046875" xlink:href="#BitstreamVeraSans-Roman-2e"/>
       <use x="95.41015625" xlink:href="#BitstreamVeraSans-Roman-33"/>
      </g>
     </g>
    </g>
    <g id="ytick_5">
     <g id="line2d_28">
      <path clip-path="url(#pe9fa00db69)" d="M 50.69175 74.206875 
L 511.49175 74.206875 
" style="fill:none;stroke:#cbcbcb;"/>
     </g>
     <g id="line2d_29"/>
     <g id="line2d_30"/>
     <g id="text_11">
      <!-- 0.4 -->
      <defs>
       <path d="M 37.796875 64.3125 
L 12.890625 25.390625 
L 37.796875 25.390625 
z
M 35.203125 72.90625 
L 47.609375 72.90625 
L 47.609375 25.390625 
L 58.015625 25.390625 
L 58.015625 17.1875 
L 47.609375 17.1875 
L 47.609375 0 
L 37.796875 0 
L 37.796875 17.1875 
L 4.890625 17.1875 
L 4.890625 26.703125 
z
" id="BitstreamVeraSans-Roman-34"/>
      </defs>
      <g transform="translate(27.608 77.518125)scale(0.12 -0.12)">
       <use xlink:href="#BitstreamVeraSans-Roman-30"/>
       <use x="63.623046875" xlink:href="#BitstreamVeraSans-Roman-2e"/>
       <use x="95.41015625" xlink:href="#BitstreamVeraSans-Roman-34"/>
      </g>
     </g>
    </g>
    <g id="ytick_6">
     <g id="line2d_31">
      <path clip-path="url(#pe9fa00db69)" d="M 50.69175 13.006875 
L 511.49175 13.006875 
" style="fill:none;stroke:#cbcbcb;"/>
     </g>
     <g id="line2d_32"/>
     <g id="line2d_33"/>
     <g id="text_12">
      <!-- 0.5 -->
      <g transform="translate(27.608 16.318125)scale(0.12 -0.12)">
       <use xlink:href="#BitstreamVeraSans-Roman-30"/>
       <use x="63.623046875" xlink:href="#BitstreamVeraSans-Roman-2e"/>
       <use x="95.41015625" xlink:href="#BitstreamVeraSans-Roman-35"/>
      </g>
     </g>
    </g>
    <g id="text_13">
     <!-- $\sf C_p ( \lambda,\beta )$ -->
     <defs>
      <path d="M 8.015625 -19.390625 
L 8.015625 44.390625 
L 15.921875 44.390625 
L 15.921875 39.703125 
Q 22.953125 45.515625 33.015625 45.515625 
Q 37.9375 45.515625 41.375 41.75 
Q 44.828125 37.984375 46.5 32.53125 
Q 48.1875 27.09375 48.1875 22.21875 
Q 48.1875 16.890625 45.96875 11.375 
Q 43.75 5.859375 39.578125 2.359375 
Q 35.40625 -1.125 29.78125 -1.125 
Q 25.984375 -1.125 22.4375 0.359375 
Q 18.890625 1.859375 16.21875 4.390625 
L 16.21875 -19.390625 
z
M 16.21875 11.625 
Q 17.78125 8.734375 20.125 7.078125 
Q 22.46875 5.421875 25.484375 5.421875 
Q 29.78125 5.421875 33.078125 7.828125 
Q 36.375 10.25 38.171875 14.203125 
Q 39.984375 18.171875 39.984375 22.21875 
Q 39.984375 28.515625 36.328125 33.609375 
Q 32.671875 38.71875 26.703125 38.71875 
Q 24.703125 38.71875 22.671875 38.03125 
Q 20.65625 37.359375 19.046875 36.15625 
Q 17.4375 34.96875 16.21875 33.203125 
z
" id="Cmss10-70"/>
      <path d="M 6.5 -25 
Q 5.609375 -25 5.609375 -24.125 
Q 5.609375 -23.6875 5.8125 -23.484375 
Q 22.90625 -6.78125 22.90625 25 
Q 22.90625 56.78125 6 73.296875 
Q 5.609375 73.53125 5.609375 74.125 
Q 5.609375 74.46875 5.875 74.734375 
Q 6.15625 75 6.5 75 
L 7.421875 75 
Q 7.71875 75 7.90625 74.8125 
Q 15.09375 69.140625 19.875 61.03125 
Q 24.65625 52.9375 26.875 43.75 
Q 29.109375 34.578125 29.109375 25 
Q 29.109375 17.921875 27.90625 11.0625 
Q 26.703125 4.203125 24.09375 -2.453125 
Q 21.484375 -9.125 17.484375 -14.765625 
Q 13.484375 -20.40625 7.90625 -24.8125 
Q 7.71875 -25 7.421875 -25 
z
" id="Cmr10-29"/>
      <path d="M 38.8125 -2.203125 
Q 31.6875 -2.203125 25.671875 0.921875 
Q 19.671875 4.046875 15.40625 9.375 
Q 11.140625 14.703125 8.8125 21.234375 
Q 6.5 27.78125 6.5 34.71875 
Q 6.5 41.65625 8.8125 48.21875 
Q 11.140625 54.78125 15.453125 60.125 
Q 19.78125 65.484375 25.734375 68.53125 
Q 31.6875 71.578125 38.8125 71.578125 
Q 42.53125 71.578125 45.53125 71.234375 
Q 48.53125 70.90625 51.65625 70.09375 
Q 54.78125 69.28125 57.71875 68.109375 
L 56.203125 59.515625 
L 56.109375 59.515625 
Q 51.953125 62.359375 47.890625 63.578125 
Q 43.84375 64.796875 38.8125 64.796875 
Q 33.296875 64.796875 28.96875 62.0625 
Q 24.65625 59.328125 21.71875 54.828125 
Q 18.796875 50.34375 17.3125 45.09375 
Q 15.828125 39.84375 15.828125 34.71875 
Q 15.828125 29.640625 17.328125 24.3125 
Q 18.84375 19 21.796875 14.5 
Q 24.75 10.015625 29.09375 7.296875 
Q 33.453125 4.59375 38.8125 4.59375 
Q 45.265625 4.59375 49.140625 5.8125 
Q 53.03125 7.03125 58.203125 10.6875 
L 58.796875 3.515625 
L 58.796875 3.421875 
Q 55.03125 1.078125 52.21875 -0.09375 
Q 49.421875 -1.265625 46.4375 -1.734375 
Q 43.453125 -2.203125 38.8125 -2.203125 
" id="Cmss10-43"/>
      <path d="M 2.6875 -19.390625 
Q 2.390625 -19.390625 2.140625 -19.046875 
Q 1.90625 -18.703125 1.90625 -18.40625 
L 17.28125 43.40625 
Q 18.609375 48.390625 21.140625 53.078125 
Q 23.6875 57.765625 27.515625 61.796875 
Q 31.34375 65.828125 35.9375 68.171875 
Q 40.53125 70.515625 45.703125 70.515625 
Q 49.421875 70.515625 52.421875 68.875 
Q 55.421875 67.234375 57.15625 64.28125 
Q 58.890625 61.328125 58.890625 57.625 
Q 58.890625 54.046875 57.515625 50.796875 
Q 56.15625 47.5625 53.703125 44.75 
Q 51.265625 41.9375 48.484375 40.1875 
Q 50.09375 39.15625 51.359375 37.5625 
Q 52.640625 35.984375 53.421875 34.25 
Q 54.203125 32.515625 54.640625 30.390625 
Q 55.078125 28.265625 55.078125 26.421875 
Q 55.078125 21.296875 52.875 16.3125 
Q 50.6875 11.328125 46.890625 7.265625 
Q 43.109375 3.21875 38.21875 0.84375 
Q 33.34375 -1.515625 28.21875 -1.515625 
Q 22.609375 -1.515625 18.109375 1.5625 
Q 13.625 4.640625 11.921875 9.90625 
L 4.6875 -18.796875 
Q 4.6875 -19.390625 3.90625 -19.390625 
z
M 28.421875 1.21875 
Q 32.90625 1.21875 36.546875 4.171875 
Q 40.1875 7.125 42.546875 11.59375 
Q 44.921875 16.0625 46.15625 21.0625 
Q 47.40625 26.078125 47.40625 30.171875 
Q 47.40625 35.25 44.484375 38.1875 
Q 41.0625 36.921875 37.796875 36.921875 
Q 29.890625 36.921875 29.890625 39.59375 
Q 29.890625 43.109375 38.921875 43.109375 
Q 42.140625 43.109375 44.828125 42.09375 
Q 46.96875 43.75 48.71875 46.96875 
Q 50.484375 50.203125 51.390625 53.71875 
Q 52.296875 57.234375 52.296875 60.296875 
Q 52.296875 63.578125 50.5625 65.75 
Q 48.828125 67.921875 45.515625 67.921875 
Q 39.40625 67.921875 34.15625 64.15625 
Q 28.90625 60.40625 25.296875 54.65625 
Q 21.6875 48.921875 20.125 42.828125 
L 14.59375 20.703125 
Q 14.0625 18.40625 13.921875 15.578125 
Q 13.921875 9.328125 18.015625 5.265625 
Q 22.125 1.21875 28.421875 1.21875 
M 32.90625 39.890625 
Q 34.421875 39.5 37.890625 39.5 
Q 39.59375 39.5 41.3125 40.09375 
Q 41.21875 40.1875 40.921875 40.1875 
Q 39.84375 40.484375 38.625 40.484375 
Q 34.078125 40.484375 32.90625 39.890625 
" id="Cmmi10-af"/>
      <path d="M 31 -24.8125 
Q 25.4375 -20.40625 21.40625 -14.71875 
Q 17.390625 -9.03125 14.8125 -2.578125 
Q 12.25 3.859375 10.984375 10.890625 
Q 9.71875 17.921875 9.71875 25 
Q 9.71875 32.171875 10.984375 39.203125 
Q 12.25 46.234375 14.859375 52.734375 
Q 17.484375 59.234375 21.53125 64.890625 
Q 25.59375 70.5625 31 74.8125 
Q 31 75 31.5 75 
L 32.421875 75 
Q 32.71875 75 32.953125 74.734375 
Q 33.203125 74.46875 33.203125 74.125 
Q 33.203125 73.6875 33.015625 73.484375 
Q 28.125 68.703125 24.875 63.234375 
Q 21.625 57.765625 19.640625 51.578125 
Q 17.671875 45.40625 16.796875 38.78125 
Q 15.921875 32.171875 15.921875 25 
Q 15.921875 -6.78125 32.90625 -23.296875 
Q 33.203125 -23.578125 33.203125 -24.125 
Q 33.203125 -24.359375 32.9375 -24.671875 
Q 32.671875 -25 32.421875 -25 
L 31.5 -25 
Q 31 -25 31 -24.8125 
" id="Cmr10-28"/>
      <path d="M 9.90625 -18.015625 
Q 9.90625 -17.578125 10.296875 -17.1875 
Q 13.921875 -13.71875 15.921875 -9.171875 
Q 17.921875 -4.640625 17.921875 0.390625 
L 17.921875 1.609375 
Q 16.3125 0 13.921875 0 
Q 11.625 0 10.015625 1.609375 
Q 8.40625 3.21875 8.40625 5.515625 
Q 8.40625 7.859375 10.015625 9.421875 
Q 11.625 10.984375 13.921875 10.984375 
Q 17.484375 10.984375 19 7.6875 
Q 20.515625 4.390625 20.515625 0.390625 
Q 20.515625 -5.171875 18.28125 -10.171875 
Q 16.0625 -15.1875 12.015625 -19.1875 
Q 11.625 -19.390625 11.375 -19.390625 
Q 10.890625 -19.390625 10.390625 -18.9375 
Q 9.90625 -18.5 9.90625 -18.015625 
" id="Cmmi10-3b"/>
     </defs>
     <g transform="translate(18.0 191.062875)rotate(-90.0)scale(0.144 -0.144)">
      <use xlink:href="#Cmss10-43"/>
      <use transform="translate(68.464609375 -17.700000000000003)scale(0.7)" xlink:href="#Cmss10-70"/>
      <use transform="translate(111.2300390625 0.0)" xlink:href="#Cmr10-28"/>
      <use transform="translate(150.0483984375 0.0)" xlink:href="#Cmmi10-b8"/>
      <use transform="translate(208.3491796875 0.0)" xlink:href="#Cmmi10-3b"/>
      <use transform="translate(251.9136328125 0.0)" xlink:href="#Cmmi10-af"/>
      <use transform="translate(308.4077734375 0.0)" xlink:href="#Cmr10-29"/>
     </g>
    </g>
   </g>
   <g id="line2d_34">
    <path clip-path="url(#pe9fa00db69)" d="M 61.164477 316.926075 
L 64.761171 316.211457 
L 68.357866 315.496837 
L 71.95456 314.782148 
L 75.551254 314.06639 
L 79.147948 313.343221 
L 82.744643 312.58999 
L 86.341337 311.752726 
L 89.938031 310.735316 
L 93.534725 309.399878 
L 97.131419 307.579014 
L 100.728114 305.095396 
L 104.324808 301.782661 
L 107.921502 297.502909 
L 111.518196 292.158408 
L 115.11489 285.697131 
L 118.711585 278.112989 
L 122.308279 269.44218 
L 125.904973 259.757094 
L 129.501667 249.159056 
L 133.098362 237.770809 
L 136.695056 225.729416 
L 140.29175 213.179922 
L 143.888444 200.269994 
L 147.485138 187.14556 
L 151.081833 173.947419 
L 154.678527 160.808722 
L 158.275221 147.85322 
L 161.871915 135.194138 
L 165.46861 122.933567 
L 169.065304 111.162274 
L 172.661998 99.959809 
L 176.258692 89.394859 
L 179.855386 79.525761 
L 183.452081 70.401127 
L 187.048775 62.06054 
L 190.645469 54.535283 
L 194.242163 47.84908 
L 197.838857 42.018822 
L 201.435552 37.055277 
L 205.032246 32.96376 
L 208.62894 29.744767 
L 212.225634 27.394567 
L 215.822329 25.905747 
L 219.419023 25.26771 
L 223.015717 25.467136 
L 226.612411 26.488395 
L 230.209105 28.313916 
L 233.8058 30.924527 
L 237.402494 34.299754 
L 240.999188 38.418084 
L 244.595882 43.257203 
L 248.192576 48.794207 
L 251.789271 55.005781 
L 255.385965 61.868363 
L 258.982659 69.358281 
L 262.579353 77.451876 
L 266.176048 86.125606 
L 269.772742 95.356132 
L 273.369436 105.120402 
L 276.96613 115.395707 
L 280.562824 126.15974 
L 284.159519 137.390639 
L 287.756213 149.067021 
L 291.352907 161.168015 
L 294.949601 173.673284 
L 298.546295 186.563038 
L 302.14299 199.81805 
L 305.739684 213.419663 
L 309.336378 227.349796 
L 312.933072 241.590941 
L 316.529767 256.126165 
L 320.126461 270.939104 
L 323.723155 286.01396 
L 327.319849 301.335488 
L 330.916543 316.888995 
L 334.513238 332.66032 
L 338.109932 348.635832 
L 341.029119 361.757125 
" style="fill:none;stroke:#fc4f30;stroke-width:4.0;"/>
   </g>
   <g id="line2d_35">
    <path clip-path="url(#pe9fa00db69)" d="M 61.164477 316.926058 
L 64.761171 316.211099 
L 68.357866 315.493563 
L 71.95456 314.764499 
L 75.551254 314.000865 
L 79.147948 313.15915 
L 82.744643 312.17393 
L 86.341337 310.96248 
L 89.938031 309.433728 
L 93.534725 307.498614 
L 97.131419 305.079349 
L 100.728114 302.116095 
L 104.324808 298.570654 
L 107.921502 294.427435 
L 111.518196 289.692327 
L 115.11489 284.390174 
L 118.711585 278.561495 
L 122.308279 272.258929 
L 125.904973 265.543772 
L 129.501667 258.482807 
L 133.098362 251.145559 
L 136.695056 243.602016 
L 140.29175 235.920809 
L 143.888444 228.167816 
L 147.485138 220.40515 
L 151.081833 212.690462 
L 154.678527 205.076512 
L 158.275221 197.610956 
L 161.871915 190.336302 
L 165.46861 183.289984 
L 169.065304 176.504544 
L 172.661998 170.007871 
L 176.258692 163.823487 
L 179.855386 157.970856 
L 183.452081 152.465715 
L 187.048775 147.320396 
L 190.645469 142.544149 
L 194.242163 138.143453 
L 197.838857 134.122311 
L 201.435552 130.48253 
L 205.032246 127.223979 
L 208.62894 124.344829 
L 212.225634 121.841776 
L 215.822329 119.710239 
L 219.419023 117.944545 
L 223.015717 116.538095 
L 226.612411 115.483512 
L 230.209105 114.772775 
L 233.8058 114.397338 
L 237.402494 114.348237 
L 240.999188 114.616181 
L 244.595882 115.191641 
L 248.192576 116.064917 
L 251.789271 117.226207 
L 255.385965 118.665658 
L 258.982659 120.373419 
L 262.579353 122.339681 
L 266.176048 124.554712 
L 269.772742 127.008892 
L 273.369436 129.692733 
L 276.96613 132.596906 
L 280.562824 135.712256 
L 284.159519 139.029822 
L 287.756213 142.540841 
L 291.352907 146.236764 
L 294.949601 150.109263 
L 298.546295 154.150234 
L 302.14299 158.351799 
L 305.739684 162.706315 
L 309.336378 167.206367 
L 312.933072 171.844774 
L 316.529767 176.614584 
L 320.126461 181.509073 
L 323.723155 186.521744 
L 327.319849 191.646321 
L 330.916543 196.876748 
L 334.513238 202.207181 
L 338.109932 207.631989 
L 341.706626 213.145744 
L 345.30332 218.74322 
L 348.900014 224.419385 
L 352.496709 230.169397 
L 356.093403 235.988599 
L 359.690097 241.872514 
L 363.286791 247.816837 
L 366.883486 253.817434 
L 370.48018 259.870334 
L 374.076874 265.971722 
L 377.673568 272.117938 
L 381.270262 278.305469 
L 384.866957 284.530946 
L 388.463651 290.791135 
L 392.060345 297.082939 
L 395.657039 303.403387 
L 399.253733 309.749631 
L 402.850428 316.118945 
L 406.447122 322.508716 
L 410.043816 328.916443 
L 413.64051 335.33973 
L 417.237205 341.776285 
" style="fill:none;stroke:#5cb85c;stroke-width:4.0;"/>
   </g>
   <g id="line2d_36">
    <path clip-path="url(#pe9fa00db69)" d="M 61.164477 316.913568 
L 64.761171 316.161454 
L 68.357866 315.345357 
L 71.95456 314.408092 
L 75.551254 313.27599 
L 79.147948 311.867223 
L 82.744643 310.101816 
L 86.341337 307.910752 
L 89.938031 305.242603 
L 93.534725 302.067173 
L 97.131419 298.376397 
L 100.728114 294.183121 
L 104.324808 289.518471 
L 107.921502 284.428465 
L 111.518196 278.97038 
L 115.11489 273.209222 
L 118.711585 267.214541 
L 122.308279 261.057682 
L 125.904973 254.809535 
L 129.501667 248.538768 
L 133.098362 242.310498 
L 136.695056 236.18535 
L 140.29175 230.218849 
L 143.888444 224.461072 
L 147.485138 218.956519 
L 151.081833 213.744147 
L 154.678527 208.857524 
L 158.275221 204.325077 
L 161.871915 200.170394 
L 165.46861 196.412568 
L 169.065304 193.066557 
L 172.661998 190.143554 
L 176.258692 187.651354 
L 179.855386 185.5947 
L 183.452081 183.97563 
L 187.048775 182.793789 
L 190.645469 182.046729 
L 194.242163 181.730178 
L 197.838857 181.838301 
L 201.435552 182.363918 
L 205.032246 183.298722 
L 208.62894 184.633458 
L 212.225634 186.358097 
L 215.822329 188.461981 
L 219.419023 190.933961 
L 223.015717 193.762511 
L 226.612411 196.935833 
L 230.209105 200.441949 
L 233.8058 204.268781 
L 237.402494 208.404218 
L 240.999188 212.836177 
L 244.595882 217.552656 
L 248.192576 222.541775 
L 251.789271 227.791815 
L 255.385965 233.291248 
L 258.982659 239.028766 
L 262.579353 244.993298 
L 266.176048 251.174031 
L 269.772742 257.560421 
L 273.369436 264.142206 
L 276.96613 270.909411 
L 280.562824 277.852354 
L 284.159519 284.961653 
L 287.756213 292.22822 
L 291.352907 299.643267 
L 294.949601 307.198304 
L 298.546295 314.885132 
L 302.14299 322.695845 
L 305.739684 330.62282 
L 309.336378 338.658718 
L 312.933072 346.796474 
L 316.529767 355.02929 
L 319.437706 361.757125 
" style="fill:none;stroke:#30a2da;stroke-width:4.0;"/>
   </g>
   <g id="line2d_37">
    <path clip-path="url(#pe9fa00db69)" d="M 61.164477 316.626008 
L 64.761171 315.561783 
L 68.357866 314.257121 
L 71.95456 312.640629 
L 75.551254 310.65174 
L 79.147948 308.247298 
L 82.744643 305.405169 
L 86.341337 302.125059 
L 89.938031 298.427175 
L 93.534725 294.349457 
L 97.131419 289.944049 
L 100.728114 285.273544 
L 104.324808 280.40737 
L 107.921502 275.418545 
L 111.518196 270.380915 
L 115.11489 265.366915 
L 118.711585 260.445842 
L 122.308279 255.682582 
L 125.904973 251.13675 
L 129.501667 246.862155 
L 133.098362 242.906541 
L 136.695056 239.311545 
L 140.29175 236.112815 
L 143.888444 233.340244 
L 147.485138 231.018286 
L 151.081833 229.166335 
L 154.678527 227.799125 
L 158.275221 226.927144 
L 161.871915 226.557054 
L 165.46861 226.692097 
L 169.065304 227.33248 
L 172.661998 228.475749 
L 176.258692 230.117127 
L 179.855386 232.249834 
L 183.452081 234.865379 
L 187.048775 237.953824 
L 190.645469 241.504021 
L 194.242163 245.503832 
L 197.838857 249.940319 
L 201.435552 254.799917 
L 205.032246 260.068583 
L 208.62894 265.731932 
L 212.225634 271.775354 
L 215.822329 278.184114 
L 219.419023 284.943444 
L 223.015717 292.038617 
L 226.612411 299.455013 
L 230.209105 307.178176 
L 233.8058 315.193859 
L 237.402494 323.488065 
L 240.999188 332.047078 
L 244.595882 340.857493 
L 248.192576 349.906233 
L 251.789271 359.180566 
L 252.766034 361.757125 
" style="fill:none;stroke:#e5ae38;stroke-width:4.0;"/>
   </g>
   <g id="line2d_38">
    <path clip-path="url(#pe9fa00db69)" d="M 61.164477 315.127288 
L 64.761171 313.319491 
L 68.357866 311.153355 
L 71.95456 308.614841 
L 75.551254 305.7116 
L 79.147948 302.471501 
L 82.744643 298.939693 
L 86.341337 295.174912 
L 89.938031 291.245583 
L 93.534725 287.226087 
L 97.131419 283.193442 
L 100.728114 279.224505 
L 104.324808 275.39374 
L 107.921502 271.77151 
L 111.518196 268.422873 
L 115.11489 265.406779 
L 118.711585 262.775624 
L 122.308279 260.575075 
L 125.904973 258.844122 
L 129.501667 257.615271 
L 133.098362 256.914874 
L 136.695056 256.763517 
L 140.29175 257.176471 
L 143.888444 258.164153 
L 147.485138 259.732608 
L 151.081833 261.883969 
L 154.678527 264.616913 
L 158.275221 267.927084 
L 161.871915 271.807498 
L 165.46861 276.24891 
L 169.065304 281.240156 
L 172.661998 286.768462 
L 176.258692 292.819724 
L 179.855386 299.378759 
L 183.452081 306.429531 
L 187.048775 313.955346 
L 190.645469 321.939031 
L 194.242163 330.363087 
L 197.838857 339.209824 
L 201.435552 348.461478 
L 205.032246 358.100308 
L 206.346389 361.757125 
" style="fill:none;stroke:#8b8b8b;stroke-width:4.0;"/>
   </g>
   <g id="patch_3">
    <path d="M 50.69175 319.006875 
L 50.69175 13.006875 
" style="fill:none;stroke:#ffffff;stroke-linecap:square;stroke-linejoin:miter;stroke-width:3.0;"/>
   </g>
   <g id="patch_4">
    <path d="M 50.69175 13.006875 
L 511.49175 13.006875 
" style="fill:none;stroke:#ffffff;stroke-linecap:square;stroke-linejoin:miter;stroke-width:3.0;"/>
   </g>
   <g id="patch_5">
    <path d="M 50.69175 319.006875 
L 511.49175 319.006875 
" style="fill:none;stroke:#ffffff;stroke-linecap:square;stroke-linejoin:miter;stroke-width:3.0;"/>
   </g>
   <g id="patch_6">
    <path d="M 511.49175 319.006875 
L 511.49175 13.006875 
" style="fill:none;stroke:#ffffff;stroke-linecap:square;stroke-linejoin:miter;stroke-width:3.0;"/>
   </g>
  </g>
 </g>
 <defs>
  <clipPath id="pe9fa00db69">
   <rect height="306.0" width="460.8" x="50.69175" y="13.006875"/>
  </clipPath>
 </defs>
</svg>
