<?xml version="1.0" encoding="utf-8" standalone="no"?>
<!DOCTYPE svg PUBLIC "-//W3C//DTD SVG 1.1//EN"
  "http://www.w3.org/Graphics/SVG/1.1/DTD/svg11.dtd">
<!-- Created with matplotlib (http://matplotlib.org/) -->
<svg height="347pt" version="1.1" viewBox="0 0 563 347" width="563pt" xmlns="http://www.w3.org/2000/svg" xmlns:xlink="http://www.w3.org/1999/xlink">
 <defs>
  <style type="text/css">
*{stroke-linecap:butt;stroke-linejoin:round;stroke-miterlimit:100000;}
  </style>
 </defs>
 <g id="figure_1">
  <g id="patch_1">
   <path d="M 0 347.974425 
L 563.6526 347.974425 
L 563.6526 0 
L 0 0 
z
" style="fill:none;opacity:0;"/>
  </g>
  <g id="axes_1">
   <g id="patch_2">
    <path d="M 48.1938 303.436875 
L 507.8238 303.436875 
L 507.8238 13.006875 
L 48.1938 13.006875 
z
" style="fill:#ffffff;"/>
   </g>
   <g id="matplotlib.axis_1">
    <g id="xtick_1">
     <g id="line2d_1">
      <path clip-path="url(#p29d196def0)" d="M 48.1938 303.436875 
L 48.1938 13.006875 
" style="fill:none;stroke:#cbcbcb;"/>
     </g>
     <g id="line2d_2"/>
     <g id="line2d_3"/>
     <g id="text_1">
      <!-- 0 -->
      <defs>
       <path d="M 31.78125 66.40625 
Q 24.171875 66.40625 20.328125 58.90625 
Q 16.5 51.421875 16.5 36.375 
Q 16.5 21.390625 20.328125 13.890625 
Q 24.171875 6.390625 31.78125 6.390625 
Q 39.453125 6.390625 43.28125 13.890625 
Q 47.125 21.390625 47.125 36.375 
Q 47.125 51.421875 43.28125 58.90625 
Q 39.453125 66.40625 31.78125 66.40625 
M 31.78125 74.21875 
Q 44.046875 74.21875 50.515625 64.515625 
Q 56.984375 54.828125 56.984375 36.375 
Q 56.984375 17.96875 50.515625 8.265625 
Q 44.046875 -1.421875 31.78125 -1.421875 
Q 19.53125 -1.421875 13.0625 8.265625 
Q 6.59375 17.96875 6.59375 36.375 
Q 6.59375 54.828125 13.0625 64.515625 
Q 19.53125 74.21875 31.78125 74.21875 
" id="BitstreamVeraSans-Roman-30"/>
      </defs>
      <g transform="translate(44.3763 316.555)scale(0.12 -0.12)">
       <use xlink:href="#BitstreamVeraSans-Roman-30"/>
      </g>
     </g>
    </g>
    <g id="xtick_2">
     <g id="line2d_4">
      <path clip-path="url(#p29d196def0)" d="M 113.855229 303.436875 
L 113.855229 13.006875 
" style="fill:none;stroke:#cbcbcb;"/>
     </g>
     <g id="line2d_5"/>
     <g id="line2d_6"/>
     <g id="text_2">
      <!-- 5 -->
      <defs>
       <path d="M 10.796875 72.90625 
L 49.515625 72.90625 
L 49.515625 64.59375 
L 19.828125 64.59375 
L 19.828125 46.734375 
Q 21.96875 47.46875 24.109375 47.828125 
Q 26.265625 48.1875 28.421875 48.1875 
Q 40.625 48.1875 47.75 41.5 
Q 54.890625 34.8125 54.890625 23.390625 
Q 54.890625 11.625 47.5625 5.09375 
Q 40.234375 -1.421875 26.90625 -1.421875 
Q 22.3125 -1.421875 17.546875 -0.640625 
Q 12.796875 0.140625 7.71875 1.703125 
L 7.71875 11.625 
Q 12.109375 9.234375 16.796875 8.0625 
Q 21.484375 6.890625 26.703125 6.890625 
Q 35.15625 6.890625 40.078125 11.328125 
Q 45.015625 15.765625 45.015625 23.390625 
Q 45.015625 31 40.078125 35.4375 
Q 35.15625 39.890625 26.703125 39.890625 
Q 22.75 39.890625 18.8125 39.015625 
Q 14.890625 38.140625 10.796875 36.28125 
z
" id="BitstreamVeraSans-Roman-35"/>
      </defs>
      <g transform="translate(110.037728571 316.555)scale(0.12 -0.12)">
       <use xlink:href="#BitstreamVeraSans-Roman-35"/>
      </g>
     </g>
    </g>
    <g id="xtick_3">
     <g id="line2d_7">
      <path clip-path="url(#p29d196def0)" d="M 179.516657 303.436875 
L 179.516657 13.006875 
" style="fill:none;stroke:#cbcbcb;"/>
     </g>
     <g id="line2d_8"/>
     <g id="line2d_9"/>
     <g id="text_3">
      <!-- 10 -->
      <defs>
       <path d="M 12.40625 8.296875 
L 28.515625 8.296875 
L 28.515625 63.921875 
L 10.984375 60.40625 
L 10.984375 69.390625 
L 28.421875 72.90625 
L 38.28125 72.90625 
L 38.28125 8.296875 
L 54.390625 8.296875 
L 54.390625 0 
L 12.40625 0 
z
" id="BitstreamVeraSans-Roman-31"/>
      </defs>
      <g transform="translate(171.881657143 316.555)scale(0.12 -0.12)">
       <use xlink:href="#BitstreamVeraSans-Roman-31"/>
       <use x="63.623046875" xlink:href="#BitstreamVeraSans-Roman-30"/>
      </g>
     </g>
    </g>
    <g id="xtick_4">
     <g id="line2d_10">
      <path clip-path="url(#p29d196def0)" d="M 245.178086 303.436875 
L 245.178086 13.006875 
" style="fill:none;stroke:#cbcbcb;"/>
     </g>
     <g id="line2d_11"/>
     <g id="line2d_12"/>
     <g id="text_4">
      <!-- 15 -->
      <g transform="translate(237.543085714 316.555)scale(0.12 -0.12)">
       <use xlink:href="#BitstreamVeraSans-Roman-31"/>
       <use x="63.623046875" xlink:href="#BitstreamVeraSans-Roman-35"/>
      </g>
     </g>
    </g>
    <g id="xtick_5">
     <g id="line2d_13">
      <path clip-path="url(#p29d196def0)" d="M 310.839514 303.436875 
L 310.839514 13.006875 
" style="fill:none;stroke:#cbcbcb;"/>
     </g>
     <g id="line2d_14"/>
     <g id="line2d_15"/>
     <g id="text_5">
      <!-- 20 -->
      <defs>
       <path d="M 19.1875 8.296875 
L 53.609375 8.296875 
L 53.609375 0 
L 7.328125 0 
L 7.328125 8.296875 
Q 12.9375 14.109375 22.625 23.890625 
Q 32.328125 33.6875 34.8125 36.53125 
Q 39.546875 41.84375 41.421875 45.53125 
Q 43.3125 49.21875 43.3125 52.78125 
Q 43.3125 58.59375 39.234375 62.25 
Q 35.15625 65.921875 28.609375 65.921875 
Q 23.96875 65.921875 18.8125 64.3125 
Q 13.671875 62.703125 7.8125 59.421875 
L 7.8125 69.390625 
Q 13.765625 71.78125 18.9375 73 
Q 24.125 74.21875 28.421875 74.21875 
Q 39.75 74.21875 46.484375 68.546875 
Q 53.21875 62.890625 53.21875 53.421875 
Q 53.21875 48.921875 51.53125 44.890625 
Q 49.859375 40.875 45.40625 35.40625 
Q 44.1875 33.984375 37.640625 27.21875 
Q 31.109375 20.453125 19.1875 8.296875 
" id="BitstreamVeraSans-Roman-32"/>
      </defs>
      <g transform="translate(303.204514286 316.555)scale(0.12 -0.12)">
       <use xlink:href="#BitstreamVeraSans-Roman-32"/>
       <use x="63.623046875" xlink:href="#BitstreamVeraSans-Roman-30"/>
      </g>
     </g>
    </g>
    <g id="xtick_6">
     <g id="line2d_16">
      <path clip-path="url(#p29d196def0)" d="M 376.500943 303.436875 
L 376.500943 13.006875 
" style="fill:none;stroke:#cbcbcb;"/>
     </g>
     <g id="line2d_17"/>
     <g id="line2d_18"/>
     <g id="text_6">
      <!-- 25 -->
      <g transform="translate(368.865942857 316.555)scale(0.12 -0.12)">
       <use xlink:href="#BitstreamVeraSans-Roman-32"/>
       <use x="63.623046875" xlink:href="#BitstreamVeraSans-Roman-35"/>
      </g>
     </g>
    </g>
    <g id="xtick_7">
     <g id="line2d_19">
      <path clip-path="url(#p29d196def0)" d="M 442.162371 303.436875 
L 442.162371 13.006875 
" style="fill:none;stroke:#cbcbcb;"/>
     </g>
     <g id="line2d_20"/>
     <g id="line2d_21"/>
     <g id="text_7">
      <!-- 30 -->
      <defs>
       <path d="M 40.578125 39.3125 
Q 47.65625 37.796875 51.625 33 
Q 55.609375 28.21875 55.609375 21.1875 
Q 55.609375 10.40625 48.1875 4.484375 
Q 40.765625 -1.421875 27.09375 -1.421875 
Q 22.515625 -1.421875 17.65625 -0.515625 
Q 12.796875 0.390625 7.625 2.203125 
L 7.625 11.71875 
Q 11.71875 9.328125 16.59375 8.109375 
Q 21.484375 6.890625 26.8125 6.890625 
Q 36.078125 6.890625 40.9375 10.546875 
Q 45.796875 14.203125 45.796875 21.1875 
Q 45.796875 27.640625 41.28125 31.265625 
Q 36.765625 34.90625 28.71875 34.90625 
L 20.21875 34.90625 
L 20.21875 43.015625 
L 29.109375 43.015625 
Q 36.375 43.015625 40.234375 45.921875 
Q 44.09375 48.828125 44.09375 54.296875 
Q 44.09375 59.90625 40.109375 62.90625 
Q 36.140625 65.921875 28.71875 65.921875 
Q 24.65625 65.921875 20.015625 65.03125 
Q 15.375 64.15625 9.8125 62.3125 
L 9.8125 71.09375 
Q 15.4375 72.65625 20.34375 73.4375 
Q 25.25 74.21875 29.59375 74.21875 
Q 40.828125 74.21875 47.359375 69.109375 
Q 53.90625 64.015625 53.90625 55.328125 
Q 53.90625 49.265625 50.4375 45.09375 
Q 46.96875 40.921875 40.578125 39.3125 
" id="BitstreamVeraSans-Roman-33"/>
      </defs>
      <g transform="translate(434.527371429 316.555)scale(0.12 -0.12)">
       <use xlink:href="#BitstreamVeraSans-Roman-33"/>
       <use x="63.623046875" xlink:href="#BitstreamVeraSans-Roman-30"/>
      </g>
     </g>
    </g>
    <g id="xtick_8">
     <g id="line2d_22">
      <path clip-path="url(#p29d196def0)" d="M 507.8238 303.436875 
L 507.8238 13.006875 
" style="fill:none;stroke:#cbcbcb;"/>
     </g>
     <g id="line2d_23"/>
     <g id="line2d_24"/>
     <g id="text_8">
      <!-- 35 -->
      <g transform="translate(500.1888 316.555)scale(0.12 -0.12)">
       <use xlink:href="#BitstreamVeraSans-Roman-33"/>
       <use x="63.623046875" xlink:href="#BitstreamVeraSans-Roman-35"/>
      </g>
     </g>
    </g>
    <g id="text_9">
     <!-- $\sf V $ -->
     <defs>
      <path d="M 28.515625 0 
L 1.421875 69.390625 
L 11.078125 69.390625 
Q 13.765625 62.5 20.109375 46.0625 
Q 26.46875 29.640625 30.25 19.265625 
Q 34.03125 8.890625 34.078125 7.328125 
Q 34.078125 8.9375 37.84375 19.28125 
Q 41.609375 29.640625 47.953125 46.0625 
Q 54.296875 62.5 56.984375 69.390625 
L 65.1875 69.390625 
L 38.09375 0 
z
" id="Cmss10-56"/>
     </defs>
     <g transform="translate(272.22 337.180725)scale(0.1728 -0.1728)">
      <use transform="translate(0.0 0.609375)" xlink:href="#Cmss10-56"/>
     </g>
    </g>
   </g>
   <g id="matplotlib.axis_2">
    <g id="ytick_1">
     <g id="line2d_25">
      <path clip-path="url(#p29d196def0)" d="M 48.1938 303.436875 
L 507.8238 303.436875 
" style="fill:none;stroke:#cbcbcb;"/>
     </g>
     <g id="line2d_26"/>
     <g id="text_10">
      <!-- 0 -->
      <g transform="translate(36.5588 306.748125)scale(0.12 -0.12)">
       <use xlink:href="#BitstreamVeraSans-Roman-30"/>
      </g>
     </g>
    </g>
    <g id="ytick_2">
     <g id="line2d_27">
      <path clip-path="url(#p29d196def0)" d="M 48.1938 245.350875 
L 507.8238 245.350875 
" style="fill:none;stroke:#cbcbcb;"/>
     </g>
     <g id="line2d_28"/>
     <g id="text_11">
      <!-- 2 -->
      <g transform="translate(36.5588 248.662125)scale(0.12 -0.12)">
       <use xlink:href="#BitstreamVeraSans-Roman-32"/>
      </g>
     </g>
    </g>
    <g id="ytick_3">
     <g id="line2d_29">
      <path clip-path="url(#p29d196def0)" d="M 48.1938 187.264875 
L 507.8238 187.264875 
" style="fill:none;stroke:#cbcbcb;"/>
     </g>
     <g id="line2d_30"/>
     <g id="text_12">
      <!-- 4 -->
      <defs>
       <path d="M 37.796875 64.3125 
L 12.890625 25.390625 
L 37.796875 25.390625 
z
M 35.203125 72.90625 
L 47.609375 72.90625 
L 47.609375 25.390625 
L 58.015625 25.390625 
L 58.015625 17.1875 
L 47.609375 17.1875 
L 47.609375 0 
L 37.796875 0 
L 37.796875 17.1875 
L 4.890625 17.1875 
L 4.890625 26.703125 
z
" id="BitstreamVeraSans-Roman-34"/>
      </defs>
      <g transform="translate(36.5588 190.576125)scale(0.12 -0.12)">
       <use xlink:href="#BitstreamVeraSans-Roman-34"/>
      </g>
     </g>
    </g>
    <g id="ytick_4">
     <g id="line2d_31">
      <path clip-path="url(#p29d196def0)" d="M 48.1938 129.178875 
L 507.8238 129.178875 
" style="fill:none;stroke:#cbcbcb;"/>
     </g>
     <g id="line2d_32"/>
     <g id="text_13">
      <!-- 6 -->
      <defs>
       <path d="M 33.015625 40.375 
Q 26.375 40.375 22.484375 35.828125 
Q 18.609375 31.296875 18.609375 23.390625 
Q 18.609375 15.53125 22.484375 10.953125 
Q 26.375 6.390625 33.015625 6.390625 
Q 39.65625 6.390625 43.53125 10.953125 
Q 47.40625 15.53125 47.40625 23.390625 
Q 47.40625 31.296875 43.53125 35.828125 
Q 39.65625 40.375 33.015625 40.375 
M 52.59375 71.296875 
L 52.59375 62.3125 
Q 48.875 64.0625 45.09375 64.984375 
Q 41.3125 65.921875 37.59375 65.921875 
Q 27.828125 65.921875 22.671875 59.328125 
Q 17.53125 52.734375 16.796875 39.40625 
Q 19.671875 43.65625 24.015625 45.921875 
Q 28.375 48.1875 33.59375 48.1875 
Q 44.578125 48.1875 50.953125 41.515625 
Q 57.328125 34.859375 57.328125 23.390625 
Q 57.328125 12.15625 50.6875 5.359375 
Q 44.046875 -1.421875 33.015625 -1.421875 
Q 20.359375 -1.421875 13.671875 8.265625 
Q 6.984375 17.96875 6.984375 36.375 
Q 6.984375 53.65625 15.1875 63.9375 
Q 23.390625 74.21875 37.203125 74.21875 
Q 40.921875 74.21875 44.703125 73.484375 
Q 48.484375 72.75 52.59375 71.296875 
" id="BitstreamVeraSans-Roman-36"/>
      </defs>
      <g transform="translate(36.5588 132.490125)scale(0.12 -0.12)">
       <use xlink:href="#BitstreamVeraSans-Roman-36"/>
      </g>
     </g>
    </g>
    <g id="ytick_5">
     <g id="line2d_33">
      <path clip-path="url(#p29d196def0)" d="M 48.1938 71.092875 
L 507.8238 71.092875 
" style="fill:none;stroke:#cbcbcb;"/>
     </g>
     <g id="line2d_34"/>
     <g id="text_14">
      <!-- 8 -->
      <defs>
       <path d="M 31.78125 34.625 
Q 24.75 34.625 20.71875 30.859375 
Q 16.703125 27.09375 16.703125 20.515625 
Q 16.703125 13.921875 20.71875 10.15625 
Q 24.75 6.390625 31.78125 6.390625 
Q 38.8125 6.390625 42.859375 10.171875 
Q 46.921875 13.96875 46.921875 20.515625 
Q 46.921875 27.09375 42.890625 30.859375 
Q 38.875 34.625 31.78125 34.625 
M 21.921875 38.8125 
Q 15.578125 40.375 12.03125 44.71875 
Q 8.5 49.078125 8.5 55.328125 
Q 8.5 64.0625 14.71875 69.140625 
Q 20.953125 74.21875 31.78125 74.21875 
Q 42.671875 74.21875 48.875 69.140625 
Q 55.078125 64.0625 55.078125 55.328125 
Q 55.078125 49.078125 51.53125 44.71875 
Q 48 40.375 41.703125 38.8125 
Q 48.828125 37.15625 52.796875 32.3125 
Q 56.78125 27.484375 56.78125 20.515625 
Q 56.78125 9.90625 50.3125 4.234375 
Q 43.84375 -1.421875 31.78125 -1.421875 
Q 19.734375 -1.421875 13.25 4.234375 
Q 6.78125 9.90625 6.78125 20.515625 
Q 6.78125 27.484375 10.78125 32.3125 
Q 14.796875 37.15625 21.921875 38.8125 
M 18.3125 54.390625 
Q 18.3125 48.734375 21.84375 45.5625 
Q 25.390625 42.390625 31.78125 42.390625 
Q 38.140625 42.390625 41.71875 45.5625 
Q 45.3125 48.734375 45.3125 54.390625 
Q 45.3125 60.0625 41.71875 63.234375 
Q 38.140625 66.40625 31.78125 66.40625 
Q 25.390625 66.40625 21.84375 63.234375 
Q 18.3125 60.0625 18.3125 54.390625 
" id="BitstreamVeraSans-Roman-38"/>
      </defs>
      <g transform="translate(36.5588 74.404125)scale(0.12 -0.12)">
       <use xlink:href="#BitstreamVeraSans-Roman-38"/>
      </g>
     </g>
    </g>
    <g id="ytick_6">
     <g id="line2d_35">
      <path clip-path="url(#p29d196def0)" d="M 48.1938 13.006875 
L 507.8238 13.006875 
" style="fill:none;stroke:#cbcbcb;"/>
     </g>
     <g id="line2d_36"/>
     <g id="text_15">
      <!-- 10 -->
      <g transform="translate(28.9238 16.318125)scale(0.12 -0.12)">
       <use xlink:href="#BitstreamVeraSans-Roman-31"/>
       <use x="63.623046875" xlink:href="#BitstreamVeraSans-Roman-30"/>
      </g>
     </g>
    </g>
    <g id="text_16">
     <!-- $\sf I $ -->
     <defs>
      <path d="M 9.1875 0 
L 9.1875 69.390625 
L 18.5 69.390625 
L 18.5 0 
z
" id="Cmss10-49"/>
     </defs>
     <g transform="translate(20.3301 160.641075)rotate(-90.0)scale(0.1728 -0.1728)">
      <use transform="translate(0.0 0.609375)" xlink:href="#Cmss10-49"/>
     </g>
    </g>
   </g>
   <g id="line2d_37">
    <path clip-path="url(#p29d196def0)" d="M 48.1938 279.605251 
L 295.786073 281.032044 
L 322.734891 281.406366 
L 339.577903 281.846891 
L 352.210162 282.397847 
L 361.473818 283.004469 
L 369.895324 283.780094 
L 376.632529 284.614081 
L 382.527583 285.549735 
L 387.580487 286.544609 
L 392.63339 287.758641 
L 396.844143 288.971156 
L 401.054896 290.39963 
L 405.265649 292.08008 
L 408.634251 293.633134 
L 412.002854 295.396913 
L 415.371456 297.396493 
L 418.740058 299.659419 
L 422.108661 302.215143 
L 425.477263 305.094997 
L 428.845865 308.331351 
L 432.214468 311.959123 
L 435.58307 316.01306 
L 438.951672 320.529504 
L 442.320275 325.542762 
L 445.688877 331.086786 
L 449.057479 337.196305 
L 452.426082 343.901188 
L 454.787786 348.974425 
L 454.787786 348.974425 
" style="fill:none;stroke:#fc4f30;stroke-dasharray:6.000000,6.000000;stroke-dashoffset:0.0;stroke-width:4.0;"/>
   </g>
   <g id="line2d_38">
    <path clip-path="url(#p29d196def0)" d="M 48.1938 255.773627 
L 293.259621 257.186316 
L 320.20844 257.559246 
L 337.051451 257.99766 
L 349.68371 258.545717 
L 358.947367 259.149013 
L 367.368872 259.920299 
L 374.106077 260.749577 
L 380.001131 261.679934 
L 385.054035 262.669183 
L 390.106938 263.876375 
L 394.317691 265.0821 
L 398.528444 266.502636 
L 402.739197 268.173841 
L 406.107799 269.718445 
L 409.476402 271.472735 
L 412.845004 273.461705 
L 416.213606 275.712808 
L 419.582209 278.255413 
L 422.950811 281.120775 
L 426.319414 284.34122 
L 429.688016 287.951594 
L 433.056618 291.986627 
L 436.425221 296.482627 
L 439.793823 301.473955 
L 443.162425 306.994637 
L 446.531028 313.079406 
L 449.89963 319.758279 
L 453.268232 327.058429 
L 456.636835 335.00723 
L 460.005437 343.622496 
L 461.972141 348.974425 
L 461.972141 348.974425 
" style="fill:none;stroke:#5cb85c;stroke-dasharray:6.000000,6.000000;stroke-dashoffset:0.0;stroke-width:4.0;"/>
   </g>
   <g id="line2d_39">
    <path clip-path="url(#p29d196def0)" d="M 48.1938 208.110379 
L 288.206717 209.494872 
L 315.997687 209.881583 
L 332.840698 210.328215 
L 344.630807 210.841582 
L 354.736614 211.503803 
L 363.158119 212.291975 
L 369.895324 213.139577 
L 375.790378 214.090547 
L 380.843282 215.101685 
L 385.896185 216.335484 
L 390.106938 217.567621 
L 394.317691 219.019028 
L 398.528444 220.72618 
L 401.897046 222.303634 
L 405.265649 224.094805 
L 408.634251 226.125005 
L 412.002854 228.422039 
L 415.371456 231.015596 
L 418.740058 233.936907 
L 422.108661 237.219418 
L 425.477263 240.897298 
L 428.845865 245.006119 
L 432.214468 249.580922 
L 435.58307 254.657242 
L 438.951672 260.268345 
L 442.320275 266.448957 
L 445.688877 273.22851 
L 449.057479 280.633453 
L 452.426082 288.691111 
L 455.794684 297.417903 
L 459.163286 306.833261 
L 462.531889 316.948404 
L 465.900491 327.768372 
L 468.426943 336.348255 
L 468.426943 336.348255 
" style="fill:none;stroke:#30a2da;stroke-dasharray:6.000000,6.000000;stroke-dashoffset:0.0;stroke-width:4.0;"/>
   </g>
   <g id="line2d_40">
    <path clip-path="url(#p29d196def0)" d="M 48.1938 160.447131 
L 283.995964 161.811758 
L 310.944783 162.187283 
L 327.787795 162.629633 
L 340.420054 163.183096 
L 349.68371 163.792594 
L 358.105216 164.571969 
L 364.842421 165.410026 
L 370.737475 166.350258 
L 375.790378 167.349995 
L 380.843282 168.569937 
L 385.054035 169.78832 
L 389.264788 171.223652 
L 393.475541 172.912089 
L 396.844143 174.472443 
L 400.212745 176.244417 
L 403.581348 178.25316 
L 406.94995 180.526294 
L 410.318552 183.093344 
L 413.687155 185.985408 
L 417.055757 189.235787 
L 420.424359 192.87857 
L 423.792962 196.949246 
L 427.161564 201.482885 
L 430.530166 206.515048 
L 433.898769 212.079189 
L 437.267371 218.210033 
L 440.635973 224.937322 
L 444.004576 232.287886 
L 447.373178 240.289064 
L 450.741781 248.958017 
L 454.110383 258.3142 
L 457.478985 268.369226 
L 460.847588 279.128772 
L 464.21619 290.59523 
L 467.584792 302.766529 
L 468.426943 305.91761 
L 468.426943 305.91761 
" style="fill:none;stroke:#e5ae38;stroke-dasharray:6.000000,6.000000;stroke-dashoffset:0.0;stroke-width:4.0;"/>
   </g>
   <g id="line2d_41">
    <path clip-path="url(#p29d196def0)" d="M 48.1938 112.783884 
L 278.943061 114.120299 
L 305.89188 114.493034 
L 322.734891 114.931153 
L 335.36715 115.478805 
L 344.630807 116.081636 
L 353.052312 116.852316 
L 359.789517 117.680936 
L 365.684571 118.610553 
L 370.737475 119.599015 
L 375.790378 120.805252 
L 380.001131 122.010028 
L 384.211884 123.429454 
L 388.422637 125.099367 
L 391.791239 126.642789 
L 395.159842 128.395752 
L 398.528444 130.383239 
L 401.897046 132.632688 
L 405.265649 135.173459 
L 408.634251 138.036794 
L 412.002854 141.255013 
L 415.371456 144.862953 
L 418.740058 148.895341 
L 422.108661 153.388479 
L 425.477263 158.376738 
L 428.845865 163.894152 
L 432.214468 169.975456 
L 435.58307 176.650686 
L 438.951672 183.947041 
L 442.320275 191.8919 
L 445.688877 200.503122 
L 449.057479 209.80129 
L 452.426082 219.795199 
L 455.794684 230.49435 
L 459.163286 241.900557 
L 462.531889 254.012226 
L 466.742642 270.108841 
L 468.426943 276.810805 
L 468.426943 276.810805 
" style="fill:none;stroke:#8b8b8b;stroke-dasharray:6.000000,6.000000;stroke-dashoffset:0.0;stroke-width:4.0;"/>
   </g>
   <g id="line2d_42">
    <path clip-path="url(#p29d196def0)" d="M 48.1938 65.120637 
L 274.732308 66.437213 
L 301.681127 66.815364 
L 318.524138 67.261694 
L 330.314247 67.774682 
L 340.420054 68.436392 
L 348.84156 69.223945 
L 355.578764 70.070874 
L 361.473818 71.021087 
L 366.526722 72.031421 
L 371.579625 73.264244 
L 375.790378 74.495412 
L 380.001131 75.945686 
L 384.211884 77.651521 
L 387.580487 79.22777 
L 390.949089 81.017589 
L 394.317691 83.046279 
L 397.686294 85.34163 
L 401.054896 87.933321 
L 404.423498 90.852574 
L 407.792101 94.132825 
L 411.160703 97.808236 
L 414.529305 101.914375 
L 417.897908 106.486283 
L 421.26651 111.5595 
L 424.635112 117.167303 
L 428.003715 123.344418 
L 431.372317 130.120301 
L 434.740919 137.521426 
L 438.109522 145.57512 
L 441.478124 154.297854 
L 444.846726 163.709061 
L 448.215329 173.819987 
L 451.583931 184.635719 
L 454.952533 196.158164 
L 458.321136 208.384793 
L 462.531889 224.613308 
L 468.426943 248.240771 
L 468.426943 248.240771 
" style="fill:none;stroke:#348abd;stroke-dasharray:6.000000,6.000000;stroke-dashoffset:0.0;stroke-width:4.0;"/>
   </g>
   <g id="patch_3">
    <path d="M 507.8238 303.436875 
L 507.8238 13.006875 
" style="fill:none;stroke:#ffffff;stroke-linecap:square;stroke-linejoin:miter;stroke-width:3.0;"/>
   </g>
   <g id="patch_4">
    <path d="M 48.1938 303.436875 
L 48.1938 13.006875 
" style="fill:none;stroke:#ffffff;stroke-linecap:square;stroke-linejoin:miter;stroke-width:3.0;"/>
   </g>
   <g id="patch_5">
    <path d="M 48.1938 303.436875 
L 507.8238 303.436875 
" style="fill:none;stroke:#ffffff;stroke-linecap:square;stroke-linejoin:miter;stroke-width:3.0;"/>
   </g>
   <g id="patch_6">
    <path d="M 48.1938 13.006875 
L 507.8238 13.006875 
" style="fill:none;stroke:#ffffff;stroke-linecap:square;stroke-linejoin:miter;stroke-width:3.0;"/>
   </g>
  </g>
  <g id="axes_2">
   <g id="matplotlib.axis_3">
    <g id="ytick_7">
     <g id="line2d_43">
      <path clip-path="url(#p29d196def0)" d="M 48.1938 303.436875 
L 507.8238 303.436875 
" style="fill:none;stroke:#cbcbcb;"/>
     </g>
     <g id="line2d_44"/>
     <g id="text_17">
      <!-- 0 -->
      <g transform="translate(511.8238 306.748125)scale(0.12 -0.12)">
       <use xlink:href="#BitstreamVeraSans-Roman-30"/>
      </g>
     </g>
    </g>
    <g id="ytick_8">
     <g id="line2d_45">
      <path clip-path="url(#p29d196def0)" d="M 48.1938 234.286875 
L 507.8238 234.286875 
" style="fill:none;stroke:#cbcbcb;"/>
     </g>
     <g id="line2d_46"/>
     <g id="text_18">
      <!-- 50 -->
      <g transform="translate(511.8238 237.598125)scale(0.12 -0.12)">
       <use xlink:href="#BitstreamVeraSans-Roman-35"/>
       <use x="63.623046875" xlink:href="#BitstreamVeraSans-Roman-30"/>
      </g>
     </g>
    </g>
    <g id="ytick_9">
     <g id="line2d_47">
      <path clip-path="url(#p29d196def0)" d="M 48.1938 165.136875 
L 507.8238 165.136875 
" style="fill:none;stroke:#cbcbcb;"/>
     </g>
     <g id="line2d_48"/>
     <g id="text_19">
      <!-- 100 -->
      <g transform="translate(511.8238 168.448125)scale(0.12 -0.12)">
       <use xlink:href="#BitstreamVeraSans-Roman-31"/>
       <use x="63.623046875" xlink:href="#BitstreamVeraSans-Roman-30"/>
       <use x="127.24609375" xlink:href="#BitstreamVeraSans-Roman-30"/>
      </g>
     </g>
    </g>
    <g id="ytick_10">
     <g id="line2d_49">
      <path clip-path="url(#p29d196def0)" d="M 48.1938 95.986875 
L 507.8238 95.986875 
" style="fill:none;stroke:#cbcbcb;"/>
     </g>
     <g id="line2d_50"/>
     <g id="text_20">
      <!-- 150 -->
      <g transform="translate(511.8238 99.298125)scale(0.12 -0.12)">
       <use xlink:href="#BitstreamVeraSans-Roman-31"/>
       <use x="63.623046875" xlink:href="#BitstreamVeraSans-Roman-35"/>
       <use x="127.24609375" xlink:href="#BitstreamVeraSans-Roman-30"/>
      </g>
     </g>
    </g>
    <g id="ytick_11">
     <g id="line2d_51">
      <path clip-path="url(#p29d196def0)" d="M 48.1938 26.836875 
L 507.8238 26.836875 
" style="fill:none;stroke:#cbcbcb;"/>
     </g>
     <g id="line2d_52"/>
     <g id="text_21">
      <!-- 200 -->
      <g transform="translate(511.8238 30.148125)scale(0.12 -0.12)">
       <use xlink:href="#BitstreamVeraSans-Roman-32"/>
       <use x="63.623046875" xlink:href="#BitstreamVeraSans-Roman-30"/>
       <use x="127.24609375" xlink:href="#BitstreamVeraSans-Roman-30"/>
      </g>
     </g>
    </g>
    <g id="text_22">
     <!-- $\sf P $ -->
     <defs>
      <path d="M 9.421875 0 
L 9.421875 69.390625 
L 34.71875 69.390625 
Q 39.0625 69.390625 43.265625 67.9375 
Q 47.46875 66.5 50.828125 63.84375 
Q 54.203125 61.1875 56.203125 57.421875 
Q 58.203125 53.65625 58.203125 49.125 
Q 58.203125 43.109375 54.8125 38.390625 
Q 51.421875 33.6875 45.96875 31.09375 
Q 40.53125 28.515625 34.71875 28.515625 
L 18.703125 28.515625 
L 18.703125 0 
z
M 18.40625 34.71875 
L 32.328125 34.71875 
Q 36.921875 34.71875 40.875 36.328125 
Q 44.828125 37.9375 47.265625 41.203125 
Q 49.703125 44.484375 49.703125 49.125 
Q 49.703125 53.65625 47.265625 56.921875 
Q 44.828125 60.203125 40.84375 61.78125 
Q 36.859375 63.375 32.328125 63.375 
L 18.40625 63.375 
z
" id="Cmss10-50"/>
     </defs>
     <g transform="translate(552.8589 163.751475)rotate(-90.0)scale(0.1728 -0.1728)">
      <use transform="translate(0.0 0.609375)" xlink:href="#Cmss10-50"/>
     </g>
    </g>
   </g>
   <g id="line2d_53">
    <path clip-path="url(#p29d196def0)" d="M 48.1938 303.436875 
L 124.829503 290.30512 
L 200.623056 277.541745 
L 267.995103 266.410229 
L 305.049729 260.483289 
L 325.261343 257.452271 
L 339.577903 255.521815 
L 350.525861 254.274199 
L 358.947367 253.532201 
L 365.684571 253.136506 
L 371.579625 252.985222 
L 376.632529 253.04177 
L 381.685432 253.313808 
L 385.896185 253.741459 
L 390.106938 254.389255 
L 394.317691 255.298503 
L 397.686294 256.246321 
L 401.054896 257.420414 
L 404.423498 258.852395 
L 407.792101 260.577502 
L 410.318552 262.087357 
L 412.845004 263.801799 
L 415.371456 265.740259 
L 417.897908 267.923261 
L 420.424359 270.372607 
L 422.950811 273.111342 
L 425.477263 276.163023 
L 428.003715 279.553839 
L 430.530166 283.309635 
L 433.056618 287.457447 
L 435.58307 292.026036 
L 438.109522 297.042277 
L 440.635973 302.535331 
L 443.162425 308.532294 
L 445.688877 315.063348 
L 448.215329 322.157038 
L 450.741781 329.838702 
L 453.268232 338.133216 
L 456.308054 348.974425 
L 456.308054 348.974425 
" style="fill:none;stroke:#fc4f30;stroke-width:4.0;"/>
   </g>
   <g id="line2d_54">
    <path clip-path="url(#p29d196def0)" d="M 48.1938 303.436875 
L 126.513805 276.482864 
L 203.991659 250.053261 
L 269.679404 227.863311 
L 304.207578 216.402401 
L 323.577042 210.185681 
L 337.051451 206.078294 
L 347.157258 203.21124 
L 355.578764 201.042788 
L 362.315969 199.515531 
L 368.211023 198.383541 
L 373.263927 197.60841 
L 378.31683 197.058991 
L 382.527583 196.811495 
L 386.738336 196.794316 
L 390.106938 196.975061 
L 393.475541 197.355868 
L 396.844143 197.965174 
L 400.212745 198.834821 
L 402.739197 199.679099 
L 405.265649 200.706347 
L 407.792101 201.933763 
L 410.318552 203.38042 
L 412.845004 205.066484 
L 415.371456 207.013391 
L 417.897908 209.243816 
L 420.424359 211.780995 
L 422.950811 214.65068 
L 425.477263 217.878389 
L 428.003715 221.49082 
L 430.530166 225.516321 
L 433.056618 229.981582 
L 435.58307 234.915432 
L 438.109522 240.34486 
L 440.635973 246.299674 
L 443.162425 252.808183 
L 445.688877 259.895779 
L 448.215329 267.5874 
L 450.741781 275.911543 
L 453.268232 284.889464 
L 455.794684 294.540812 
L 458.321136 304.892136 
L 460.847588 315.953659 
L 464.21619 331.844702 
L 467.566665 348.974425 
L 467.566665 348.974425 
" style="fill:none;stroke:#5cb85c;stroke-width:4.0;"/>
   </g>
   <g id="line2d_55">
    <path clip-path="url(#p29d196def0)" d="M 48.1938 303.436875 
L 129.040256 261.644483 
L 209.044562 220.538355 
L 273.048007 187.882926 
L 304.207578 172.198523 
L 322.734891 163.102012 
L 335.36715 157.124683 
L 345.472957 152.577556 
L 353.894463 149.037357 
L 360.631668 146.439193 
L 366.526722 144.396045 
L 371.579625 142.864391 
L 376.632529 141.586301 
L 380.843282 140.757412 
L 385.054035 140.186421 
L 388.422637 139.947069 
L 391.791239 139.930946 
L 395.159842 140.169246 
L 397.686294 140.53571 
L 400.212745 141.081085 
L 402.739197 141.822272 
L 405.265649 142.777984 
L 407.792101 143.968034 
L 410.318552 145.413496 
L 412.845004 147.136672 
L 415.371456 149.160476 
L 417.897908 151.510229 
L 420.424359 154.211121 
L 422.950811 157.289506 
L 425.477263 160.773327 
L 428.003715 164.689073 
L 430.530166 169.065246 
L 433.056618 173.928709 
L 435.58307 179.308904 
L 438.109522 185.233907 
L 440.635973 191.729141 
L 443.162425 198.819586 
L 445.688877 206.533313 
L 448.215329 214.891832 
L 450.741781 223.915107 
L 453.268232 233.629021 
L 455.794684 244.04492 
L 459.163286 259.061428 
L 462.531889 275.394751 
L 465.900491 293.071647 
L 468.426943 307.217043 
L 468.426943 307.217043 
" style="fill:none;stroke:#30a2da;stroke-width:4.0;"/>
   </g>
   <g id="line2d_56">
    <path clip-path="url(#p29d196def0)" d="M 48.1938 303.436875 
L 131.566708 245.93305 
L 214.097466 189.278373 
L 275.574458 147.317564 
L 305.049729 127.441978 
L 322.734891 115.776632 
L 334.525 108.239496 
L 343.788656 102.54998 
L 351.368011 98.124268 
L 358.105216 94.433214 
L 364.00027 91.453633 
L 369.053174 89.138041 
L 373.263927 87.415763 
L 377.474679 85.920587 
L 381.685432 84.69494 
L 385.054035 83.94148 
L 388.422637 83.420909 
L 391.791239 83.165515 
L 394.317691 83.169664 
L 396.844143 83.359556 
L 399.370595 83.753114 
L 401.897046 84.369381 
L 404.423498 85.228652 
L 406.94995 86.352458 
L 409.476402 87.763092 
L 412.002854 89.484965 
L 414.529305 91.542672 
L 417.055757 93.961954 
L 419.582209 96.76998 
L 422.108661 99.993072 
L 424.635112 103.659211 
L 427.161564 107.795337 
L 429.688016 112.430296 
L 432.214468 117.591944 
L 434.740919 123.306255 
L 437.267371 129.598769 
L 439.793823 136.495917 
L 442.320275 144.023043 
L 444.846726 152.19872 
L 447.373178 161.048298 
L 449.89963 170.586579 
L 452.426082 180.83585 
L 454.952533 191.804892 
L 458.321136 207.584089 
L 461.689738 224.692356 
L 465.058341 243.141599 
L 468.426943 262.863817 
L 468.426943 262.863817 
" style="fill:none;stroke:#e5ae38;stroke-width:4.0;"/>
   </g>
   <g id="line2d_57">
    <path clip-path="url(#p29d196def0)" d="M 48.1938 303.436875 
L 135.777461 227.89871 
L 220.83467 154.829836 
L 278.10091 105.887076 
L 305.049729 83.116554 
L 321.892741 69.166036 
L 333.682849 59.675915 
L 342.946505 52.491524 
L 350.525861 46.881649 
L 357.263065 42.178883 
L 363.158119 38.355661 
L 368.211023 35.35593 
L 372.421776 33.097194 
L 376.632529 31.101533 
L 380.001131 29.726702 
L 383.369734 28.579342 
L 386.738336 27.691079 
L 389.264788 27.215947 
L 391.791239 26.922825 
L 394.317691 26.828695 
L 396.844143 26.952452 
L 399.370595 27.314036 
L 401.897046 27.934613 
L 404.423498 28.83614 
L 406.94995 30.042618 
L 409.476402 31.578299 
L 412.002854 33.468576 
L 414.529305 35.740224 
L 417.055757 38.419321 
L 419.582209 41.533517 
L 422.108661 45.109564 
L 424.635112 49.175976 
L 427.161564 53.759523 
L 429.688016 58.888681 
L 432.214468 64.586395 
L 434.740919 70.87975 
L 437.267371 77.793915 
L 439.793823 85.347932 
L 442.320275 93.566689 
L 444.846726 102.465636 
L 447.373178 112.066543 
L 449.89963 122.379252 
L 453.268232 137.269689 
L 456.636835 153.476056 
L 460.005437 171.012043 
L 463.374039 189.822273 
L 468.426943 219.328525 
L 468.426943 219.328525 
" style="fill:none;stroke:#8b8b8b;stroke-width:4.0;"/>
   </g>
   <g id="patch_7">
    <path d="M 507.8238 303.436875 
L 507.8238 13.006875 
" style="fill:none;stroke:#ffffff;stroke-linecap:square;stroke-linejoin:miter;stroke-width:3.0;"/>
   </g>
   <g id="patch_8">
    <path d="M 48.1938 303.436875 
L 48.1938 13.006875 
" style="fill:none;stroke:#ffffff;stroke-linecap:square;stroke-linejoin:miter;stroke-width:3.0;"/>
   </g>
   <g id="patch_9">
    <path d="M 48.1938 303.436875 
L 507.8238 303.436875 
" style="fill:none;stroke:#ffffff;stroke-linecap:square;stroke-linejoin:miter;stroke-width:3.0;"/>
   </g>
   <g id="patch_10">
    <path d="M 48.1938 13.006875 
L 507.8238 13.006875 
" style="fill:none;stroke:#ffffff;stroke-linecap:square;stroke-linejoin:miter;stroke-width:3.0;"/>
   </g>
  </g>
 </g>
 <defs>
  <clipPath id="p29d196def0">
   <rect height="290.43" width="459.63" x="48.1938" y="13.006875"/>
  </clipPath>
 </defs>
</svg>
