<?xml version="1.0" encoding="utf-8" standalone="no"?>
<!DOCTYPE svg PUBLIC "-//W3C//DTD SVG 1.1//EN"
  "http://www.w3.org/Graphics/SVG/1.1/DTD/svg11.dtd">
<!-- Created with matplotlib (http://matplotlib.org/) -->
<svg height="343pt" version="1.1" viewBox="0 0 555 343" width="555pt" xmlns="http://www.w3.org/2000/svg" xmlns:xlink="http://www.w3.org/1999/xlink">
 <defs>
  <style type="text/css">
*{stroke-linecap:butt;stroke-linejoin:round;stroke-miterlimit:100000;}
  </style>
 </defs>
 <g id="figure_1">
  <g id="patch_1">
   <path d="M 0 343.83375 
L 555.37125 343.83375 
L 555.37125 0 
L 0 0 
z
" style="fill:none;opacity:0;"/>
  </g>
  <g id="axes_1">
   <g id="patch_2">
    <path d="M 48.75 298.74 
L 498.98625 298.74 
L 498.98625 13.006875 
L 48.75 13.006875 
z
" style="fill:#ffffff;"/>
   </g>
   <g id="matplotlib.axis_1">
    <g id="xtick_1">
     <g id="line2d_1">
      <path clip-path="url(#p04b6fb7505)" d="M 48.75 298.74 
L 48.75 13.006875 
" style="fill:none;stroke:#cbcbcb;"/>
     </g>
     <g id="line2d_2"/>
     <g id="line2d_3"/>
     <g id="text_1">
      <!-- 0 -->
      <defs>
       <path d="M 31.78125 66.40625 
Q 24.171875 66.40625 20.328125 58.90625 
Q 16.5 51.421875 16.5 36.375 
Q 16.5 21.390625 20.328125 13.890625 
Q 24.171875 6.390625 31.78125 6.390625 
Q 39.453125 6.390625 43.28125 13.890625 
Q 47.125 21.390625 47.125 36.375 
Q 47.125 51.421875 43.28125 58.90625 
Q 39.453125 66.40625 31.78125 66.40625 
M 31.78125 74.21875 
Q 44.046875 74.21875 50.515625 64.515625 
Q 56.984375 54.828125 56.984375 36.375 
Q 56.984375 17.96875 50.515625 8.265625 
Q 44.046875 -1.421875 31.78125 -1.421875 
Q 19.53125 -1.421875 13.0625 8.265625 
Q 6.59375 17.96875 6.59375 36.375 
Q 6.59375 54.828125 13.0625 64.515625 
Q 19.53125 74.21875 31.78125 74.21875 
" id="BitstreamVeraSans-Roman-30"/>
      </defs>
      <g transform="translate(44.9325 311.858125)scale(0.12 -0.12)">
       <use xlink:href="#BitstreamVeraSans-Roman-30"/>
      </g>
     </g>
    </g>
    <g id="xtick_2">
     <g id="line2d_4">
      <path clip-path="url(#p04b6fb7505)" d="M 113.069464 298.74 
L 113.069464 13.006875 
" style="fill:none;stroke:#cbcbcb;"/>
     </g>
     <g id="line2d_5"/>
     <g id="line2d_6"/>
     <g id="text_2">
      <!-- 5 -->
      <defs>
       <path d="M 10.796875 72.90625 
L 49.515625 72.90625 
L 49.515625 64.59375 
L 19.828125 64.59375 
L 19.828125 46.734375 
Q 21.96875 47.46875 24.109375 47.828125 
Q 26.265625 48.1875 28.421875 48.1875 
Q 40.625 48.1875 47.75 41.5 
Q 54.890625 34.8125 54.890625 23.390625 
Q 54.890625 11.625 47.5625 5.09375 
Q 40.234375 -1.421875 26.90625 -1.421875 
Q 22.3125 -1.421875 17.546875 -0.640625 
Q 12.796875 0.140625 7.71875 1.703125 
L 7.71875 11.625 
Q 12.109375 9.234375 16.796875 8.0625 
Q 21.484375 6.890625 26.703125 6.890625 
Q 35.15625 6.890625 40.078125 11.328125 
Q 45.015625 15.765625 45.015625 23.390625 
Q 45.015625 31 40.078125 35.4375 
Q 35.15625 39.890625 26.703125 39.890625 
Q 22.75 39.890625 18.8125 39.015625 
Q 14.890625 38.140625 10.796875 36.28125 
z
" id="BitstreamVeraSans-Roman-35"/>
      </defs>
      <g transform="translate(109.251964286 311.858125)scale(0.12 -0.12)">
       <use xlink:href="#BitstreamVeraSans-Roman-35"/>
      </g>
     </g>
    </g>
    <g id="xtick_3">
     <g id="line2d_7">
      <path clip-path="url(#p04b6fb7505)" d="M 177.388929 298.74 
L 177.388929 13.006875 
" style="fill:none;stroke:#cbcbcb;"/>
     </g>
     <g id="line2d_8"/>
     <g id="line2d_9"/>
     <g id="text_3">
      <!-- 10 -->
      <defs>
       <path d="M 12.40625 8.296875 
L 28.515625 8.296875 
L 28.515625 63.921875 
L 10.984375 60.40625 
L 10.984375 69.390625 
L 28.421875 72.90625 
L 38.28125 72.90625 
L 38.28125 8.296875 
L 54.390625 8.296875 
L 54.390625 0 
L 12.40625 0 
z
" id="BitstreamVeraSans-Roman-31"/>
      </defs>
      <g transform="translate(169.753928571 311.858125)scale(0.12 -0.12)">
       <use xlink:href="#BitstreamVeraSans-Roman-31"/>
       <use x="63.623046875" xlink:href="#BitstreamVeraSans-Roman-30"/>
      </g>
     </g>
    </g>
    <g id="xtick_4">
     <g id="line2d_10">
      <path clip-path="url(#p04b6fb7505)" d="M 241.708393 298.74 
L 241.708393 13.006875 
" style="fill:none;stroke:#cbcbcb;"/>
     </g>
     <g id="line2d_11"/>
     <g id="line2d_12"/>
     <g id="text_4">
      <!-- 15 -->
      <g transform="translate(234.073392857 311.858125)scale(0.12 -0.12)">
       <use xlink:href="#BitstreamVeraSans-Roman-31"/>
       <use x="63.623046875" xlink:href="#BitstreamVeraSans-Roman-35"/>
      </g>
     </g>
    </g>
    <g id="xtick_5">
     <g id="line2d_13">
      <path clip-path="url(#p04b6fb7505)" d="M 306.027857 298.74 
L 306.027857 13.006875 
" style="fill:none;stroke:#cbcbcb;"/>
     </g>
     <g id="line2d_14"/>
     <g id="line2d_15"/>
     <g id="text_5">
      <!-- 20 -->
      <defs>
       <path d="M 19.1875 8.296875 
L 53.609375 8.296875 
L 53.609375 0 
L 7.328125 0 
L 7.328125 8.296875 
Q 12.9375 14.109375 22.625 23.890625 
Q 32.328125 33.6875 34.8125 36.53125 
Q 39.546875 41.84375 41.421875 45.53125 
Q 43.3125 49.21875 43.3125 52.78125 
Q 43.3125 58.59375 39.234375 62.25 
Q 35.15625 65.921875 28.609375 65.921875 
Q 23.96875 65.921875 18.8125 64.3125 
Q 13.671875 62.703125 7.8125 59.421875 
L 7.8125 69.390625 
Q 13.765625 71.78125 18.9375 73 
Q 24.125 74.21875 28.421875 74.21875 
Q 39.75 74.21875 46.484375 68.546875 
Q 53.21875 62.890625 53.21875 53.421875 
Q 53.21875 48.921875 51.53125 44.890625 
Q 49.859375 40.875 45.40625 35.40625 
Q 44.1875 33.984375 37.640625 27.21875 
Q 31.109375 20.453125 19.1875 8.296875 
" id="BitstreamVeraSans-Roman-32"/>
      </defs>
      <g transform="translate(298.392857143 311.858125)scale(0.12 -0.12)">
       <use xlink:href="#BitstreamVeraSans-Roman-32"/>
       <use x="63.623046875" xlink:href="#BitstreamVeraSans-Roman-30"/>
      </g>
     </g>
    </g>
    <g id="xtick_6">
     <g id="line2d_16">
      <path clip-path="url(#p04b6fb7505)" d="M 370.347321 298.74 
L 370.347321 13.006875 
" style="fill:none;stroke:#cbcbcb;"/>
     </g>
     <g id="line2d_17"/>
     <g id="line2d_18"/>
     <g id="text_6">
      <!-- 25 -->
      <g transform="translate(362.712321429 311.858125)scale(0.12 -0.12)">
       <use xlink:href="#BitstreamVeraSans-Roman-32"/>
       <use x="63.623046875" xlink:href="#BitstreamVeraSans-Roman-35"/>
      </g>
     </g>
    </g>
    <g id="xtick_7">
     <g id="line2d_19">
      <path clip-path="url(#p04b6fb7505)" d="M 434.666786 298.74 
L 434.666786 13.006875 
" style="fill:none;stroke:#cbcbcb;"/>
     </g>
     <g id="line2d_20"/>
     <g id="line2d_21"/>
     <g id="text_7">
      <!-- 30 -->
      <defs>
       <path d="M 40.578125 39.3125 
Q 47.65625 37.796875 51.625 33 
Q 55.609375 28.21875 55.609375 21.1875 
Q 55.609375 10.40625 48.1875 4.484375 
Q 40.765625 -1.421875 27.09375 -1.421875 
Q 22.515625 -1.421875 17.65625 -0.515625 
Q 12.796875 0.390625 7.625 2.203125 
L 7.625 11.71875 
Q 11.71875 9.328125 16.59375 8.109375 
Q 21.484375 6.890625 26.8125 6.890625 
Q 36.078125 6.890625 40.9375 10.546875 
Q 45.796875 14.203125 45.796875 21.1875 
Q 45.796875 27.640625 41.28125 31.265625 
Q 36.765625 34.90625 28.71875 34.90625 
L 20.21875 34.90625 
L 20.21875 43.015625 
L 29.109375 43.015625 
Q 36.375 43.015625 40.234375 45.921875 
Q 44.09375 48.828125 44.09375 54.296875 
Q 44.09375 59.90625 40.109375 62.90625 
Q 36.140625 65.921875 28.71875 65.921875 
Q 24.65625 65.921875 20.015625 65.03125 
Q 15.375 64.15625 9.8125 62.3125 
L 9.8125 71.09375 
Q 15.4375 72.65625 20.34375 73.4375 
Q 25.25 74.21875 29.59375 74.21875 
Q 40.828125 74.21875 47.359375 69.109375 
Q 53.90625 64.015625 53.90625 55.328125 
Q 53.90625 49.265625 50.4375 45.09375 
Q 46.96875 40.921875 40.578125 39.3125 
" id="BitstreamVeraSans-Roman-33"/>
      </defs>
      <g transform="translate(427.031785714 311.858125)scale(0.12 -0.12)">
       <use xlink:href="#BitstreamVeraSans-Roman-33"/>
       <use x="63.623046875" xlink:href="#BitstreamVeraSans-Roman-30"/>
      </g>
     </g>
    </g>
    <g id="xtick_8">
     <g id="line2d_22">
      <path clip-path="url(#p04b6fb7505)" d="M 498.98625 298.74 
L 498.98625 13.006875 
" style="fill:none;stroke:#cbcbcb;"/>
     </g>
     <g id="line2d_23"/>
     <g id="line2d_24"/>
     <g id="text_8">
      <!-- 35 -->
      <g transform="translate(491.35125 311.858125)scale(0.12 -0.12)">
       <use xlink:href="#BitstreamVeraSans-Roman-33"/>
       <use x="63.623046875" xlink:href="#BitstreamVeraSans-Roman-35"/>
      </g>
     </g>
    </g>
    <g id="text_9">
     <!-- $\sf V (V)$ -->
     <defs>
      <path d="M 28.515625 0 
L 1.421875 69.390625 
L 11.078125 69.390625 
Q 13.765625 62.5 20.109375 46.0625 
Q 26.46875 29.640625 30.25 19.265625 
Q 34.03125 8.890625 34.078125 7.328125 
Q 34.078125 8.9375 37.84375 19.28125 
Q 41.609375 29.640625 47.953125 46.0625 
Q 54.296875 62.5 56.984375 69.390625 
L 65.1875 69.390625 
L 38.09375 0 
z
" id="Cmss10-56"/>
      <path d="M 6.5 -25 
Q 5.609375 -25 5.609375 -24.125 
Q 5.609375 -23.6875 5.8125 -23.484375 
Q 22.90625 -6.78125 22.90625 25 
Q 22.90625 56.78125 6 73.296875 
Q 5.609375 73.53125 5.609375 74.125 
Q 5.609375 74.46875 5.875 74.734375 
Q 6.15625 75 6.5 75 
L 7.421875 75 
Q 7.71875 75 7.90625 74.8125 
Q 15.09375 69.140625 19.875 61.03125 
Q 24.65625 52.9375 26.875 43.75 
Q 29.109375 34.578125 29.109375 25 
Q 29.109375 17.921875 27.90625 11.0625 
Q 26.703125 4.203125 24.09375 -2.453125 
Q 21.484375 -9.125 17.484375 -14.765625 
Q 13.484375 -20.40625 7.90625 -24.8125 
Q 7.71875 -25 7.421875 -25 
z
" id="Cmr10-29"/>
      <path d="M 31 -24.8125 
Q 25.4375 -20.40625 21.40625 -14.71875 
Q 17.390625 -9.03125 14.8125 -2.578125 
Q 12.25 3.859375 10.984375 10.890625 
Q 9.71875 17.921875 9.71875 25 
Q 9.71875 32.171875 10.984375 39.203125 
Q 12.25 46.234375 14.859375 52.734375 
Q 17.484375 59.234375 21.53125 64.890625 
Q 25.59375 70.5625 31 74.8125 
Q 31 75 31.5 75 
L 32.421875 75 
Q 32.71875 75 32.953125 74.734375 
Q 33.203125 74.46875 33.203125 74.125 
Q 33.203125 73.6875 33.015625 73.484375 
Q 28.125 68.703125 24.875 63.234375 
Q 21.625 57.765625 19.640625 51.578125 
Q 17.671875 45.40625 16.796875 38.78125 
Q 15.921875 32.171875 15.921875 25 
Q 15.921875 -6.78125 32.90625 -23.296875 
Q 33.203125 -23.578125 33.203125 -24.125 
Q 33.203125 -24.359375 32.9375 -24.671875 
Q 32.671875 -25 32.421875 -25 
L 31.5 -25 
Q 31 -25 31 -24.8125 
" id="Cmr10-28"/>
     </defs>
     <g transform="translate(255.637725 332.31375)scale(0.1728 -0.1728)">
      <use xlink:href="#Cmss10-56"/>
      <use transform="translate(66.6015625 0.0)" xlink:href="#Cmr10-28"/>
      <use transform="translate(105.419921875 0.0)" xlink:href="#Cmss10-56"/>
      <use transform="translate(172.021484375 0.0)" xlink:href="#Cmr10-29"/>
     </g>
    </g>
   </g>
   <g id="matplotlib.axis_2">
    <g id="ytick_1">
     <g id="line2d_25">
      <path clip-path="url(#p04b6fb7505)" d="M 48.75 298.74 
L 498.98625 298.74 
" style="fill:none;stroke:#cbcbcb;"/>
     </g>
     <g id="line2d_26"/>
     <g id="text_10">
      <!-- 0 -->
      <g transform="translate(37.115 302.05125)scale(0.12 -0.12)">
       <use xlink:href="#BitstreamVeraSans-Roman-30"/>
      </g>
     </g>
    </g>
    <g id="ytick_2">
     <g id="line2d_27">
      <path clip-path="url(#p04b6fb7505)" d="M 48.75 241.593375 
L 498.98625 241.593375 
" style="fill:none;stroke:#cbcbcb;"/>
     </g>
     <g id="line2d_28"/>
     <g id="text_11">
      <!-- 2 -->
      <g transform="translate(37.115 244.904625)scale(0.12 -0.12)">
       <use xlink:href="#BitstreamVeraSans-Roman-32"/>
      </g>
     </g>
    </g>
    <g id="ytick_3">
     <g id="line2d_29">
      <path clip-path="url(#p04b6fb7505)" d="M 48.75 184.44675 
L 498.98625 184.44675 
" style="fill:none;stroke:#cbcbcb;"/>
     </g>
     <g id="line2d_30"/>
     <g id="text_12">
      <!-- 4 -->
      <defs>
       <path d="M 37.796875 64.3125 
L 12.890625 25.390625 
L 37.796875 25.390625 
z
M 35.203125 72.90625 
L 47.609375 72.90625 
L 47.609375 25.390625 
L 58.015625 25.390625 
L 58.015625 17.1875 
L 47.609375 17.1875 
L 47.609375 0 
L 37.796875 0 
L 37.796875 17.1875 
L 4.890625 17.1875 
L 4.890625 26.703125 
z
" id="BitstreamVeraSans-Roman-34"/>
      </defs>
      <g transform="translate(37.115 187.758)scale(0.12 -0.12)">
       <use xlink:href="#BitstreamVeraSans-Roman-34"/>
      </g>
     </g>
    </g>
    <g id="ytick_4">
     <g id="line2d_31">
      <path clip-path="url(#p04b6fb7505)" d="M 48.75 127.300125 
L 498.98625 127.300125 
" style="fill:none;stroke:#cbcbcb;"/>
     </g>
     <g id="line2d_32"/>
     <g id="text_13">
      <!-- 6 -->
      <defs>
       <path d="M 33.015625 40.375 
Q 26.375 40.375 22.484375 35.828125 
Q 18.609375 31.296875 18.609375 23.390625 
Q 18.609375 15.53125 22.484375 10.953125 
Q 26.375 6.390625 33.015625 6.390625 
Q 39.65625 6.390625 43.53125 10.953125 
Q 47.40625 15.53125 47.40625 23.390625 
Q 47.40625 31.296875 43.53125 35.828125 
Q 39.65625 40.375 33.015625 40.375 
M 52.59375 71.296875 
L 52.59375 62.3125 
Q 48.875 64.0625 45.09375 64.984375 
Q 41.3125 65.921875 37.59375 65.921875 
Q 27.828125 65.921875 22.671875 59.328125 
Q 17.53125 52.734375 16.796875 39.40625 
Q 19.671875 43.65625 24.015625 45.921875 
Q 28.375 48.1875 33.59375 48.1875 
Q 44.578125 48.1875 50.953125 41.515625 
Q 57.328125 34.859375 57.328125 23.390625 
Q 57.328125 12.15625 50.6875 5.359375 
Q 44.046875 -1.421875 33.015625 -1.421875 
Q 20.359375 -1.421875 13.671875 8.265625 
Q 6.984375 17.96875 6.984375 36.375 
Q 6.984375 53.65625 15.1875 63.9375 
Q 23.390625 74.21875 37.203125 74.21875 
Q 40.921875 74.21875 44.703125 73.484375 
Q 48.484375 72.75 52.59375 71.296875 
" id="BitstreamVeraSans-Roman-36"/>
      </defs>
      <g transform="translate(37.115 130.611375)scale(0.12 -0.12)">
       <use xlink:href="#BitstreamVeraSans-Roman-36"/>
      </g>
     </g>
    </g>
    <g id="ytick_5">
     <g id="line2d_33">
      <path clip-path="url(#p04b6fb7505)" d="M 48.75 70.1535 
L 498.98625 70.1535 
" style="fill:none;stroke:#cbcbcb;"/>
     </g>
     <g id="line2d_34"/>
     <g id="text_14">
      <!-- 8 -->
      <defs>
       <path d="M 31.78125 34.625 
Q 24.75 34.625 20.71875 30.859375 
Q 16.703125 27.09375 16.703125 20.515625 
Q 16.703125 13.921875 20.71875 10.15625 
Q 24.75 6.390625 31.78125 6.390625 
Q 38.8125 6.390625 42.859375 10.171875 
Q 46.921875 13.96875 46.921875 20.515625 
Q 46.921875 27.09375 42.890625 30.859375 
Q 38.875 34.625 31.78125 34.625 
M 21.921875 38.8125 
Q 15.578125 40.375 12.03125 44.71875 
Q 8.5 49.078125 8.5 55.328125 
Q 8.5 64.0625 14.71875 69.140625 
Q 20.953125 74.21875 31.78125 74.21875 
Q 42.671875 74.21875 48.875 69.140625 
Q 55.078125 64.0625 55.078125 55.328125 
Q 55.078125 49.078125 51.53125 44.71875 
Q 48 40.375 41.703125 38.8125 
Q 48.828125 37.15625 52.796875 32.3125 
Q 56.78125 27.484375 56.78125 20.515625 
Q 56.78125 9.90625 50.3125 4.234375 
Q 43.84375 -1.421875 31.78125 -1.421875 
Q 19.734375 -1.421875 13.25 4.234375 
Q 6.78125 9.90625 6.78125 20.515625 
Q 6.78125 27.484375 10.78125 32.3125 
Q 14.796875 37.15625 21.921875 38.8125 
M 18.3125 54.390625 
Q 18.3125 48.734375 21.84375 45.5625 
Q 25.390625 42.390625 31.78125 42.390625 
Q 38.140625 42.390625 41.71875 45.5625 
Q 45.3125 48.734375 45.3125 54.390625 
Q 45.3125 60.0625 41.71875 63.234375 
Q 38.140625 66.40625 31.78125 66.40625 
Q 25.390625 66.40625 21.84375 63.234375 
Q 18.3125 60.0625 18.3125 54.390625 
" id="BitstreamVeraSans-Roman-38"/>
      </defs>
      <g transform="translate(37.115 73.46475)scale(0.12 -0.12)">
       <use xlink:href="#BitstreamVeraSans-Roman-38"/>
      </g>
     </g>
    </g>
    <g id="ytick_6">
     <g id="line2d_35">
      <path clip-path="url(#p04b6fb7505)" d="M 48.75 13.006875 
L 498.98625 13.006875 
" style="fill:none;stroke:#cbcbcb;"/>
     </g>
     <g id="line2d_36"/>
     <g id="text_15">
      <!-- 10 -->
      <g transform="translate(29.48 16.318125)scale(0.12 -0.12)">
       <use xlink:href="#BitstreamVeraSans-Roman-31"/>
       <use x="63.623046875" xlink:href="#BitstreamVeraSans-Roman-30"/>
      </g>
     </g>
    </g>
    <g id="text_16">
     <!-- $\sf I (A) $ -->
     <defs>
      <path d="M 2.78125 0 
L 28.71875 69.390625 
L 37.890625 69.390625 
L 63.8125 0 
L 54.203125 0 
Q 50.25 10.6875 46.78125 19.921875 
L 18.015625 19.921875 
Q 13.578125 7.765625 10.59375 0 
z
M 20.21875 25.875 
L 44.578125 25.875 
Q 40.09375 38.28125 37.8125 44.796875 
Q 35.546875 51.3125 34.03125 56.078125 
Q 32.515625 60.84375 32.515625 62.109375 
L 32.421875 62.109375 
Q 32.421875 61.140625 31.421875 57.8125 
Q 30.421875 54.5 28.859375 49.953125 
Q 27.296875 45.40625 24.09375 36.546875 
Q 20.90625 27.6875 20.21875 25.875 
" id="Cmss10-41"/>
      <path d="M 9.1875 0 
L 9.1875 69.390625 
L 18.5 69.390625 
L 18.5 0 
z
" id="Cmss10-49"/>
     </defs>
     <g transform="translate(20.16 170.7342375)rotate(-90.0)scale(0.1728 -0.1728)">
      <use xlink:href="#Cmss10-49"/>
      <use transform="translate(27.685546875 0.0)" xlink:href="#Cmr10-28"/>
      <use transform="translate(66.50390625 0.0)" xlink:href="#Cmss10-41"/>
      <use transform="translate(133.10546875 0.0)" xlink:href="#Cmr10-29"/>
     </g>
    </g>
   </g>
   <g id="line2d_37">
    <path clip-path="url(#p04b6fb7505)" d="M 48.75 251.847569 
L 289.632194 253.245683 
L 316.030243 253.620728 
L 332.529023 254.0644 
L 344.078169 254.574828 
L 353.977438 255.233548 
L 362.226828 256.017731 
L 368.82634 256.861125 
L 374.600913 257.8074 
L 379.550547 258.813528 
L 384.500182 260.041159 
L 388.624877 261.267046 
L 392.749572 262.710963 
L 396.874267 264.409109 
L 400.174023 265.978044 
L 403.473779 267.759318 
L 406.773535 269.777994 
L 410.073291 272.061605 
L 413.373047 274.639524 
L 416.672803 277.542601 
L 419.972559 280.803885 
L 423.272315 284.457069 
L 426.572072 288.537225 
L 429.871828 293.078794 
L 433.171584 298.11671 
L 436.47134 303.683503 
L 439.771096 309.813346 
L 443.070852 316.53488 
L 446.370608 323.873734 
L 449.670364 331.856805 
L 452.97012 340.49947 
L 454.533514 344.83375 
L 454.533514 344.83375 
" style="fill:none;stroke:#fc4f30;stroke-dasharray:6.000000,6.000000;stroke-dashoffset:0.0;stroke-width:4.0;"/>
   </g>
   <g id="line2d_38">
    <path clip-path="url(#p04b6fb7505)" d="M 48.75 204.955138 
L 284.68256 206.325466 
L 311.080609 206.697698 
L 327.579389 207.137106 
L 339.953474 207.687405 
L 349.027804 208.293682 
L 357.277194 209.069109 
L 363.876706 209.903003 
L 369.651279 210.838593 
L 374.600913 211.833379 
L 379.550547 213.047225 
L 383.675242 214.259435 
L 387.799938 215.68737 
L 391.924633 217.366914 
L 395.224389 218.918857 
L 398.524145 220.681061 
L 401.823901 222.678429 
L 405.123657 224.938314 
L 408.423413 227.489928 
L 411.723169 230.363995 
L 415.022925 233.593421 
L 418.322681 237.211822 
L 421.622437 241.254195 
L 424.922194 245.755013 
L 428.22195 250.749238 
L 431.521706 256.269597 
L 434.821462 262.350255 
L 438.121218 269.020169 
L 441.420974 276.305358 
L 444.72073 284.232707 
L 448.020486 292.818367 
L 451.320242 302.081459 
L 454.619998 312.033018 
L 457.919754 322.678005 
L 460.394571 331.119132 
L 460.394571 331.119132 
" style="fill:none;stroke:#5cb85c;stroke-dasharray:6.000000,6.000000;stroke-dashoffset:0.0;stroke-width:4.0;"/>
   </g>
   <g id="line2d_39">
    <path clip-path="url(#p04b6fb7505)" d="M 48.75 158.062707 
L 279.732926 159.405264 
L 306.130975 159.774717 
L 322.629755 160.209913 
L 335.00384 160.754425 
L 344.903109 161.419925 
L 352.32756 162.120837 
L 358.927072 162.94534 
L 364.701645 163.870367 
L 369.651279 164.853936 
L 374.600913 166.054149 
L 378.725608 167.252828 
L 382.850303 168.664948 
L 386.974999 170.32608 
L 390.274755 171.861199 
L 393.574511 173.604516 
L 396.874267 175.580774 
L 400.174023 177.817146 
L 403.473779 180.342681 
L 406.773535 183.187975 
L 410.073291 186.385788 
L 413.373047 189.969659 
L 416.672803 193.974504 
L 419.972559 198.434825 
L 423.272315 203.385607 
L 426.572072 208.859764 
L 429.871828 214.891459 
L 433.171584 221.509953 
L 436.47134 228.741642 
L 439.771096 236.613425 
L 443.070852 245.142182 
L 446.370608 254.347055 
L 449.670364 264.23947 
L 452.97012 274.825011 
L 456.269876 286.106032 
L 459.569632 298.080495 
L 460.394571 301.180617 
L 460.394571 301.180617 
" style="fill:none;stroke:#30a2da;stroke-dasharray:6.000000,6.000000;stroke-dashoffset:0.0;stroke-width:4.0;"/>
   </g>
   <g id="line2d_40">
    <path clip-path="url(#p04b6fb7505)" d="M 48.75 111.170276 
L 275.608231 112.493346 
L 302.006279 112.868193 
L 318.50506 113.311564 
L 330.054206 113.821614 
L 339.953474 114.479826 
L 348.202865 115.263392 
L 354.802377 116.106116 
L 360.57695 117.051639 
L 365.526584 118.056967 
L 370.476218 119.283627 
L 374.600913 120.508551 
L 378.725608 121.951341 
L 382.850303 123.648177 
L 386.15006 125.215915 
L 389.449816 126.995847 
L 392.749572 129.013022 
L 396.049328 131.294963 
L 399.349084 133.871031 
L 402.64884 136.772066 
L 405.948596 140.031109 
L 409.248352 143.681846 
L 412.548108 147.759345 
L 415.847864 152.29805 
L 419.14762 157.332895 
L 422.447376 162.896425 
L 425.747133 169.022813 
L 429.046889 175.740721 
L 432.346645 183.075808 
L 435.646401 191.054968 
L 438.946157 199.693634 
L 442.245913 209.010939 
L 445.545669 219.01756 
L 448.845425 229.716292 
L 452.145181 241.113133 
L 455.444937 253.200429 
L 459.569632 269.232211 
L 460.394571 272.544531 
L 460.394571 272.544531 
" style="fill:none;stroke:#e5ae38;stroke-dasharray:6.000000,6.000000;stroke-dashoffset:0.0;stroke-width:4.0;"/>
   </g>
   <g id="line2d_41">
    <path clip-path="url(#p04b6fb7505)" d="M 48.75 64.277846 
L 270.658597 65.57313 
L 297.056645 65.945166 
L 313.555426 66.384278 
L 325.929511 66.934168 
L 335.00384 67.539978 
L 343.25323 68.314794 
L 349.852743 69.148027 
L 355.627316 70.082873 
L 360.57695 71.076868 
L 365.526584 72.289754 
L 369.651279 73.50101 
L 373.775974 74.927831 
L 377.900669 76.606078 
L 381.200425 78.156836 
L 384.500182 79.91771 
L 387.799938 81.913592 
L 391.099694 84.171822 
L 394.39945 86.7216 
L 397.699206 89.593642 
L 400.998962 92.820844 
L 404.298718 96.436817 
L 407.598474 100.47655 
L 410.89823 104.974521 
L 414.197986 109.965693 
L 417.497742 115.482806 
L 420.797498 121.560024 
L 424.097255 128.226326 
L 427.397011 135.50776 
L 430.696767 143.431208 
L 433.996523 152.012876 
L 437.296279 161.271884 
L 440.596035 171.219294 
L 443.895791 181.860113 
L 447.195547 193.196216 
L 450.495303 205.225114 
L 454.619998 221.191179 
L 460.394571 244.436535 
L 460.394571 244.436535 
" style="fill:none;stroke:#8b8b8b;stroke-dasharray:6.000000,6.000000;stroke-dashoffset:0.0;stroke-width:4.0;"/>
   </g>
   <g id="patch_3">
    <path d="M 48.75 298.74 
L 498.98625 298.74 
" style="fill:none;stroke:#ffffff;stroke-linecap:square;stroke-linejoin:miter;stroke-width:3.0;"/>
   </g>
   <g id="patch_4">
    <path d="M 48.75 13.006875 
L 498.98625 13.006875 
" style="fill:none;stroke:#ffffff;stroke-linecap:square;stroke-linejoin:miter;stroke-width:3.0;"/>
   </g>
   <g id="patch_5">
    <path d="M 48.75 298.74 
L 48.75 13.006875 
" style="fill:none;stroke:#ffffff;stroke-linecap:square;stroke-linejoin:miter;stroke-width:3.0;"/>
   </g>
   <g id="patch_6">
    <path d="M 498.98625 298.74 
L 498.98625 13.006875 
" style="fill:none;stroke:#ffffff;stroke-linecap:square;stroke-linejoin:miter;stroke-width:3.0;"/>
   </g>
   <g id="text_17">
    <!-- $\sf 200\, W/m^2$ -->
    <defs>
     <path d="M 5.609375 -23 
Q 5.609375 -22.703125 5.71875 -22.609375 
L 40.484375 73.78125 
Q 40.671875 74.359375 41.15625 74.671875 
Q 41.65625 75 42.28125 75 
Q 43.171875 75 43.71875 74.453125 
Q 44.28125 73.921875 44.28125 73 
L 44.28125 72.609375 
L 9.515625 -23.78125 
Q 8.9375 -25 7.625 -25 
Q 6.78125 -25 6.1875 -24.40625 
Q 5.609375 -23.828125 5.609375 -23 
" id="Cmmi10-3d"/>
     <path d="M 25 -2.203125 
Q 12.75 -2.203125 8.328125 7.875 
Q 3.90625 17.96875 3.90625 31.890625 
Q 3.90625 40.578125 5.484375 48.234375 
Q 7.078125 55.90625 11.78125 61.25 
Q 16.5 66.609375 25 66.609375 
Q 31.59375 66.609375 35.78125 63.375 
Q 39.984375 60.15625 42.1875 55.046875 
Q 44.390625 49.953125 45.1875 44.109375 
Q 46 38.28125 46 31.890625 
Q 46 23.296875 44.40625 15.796875 
Q 42.828125 8.296875 38.1875 3.046875 
Q 33.546875 -2.203125 25 -2.203125 
M 25 0.390625 
Q 30.5625 0.390625 33.296875 6.09375 
Q 36.03125 11.8125 36.671875 18.75 
Q 37.3125 25.6875 37.3125 33.5 
Q 37.3125 41.015625 36.671875 47.359375 
Q 36.03125 53.71875 33.3125 58.859375 
Q 30.609375 64.015625 25 64.015625 
Q 19.34375 64.015625 16.609375 58.828125 
Q 13.875 53.65625 13.234375 47.328125 
Q 12.59375 41.015625 12.59375 33.5 
Q 12.59375 27.9375 12.859375 23 
Q 13.140625 18.0625 14.3125 12.8125 
Q 15.484375 7.5625 18.09375 3.96875 
Q 20.703125 0.390625 25 0.390625 
" id="Cmr10-30"/>
     <path d="M 21.578125 0 
L 1.421875 69.390625 
L 10.40625 69.390625 
Q 14.5 55.328125 16.53125 48.296875 
Q 18.5625 41.265625 20.90625 32.8125 
Q 23.25 24.359375 25.03125 16.90625 
Q 26.8125 9.46875 26.8125 7.328125 
Q 26.90625 9.578125 28.53125 16.234375 
Q 30.171875 22.90625 33.09375 33.46875 
Q 36.03125 44.046875 38.453125 52.46875 
Q 40.875 60.890625 43.3125 69.390625 
L 51.8125 69.390625 
Q 55.28125 57.46875 57.734375 48.921875 
Q 60.203125 40.375 62.625 31.6875 
Q 65.046875 23 66.765625 15.984375 
Q 68.5 8.984375 68.5 7.328125 
Q 68.5625 9.03125 70.28125 16.015625 
Q 72.015625 23 74.4375 31.6875 
Q 76.859375 40.375 79.171875 48.40625 
Q 81.5 56.453125 85.296875 69.390625 
L 92.921875 69.390625 
L 72.703125 0 
L 63.625 0 
Q 60.0625 12.203125 56.125 25.953125 
Q 52.203125 39.703125 49.5625 49.75 
Q 46.921875 59.8125 46.921875 62.109375 
Q 46.875 59.96875 44.046875 49.21875 
Q 41.21875 38.484375 37.421875 25.34375 
Q 33.640625 12.203125 30.078125 0 
z
" id="Cmss10-57"/>
     <path d="M 7.90625 0 
L 7.90625 45.015625 
L 15.484375 45.015625 
L 15.484375 38.1875 
Q 18.171875 41.65625 21.921875 43.578125 
Q 25.6875 45.515625 29.984375 45.515625 
Q 40.046875 45.515625 42.671875 37.5 
Q 45.359375 41.21875 49.34375 43.359375 
Q 53.328125 45.515625 57.71875 45.515625 
Q 65.1875 45.515625 68.328125 41.3125 
Q 71.484375 37.109375 71.484375 29.390625 
L 71.484375 0 
L 63.28125 0 
L 63.28125 29.390625 
Q 63.28125 39.015625 53.421875 39.015625 
Q 50.09375 39.015625 47.890625 36.796875 
Q 45.703125 34.578125 44.75 31.328125 
Q 43.796875 28.078125 43.796875 24.8125 
L 43.796875 0 
L 35.59375 0 
L 35.59375 29.390625 
Q 35.59375 34.421875 33.125 36.71875 
Q 30.671875 39.015625 25.6875 39.015625 
Q 22.3125 39.015625 20.15625 36.796875 
Q 18.015625 34.578125 17.0625 31.328125 
Q 16.109375 28.078125 16.109375 24.8125 
L 16.109375 0 
z
" id="Cmss10-6d"/>
     <path d="M 4.984375 0 
L 4.984375 2.6875 
Q 4.984375 2.9375 5.171875 3.21875 
L 20.703125 20.40625 
Q 24.21875 24.21875 26.40625 26.796875 
Q 28.609375 29.390625 30.75 32.765625 
Q 32.90625 36.140625 34.15625 39.625 
Q 35.40625 43.109375 35.40625 47.015625 
Q 35.40625 51.125 33.890625 54.859375 
Q 32.375 58.59375 29.375 60.84375 
Q 26.375 63.09375 22.125 63.09375 
Q 17.78125 63.09375 14.3125 60.46875 
Q 10.84375 57.859375 9.421875 53.71875 
Q 9.8125 53.8125 10.5 53.8125 
Q 12.75 53.8125 14.328125 52.296875 
Q 15.921875 50.78125 15.921875 48.390625 
Q 15.921875 46.09375 14.328125 44.5 
Q 12.75 42.921875 10.5 42.921875 
Q 8.15625 42.921875 6.5625 44.546875 
Q 4.984375 46.1875 4.984375 48.390625 
Q 4.984375 52.15625 6.390625 55.4375 
Q 7.8125 58.734375 10.46875 61.296875 
Q 13.140625 63.875 16.484375 65.234375 
Q 19.828125 66.609375 23.578125 66.609375 
Q 29.296875 66.609375 34.21875 64.1875 
Q 39.15625 61.765625 42.03125 57.34375 
Q 44.921875 52.9375 44.921875 47.015625 
Q 44.921875 42.671875 43.015625 38.765625 
Q 41.109375 34.859375 38.125 31.65625 
Q 35.15625 28.46875 30.515625 24.40625 
Q 25.875 20.359375 24.421875 19 
L 13.09375 8.109375 
L 22.703125 8.109375 
Q 29.78125 8.109375 34.546875 8.21875 
Q 39.3125 8.34375 39.59375 8.59375 
Q 40.765625 9.859375 42 17.828125 
L 44.921875 17.828125 
L 42.09375 0 
z
" id="Cmr10-32"/>
    </defs>
    <g transform="translate(74.4777857143 246.132906288)scale(0.12 -0.12)">
     <use transform="translate(0.0 0.5484375000000057)" xlink:href="#Cmr10-32"/>
     <use transform="translate(50.0 0.5484375000000057)" xlink:href="#Cmr10-30"/>
     <use transform="translate(100.0 0.5484375000000057)" xlink:href="#Cmr10-30"/>
     <use transform="translate(163.2326865234375 0.5484375000000057)" xlink:href="#Cmss10-57"/>
     <use transform="translate(257.6174521484375 0.5484375000000057)" xlink:href="#Cmmi10-3d"/>
     <use transform="translate(307.6174521484375 0.5484375000000057)" xlink:href="#Cmss10-6d"/>
     <use transform="translate(391.6582333984375 40.37343750000001)scale(0.7)" xlink:href="#Cmr10-32"/>
    </g>
   </g>
   <g id="text_18">
    <!-- $\sf 400\, W/m^2$ -->
    <defs>
     <path d="M 2.78125 16.5 
L 2.78125 20.015625 
L 33.6875 66.109375 
Q 34.03125 66.609375 34.71875 66.609375 
L 36.1875 66.609375 
Q 37.3125 66.609375 37.3125 65.484375 
L 37.3125 20.015625 
L 47.125 20.015625 
L 47.125 16.5 
L 37.3125 16.5 
L 37.3125 6.6875 
Q 37.3125 4.640625 40.234375 4.078125 
Q 43.171875 3.515625 47.015625 3.515625 
L 47.015625 0 
L 19.484375 0 
L 19.484375 3.515625 
Q 23.34375 3.515625 26.265625 4.078125 
Q 29.203125 4.640625 29.203125 6.6875 
L 29.203125 16.5 
z
M 6.109375 20.015625 
L 29.78125 20.015625 
L 29.78125 55.421875 
z
" id="Cmr10-34"/>
    </defs>
    <g transform="translate(74.4777857143 199.240475217)scale(0.12 -0.12)">
     <use transform="translate(0.0 0.5484375000000057)" xlink:href="#Cmr10-34"/>
     <use transform="translate(50.0 0.5484375000000057)" xlink:href="#Cmr10-30"/>
     <use transform="translate(100.0 0.5484375000000057)" xlink:href="#Cmr10-30"/>
     <use transform="translate(163.2326865234375 0.5484375000000057)" xlink:href="#Cmss10-57"/>
     <use transform="translate(257.6174521484375 0.5484375000000057)" xlink:href="#Cmmi10-3d"/>
     <use transform="translate(307.6174521484375 0.5484375000000057)" xlink:href="#Cmss10-6d"/>
     <use transform="translate(391.6582333984375 40.37343750000001)scale(0.7)" xlink:href="#Cmr10-32"/>
    </g>
   </g>
   <g id="text_19">
    <!-- $\sf 600\, W/m^2$ -->
    <defs>
     <path d="M 25 -2.203125 
Q 18.796875 -2.203125 14.640625 1.09375 
Q 10.5 4.390625 8.21875 9.640625 
Q 5.953125 14.890625 5.078125 20.65625 
Q 4.203125 26.421875 4.203125 32.328125 
Q 4.203125 40.234375 7.28125 48.1875 
Q 10.359375 56.15625 16.328125 61.375 
Q 22.3125 66.609375 30.515625 66.609375 
Q 33.9375 66.609375 36.890625 65.3125 
Q 39.84375 64.015625 41.53125 61.5 
Q 43.21875 58.984375 43.21875 55.421875 
Q 43.21875 53.375 41.828125 51.984375 
Q 40.4375 50.59375 38.375 50.59375 
Q 36.421875 50.59375 35 52 
Q 33.59375 53.421875 33.59375 55.421875 
Q 33.59375 57.375 35 58.78125 
Q 36.421875 60.203125 38.375 60.203125 
L 38.921875 60.203125 
Q 37.640625 62.015625 35.328125 62.859375 
Q 33.015625 63.71875 30.515625 63.71875 
Q 27.484375 63.71875 24.921875 62.390625 
Q 22.359375 61.078125 20.3125 58.828125 
Q 18.265625 56.59375 16.890625 53.875 
Q 15.53125 51.171875 14.765625 47.703125 
Q 14.015625 44.234375 13.8125 41.203125 
Q 13.625 38.1875 13.625 33.59375 
Q 15.375 37.703125 18.59375 40.3125 
Q 21.828125 42.921875 25.875 42.921875 
Q 30.328125 42.921875 33.984375 41.109375 
Q 37.640625 39.3125 40.28125 36.109375 
Q 42.921875 32.90625 44.3125 28.796875 
Q 45.703125 24.703125 45.703125 20.515625 
Q 45.703125 14.65625 43.09375 9.34375 
Q 40.484375 4.046875 35.734375 0.921875 
Q 31 -2.203125 25 -2.203125 
M 25 0.984375 
Q 28.859375 0.984375 31.203125 2.734375 
Q 33.546875 4.5 34.640625 7.390625 
Q 35.75 10.296875 36.015625 13.25 
Q 36.28125 16.21875 36.28125 20.515625 
Q 36.28125 26.171875 35.734375 30.171875 
Q 35.203125 34.1875 32.8125 37.234375 
Q 30.421875 40.28125 25.484375 40.28125 
Q 21.4375 40.28125 18.828125 37.546875 
Q 16.21875 34.8125 15.015625 30.640625 
Q 13.8125 26.46875 13.8125 22.609375 
Q 13.8125 21.296875 13.921875 20.609375 
Q 13.921875 20.453125 13.890625 20.359375 
Q 13.875 20.265625 13.8125 20.125 
Q 13.8125 15.828125 14.6875 11.421875 
Q 15.578125 7.03125 18.0625 4 
Q 20.5625 0.984375 25 0.984375 
" id="Cmr10-36"/>
    </defs>
    <g transform="translate(74.4777857143 152.348044319)scale(0.12 -0.12)">
     <use transform="translate(0.0 0.5484375000000057)" xlink:href="#Cmr10-36"/>
     <use transform="translate(50.0 0.5484375000000057)" xlink:href="#Cmr10-30"/>
     <use transform="translate(100.0 0.5484375000000057)" xlink:href="#Cmr10-30"/>
     <use transform="translate(163.2326865234375 0.5484375000000057)" xlink:href="#Cmss10-57"/>
     <use transform="translate(257.6174521484375 0.5484375000000057)" xlink:href="#Cmmi10-3d"/>
     <use transform="translate(307.6174521484375 0.5484375000000057)" xlink:href="#Cmss10-6d"/>
     <use transform="translate(391.6582333984375 40.37343750000001)scale(0.7)" xlink:href="#Cmr10-32"/>
    </g>
   </g>
   <g id="text_20">
    <!-- $\sf 800\, W/m^2$ -->
    <defs>
     <path d="M 4.203125 15.1875 
Q 4.203125 21.1875 8.15625 25.796875 
Q 12.109375 30.421875 18.3125 33.5 
L 14.59375 35.890625 
Q 11.1875 38.140625 9.03125 41.875 
Q 6.890625 45.609375 6.890625 49.703125 
Q 6.890625 54.5 9.40625 58.34375 
Q 11.921875 62.203125 16.09375 64.40625 
Q 20.265625 66.609375 25 66.609375 
Q 29.4375 66.609375 33.5625 64.796875 
Q 37.703125 62.984375 40.359375 59.609375 
Q 43.015625 56.25 43.015625 51.609375 
Q 43.015625 48.25 41.421875 45.359375 
Q 39.84375 42.484375 37.078125 40.1875 
Q 34.328125 37.890625 31.203125 36.28125 
L 36.921875 32.625 
Q 40.875 30.03125 43.28125 25.828125 
Q 45.703125 21.625 45.703125 17 
Q 45.703125 11.578125 42.796875 7.125 
Q 39.890625 2.6875 35.109375 0.234375 
Q 30.328125 -2.203125 25 -2.203125 
Q 19.828125 -2.203125 15.015625 -0.09375 
Q 10.203125 2 7.203125 5.984375 
Q 4.203125 9.96875 4.203125 15.1875 
M 9.625 15.1875 
Q 9.625 11.234375 11.796875 7.953125 
Q 13.96875 4.6875 17.53125 2.828125 
Q 21.09375 0.984375 25 0.984375 
Q 30.8125 0.984375 35.546875 4.375 
Q 40.28125 7.765625 40.28125 13.375 
Q 40.28125 15.28125 39.515625 17.15625 
Q 38.765625 19.046875 37.421875 20.578125 
Q 36.078125 22.125 34.421875 23.09375 
L 21 31.78125 
Q 17.875 30.125 15.25 27.578125 
Q 12.640625 25.046875 11.125 21.875 
Q 9.625 18.703125 9.625 15.1875 
M 16.5 45.703125 
L 28.609375 37.890625 
Q 32.8125 40.328125 35.5 43.796875 
Q 38.1875 47.265625 38.1875 51.609375 
Q 38.1875 54.984375 36.296875 57.78125 
Q 34.421875 60.59375 31.390625 62.15625 
Q 28.375 63.71875 24.90625 63.71875 
Q 21.875 63.71875 18.796875 62.546875 
Q 15.71875 61.375 13.71875 59.046875 
Q 11.71875 56.734375 11.71875 53.609375 
Q 11.71875 48.921875 16.5 45.703125 
" id="Cmr10-38"/>
    </defs>
    <g transform="translate(74.4777857143 105.455613632)scale(0.12 -0.12)">
     <use transform="translate(0.0 0.5484375000000057)" xlink:href="#Cmr10-38"/>
     <use transform="translate(50.0 0.5484375000000057)" xlink:href="#Cmr10-30"/>
     <use transform="translate(100.0 0.5484375000000057)" xlink:href="#Cmr10-30"/>
     <use transform="translate(163.2326865234375 0.5484375000000057)" xlink:href="#Cmss10-57"/>
     <use transform="translate(257.6174521484375 0.5484375000000057)" xlink:href="#Cmmi10-3d"/>
     <use transform="translate(307.6174521484375 0.5484375000000057)" xlink:href="#Cmss10-6d"/>
     <use transform="translate(391.6582333984375 40.37343750000001)scale(0.7)" xlink:href="#Cmr10-32"/>
    </g>
   </g>
   <g id="text_21">
    <!-- $\sf 1000\, W/m^2$ -->
    <defs>
     <path d="M 9.28125 0 
L 9.28125 3.515625 
Q 21.78125 3.515625 21.78125 6.6875 
L 21.78125 59.1875 
Q 16.609375 56.6875 8.6875 56.6875 
L 8.6875 60.203125 
Q 20.953125 60.203125 27.203125 66.609375 
L 28.609375 66.609375 
Q 28.953125 66.609375 29.265625 66.328125 
Q 29.59375 66.0625 29.59375 65.71875 
L 29.59375 6.6875 
Q 29.59375 3.515625 42.09375 3.515625 
L 42.09375 0 
z
" id="Cmr10-31"/>
    </defs>
    <g transform="translate(74.4777857143 58.5631832021)scale(0.12 -0.12)">
     <use transform="translate(0.0 0.5484375000000057)" xlink:href="#Cmr10-31"/>
     <use transform="translate(50.0 0.5484375000000057)" xlink:href="#Cmr10-30"/>
     <use transform="translate(100.0 0.5484375000000057)" xlink:href="#Cmr10-30"/>
     <use transform="translate(150.0 0.5484375000000057)" xlink:href="#Cmr10-30"/>
     <use transform="translate(213.2326865234375 0.5484375000000057)" xlink:href="#Cmss10-57"/>
     <use transform="translate(307.6174521484375 0.5484375000000057)" xlink:href="#Cmmi10-3d"/>
     <use transform="translate(357.6174521484375 0.5484375000000057)" xlink:href="#Cmss10-6d"/>
     <use transform="translate(441.6582333984375 40.37343750000001)scale(0.7)" xlink:href="#Cmr10-32"/>
    </g>
   </g>
  </g>
  <g id="axes_2">
   <g id="matplotlib.axis_3">
    <g id="ytick_7">
     <g id="line2d_42">
      <path clip-path="url(#p04b6fb7505)" d="M 48.75 298.74 
L 498.98625 298.74 
" style="fill:none;stroke:#cbcbcb;"/>
     </g>
     <g id="line2d_43"/>
     <g id="text_22">
      <!-- 0 -->
      <g transform="translate(502.98625 302.05125)scale(0.12 -0.12)">
       <use xlink:href="#BitstreamVeraSans-Roman-30"/>
      </g>
     </g>
    </g>
    <g id="ytick_8">
     <g id="line2d_44">
      <path clip-path="url(#p04b6fb7505)" d="M 48.75 230.708304 
L 498.98625 230.708304 
" style="fill:none;stroke:#cbcbcb;"/>
     </g>
     <g id="line2d_45"/>
     <g id="text_23">
      <!-- 50 -->
      <g transform="translate(502.98625 234.019553571)scale(0.12 -0.12)">
       <use xlink:href="#BitstreamVeraSans-Roman-35"/>
       <use x="63.623046875" xlink:href="#BitstreamVeraSans-Roman-30"/>
      </g>
     </g>
    </g>
    <g id="ytick_9">
     <g id="line2d_46">
      <path clip-path="url(#p04b6fb7505)" d="M 48.75 162.676607 
L 498.98625 162.676607 
" style="fill:none;stroke:#cbcbcb;"/>
     </g>
     <g id="line2d_47"/>
     <g id="text_24">
      <!-- 100 -->
      <g transform="translate(502.98625 165.987857143)scale(0.12 -0.12)">
       <use xlink:href="#BitstreamVeraSans-Roman-31"/>
       <use x="63.623046875" xlink:href="#BitstreamVeraSans-Roman-30"/>
       <use x="127.24609375" xlink:href="#BitstreamVeraSans-Roman-30"/>
      </g>
     </g>
    </g>
    <g id="ytick_10">
     <g id="line2d_48">
      <path clip-path="url(#p04b6fb7505)" d="M 48.75 94.644911 
L 498.98625 94.644911 
" style="fill:none;stroke:#cbcbcb;"/>
     </g>
     <g id="line2d_49"/>
     <g id="text_25">
      <!-- 150 -->
      <g transform="translate(502.98625 97.9561607143)scale(0.12 -0.12)">
       <use xlink:href="#BitstreamVeraSans-Roman-31"/>
       <use x="63.623046875" xlink:href="#BitstreamVeraSans-Roman-35"/>
       <use x="127.24609375" xlink:href="#BitstreamVeraSans-Roman-30"/>
      </g>
     </g>
    </g>
    <g id="ytick_11">
     <g id="line2d_50">
      <path clip-path="url(#p04b6fb7505)" d="M 48.75 26.613214 
L 498.98625 26.613214 
" style="fill:none;stroke:#cbcbcb;"/>
     </g>
     <g id="line2d_51"/>
     <g id="text_26">
      <!-- 200 -->
      <g transform="translate(502.98625 29.9244642857)scale(0.12 -0.12)">
       <use xlink:href="#BitstreamVeraSans-Roman-32"/>
       <use x="63.623046875" xlink:href="#BitstreamVeraSans-Roman-30"/>
       <use x="127.24609375" xlink:href="#BitstreamVeraSans-Roman-30"/>
      </g>
     </g>
    </g>
    <g id="text_27">
     <!-- $\sf P (W)$ -->
     <defs>
      <path d="M 9.421875 0 
L 9.421875 69.390625 
L 34.71875 69.390625 
Q 39.0625 69.390625 43.265625 67.9375 
Q 47.46875 66.5 50.828125 63.84375 
Q 54.203125 61.1875 56.203125 57.421875 
Q 58.203125 53.65625 58.203125 49.125 
Q 58.203125 43.109375 54.8125 38.390625 
Q 51.421875 33.6875 45.96875 31.09375 
Q 40.53125 28.515625 34.71875 28.515625 
L 18.703125 28.515625 
L 18.703125 0 
z
M 18.40625 34.71875 
L 32.328125 34.71875 
Q 36.921875 34.71875 40.875 36.328125 
Q 44.828125 37.9375 47.265625 41.203125 
Q 49.703125 44.484375 49.703125 49.125 
Q 49.703125 53.65625 47.265625 56.921875 
Q 44.828125 60.203125 40.84375 61.78125 
Q 36.859375 63.375 32.328125 63.375 
L 18.40625 63.375 
z
" id="Cmss10-50"/>
     </defs>
     <g transform="translate(543.85125 176.2638375)rotate(-90.0)scale(0.1728 -0.1728)">
      <use xlink:href="#Cmss10-50"/>
      <use transform="translate(63.818359375 0.0)" xlink:href="#Cmr10-28"/>
      <use transform="translate(102.63671875 0.0)" xlink:href="#Cmss10-57"/>
      <use transform="translate(197.021484375 0.0)" xlink:href="#Cmr10-29"/>
     </g>
    </g>
   </g>
   <g id="line2d_52">
    <path clip-path="url(#p04b6fb7505)" d="M 48.75 298.74 
L 123.96959 285.794998 
L 199.18918 273.07507 
L 265.316292 262.106478 
L 300.859614 256.402646 
L 320.697748 253.421281 
L 334.749759 251.528508 
L 344.668826 250.396265 
L 352.934715 249.658538 
L 360.374015 249.227544 
L 366.160137 249.101055 
L 371.119671 249.181726 
L 376.079204 249.481243 
L 380.212148 249.934927 
L 384.345093 250.612199 
L 387.651449 251.342944 
L 390.957804 252.268151 
L 394.26416 253.415601 
L 397.570515 254.816435 
L 400.876871 256.505384 
L 403.356638 257.984492 
L 405.836404 259.664822 
L 408.316171 261.56554 
L 410.795938 263.706906 
L 413.275704 266.110442 
L 415.755471 268.79891 
L 418.235238 271.795598 
L 420.715005 275.126365 
L 423.194771 278.81677 
L 425.674538 282.893548 
L 428.154305 287.385125 
L 430.634071 292.318121 
L 433.113838 297.72138 
L 435.593605 303.621753 
L 438.073371 310.049078 
L 440.553138 317.031606 
L 443.032905 324.594468 
L 445.512671 332.762325 
L 447.992438 341.563782 
L 448.869362 344.83375 
L 448.869362 344.83375 
" style="fill:none;stroke:#fc4f30;stroke-width:4.0;"/>
   </g>
   <g id="line2d_53">
    <path clip-path="url(#p04b6fb7505)" d="M 48.75 298.74 
L 125.776206 272.116289 
L 201.974174 246.011529 
L 266.576798 224.096441 
L 300.534588 212.784066 
L 319.58408 206.657972 
L 332.835901 202.622332 
L 342.774766 199.818257 
L 351.057154 197.712172 
L 357.683064 196.244347 
L 363.480735 195.173918 
L 368.450168 194.460773 
L 373.419601 193.983992 
L 377.560794 193.80718 
L 381.701988 193.871564 
L 385.014943 194.126767 
L 388.327899 194.591433 
L 391.640854 195.295232 
L 394.953809 196.271333 
L 397.438525 197.204374 
L 399.923241 198.328142 
L 402.407958 199.661034 
L 404.892674 201.222582 
L 407.37739 203.033591 
L 409.862107 205.116118 
L 412.346823 207.492947 
L 414.831539 210.189087 
L 417.316256 213.229642 
L 419.800972 216.640877 
L 422.285688 220.450539 
L 424.770405 224.68533 
L 427.255121 229.373719 
L 429.739837 234.542917 
L 432.224554 240.222264 
L 434.70927 246.439965 
L 437.193986 253.222032 
L 439.678703 260.594001 
L 442.163419 268.58258 
L 444.648135 277.213379 
L 447.132852 286.504008 
L 449.617568 296.480645 
L 452.930523 310.874606 
L 456.243478 326.558195 
L 459.556433 343.564578 
L 459.792059 344.83375 
L 459.792059 344.83375 
" style="fill:none;stroke:#5cb85c;stroke-width:4.0;"/>
   </g>
   <g id="line2d_54">
    <path clip-path="url(#p04b6fb7505)" d="M 48.75 298.74 
L 128.419311 257.377531 
L 207.258733 216.695856 
L 269.500382 184.804375 
L 300.206262 169.286929 
L 318.463813 160.295381 
L 330.912143 154.396539 
L 340.870807 149.920302 
L 348.339804 146.782076 
L 354.978914 144.216411 
L 360.788134 142.202481 
L 365.767466 140.696923 
L 370.746798 139.446451 
L 374.896241 138.642241 
L 379.045685 138.09798 
L 382.365239 137.881901 
L 385.684794 137.891128 
L 389.004349 138.157277 
L 391.494015 138.546548 
L 393.98368 139.116635 
L 396.473346 139.884641 
L 398.963012 140.869535 
L 401.452678 142.091385 
L 403.942344 143.57152 
L 406.43201 145.332509 
L 408.921676 147.397462 
L 411.411342 149.792029 
L 413.901008 152.541591 
L 416.390674 155.672701 
L 418.88034 159.213598 
L 421.370006 163.190745 
L 423.859672 167.632811 
L 426.349338 172.566486 
L 428.839004 178.02145 
L 431.32867 184.025823 
L 433.818336 190.604579 
L 436.308002 197.782211 
L 438.797668 205.587284 
L 441.287334 214.038953 
L 443.777 223.160631 
L 446.266666 232.974978 
L 448.756332 243.49412 
L 452.075886 258.648434 
L 455.395441 275.12135 
L 458.714996 292.932624 
L 462.03455 312.089947 
L 462.864439 317.084152 
L 462.864439 317.084152 
" style="fill:none;stroke:#30a2da;stroke-width:4.0;"/>
   </g>
   <g id="line2d_55">
    <path clip-path="url(#p04b6fb7505)" d="M 48.75 298.74 
L 131.072315 241.71461 
L 212.563091 185.533643 
L 272.433865 144.497545 
L 300.706176 125.35689 
L 317.336946 114.33858 
L 329.810024 106.334014 
L 338.956948 100.709379 
L 346.440795 96.343411 
L 353.093103 92.713126 
L 358.913873 89.795109 
L 363.903104 87.540593 
L 368.060797 85.876892 
L 372.218489 84.448709 
L 375.544643 83.505261 
L 378.870798 82.766741 
L 382.196952 82.262377 
L 385.523106 82.024872 
L 388.017721 82.043837 
L 390.512337 82.249991 
L 393.006953 82.66151 
L 395.501568 83.29771 
L 397.996184 84.179175 
L 400.490799 85.327745 
L 402.985415 86.766002 
L 405.480031 88.518719 
L 407.974646 90.6108 
L 410.469262 93.068307 
L 412.963877 95.918775 
L 415.458493 99.18874 
L 417.953109 102.906483 
L 420.447724 107.099056 
L 422.94234 111.795623 
L 425.436955 117.024243 
L 427.931571 122.810802 
L 430.426187 129.1807 
L 432.920802 136.160538 
L 435.415418 143.775853 
L 437.910033 152.044098 
L 440.404649 160.991486 
L 442.899265 170.631252 
L 445.39388 180.986898 
L 447.888496 192.067333 
L 451.21465 207.995314 
L 454.540804 225.256261 
L 457.866958 243.853705 
L 461.193112 263.677482 
L 463.687728 279.025326 
L 463.687728 279.025326 
" style="fill:none;stroke:#e5ae38;stroke-width:4.0;"/>
   </g>
   <g id="line2d_56">
    <path clip-path="url(#p04b6fb7505)" d="M 48.75 298.74 
L 134.568406 224.402053 
L 218.720436 151.79769 
L 274.544059 103.884843 
L 300.3729 81.968858 
L 316.20348 68.792886 
L 327.868118 59.347418 
L 337.03319 52.192635 
L 344.531886 46.602682 
L 351.197393 41.914055 
L 357.029712 38.100405 
L 362.028843 35.106946 
L 366.194785 32.852282 
L 370.360727 30.859947 
L 373.69348 29.487516 
L 377.026234 28.342633 
L 380.358988 27.457284 
L 382.858553 26.984887 
L 385.358118 26.695211 
L 387.857683 26.605491 
L 390.357249 26.734898 
L 392.856814 27.103679 
L 395.356379 27.733336 
L 397.855944 28.646181 
L 400.355509 29.866605 
L 402.855075 31.41926 
L 405.35464 33.329949 
L 407.854205 35.6259 
L 410.35377 38.333569 
L 412.853336 41.481036 
L 415.352901 45.095376 
L 417.852466 49.205539 
L 420.352031 53.839516 
L 422.851597 59.023405 
L 425.351162 64.782829 
L 427.850727 71.144321 
L 430.350292 78.133365 
L 432.849858 85.768393 
L 435.349423 94.07502 
L 437.848988 103.067704 
L 440.348553 112.769163 
L 442.848118 123.189677 
L 446.180872 138.228678 
L 449.513626 154.592707 
L 452.846379 172.288797 
L 456.179133 191.228686 
L 461.178263 220.370071 
L 462.84464 228.695513 
L 463.677829 231.973726 
L 464.511017 234.282735 
L 464.511017 234.282735 
" style="fill:none;stroke:#8b8b8b;stroke-width:4.0;"/>
   </g>
   <g id="patch_7">
    <path d="M 48.75 298.74 
L 498.98625 298.74 
" style="fill:none;stroke:#ffffff;stroke-linecap:square;stroke-linejoin:miter;stroke-width:3.0;"/>
   </g>
   <g id="patch_8">
    <path d="M 48.75 13.006875 
L 498.98625 13.006875 
" style="fill:none;stroke:#ffffff;stroke-linecap:square;stroke-linejoin:miter;stroke-width:3.0;"/>
   </g>
   <g id="patch_9">
    <path d="M 48.75 298.74 
L 48.75 13.006875 
" style="fill:none;stroke:#ffffff;stroke-linecap:square;stroke-linejoin:miter;stroke-width:3.0;"/>
   </g>
   <g id="patch_10">
    <path d="M 498.98625 298.74 
L 498.98625 13.006875 
" style="fill:none;stroke:#ffffff;stroke-linecap:square;stroke-linejoin:miter;stroke-width:3.0;"/>
   </g>
  </g>
 </g>
 <defs>
  <clipPath id="p04b6fb7505">
   <rect height="285.733125" width="450.23625" x="48.75" y="13.006875"/>
  </clipPath>
 </defs>
</svg>
