<?xml version="1.0" encoding="utf-8" standalone="no"?>
<!DOCTYPE svg PUBLIC "-//W3C//DTD SVG 1.1//EN"
  "http://www.w3.org/Graphics/SVG/1.1/DTD/svg11.dtd">
<!-- Created with matplotlib (http://matplotlib.org/) -->
<svg height="343pt" version="1.1" viewBox="0 0 555 343" width="555pt" xmlns="http://www.w3.org/2000/svg" xmlns:xlink="http://www.w3.org/1999/xlink">
 <defs>
  <style type="text/css">
*{stroke-linecap:butt;stroke-linejoin:round;stroke-miterlimit:100000;}
  </style>
 </defs>
 <g id="figure_1">
  <g id="patch_1">
   <path d="M 0 343.83375 
L 555.37125 343.83375 
L 555.37125 0 
L 0 0 
z
" style="fill:none;opacity:0;"/>
  </g>
  <g id="axes_1">
   <g id="patch_2">
    <path d="M 48.75 298.74 
L 498.98625 298.74 
L 498.98625 13.006875 
L 48.75 13.006875 
z
" style="fill:#ffffff;"/>
   </g>
   <g id="matplotlib.axis_1">
    <g id="xtick_1">
     <g id="line2d_1">
      <path clip-path="url(#pbd52db307c)" d="M 48.75 298.74 
L 48.75 13.006875 
" style="fill:none;stroke:#cbcbcb;"/>
     </g>
     <g id="line2d_2"/>
     <g id="line2d_3"/>
     <g id="text_1">
      <!-- 0 -->
      <defs>
       <path d="M 31.78125 66.40625 
Q 24.171875 66.40625 20.328125 58.90625 
Q 16.5 51.421875 16.5 36.375 
Q 16.5 21.390625 20.328125 13.890625 
Q 24.171875 6.390625 31.78125 6.390625 
Q 39.453125 6.390625 43.28125 13.890625 
Q 47.125 21.390625 47.125 36.375 
Q 47.125 51.421875 43.28125 58.90625 
Q 39.453125 66.40625 31.78125 66.40625 
M 31.78125 74.21875 
Q 44.046875 74.21875 50.515625 64.515625 
Q 56.984375 54.828125 56.984375 36.375 
Q 56.984375 17.96875 50.515625 8.265625 
Q 44.046875 -1.421875 31.78125 -1.421875 
Q 19.53125 -1.421875 13.0625 8.265625 
Q 6.59375 17.96875 6.59375 36.375 
Q 6.59375 54.828125 13.0625 64.515625 
Q 19.53125 74.21875 31.78125 74.21875 
" id="BitstreamVeraSans-Roman-30"/>
      </defs>
      <g transform="translate(44.9325 311.858125)scale(0.12 -0.12)">
       <use xlink:href="#BitstreamVeraSans-Roman-30"/>
      </g>
     </g>
    </g>
    <g id="xtick_2">
     <g id="line2d_4">
      <path clip-path="url(#pbd52db307c)" d="M 113.069464 298.74 
L 113.069464 13.006875 
" style="fill:none;stroke:#cbcbcb;"/>
     </g>
     <g id="line2d_5"/>
     <g id="line2d_6"/>
     <g id="text_2">
      <!-- 5 -->
      <defs>
       <path d="M 10.796875 72.90625 
L 49.515625 72.90625 
L 49.515625 64.59375 
L 19.828125 64.59375 
L 19.828125 46.734375 
Q 21.96875 47.46875 24.109375 47.828125 
Q 26.265625 48.1875 28.421875 48.1875 
Q 40.625 48.1875 47.75 41.5 
Q 54.890625 34.8125 54.890625 23.390625 
Q 54.890625 11.625 47.5625 5.09375 
Q 40.234375 -1.421875 26.90625 -1.421875 
Q 22.3125 -1.421875 17.546875 -0.640625 
Q 12.796875 0.140625 7.71875 1.703125 
L 7.71875 11.625 
Q 12.109375 9.234375 16.796875 8.0625 
Q 21.484375 6.890625 26.703125 6.890625 
Q 35.15625 6.890625 40.078125 11.328125 
Q 45.015625 15.765625 45.015625 23.390625 
Q 45.015625 31 40.078125 35.4375 
Q 35.15625 39.890625 26.703125 39.890625 
Q 22.75 39.890625 18.8125 39.015625 
Q 14.890625 38.140625 10.796875 36.28125 
z
" id="BitstreamVeraSans-Roman-35"/>
      </defs>
      <g transform="translate(109.251964286 311.858125)scale(0.12 -0.12)">
       <use xlink:href="#BitstreamVeraSans-Roman-35"/>
      </g>
     </g>
    </g>
    <g id="xtick_3">
     <g id="line2d_7">
      <path clip-path="url(#pbd52db307c)" d="M 177.388929 298.74 
L 177.388929 13.006875 
" style="fill:none;stroke:#cbcbcb;"/>
     </g>
     <g id="line2d_8"/>
     <g id="line2d_9"/>
     <g id="text_3">
      <!-- 10 -->
      <defs>
       <path d="M 12.40625 8.296875 
L 28.515625 8.296875 
L 28.515625 63.921875 
L 10.984375 60.40625 
L 10.984375 69.390625 
L 28.421875 72.90625 
L 38.28125 72.90625 
L 38.28125 8.296875 
L 54.390625 8.296875 
L 54.390625 0 
L 12.40625 0 
z
" id="BitstreamVeraSans-Roman-31"/>
      </defs>
      <g transform="translate(169.753928571 311.858125)scale(0.12 -0.12)">
       <use xlink:href="#BitstreamVeraSans-Roman-31"/>
       <use x="63.623046875" xlink:href="#BitstreamVeraSans-Roman-30"/>
      </g>
     </g>
    </g>
    <g id="xtick_4">
     <g id="line2d_10">
      <path clip-path="url(#pbd52db307c)" d="M 241.708393 298.74 
L 241.708393 13.006875 
" style="fill:none;stroke:#cbcbcb;"/>
     </g>
     <g id="line2d_11"/>
     <g id="line2d_12"/>
     <g id="text_4">
      <!-- 15 -->
      <g transform="translate(234.073392857 311.858125)scale(0.12 -0.12)">
       <use xlink:href="#BitstreamVeraSans-Roman-31"/>
       <use x="63.623046875" xlink:href="#BitstreamVeraSans-Roman-35"/>
      </g>
     </g>
    </g>
    <g id="xtick_5">
     <g id="line2d_13">
      <path clip-path="url(#pbd52db307c)" d="M 306.027857 298.74 
L 306.027857 13.006875 
" style="fill:none;stroke:#cbcbcb;"/>
     </g>
     <g id="line2d_14"/>
     <g id="line2d_15"/>
     <g id="text_5">
      <!-- 20 -->
      <defs>
       <path d="M 19.1875 8.296875 
L 53.609375 8.296875 
L 53.609375 0 
L 7.328125 0 
L 7.328125 8.296875 
Q 12.9375 14.109375 22.625 23.890625 
Q 32.328125 33.6875 34.8125 36.53125 
Q 39.546875 41.84375 41.421875 45.53125 
Q 43.3125 49.21875 43.3125 52.78125 
Q 43.3125 58.59375 39.234375 62.25 
Q 35.15625 65.921875 28.609375 65.921875 
Q 23.96875 65.921875 18.8125 64.3125 
Q 13.671875 62.703125 7.8125 59.421875 
L 7.8125 69.390625 
Q 13.765625 71.78125 18.9375 73 
Q 24.125 74.21875 28.421875 74.21875 
Q 39.75 74.21875 46.484375 68.546875 
Q 53.21875 62.890625 53.21875 53.421875 
Q 53.21875 48.921875 51.53125 44.890625 
Q 49.859375 40.875 45.40625 35.40625 
Q 44.1875 33.984375 37.640625 27.21875 
Q 31.109375 20.453125 19.1875 8.296875 
" id="BitstreamVeraSans-Roman-32"/>
      </defs>
      <g transform="translate(298.392857143 311.858125)scale(0.12 -0.12)">
       <use xlink:href="#BitstreamVeraSans-Roman-32"/>
       <use x="63.623046875" xlink:href="#BitstreamVeraSans-Roman-30"/>
      </g>
     </g>
    </g>
    <g id="xtick_6">
     <g id="line2d_16">
      <path clip-path="url(#pbd52db307c)" d="M 370.347321 298.74 
L 370.347321 13.006875 
" style="fill:none;stroke:#cbcbcb;"/>
     </g>
     <g id="line2d_17"/>
     <g id="line2d_18"/>
     <g id="text_6">
      <!-- 25 -->
      <g transform="translate(362.712321429 311.858125)scale(0.12 -0.12)">
       <use xlink:href="#BitstreamVeraSans-Roman-32"/>
       <use x="63.623046875" xlink:href="#BitstreamVeraSans-Roman-35"/>
      </g>
     </g>
    </g>
    <g id="xtick_7">
     <g id="line2d_19">
      <path clip-path="url(#pbd52db307c)" d="M 434.666786 298.74 
L 434.666786 13.006875 
" style="fill:none;stroke:#cbcbcb;"/>
     </g>
     <g id="line2d_20"/>
     <g id="line2d_21"/>
     <g id="text_7">
      <!-- 30 -->
      <defs>
       <path d="M 40.578125 39.3125 
Q 47.65625 37.796875 51.625 33 
Q 55.609375 28.21875 55.609375 21.1875 
Q 55.609375 10.40625 48.1875 4.484375 
Q 40.765625 -1.421875 27.09375 -1.421875 
Q 22.515625 -1.421875 17.65625 -0.515625 
Q 12.796875 0.390625 7.625 2.203125 
L 7.625 11.71875 
Q 11.71875 9.328125 16.59375 8.109375 
Q 21.484375 6.890625 26.8125 6.890625 
Q 36.078125 6.890625 40.9375 10.546875 
Q 45.796875 14.203125 45.796875 21.1875 
Q 45.796875 27.640625 41.28125 31.265625 
Q 36.765625 34.90625 28.71875 34.90625 
L 20.21875 34.90625 
L 20.21875 43.015625 
L 29.109375 43.015625 
Q 36.375 43.015625 40.234375 45.921875 
Q 44.09375 48.828125 44.09375 54.296875 
Q 44.09375 59.90625 40.109375 62.90625 
Q 36.140625 65.921875 28.71875 65.921875 
Q 24.65625 65.921875 20.015625 65.03125 
Q 15.375 64.15625 9.8125 62.3125 
L 9.8125 71.09375 
Q 15.4375 72.65625 20.34375 73.4375 
Q 25.25 74.21875 29.59375 74.21875 
Q 40.828125 74.21875 47.359375 69.109375 
Q 53.90625 64.015625 53.90625 55.328125 
Q 53.90625 49.265625 50.4375 45.09375 
Q 46.96875 40.921875 40.578125 39.3125 
" id="BitstreamVeraSans-Roman-33"/>
      </defs>
      <g transform="translate(427.031785714 311.858125)scale(0.12 -0.12)">
       <use xlink:href="#BitstreamVeraSans-Roman-33"/>
       <use x="63.623046875" xlink:href="#BitstreamVeraSans-Roman-30"/>
      </g>
     </g>
    </g>
    <g id="xtick_8">
     <g id="line2d_22">
      <path clip-path="url(#pbd52db307c)" d="M 498.98625 298.74 
L 498.98625 13.006875 
" style="fill:none;stroke:#cbcbcb;"/>
     </g>
     <g id="line2d_23"/>
     <g id="line2d_24"/>
     <g id="text_8">
      <!-- 35 -->
      <g transform="translate(491.35125 311.858125)scale(0.12 -0.12)">
       <use xlink:href="#BitstreamVeraSans-Roman-33"/>
       <use x="63.623046875" xlink:href="#BitstreamVeraSans-Roman-35"/>
      </g>
     </g>
    </g>
    <g id="text_9">
     <!-- $\sf V \,(V) $ -->
     <defs>
      <path d="M 28.515625 0 
L 1.421875 69.390625 
L 11.078125 69.390625 
Q 13.765625 62.5 20.109375 46.0625 
Q 26.46875 29.640625 30.25 19.265625 
Q 34.03125 8.890625 34.078125 7.328125 
Q 34.078125 8.9375 37.84375 19.28125 
Q 41.609375 29.640625 47.953125 46.0625 
Q 54.296875 62.5 56.984375 69.390625 
L 65.1875 69.390625 
L 38.09375 0 
z
" id="Cmss10-56"/>
      <path d="M 6.5 -25 
Q 5.609375 -25 5.609375 -24.125 
Q 5.609375 -23.6875 5.8125 -23.484375 
Q 22.90625 -6.78125 22.90625 25 
Q 22.90625 56.78125 6 73.296875 
Q 5.609375 73.53125 5.609375 74.125 
Q 5.609375 74.46875 5.875 74.734375 
Q 6.15625 75 6.5 75 
L 7.421875 75 
Q 7.71875 75 7.90625 74.8125 
Q 15.09375 69.140625 19.875 61.03125 
Q 24.65625 52.9375 26.875 43.75 
Q 29.109375 34.578125 29.109375 25 
Q 29.109375 17.921875 27.90625 11.0625 
Q 26.703125 4.203125 24.09375 -2.453125 
Q 21.484375 -9.125 17.484375 -14.765625 
Q 13.484375 -20.40625 7.90625 -24.8125 
Q 7.71875 -25 7.421875 -25 
z
" id="Cmr10-29"/>
      <path d="M 31 -24.8125 
Q 25.4375 -20.40625 21.40625 -14.71875 
Q 17.390625 -9.03125 14.8125 -2.578125 
Q 12.25 3.859375 10.984375 10.890625 
Q 9.71875 17.921875 9.71875 25 
Q 9.71875 32.171875 10.984375 39.203125 
Q 12.25 46.234375 14.859375 52.734375 
Q 17.484375 59.234375 21.53125 64.890625 
Q 25.59375 70.5625 31 74.8125 
Q 31 75 31.5 75 
L 32.421875 75 
Q 32.71875 75 32.953125 74.734375 
Q 33.203125 74.46875 33.203125 74.125 
Q 33.203125 73.6875 33.015625 73.484375 
Q 28.125 68.703125 24.875 63.234375 
Q 21.625 57.765625 19.640625 51.578125 
Q 17.671875 45.40625 16.796875 38.78125 
Q 15.921875 32.171875 15.921875 25 
Q 15.921875 -6.78125 32.90625 -23.296875 
Q 33.203125 -23.578125 33.203125 -24.125 
Q 33.203125 -24.359375 32.9375 -24.671875 
Q 32.671875 -25 32.421875 -25 
L 31.5 -25 
Q 31 -25 31 -24.8125 
" id="Cmr10-28"/>
     </defs>
     <g transform="translate(254.428125 332.31375)scale(0.1728 -0.1728)">
      <use xlink:href="#Cmss10-56"/>
      <use transform="translate(79.83424902343751 0.0)" xlink:href="#Cmr10-28"/>
      <use transform="translate(118.65260839843751 0.0)" xlink:href="#Cmss10-56"/>
      <use transform="translate(185.2541708984375 0.0)" xlink:href="#Cmr10-29"/>
     </g>
    </g>
   </g>
   <g id="matplotlib.axis_2">
    <g id="ytick_1">
     <g id="line2d_25">
      <path clip-path="url(#pbd52db307c)" d="M 48.75 298.74 
L 498.98625 298.74 
" style="fill:none;stroke:#cbcbcb;"/>
     </g>
     <g id="line2d_26"/>
     <g id="text_10">
      <!-- 0 -->
      <g transform="translate(37.115 302.05125)scale(0.12 -0.12)">
       <use xlink:href="#BitstreamVeraSans-Roman-30"/>
      </g>
     </g>
    </g>
    <g id="ytick_2">
     <g id="line2d_27">
      <path clip-path="url(#pbd52db307c)" d="M 48.75 241.593375 
L 498.98625 241.593375 
" style="fill:none;stroke:#cbcbcb;"/>
     </g>
     <g id="line2d_28"/>
     <g id="text_11">
      <!-- 2 -->
      <g transform="translate(37.115 244.904625)scale(0.12 -0.12)">
       <use xlink:href="#BitstreamVeraSans-Roman-32"/>
      </g>
     </g>
    </g>
    <g id="ytick_3">
     <g id="line2d_29">
      <path clip-path="url(#pbd52db307c)" d="M 48.75 184.44675 
L 498.98625 184.44675 
" style="fill:none;stroke:#cbcbcb;"/>
     </g>
     <g id="line2d_30"/>
     <g id="text_12">
      <!-- 4 -->
      <defs>
       <path d="M 37.796875 64.3125 
L 12.890625 25.390625 
L 37.796875 25.390625 
z
M 35.203125 72.90625 
L 47.609375 72.90625 
L 47.609375 25.390625 
L 58.015625 25.390625 
L 58.015625 17.1875 
L 47.609375 17.1875 
L 47.609375 0 
L 37.796875 0 
L 37.796875 17.1875 
L 4.890625 17.1875 
L 4.890625 26.703125 
z
" id="BitstreamVeraSans-Roman-34"/>
      </defs>
      <g transform="translate(37.115 187.758)scale(0.12 -0.12)">
       <use xlink:href="#BitstreamVeraSans-Roman-34"/>
      </g>
     </g>
    </g>
    <g id="ytick_4">
     <g id="line2d_31">
      <path clip-path="url(#pbd52db307c)" d="M 48.75 127.300125 
L 498.98625 127.300125 
" style="fill:none;stroke:#cbcbcb;"/>
     </g>
     <g id="line2d_32"/>
     <g id="text_13">
      <!-- 6 -->
      <defs>
       <path d="M 33.015625 40.375 
Q 26.375 40.375 22.484375 35.828125 
Q 18.609375 31.296875 18.609375 23.390625 
Q 18.609375 15.53125 22.484375 10.953125 
Q 26.375 6.390625 33.015625 6.390625 
Q 39.65625 6.390625 43.53125 10.953125 
Q 47.40625 15.53125 47.40625 23.390625 
Q 47.40625 31.296875 43.53125 35.828125 
Q 39.65625 40.375 33.015625 40.375 
M 52.59375 71.296875 
L 52.59375 62.3125 
Q 48.875 64.0625 45.09375 64.984375 
Q 41.3125 65.921875 37.59375 65.921875 
Q 27.828125 65.921875 22.671875 59.328125 
Q 17.53125 52.734375 16.796875 39.40625 
Q 19.671875 43.65625 24.015625 45.921875 
Q 28.375 48.1875 33.59375 48.1875 
Q 44.578125 48.1875 50.953125 41.515625 
Q 57.328125 34.859375 57.328125 23.390625 
Q 57.328125 12.15625 50.6875 5.359375 
Q 44.046875 -1.421875 33.015625 -1.421875 
Q 20.359375 -1.421875 13.671875 8.265625 
Q 6.984375 17.96875 6.984375 36.375 
Q 6.984375 53.65625 15.1875 63.9375 
Q 23.390625 74.21875 37.203125 74.21875 
Q 40.921875 74.21875 44.703125 73.484375 
Q 48.484375 72.75 52.59375 71.296875 
" id="BitstreamVeraSans-Roman-36"/>
      </defs>
      <g transform="translate(37.115 130.611375)scale(0.12 -0.12)">
       <use xlink:href="#BitstreamVeraSans-Roman-36"/>
      </g>
     </g>
    </g>
    <g id="ytick_5">
     <g id="line2d_33">
      <path clip-path="url(#pbd52db307c)" d="M 48.75 70.1535 
L 498.98625 70.1535 
" style="fill:none;stroke:#cbcbcb;"/>
     </g>
     <g id="line2d_34"/>
     <g id="text_14">
      <!-- 8 -->
      <defs>
       <path d="M 31.78125 34.625 
Q 24.75 34.625 20.71875 30.859375 
Q 16.703125 27.09375 16.703125 20.515625 
Q 16.703125 13.921875 20.71875 10.15625 
Q 24.75 6.390625 31.78125 6.390625 
Q 38.8125 6.390625 42.859375 10.171875 
Q 46.921875 13.96875 46.921875 20.515625 
Q 46.921875 27.09375 42.890625 30.859375 
Q 38.875 34.625 31.78125 34.625 
M 21.921875 38.8125 
Q 15.578125 40.375 12.03125 44.71875 
Q 8.5 49.078125 8.5 55.328125 
Q 8.5 64.0625 14.71875 69.140625 
Q 20.953125 74.21875 31.78125 74.21875 
Q 42.671875 74.21875 48.875 69.140625 
Q 55.078125 64.0625 55.078125 55.328125 
Q 55.078125 49.078125 51.53125 44.71875 
Q 48 40.375 41.703125 38.8125 
Q 48.828125 37.15625 52.796875 32.3125 
Q 56.78125 27.484375 56.78125 20.515625 
Q 56.78125 9.90625 50.3125 4.234375 
Q 43.84375 -1.421875 31.78125 -1.421875 
Q 19.734375 -1.421875 13.25 4.234375 
Q 6.78125 9.90625 6.78125 20.515625 
Q 6.78125 27.484375 10.78125 32.3125 
Q 14.796875 37.15625 21.921875 38.8125 
M 18.3125 54.390625 
Q 18.3125 48.734375 21.84375 45.5625 
Q 25.390625 42.390625 31.78125 42.390625 
Q 38.140625 42.390625 41.71875 45.5625 
Q 45.3125 48.734375 45.3125 54.390625 
Q 45.3125 60.0625 41.71875 63.234375 
Q 38.140625 66.40625 31.78125 66.40625 
Q 25.390625 66.40625 21.84375 63.234375 
Q 18.3125 60.0625 18.3125 54.390625 
" id="BitstreamVeraSans-Roman-38"/>
      </defs>
      <g transform="translate(37.115 73.46475)scale(0.12 -0.12)">
       <use xlink:href="#BitstreamVeraSans-Roman-38"/>
      </g>
     </g>
    </g>
    <g id="ytick_6">
     <g id="line2d_35">
      <path clip-path="url(#pbd52db307c)" d="M 48.75 13.006875 
L 498.98625 13.006875 
" style="fill:none;stroke:#cbcbcb;"/>
     </g>
     <g id="line2d_36"/>
     <g id="text_15">
      <!-- 10 -->
      <g transform="translate(29.48 16.318125)scale(0.12 -0.12)">
       <use xlink:href="#BitstreamVeraSans-Roman-31"/>
       <use x="63.623046875" xlink:href="#BitstreamVeraSans-Roman-30"/>
      </g>
     </g>
    </g>
    <g id="text_16">
     <!-- $\sf I \,(A) $ -->
     <defs>
      <path d="M 2.78125 0 
L 28.71875 69.390625 
L 37.890625 69.390625 
L 63.8125 0 
L 54.203125 0 
Q 50.25 10.6875 46.78125 19.921875 
L 18.015625 19.921875 
Q 13.578125 7.765625 10.59375 0 
z
M 20.21875 25.875 
L 44.578125 25.875 
Q 40.09375 38.28125 37.8125 44.796875 
Q 35.546875 51.3125 34.03125 56.078125 
Q 32.515625 60.84375 32.515625 62.109375 
L 32.421875 62.109375 
Q 32.421875 61.140625 31.421875 57.8125 
Q 30.421875 54.5 28.859375 49.953125 
Q 27.296875 45.40625 24.09375 36.546875 
Q 20.90625 27.6875 20.21875 25.875 
" id="Cmss10-41"/>
      <path d="M 9.1875 0 
L 9.1875 69.390625 
L 18.5 69.390625 
L 18.5 0 
z
" id="Cmss10-49"/>
     </defs>
     <g transform="translate(20.16 171.9438375)rotate(-90.0)scale(0.1728 -0.1728)">
      <use xlink:href="#Cmss10-49"/>
      <use transform="translate(40.9182333984375 0.0)" xlink:href="#Cmr10-28"/>
      <use transform="translate(79.73659277343751 0.0)" xlink:href="#Cmss10-41"/>
      <use transform="translate(146.3381552734375 0.0)" xlink:href="#Cmr10-29"/>
     </g>
    </g>
   </g>
   <g id="line2d_37">
    <path clip-path="url(#pbd52db307c)" d="M 48.75 111.170276 
L 275.706928 112.494345 
L 302.234361 112.872805 
L 318.656105 113.316921 
L 330.446075 113.843138 
L 340.130694 114.494097 
L 348.131031 115.255393 
L 354.868157 116.115694 
L 360.763142 117.085942 
L 366.237057 118.218426 
L 370.868831 119.391739 
L 375.079534 120.664147 
L 379.290238 122.167747 
L 383.079871 123.750882 
L 386.869505 125.585029 
L 390.238067 127.45514 
L 393.60663 129.579115 
L 396.975193 131.986775 
L 399.922686 134.35112 
L 402.870178 136.979106 
L 405.817671 139.894564 
L 408.765164 143.121454 
L 411.712656 146.684394 
L 414.660149 150.609037 
L 417.607641 154.919233 
L 420.555134 159.639048 
L 423.502626 164.792813 
L 426.450119 170.403428 
L 429.397612 176.490703 
L 432.345104 183.072235 
L 435.292597 190.168114 
L 438.240089 197.788596 
L 441.608652 207.159511 
L 444.977215 217.24431 
L 448.345778 228.052622 
L 451.714341 239.58569 
L 455.503974 253.422875 
L 459.293608 268.130608 
L 466.451804 296.506541 
L 467.715015 300.55041 
L 468.557156 302.660639 
L 469.399296 304.058193 
L 469.399296 304.058193 
" style="fill:none;stroke:#fc4f30;stroke-dasharray:6.000000,6.000000;stroke-dashoffset:0.0;stroke-width:4.0;"/>
   </g>
   <g id="line2d_38">
    <path clip-path="url(#pbd52db307c)" d="M 48.75 109.342616 
L 220.654875 110.371701 
L 249.627606 110.764924 
L 267.397548 111.216614 
L 280.531853 111.76772 
L 290.575734 112.398956 
L 299.074402 113.14575 
L 306.41416 114.008625 
L 312.981313 115.00759 
L 318.775859 116.116251 
L 323.797799 117.290239 
L 328.433436 118.585402 
L 332.68277 119.982778 
L 336.932104 121.614103 
L 340.795135 123.330516 
L 344.658166 125.300628 
L 348.134894 127.317959 
L 351.611622 129.594105 
L 355.088349 132.157451 
L 358.178774 134.701471 
L 361.269199 137.518159 
L 364.359624 140.631188 
L 367.450048 144.064131 
L 370.540473 147.841652 
L 373.630898 151.987679 
L 376.721322 156.5268 
L 379.811747 161.482147 
L 382.902172 166.877688 
L 385.992597 172.735915 
L 389.083021 179.076289 
L 392.173446 185.916315 
L 395.263871 193.275851 
L 398.354295 201.165595 
L 401.831023 210.69395 
L 405.307751 220.921883 
L 408.784479 231.859315 
L 412.261207 243.510473 
L 416.124237 257.289097 
L 419.987268 271.927887 
L 424.622905 290.463287 
L 428.872239 307.354507 
L 430.417452 312.689367 
L 431.576361 315.909205 
L 432.348967 317.461114 
L 432.73527 317.998808 
L 433.121573 318.345592 
L 433.507876 318.474382 
L 433.89418 318.355748 
L 434.280483 317.958125 
L 434.666786 317.248184 
L 434.666786 317.248184 
" style="fill:none;stroke:#5cb85c;stroke-dasharray:6.000000,6.000000;stroke-dashoffset:0.0;stroke-width:4.0;"/>
   </g>
   <g id="line2d_39">
    <path clip-path="url(#pbd52db307c)" d="M 48.75 107.515581 
L 167.654091 108.268281 
L 197.901623 108.672974 
L 216.675953 109.133384 
L 230.582864 109.689035 
L 241.36072 110.329758 
L 250.400212 111.078114 
L 258.396686 111.962969 
L 265.350142 112.957588 
L 271.608252 114.081627 
L 277.171016 115.306151 
L 282.386108 116.687515 
L 287.253527 118.21883 
L 291.773273 119.88572 
L 295.945347 121.665904 
L 299.769747 123.529357 
L 303.594148 125.642441 
L 307.070875 127.80441 
L 310.547603 130.22052 
L 314.024331 132.916033 
L 317.501059 135.917297 
L 320.630114 138.903185 
L 323.759169 142.180444 
L 326.888224 145.770531 
L 330.017279 149.695756 
L 333.146334 153.977287 
L 336.275389 158.637165 
L 339.404444 163.695799 
L 342.533499 169.174815 
L 345.662554 175.094317 
L 348.791609 181.471547 
L 351.920664 188.322347 
L 355.049719 195.664816 
L 358.526447 204.412258 
L 362.003175 213.797574 
L 365.479903 223.828862 
L 369.304303 235.623071 
L 373.128704 248.217524 
L 376.953104 261.613383 
L 380.777505 275.799723 
L 384.949578 292.123465 
L 392.598379 322.512341 
L 393.98907 327.102871 
L 395.032089 329.886961 
L 395.727434 331.280642 
L 396.075107 331.800748 
L 396.075107 331.800748 
" style="fill:none;stroke:#30a2da;stroke-dasharray:6.000000,6.000000;stroke-dashoffset:0.0;stroke-width:4.0;"/>
   </g>
   <g id="patch_3">
    <path d="M 48.75 298.74 
L 498.98625 298.74 
" style="fill:none;stroke:#ffffff;stroke-linecap:square;stroke-linejoin:miter;stroke-width:3.0;"/>
   </g>
   <g id="patch_4">
    <path d="M 48.75 13.006875 
L 498.98625 13.006875 
" style="fill:none;stroke:#ffffff;stroke-linecap:square;stroke-linejoin:miter;stroke-width:3.0;"/>
   </g>
   <g id="patch_5">
    <path d="M 48.75 298.74 
L 48.75 13.006875 
" style="fill:none;stroke:#ffffff;stroke-linecap:square;stroke-linejoin:miter;stroke-width:3.0;"/>
   </g>
   <g id="patch_6">
    <path d="M 498.98625 298.74 
L 498.98625 13.006875 
" style="fill:none;stroke:#ffffff;stroke-linecap:square;stroke-linejoin:miter;stroke-width:3.0;"/>
   </g>
  </g>
  <g id="axes_2">
   <g id="matplotlib.axis_3">
    <g id="ytick_7">
     <g id="line2d_40">
      <path clip-path="url(#pbd52db307c)" d="M 48.75 298.74 
L 498.98625 298.74 
" style="fill:none;stroke:#cbcbcb;"/>
     </g>
     <g id="line2d_41"/>
     <g id="text_17">
      <!-- 0 -->
      <g transform="translate(502.98625 302.05125)scale(0.12 -0.12)">
       <use xlink:href="#BitstreamVeraSans-Roman-30"/>
      </g>
     </g>
    </g>
    <g id="ytick_8">
     <g id="line2d_42">
      <path clip-path="url(#pbd52db307c)" d="M 48.75 230.708304 
L 498.98625 230.708304 
" style="fill:none;stroke:#cbcbcb;"/>
     </g>
     <g id="line2d_43"/>
     <g id="text_18">
      <!-- 50 -->
      <g transform="translate(502.98625 234.019553571)scale(0.12 -0.12)">
       <use xlink:href="#BitstreamVeraSans-Roman-35"/>
       <use x="63.623046875" xlink:href="#BitstreamVeraSans-Roman-30"/>
      </g>
     </g>
    </g>
    <g id="ytick_9">
     <g id="line2d_44">
      <path clip-path="url(#pbd52db307c)" d="M 48.75 162.676607 
L 498.98625 162.676607 
" style="fill:none;stroke:#cbcbcb;"/>
     </g>
     <g id="line2d_45"/>
     <g id="text_19">
      <!-- 100 -->
      <g transform="translate(502.98625 165.987857143)scale(0.12 -0.12)">
       <use xlink:href="#BitstreamVeraSans-Roman-31"/>
       <use x="63.623046875" xlink:href="#BitstreamVeraSans-Roman-30"/>
       <use x="127.24609375" xlink:href="#BitstreamVeraSans-Roman-30"/>
      </g>
     </g>
    </g>
    <g id="ytick_10">
     <g id="line2d_46">
      <path clip-path="url(#pbd52db307c)" d="M 48.75 94.644911 
L 498.98625 94.644911 
" style="fill:none;stroke:#cbcbcb;"/>
     </g>
     <g id="line2d_47"/>
     <g id="text_20">
      <!-- 150 -->
      <g transform="translate(502.98625 97.9561607143)scale(0.12 -0.12)">
       <use xlink:href="#BitstreamVeraSans-Roman-31"/>
       <use x="63.623046875" xlink:href="#BitstreamVeraSans-Roman-35"/>
       <use x="127.24609375" xlink:href="#BitstreamVeraSans-Roman-30"/>
      </g>
     </g>
    </g>
    <g id="ytick_11">
     <g id="line2d_48">
      <path clip-path="url(#pbd52db307c)" d="M 48.75 26.613214 
L 498.98625 26.613214 
" style="fill:none;stroke:#cbcbcb;"/>
     </g>
     <g id="line2d_49"/>
     <g id="text_21">
      <!-- 200 -->
      <g transform="translate(502.98625 29.9244642857)scale(0.12 -0.12)">
       <use xlink:href="#BitstreamVeraSans-Roman-32"/>
       <use x="63.623046875" xlink:href="#BitstreamVeraSans-Roman-30"/>
       <use x="127.24609375" xlink:href="#BitstreamVeraSans-Roman-30"/>
      </g>
     </g>
    </g>
    <g id="text_22">
     <!-- $\sf P \, (W)$ -->
     <defs>
      <path d="M 9.421875 0 
L 9.421875 69.390625 
L 34.71875 69.390625 
Q 39.0625 69.390625 43.265625 67.9375 
Q 47.46875 66.5 50.828125 63.84375 
Q 54.203125 61.1875 56.203125 57.421875 
Q 58.203125 53.65625 58.203125 49.125 
Q 58.203125 43.109375 54.8125 38.390625 
Q 51.421875 33.6875 45.96875 31.09375 
Q 40.53125 28.515625 34.71875 28.515625 
L 18.703125 28.515625 
L 18.703125 0 
z
M 18.40625 34.71875 
L 32.328125 34.71875 
Q 36.921875 34.71875 40.875 36.328125 
Q 44.828125 37.9375 47.265625 41.203125 
Q 49.703125 44.484375 49.703125 49.125 
Q 49.703125 53.65625 47.265625 56.921875 
Q 44.828125 60.203125 40.84375 61.78125 
Q 36.859375 63.375 32.328125 63.375 
L 18.40625 63.375 
z
" id="Cmss10-50"/>
      <path d="M 21.578125 0 
L 1.421875 69.390625 
L 10.40625 69.390625 
Q 14.5 55.328125 16.53125 48.296875 
Q 18.5625 41.265625 20.90625 32.8125 
Q 23.25 24.359375 25.03125 16.90625 
Q 26.8125 9.46875 26.8125 7.328125 
Q 26.90625 9.578125 28.53125 16.234375 
Q 30.171875 22.90625 33.09375 33.46875 
Q 36.03125 44.046875 38.453125 52.46875 
Q 40.875 60.890625 43.3125 69.390625 
L 51.8125 69.390625 
Q 55.28125 57.46875 57.734375 48.921875 
Q 60.203125 40.375 62.625 31.6875 
Q 65.046875 23 66.765625 15.984375 
Q 68.5 8.984375 68.5 7.328125 
Q 68.5625 9.03125 70.28125 16.015625 
Q 72.015625 23 74.4375 31.6875 
Q 76.859375 40.375 79.171875 48.40625 
Q 81.5 56.453125 85.296875 69.390625 
L 92.921875 69.390625 
L 72.703125 0 
L 63.625 0 
Q 60.0625 12.203125 56.125 25.953125 
Q 52.203125 39.703125 49.5625 49.75 
Q 46.921875 59.8125 46.921875 62.109375 
Q 46.875 59.96875 44.046875 49.21875 
Q 41.21875 38.484375 37.421875 25.34375 
Q 33.640625 12.203125 30.078125 0 
z
" id="Cmss10-57"/>
     </defs>
     <g transform="translate(543.85125 177.4734375)rotate(-90.0)scale(0.1728 -0.1728)">
      <use xlink:href="#Cmss10-50"/>
      <use transform="translate(77.05104589843751 0.0)" xlink:href="#Cmr10-28"/>
      <use transform="translate(115.86940527343751 0.0)" xlink:href="#Cmss10-57"/>
      <use transform="translate(210.2541708984375 0.0)" xlink:href="#Cmr10-29"/>
     </g>
    </g>
   </g>
   <g id="line2d_50">
    <path clip-path="url(#pbd52db307c)" d="M 48.75 298.74 
L 131.362487 241.51408 
L 212.289005 185.722116 
L 272.140909 144.69726 
L 300.802384 125.292423 
L 317.662075 114.126397 
L 329.463859 106.551691 
L 338.736689 100.841517 
L 346.32355 96.409737 
L 353.067427 92.726583 
L 358.968319 89.769174 
L 364.026226 87.488313 
L 368.241149 85.809758 
L 372.456072 84.375096 
L 375.82801 83.433969 
L 379.199948 82.705885 
L 382.571887 82.221618 
L 385.943825 82.015638 
L 388.472778 82.066961 
L 391.001732 82.313942 
L 393.530686 82.775774 
L 396.05964 83.472852 
L 398.588593 84.426907 
L 401.117547 85.660989 
L 403.646501 87.198865 
L 406.175454 89.066711 
L 408.704408 91.29071 
L 411.233362 93.898251 
L 413.762315 96.918358 
L 416.291269 100.378654 
L 418.820223 104.308774 
L 421.349176 108.736657 
L 423.87813 113.692906 
L 426.407084 119.206744 
L 428.936037 125.30448 
L 431.464991 132.011817 
L 433.993945 139.358116 
L 436.522899 147.363858 
L 439.051852 156.053293 
L 441.580806 165.449927 
L 444.10976 175.566849 
L 446.638713 186.422273 
L 450.010652 202.075572 
L 453.38259 219.092571 
L 456.754528 237.487823 
L 460.126466 257.205075 
L 466.870343 297.494739 
L 467.713327 301.54034 
L 468.556312 304.829964 
L 469.399296 307.021187 
L 469.399296 307.021187 
" style="fill:none;stroke:#fc4f30;stroke-width:4.0;"/>
   </g>
   <g id="line2d_51">
    <path clip-path="url(#pbd52db307c)" d="M 48.75 298.74 
L 131.501696 240.858896 
L 204.972827 189.728632 
L 243.641844 163.050441 
L 264.523113 148.884586 
L 279.217339 139.170179 
L 290.044664 132.262187 
L 298.551847 127.070815 
L 306.285651 122.612657 
L 312.472693 119.28907 
L 317.886356 116.610532 
L 322.526638 114.526353 
L 327.16692 112.679174 
L 331.033821 111.354455 
L 334.900723 110.258074 
L 338.767625 109.425697 
L 341.861146 108.976808 
L 344.954667 108.745735 
L 348.048189 108.757253 
L 351.14171 109.03876 
L 353.461851 109.44474 
L 355.781992 110.03242 
L 358.102133 110.815777 
L 360.422274 111.809063 
L 362.742415 113.028147 
L 365.062556 114.488667 
L 367.382697 116.207057 
L 369.702838 118.200232 
L 372.022979 120.4863 
L 374.34312 123.081914 
L 376.663261 126.00552 
L 378.983402 129.274452 
L 381.303543 132.907932 
L 383.623684 136.923525 
L 385.943825 141.340348 
L 388.263966 146.174363 
L 390.584107 151.442063 
L 392.904248 157.161738 
L 395.224389 163.350511 
L 398.31791 172.352827 
L 401.411431 182.24926 
L 404.504953 193.065303 
L 407.598474 204.833613 
L 410.691995 217.576328 
L 413.785517 231.314421 
L 416.879038 246.061243 
L 419.972559 261.816677 
L 423.839461 282.827184 
L 429.253123 312.834215 
L 430.799884 320.105682 
L 431.573264 323.060444 
L 432.346645 325.318323 
L 433.120025 326.634347 
L 433.893405 326.707061 
L 434.666786 325.180263 
L 434.666786 325.180263 
" style="fill:none;stroke:#5cb85c;stroke-width:4.0;"/>
   </g>
   <g id="line2d_52">
    <path clip-path="url(#pbd52db307c)" d="M 48.75 298.74 
L 129.490907 241.723398 
L 183.782206 203.622655 
L 211.623898 184.332284 
L 229.024955 172.529553 
L 241.553717 164.278914 
L 251.298309 158.099646 
L 259.650817 153.049015 
L 266.61124 149.0793 
L 272.87562 145.751062 
L 278.443959 143.038955 
L 283.316255 140.899711 
L 287.492509 139.273638 
L 291.668762 137.872098 
L 295.845016 136.730837 
L 299.325228 136.007679 
L 302.805439 135.519675 
L 306.285651 135.295231 
L 309.06982 135.326541 
L 311.853989 135.56398 
L 314.638158 136.025989 
L 317.422327 136.731797 
L 320.206497 137.702413 
L 322.990666 138.959242 
L 325.774835 140.524796 
L 328.559004 142.422852 
L 331.343173 144.676976 
L 334.127343 147.312141 
L 336.911512 150.353574 
L 339.695681 153.8257 
L 342.47985 157.755399 
L 345.264019 162.168535 
L 348.048189 167.089061 
L 350.832358 172.540906 
L 353.616527 178.550493 
L 356.400696 185.139398 
L 359.184865 192.328354 
L 361.969034 200.142016 
L 364.753204 208.595367 
L 367.537373 217.711612 
L 370.321542 227.502865 
L 373.105711 237.984534 
L 376.585923 252.081514 
L 380.066134 267.296403 
L 383.546346 283.623711 
L 387.7226 304.516527 
L 392.594896 328.982402 
L 393.98698 334.979324 
L 394.683023 337.536324 
L 395.379065 339.667839 
L 396.075107 341.246676 
L 396.075107 341.246676 
" style="fill:none;stroke:#30a2da;stroke-width:4.0;"/>
   </g>
   <g id="patch_7">
    <path d="M 48.75 298.74 
L 498.98625 298.74 
" style="fill:none;stroke:#ffffff;stroke-linecap:square;stroke-linejoin:miter;stroke-width:3.0;"/>
   </g>
   <g id="patch_8">
    <path d="M 48.75 13.006875 
L 498.98625 13.006875 
" style="fill:none;stroke:#ffffff;stroke-linecap:square;stroke-linejoin:miter;stroke-width:3.0;"/>
   </g>
   <g id="patch_9">
    <path d="M 48.75 298.74 
L 48.75 13.006875 
" style="fill:none;stroke:#ffffff;stroke-linecap:square;stroke-linejoin:miter;stroke-width:3.0;"/>
   </g>
   <g id="patch_10">
    <path d="M 498.98625 298.74 
L 498.98625 13.006875 
" style="fill:none;stroke:#ffffff;stroke-linecap:square;stroke-linejoin:miter;stroke-width:3.0;"/>
   </g>
   <g id="legend_1">
    <g id="patch_11">
     <path d="M 233.260125 291.54 
L 314.476125 291.54 
Q 317.356125 291.54 317.356125 288.66 
L 317.356125 226.6905 
Q 317.356125 223.8105 314.476125 223.8105 
L 233.260125 223.8105 
Q 230.380125 223.8105 230.380125 226.6905 
L 230.380125 288.66 
Q 230.380125 291.54 233.260125 291.54 
z
" style="fill:#ffffff;stroke:#ffffff;stroke-linejoin:miter;stroke-width:0.5;"/>
    </g>
    <g id="line2d_53">
     <path d="M 240.460125 235.47225 
L 260.620125 235.47225 
" style="fill:none;stroke:#fc4f30;stroke-width:4.0;"/>
    </g>
    <g id="line2d_54"/>
    <g id="text_23">
     <!-- $\sf 25\, ºC$ -->
     <defs>
      <path d="M 38.8125 -2.203125 
Q 31.6875 -2.203125 25.671875 0.921875 
Q 19.671875 4.046875 15.40625 9.375 
Q 11.140625 14.703125 8.8125 21.234375 
Q 6.5 27.78125 6.5 34.71875 
Q 6.5 41.65625 8.8125 48.21875 
Q 11.140625 54.78125 15.453125 60.125 
Q 19.78125 65.484375 25.734375 68.53125 
Q 31.6875 71.578125 38.8125 71.578125 
Q 42.53125 71.578125 45.53125 71.234375 
Q 48.53125 70.90625 51.65625 70.09375 
Q 54.78125 69.28125 57.71875 68.109375 
L 56.203125 59.515625 
L 56.109375 59.515625 
Q 51.953125 62.359375 47.890625 63.578125 
Q 43.84375 64.796875 38.8125 64.796875 
Q 33.296875 64.796875 28.96875 62.0625 
Q 24.65625 59.328125 21.71875 54.828125 
Q 18.796875 50.34375 17.3125 45.09375 
Q 15.828125 39.84375 15.828125 34.71875 
Q 15.828125 29.640625 17.328125 24.3125 
Q 18.84375 19 21.796875 14.5 
Q 24.75 10.015625 29.09375 7.296875 
Q 33.453125 4.59375 38.8125 4.59375 
Q 45.265625 4.59375 49.140625 5.8125 
Q 53.03125 7.03125 58.203125 10.6875 
L 58.796875 3.515625 
L 58.796875 3.421875 
Q 55.03125 1.078125 52.21875 -0.09375 
Q 49.421875 -1.265625 46.4375 -1.734375 
Q 43.453125 -2.203125 38.8125 -2.203125 
" id="Cmss10-43"/>
      <path d="M 22.21875 61.078125 
Q 22.21875 63.71875 23.90625 65.578125 
Q 25.59375 67.4375 28.171875 68.40625 
Q 30.765625 69.390625 33.296875 69.390625 
Q 35.84375 69.390625 38.421875 68.40625 
Q 41.015625 67.4375 42.703125 65.578125 
Q 44.390625 63.71875 44.390625 61.078125 
Q 44.390625 58.40625 42.703125 56.546875 
Q 41.015625 54.6875 38.421875 53.6875 
Q 35.84375 52.6875 33.296875 52.6875 
Q 29.296875 52.6875 25.75 54.953125 
Q 22.21875 57.234375 22.21875 61.078125 
M 27.78125 61.078125 
Q 27.78125 58.890625 29.34375 57.890625 
Q 30.90625 56.890625 33.296875 56.890625 
Q 35.640625 56.890625 37.21875 57.859375 
Q 38.8125 58.84375 38.8125 61.078125 
Q 38.8125 63.28125 37.21875 64.234375 
Q 35.640625 65.1875 33.296875 65.1875 
Q 30.953125 65.1875 29.359375 64.203125 
Q 27.78125 63.234375 27.78125 61.078125 
" id="Cmss10-ba"/>
      <path d="M 8.6875 11.375 
Q 9.71875 8.453125 11.84375 6.046875 
Q 13.96875 3.65625 16.875 2.3125 
Q 19.78125 0.984375 22.90625 0.984375 
Q 30.125 0.984375 32.859375 6.59375 
Q 35.59375 12.203125 35.59375 20.21875 
Q 35.59375 23.6875 35.46875 26.046875 
Q 35.359375 28.421875 34.8125 30.609375 
Q 33.890625 34.125 31.5625 36.765625 
Q 29.25 39.40625 25.875 39.40625 
Q 22.515625 39.40625 20.09375 38.375 
Q 17.671875 37.359375 16.15625 35.984375 
Q 14.65625 34.625 13.484375 33.109375 
Q 12.3125 31.59375 12.015625 31.5 
L 10.890625 31.5 
Q 10.640625 31.5 10.265625 31.8125 
Q 9.90625 32.125 9.90625 32.421875 
L 9.90625 65.828125 
Q 9.90625 66.0625 10.21875 66.328125 
Q 10.546875 66.609375 10.890625 66.609375 
L 11.1875 66.609375 
Q 17.921875 63.375 25.484375 63.375 
Q 32.90625 63.375 39.796875 66.609375 
L 40.09375 66.609375 
Q 40.4375 66.609375 40.71875 66.359375 
Q 41.015625 66.109375 41.015625 65.828125 
L 41.015625 64.890625 
Q 41.015625 64.40625 40.828125 64.40625 
Q 37.40625 59.859375 32.25 57.3125 
Q 27.09375 54.78125 21.578125 54.78125 
Q 17.578125 54.78125 13.375 55.90625 
L 13.375 37.015625 
Q 16.703125 39.703125 19.3125 40.84375 
Q 21.921875 42 25.984375 42 
Q 31.5 42 35.859375 38.8125 
Q 40.234375 35.640625 42.578125 30.53125 
Q 44.921875 25.4375 44.921875 20.125 
Q 44.921875 14.109375 41.96875 8.984375 
Q 39.015625 3.859375 33.9375 0.828125 
Q 28.859375 -2.203125 22.90625 -2.203125 
Q 17.96875 -2.203125 13.84375 0.328125 
Q 9.71875 2.875 7.34375 7.171875 
Q 4.984375 11.46875 4.984375 16.3125 
Q 4.984375 18.5625 6.4375 19.96875 
Q 7.90625 21.390625 10.109375 21.390625 
Q 12.3125 21.390625 13.796875 19.9375 
Q 15.28125 18.5 15.28125 16.3125 
Q 15.28125 14.15625 13.796875 12.671875 
Q 12.3125 11.1875 10.109375 11.1875 
Q 9.765625 11.1875 9.328125 11.25 
Q 8.890625 11.328125 8.6875 11.375 
" id="Cmr10-35"/>
      <path d="M 4.984375 0 
L 4.984375 2.6875 
Q 4.984375 2.9375 5.171875 3.21875 
L 20.703125 20.40625 
Q 24.21875 24.21875 26.40625 26.796875 
Q 28.609375 29.390625 30.75 32.765625 
Q 32.90625 36.140625 34.15625 39.625 
Q 35.40625 43.109375 35.40625 47.015625 
Q 35.40625 51.125 33.890625 54.859375 
Q 32.375 58.59375 29.375 60.84375 
Q 26.375 63.09375 22.125 63.09375 
Q 17.78125 63.09375 14.3125 60.46875 
Q 10.84375 57.859375 9.421875 53.71875 
Q 9.8125 53.8125 10.5 53.8125 
Q 12.75 53.8125 14.328125 52.296875 
Q 15.921875 50.78125 15.921875 48.390625 
Q 15.921875 46.09375 14.328125 44.5 
Q 12.75 42.921875 10.5 42.921875 
Q 8.15625 42.921875 6.5625 44.546875 
Q 4.984375 46.1875 4.984375 48.390625 
Q 4.984375 52.15625 6.390625 55.4375 
Q 7.8125 58.734375 10.46875 61.296875 
Q 13.140625 63.875 16.484375 65.234375 
Q 19.828125 66.609375 23.578125 66.609375 
Q 29.296875 66.609375 34.21875 64.1875 
Q 39.15625 61.765625 42.03125 57.34375 
Q 44.921875 52.9375 44.921875 47.015625 
Q 44.921875 42.671875 43.015625 38.765625 
Q 41.109375 34.859375 38.125 31.65625 
Q 35.15625 28.46875 30.515625 24.40625 
Q 25.875 20.359375 24.421875 19 
L 13.09375 8.109375 
L 22.703125 8.109375 
Q 29.78125 8.109375 34.546875 8.21875 
Q 39.3125 8.34375 39.59375 8.59375 
Q 40.765625 9.859375 42 17.828125 
L 44.921875 17.828125 
L 42.09375 0 
z
" id="Cmr10-32"/>
     </defs>
     <g transform="translate(276.460125 240.51225)scale(0.144 -0.144)">
      <use transform="translate(0.0 0.421875)" xlink:href="#Cmr10-32"/>
      <use transform="translate(50.0 0.421875)" xlink:href="#Cmr10-35"/>
      <use transform="translate(113.23268652343751 0.421875)" xlink:href="#Cmss10-ba"/>
      <use transform="translate(179.8342490234375 0.421875)" xlink:href="#Cmss10-43"/>
     </g>
    </g>
    <g id="line2d_55">
     <path d="M 240.460125 256.60875 
L 260.620125 256.60875 
" style="fill:none;stroke:#5cb85c;stroke-width:4.0;"/>
    </g>
    <g id="line2d_56"/>
    <g id="text_24">
     <!-- $\sf 50\, ºC$ -->
     <defs>
      <path d="M 25 -2.203125 
Q 12.75 -2.203125 8.328125 7.875 
Q 3.90625 17.96875 3.90625 31.890625 
Q 3.90625 40.578125 5.484375 48.234375 
Q 7.078125 55.90625 11.78125 61.25 
Q 16.5 66.609375 25 66.609375 
Q 31.59375 66.609375 35.78125 63.375 
Q 39.984375 60.15625 42.1875 55.046875 
Q 44.390625 49.953125 45.1875 44.109375 
Q 46 38.28125 46 31.890625 
Q 46 23.296875 44.40625 15.796875 
Q 42.828125 8.296875 38.1875 3.046875 
Q 33.546875 -2.203125 25 -2.203125 
M 25 0.390625 
Q 30.5625 0.390625 33.296875 6.09375 
Q 36.03125 11.8125 36.671875 18.75 
Q 37.3125 25.6875 37.3125 33.5 
Q 37.3125 41.015625 36.671875 47.359375 
Q 36.03125 53.71875 33.3125 58.859375 
Q 30.609375 64.015625 25 64.015625 
Q 19.34375 64.015625 16.609375 58.828125 
Q 13.875 53.65625 13.234375 47.328125 
Q 12.59375 41.015625 12.59375 33.5 
Q 12.59375 27.9375 12.859375 23 
Q 13.140625 18.0625 14.3125 12.8125 
Q 15.484375 7.5625 18.09375 3.96875 
Q 20.703125 0.390625 25 0.390625 
" id="Cmr10-30"/>
     </defs>
     <g transform="translate(276.460125 261.64875)scale(0.144 -0.144)">
      <use transform="translate(0.0 0.421875)" xlink:href="#Cmr10-35"/>
      <use transform="translate(50.0 0.421875)" xlink:href="#Cmr10-30"/>
      <use transform="translate(113.23268652343751 0.421875)" xlink:href="#Cmss10-ba"/>
      <use transform="translate(179.8342490234375 0.421875)" xlink:href="#Cmss10-43"/>
     </g>
    </g>
    <g id="line2d_57">
     <path d="M 240.460125 277.74525 
L 260.620125 277.74525 
" style="fill:none;stroke:#30a2da;stroke-width:4.0;"/>
    </g>
    <g id="line2d_58"/>
    <g id="text_25">
     <!-- $\sf 75\, ºC$ -->
     <defs>
      <path d="M 17.390625 2.59375 
Q 17.390625 8.15625 18.359375 13.46875 
Q 19.34375 18.796875 21.21875 24 
Q 23.09375 29.203125 25.75 34.203125 
Q 28.421875 39.203125 31.59375 43.609375 
L 40.71875 56.296875 
L 29.296875 56.296875 
Q 11.53125 56.296875 10.984375 55.8125 
Q 9.671875 54.203125 8.5 46.578125 
L 5.609375 46.578125 
L 8.890625 67.578125 
L 11.8125 67.578125 
L 11.8125 67.28125 
Q 11.8125 65.484375 17.921875 64.9375 
Q 24.03125 64.40625 29.890625 64.40625 
L 48.484375 64.40625 
L 48.484375 61.8125 
Q 48.484375 61.71875 48.453125 61.671875 
Q 48.4375 61.625 48.390625 61.53125 
L 34.625 42.1875 
Q 29.546875 34.671875 28.265625 25.484375 
Q 27 16.3125 27 2.59375 
Q 27 0.640625 25.578125 -0.78125 
Q 24.171875 -2.203125 22.21875 -2.203125 
Q 20.21875 -2.203125 18.796875 -0.78125 
Q 17.390625 0.640625 17.390625 2.59375 
" id="Cmr10-37"/>
     </defs>
     <g transform="translate(276.460125 282.78525)scale(0.144 -0.144)">
      <use transform="translate(0.0 0.421875)" xlink:href="#Cmr10-37"/>
      <use transform="translate(50.0 0.421875)" xlink:href="#Cmr10-35"/>
      <use transform="translate(113.23268652343751 0.421875)" xlink:href="#Cmss10-ba"/>
      <use transform="translate(179.8342490234375 0.421875)" xlink:href="#Cmss10-43"/>
     </g>
    </g>
   </g>
  </g>
 </g>
 <defs>
  <clipPath id="pbd52db307c">
   <rect height="285.733125" width="450.23625" x="48.75" y="13.006875"/>
  </clipPath>
 </defs>
</svg>
