<?xml version="1.0" encoding="utf-8" standalone="no"?>
<!DOCTYPE svg PUBLIC "-//W3C//DTD SVG 1.1//EN"
  "http://www.w3.org/Graphics/SVG/1.1/DTD/svg11.dtd">
<!-- Created with matplotlib (http://matplotlib.org/) -->
<svg height="361pt" version="1.1" viewBox="0 0 521 361" width="521pt" xmlns="http://www.w3.org/2000/svg" xmlns:xlink="http://www.w3.org/1999/xlink">
 <defs>
  <style type="text/css">
*{stroke-linecap:butt;stroke-linejoin:round;stroke-miterlimit:100000;}
  </style>
 </defs>
 <g id="figure_1">
  <g id="patch_1">
   <path d="M 0 361.220625 
L 521.505 361.220625 
L 521.505 0 
L 0 0 
z
" style="fill:none;opacity:0;"/>
  </g>
  <g id="axes_1">
   <g id="patch_2">
    <path d="M 45.87 319.006875 
L 506.67 319.006875 
L 506.67 13.006875 
L 45.87 13.006875 
z
" style="fill:#ffffff;"/>
   </g>
   <g id="matplotlib.axis_1">
    <g id="xtick_1">
     <g id="line2d_1">
      <path clip-path="url(#p15fefcc036)" d="M 45.87 319.006875 
L 45.87 13.006875 
" style="fill:none;stroke:#cbcbcb;"/>
     </g>
     <g id="line2d_2"/>
     <g id="line2d_3"/>
     <g id="text_1">
      <!-- 0 -->
      <defs>
       <path d="M 31.78125 66.40625 
Q 24.171875 66.40625 20.328125 58.90625 
Q 16.5 51.421875 16.5 36.375 
Q 16.5 21.390625 20.328125 13.890625 
Q 24.171875 6.390625 31.78125 6.390625 
Q 39.453125 6.390625 43.28125 13.890625 
Q 47.125 21.390625 47.125 36.375 
Q 47.125 51.421875 43.28125 58.90625 
Q 39.453125 66.40625 31.78125 66.40625 
M 31.78125 74.21875 
Q 44.046875 74.21875 50.515625 64.515625 
Q 56.984375 54.828125 56.984375 36.375 
Q 56.984375 17.96875 50.515625 8.265625 
Q 44.046875 -1.421875 31.78125 -1.421875 
Q 19.53125 -1.421875 13.0625 8.265625 
Q 6.59375 17.96875 6.59375 36.375 
Q 6.59375 54.828125 13.0625 64.515625 
Q 19.53125 74.21875 31.78125 74.21875 
" id="BitstreamVeraSans-Roman-30"/>
      </defs>
      <g transform="translate(42.0525 332.125)scale(0.12 -0.12)">
       <use xlink:href="#BitstreamVeraSans-Roman-30"/>
      </g>
     </g>
    </g>
    <g id="xtick_2">
     <g id="line2d_4">
      <path clip-path="url(#p15fefcc036)" d="M 111.698571 319.006875 
L 111.698571 13.006875 
" style="fill:none;stroke:#cbcbcb;"/>
     </g>
     <g id="line2d_5"/>
     <g id="line2d_6"/>
     <g id="text_2">
      <!-- 5 -->
      <defs>
       <path d="M 10.796875 72.90625 
L 49.515625 72.90625 
L 49.515625 64.59375 
L 19.828125 64.59375 
L 19.828125 46.734375 
Q 21.96875 47.46875 24.109375 47.828125 
Q 26.265625 48.1875 28.421875 48.1875 
Q 40.625 48.1875 47.75 41.5 
Q 54.890625 34.8125 54.890625 23.390625 
Q 54.890625 11.625 47.5625 5.09375 
Q 40.234375 -1.421875 26.90625 -1.421875 
Q 22.3125 -1.421875 17.546875 -0.640625 
Q 12.796875 0.140625 7.71875 1.703125 
L 7.71875 11.625 
Q 12.109375 9.234375 16.796875 8.0625 
Q 21.484375 6.890625 26.703125 6.890625 
Q 35.15625 6.890625 40.078125 11.328125 
Q 45.015625 15.765625 45.015625 23.390625 
Q 45.015625 31 40.078125 35.4375 
Q 35.15625 39.890625 26.703125 39.890625 
Q 22.75 39.890625 18.8125 39.015625 
Q 14.890625 38.140625 10.796875 36.28125 
z
" id="BitstreamVeraSans-Roman-35"/>
      </defs>
      <g transform="translate(107.881071429 332.125)scale(0.12 -0.12)">
       <use xlink:href="#BitstreamVeraSans-Roman-35"/>
      </g>
     </g>
    </g>
    <g id="xtick_3">
     <g id="line2d_7">
      <path clip-path="url(#p15fefcc036)" d="M 177.527143 319.006875 
L 177.527143 13.006875 
" style="fill:none;stroke:#cbcbcb;"/>
     </g>
     <g id="line2d_8"/>
     <g id="line2d_9"/>
     <g id="text_3">
      <!-- 10 -->
      <defs>
       <path d="M 12.40625 8.296875 
L 28.515625 8.296875 
L 28.515625 63.921875 
L 10.984375 60.40625 
L 10.984375 69.390625 
L 28.421875 72.90625 
L 38.28125 72.90625 
L 38.28125 8.296875 
L 54.390625 8.296875 
L 54.390625 0 
L 12.40625 0 
z
" id="BitstreamVeraSans-Roman-31"/>
      </defs>
      <g transform="translate(169.892142857 332.125)scale(0.12 -0.12)">
       <use xlink:href="#BitstreamVeraSans-Roman-31"/>
       <use x="63.623046875" xlink:href="#BitstreamVeraSans-Roman-30"/>
      </g>
     </g>
    </g>
    <g id="xtick_4">
     <g id="line2d_10">
      <path clip-path="url(#p15fefcc036)" d="M 243.355714 319.006875 
L 243.355714 13.006875 
" style="fill:none;stroke:#cbcbcb;"/>
     </g>
     <g id="line2d_11"/>
     <g id="line2d_12"/>
     <g id="text_4">
      <!-- 15 -->
      <g transform="translate(235.720714286 332.125)scale(0.12 -0.12)">
       <use xlink:href="#BitstreamVeraSans-Roman-31"/>
       <use x="63.623046875" xlink:href="#BitstreamVeraSans-Roman-35"/>
      </g>
     </g>
    </g>
    <g id="xtick_5">
     <g id="line2d_13">
      <path clip-path="url(#p15fefcc036)" d="M 309.184286 319.006875 
L 309.184286 13.006875 
" style="fill:none;stroke:#cbcbcb;"/>
     </g>
     <g id="line2d_14"/>
     <g id="line2d_15"/>
     <g id="text_5">
      <!-- 20 -->
      <defs>
       <path d="M 19.1875 8.296875 
L 53.609375 8.296875 
L 53.609375 0 
L 7.328125 0 
L 7.328125 8.296875 
Q 12.9375 14.109375 22.625 23.890625 
Q 32.328125 33.6875 34.8125 36.53125 
Q 39.546875 41.84375 41.421875 45.53125 
Q 43.3125 49.21875 43.3125 52.78125 
Q 43.3125 58.59375 39.234375 62.25 
Q 35.15625 65.921875 28.609375 65.921875 
Q 23.96875 65.921875 18.8125 64.3125 
Q 13.671875 62.703125 7.8125 59.421875 
L 7.8125 69.390625 
Q 13.765625 71.78125 18.9375 73 
Q 24.125 74.21875 28.421875 74.21875 
Q 39.75 74.21875 46.484375 68.546875 
Q 53.21875 62.890625 53.21875 53.421875 
Q 53.21875 48.921875 51.53125 44.890625 
Q 49.859375 40.875 45.40625 35.40625 
Q 44.1875 33.984375 37.640625 27.21875 
Q 31.109375 20.453125 19.1875 8.296875 
" id="BitstreamVeraSans-Roman-32"/>
      </defs>
      <g transform="translate(301.549285714 332.125)scale(0.12 -0.12)">
       <use xlink:href="#BitstreamVeraSans-Roman-32"/>
       <use x="63.623046875" xlink:href="#BitstreamVeraSans-Roman-30"/>
      </g>
     </g>
    </g>
    <g id="xtick_6">
     <g id="line2d_16">
      <path clip-path="url(#p15fefcc036)" d="M 375.012857 319.006875 
L 375.012857 13.006875 
" style="fill:none;stroke:#cbcbcb;"/>
     </g>
     <g id="line2d_17"/>
     <g id="line2d_18"/>
     <g id="text_6">
      <!-- 25 -->
      <g transform="translate(367.377857143 332.125)scale(0.12 -0.12)">
       <use xlink:href="#BitstreamVeraSans-Roman-32"/>
       <use x="63.623046875" xlink:href="#BitstreamVeraSans-Roman-35"/>
      </g>
     </g>
    </g>
    <g id="xtick_7">
     <g id="line2d_19">
      <path clip-path="url(#p15fefcc036)" d="M 440.841429 319.006875 
L 440.841429 13.006875 
" style="fill:none;stroke:#cbcbcb;"/>
     </g>
     <g id="line2d_20"/>
     <g id="line2d_21"/>
     <g id="text_7">
      <!-- 30 -->
      <defs>
       <path d="M 40.578125 39.3125 
Q 47.65625 37.796875 51.625 33 
Q 55.609375 28.21875 55.609375 21.1875 
Q 55.609375 10.40625 48.1875 4.484375 
Q 40.765625 -1.421875 27.09375 -1.421875 
Q 22.515625 -1.421875 17.65625 -0.515625 
Q 12.796875 0.390625 7.625 2.203125 
L 7.625 11.71875 
Q 11.71875 9.328125 16.59375 8.109375 
Q 21.484375 6.890625 26.8125 6.890625 
Q 36.078125 6.890625 40.9375 10.546875 
Q 45.796875 14.203125 45.796875 21.1875 
Q 45.796875 27.640625 41.28125 31.265625 
Q 36.765625 34.90625 28.71875 34.90625 
L 20.21875 34.90625 
L 20.21875 43.015625 
L 29.109375 43.015625 
Q 36.375 43.015625 40.234375 45.921875 
Q 44.09375 48.828125 44.09375 54.296875 
Q 44.09375 59.90625 40.109375 62.90625 
Q 36.140625 65.921875 28.71875 65.921875 
Q 24.65625 65.921875 20.015625 65.03125 
Q 15.375 64.15625 9.8125 62.3125 
L 9.8125 71.09375 
Q 15.4375 72.65625 20.34375 73.4375 
Q 25.25 74.21875 29.59375 74.21875 
Q 40.828125 74.21875 47.359375 69.109375 
Q 53.90625 64.015625 53.90625 55.328125 
Q 53.90625 49.265625 50.4375 45.09375 
Q 46.96875 40.921875 40.578125 39.3125 
" id="BitstreamVeraSans-Roman-33"/>
      </defs>
      <g transform="translate(433.206428571 332.125)scale(0.12 -0.12)">
       <use xlink:href="#BitstreamVeraSans-Roman-33"/>
       <use x="63.623046875" xlink:href="#BitstreamVeraSans-Roman-30"/>
      </g>
     </g>
    </g>
    <g id="xtick_8">
     <g id="line2d_22">
      <path clip-path="url(#p15fefcc036)" d="M 506.67 319.006875 
L 506.67 13.006875 
" style="fill:none;stroke:#cbcbcb;"/>
     </g>
     <g id="line2d_23"/>
     <g id="line2d_24"/>
     <g id="text_8">
      <!-- 35 -->
      <g transform="translate(499.035 332.125)scale(0.12 -0.12)">
       <use xlink:href="#BitstreamVeraSans-Roman-33"/>
       <use x="63.623046875" xlink:href="#BitstreamVeraSans-Roman-35"/>
      </g>
     </g>
    </g>
    <g id="text_9">
     <!-- $\sf V \,(V)$ -->
     <defs>
      <path d="M 6.5 -25 
Q 5.609375 -25 5.609375 -24.125 
Q 5.609375 -23.6875 5.8125 -23.484375 
Q 22.90625 -6.78125 22.90625 25 
Q 22.90625 56.78125 6 73.296875 
Q 5.609375 73.53125 5.609375 74.125 
Q 5.609375 74.46875 5.875 74.734375 
Q 6.15625 75 6.5 75 
L 7.421875 75 
Q 7.71875 75 7.90625 74.8125 
Q 15.09375 69.140625 19.875 61.03125 
Q 24.65625 52.9375 26.875 43.75 
Q 29.109375 34.578125 29.109375 25 
Q 29.109375 17.921875 27.90625 11.0625 
Q 26.703125 4.203125 24.09375 -2.453125 
Q 21.484375 -9.125 17.484375 -14.765625 
Q 13.484375 -20.40625 7.90625 -24.8125 
Q 7.71875 -25 7.421875 -25 
z
" id="Cmr10-29"/>
      <path d="M 31 -24.8125 
Q 25.4375 -20.40625 21.40625 -14.71875 
Q 17.390625 -9.03125 14.8125 -2.578125 
Q 12.25 3.859375 10.984375 10.890625 
Q 9.71875 17.921875 9.71875 25 
Q 9.71875 32.171875 10.984375 39.203125 
Q 12.25 46.234375 14.859375 52.734375 
Q 17.484375 59.234375 21.53125 64.890625 
Q 25.59375 70.5625 31 74.8125 
Q 31 75 31.5 75 
L 32.421875 75 
Q 32.71875 75 32.953125 74.734375 
Q 33.203125 74.46875 33.203125 74.125 
Q 33.203125 73.6875 33.015625 73.484375 
Q 28.125 68.703125 24.875 63.234375 
Q 21.625 57.765625 19.640625 51.578125 
Q 17.671875 45.40625 16.796875 38.78125 
Q 15.921875 32.171875 15.921875 25 
Q 15.921875 -6.78125 32.90625 -23.296875 
Q 33.203125 -23.578125 33.203125 -24.125 
Q 33.203125 -24.359375 32.9375 -24.671875 
Q 32.671875 -25 32.421875 -25 
L 31.5 -25 
Q 31 -25 31 -24.8125 
" id="Cmr10-28"/>
      <path d="M 28.515625 0 
L 1.421875 69.390625 
L 11.078125 69.390625 
Q 13.765625 62.5 20.109375 46.0625 
Q 26.46875 29.640625 30.25 19.265625 
Q 34.03125 8.890625 34.078125 7.328125 
Q 34.078125 8.9375 37.84375 19.28125 
Q 41.609375 29.640625 47.953125 46.0625 
Q 54.296875 62.5 56.984375 69.390625 
L 65.1875 69.390625 
L 38.09375 0 
z
" id="Cmss10-56"/>
     </defs>
     <g transform="translate(260.07 350.420625)scale(0.144 -0.144)">
      <use xlink:href="#Cmss10-56"/>
      <use transform="translate(79.83424902343751 0.0)" xlink:href="#Cmr10-28"/>
      <use transform="translate(118.65260839843751 0.0)" xlink:href="#Cmss10-56"/>
      <use transform="translate(185.2541708984375 0.0)" xlink:href="#Cmr10-29"/>
     </g>
    </g>
   </g>
   <g id="matplotlib.axis_2">
    <g id="ytick_1">
     <g id="line2d_25">
      <path clip-path="url(#p15fefcc036)" d="M 45.87 319.006875 
L 506.67 319.006875 
" style="fill:none;stroke:#cbcbcb;"/>
     </g>
     <g id="line2d_26"/>
     <g id="line2d_27"/>
     <g id="text_10">
      <!-- 0 -->
      <g transform="translate(34.235 322.318125)scale(0.12 -0.12)">
       <use xlink:href="#BitstreamVeraSans-Roman-30"/>
      </g>
     </g>
    </g>
    <g id="ytick_2">
     <g id="line2d_28">
      <path clip-path="url(#p15fefcc036)" d="M 45.87 257.806875 
L 506.67 257.806875 
" style="fill:none;stroke:#cbcbcb;"/>
     </g>
     <g id="line2d_29"/>
     <g id="line2d_30"/>
     <g id="text_11">
      <!-- 2 -->
      <g transform="translate(34.235 261.118125)scale(0.12 -0.12)">
       <use xlink:href="#BitstreamVeraSans-Roman-32"/>
      </g>
     </g>
    </g>
    <g id="ytick_3">
     <g id="line2d_31">
      <path clip-path="url(#p15fefcc036)" d="M 45.87 196.606875 
L 506.67 196.606875 
" style="fill:none;stroke:#cbcbcb;"/>
     </g>
     <g id="line2d_32"/>
     <g id="line2d_33"/>
     <g id="text_12">
      <!-- 4 -->
      <defs>
       <path d="M 37.796875 64.3125 
L 12.890625 25.390625 
L 37.796875 25.390625 
z
M 35.203125 72.90625 
L 47.609375 72.90625 
L 47.609375 25.390625 
L 58.015625 25.390625 
L 58.015625 17.1875 
L 47.609375 17.1875 
L 47.609375 0 
L 37.796875 0 
L 37.796875 17.1875 
L 4.890625 17.1875 
L 4.890625 26.703125 
z
" id="BitstreamVeraSans-Roman-34"/>
      </defs>
      <g transform="translate(34.235 199.918125)scale(0.12 -0.12)">
       <use xlink:href="#BitstreamVeraSans-Roman-34"/>
      </g>
     </g>
    </g>
    <g id="ytick_4">
     <g id="line2d_34">
      <path clip-path="url(#p15fefcc036)" d="M 45.87 135.406875 
L 506.67 135.406875 
" style="fill:none;stroke:#cbcbcb;"/>
     </g>
     <g id="line2d_35"/>
     <g id="line2d_36"/>
     <g id="text_13">
      <!-- 6 -->
      <defs>
       <path d="M 33.015625 40.375 
Q 26.375 40.375 22.484375 35.828125 
Q 18.609375 31.296875 18.609375 23.390625 
Q 18.609375 15.53125 22.484375 10.953125 
Q 26.375 6.390625 33.015625 6.390625 
Q 39.65625 6.390625 43.53125 10.953125 
Q 47.40625 15.53125 47.40625 23.390625 
Q 47.40625 31.296875 43.53125 35.828125 
Q 39.65625 40.375 33.015625 40.375 
M 52.59375 71.296875 
L 52.59375 62.3125 
Q 48.875 64.0625 45.09375 64.984375 
Q 41.3125 65.921875 37.59375 65.921875 
Q 27.828125 65.921875 22.671875 59.328125 
Q 17.53125 52.734375 16.796875 39.40625 
Q 19.671875 43.65625 24.015625 45.921875 
Q 28.375 48.1875 33.59375 48.1875 
Q 44.578125 48.1875 50.953125 41.515625 
Q 57.328125 34.859375 57.328125 23.390625 
Q 57.328125 12.15625 50.6875 5.359375 
Q 44.046875 -1.421875 33.015625 -1.421875 
Q 20.359375 -1.421875 13.671875 8.265625 
Q 6.984375 17.96875 6.984375 36.375 
Q 6.984375 53.65625 15.1875 63.9375 
Q 23.390625 74.21875 37.203125 74.21875 
Q 40.921875 74.21875 44.703125 73.484375 
Q 48.484375 72.75 52.59375 71.296875 
" id="BitstreamVeraSans-Roman-36"/>
      </defs>
      <g transform="translate(34.235 138.718125)scale(0.12 -0.12)">
       <use xlink:href="#BitstreamVeraSans-Roman-36"/>
      </g>
     </g>
    </g>
    <g id="ytick_5">
     <g id="line2d_37">
      <path clip-path="url(#p15fefcc036)" d="M 45.87 74.206875 
L 506.67 74.206875 
" style="fill:none;stroke:#cbcbcb;"/>
     </g>
     <g id="line2d_38"/>
     <g id="line2d_39"/>
     <g id="text_14">
      <!-- 8 -->
      <defs>
       <path d="M 31.78125 34.625 
Q 24.75 34.625 20.71875 30.859375 
Q 16.703125 27.09375 16.703125 20.515625 
Q 16.703125 13.921875 20.71875 10.15625 
Q 24.75 6.390625 31.78125 6.390625 
Q 38.8125 6.390625 42.859375 10.171875 
Q 46.921875 13.96875 46.921875 20.515625 
Q 46.921875 27.09375 42.890625 30.859375 
Q 38.875 34.625 31.78125 34.625 
M 21.921875 38.8125 
Q 15.578125 40.375 12.03125 44.71875 
Q 8.5 49.078125 8.5 55.328125 
Q 8.5 64.0625 14.71875 69.140625 
Q 20.953125 74.21875 31.78125 74.21875 
Q 42.671875 74.21875 48.875 69.140625 
Q 55.078125 64.0625 55.078125 55.328125 
Q 55.078125 49.078125 51.53125 44.71875 
Q 48 40.375 41.703125 38.8125 
Q 48.828125 37.15625 52.796875 32.3125 
Q 56.78125 27.484375 56.78125 20.515625 
Q 56.78125 9.90625 50.3125 4.234375 
Q 43.84375 -1.421875 31.78125 -1.421875 
Q 19.734375 -1.421875 13.25 4.234375 
Q 6.78125 9.90625 6.78125 20.515625 
Q 6.78125 27.484375 10.78125 32.3125 
Q 14.796875 37.15625 21.921875 38.8125 
M 18.3125 54.390625 
Q 18.3125 48.734375 21.84375 45.5625 
Q 25.390625 42.390625 31.78125 42.390625 
Q 38.140625 42.390625 41.71875 45.5625 
Q 45.3125 48.734375 45.3125 54.390625 
Q 45.3125 60.0625 41.71875 63.234375 
Q 38.140625 66.40625 31.78125 66.40625 
Q 25.390625 66.40625 21.84375 63.234375 
Q 18.3125 60.0625 18.3125 54.390625 
" id="BitstreamVeraSans-Roman-38"/>
      </defs>
      <g transform="translate(34.235 77.518125)scale(0.12 -0.12)">
       <use xlink:href="#BitstreamVeraSans-Roman-38"/>
      </g>
     </g>
    </g>
    <g id="ytick_6">
     <g id="line2d_40">
      <path clip-path="url(#p15fefcc036)" d="M 45.87 13.006875 
L 506.67 13.006875 
" style="fill:none;stroke:#cbcbcb;"/>
     </g>
     <g id="line2d_41"/>
     <g id="line2d_42"/>
     <g id="text_15">
      <!-- 10 -->
      <g transform="translate(26.6 16.318125)scale(0.12 -0.12)">
       <use xlink:href="#BitstreamVeraSans-Roman-31"/>
       <use x="63.623046875" xlink:href="#BitstreamVeraSans-Roman-30"/>
      </g>
     </g>
    </g>
    <g id="text_16">
     <!-- $\sf I \,(A) $ -->
     <defs>
      <path d="M 2.78125 0 
L 28.71875 69.390625 
L 37.890625 69.390625 
L 63.8125 0 
L 54.203125 0 
Q 50.25 10.6875 46.78125 19.921875 
L 18.015625 19.921875 
Q 13.578125 7.765625 10.59375 0 
z
M 20.21875 25.875 
L 44.578125 25.875 
Q 40.09375 38.28125 37.8125 44.796875 
Q 35.546875 51.3125 34.03125 56.078125 
Q 32.515625 60.84375 32.515625 62.109375 
L 32.421875 62.109375 
Q 32.421875 61.140625 31.421875 57.8125 
Q 30.421875 54.5 28.859375 49.953125 
Q 27.296875 45.40625 24.09375 36.546875 
Q 20.90625 27.6875 20.21875 25.875 
" id="Cmss10-41"/>
      <path d="M 9.1875 0 
L 9.1875 69.390625 
L 18.5 69.390625 
L 18.5 0 
z
" id="Cmss10-49"/>
     </defs>
     <g transform="translate(18.0 179.398875)rotate(-90.0)scale(0.144 -0.144)">
      <use xlink:href="#Cmss10-49"/>
      <use transform="translate(40.9182333984375 0.0)" xlink:href="#Cmr10-28"/>
      <use transform="translate(79.73659277343751 0.0)" xlink:href="#Cmss10-41"/>
      <use transform="translate(146.3381552734375 0.0)" xlink:href="#Cmr10-29"/>
     </g>
    </g>
   </g>
   <g id="line2d_43">
    <path clip-path="url(#p15fefcc036)" d="M 45.87 268.788392 
L 290.715348 270.268102 
L 317.732766 270.652604 
L 334.618652 271.101755 
L 346.438772 271.615688 
L 356.570303 272.277167 
L 365.013246 273.063549 
L 371.767601 273.908786 
L 377.677661 274.856947 
L 382.743427 275.865157 
L 387.809193 277.09563 
L 392.030664 278.324839 
L 396.252136 279.773399 
L 400.473607 281.478114 
L 403.850784 283.054239 
L 407.227962 284.844961 
L 410.605139 286.876102 
L 413.982316 289.176021 
L 417.359493 291.77514 
L 420.73667 294.705911 
L 424.113848 298.002088 
L 427.491025 301.699949 
L 430.868202 305.835957 
L 433.401085 309.24854 
L 435.933968 312.944123 
L 438.466851 316.938722 
L 441.844028 322.755369 
L 445.221205 329.166344 
L 448.598382 336.203272 
L 451.97556 343.894784 
L 455.352737 352.269722 
L 458.729914 361.346854 
L 459.03969 362.220625 
L 459.03969 362.220625 
" style="fill:none;stroke:#fc4f30;stroke-width:4.0;"/>
   </g>
   <g id="line2d_44">
    <path clip-path="url(#p15fefcc036)" d="M 45.87 218.56991 
L 285.649582 220.01996 
L 312.667 220.401655 
L 329.552886 220.846551 
L 342.2173 221.400602 
L 351.504538 222.009405 
L 359.947481 222.78703 
L 366.701835 223.62276 
L 372.611895 224.560218 
L 377.677661 225.557052 
L 382.743427 226.773685 
L 386.964898 227.989144 
L 391.18637 229.421615 
L 395.407841 231.107574 
L 398.785019 232.666537 
L 402.162196 234.437798 
L 405.539373 236.447515 
L 408.91655 238.723343 
L 412.293727 241.295694 
L 415.670905 244.196852 
L 419.048082 247.46046 
L 422.425259 251.122646 
L 425.802436 255.21982 
L 428.335319 258.601142 
L 430.868202 262.263696 
L 433.401085 266.223493 
L 436.778262 271.991141 
L 440.155439 278.349485 
L 443.532617 285.332426 
L 446.909794 292.966994 
L 450.286971 301.28275 
L 453.664148 310.299165 
L 457.041326 320.037883 
L 460.418503 330.50893 
L 463.79568 341.722518 
L 467.172857 353.682639 
L 467.172857 353.682639 
" style="fill:none;stroke:#5cb85c;stroke-width:4.0;"/>
   </g>
   <g id="line2d_45">
    <path clip-path="url(#p15fefcc036)" d="M 45.87 168.351428 
L 280.583816 169.771834 
L 307.601234 170.150756 
L 324.48712 170.591448 
L 337.151534 171.13972 
L 347.283066 171.807974 
L 354.881715 172.510863 
L 361.636069 173.337194 
L 367.546129 174.26407 
L 372.611895 175.249656 
L 377.677661 176.452602 
L 381.899133 177.654458 
L 386.120604 179.07101 
L 390.342076 180.738405 
L 393.719253 182.280379 
L 397.09643 184.032548 
L 400.473607 186.020866 
L 403.850784 188.272823 
L 407.227962 190.81864 
L 410.605139 193.690435 
L 413.982316 196.921732 
L 417.359493 200.54851 
L 420.73667 204.60712 
L 423.269553 207.957388 
L 425.802436 211.587115 
L 428.335319 215.512311 
L 431.712496 221.231212 
L 435.089674 227.537883 
L 438.466851 234.466342 
L 441.844028 242.044151 
L 445.221205 250.300898 
L 448.598382 259.256716 
L 451.97556 268.933251 
L 455.352737 279.341302 
L 458.729914 290.491316 
L 462.107091 302.387667 
L 465.484269 315.025789 
L 467.172857 321.620603 
L 467.172857 321.620603 
" style="fill:none;stroke:#30a2da;stroke-width:4.0;"/>
   </g>
   <g id="line2d_46">
    <path clip-path="url(#p15fefcc036)" d="M 45.87 118.132946 
L 276.362345 119.532295 
L 303.379762 119.916599 
L 320.265648 120.365451 
L 332.085769 120.879006 
L 342.2173 121.539977 
L 350.660243 122.325742 
L 357.414598 123.170309 
L 363.324658 124.117716 
L 368.390424 125.125124 
L 373.45619 126.354622 
L 377.677661 127.582862 
L 381.899133 129.030288 
L 386.120604 130.733683 
L 389.497781 132.308599 
L 392.874958 134.097962 
L 396.252136 136.127582 
L 399.629313 138.425805 
L 403.00649 141.023041 
L 406.383667 143.951728 
L 409.760845 147.245613 
L 413.138022 150.940964 
L 416.515199 155.074241 
L 419.048082 158.484626 
L 421.580965 162.177887 
L 424.113848 166.17004 
L 427.491025 171.983244 
L 430.868202 178.390567 
L 434.245379 185.423657 
L 437.622557 193.111172 
L 440.999734 201.481955 
L 444.376911 210.554826 
L 447.754088 220.351471 
L 451.131265 230.881155 
L 454.508443 242.153889 
L 457.88562 254.171585 
L 461.262797 266.932562 
L 465.484269 283.892119 
L 467.172857 290.953378 
L 467.172857 290.953378 
" style="fill:none;stroke:#e5ae38;stroke-width:4.0;"/>
   </g>
   <g id="line2d_47">
    <path clip-path="url(#p15fefcc036)" d="M 45.87 67.914464 
L 271.296579 69.284154 
L 298.313997 69.665654 
L 315.199883 70.110254 
L 327.864297 70.663897 
L 337.151534 71.272233 
L 345.594478 72.049248 
L 352.348832 72.884315 
L 358.258892 73.821027 
L 363.324658 74.817069 
L 368.390424 76.032738 
L 372.611895 77.247238 
L 376.833367 78.678587 
L 381.054838 80.363239 
L 384.432015 81.921005 
L 387.809193 83.690922 
L 391.18637 85.699132 
L 394.563547 87.973279 
L 397.940724 90.543762 
L 401.317902 93.442855 
L 404.695079 96.704189 
L 408.072256 100.363884 
L 411.449433 104.458345 
L 413.982316 107.837484 
L 416.515199 111.49773 
L 419.048082 115.455095 
L 422.425259 121.219318 
L 425.802436 127.574032 
L 429.179614 134.553146 
L 432.556791 142.183728 
L 435.933968 150.495343 
L 439.311145 159.507505 
L 442.688322 169.24186 
L 446.0655 179.70849 
L 449.442677 190.91762 
L 452.819854 202.87327 
L 456.197031 215.569823 
L 460.418503 232.456001 
L 467.172857 260.851698 
L 467.172857 260.851698 
" style="fill:none;stroke:#8b8b8b;stroke-width:4.0;"/>
   </g>
   <g id="patch_3">
    <path d="M 506.67 319.006875 
L 506.67 13.006875 
" style="fill:none;stroke:#ffffff;stroke-linecap:square;stroke-linejoin:miter;stroke-width:3.0;"/>
   </g>
   <g id="patch_4">
    <path d="M 45.87 319.006875 
L 506.67 319.006875 
" style="fill:none;stroke:#ffffff;stroke-linecap:square;stroke-linejoin:miter;stroke-width:3.0;"/>
   </g>
   <g id="patch_5">
    <path d="M 45.87 13.006875 
L 506.67 13.006875 
" style="fill:none;stroke:#ffffff;stroke-linecap:square;stroke-linejoin:miter;stroke-width:3.0;"/>
   </g>
   <g id="patch_6">
    <path d="M 45.87 319.006875 
L 45.87 13.006875 
" style="fill:none;stroke:#ffffff;stroke-linecap:square;stroke-linejoin:miter;stroke-width:3.0;"/>
   </g>
   <g id="text_17">
    <!-- $\sf 200\, W/m^2$ -->
    <defs>
     <path d="M 4.984375 0 
L 4.984375 2.6875 
Q 4.984375 2.9375 5.171875 3.21875 
L 20.703125 20.40625 
Q 24.21875 24.21875 26.40625 26.796875 
Q 28.609375 29.390625 30.75 32.765625 
Q 32.90625 36.140625 34.15625 39.625 
Q 35.40625 43.109375 35.40625 47.015625 
Q 35.40625 51.125 33.890625 54.859375 
Q 32.375 58.59375 29.375 60.84375 
Q 26.375 63.09375 22.125 63.09375 
Q 17.78125 63.09375 14.3125 60.46875 
Q 10.84375 57.859375 9.421875 53.71875 
Q 9.8125 53.8125 10.5 53.8125 
Q 12.75 53.8125 14.328125 52.296875 
Q 15.921875 50.78125 15.921875 48.390625 
Q 15.921875 46.09375 14.328125 44.5 
Q 12.75 42.921875 10.5 42.921875 
Q 8.15625 42.921875 6.5625 44.546875 
Q 4.984375 46.1875 4.984375 48.390625 
Q 4.984375 52.15625 6.390625 55.4375 
Q 7.8125 58.734375 10.46875 61.296875 
Q 13.140625 63.875 16.484375 65.234375 
Q 19.828125 66.609375 23.578125 66.609375 
Q 29.296875 66.609375 34.21875 64.1875 
Q 39.15625 61.765625 42.03125 57.34375 
Q 44.921875 52.9375 44.921875 47.015625 
Q 44.921875 42.671875 43.015625 38.765625 
Q 41.109375 34.859375 38.125 31.65625 
Q 35.15625 28.46875 30.515625 24.40625 
Q 25.875 20.359375 24.421875 19 
L 13.09375 8.109375 
L 22.703125 8.109375 
Q 29.78125 8.109375 34.546875 8.21875 
Q 39.3125 8.34375 39.59375 8.59375 
Q 40.765625 9.859375 42 17.828125 
L 44.921875 17.828125 
L 42.09375 0 
z
" id="Cmr10-32"/>
     <path d="M 21.578125 0 
L 1.421875 69.390625 
L 10.40625 69.390625 
Q 14.5 55.328125 16.53125 48.296875 
Q 18.5625 41.265625 20.90625 32.8125 
Q 23.25 24.359375 25.03125 16.90625 
Q 26.8125 9.46875 26.8125 7.328125 
Q 26.90625 9.578125 28.53125 16.234375 
Q 30.171875 22.90625 33.09375 33.46875 
Q 36.03125 44.046875 38.453125 52.46875 
Q 40.875 60.890625 43.3125 69.390625 
L 51.8125 69.390625 
Q 55.28125 57.46875 57.734375 48.921875 
Q 60.203125 40.375 62.625 31.6875 
Q 65.046875 23 66.765625 15.984375 
Q 68.5 8.984375 68.5 7.328125 
Q 68.5625 9.03125 70.28125 16.015625 
Q 72.015625 23 74.4375 31.6875 
Q 76.859375 40.375 79.171875 48.40625 
Q 81.5 56.453125 85.296875 69.390625 
L 92.921875 69.390625 
L 72.703125 0 
L 63.625 0 
Q 60.0625 12.203125 56.125 25.953125 
Q 52.203125 39.703125 49.5625 49.75 
Q 46.921875 59.8125 46.921875 62.109375 
Q 46.875 59.96875 44.046875 49.21875 
Q 41.21875 38.484375 37.421875 25.34375 
Q 33.640625 12.203125 30.078125 0 
z
" id="Cmss10-57"/>
     <path d="M 5.609375 -23 
Q 5.609375 -22.703125 5.71875 -22.609375 
L 40.484375 73.78125 
Q 40.671875 74.359375 41.15625 74.671875 
Q 41.65625 75 42.28125 75 
Q 43.171875 75 43.71875 74.453125 
Q 44.28125 73.921875 44.28125 73 
L 44.28125 72.609375 
L 9.515625 -23.78125 
Q 8.9375 -25 7.625 -25 
Q 6.78125 -25 6.1875 -24.40625 
Q 5.609375 -23.828125 5.609375 -23 
" id="Cmmi10-3d"/>
     <path d="M 25 -2.203125 
Q 12.75 -2.203125 8.328125 7.875 
Q 3.90625 17.96875 3.90625 31.890625 
Q 3.90625 40.578125 5.484375 48.234375 
Q 7.078125 55.90625 11.78125 61.25 
Q 16.5 66.609375 25 66.609375 
Q 31.59375 66.609375 35.78125 63.375 
Q 39.984375 60.15625 42.1875 55.046875 
Q 44.390625 49.953125 45.1875 44.109375 
Q 46 38.28125 46 31.890625 
Q 46 23.296875 44.40625 15.796875 
Q 42.828125 8.296875 38.1875 3.046875 
Q 33.546875 -2.203125 25 -2.203125 
M 25 0.390625 
Q 30.5625 0.390625 33.296875 6.09375 
Q 36.03125 11.8125 36.671875 18.75 
Q 37.3125 25.6875 37.3125 33.5 
Q 37.3125 41.015625 36.671875 47.359375 
Q 36.03125 53.71875 33.3125 58.859375 
Q 30.609375 64.015625 25 64.015625 
Q 19.34375 64.015625 16.609375 58.828125 
Q 13.875 53.65625 13.234375 47.328125 
Q 12.59375 41.015625 12.59375 33.5 
Q 12.59375 27.9375 12.859375 23 
Q 13.140625 18.0625 14.3125 12.8125 
Q 15.484375 7.5625 18.09375 3.96875 
Q 20.703125 0.390625 25 0.390625 
" id="Cmr10-30"/>
     <path d="M 7.90625 0 
L 7.90625 45.015625 
L 15.484375 45.015625 
L 15.484375 38.1875 
Q 18.171875 41.65625 21.921875 43.578125 
Q 25.6875 45.515625 29.984375 45.515625 
Q 40.046875 45.515625 42.671875 37.5 
Q 45.359375 41.21875 49.34375 43.359375 
Q 53.328125 45.515625 57.71875 45.515625 
Q 65.1875 45.515625 68.328125 41.3125 
Q 71.484375 37.109375 71.484375 29.390625 
L 71.484375 0 
L 63.28125 0 
L 63.28125 29.390625 
Q 63.28125 39.015625 53.421875 39.015625 
Q 50.09375 39.015625 47.890625 36.796875 
Q 45.703125 34.578125 44.75 31.328125 
Q 43.796875 28.078125 43.796875 24.8125 
L 43.796875 0 
L 35.59375 0 
L 35.59375 29.390625 
Q 35.59375 34.421875 33.125 36.71875 
Q 30.671875 39.015625 25.6875 39.015625 
Q 22.3125 39.015625 20.15625 36.796875 
Q 18.015625 34.578125 17.0625 31.328125 
Q 16.109375 28.078125 16.109375 24.8125 
L 16.109375 0 
z
" id="Cmss10-6d"/>
    </defs>
    <g transform="translate(72.2014285714 262.668392453)scale(0.15 -0.15)">
     <use transform="translate(0.0 0.5484375000000057)" xlink:href="#Cmr10-32"/>
     <use transform="translate(50.0 0.5484375000000057)" xlink:href="#Cmr10-30"/>
     <use transform="translate(100.0 0.5484375000000057)" xlink:href="#Cmr10-30"/>
     <use transform="translate(163.2326865234375 0.5484375000000057)" xlink:href="#Cmss10-57"/>
     <use transform="translate(257.6174521484375 0.5484375000000057)" xlink:href="#Cmmi10-3d"/>
     <use transform="translate(307.6174521484375 0.5484375000000057)" xlink:href="#Cmss10-6d"/>
     <use transform="translate(391.6582333984375 40.37343750000001)scale(0.7)" xlink:href="#Cmr10-32"/>
    </g>
   </g>
   <g id="text_18">
    <!-- $\sf 400\, W/m^2$ -->
    <defs>
     <path d="M 2.78125 16.5 
L 2.78125 20.015625 
L 33.6875 66.109375 
Q 34.03125 66.609375 34.71875 66.609375 
L 36.1875 66.609375 
Q 37.3125 66.609375 37.3125 65.484375 
L 37.3125 20.015625 
L 47.125 20.015625 
L 47.125 16.5 
L 37.3125 16.5 
L 37.3125 6.6875 
Q 37.3125 4.640625 40.234375 4.078125 
Q 43.171875 3.515625 47.015625 3.515625 
L 47.015625 0 
L 19.484375 0 
L 19.484375 3.515625 
Q 23.34375 3.515625 26.265625 4.078125 
Q 29.203125 4.640625 29.203125 6.6875 
L 29.203125 16.5 
z
M 6.109375 20.015625 
L 29.78125 20.015625 
L 29.78125 55.421875 
z
" id="Cmr10-34"/>
    </defs>
    <g transform="translate(72.2014285714 212.449910058)scale(0.15 -0.15)">
     <use transform="translate(0.0 0.5484375000000057)" xlink:href="#Cmr10-34"/>
     <use transform="translate(50.0 0.5484375000000057)" xlink:href="#Cmr10-30"/>
     <use transform="translate(100.0 0.5484375000000057)" xlink:href="#Cmr10-30"/>
     <use transform="translate(163.2326865234375 0.5484375000000057)" xlink:href="#Cmss10-57"/>
     <use transform="translate(257.6174521484375 0.5484375000000057)" xlink:href="#Cmmi10-3d"/>
     <use transform="translate(307.6174521484375 0.5484375000000057)" xlink:href="#Cmss10-6d"/>
     <use transform="translate(391.6582333984375 40.37343750000001)scale(0.7)" xlink:href="#Cmr10-32"/>
    </g>
   </g>
   <g id="text_19">
    <!-- $\sf 600\, W/m^2$ -->
    <defs>
     <path d="M 25 -2.203125 
Q 18.796875 -2.203125 14.640625 1.09375 
Q 10.5 4.390625 8.21875 9.640625 
Q 5.953125 14.890625 5.078125 20.65625 
Q 4.203125 26.421875 4.203125 32.328125 
Q 4.203125 40.234375 7.28125 48.1875 
Q 10.359375 56.15625 16.328125 61.375 
Q 22.3125 66.609375 30.515625 66.609375 
Q 33.9375 66.609375 36.890625 65.3125 
Q 39.84375 64.015625 41.53125 61.5 
Q 43.21875 58.984375 43.21875 55.421875 
Q 43.21875 53.375 41.828125 51.984375 
Q 40.4375 50.59375 38.375 50.59375 
Q 36.421875 50.59375 35 52 
Q 33.59375 53.421875 33.59375 55.421875 
Q 33.59375 57.375 35 58.78125 
Q 36.421875 60.203125 38.375 60.203125 
L 38.921875 60.203125 
Q 37.640625 62.015625 35.328125 62.859375 
Q 33.015625 63.71875 30.515625 63.71875 
Q 27.484375 63.71875 24.921875 62.390625 
Q 22.359375 61.078125 20.3125 58.828125 
Q 18.265625 56.59375 16.890625 53.875 
Q 15.53125 51.171875 14.765625 47.703125 
Q 14.015625 44.234375 13.8125 41.203125 
Q 13.625 38.1875 13.625 33.59375 
Q 15.375 37.703125 18.59375 40.3125 
Q 21.828125 42.921875 25.875 42.921875 
Q 30.328125 42.921875 33.984375 41.109375 
Q 37.640625 39.3125 40.28125 36.109375 
Q 42.921875 32.90625 44.3125 28.796875 
Q 45.703125 24.703125 45.703125 20.515625 
Q 45.703125 14.65625 43.09375 9.34375 
Q 40.484375 4.046875 35.734375 0.921875 
Q 31 -2.203125 25 -2.203125 
M 25 0.984375 
Q 28.859375 0.984375 31.203125 2.734375 
Q 33.546875 4.5 34.640625 7.390625 
Q 35.75 10.296875 36.015625 13.25 
Q 36.28125 16.21875 36.28125 20.515625 
Q 36.28125 26.171875 35.734375 30.171875 
Q 35.203125 34.1875 32.8125 37.234375 
Q 30.421875 40.28125 25.484375 40.28125 
Q 21.4375 40.28125 18.828125 37.546875 
Q 16.21875 34.8125 15.015625 30.640625 
Q 13.8125 26.46875 13.8125 22.609375 
Q 13.8125 21.296875 13.921875 20.609375 
Q 13.921875 20.453125 13.890625 20.359375 
Q 13.875 20.265625 13.8125 20.125 
Q 13.8125 15.828125 14.6875 11.421875 
Q 15.578125 7.03125 18.0625 4 
Q 20.5625 0.984375 25 0.984375 
" id="Cmr10-36"/>
    </defs>
    <g transform="translate(72.2014285714 162.231427847)scale(0.15 -0.15)">
     <use transform="translate(0.0 0.5484375000000057)" xlink:href="#Cmr10-36"/>
     <use transform="translate(50.0 0.5484375000000057)" xlink:href="#Cmr10-30"/>
     <use transform="translate(100.0 0.5484375000000057)" xlink:href="#Cmr10-30"/>
     <use transform="translate(163.2326865234375 0.5484375000000057)" xlink:href="#Cmss10-57"/>
     <use transform="translate(257.6174521484375 0.5484375000000057)" xlink:href="#Cmmi10-3d"/>
     <use transform="translate(307.6174521484375 0.5484375000000057)" xlink:href="#Cmss10-6d"/>
     <use transform="translate(391.6582333984375 40.37343750000001)scale(0.7)" xlink:href="#Cmr10-32"/>
    </g>
   </g>
   <g id="text_20">
    <!-- $\sf 800\, W/m^2$ -->
    <defs>
     <path d="M 4.203125 15.1875 
Q 4.203125 21.1875 8.15625 25.796875 
Q 12.109375 30.421875 18.3125 33.5 
L 14.59375 35.890625 
Q 11.1875 38.140625 9.03125 41.875 
Q 6.890625 45.609375 6.890625 49.703125 
Q 6.890625 54.5 9.40625 58.34375 
Q 11.921875 62.203125 16.09375 64.40625 
Q 20.265625 66.609375 25 66.609375 
Q 29.4375 66.609375 33.5625 64.796875 
Q 37.703125 62.984375 40.359375 59.609375 
Q 43.015625 56.25 43.015625 51.609375 
Q 43.015625 48.25 41.421875 45.359375 
Q 39.84375 42.484375 37.078125 40.1875 
Q 34.328125 37.890625 31.203125 36.28125 
L 36.921875 32.625 
Q 40.875 30.03125 43.28125 25.828125 
Q 45.703125 21.625 45.703125 17 
Q 45.703125 11.578125 42.796875 7.125 
Q 39.890625 2.6875 35.109375 0.234375 
Q 30.328125 -2.203125 25 -2.203125 
Q 19.828125 -2.203125 15.015625 -0.09375 
Q 10.203125 2 7.203125 5.984375 
Q 4.203125 9.96875 4.203125 15.1875 
M 9.625 15.1875 
Q 9.625 11.234375 11.796875 7.953125 
Q 13.96875 4.6875 17.53125 2.828125 
Q 21.09375 0.984375 25 0.984375 
Q 30.8125 0.984375 35.546875 4.375 
Q 40.28125 7.765625 40.28125 13.375 
Q 40.28125 15.28125 39.515625 17.15625 
Q 38.765625 19.046875 37.421875 20.578125 
Q 36.078125 22.125 34.421875 23.09375 
L 21 31.78125 
Q 17.875 30.125 15.25 27.578125 
Q 12.640625 25.046875 11.125 21.875 
Q 9.625 18.703125 9.625 15.1875 
M 16.5 45.703125 
L 28.609375 37.890625 
Q 32.8125 40.328125 35.5 43.796875 
Q 38.1875 47.265625 38.1875 51.609375 
Q 38.1875 54.984375 36.296875 57.78125 
Q 34.421875 60.59375 31.390625 62.15625 
Q 28.375 63.71875 24.90625 63.71875 
Q 21.875 63.71875 18.796875 62.546875 
Q 15.71875 61.375 13.71875 59.046875 
Q 11.71875 56.734375 11.71875 53.609375 
Q 11.71875 48.921875 16.5 45.703125 
" id="Cmr10-38"/>
    </defs>
    <g transform="translate(72.2014285714 112.012945862)scale(0.15 -0.15)">
     <use transform="translate(0.0 0.5484375000000057)" xlink:href="#Cmr10-38"/>
     <use transform="translate(50.0 0.5484375000000057)" xlink:href="#Cmr10-30"/>
     <use transform="translate(100.0 0.5484375000000057)" xlink:href="#Cmr10-30"/>
     <use transform="translate(163.2326865234375 0.5484375000000057)" xlink:href="#Cmss10-57"/>
     <use transform="translate(257.6174521484375 0.5484375000000057)" xlink:href="#Cmmi10-3d"/>
     <use transform="translate(307.6174521484375 0.5484375000000057)" xlink:href="#Cmss10-6d"/>
     <use transform="translate(391.6582333984375 40.37343750000001)scale(0.7)" xlink:href="#Cmr10-32"/>
    </g>
   </g>
   <g id="text_21">
    <!-- $\sf 1000\, W/m^2$ -->
    <defs>
     <path d="M 9.28125 0 
L 9.28125 3.515625 
Q 21.78125 3.515625 21.78125 6.6875 
L 21.78125 59.1875 
Q 16.609375 56.6875 8.6875 56.6875 
L 8.6875 60.203125 
Q 20.953125 60.203125 27.203125 66.609375 
L 28.609375 66.609375 
Q 28.953125 66.609375 29.265625 66.328125 
Q 29.59375 66.0625 29.59375 65.71875 
L 29.59375 6.6875 
Q 29.59375 3.515625 42.09375 3.515625 
L 42.09375 0 
z
" id="Cmr10-31"/>
    </defs>
    <g transform="translate(72.2014285714 61.7944641528)scale(0.15 -0.15)">
     <use transform="translate(0.0 0.5484375000000057)" xlink:href="#Cmr10-31"/>
     <use transform="translate(50.0 0.5484375000000057)" xlink:href="#Cmr10-30"/>
     <use transform="translate(100.0 0.5484375000000057)" xlink:href="#Cmr10-30"/>
     <use transform="translate(150.0 0.5484375000000057)" xlink:href="#Cmr10-30"/>
     <use transform="translate(213.2326865234375 0.5484375000000057)" xlink:href="#Cmss10-57"/>
     <use transform="translate(307.6174521484375 0.5484375000000057)" xlink:href="#Cmmi10-3d"/>
     <use transform="translate(357.6174521484375 0.5484375000000057)" xlink:href="#Cmss10-6d"/>
     <use transform="translate(441.6582333984375 40.37343750000001)scale(0.7)" xlink:href="#Cmr10-32"/>
    </g>
   </g>
  </g>
 </g>
 <defs>
  <clipPath id="p15fefcc036">
   <rect height="306.0" width="460.8" x="45.87" y="13.006875"/>
  </clipPath>
 </defs>
</svg>
