<?xml version="1.0" encoding="utf-8" standalone="no"?>
<!DOCTYPE svg PUBLIC "-//W3C//DTD SVG 1.1//EN"
  "http://www.w3.org/Graphics/SVG/1.1/DTD/svg11.dtd">
<!-- Created with matplotlib (http://matplotlib.org/) -->
<svg height="364pt" version="1.1" viewBox="0 0 524 364" width="524pt" xmlns="http://www.w3.org/2000/svg" xmlns:xlink="http://www.w3.org/1999/xlink">
 <defs>
  <style type="text/css">
*{stroke-linecap:butt;stroke-linejoin:round;stroke-miterlimit:100000;}
  </style>
 </defs>
 <g id="figure_1">
  <g id="patch_1">
   <path d="M 0 364.100625 
L 524.385 364.100625 
L 524.385 0 
L 0 0 
z
" style="fill:none;opacity:0;"/>
  </g>
  <g id="axes_1">
   <g id="patch_2">
    <path d="M 48.75 319.006875 
L 509.55 319.006875 
L 509.55 13.006875 
L 48.75 13.006875 
z
" style="fill:#ffffff;"/>
   </g>
   <g id="matplotlib.axis_1">
    <g id="xtick_1">
     <g id="line2d_1">
      <path clip-path="url(#p256a6d8a91)" d="M 48.75 319.006875 
L 48.75 13.006875 
" style="fill:none;stroke:#cbcbcb;"/>
     </g>
     <g id="line2d_2"/>
     <g id="line2d_3"/>
     <g id="text_1">
      <!-- 0 -->
      <defs>
       <path d="M 31.78125 66.40625 
Q 24.171875 66.40625 20.328125 58.90625 
Q 16.5 51.421875 16.5 36.375 
Q 16.5 21.390625 20.328125 13.890625 
Q 24.171875 6.390625 31.78125 6.390625 
Q 39.453125 6.390625 43.28125 13.890625 
Q 47.125 21.390625 47.125 36.375 
Q 47.125 51.421875 43.28125 58.90625 
Q 39.453125 66.40625 31.78125 66.40625 
M 31.78125 74.21875 
Q 44.046875 74.21875 50.515625 64.515625 
Q 56.984375 54.828125 56.984375 36.375 
Q 56.984375 17.96875 50.515625 8.265625 
Q 44.046875 -1.421875 31.78125 -1.421875 
Q 19.53125 -1.421875 13.0625 8.265625 
Q 6.59375 17.96875 6.59375 36.375 
Q 6.59375 54.828125 13.0625 64.515625 
Q 19.53125 74.21875 31.78125 74.21875 
" id="BitstreamVeraSans-Roman-30"/>
      </defs>
      <g transform="translate(44.9325 332.125)scale(0.12 -0.12)">
       <use xlink:href="#BitstreamVeraSans-Roman-30"/>
      </g>
     </g>
    </g>
    <g id="xtick_2">
     <g id="line2d_4">
      <path clip-path="url(#p256a6d8a91)" d="M 114.578571 319.006875 
L 114.578571 13.006875 
" style="fill:none;stroke:#cbcbcb;"/>
     </g>
     <g id="line2d_5"/>
     <g id="line2d_6"/>
     <g id="text_2">
      <!-- 5 -->
      <defs>
       <path d="M 10.796875 72.90625 
L 49.515625 72.90625 
L 49.515625 64.59375 
L 19.828125 64.59375 
L 19.828125 46.734375 
Q 21.96875 47.46875 24.109375 47.828125 
Q 26.265625 48.1875 28.421875 48.1875 
Q 40.625 48.1875 47.75 41.5 
Q 54.890625 34.8125 54.890625 23.390625 
Q 54.890625 11.625 47.5625 5.09375 
Q 40.234375 -1.421875 26.90625 -1.421875 
Q 22.3125 -1.421875 17.546875 -0.640625 
Q 12.796875 0.140625 7.71875 1.703125 
L 7.71875 11.625 
Q 12.109375 9.234375 16.796875 8.0625 
Q 21.484375 6.890625 26.703125 6.890625 
Q 35.15625 6.890625 40.078125 11.328125 
Q 45.015625 15.765625 45.015625 23.390625 
Q 45.015625 31 40.078125 35.4375 
Q 35.15625 39.890625 26.703125 39.890625 
Q 22.75 39.890625 18.8125 39.015625 
Q 14.890625 38.140625 10.796875 36.28125 
z
" id="BitstreamVeraSans-Roman-35"/>
      </defs>
      <g transform="translate(110.761071429 332.125)scale(0.12 -0.12)">
       <use xlink:href="#BitstreamVeraSans-Roman-35"/>
      </g>
     </g>
    </g>
    <g id="xtick_3">
     <g id="line2d_7">
      <path clip-path="url(#p256a6d8a91)" d="M 180.407143 319.006875 
L 180.407143 13.006875 
" style="fill:none;stroke:#cbcbcb;"/>
     </g>
     <g id="line2d_8"/>
     <g id="line2d_9"/>
     <g id="text_3">
      <!-- 10 -->
      <defs>
       <path d="M 12.40625 8.296875 
L 28.515625 8.296875 
L 28.515625 63.921875 
L 10.984375 60.40625 
L 10.984375 69.390625 
L 28.421875 72.90625 
L 38.28125 72.90625 
L 38.28125 8.296875 
L 54.390625 8.296875 
L 54.390625 0 
L 12.40625 0 
z
" id="BitstreamVeraSans-Roman-31"/>
      </defs>
      <g transform="translate(172.772142857 332.125)scale(0.12 -0.12)">
       <use xlink:href="#BitstreamVeraSans-Roman-31"/>
       <use x="63.623046875" xlink:href="#BitstreamVeraSans-Roman-30"/>
      </g>
     </g>
    </g>
    <g id="xtick_4">
     <g id="line2d_10">
      <path clip-path="url(#p256a6d8a91)" d="M 246.235714 319.006875 
L 246.235714 13.006875 
" style="fill:none;stroke:#cbcbcb;"/>
     </g>
     <g id="line2d_11"/>
     <g id="line2d_12"/>
     <g id="text_4">
      <!-- 15 -->
      <g transform="translate(238.600714286 332.125)scale(0.12 -0.12)">
       <use xlink:href="#BitstreamVeraSans-Roman-31"/>
       <use x="63.623046875" xlink:href="#BitstreamVeraSans-Roman-35"/>
      </g>
     </g>
    </g>
    <g id="xtick_5">
     <g id="line2d_13">
      <path clip-path="url(#p256a6d8a91)" d="M 312.064286 319.006875 
L 312.064286 13.006875 
" style="fill:none;stroke:#cbcbcb;"/>
     </g>
     <g id="line2d_14"/>
     <g id="line2d_15"/>
     <g id="text_5">
      <!-- 20 -->
      <defs>
       <path d="M 19.1875 8.296875 
L 53.609375 8.296875 
L 53.609375 0 
L 7.328125 0 
L 7.328125 8.296875 
Q 12.9375 14.109375 22.625 23.890625 
Q 32.328125 33.6875 34.8125 36.53125 
Q 39.546875 41.84375 41.421875 45.53125 
Q 43.3125 49.21875 43.3125 52.78125 
Q 43.3125 58.59375 39.234375 62.25 
Q 35.15625 65.921875 28.609375 65.921875 
Q 23.96875 65.921875 18.8125 64.3125 
Q 13.671875 62.703125 7.8125 59.421875 
L 7.8125 69.390625 
Q 13.765625 71.78125 18.9375 73 
Q 24.125 74.21875 28.421875 74.21875 
Q 39.75 74.21875 46.484375 68.546875 
Q 53.21875 62.890625 53.21875 53.421875 
Q 53.21875 48.921875 51.53125 44.890625 
Q 49.859375 40.875 45.40625 35.40625 
Q 44.1875 33.984375 37.640625 27.21875 
Q 31.109375 20.453125 19.1875 8.296875 
" id="BitstreamVeraSans-Roman-32"/>
      </defs>
      <g transform="translate(304.429285714 332.125)scale(0.12 -0.12)">
       <use xlink:href="#BitstreamVeraSans-Roman-32"/>
       <use x="63.623046875" xlink:href="#BitstreamVeraSans-Roman-30"/>
      </g>
     </g>
    </g>
    <g id="xtick_6">
     <g id="line2d_16">
      <path clip-path="url(#p256a6d8a91)" d="M 377.892857 319.006875 
L 377.892857 13.006875 
" style="fill:none;stroke:#cbcbcb;"/>
     </g>
     <g id="line2d_17"/>
     <g id="line2d_18"/>
     <g id="text_6">
      <!-- 25 -->
      <g transform="translate(370.257857143 332.125)scale(0.12 -0.12)">
       <use xlink:href="#BitstreamVeraSans-Roman-32"/>
       <use x="63.623046875" xlink:href="#BitstreamVeraSans-Roman-35"/>
      </g>
     </g>
    </g>
    <g id="xtick_7">
     <g id="line2d_19">
      <path clip-path="url(#p256a6d8a91)" d="M 443.721429 319.006875 
L 443.721429 13.006875 
" style="fill:none;stroke:#cbcbcb;"/>
     </g>
     <g id="line2d_20"/>
     <g id="line2d_21"/>
     <g id="text_7">
      <!-- 30 -->
      <defs>
       <path d="M 40.578125 39.3125 
Q 47.65625 37.796875 51.625 33 
Q 55.609375 28.21875 55.609375 21.1875 
Q 55.609375 10.40625 48.1875 4.484375 
Q 40.765625 -1.421875 27.09375 -1.421875 
Q 22.515625 -1.421875 17.65625 -0.515625 
Q 12.796875 0.390625 7.625 2.203125 
L 7.625 11.71875 
Q 11.71875 9.328125 16.59375 8.109375 
Q 21.484375 6.890625 26.8125 6.890625 
Q 36.078125 6.890625 40.9375 10.546875 
Q 45.796875 14.203125 45.796875 21.1875 
Q 45.796875 27.640625 41.28125 31.265625 
Q 36.765625 34.90625 28.71875 34.90625 
L 20.21875 34.90625 
L 20.21875 43.015625 
L 29.109375 43.015625 
Q 36.375 43.015625 40.234375 45.921875 
Q 44.09375 48.828125 44.09375 54.296875 
Q 44.09375 59.90625 40.109375 62.90625 
Q 36.140625 65.921875 28.71875 65.921875 
Q 24.65625 65.921875 20.015625 65.03125 
Q 15.375 64.15625 9.8125 62.3125 
L 9.8125 71.09375 
Q 15.4375 72.65625 20.34375 73.4375 
Q 25.25 74.21875 29.59375 74.21875 
Q 40.828125 74.21875 47.359375 69.109375 
Q 53.90625 64.015625 53.90625 55.328125 
Q 53.90625 49.265625 50.4375 45.09375 
Q 46.96875 40.921875 40.578125 39.3125 
" id="BitstreamVeraSans-Roman-33"/>
      </defs>
      <g transform="translate(436.086428571 332.125)scale(0.12 -0.12)">
       <use xlink:href="#BitstreamVeraSans-Roman-33"/>
       <use x="63.623046875" xlink:href="#BitstreamVeraSans-Roman-30"/>
      </g>
     </g>
    </g>
    <g id="xtick_8">
     <g id="line2d_22">
      <path clip-path="url(#p256a6d8a91)" d="M 509.55 319.006875 
L 509.55 13.006875 
" style="fill:none;stroke:#cbcbcb;"/>
     </g>
     <g id="line2d_23"/>
     <g id="line2d_24"/>
     <g id="text_8">
      <!-- 35 -->
      <g transform="translate(501.915 332.125)scale(0.12 -0.12)">
       <use xlink:href="#BitstreamVeraSans-Roman-33"/>
       <use x="63.623046875" xlink:href="#BitstreamVeraSans-Roman-35"/>
      </g>
     </g>
    </g>
    <g id="text_9">
     <!-- $\sf V (V)$ -->
     <defs>
      <path d="M 28.515625 0 
L 1.421875 69.390625 
L 11.078125 69.390625 
Q 13.765625 62.5 20.109375 46.0625 
Q 26.46875 29.640625 30.25 19.265625 
Q 34.03125 8.890625 34.078125 7.328125 
Q 34.078125 8.9375 37.84375 19.28125 
Q 41.609375 29.640625 47.953125 46.0625 
Q 54.296875 62.5 56.984375 69.390625 
L 65.1875 69.390625 
L 38.09375 0 
z
" id="Cmss10-56"/>
      <path d="M 6.5 -25 
Q 5.609375 -25 5.609375 -24.125 
Q 5.609375 -23.6875 5.8125 -23.484375 
Q 22.90625 -6.78125 22.90625 25 
Q 22.90625 56.78125 6 73.296875 
Q 5.609375 73.53125 5.609375 74.125 
Q 5.609375 74.46875 5.875 74.734375 
Q 6.15625 75 6.5 75 
L 7.421875 75 
Q 7.71875 75 7.90625 74.8125 
Q 15.09375 69.140625 19.875 61.03125 
Q 24.65625 52.9375 26.875 43.75 
Q 29.109375 34.578125 29.109375 25 
Q 29.109375 17.921875 27.90625 11.0625 
Q 26.703125 4.203125 24.09375 -2.453125 
Q 21.484375 -9.125 17.484375 -14.765625 
Q 13.484375 -20.40625 7.90625 -24.8125 
Q 7.71875 -25 7.421875 -25 
z
" id="Cmr10-29"/>
      <path d="M 31 -24.8125 
Q 25.4375 -20.40625 21.40625 -14.71875 
Q 17.390625 -9.03125 14.8125 -2.578125 
Q 12.25 3.859375 10.984375 10.890625 
Q 9.71875 17.921875 9.71875 25 
Q 9.71875 32.171875 10.984375 39.203125 
Q 12.25 46.234375 14.859375 52.734375 
Q 17.484375 59.234375 21.53125 64.890625 
Q 25.59375 70.5625 31 74.8125 
Q 31 75 31.5 75 
L 32.421875 75 
Q 32.71875 75 32.953125 74.734375 
Q 33.203125 74.46875 33.203125 74.125 
Q 33.203125 73.6875 33.015625 73.484375 
Q 28.125 68.703125 24.875 63.234375 
Q 21.625 57.765625 19.640625 51.578125 
Q 17.671875 45.40625 16.796875 38.78125 
Q 15.921875 32.171875 15.921875 25 
Q 15.921875 -6.78125 32.90625 -23.296875 
Q 33.203125 -23.578125 33.203125 -24.125 
Q 33.203125 -24.359375 32.9375 -24.671875 
Q 32.671875 -25 32.421875 -25 
L 31.5 -25 
Q 31 -25 31 -24.8125 
" id="Cmr10-28"/>
     </defs>
     <g transform="translate(260.9196 352.580625)scale(0.1728 -0.1728)">
      <use xlink:href="#Cmss10-56"/>
      <use transform="translate(66.6015625 0.0)" xlink:href="#Cmr10-28"/>
      <use transform="translate(105.419921875 0.0)" xlink:href="#Cmss10-56"/>
      <use transform="translate(172.021484375 0.0)" xlink:href="#Cmr10-29"/>
     </g>
    </g>
   </g>
   <g id="matplotlib.axis_2">
    <g id="ytick_1">
     <g id="line2d_25">
      <path clip-path="url(#p256a6d8a91)" d="M 48.75 319.006875 
L 509.55 319.006875 
" style="fill:none;stroke:#cbcbcb;"/>
     </g>
     <g id="line2d_26"/>
     <g id="line2d_27"/>
     <g id="text_10">
      <!-- 0 -->
      <g transform="translate(37.115 322.318125)scale(0.12 -0.12)">
       <use xlink:href="#BitstreamVeraSans-Roman-30"/>
      </g>
     </g>
    </g>
    <g id="ytick_2">
     <g id="line2d_28">
      <path clip-path="url(#p256a6d8a91)" d="M 48.75 257.806875 
L 509.55 257.806875 
" style="fill:none;stroke:#cbcbcb;"/>
     </g>
     <g id="line2d_29"/>
     <g id="line2d_30"/>
     <g id="text_11">
      <!-- 2 -->
      <g transform="translate(37.115 261.118125)scale(0.12 -0.12)">
       <use xlink:href="#BitstreamVeraSans-Roman-32"/>
      </g>
     </g>
    </g>
    <g id="ytick_3">
     <g id="line2d_31">
      <path clip-path="url(#p256a6d8a91)" d="M 48.75 196.606875 
L 509.55 196.606875 
" style="fill:none;stroke:#cbcbcb;"/>
     </g>
     <g id="line2d_32"/>
     <g id="line2d_33"/>
     <g id="text_12">
      <!-- 4 -->
      <defs>
       <path d="M 37.796875 64.3125 
L 12.890625 25.390625 
L 37.796875 25.390625 
z
M 35.203125 72.90625 
L 47.609375 72.90625 
L 47.609375 25.390625 
L 58.015625 25.390625 
L 58.015625 17.1875 
L 47.609375 17.1875 
L 47.609375 0 
L 37.796875 0 
L 37.796875 17.1875 
L 4.890625 17.1875 
L 4.890625 26.703125 
z
" id="BitstreamVeraSans-Roman-34"/>
      </defs>
      <g transform="translate(37.115 199.918125)scale(0.12 -0.12)">
       <use xlink:href="#BitstreamVeraSans-Roman-34"/>
      </g>
     </g>
    </g>
    <g id="ytick_4">
     <g id="line2d_34">
      <path clip-path="url(#p256a6d8a91)" d="M 48.75 135.406875 
L 509.55 135.406875 
" style="fill:none;stroke:#cbcbcb;"/>
     </g>
     <g id="line2d_35"/>
     <g id="line2d_36"/>
     <g id="text_13">
      <!-- 6 -->
      <defs>
       <path d="M 33.015625 40.375 
Q 26.375 40.375 22.484375 35.828125 
Q 18.609375 31.296875 18.609375 23.390625 
Q 18.609375 15.53125 22.484375 10.953125 
Q 26.375 6.390625 33.015625 6.390625 
Q 39.65625 6.390625 43.53125 10.953125 
Q 47.40625 15.53125 47.40625 23.390625 
Q 47.40625 31.296875 43.53125 35.828125 
Q 39.65625 40.375 33.015625 40.375 
M 52.59375 71.296875 
L 52.59375 62.3125 
Q 48.875 64.0625 45.09375 64.984375 
Q 41.3125 65.921875 37.59375 65.921875 
Q 27.828125 65.921875 22.671875 59.328125 
Q 17.53125 52.734375 16.796875 39.40625 
Q 19.671875 43.65625 24.015625 45.921875 
Q 28.375 48.1875 33.59375 48.1875 
Q 44.578125 48.1875 50.953125 41.515625 
Q 57.328125 34.859375 57.328125 23.390625 
Q 57.328125 12.15625 50.6875 5.359375 
Q 44.046875 -1.421875 33.015625 -1.421875 
Q 20.359375 -1.421875 13.671875 8.265625 
Q 6.984375 17.96875 6.984375 36.375 
Q 6.984375 53.65625 15.1875 63.9375 
Q 23.390625 74.21875 37.203125 74.21875 
Q 40.921875 74.21875 44.703125 73.484375 
Q 48.484375 72.75 52.59375 71.296875 
" id="BitstreamVeraSans-Roman-36"/>
      </defs>
      <g transform="translate(37.115 138.718125)scale(0.12 -0.12)">
       <use xlink:href="#BitstreamVeraSans-Roman-36"/>
      </g>
     </g>
    </g>
    <g id="ytick_5">
     <g id="line2d_37">
      <path clip-path="url(#p256a6d8a91)" d="M 48.75 74.206875 
L 509.55 74.206875 
" style="fill:none;stroke:#cbcbcb;"/>
     </g>
     <g id="line2d_38"/>
     <g id="line2d_39"/>
     <g id="text_14">
      <!-- 8 -->
      <defs>
       <path d="M 31.78125 34.625 
Q 24.75 34.625 20.71875 30.859375 
Q 16.703125 27.09375 16.703125 20.515625 
Q 16.703125 13.921875 20.71875 10.15625 
Q 24.75 6.390625 31.78125 6.390625 
Q 38.8125 6.390625 42.859375 10.171875 
Q 46.921875 13.96875 46.921875 20.515625 
Q 46.921875 27.09375 42.890625 30.859375 
Q 38.875 34.625 31.78125 34.625 
M 21.921875 38.8125 
Q 15.578125 40.375 12.03125 44.71875 
Q 8.5 49.078125 8.5 55.328125 
Q 8.5 64.0625 14.71875 69.140625 
Q 20.953125 74.21875 31.78125 74.21875 
Q 42.671875 74.21875 48.875 69.140625 
Q 55.078125 64.0625 55.078125 55.328125 
Q 55.078125 49.078125 51.53125 44.71875 
Q 48 40.375 41.703125 38.8125 
Q 48.828125 37.15625 52.796875 32.3125 
Q 56.78125 27.484375 56.78125 20.515625 
Q 56.78125 9.90625 50.3125 4.234375 
Q 43.84375 -1.421875 31.78125 -1.421875 
Q 19.734375 -1.421875 13.25 4.234375 
Q 6.78125 9.90625 6.78125 20.515625 
Q 6.78125 27.484375 10.78125 32.3125 
Q 14.796875 37.15625 21.921875 38.8125 
M 18.3125 54.390625 
Q 18.3125 48.734375 21.84375 45.5625 
Q 25.390625 42.390625 31.78125 42.390625 
Q 38.140625 42.390625 41.71875 45.5625 
Q 45.3125 48.734375 45.3125 54.390625 
Q 45.3125 60.0625 41.71875 63.234375 
Q 38.140625 66.40625 31.78125 66.40625 
Q 25.390625 66.40625 21.84375 63.234375 
Q 18.3125 60.0625 18.3125 54.390625 
" id="BitstreamVeraSans-Roman-38"/>
      </defs>
      <g transform="translate(37.115 77.518125)scale(0.12 -0.12)">
       <use xlink:href="#BitstreamVeraSans-Roman-38"/>
      </g>
     </g>
    </g>
    <g id="ytick_6">
     <g id="line2d_40">
      <path clip-path="url(#p256a6d8a91)" d="M 48.75 13.006875 
L 509.55 13.006875 
" style="fill:none;stroke:#cbcbcb;"/>
     </g>
     <g id="line2d_41"/>
     <g id="line2d_42"/>
     <g id="text_15">
      <!-- 10 -->
      <g transform="translate(29.48 16.318125)scale(0.12 -0.12)">
       <use xlink:href="#BitstreamVeraSans-Roman-31"/>
       <use x="63.623046875" xlink:href="#BitstreamVeraSans-Roman-30"/>
      </g>
     </g>
    </g>
    <g id="text_16">
     <!-- $\sf I (A)$ -->
     <defs>
      <path d="M 2.78125 0 
L 28.71875 69.390625 
L 37.890625 69.390625 
L 63.8125 0 
L 54.203125 0 
Q 50.25 10.6875 46.78125 19.921875 
L 18.015625 19.921875 
Q 13.578125 7.765625 10.59375 0 
z
M 20.21875 25.875 
L 44.578125 25.875 
Q 40.09375 38.28125 37.8125 44.796875 
Q 35.546875 51.3125 34.03125 56.078125 
Q 32.515625 60.84375 32.515625 62.109375 
L 32.421875 62.109375 
Q 32.421875 61.140625 31.421875 57.8125 
Q 30.421875 54.5 28.859375 49.953125 
Q 27.296875 45.40625 24.09375 36.546875 
Q 20.90625 27.6875 20.21875 25.875 
" id="Cmss10-41"/>
      <path d="M 9.1875 0 
L 9.1875 69.390625 
L 18.5 69.390625 
L 18.5 0 
z
" id="Cmss10-49"/>
     </defs>
     <g transform="translate(20.16 180.867675)rotate(-90.0)scale(0.1728 -0.1728)">
      <use xlink:href="#Cmss10-49"/>
      <use transform="translate(27.685546875 0.0)" xlink:href="#Cmr10-28"/>
      <use transform="translate(66.50390625 0.0)" xlink:href="#Cmss10-41"/>
      <use transform="translate(133.10546875 0.0)" xlink:href="#Cmr10-29"/>
     </g>
    </g>
   </g>
   <g id="line2d_43">
    <path clip-path="url(#p256a6d8a91)" d="M 48.75 118.132946 
L 279.308147 119.532969 
L 306.457985 119.92058 
L 323.265027 120.369622 
L 335.331622 120.898731 
L 345.243467 121.551509 
L 353.431514 122.313893 
L 360.32671 123.174884 
L 366.360008 124.145717 
L 371.962355 125.27899 
L 376.702803 126.45344 
L 381.012301 127.727601 
L 385.321799 129.234091 
L 389.200347 130.821309 
L 393.078896 132.661588 
L 396.526494 134.539474 
L 399.974093 136.674263 
L 403.421691 139.096677 
L 406.43834 141.478062 
L 409.454988 144.128257 
L 412.471637 147.071321 
L 415.488286 150.333306 
L 418.504934 153.940067 
L 421.521583 157.918685 
L 424.538232 162.295171 
L 427.55488 167.096285 
L 430.571529 172.346718 
L 433.588178 178.072413 
L 436.604826 184.297538 
L 439.621475 191.040717 
L 442.638124 198.323862 
L 445.654772 206.161474 
L 448.671421 214.569739 
L 452.119019 224.888886 
L 455.566618 235.978902 
L 459.014216 247.845075 
L 462.461815 260.488624 
L 466.340363 275.627078 
L 470.649861 293.478326 
L 475.821259 315.003375 
L 477.114108 319.604414 
L 477.976008 322.155033 
L 478.837907 324.06647 
L 479.268857 324.702284 
L 479.268857 324.702284 
" style="fill:none;stroke:#fc4f30;stroke-width:4.0;"/>
   </g>
   <g id="line2d_44">
    <path clip-path="url(#p256a6d8a91)" d="M 48.75 116.175651 
L 223.106757 117.261844 
L 252.3639 117.660228 
L 270.550772 118.115861 
L 283.993243 118.668289 
L 294.668147 119.328215 
L 303.366216 120.083965 
L 310.878185 120.956646 
L 317.599421 121.966711 
L 323.529923 123.087764 
L 328.669691 124.274949 
L 333.414093 125.585123 
L 337.763127 126.999244 
L 342.112162 128.650925 
L 346.06583 130.389751 
L 350.019498 132.386702 
L 353.577799 134.433301 
L 357.1361 136.744074 
L 360.299035 139.043787 
L 363.461969 141.59767 
L 366.624903 144.428953 
L 369.787838 147.561337 
L 372.950772 151.020633 
L 376.113707 154.832218 
L 379.276641 159.022757 
L 382.439575 163.61768 
L 385.60251 168.643282 
L 388.765444 174.123765 
L 391.928378 180.084735 
L 395.091313 186.549986 
L 398.254247 193.538094 
L 401.417181 201.069842 
L 404.580116 209.163803 
L 407.74305 217.82969 
L 411.301351 228.281897 
L 414.859653 239.489187 
L 418.417954 251.456895 
L 421.976255 264.187494 
L 425.929923 279.224425 
L 429.883591 295.164847 
L 438.977027 332.610939 
L 440.163127 336.352862 
L 440.953861 338.301988 
L 441.744595 339.631699 
L 442.139961 340.00308 
L 442.535328 340.141005 
L 442.930695 340.013956 
L 443.326062 339.58813 
L 443.721429 338.827833 
L 443.721429 338.827833 
" style="fill:none;stroke:#5cb85c;stroke-width:4.0;"/>
   </g>
   <g id="line2d_45">
    <path clip-path="url(#p256a6d8a91)" d="M 48.75 114.219026 
L 168.664749 115.007275 
L 199.621969 115.424543 
L 218.836795 115.893762 
L 233.07 116.457039 
L 244.100734 117.104839 
L 253.352317 117.860416 
L 261.180579 118.709033 
L 268.297181 119.70023 
L 274.702124 120.820313 
L 280.395405 122.040729 
L 285.732857 123.417886 
L 290.714479 124.945245 
L 295.34027 126.60879 
L 299.610232 128.386593 
L 303.524363 130.24893 
L 307.438494 132.362413 
L 310.996795 134.526744 
L 314.555097 136.947782 
L 318.113398 139.651619 
L 321.315869 142.349709 
L 324.51834 145.320046 
L 327.720811 148.5851 
L 330.923282 152.167262 
L 334.125753 156.089593 
L 337.328224 160.376125 
L 340.530695 165.04938 
L 343.733166 170.132949 
L 346.935637 175.648374 
L 350.138108 181.618824 
L 353.340579 188.065685 
L 356.54305 195.005915 
L 359.745521 202.4586 
L 362.947992 210.44067 
L 366.506293 219.943458 
L 370.064595 230.132653 
L 373.622896 241.016546 
L 377.181197 252.603678 
L 381.095328 266.17123 
L 385.009459 280.593317 
L 388.923591 295.861596 
L 393.193552 313.414834 
L 400.665985 344.465373 
L 402.089305 349.381508 
L 403.156795 352.363071 
L 403.868456 353.855604 
L 404.224286 354.412601 
L 404.224286 354.412601 
" style="fill:none;stroke:#30a2da;stroke-width:4.0;"/>
   </g>
   <g id="patch_3">
    <path d="M 48.75 319.006875 
L 509.55 319.006875 
" style="fill:none;stroke:#ffffff;stroke-linecap:square;stroke-linejoin:miter;stroke-width:3.0;"/>
   </g>
   <g id="patch_4">
    <path d="M 48.75 13.006875 
L 509.55 13.006875 
" style="fill:none;stroke:#ffffff;stroke-linecap:square;stroke-linejoin:miter;stroke-width:3.0;"/>
   </g>
   <g id="patch_5">
    <path d="M 48.75 319.006875 
L 48.75 13.006875 
" style="fill:none;stroke:#ffffff;stroke-linecap:square;stroke-linejoin:miter;stroke-width:3.0;"/>
   </g>
   <g id="patch_6">
    <path d="M 509.55 319.006875 
L 509.55 13.006875 
" style="fill:none;stroke:#ffffff;stroke-linecap:square;stroke-linejoin:miter;stroke-width:3.0;"/>
   </g>
   <g id="legend_1">
    <g id="patch_7">
     <path d="M 238.542 311.806875 
L 319.758 311.806875 
Q 322.638 311.806875 322.638 308.926875 
L 322.638 246.957375 
Q 322.638 244.077375 319.758 244.077375 
L 238.542 244.077375 
Q 235.662 244.077375 235.662 246.957375 
L 235.662 308.926875 
Q 235.662 311.806875 238.542 311.806875 
z
" style="fill:#ffffff;stroke:#ffffff;stroke-linejoin:miter;stroke-width:0.5;"/>
    </g>
    <g id="line2d_46">
     <path d="M 245.742 255.739125 
L 265.902 255.739125 
" style="fill:none;stroke:#fc4f30;stroke-width:4.0;"/>
    </g>
    <g id="line2d_47"/>
    <g id="text_17">
     <!-- $\sf 25\, ºC$ -->
     <defs>
      <path d="M 38.8125 -2.203125 
Q 31.6875 -2.203125 25.671875 0.921875 
Q 19.671875 4.046875 15.40625 9.375 
Q 11.140625 14.703125 8.8125 21.234375 
Q 6.5 27.78125 6.5 34.71875 
Q 6.5 41.65625 8.8125 48.21875 
Q 11.140625 54.78125 15.453125 60.125 
Q 19.78125 65.484375 25.734375 68.53125 
Q 31.6875 71.578125 38.8125 71.578125 
Q 42.53125 71.578125 45.53125 71.234375 
Q 48.53125 70.90625 51.65625 70.09375 
Q 54.78125 69.28125 57.71875 68.109375 
L 56.203125 59.515625 
L 56.109375 59.515625 
Q 51.953125 62.359375 47.890625 63.578125 
Q 43.84375 64.796875 38.8125 64.796875 
Q 33.296875 64.796875 28.96875 62.0625 
Q 24.65625 59.328125 21.71875 54.828125 
Q 18.796875 50.34375 17.3125 45.09375 
Q 15.828125 39.84375 15.828125 34.71875 
Q 15.828125 29.640625 17.328125 24.3125 
Q 18.84375 19 21.796875 14.5 
Q 24.75 10.015625 29.09375 7.296875 
Q 33.453125 4.59375 38.8125 4.59375 
Q 45.265625 4.59375 49.140625 5.8125 
Q 53.03125 7.03125 58.203125 10.6875 
L 58.796875 3.515625 
L 58.796875 3.421875 
Q 55.03125 1.078125 52.21875 -0.09375 
Q 49.421875 -1.265625 46.4375 -1.734375 
Q 43.453125 -2.203125 38.8125 -2.203125 
" id="Cmss10-43"/>
      <path d="M 22.21875 61.078125 
Q 22.21875 63.71875 23.90625 65.578125 
Q 25.59375 67.4375 28.171875 68.40625 
Q 30.765625 69.390625 33.296875 69.390625 
Q 35.84375 69.390625 38.421875 68.40625 
Q 41.015625 67.4375 42.703125 65.578125 
Q 44.390625 63.71875 44.390625 61.078125 
Q 44.390625 58.40625 42.703125 56.546875 
Q 41.015625 54.6875 38.421875 53.6875 
Q 35.84375 52.6875 33.296875 52.6875 
Q 29.296875 52.6875 25.75 54.953125 
Q 22.21875 57.234375 22.21875 61.078125 
M 27.78125 61.078125 
Q 27.78125 58.890625 29.34375 57.890625 
Q 30.90625 56.890625 33.296875 56.890625 
Q 35.640625 56.890625 37.21875 57.859375 
Q 38.8125 58.84375 38.8125 61.078125 
Q 38.8125 63.28125 37.21875 64.234375 
Q 35.640625 65.1875 33.296875 65.1875 
Q 30.953125 65.1875 29.359375 64.203125 
Q 27.78125 63.234375 27.78125 61.078125 
" id="Cmss10-ba"/>
      <path d="M 8.6875 11.375 
Q 9.71875 8.453125 11.84375 6.046875 
Q 13.96875 3.65625 16.875 2.3125 
Q 19.78125 0.984375 22.90625 0.984375 
Q 30.125 0.984375 32.859375 6.59375 
Q 35.59375 12.203125 35.59375 20.21875 
Q 35.59375 23.6875 35.46875 26.046875 
Q 35.359375 28.421875 34.8125 30.609375 
Q 33.890625 34.125 31.5625 36.765625 
Q 29.25 39.40625 25.875 39.40625 
Q 22.515625 39.40625 20.09375 38.375 
Q 17.671875 37.359375 16.15625 35.984375 
Q 14.65625 34.625 13.484375 33.109375 
Q 12.3125 31.59375 12.015625 31.5 
L 10.890625 31.5 
Q 10.640625 31.5 10.265625 31.8125 
Q 9.90625 32.125 9.90625 32.421875 
L 9.90625 65.828125 
Q 9.90625 66.0625 10.21875 66.328125 
Q 10.546875 66.609375 10.890625 66.609375 
L 11.1875 66.609375 
Q 17.921875 63.375 25.484375 63.375 
Q 32.90625 63.375 39.796875 66.609375 
L 40.09375 66.609375 
Q 40.4375 66.609375 40.71875 66.359375 
Q 41.015625 66.109375 41.015625 65.828125 
L 41.015625 64.890625 
Q 41.015625 64.40625 40.828125 64.40625 
Q 37.40625 59.859375 32.25 57.3125 
Q 27.09375 54.78125 21.578125 54.78125 
Q 17.578125 54.78125 13.375 55.90625 
L 13.375 37.015625 
Q 16.703125 39.703125 19.3125 40.84375 
Q 21.921875 42 25.984375 42 
Q 31.5 42 35.859375 38.8125 
Q 40.234375 35.640625 42.578125 30.53125 
Q 44.921875 25.4375 44.921875 20.125 
Q 44.921875 14.109375 41.96875 8.984375 
Q 39.015625 3.859375 33.9375 0.828125 
Q 28.859375 -2.203125 22.90625 -2.203125 
Q 17.96875 -2.203125 13.84375 0.328125 
Q 9.71875 2.875 7.34375 7.171875 
Q 4.984375 11.46875 4.984375 16.3125 
Q 4.984375 18.5625 6.4375 19.96875 
Q 7.90625 21.390625 10.109375 21.390625 
Q 12.3125 21.390625 13.796875 19.9375 
Q 15.28125 18.5 15.28125 16.3125 
Q 15.28125 14.15625 13.796875 12.671875 
Q 12.3125 11.1875 10.109375 11.1875 
Q 9.765625 11.1875 9.328125 11.25 
Q 8.890625 11.328125 8.6875 11.375 
" id="Cmr10-35"/>
      <path d="M 4.984375 0 
L 4.984375 2.6875 
Q 4.984375 2.9375 5.171875 3.21875 
L 20.703125 20.40625 
Q 24.21875 24.21875 26.40625 26.796875 
Q 28.609375 29.390625 30.75 32.765625 
Q 32.90625 36.140625 34.15625 39.625 
Q 35.40625 43.109375 35.40625 47.015625 
Q 35.40625 51.125 33.890625 54.859375 
Q 32.375 58.59375 29.375 60.84375 
Q 26.375 63.09375 22.125 63.09375 
Q 17.78125 63.09375 14.3125 60.46875 
Q 10.84375 57.859375 9.421875 53.71875 
Q 9.8125 53.8125 10.5 53.8125 
Q 12.75 53.8125 14.328125 52.296875 
Q 15.921875 50.78125 15.921875 48.390625 
Q 15.921875 46.09375 14.328125 44.5 
Q 12.75 42.921875 10.5 42.921875 
Q 8.15625 42.921875 6.5625 44.546875 
Q 4.984375 46.1875 4.984375 48.390625 
Q 4.984375 52.15625 6.390625 55.4375 
Q 7.8125 58.734375 10.46875 61.296875 
Q 13.140625 63.875 16.484375 65.234375 
Q 19.828125 66.609375 23.578125 66.609375 
Q 29.296875 66.609375 34.21875 64.1875 
Q 39.15625 61.765625 42.03125 57.34375 
Q 44.921875 52.9375 44.921875 47.015625 
Q 44.921875 42.671875 43.015625 38.765625 
Q 41.109375 34.859375 38.125 31.65625 
Q 35.15625 28.46875 30.515625 24.40625 
Q 25.875 20.359375 24.421875 19 
L 13.09375 8.109375 
L 22.703125 8.109375 
Q 29.78125 8.109375 34.546875 8.21875 
Q 39.3125 8.34375 39.59375 8.59375 
Q 40.765625 9.859375 42 17.828125 
L 44.921875 17.828125 
L 42.09375 0 
z
" id="Cmr10-32"/>
     </defs>
     <g transform="translate(281.742 260.779125)scale(0.144 -0.144)">
      <use transform="translate(0.0 0.421875)" xlink:href="#Cmr10-32"/>
      <use transform="translate(50.0 0.421875)" xlink:href="#Cmr10-35"/>
      <use transform="translate(113.23268652343751 0.421875)" xlink:href="#Cmss10-ba"/>
      <use transform="translate(179.8342490234375 0.421875)" xlink:href="#Cmss10-43"/>
     </g>
    </g>
    <g id="line2d_48">
     <path d="M 245.742 276.875625 
L 265.902 276.875625 
" style="fill:none;stroke:#5cb85c;stroke-width:4.0;"/>
    </g>
    <g id="line2d_49"/>
    <g id="text_18">
     <!-- $\sf 50\, ºC$ -->
     <defs>
      <path d="M 25 -2.203125 
Q 12.75 -2.203125 8.328125 7.875 
Q 3.90625 17.96875 3.90625 31.890625 
Q 3.90625 40.578125 5.484375 48.234375 
Q 7.078125 55.90625 11.78125 61.25 
Q 16.5 66.609375 25 66.609375 
Q 31.59375 66.609375 35.78125 63.375 
Q 39.984375 60.15625 42.1875 55.046875 
Q 44.390625 49.953125 45.1875 44.109375 
Q 46 38.28125 46 31.890625 
Q 46 23.296875 44.40625 15.796875 
Q 42.828125 8.296875 38.1875 3.046875 
Q 33.546875 -2.203125 25 -2.203125 
M 25 0.390625 
Q 30.5625 0.390625 33.296875 6.09375 
Q 36.03125 11.8125 36.671875 18.75 
Q 37.3125 25.6875 37.3125 33.5 
Q 37.3125 41.015625 36.671875 47.359375 
Q 36.03125 53.71875 33.3125 58.859375 
Q 30.609375 64.015625 25 64.015625 
Q 19.34375 64.015625 16.609375 58.828125 
Q 13.875 53.65625 13.234375 47.328125 
Q 12.59375 41.015625 12.59375 33.5 
Q 12.59375 27.9375 12.859375 23 
Q 13.140625 18.0625 14.3125 12.8125 
Q 15.484375 7.5625 18.09375 3.96875 
Q 20.703125 0.390625 25 0.390625 
" id="Cmr10-30"/>
     </defs>
     <g transform="translate(281.742 281.915625)scale(0.144 -0.144)">
      <use transform="translate(0.0 0.421875)" xlink:href="#Cmr10-35"/>
      <use transform="translate(50.0 0.421875)" xlink:href="#Cmr10-30"/>
      <use transform="translate(113.23268652343751 0.421875)" xlink:href="#Cmss10-ba"/>
      <use transform="translate(179.8342490234375 0.421875)" xlink:href="#Cmss10-43"/>
     </g>
    </g>
    <g id="line2d_50">
     <path d="M 245.742 298.012125 
L 265.902 298.012125 
" style="fill:none;stroke:#30a2da;stroke-width:4.0;"/>
    </g>
    <g id="line2d_51"/>
    <g id="text_19">
     <!-- $\sf 75\, ºC$ -->
     <defs>
      <path d="M 17.390625 2.59375 
Q 17.390625 8.15625 18.359375 13.46875 
Q 19.34375 18.796875 21.21875 24 
Q 23.09375 29.203125 25.75 34.203125 
Q 28.421875 39.203125 31.59375 43.609375 
L 40.71875 56.296875 
L 29.296875 56.296875 
Q 11.53125 56.296875 10.984375 55.8125 
Q 9.671875 54.203125 8.5 46.578125 
L 5.609375 46.578125 
L 8.890625 67.578125 
L 11.8125 67.578125 
L 11.8125 67.28125 
Q 11.8125 65.484375 17.921875 64.9375 
Q 24.03125 64.40625 29.890625 64.40625 
L 48.484375 64.40625 
L 48.484375 61.8125 
Q 48.484375 61.71875 48.453125 61.671875 
Q 48.4375 61.625 48.390625 61.53125 
L 34.625 42.1875 
Q 29.546875 34.671875 28.265625 25.484375 
Q 27 16.3125 27 2.59375 
Q 27 0.640625 25.578125 -0.78125 
Q 24.171875 -2.203125 22.21875 -2.203125 
Q 20.21875 -2.203125 18.796875 -0.78125 
Q 17.390625 0.640625 17.390625 2.59375 
" id="Cmr10-37"/>
     </defs>
     <g transform="translate(281.742 303.052125)scale(0.144 -0.144)">
      <use transform="translate(0.0 0.421875)" xlink:href="#Cmr10-37"/>
      <use transform="translate(50.0 0.421875)" xlink:href="#Cmr10-35"/>
      <use transform="translate(113.23268652343751 0.421875)" xlink:href="#Cmss10-ba"/>
      <use transform="translate(179.8342490234375 0.421875)" xlink:href="#Cmss10-43"/>
     </g>
    </g>
   </g>
  </g>
 </g>
 <defs>
  <clipPath id="p256a6d8a91">
   <rect height="306.0" width="460.8" x="48.75" y="13.006875"/>
  </clipPath>
 </defs>
</svg>
