<?xml version="1.0" encoding="utf-8" standalone="no"?>
<!DOCTYPE svg PUBLIC "-//W3C//DTD SVG 1.1//EN"
  "http://www.w3.org/Graphics/SVG/1.1/DTD/svg11.dtd">
<!-- Created with matplotlib (http://matplotlib.org/) -->
<svg height="363pt" version="1.1" viewBox="0 0 523 363" width="523pt" xmlns="http://www.w3.org/2000/svg" xmlns:xlink="http://www.w3.org/1999/xlink">
 <defs>
  <style type="text/css">
*{stroke-linecap:butt;stroke-linejoin:round;stroke-miterlimit:100000;}
  </style>
 </defs>
 <g id="figure_1">
  <g id="patch_1">
   <path d="M 0 363.544425 
L 523.8288 363.544425 
L 523.8288 0 
L 0 0 
z
" style="fill:none;opacity:0;"/>
  </g>
  <g id="axes_1">
   <g id="patch_2">
    <path d="M 48.1938 319.006875 
L 508.9938 319.006875 
L 508.9938 13.006875 
L 48.1938 13.006875 
z
" style="fill:#ffffff;"/>
   </g>
   <g id="matplotlib.axis_1">
    <g id="xtick_1">
     <g id="line2d_1">
      <path clip-path="url(#p422f2e45a5)" d="M 48.1938 319.006875 
L 48.1938 13.006875 
" style="fill:none;stroke:#cbcbcb;"/>
     </g>
     <g id="line2d_2"/>
     <g id="line2d_3"/>
     <g id="text_1">
      <!-- 0 -->
      <defs>
       <path d="M 31.78125 66.40625 
Q 24.171875 66.40625 20.328125 58.90625 
Q 16.5 51.421875 16.5 36.375 
Q 16.5 21.390625 20.328125 13.890625 
Q 24.171875 6.390625 31.78125 6.390625 
Q 39.453125 6.390625 43.28125 13.890625 
Q 47.125 21.390625 47.125 36.375 
Q 47.125 51.421875 43.28125 58.90625 
Q 39.453125 66.40625 31.78125 66.40625 
M 31.78125 74.21875 
Q 44.046875 74.21875 50.515625 64.515625 
Q 56.984375 54.828125 56.984375 36.375 
Q 56.984375 17.96875 50.515625 8.265625 
Q 44.046875 -1.421875 31.78125 -1.421875 
Q 19.53125 -1.421875 13.0625 8.265625 
Q 6.59375 17.96875 6.59375 36.375 
Q 6.59375 54.828125 13.0625 64.515625 
Q 19.53125 74.21875 31.78125 74.21875 
" id="BitstreamVeraSans-Roman-30"/>
      </defs>
      <g transform="translate(44.3763 332.125)scale(0.12 -0.12)">
       <use xlink:href="#BitstreamVeraSans-Roman-30"/>
      </g>
     </g>
    </g>
    <g id="xtick_2">
     <g id="line2d_4">
      <path clip-path="url(#p422f2e45a5)" d="M 114.022371 319.006875 
L 114.022371 13.006875 
" style="fill:none;stroke:#cbcbcb;"/>
     </g>
     <g id="line2d_5"/>
     <g id="line2d_6"/>
     <g id="text_2">
      <!-- 5 -->
      <defs>
       <path d="M 10.796875 72.90625 
L 49.515625 72.90625 
L 49.515625 64.59375 
L 19.828125 64.59375 
L 19.828125 46.734375 
Q 21.96875 47.46875 24.109375 47.828125 
Q 26.265625 48.1875 28.421875 48.1875 
Q 40.625 48.1875 47.75 41.5 
Q 54.890625 34.8125 54.890625 23.390625 
Q 54.890625 11.625 47.5625 5.09375 
Q 40.234375 -1.421875 26.90625 -1.421875 
Q 22.3125 -1.421875 17.546875 -0.640625 
Q 12.796875 0.140625 7.71875 1.703125 
L 7.71875 11.625 
Q 12.109375 9.234375 16.796875 8.0625 
Q 21.484375 6.890625 26.703125 6.890625 
Q 35.15625 6.890625 40.078125 11.328125 
Q 45.015625 15.765625 45.015625 23.390625 
Q 45.015625 31 40.078125 35.4375 
Q 35.15625 39.890625 26.703125 39.890625 
Q 22.75 39.890625 18.8125 39.015625 
Q 14.890625 38.140625 10.796875 36.28125 
z
" id="BitstreamVeraSans-Roman-35"/>
      </defs>
      <g transform="translate(110.204871429 332.125)scale(0.12 -0.12)">
       <use xlink:href="#BitstreamVeraSans-Roman-35"/>
      </g>
     </g>
    </g>
    <g id="xtick_3">
     <g id="line2d_7">
      <path clip-path="url(#p422f2e45a5)" d="M 179.850943 319.006875 
L 179.850943 13.006875 
" style="fill:none;stroke:#cbcbcb;"/>
     </g>
     <g id="line2d_8"/>
     <g id="line2d_9"/>
     <g id="text_3">
      <!-- 10 -->
      <defs>
       <path d="M 12.40625 8.296875 
L 28.515625 8.296875 
L 28.515625 63.921875 
L 10.984375 60.40625 
L 10.984375 69.390625 
L 28.421875 72.90625 
L 38.28125 72.90625 
L 38.28125 8.296875 
L 54.390625 8.296875 
L 54.390625 0 
L 12.40625 0 
z
" id="BitstreamVeraSans-Roman-31"/>
      </defs>
      <g transform="translate(172.215942857 332.125)scale(0.12 -0.12)">
       <use xlink:href="#BitstreamVeraSans-Roman-31"/>
       <use x="63.623046875" xlink:href="#BitstreamVeraSans-Roman-30"/>
      </g>
     </g>
    </g>
    <g id="xtick_4">
     <g id="line2d_10">
      <path clip-path="url(#p422f2e45a5)" d="M 245.679514 319.006875 
L 245.679514 13.006875 
" style="fill:none;stroke:#cbcbcb;"/>
     </g>
     <g id="line2d_11"/>
     <g id="line2d_12"/>
     <g id="text_4">
      <!-- 15 -->
      <g transform="translate(238.044514286 332.125)scale(0.12 -0.12)">
       <use xlink:href="#BitstreamVeraSans-Roman-31"/>
       <use x="63.623046875" xlink:href="#BitstreamVeraSans-Roman-35"/>
      </g>
     </g>
    </g>
    <g id="xtick_5">
     <g id="line2d_13">
      <path clip-path="url(#p422f2e45a5)" d="M 311.508086 319.006875 
L 311.508086 13.006875 
" style="fill:none;stroke:#cbcbcb;"/>
     </g>
     <g id="line2d_14"/>
     <g id="line2d_15"/>
     <g id="text_5">
      <!-- 20 -->
      <defs>
       <path d="M 19.1875 8.296875 
L 53.609375 8.296875 
L 53.609375 0 
L 7.328125 0 
L 7.328125 8.296875 
Q 12.9375 14.109375 22.625 23.890625 
Q 32.328125 33.6875 34.8125 36.53125 
Q 39.546875 41.84375 41.421875 45.53125 
Q 43.3125 49.21875 43.3125 52.78125 
Q 43.3125 58.59375 39.234375 62.25 
Q 35.15625 65.921875 28.609375 65.921875 
Q 23.96875 65.921875 18.8125 64.3125 
Q 13.671875 62.703125 7.8125 59.421875 
L 7.8125 69.390625 
Q 13.765625 71.78125 18.9375 73 
Q 24.125 74.21875 28.421875 74.21875 
Q 39.75 74.21875 46.484375 68.546875 
Q 53.21875 62.890625 53.21875 53.421875 
Q 53.21875 48.921875 51.53125 44.890625 
Q 49.859375 40.875 45.40625 35.40625 
Q 44.1875 33.984375 37.640625 27.21875 
Q 31.109375 20.453125 19.1875 8.296875 
" id="BitstreamVeraSans-Roman-32"/>
      </defs>
      <g transform="translate(303.873085714 332.125)scale(0.12 -0.12)">
       <use xlink:href="#BitstreamVeraSans-Roman-32"/>
       <use x="63.623046875" xlink:href="#BitstreamVeraSans-Roman-30"/>
      </g>
     </g>
    </g>
    <g id="xtick_6">
     <g id="line2d_16">
      <path clip-path="url(#p422f2e45a5)" d="M 377.336657 319.006875 
L 377.336657 13.006875 
" style="fill:none;stroke:#cbcbcb;"/>
     </g>
     <g id="line2d_17"/>
     <g id="line2d_18"/>
     <g id="text_6">
      <!-- 25 -->
      <g transform="translate(369.701657143 332.125)scale(0.12 -0.12)">
       <use xlink:href="#BitstreamVeraSans-Roman-32"/>
       <use x="63.623046875" xlink:href="#BitstreamVeraSans-Roman-35"/>
      </g>
     </g>
    </g>
    <g id="xtick_7">
     <g id="line2d_19">
      <path clip-path="url(#p422f2e45a5)" d="M 443.165229 319.006875 
L 443.165229 13.006875 
" style="fill:none;stroke:#cbcbcb;"/>
     </g>
     <g id="line2d_20"/>
     <g id="line2d_21"/>
     <g id="text_7">
      <!-- 30 -->
      <defs>
       <path d="M 40.578125 39.3125 
Q 47.65625 37.796875 51.625 33 
Q 55.609375 28.21875 55.609375 21.1875 
Q 55.609375 10.40625 48.1875 4.484375 
Q 40.765625 -1.421875 27.09375 -1.421875 
Q 22.515625 -1.421875 17.65625 -0.515625 
Q 12.796875 0.390625 7.625 2.203125 
L 7.625 11.71875 
Q 11.71875 9.328125 16.59375 8.109375 
Q 21.484375 6.890625 26.8125 6.890625 
Q 36.078125 6.890625 40.9375 10.546875 
Q 45.796875 14.203125 45.796875 21.1875 
Q 45.796875 27.640625 41.28125 31.265625 
Q 36.765625 34.90625 28.71875 34.90625 
L 20.21875 34.90625 
L 20.21875 43.015625 
L 29.109375 43.015625 
Q 36.375 43.015625 40.234375 45.921875 
Q 44.09375 48.828125 44.09375 54.296875 
Q 44.09375 59.90625 40.109375 62.90625 
Q 36.140625 65.921875 28.71875 65.921875 
Q 24.65625 65.921875 20.015625 65.03125 
Q 15.375 64.15625 9.8125 62.3125 
L 9.8125 71.09375 
Q 15.4375 72.65625 20.34375 73.4375 
Q 25.25 74.21875 29.59375 74.21875 
Q 40.828125 74.21875 47.359375 69.109375 
Q 53.90625 64.015625 53.90625 55.328125 
Q 53.90625 49.265625 50.4375 45.09375 
Q 46.96875 40.921875 40.578125 39.3125 
" id="BitstreamVeraSans-Roman-33"/>
      </defs>
      <g transform="translate(435.530228571 332.125)scale(0.12 -0.12)">
       <use xlink:href="#BitstreamVeraSans-Roman-33"/>
       <use x="63.623046875" xlink:href="#BitstreamVeraSans-Roman-30"/>
      </g>
     </g>
    </g>
    <g id="xtick_8">
     <g id="line2d_22">
      <path clip-path="url(#p422f2e45a5)" d="M 508.9938 319.006875 
L 508.9938 13.006875 
" style="fill:none;stroke:#cbcbcb;"/>
     </g>
     <g id="line2d_23"/>
     <g id="line2d_24"/>
     <g id="text_8">
      <!-- 35 -->
      <g transform="translate(501.3588 332.125)scale(0.12 -0.12)">
       <use xlink:href="#BitstreamVeraSans-Roman-33"/>
       <use x="63.623046875" xlink:href="#BitstreamVeraSans-Roman-35"/>
      </g>
     </g>
    </g>
    <g id="text_9">
     <!-- $\sf V $ -->
     <defs>
      <path d="M 28.515625 0 
L 1.421875 69.390625 
L 11.078125 69.390625 
Q 13.765625 62.5 20.109375 46.0625 
Q 26.46875 29.640625 30.25 19.265625 
Q 34.03125 8.890625 34.078125 7.328125 
Q 34.078125 8.9375 37.84375 19.28125 
Q 41.609375 29.640625 47.953125 46.0625 
Q 54.296875 62.5 56.984375 69.390625 
L 65.1875 69.390625 
L 38.09375 0 
z
" id="Cmss10-56"/>
     </defs>
     <g transform="translate(272.805 352.750725)scale(0.1728 -0.1728)">
      <use transform="translate(0.0 0.609375)" xlink:href="#Cmss10-56"/>
     </g>
    </g>
   </g>
   <g id="matplotlib.axis_2">
    <g id="ytick_1">
     <g id="line2d_25">
      <path clip-path="url(#p422f2e45a5)" d="M 48.1938 319.006875 
L 508.9938 319.006875 
" style="fill:none;stroke:#cbcbcb;"/>
     </g>
     <g id="line2d_26"/>
     <g id="line2d_27"/>
     <g id="text_10">
      <!-- 0 -->
      <g transform="translate(36.5588 322.318125)scale(0.12 -0.12)">
       <use xlink:href="#BitstreamVeraSans-Roman-30"/>
      </g>
     </g>
    </g>
    <g id="ytick_2">
     <g id="line2d_28">
      <path clip-path="url(#p422f2e45a5)" d="M 48.1938 257.806875 
L 508.9938 257.806875 
" style="fill:none;stroke:#cbcbcb;"/>
     </g>
     <g id="line2d_29"/>
     <g id="line2d_30"/>
     <g id="text_11">
      <!-- 2 -->
      <g transform="translate(36.5588 261.118125)scale(0.12 -0.12)">
       <use xlink:href="#BitstreamVeraSans-Roman-32"/>
      </g>
     </g>
    </g>
    <g id="ytick_3">
     <g id="line2d_31">
      <path clip-path="url(#p422f2e45a5)" d="M 48.1938 196.606875 
L 508.9938 196.606875 
" style="fill:none;stroke:#cbcbcb;"/>
     </g>
     <g id="line2d_32"/>
     <g id="line2d_33"/>
     <g id="text_12">
      <!-- 4 -->
      <defs>
       <path d="M 37.796875 64.3125 
L 12.890625 25.390625 
L 37.796875 25.390625 
z
M 35.203125 72.90625 
L 47.609375 72.90625 
L 47.609375 25.390625 
L 58.015625 25.390625 
L 58.015625 17.1875 
L 47.609375 17.1875 
L 47.609375 0 
L 37.796875 0 
L 37.796875 17.1875 
L 4.890625 17.1875 
L 4.890625 26.703125 
z
" id="BitstreamVeraSans-Roman-34"/>
      </defs>
      <g transform="translate(36.5588 199.918125)scale(0.12 -0.12)">
       <use xlink:href="#BitstreamVeraSans-Roman-34"/>
      </g>
     </g>
    </g>
    <g id="ytick_4">
     <g id="line2d_34">
      <path clip-path="url(#p422f2e45a5)" d="M 48.1938 135.406875 
L 508.9938 135.406875 
" style="fill:none;stroke:#cbcbcb;"/>
     </g>
     <g id="line2d_35"/>
     <g id="line2d_36"/>
     <g id="text_13">
      <!-- 6 -->
      <defs>
       <path d="M 33.015625 40.375 
Q 26.375 40.375 22.484375 35.828125 
Q 18.609375 31.296875 18.609375 23.390625 
Q 18.609375 15.53125 22.484375 10.953125 
Q 26.375 6.390625 33.015625 6.390625 
Q 39.65625 6.390625 43.53125 10.953125 
Q 47.40625 15.53125 47.40625 23.390625 
Q 47.40625 31.296875 43.53125 35.828125 
Q 39.65625 40.375 33.015625 40.375 
M 52.59375 71.296875 
L 52.59375 62.3125 
Q 48.875 64.0625 45.09375 64.984375 
Q 41.3125 65.921875 37.59375 65.921875 
Q 27.828125 65.921875 22.671875 59.328125 
Q 17.53125 52.734375 16.796875 39.40625 
Q 19.671875 43.65625 24.015625 45.921875 
Q 28.375 48.1875 33.59375 48.1875 
Q 44.578125 48.1875 50.953125 41.515625 
Q 57.328125 34.859375 57.328125 23.390625 
Q 57.328125 12.15625 50.6875 5.359375 
Q 44.046875 -1.421875 33.015625 -1.421875 
Q 20.359375 -1.421875 13.671875 8.265625 
Q 6.984375 17.96875 6.984375 36.375 
Q 6.984375 53.65625 15.1875 63.9375 
Q 23.390625 74.21875 37.203125 74.21875 
Q 40.921875 74.21875 44.703125 73.484375 
Q 48.484375 72.75 52.59375 71.296875 
" id="BitstreamVeraSans-Roman-36"/>
      </defs>
      <g transform="translate(36.5588 138.718125)scale(0.12 -0.12)">
       <use xlink:href="#BitstreamVeraSans-Roman-36"/>
      </g>
     </g>
    </g>
    <g id="ytick_5">
     <g id="line2d_37">
      <path clip-path="url(#p422f2e45a5)" d="M 48.1938 74.206875 
L 508.9938 74.206875 
" style="fill:none;stroke:#cbcbcb;"/>
     </g>
     <g id="line2d_38"/>
     <g id="line2d_39"/>
     <g id="text_14">
      <!-- 8 -->
      <defs>
       <path d="M 31.78125 34.625 
Q 24.75 34.625 20.71875 30.859375 
Q 16.703125 27.09375 16.703125 20.515625 
Q 16.703125 13.921875 20.71875 10.15625 
Q 24.75 6.390625 31.78125 6.390625 
Q 38.8125 6.390625 42.859375 10.171875 
Q 46.921875 13.96875 46.921875 20.515625 
Q 46.921875 27.09375 42.890625 30.859375 
Q 38.875 34.625 31.78125 34.625 
M 21.921875 38.8125 
Q 15.578125 40.375 12.03125 44.71875 
Q 8.5 49.078125 8.5 55.328125 
Q 8.5 64.0625 14.71875 69.140625 
Q 20.953125 74.21875 31.78125 74.21875 
Q 42.671875 74.21875 48.875 69.140625 
Q 55.078125 64.0625 55.078125 55.328125 
Q 55.078125 49.078125 51.53125 44.71875 
Q 48 40.375 41.703125 38.8125 
Q 48.828125 37.15625 52.796875 32.3125 
Q 56.78125 27.484375 56.78125 20.515625 
Q 56.78125 9.90625 50.3125 4.234375 
Q 43.84375 -1.421875 31.78125 -1.421875 
Q 19.734375 -1.421875 13.25 4.234375 
Q 6.78125 9.90625 6.78125 20.515625 
Q 6.78125 27.484375 10.78125 32.3125 
Q 14.796875 37.15625 21.921875 38.8125 
M 18.3125 54.390625 
Q 18.3125 48.734375 21.84375 45.5625 
Q 25.390625 42.390625 31.78125 42.390625 
Q 38.140625 42.390625 41.71875 45.5625 
Q 45.3125 48.734375 45.3125 54.390625 
Q 45.3125 60.0625 41.71875 63.234375 
Q 38.140625 66.40625 31.78125 66.40625 
Q 25.390625 66.40625 21.84375 63.234375 
Q 18.3125 60.0625 18.3125 54.390625 
" id="BitstreamVeraSans-Roman-38"/>
      </defs>
      <g transform="translate(36.5588 77.518125)scale(0.12 -0.12)">
       <use xlink:href="#BitstreamVeraSans-Roman-38"/>
      </g>
     </g>
    </g>
    <g id="ytick_6">
     <g id="line2d_40">
      <path clip-path="url(#p422f2e45a5)" d="M 48.1938 13.006875 
L 508.9938 13.006875 
" style="fill:none;stroke:#cbcbcb;"/>
     </g>
     <g id="line2d_41"/>
     <g id="line2d_42"/>
     <g id="text_15">
      <!-- 10 -->
      <g transform="translate(28.9238 16.318125)scale(0.12 -0.12)">
       <use xlink:href="#BitstreamVeraSans-Roman-31"/>
       <use x="63.623046875" xlink:href="#BitstreamVeraSans-Roman-30"/>
      </g>
     </g>
    </g>
    <g id="text_16">
     <!-- $\sf I $ -->
     <defs>
      <path d="M 9.1875 0 
L 9.1875 69.390625 
L 18.5 69.390625 
L 18.5 0 
z
" id="Cmss10-49"/>
     </defs>
     <g transform="translate(20.3301 168.426075)rotate(-90.0)scale(0.1728 -0.1728)">
      <use transform="translate(0.0 0.609375)" xlink:href="#Cmss10-49"/>
     </g>
    </g>
   </g>
   <g id="line2d_43">
    <path clip-path="url(#p422f2e45a5)" d="M 48.1938 118.132946 
L 278.751947 119.532969 
L 305.901785 119.92058 
L 322.708827 120.369622 
L 334.775422 120.898731 
L 344.687267 121.551509 
L 352.875314 122.313893 
L 359.77051 123.174884 
L 365.803808 124.145717 
L 371.406155 125.27899 
L 376.146603 126.45344 
L 380.456101 127.727601 
L 384.765599 129.234091 
L 388.644147 130.821309 
L 392.522696 132.661588 
L 395.970294 134.539474 
L 399.417893 136.674263 
L 402.865491 139.096677 
L 405.88214 141.478062 
L 408.898788 144.128257 
L 411.915437 147.071321 
L 414.932086 150.333306 
L 417.948734 153.940067 
L 420.965383 157.918685 
L 423.982032 162.295171 
L 426.99868 167.096285 
L 430.015329 172.346718 
L 433.031978 178.072413 
L 436.048626 184.297538 
L 439.065275 191.040717 
L 442.081924 198.323862 
L 445.098572 206.161474 
L 448.115221 214.569739 
L 451.562819 224.888886 
L 455.010418 235.978902 
L 458.458016 247.845075 
L 461.905615 260.488624 
L 465.784163 275.627078 
L 470.093661 293.478326 
L 475.265059 315.003375 
L 476.557908 319.604414 
L 477.419808 322.155033 
L 478.281707 324.06647 
L 478.712657 324.702284 
L 478.712657 324.702284 
" style="fill:none;stroke:#fc4f30;stroke-width:4.0;"/>
   </g>
   <g id="line2d_44">
    <path clip-path="url(#p422f2e45a5)" d="M 48.1938 116.175651 
L 222.550557 117.261844 
L 251.8077 117.660228 
L 269.994572 118.115861 
L 283.437043 118.668289 
L 294.111947 119.328215 
L 302.810016 120.083965 
L 310.321985 120.956646 
L 317.043221 121.966711 
L 322.973723 123.087764 
L 328.113491 124.274949 
L 332.857893 125.585123 
L 337.206927 126.999244 
L 341.555962 128.650925 
L 345.50963 130.389751 
L 349.463298 132.386702 
L 353.021599 134.433301 
L 356.5799 136.744074 
L 359.742835 139.043787 
L 362.905769 141.59767 
L 366.068703 144.428953 
L 369.231638 147.561337 
L 372.394572 151.020633 
L 375.557507 154.832218 
L 378.720441 159.022757 
L 381.883375 163.61768 
L 385.04631 168.643282 
L 388.209244 174.123765 
L 391.372178 180.084735 
L 394.535113 186.549986 
L 397.698047 193.538094 
L 400.860981 201.069842 
L 404.023916 209.163803 
L 407.18685 217.82969 
L 410.745151 228.281897 
L 414.303453 239.489187 
L 417.861754 251.456895 
L 421.420055 264.187494 
L 425.373723 279.224425 
L 429.327391 295.164847 
L 438.420827 332.610939 
L 439.606927 336.352862 
L 440.397661 338.301988 
L 441.188395 339.631699 
L 441.583761 340.00308 
L 441.979128 340.141005 
L 442.374495 340.013956 
L 442.769862 339.58813 
L 443.165229 338.827833 
L 443.165229 338.827833 
" style="fill:none;stroke:#5cb85c;stroke-width:4.0;"/>
   </g>
   <g id="line2d_45">
    <path clip-path="url(#p422f2e45a5)" d="M 48.1938 114.219026 
L 168.108549 115.007275 
L 199.065769 115.424543 
L 218.280595 115.893762 
L 232.5138 116.457039 
L 243.544534 117.104839 
L 252.796117 117.860416 
L 260.624379 118.709033 
L 267.740981 119.70023 
L 274.145924 120.820313 
L 279.839205 122.040729 
L 285.176657 123.417886 
L 290.158279 124.945245 
L 294.78407 126.60879 
L 299.054032 128.386593 
L 302.968163 130.24893 
L 306.882294 132.362413 
L 310.440595 134.526744 
L 313.998897 136.947782 
L 317.557198 139.651619 
L 320.759669 142.349709 
L 323.96214 145.320046 
L 327.164611 148.5851 
L 330.367082 152.167262 
L 333.569553 156.089593 
L 336.772024 160.376125 
L 339.974495 165.04938 
L 343.176966 170.132949 
L 346.379437 175.648374 
L 349.581908 181.618824 
L 352.784379 188.065685 
L 355.98685 195.005915 
L 359.189321 202.4586 
L 362.391792 210.44067 
L 365.950093 219.943458 
L 369.508395 230.132653 
L 373.066696 241.016546 
L 376.624997 252.603678 
L 380.539128 266.17123 
L 384.453259 280.593317 
L 388.367391 295.861596 
L 392.637352 313.414834 
L 400.109785 344.465373 
L 401.533105 349.381508 
L 402.600595 352.363071 
L 403.312256 353.855604 
L 403.668086 354.412601 
L 403.668086 354.412601 
" style="fill:none;stroke:#30a2da;stroke-width:4.0;"/>
   </g>
   <g id="patch_3">
    <path d="M 508.9938 319.006875 
L 508.9938 13.006875 
" style="fill:none;stroke:#ffffff;stroke-linecap:square;stroke-linejoin:miter;stroke-width:3.0;"/>
   </g>
   <g id="patch_4">
    <path d="M 48.1938 319.006875 
L 48.1938 13.006875 
" style="fill:none;stroke:#ffffff;stroke-linecap:square;stroke-linejoin:miter;stroke-width:3.0;"/>
   </g>
   <g id="patch_5">
    <path d="M 48.1938 319.006875 
L 508.9938 319.006875 
" style="fill:none;stroke:#ffffff;stroke-linecap:square;stroke-linejoin:miter;stroke-width:3.0;"/>
   </g>
   <g id="patch_6">
    <path d="M 48.1938 13.006875 
L 508.9938 13.006875 
" style="fill:none;stroke:#ffffff;stroke-linecap:square;stroke-linejoin:miter;stroke-width:3.0;"/>
   </g>
  </g>
 </g>
 <defs>
  <clipPath id="p422f2e45a5">
   <rect height="306.0" width="460.8" x="48.1938" y="13.006875"/>
  </clipPath>
 </defs>
</svg>
