<?xml version="1.0" encoding="utf-8" standalone="no"?>
<!DOCTYPE svg PUBLIC "-//W3C//DTD SVG 1.1//EN"
  "http://www.w3.org/Graphics/SVG/1.1/DTD/svg11.dtd">
<!-- Created with matplotlib (http://matplotlib.org/) -->
<svg height="344pt" version="1.1" viewBox="0 0 557 344" width="557pt" xmlns="http://www.w3.org/2000/svg" xmlns:xlink="http://www.w3.org/1999/xlink">
 <defs>
  <style type="text/css">
*{stroke-linecap:butt;stroke-linejoin:round;stroke-miterlimit:100000;}
  </style>
 </defs>
 <g id="figure_1">
  <g id="patch_1">
   <path d="M 0 344.750625 
L 557.205 344.750625 
L 557.205 0 
L 0 0 
z
" style="fill:none;opacity:0;"/>
  </g>
  <g id="axes_1">
   <g id="patch_2">
    <path d="M 45.87 302.536875 
L 503.7 302.536875 
L 503.7 13.006875 
L 45.87 13.006875 
z
" style="fill:#ffffff;"/>
   </g>
   <g id="matplotlib.axis_1">
    <g id="xtick_1">
     <g id="line2d_1">
      <path clip-path="url(#p14949075fb)" d="M 45.87 302.536875 
L 45.87 13.006875 
" style="fill:none;stroke:#cbcbcb;"/>
     </g>
     <g id="line2d_2"/>
     <g id="line2d_3"/>
     <g id="text_1">
      <!-- 0 -->
      <defs>
       <path d="M 31.78125 66.40625 
Q 24.171875 66.40625 20.328125 58.90625 
Q 16.5 51.421875 16.5 36.375 
Q 16.5 21.390625 20.328125 13.890625 
Q 24.171875 6.390625 31.78125 6.390625 
Q 39.453125 6.390625 43.28125 13.890625 
Q 47.125 21.390625 47.125 36.375 
Q 47.125 51.421875 43.28125 58.90625 
Q 39.453125 66.40625 31.78125 66.40625 
M 31.78125 74.21875 
Q 44.046875 74.21875 50.515625 64.515625 
Q 56.984375 54.828125 56.984375 36.375 
Q 56.984375 17.96875 50.515625 8.265625 
Q 44.046875 -1.421875 31.78125 -1.421875 
Q 19.53125 -1.421875 13.0625 8.265625 
Q 6.59375 17.96875 6.59375 36.375 
Q 6.59375 54.828125 13.0625 64.515625 
Q 19.53125 74.21875 31.78125 74.21875 
" id="BitstreamVeraSans-Roman-30"/>
      </defs>
      <g transform="translate(42.0525 315.655)scale(0.12 -0.12)">
       <use xlink:href="#BitstreamVeraSans-Roman-30"/>
      </g>
     </g>
    </g>
    <g id="xtick_2">
     <g id="line2d_4">
      <path clip-path="url(#p14949075fb)" d="M 111.274286 302.536875 
L 111.274286 13.006875 
" style="fill:none;stroke:#cbcbcb;"/>
     </g>
     <g id="line2d_5"/>
     <g id="line2d_6"/>
     <g id="text_2">
      <!-- 5 -->
      <defs>
       <path d="M 10.796875 72.90625 
L 49.515625 72.90625 
L 49.515625 64.59375 
L 19.828125 64.59375 
L 19.828125 46.734375 
Q 21.96875 47.46875 24.109375 47.828125 
Q 26.265625 48.1875 28.421875 48.1875 
Q 40.625 48.1875 47.75 41.5 
Q 54.890625 34.8125 54.890625 23.390625 
Q 54.890625 11.625 47.5625 5.09375 
Q 40.234375 -1.421875 26.90625 -1.421875 
Q 22.3125 -1.421875 17.546875 -0.640625 
Q 12.796875 0.140625 7.71875 1.703125 
L 7.71875 11.625 
Q 12.109375 9.234375 16.796875 8.0625 
Q 21.484375 6.890625 26.703125 6.890625 
Q 35.15625 6.890625 40.078125 11.328125 
Q 45.015625 15.765625 45.015625 23.390625 
Q 45.015625 31 40.078125 35.4375 
Q 35.15625 39.890625 26.703125 39.890625 
Q 22.75 39.890625 18.8125 39.015625 
Q 14.890625 38.140625 10.796875 36.28125 
z
" id="BitstreamVeraSans-Roman-35"/>
      </defs>
      <g transform="translate(107.456785714 315.655)scale(0.12 -0.12)">
       <use xlink:href="#BitstreamVeraSans-Roman-35"/>
      </g>
     </g>
    </g>
    <g id="xtick_3">
     <g id="line2d_7">
      <path clip-path="url(#p14949075fb)" d="M 176.678571 302.536875 
L 176.678571 13.006875 
" style="fill:none;stroke:#cbcbcb;"/>
     </g>
     <g id="line2d_8"/>
     <g id="line2d_9"/>
     <g id="text_3">
      <!-- 10 -->
      <defs>
       <path d="M 12.40625 8.296875 
L 28.515625 8.296875 
L 28.515625 63.921875 
L 10.984375 60.40625 
L 10.984375 69.390625 
L 28.421875 72.90625 
L 38.28125 72.90625 
L 38.28125 8.296875 
L 54.390625 8.296875 
L 54.390625 0 
L 12.40625 0 
z
" id="BitstreamVeraSans-Roman-31"/>
      </defs>
      <g transform="translate(169.043571429 315.655)scale(0.12 -0.12)">
       <use xlink:href="#BitstreamVeraSans-Roman-31"/>
       <use x="63.623046875" xlink:href="#BitstreamVeraSans-Roman-30"/>
      </g>
     </g>
    </g>
    <g id="xtick_4">
     <g id="line2d_10">
      <path clip-path="url(#p14949075fb)" d="M 242.082857 302.536875 
L 242.082857 13.006875 
" style="fill:none;stroke:#cbcbcb;"/>
     </g>
     <g id="line2d_11"/>
     <g id="line2d_12"/>
     <g id="text_4">
      <!-- 15 -->
      <g transform="translate(234.447857143 315.655)scale(0.12 -0.12)">
       <use xlink:href="#BitstreamVeraSans-Roman-31"/>
       <use x="63.623046875" xlink:href="#BitstreamVeraSans-Roman-35"/>
      </g>
     </g>
    </g>
    <g id="xtick_5">
     <g id="line2d_13">
      <path clip-path="url(#p14949075fb)" d="M 307.487143 302.536875 
L 307.487143 13.006875 
" style="fill:none;stroke:#cbcbcb;"/>
     </g>
     <g id="line2d_14"/>
     <g id="line2d_15"/>
     <g id="text_5">
      <!-- 20 -->
      <defs>
       <path d="M 19.1875 8.296875 
L 53.609375 8.296875 
L 53.609375 0 
L 7.328125 0 
L 7.328125 8.296875 
Q 12.9375 14.109375 22.625 23.890625 
Q 32.328125 33.6875 34.8125 36.53125 
Q 39.546875 41.84375 41.421875 45.53125 
Q 43.3125 49.21875 43.3125 52.78125 
Q 43.3125 58.59375 39.234375 62.25 
Q 35.15625 65.921875 28.609375 65.921875 
Q 23.96875 65.921875 18.8125 64.3125 
Q 13.671875 62.703125 7.8125 59.421875 
L 7.8125 69.390625 
Q 13.765625 71.78125 18.9375 73 
Q 24.125 74.21875 28.421875 74.21875 
Q 39.75 74.21875 46.484375 68.546875 
Q 53.21875 62.890625 53.21875 53.421875 
Q 53.21875 48.921875 51.53125 44.890625 
Q 49.859375 40.875 45.40625 35.40625 
Q 44.1875 33.984375 37.640625 27.21875 
Q 31.109375 20.453125 19.1875 8.296875 
" id="BitstreamVeraSans-Roman-32"/>
      </defs>
      <g transform="translate(299.852142857 315.655)scale(0.12 -0.12)">
       <use xlink:href="#BitstreamVeraSans-Roman-32"/>
       <use x="63.623046875" xlink:href="#BitstreamVeraSans-Roman-30"/>
      </g>
     </g>
    </g>
    <g id="xtick_6">
     <g id="line2d_16">
      <path clip-path="url(#p14949075fb)" d="M 372.891429 302.536875 
L 372.891429 13.006875 
" style="fill:none;stroke:#cbcbcb;"/>
     </g>
     <g id="line2d_17"/>
     <g id="line2d_18"/>
     <g id="text_6">
      <!-- 25 -->
      <g transform="translate(365.256428571 315.655)scale(0.12 -0.12)">
       <use xlink:href="#BitstreamVeraSans-Roman-32"/>
       <use x="63.623046875" xlink:href="#BitstreamVeraSans-Roman-35"/>
      </g>
     </g>
    </g>
    <g id="xtick_7">
     <g id="line2d_19">
      <path clip-path="url(#p14949075fb)" d="M 438.295714 302.536875 
L 438.295714 13.006875 
" style="fill:none;stroke:#cbcbcb;"/>
     </g>
     <g id="line2d_20"/>
     <g id="line2d_21"/>
     <g id="text_7">
      <!-- 30 -->
      <defs>
       <path d="M 40.578125 39.3125 
Q 47.65625 37.796875 51.625 33 
Q 55.609375 28.21875 55.609375 21.1875 
Q 55.609375 10.40625 48.1875 4.484375 
Q 40.765625 -1.421875 27.09375 -1.421875 
Q 22.515625 -1.421875 17.65625 -0.515625 
Q 12.796875 0.390625 7.625 2.203125 
L 7.625 11.71875 
Q 11.71875 9.328125 16.59375 8.109375 
Q 21.484375 6.890625 26.8125 6.890625 
Q 36.078125 6.890625 40.9375 10.546875 
Q 45.796875 14.203125 45.796875 21.1875 
Q 45.796875 27.640625 41.28125 31.265625 
Q 36.765625 34.90625 28.71875 34.90625 
L 20.21875 34.90625 
L 20.21875 43.015625 
L 29.109375 43.015625 
Q 36.375 43.015625 40.234375 45.921875 
Q 44.09375 48.828125 44.09375 54.296875 
Q 44.09375 59.90625 40.109375 62.90625 
Q 36.140625 65.921875 28.71875 65.921875 
Q 24.65625 65.921875 20.015625 65.03125 
Q 15.375 64.15625 9.8125 62.3125 
L 9.8125 71.09375 
Q 15.4375 72.65625 20.34375 73.4375 
Q 25.25 74.21875 29.59375 74.21875 
Q 40.828125 74.21875 47.359375 69.109375 
Q 53.90625 64.015625 53.90625 55.328125 
Q 53.90625 49.265625 50.4375 45.09375 
Q 46.96875 40.921875 40.578125 39.3125 
" id="BitstreamVeraSans-Roman-33"/>
      </defs>
      <g transform="translate(430.660714286 315.655)scale(0.12 -0.12)">
       <use xlink:href="#BitstreamVeraSans-Roman-33"/>
       <use x="63.623046875" xlink:href="#BitstreamVeraSans-Roman-30"/>
      </g>
     </g>
    </g>
    <g id="xtick_8">
     <g id="line2d_22">
      <path clip-path="url(#p14949075fb)" d="M 503.7 302.536875 
L 503.7 13.006875 
" style="fill:none;stroke:#cbcbcb;"/>
     </g>
     <g id="line2d_23"/>
     <g id="line2d_24"/>
     <g id="text_8">
      <!-- 35 -->
      <g transform="translate(496.065 315.655)scale(0.12 -0.12)">
       <use xlink:href="#BitstreamVeraSans-Roman-33"/>
       <use x="63.623046875" xlink:href="#BitstreamVeraSans-Roman-35"/>
      </g>
     </g>
    </g>
    <g id="text_9">
     <!-- $\sf V (V)$ -->
     <defs>
      <path d="M 6.5 -25 
Q 5.609375 -25 5.609375 -24.125 
Q 5.609375 -23.6875 5.8125 -23.484375 
Q 22.90625 -6.78125 22.90625 25 
Q 22.90625 56.78125 6 73.296875 
Q 5.609375 73.53125 5.609375 74.125 
Q 5.609375 74.46875 5.875 74.734375 
Q 6.15625 75 6.5 75 
L 7.421875 75 
Q 7.71875 75 7.90625 74.8125 
Q 15.09375 69.140625 19.875 61.03125 
Q 24.65625 52.9375 26.875 43.75 
Q 29.109375 34.578125 29.109375 25 
Q 29.109375 17.921875 27.90625 11.0625 
Q 26.703125 4.203125 24.09375 -2.453125 
Q 21.484375 -9.125 17.484375 -14.765625 
Q 13.484375 -20.40625 7.90625 -24.8125 
Q 7.71875 -25 7.421875 -25 
z
" id="Cmr10-29"/>
      <path d="M 31 -24.8125 
Q 25.4375 -20.40625 21.40625 -14.71875 
Q 17.390625 -9.03125 14.8125 -2.578125 
Q 12.25 3.859375 10.984375 10.890625 
Q 9.71875 17.921875 9.71875 25 
Q 9.71875 32.171875 10.984375 39.203125 
Q 12.25 46.234375 14.859375 52.734375 
Q 17.484375 59.234375 21.53125 64.890625 
Q 25.59375 70.5625 31 74.8125 
Q 31 75 31.5 75 
L 32.421875 75 
Q 32.71875 75 32.953125 74.734375 
Q 33.203125 74.46875 33.203125 74.125 
Q 33.203125 73.6875 33.015625 73.484375 
Q 28.125 68.703125 24.875 63.234375 
Q 21.625 57.765625 19.640625 51.578125 
Q 17.671875 45.40625 16.796875 38.78125 
Q 15.921875 32.171875 15.921875 25 
Q 15.921875 -6.78125 32.90625 -23.296875 
Q 33.203125 -23.578125 33.203125 -24.125 
Q 33.203125 -24.359375 32.9375 -24.671875 
Q 32.671875 -25 32.421875 -25 
L 31.5 -25 
Q 31 -25 31 -24.8125 
" id="Cmr10-28"/>
      <path d="M 28.515625 0 
L 1.421875 69.390625 
L 11.078125 69.390625 
Q 13.765625 62.5 20.109375 46.0625 
Q 26.46875 29.640625 30.25 19.265625 
Q 34.03125 8.890625 34.078125 7.328125 
Q 34.078125 8.9375 37.84375 19.28125 
Q 41.609375 29.640625 47.953125 46.0625 
Q 54.296875 62.5 56.984375 69.390625 
L 65.1875 69.390625 
L 38.09375 0 
z
" id="Cmss10-56"/>
     </defs>
     <g transform="translate(259.593 333.950625)scale(0.144 -0.144)">
      <use xlink:href="#Cmss10-56"/>
      <use transform="translate(66.6015625 0.0)" xlink:href="#Cmr10-28"/>
      <use transform="translate(105.419921875 0.0)" xlink:href="#Cmss10-56"/>
      <use transform="translate(172.021484375 0.0)" xlink:href="#Cmr10-29"/>
     </g>
    </g>
   </g>
   <g id="matplotlib.axis_2">
    <g id="ytick_1">
     <g id="line2d_25">
      <path clip-path="url(#p14949075fb)" d="M 45.87 302.536875 
L 503.7 302.536875 
" style="fill:none;stroke:#cbcbcb;"/>
     </g>
     <g id="line2d_26"/>
     <g id="text_10">
      <!-- 0 -->
      <g transform="translate(34.235 305.848125)scale(0.12 -0.12)">
       <use xlink:href="#BitstreamVeraSans-Roman-30"/>
      </g>
     </g>
    </g>
    <g id="ytick_2">
     <g id="line2d_27">
      <path clip-path="url(#p14949075fb)" d="M 45.87 244.630875 
L 503.7 244.630875 
" style="fill:none;stroke:#cbcbcb;"/>
     </g>
     <g id="line2d_28"/>
     <g id="text_11">
      <!-- 2 -->
      <g transform="translate(34.235 247.942125)scale(0.12 -0.12)">
       <use xlink:href="#BitstreamVeraSans-Roman-32"/>
      </g>
     </g>
    </g>
    <g id="ytick_3">
     <g id="line2d_29">
      <path clip-path="url(#p14949075fb)" d="M 45.87 186.724875 
L 503.7 186.724875 
" style="fill:none;stroke:#cbcbcb;"/>
     </g>
     <g id="line2d_30"/>
     <g id="text_12">
      <!-- 4 -->
      <defs>
       <path d="M 37.796875 64.3125 
L 12.890625 25.390625 
L 37.796875 25.390625 
z
M 35.203125 72.90625 
L 47.609375 72.90625 
L 47.609375 25.390625 
L 58.015625 25.390625 
L 58.015625 17.1875 
L 47.609375 17.1875 
L 47.609375 0 
L 37.796875 0 
L 37.796875 17.1875 
L 4.890625 17.1875 
L 4.890625 26.703125 
z
" id="BitstreamVeraSans-Roman-34"/>
      </defs>
      <g transform="translate(34.235 190.036125)scale(0.12 -0.12)">
       <use xlink:href="#BitstreamVeraSans-Roman-34"/>
      </g>
     </g>
    </g>
    <g id="ytick_4">
     <g id="line2d_31">
      <path clip-path="url(#p14949075fb)" d="M 45.87 128.818875 
L 503.7 128.818875 
" style="fill:none;stroke:#cbcbcb;"/>
     </g>
     <g id="line2d_32"/>
     <g id="text_13">
      <!-- 6 -->
      <defs>
       <path d="M 33.015625 40.375 
Q 26.375 40.375 22.484375 35.828125 
Q 18.609375 31.296875 18.609375 23.390625 
Q 18.609375 15.53125 22.484375 10.953125 
Q 26.375 6.390625 33.015625 6.390625 
Q 39.65625 6.390625 43.53125 10.953125 
Q 47.40625 15.53125 47.40625 23.390625 
Q 47.40625 31.296875 43.53125 35.828125 
Q 39.65625 40.375 33.015625 40.375 
M 52.59375 71.296875 
L 52.59375 62.3125 
Q 48.875 64.0625 45.09375 64.984375 
Q 41.3125 65.921875 37.59375 65.921875 
Q 27.828125 65.921875 22.671875 59.328125 
Q 17.53125 52.734375 16.796875 39.40625 
Q 19.671875 43.65625 24.015625 45.921875 
Q 28.375 48.1875 33.59375 48.1875 
Q 44.578125 48.1875 50.953125 41.515625 
Q 57.328125 34.859375 57.328125 23.390625 
Q 57.328125 12.15625 50.6875 5.359375 
Q 44.046875 -1.421875 33.015625 -1.421875 
Q 20.359375 -1.421875 13.671875 8.265625 
Q 6.984375 17.96875 6.984375 36.375 
Q 6.984375 53.65625 15.1875 63.9375 
Q 23.390625 74.21875 37.203125 74.21875 
Q 40.921875 74.21875 44.703125 73.484375 
Q 48.484375 72.75 52.59375 71.296875 
" id="BitstreamVeraSans-Roman-36"/>
      </defs>
      <g transform="translate(34.235 132.130125)scale(0.12 -0.12)">
       <use xlink:href="#BitstreamVeraSans-Roman-36"/>
      </g>
     </g>
    </g>
    <g id="ytick_5">
     <g id="line2d_33">
      <path clip-path="url(#p14949075fb)" d="M 45.87 70.912875 
L 503.7 70.912875 
" style="fill:none;stroke:#cbcbcb;"/>
     </g>
     <g id="line2d_34"/>
     <g id="text_14">
      <!-- 8 -->
      <defs>
       <path d="M 31.78125 34.625 
Q 24.75 34.625 20.71875 30.859375 
Q 16.703125 27.09375 16.703125 20.515625 
Q 16.703125 13.921875 20.71875 10.15625 
Q 24.75 6.390625 31.78125 6.390625 
Q 38.8125 6.390625 42.859375 10.171875 
Q 46.921875 13.96875 46.921875 20.515625 
Q 46.921875 27.09375 42.890625 30.859375 
Q 38.875 34.625 31.78125 34.625 
M 21.921875 38.8125 
Q 15.578125 40.375 12.03125 44.71875 
Q 8.5 49.078125 8.5 55.328125 
Q 8.5 64.0625 14.71875 69.140625 
Q 20.953125 74.21875 31.78125 74.21875 
Q 42.671875 74.21875 48.875 69.140625 
Q 55.078125 64.0625 55.078125 55.328125 
Q 55.078125 49.078125 51.53125 44.71875 
Q 48 40.375 41.703125 38.8125 
Q 48.828125 37.15625 52.796875 32.3125 
Q 56.78125 27.484375 56.78125 20.515625 
Q 56.78125 9.90625 50.3125 4.234375 
Q 43.84375 -1.421875 31.78125 -1.421875 
Q 19.734375 -1.421875 13.25 4.234375 
Q 6.78125 9.90625 6.78125 20.515625 
Q 6.78125 27.484375 10.78125 32.3125 
Q 14.796875 37.15625 21.921875 38.8125 
M 18.3125 54.390625 
Q 18.3125 48.734375 21.84375 45.5625 
Q 25.390625 42.390625 31.78125 42.390625 
Q 38.140625 42.390625 41.71875 45.5625 
Q 45.3125 48.734375 45.3125 54.390625 
Q 45.3125 60.0625 41.71875 63.234375 
Q 38.140625 66.40625 31.78125 66.40625 
Q 25.390625 66.40625 21.84375 63.234375 
Q 18.3125 60.0625 18.3125 54.390625 
" id="BitstreamVeraSans-Roman-38"/>
      </defs>
      <g transform="translate(34.235 74.224125)scale(0.12 -0.12)">
       <use xlink:href="#BitstreamVeraSans-Roman-38"/>
      </g>
     </g>
    </g>
    <g id="ytick_6">
     <g id="line2d_35">
      <path clip-path="url(#p14949075fb)" d="M 45.87 13.006875 
L 503.7 13.006875 
" style="fill:none;stroke:#cbcbcb;"/>
     </g>
     <g id="line2d_36"/>
     <g id="text_15">
      <!-- 10 -->
      <g transform="translate(26.6 16.318125)scale(0.12 -0.12)">
       <use xlink:href="#BitstreamVeraSans-Roman-31"/>
       <use x="63.623046875" xlink:href="#BitstreamVeraSans-Roman-30"/>
      </g>
     </g>
    </g>
    <g id="text_16">
     <!-- $\sf I (A) $ -->
     <defs>
      <path d="M 2.78125 0 
L 28.71875 69.390625 
L 37.890625 69.390625 
L 63.8125 0 
L 54.203125 0 
Q 50.25 10.6875 46.78125 19.921875 
L 18.015625 19.921875 
Q 13.578125 7.765625 10.59375 0 
z
M 20.21875 25.875 
L 44.578125 25.875 
Q 40.09375 38.28125 37.8125 44.796875 
Q 35.546875 51.3125 34.03125 56.078125 
Q 32.515625 60.84375 32.515625 62.109375 
L 32.421875 62.109375 
Q 32.421875 61.140625 31.421875 57.8125 
Q 30.421875 54.5 28.859375 49.953125 
Q 27.296875 45.40625 24.09375 36.546875 
Q 20.90625 27.6875 20.21875 25.875 
" id="Cmss10-41"/>
      <path d="M 9.1875 0 
L 9.1875 69.390625 
L 18.5 69.390625 
L 18.5 0 
z
" id="Cmss10-49"/>
     </defs>
     <g transform="translate(18.0 170.155875)rotate(-90.0)scale(0.144 -0.144)">
      <use xlink:href="#Cmss10-49"/>
      <use transform="translate(27.685546875 0.0)" xlink:href="#Cmr10-28"/>
      <use transform="translate(66.50390625 0.0)" xlink:href="#Cmss10-41"/>
      <use transform="translate(133.10546875 0.0)" xlink:href="#Cmr10-29"/>
     </g>
    </g>
   </g>
   <g id="line2d_37">
    <path clip-path="url(#p14949075fb)" d="M 45.87 255.021328 
L 289.976096 256.42964 
L 316.819378 256.801414 
L 333.596429 257.23847 
L 346.179217 257.784828 
L 355.406595 258.386254 
L 363.795121 259.15515 
L 370.505942 259.981859 
L 376.37791 260.909333 
L 381.411025 261.895516 
L 386.44414 263.098968 
L 390.638403 264.300956 
L 394.832666 265.71709 
L 399.026929 267.383116 
L 402.382339 268.922933 
L 405.737749 270.671787 
L 409.093159 272.654593 
L 412.44857 274.898721 
L 415.80398 277.433447 
L 419.15939 280.289929 
L 422.5148 283.500394 
L 425.870211 287.099581 
L 429.225621 291.12211 
L 432.581031 295.604177 
L 435.936441 300.580038 
L 439.291852 306.083612 
L 442.647262 312.149525 
L 446.002672 318.807701 
L 449.358082 326.085229 
L 452.713493 334.009398 
L 456.068903 342.597966 
L 457.236133 345.750625 
L 457.236133 345.750625 
" style="fill:none;stroke:#fc4f30;stroke-dasharray:6.000000,6.000000;stroke-dashoffset:0.0;stroke-width:4.0;"/>
   </g>
   <g id="line2d_38">
    <path clip-path="url(#p14949075fb)" d="M 45.87 207.505782 
L 285.781833 208.894319 
L 312.625115 209.271497 
L 329.402166 209.716745 
L 341.146102 210.228521 
L 351.212333 210.88869 
L 359.600858 211.67442 
L 366.311679 212.519395 
L 372.183647 213.467418 
L 377.216762 214.475423 
L 382.249877 215.705399 
L 386.44414 216.933717 
L 390.638403 218.380626 
L 394.832666 220.082489 
L 398.188076 221.655054 
L 401.543486 223.440674 
L 404.898897 225.464584 
L 408.254307 227.754499 
L 411.609717 230.340019 
L 414.965127 233.252277 
L 418.320538 236.524616 
L 421.675948 240.191099 
L 425.031358 244.287188 
L 428.386768 248.847814 
L 431.742179 253.908403 
L 435.097589 259.502118 
L 438.452999 265.663577 
L 441.808409 272.422121 
L 445.16382 279.804117 
L 448.51923 287.836806 
L 451.87464 296.536555 
L 455.23005 305.922736 
L 458.585461 316.006533 
L 461.940871 326.792972 
L 464.457429 335.346267 
L 464.457429 335.346267 
" style="fill:none;stroke:#5cb85c;stroke-dasharray:6.000000,6.000000;stroke-dashoffset:0.0;stroke-width:4.0;"/>
   </g>
   <g id="line2d_39">
    <path clip-path="url(#p14949075fb)" d="M 45.87 159.990236 
L 280.748717 161.350633 
L 307.591999 161.724995 
L 324.369051 162.165974 
L 336.951839 162.717722 
L 346.179217 163.325331 
L 354.567743 164.102291 
L 361.278563 164.937751 
L 367.150531 165.87507 
L 372.183647 166.871708 
L 377.216762 168.08787 
L 381.411025 169.302477 
L 385.605288 170.733362 
L 389.799551 172.416566 
L 393.154961 173.972084 
L 396.510371 175.738568 
L 399.865781 177.741086 
L 403.221192 180.007176 
L 406.576602 182.566271 
L 409.932012 185.449373 
L 413.287422 188.689679 
L 416.642833 192.321174 
L 419.998243 196.379235 
L 423.353653 200.898826 
L 426.709063 205.915395 
L 430.064474 211.462293 
L 433.419884 217.574139 
L 436.775294 224.28058 
L 440.130704 231.608366 
L 443.486115 239.58475 
L 446.841525 248.226839 
L 450.196935 257.554028 
L 453.552345 267.577895 
L 456.907756 278.3041 
L 460.263166 289.735025 
L 463.618576 301.868606 
L 464.457429 305.009923 
L 464.457429 305.009923 
" style="fill:none;stroke:#30a2da;stroke-dasharray:6.000000,6.000000;stroke-dashoffset:0.0;stroke-width:4.0;"/>
   </g>
   <g id="line2d_40">
    <path clip-path="url(#p14949075fb)" d="M 45.87 112.47469 
L 275.715602 113.806963 
L 302.558884 114.178543 
L 319.335935 114.615305 
L 331.918724 115.161259 
L 341.146102 115.762222 
L 349.534628 116.530514 
L 356.245448 117.356567 
L 362.117416 118.283303 
L 367.150531 119.268702 
L 372.183647 120.471201 
L 376.37791 121.672243 
L 380.572172 123.087271 
L 384.766435 124.752008 
L 388.121845 126.290648 
L 391.477256 128.038179 
L 394.832666 130.019506 
L 398.188076 132.261986 
L 401.543486 134.794883 
L 404.898897 137.649344 
L 408.254307 140.85759 
L 411.609717 144.45435 
L 414.965127 148.474243 
L 418.320538 152.953457 
L 421.675948 157.926258 
L 425.031358 163.426575 
L 428.386768 169.489033 
L 431.742179 176.143578 
L 435.097589 183.417323 
L 438.452999 191.337561 
L 441.808409 199.922098 
L 445.16382 209.191453 
L 448.51923 219.154392 
L 451.87464 229.820388 
L 455.23005 241.191249 
L 458.585461 253.265386 
L 462.779723 269.312119 
L 464.457429 275.993316 
L 464.457429 275.993316 
" style="fill:none;stroke:#e5ae38;stroke-dasharray:6.000000,6.000000;stroke-dashoffset:0.0;stroke-width:4.0;"/>
   </g>
   <g id="line2d_41">
    <path clip-path="url(#p14949075fb)" d="M 45.87 64.959144 
L 271.521339 66.27164 
L 298.364621 66.64862 
L 315.141672 67.093566 
L 326.885608 67.604964 
L 336.951839 68.264624 
L 345.340365 69.049736 
L 352.051185 69.894041 
L 357.923153 70.841309 
L 362.956269 71.848513 
L 367.989384 73.077516 
L 372.183647 74.304868 
L 376.37791 75.750648 
L 380.572172 77.451196 
L 383.927583 79.022561 
L 387.282993 80.806834 
L 390.638403 82.829237 
L 393.993813 85.117475 
L 397.349224 87.701135 
L 400.704634 90.611342 
L 404.060044 93.881427 
L 407.415454 97.545449 
L 410.770865 101.638863 
L 414.126275 106.196604 
L 417.481685 111.254099 
L 420.837095 116.844525 
L 424.192506 123.002498 
L 427.547916 129.757383 
L 430.903326 137.135574 
L 434.258736 145.164311 
L 437.614147 153.860014 
L 440.969557 163.242057 
L 444.324967 173.321651 
L 447.680377 184.103866 
L 451.035788 195.590605 
L 454.391198 207.779346 
L 458.585461 223.957571 
L 464.457429 247.511815 
L 464.457429 247.511815 
" style="fill:none;stroke:#8b8b8b;stroke-dasharray:6.000000,6.000000;stroke-dashoffset:0.0;stroke-width:4.0;"/>
   </g>
   <g id="patch_3">
    <path d="M 503.7 302.536875 
L 503.7 13.006875 
" style="fill:none;stroke:#ffffff;stroke-linecap:square;stroke-linejoin:miter;stroke-width:3.0;"/>
   </g>
   <g id="patch_4">
    <path d="M 45.87 302.536875 
L 503.7 302.536875 
" style="fill:none;stroke:#ffffff;stroke-linecap:square;stroke-linejoin:miter;stroke-width:3.0;"/>
   </g>
   <g id="patch_5">
    <path d="M 45.87 13.006875 
L 503.7 13.006875 
" style="fill:none;stroke:#ffffff;stroke-linecap:square;stroke-linejoin:miter;stroke-width:3.0;"/>
   </g>
   <g id="patch_6">
    <path d="M 45.87 302.536875 
L 45.87 13.006875 
" style="fill:none;stroke:#ffffff;stroke-linecap:square;stroke-linejoin:miter;stroke-width:3.0;"/>
   </g>
   <g id="text_17">
    <!-- $\sf 200\, W/m^2$ -->
    <defs>
     <path d="M 4.984375 0 
L 4.984375 2.6875 
Q 4.984375 2.9375 5.171875 3.21875 
L 20.703125 20.40625 
Q 24.21875 24.21875 26.40625 26.796875 
Q 28.609375 29.390625 30.75 32.765625 
Q 32.90625 36.140625 34.15625 39.625 
Q 35.40625 43.109375 35.40625 47.015625 
Q 35.40625 51.125 33.890625 54.859375 
Q 32.375 58.59375 29.375 60.84375 
Q 26.375 63.09375 22.125 63.09375 
Q 17.78125 63.09375 14.3125 60.46875 
Q 10.84375 57.859375 9.421875 53.71875 
Q 9.8125 53.8125 10.5 53.8125 
Q 12.75 53.8125 14.328125 52.296875 
Q 15.921875 50.78125 15.921875 48.390625 
Q 15.921875 46.09375 14.328125 44.5 
Q 12.75 42.921875 10.5 42.921875 
Q 8.15625 42.921875 6.5625 44.546875 
Q 4.984375 46.1875 4.984375 48.390625 
Q 4.984375 52.15625 6.390625 55.4375 
Q 7.8125 58.734375 10.46875 61.296875 
Q 13.140625 63.875 16.484375 65.234375 
Q 19.828125 66.609375 23.578125 66.609375 
Q 29.296875 66.609375 34.21875 64.1875 
Q 39.15625 61.765625 42.03125 57.34375 
Q 44.921875 52.9375 44.921875 47.015625 
Q 44.921875 42.671875 43.015625 38.765625 
Q 41.109375 34.859375 38.125 31.65625 
Q 35.15625 28.46875 30.515625 24.40625 
Q 25.875 20.359375 24.421875 19 
L 13.09375 8.109375 
L 22.703125 8.109375 
Q 29.78125 8.109375 34.546875 8.21875 
Q 39.3125 8.34375 39.59375 8.59375 
Q 40.765625 9.859375 42 17.828125 
L 44.921875 17.828125 
L 42.09375 0 
z
" id="Cmr10-32"/>
     <path d="M 21.578125 0 
L 1.421875 69.390625 
L 10.40625 69.390625 
Q 14.5 55.328125 16.53125 48.296875 
Q 18.5625 41.265625 20.90625 32.8125 
Q 23.25 24.359375 25.03125 16.90625 
Q 26.8125 9.46875 26.8125 7.328125 
Q 26.90625 9.578125 28.53125 16.234375 
Q 30.171875 22.90625 33.09375 33.46875 
Q 36.03125 44.046875 38.453125 52.46875 
Q 40.875 60.890625 43.3125 69.390625 
L 51.8125 69.390625 
Q 55.28125 57.46875 57.734375 48.921875 
Q 60.203125 40.375 62.625 31.6875 
Q 65.046875 23 66.765625 15.984375 
Q 68.5 8.984375 68.5 7.328125 
Q 68.5625 9.03125 70.28125 16.015625 
Q 72.015625 23 74.4375 31.6875 
Q 76.859375 40.375 79.171875 48.40625 
Q 81.5 56.453125 85.296875 69.390625 
L 92.921875 69.390625 
L 72.703125 0 
L 63.625 0 
Q 60.0625 12.203125 56.125 25.953125 
Q 52.203125 39.703125 49.5625 49.75 
Q 46.921875 59.8125 46.921875 62.109375 
Q 46.875 59.96875 44.046875 49.21875 
Q 41.21875 38.484375 37.421875 25.34375 
Q 33.640625 12.203125 30.078125 0 
z
" id="Cmss10-57"/>
     <path d="M 5.609375 -23 
Q 5.609375 -22.703125 5.71875 -22.609375 
L 40.484375 73.78125 
Q 40.671875 74.359375 41.15625 74.671875 
Q 41.65625 75 42.28125 75 
Q 43.171875 75 43.71875 74.453125 
Q 44.28125 73.921875 44.28125 73 
L 44.28125 72.609375 
L 9.515625 -23.78125 
Q 8.9375 -25 7.625 -25 
Q 6.78125 -25 6.1875 -24.40625 
Q 5.609375 -23.828125 5.609375 -23 
" id="Cmmi10-3d"/>
     <path d="M 25 -2.203125 
Q 12.75 -2.203125 8.328125 7.875 
Q 3.90625 17.96875 3.90625 31.890625 
Q 3.90625 40.578125 5.484375 48.234375 
Q 7.078125 55.90625 11.78125 61.25 
Q 16.5 66.609375 25 66.609375 
Q 31.59375 66.609375 35.78125 63.375 
Q 39.984375 60.15625 42.1875 55.046875 
Q 44.390625 49.953125 45.1875 44.109375 
Q 46 38.28125 46 31.890625 
Q 46 23.296875 44.40625 15.796875 
Q 42.828125 8.296875 38.1875 3.046875 
Q 33.546875 -2.203125 25 -2.203125 
M 25 0.390625 
Q 30.5625 0.390625 33.296875 6.09375 
Q 36.03125 11.8125 36.671875 18.75 
Q 37.3125 25.6875 37.3125 33.5 
Q 37.3125 41.015625 36.671875 47.359375 
Q 36.03125 53.71875 33.3125 58.859375 
Q 30.609375 64.015625 25 64.015625 
Q 19.34375 64.015625 16.609375 58.828125 
Q 13.875 53.65625 13.234375 47.328125 
Q 12.59375 41.015625 12.59375 33.5 
Q 12.59375 27.9375 12.859375 23 
Q 13.140625 18.0625 14.3125 12.8125 
Q 15.484375 7.5625 18.09375 3.96875 
Q 20.703125 0.390625 25 0.390625 
" id="Cmr10-30"/>
     <path d="M 7.90625 0 
L 7.90625 45.015625 
L 15.484375 45.015625 
L 15.484375 38.1875 
Q 18.171875 41.65625 21.921875 43.578125 
Q 25.6875 45.515625 29.984375 45.515625 
Q 40.046875 45.515625 42.671875 37.5 
Q 45.359375 41.21875 49.34375 43.359375 
Q 53.328125 45.515625 57.71875 45.515625 
Q 65.1875 45.515625 68.328125 41.3125 
Q 71.484375 37.109375 71.484375 29.390625 
L 71.484375 0 
L 63.28125 0 
L 63.28125 29.390625 
Q 63.28125 39.015625 53.421875 39.015625 
Q 50.09375 39.015625 47.890625 36.796875 
Q 45.703125 34.578125 44.75 31.328125 
Q 43.796875 28.078125 43.796875 24.8125 
L 43.796875 0 
L 35.59375 0 
L 35.59375 29.390625 
Q 35.59375 34.421875 33.125 36.71875 
Q 30.671875 39.015625 25.6875 39.015625 
Q 22.3125 39.015625 20.15625 36.796875 
Q 18.015625 34.578125 17.0625 31.328125 
Q 16.109375 28.078125 16.109375 24.8125 
L 16.109375 0 
z
" id="Cmss10-6d"/>
    </defs>
    <g transform="translate(72.0317142857 249.230728426)scale(0.12 -0.12)">
     <use transform="translate(0.0 0.5484375000000057)" xlink:href="#Cmr10-32"/>
     <use transform="translate(50.0 0.5484375000000057)" xlink:href="#Cmr10-30"/>
     <use transform="translate(100.0 0.5484375000000057)" xlink:href="#Cmr10-30"/>
     <use transform="translate(163.2326865234375 0.5484375000000057)" xlink:href="#Cmss10-57"/>
     <use transform="translate(257.6174521484375 0.5484375000000057)" xlink:href="#Cmmi10-3d"/>
     <use transform="translate(307.6174521484375 0.5484375000000057)" xlink:href="#Cmss10-6d"/>
     <use transform="translate(391.6582333984375 40.37343750000001)scale(0.7)" xlink:href="#Cmr10-32"/>
    </g>
   </g>
   <g id="text_18">
    <!-- $\sf 400\, W/m^2$ -->
    <defs>
     <path d="M 2.78125 16.5 
L 2.78125 20.015625 
L 33.6875 66.109375 
Q 34.03125 66.609375 34.71875 66.609375 
L 36.1875 66.609375 
Q 37.3125 66.609375 37.3125 65.484375 
L 37.3125 20.015625 
L 47.125 20.015625 
L 47.125 16.5 
L 37.3125 16.5 
L 37.3125 6.6875 
Q 37.3125 4.640625 40.234375 4.078125 
Q 43.171875 3.515625 47.015625 3.515625 
L 47.015625 0 
L 19.484375 0 
L 19.484375 3.515625 
Q 23.34375 3.515625 26.265625 4.078125 
Q 29.203125 4.640625 29.203125 6.6875 
L 29.203125 16.5 
z
M 6.109375 20.015625 
L 29.78125 20.015625 
L 29.78125 55.421875 
z
" id="Cmr10-34"/>
    </defs>
    <g transform="translate(72.0317142857 201.715181994)scale(0.12 -0.12)">
     <use transform="translate(0.0 0.5484375000000057)" xlink:href="#Cmr10-34"/>
     <use transform="translate(50.0 0.5484375000000057)" xlink:href="#Cmr10-30"/>
     <use transform="translate(100.0 0.5484375000000057)" xlink:href="#Cmr10-30"/>
     <use transform="translate(163.2326865234375 0.5484375000000057)" xlink:href="#Cmss10-57"/>
     <use transform="translate(257.6174521484375 0.5484375000000057)" xlink:href="#Cmmi10-3d"/>
     <use transform="translate(307.6174521484375 0.5484375000000057)" xlink:href="#Cmss10-6d"/>
     <use transform="translate(391.6582333984375 40.37343750000001)scale(0.7)" xlink:href="#Cmr10-32"/>
    </g>
   </g>
   <g id="text_19">
    <!-- $\sf 600\, W/m^2$ -->
    <defs>
     <path d="M 25 -2.203125 
Q 18.796875 -2.203125 14.640625 1.09375 
Q 10.5 4.390625 8.21875 9.640625 
Q 5.953125 14.890625 5.078125 20.65625 
Q 4.203125 26.421875 4.203125 32.328125 
Q 4.203125 40.234375 7.28125 48.1875 
Q 10.359375 56.15625 16.328125 61.375 
Q 22.3125 66.609375 30.515625 66.609375 
Q 33.9375 66.609375 36.890625 65.3125 
Q 39.84375 64.015625 41.53125 61.5 
Q 43.21875 58.984375 43.21875 55.421875 
Q 43.21875 53.375 41.828125 51.984375 
Q 40.4375 50.59375 38.375 50.59375 
Q 36.421875 50.59375 35 52 
Q 33.59375 53.421875 33.59375 55.421875 
Q 33.59375 57.375 35 58.78125 
Q 36.421875 60.203125 38.375 60.203125 
L 38.921875 60.203125 
Q 37.640625 62.015625 35.328125 62.859375 
Q 33.015625 63.71875 30.515625 63.71875 
Q 27.484375 63.71875 24.921875 62.390625 
Q 22.359375 61.078125 20.3125 58.828125 
Q 18.265625 56.59375 16.890625 53.875 
Q 15.53125 51.171875 14.765625 47.703125 
Q 14.015625 44.234375 13.8125 41.203125 
Q 13.625 38.1875 13.625 33.59375 
Q 15.375 37.703125 18.59375 40.3125 
Q 21.828125 42.921875 25.875 42.921875 
Q 30.328125 42.921875 33.984375 41.109375 
Q 37.640625 39.3125 40.28125 36.109375 
Q 42.921875 32.90625 44.3125 28.796875 
Q 45.703125 24.703125 45.703125 20.515625 
Q 45.703125 14.65625 43.09375 9.34375 
Q 40.484375 4.046875 35.734375 0.921875 
Q 31 -2.203125 25 -2.203125 
M 25 0.984375 
Q 28.859375 0.984375 31.203125 2.734375 
Q 33.546875 4.5 34.640625 7.390625 
Q 35.75 10.296875 36.015625 13.25 
Q 36.28125 16.21875 36.28125 20.515625 
Q 36.28125 26.171875 35.734375 30.171875 
Q 35.203125 34.1875 32.8125 37.234375 
Q 30.421875 40.28125 25.484375 40.28125 
Q 21.4375 40.28125 18.828125 37.546875 
Q 16.21875 34.8125 15.015625 30.640625 
Q 13.8125 26.46875 13.8125 22.609375 
Q 13.8125 21.296875 13.921875 20.609375 
Q 13.921875 20.453125 13.890625 20.359375 
Q 13.875 20.265625 13.8125 20.125 
Q 13.8125 15.828125 14.6875 11.421875 
Q 15.578125 7.03125 18.0625 4 
Q 20.5625 0.984375 25 0.984375 
" id="Cmr10-36"/>
    </defs>
    <g transform="translate(72.0317142857 154.199635738)scale(0.12 -0.12)">
     <use transform="translate(0.0 0.5484375000000057)" xlink:href="#Cmr10-36"/>
     <use transform="translate(50.0 0.5484375000000057)" xlink:href="#Cmr10-30"/>
     <use transform="translate(100.0 0.5484375000000057)" xlink:href="#Cmr10-30"/>
     <use transform="translate(163.2326865234375 0.5484375000000057)" xlink:href="#Cmss10-57"/>
     <use transform="translate(257.6174521484375 0.5484375000000057)" xlink:href="#Cmmi10-3d"/>
     <use transform="translate(307.6174521484375 0.5484375000000057)" xlink:href="#Cmss10-6d"/>
     <use transform="translate(391.6582333984375 40.37343750000001)scale(0.7)" xlink:href="#Cmr10-32"/>
    </g>
   </g>
   <g id="text_20">
    <!-- $\sf 800\, W/m^2$ -->
    <defs>
     <path d="M 4.203125 15.1875 
Q 4.203125 21.1875 8.15625 25.796875 
Q 12.109375 30.421875 18.3125 33.5 
L 14.59375 35.890625 
Q 11.1875 38.140625 9.03125 41.875 
Q 6.890625 45.609375 6.890625 49.703125 
Q 6.890625 54.5 9.40625 58.34375 
Q 11.921875 62.203125 16.09375 64.40625 
Q 20.265625 66.609375 25 66.609375 
Q 29.4375 66.609375 33.5625 64.796875 
Q 37.703125 62.984375 40.359375 59.609375 
Q 43.015625 56.25 43.015625 51.609375 
Q 43.015625 48.25 41.421875 45.359375 
Q 39.84375 42.484375 37.078125 40.1875 
Q 34.328125 37.890625 31.203125 36.28125 
L 36.921875 32.625 
Q 40.875 30.03125 43.28125 25.828125 
Q 45.703125 21.625 45.703125 17 
Q 45.703125 11.578125 42.796875 7.125 
Q 39.890625 2.6875 35.109375 0.234375 
Q 30.328125 -2.203125 25 -2.203125 
Q 19.828125 -2.203125 15.015625 -0.09375 
Q 10.203125 2 7.203125 5.984375 
Q 4.203125 9.96875 4.203125 15.1875 
M 9.625 15.1875 
Q 9.625 11.234375 11.796875 7.953125 
Q 13.96875 4.6875 17.53125 2.828125 
Q 21.09375 0.984375 25 0.984375 
Q 30.8125 0.984375 35.546875 4.375 
Q 40.28125 7.765625 40.28125 13.375 
Q 40.28125 15.28125 39.515625 17.15625 
Q 38.765625 19.046875 37.421875 20.578125 
Q 36.078125 22.125 34.421875 23.09375 
L 21 31.78125 
Q 17.875 30.125 15.25 27.578125 
Q 12.640625 25.046875 11.125 21.875 
Q 9.625 18.703125 9.625 15.1875 
M 16.5 45.703125 
L 28.609375 37.890625 
Q 32.8125 40.328125 35.5 43.796875 
Q 38.1875 47.265625 38.1875 51.609375 
Q 38.1875 54.984375 36.296875 57.78125 
Q 34.421875 60.59375 31.390625 62.15625 
Q 28.375 63.71875 24.90625 63.71875 
Q 21.875 63.71875 18.796875 62.546875 
Q 15.71875 61.375 13.71875 59.046875 
Q 11.71875 56.734375 11.71875 53.609375 
Q 11.71875 48.921875 16.5 45.703125 
" id="Cmr10-38"/>
    </defs>
    <g transform="translate(72.0317142857 106.684089695)scale(0.12 -0.12)">
     <use transform="translate(0.0 0.5484375000000057)" xlink:href="#Cmr10-38"/>
     <use transform="translate(50.0 0.5484375000000057)" xlink:href="#Cmr10-30"/>
     <use transform="translate(100.0 0.5484375000000057)" xlink:href="#Cmr10-30"/>
     <use transform="translate(163.2326865234375 0.5484375000000057)" xlink:href="#Cmss10-57"/>
     <use transform="translate(257.6174521484375 0.5484375000000057)" xlink:href="#Cmmi10-3d"/>
     <use transform="translate(307.6174521484375 0.5484375000000057)" xlink:href="#Cmss10-6d"/>
     <use transform="translate(391.6582333984375 40.37343750000001)scale(0.7)" xlink:href="#Cmr10-32"/>
    </g>
   </g>
   <g id="text_21">
    <!-- $\sf 1000\, W/m^2$ -->
    <defs>
     <path d="M 9.28125 0 
L 9.28125 3.515625 
Q 21.78125 3.515625 21.78125 6.6875 
L 21.78125 59.1875 
Q 16.609375 56.6875 8.6875 56.6875 
L 8.6875 60.203125 
Q 20.953125 60.203125 27.203125 66.609375 
L 28.609375 66.609375 
Q 28.953125 66.609375 29.265625 66.328125 
Q 29.59375 66.0625 29.59375 65.71875 
L 29.59375 6.6875 
Q 29.59375 3.515625 42.09375 3.515625 
L 42.09375 0 
z
" id="Cmr10-31"/>
    </defs>
    <g transform="translate(72.0317142857 59.1685439131)scale(0.12 -0.12)">
     <use transform="translate(0.0 0.5484375000000057)" xlink:href="#Cmr10-31"/>
     <use transform="translate(50.0 0.5484375000000057)" xlink:href="#Cmr10-30"/>
     <use transform="translate(100.0 0.5484375000000057)" xlink:href="#Cmr10-30"/>
     <use transform="translate(150.0 0.5484375000000057)" xlink:href="#Cmr10-30"/>
     <use transform="translate(213.2326865234375 0.5484375000000057)" xlink:href="#Cmss10-57"/>
     <use transform="translate(307.6174521484375 0.5484375000000057)" xlink:href="#Cmmi10-3d"/>
     <use transform="translate(357.6174521484375 0.5484375000000057)" xlink:href="#Cmss10-6d"/>
     <use transform="translate(441.6582333984375 40.37343750000001)scale(0.7)" xlink:href="#Cmr10-32"/>
    </g>
   </g>
  </g>
  <g id="axes_2">
   <g id="matplotlib.axis_3">
    <g id="ytick_7">
     <g id="line2d_42">
      <path clip-path="url(#p14949075fb)" d="M 45.87 302.536875 
L 503.7 302.536875 
" style="fill:none;stroke:#cbcbcb;"/>
     </g>
     <g id="line2d_43"/>
     <g id="text_22">
      <!-- 0 -->
      <g transform="translate(507.7 305.848125)scale(0.12 -0.12)">
       <use xlink:href="#BitstreamVeraSans-Roman-30"/>
      </g>
     </g>
    </g>
    <g id="ytick_8">
     <g id="line2d_44">
      <path clip-path="url(#p14949075fb)" d="M 45.87 233.601161 
L 503.7 233.601161 
" style="fill:none;stroke:#cbcbcb;"/>
     </g>
     <g id="line2d_45"/>
     <g id="text_23">
      <!-- 50 -->
      <g transform="translate(507.7 236.912410714)scale(0.12 -0.12)">
       <use xlink:href="#BitstreamVeraSans-Roman-35"/>
       <use x="63.623046875" xlink:href="#BitstreamVeraSans-Roman-30"/>
      </g>
     </g>
    </g>
    <g id="ytick_9">
     <g id="line2d_46">
      <path clip-path="url(#p14949075fb)" d="M 45.87 164.665446 
L 503.7 164.665446 
" style="fill:none;stroke:#cbcbcb;"/>
     </g>
     <g id="line2d_47"/>
     <g id="text_24">
      <!-- 100 -->
      <g transform="translate(507.7 167.976696429)scale(0.12 -0.12)">
       <use xlink:href="#BitstreamVeraSans-Roman-31"/>
       <use x="63.623046875" xlink:href="#BitstreamVeraSans-Roman-30"/>
       <use x="127.24609375" xlink:href="#BitstreamVeraSans-Roman-30"/>
      </g>
     </g>
    </g>
    <g id="ytick_10">
     <g id="line2d_48">
      <path clip-path="url(#p14949075fb)" d="M 45.87 95.729732 
L 503.7 95.729732 
" style="fill:none;stroke:#cbcbcb;"/>
     </g>
     <g id="line2d_49"/>
     <g id="text_25">
      <!-- 150 -->
      <g transform="translate(507.7 99.0409821429)scale(0.12 -0.12)">
       <use xlink:href="#BitstreamVeraSans-Roman-31"/>
       <use x="63.623046875" xlink:href="#BitstreamVeraSans-Roman-35"/>
       <use x="127.24609375" xlink:href="#BitstreamVeraSans-Roman-30"/>
      </g>
     </g>
    </g>
    <g id="ytick_11">
     <g id="line2d_50">
      <path clip-path="url(#p14949075fb)" d="M 45.87 26.794018 
L 503.7 26.794018 
" style="fill:none;stroke:#cbcbcb;"/>
     </g>
     <g id="line2d_51"/>
     <g id="text_26">
      <!-- 200 -->
      <g transform="translate(507.7 30.1052678571)scale(0.12 -0.12)">
       <use xlink:href="#BitstreamVeraSans-Roman-32"/>
       <use x="63.623046875" xlink:href="#BitstreamVeraSans-Roman-30"/>
       <use x="127.24609375" xlink:href="#BitstreamVeraSans-Roman-30"/>
      </g>
     </g>
    </g>
    <g id="text_27">
     <!-- $\sf P (W)$ -->
     <defs>
      <path d="M 9.421875 0 
L 9.421875 69.390625 
L 34.71875 69.390625 
Q 39.0625 69.390625 43.265625 67.9375 
Q 47.46875 66.5 50.828125 63.84375 
Q 54.203125 61.1875 56.203125 57.421875 
Q 58.203125 53.65625 58.203125 49.125 
Q 58.203125 43.109375 54.8125 38.390625 
Q 51.421875 33.6875 45.96875 31.09375 
Q 40.53125 28.515625 34.71875 28.515625 
L 18.703125 28.515625 
L 18.703125 0 
z
M 18.40625 34.71875 
L 32.328125 34.71875 
Q 36.921875 34.71875 40.875 36.328125 
Q 44.828125 37.9375 47.265625 41.203125 
Q 49.703125 44.484375 49.703125 49.125 
Q 49.703125 53.65625 47.265625 56.921875 
Q 44.828125 60.203125 40.84375 61.78125 
Q 36.859375 63.375 32.328125 63.375 
L 18.40625 63.375 
z
" id="Cmss10-50"/>
     </defs>
     <g transform="translate(546.405 174.763875)rotate(-90.0)scale(0.144 -0.144)">
      <use xlink:href="#Cmss10-50"/>
      <use transform="translate(63.818359375 0.0)" xlink:href="#Cmr10-28"/>
      <use transform="translate(102.63671875 0.0)" xlink:href="#Cmss10-57"/>
      <use transform="translate(197.021484375 0.0)" xlink:href="#Cmr10-29"/>
     </g>
    </g>
   </g>
   <g id="line2d_52">
    <path clip-path="url(#p14949075fb)" d="M 45.87 302.536875 
L 122.358254 289.419858 
L 198.005978 276.671271 
L 265.2484 265.553565 
L 302.231732 259.636934 
L 322.404458 256.615952 
L 335.852942 254.802859 
L 346.779836 253.550739 
L 355.185138 252.803209 
L 361.909381 252.401361 
L 367.793092 252.243119 
L 373.676804 252.320062 
L 378.719986 252.623558 
L 382.922637 253.083272 
L 387.125289 253.769543 
L 390.48741 254.509998 
L 393.849531 255.447499 
L 397.211652 256.610197 
L 400.573773 258.029645 
L 403.935894 259.741038 
L 406.457485 261.2398 
L 408.979076 262.942459 
L 411.500666 264.868434 
L 414.022257 267.038254 
L 416.543848 269.473729 
L 419.065439 272.197922 
L 421.58703 275.234431 
L 424.10862 278.609457 
L 426.630211 282.348901 
L 429.151802 286.479853 
L 431.673393 291.031114 
L 434.194984 296.029661 
L 436.716574 301.504719 
L 439.238165 307.483498 
L 441.759756 313.99623 
L 444.281347 321.071543 
L 446.802938 328.734902 
L 449.324528 337.011295 
L 451.796709 345.750625 
L 451.796709 345.750625 
" style="fill:none;stroke:#fc4f30;stroke-width:4.0;"/>
   </g>
   <g id="line2d_53">
    <path clip-path="url(#p14949075fb)" d="M 45.87 302.536875 
L 123.353133 275.848197 
L 200.836267 249.393952 
L 266.528489 227.183992 
L 301.059016 215.713954 
L 320.429799 209.494726 
L 333.905127 205.389085 
L 344.011622 202.527299 
L 352.433702 200.367733 
L 359.171366 198.852095 
L 365.066822 197.734935 
L 370.120069 196.977132 
L 375.173317 196.450468 
L 379.384357 196.227307 
L 383.595397 196.240239 
L 386.964229 196.450075 
L 390.333061 196.865169 
L 393.701893 197.514734 
L 397.070725 198.431472 
L 399.597348 199.316115 
L 402.123972 200.388554 
L 404.650596 201.666388 
L 407.17722 203.169176 
L 409.703844 204.91757 
L 412.230468 206.933501 
L 414.757092 209.23974 
L 417.283716 211.861138 
L 419.81034 214.822851 
L 422.336964 218.151207 
L 424.863588 221.873946 
L 427.390212 226.01814 
L 429.916835 230.612442 
L 432.443459 235.68461 
L 434.970083 241.264155 
L 437.496707 247.378826 
L 440.023331 254.058053 
L 442.549955 261.32567 
L 445.076579 269.209613 
L 447.603203 277.735843 
L 450.129827 286.924066 
L 452.656451 296.799832 
L 455.183075 307.379052 
L 458.551907 322.615783 
L 461.920738 339.173331 
L 463.186294 345.750625 
L 463.186294 345.750625 
" style="fill:none;stroke:#5cb85c;stroke-width:4.0;"/>
   </g>
   <g id="line2d_54">
    <path clip-path="url(#p14949075fb)" d="M 45.87 302.536875 
L 126.039139 261.060045 
L 205.364393 220.267617 
L 269.499705 187.5156 
L 300.723475 171.783758 
L 319.28896 162.659567 
L 331.947245 156.664891 
L 342.073873 152.106278 
L 350.51273 148.559706 
L 357.263815 145.959948 
L 363.171015 143.919256 
L 368.234329 142.393692 
L 372.453757 141.317391 
L 376.673186 140.45505 
L 380.892614 139.847201 
L 384.268157 139.575772 
L 387.643699 139.525182 
L 391.019242 139.726583 
L 393.550899 140.063776 
L 396.082556 140.57851 
L 398.614213 141.28776 
L 401.14587 142.21029 
L 403.677527 143.366002 
L 406.209184 144.776087 
L 408.740841 146.462998 
L 411.272498 148.449876 
L 413.804155 150.762198 
L 416.335812 153.425441 
L 418.86747 156.466252 
L 421.399127 159.912842 
L 423.930784 163.792152 
L 426.462441 168.133034 
L 428.994098 172.962855 
L 431.525755 178.311387 
L 434.057412 184.207128 
L 436.589069 190.676071 
L 439.120726 197.743718 
L 441.652383 205.438398 
L 444.18404 213.7822 
L 446.715697 222.795614 
L 449.247354 232.504623 
L 451.779011 242.921299 
L 455.154554 257.94783 
L 458.530096 274.302211 
L 461.905639 292.011735 
L 465.281182 311.085175 
L 466.968953 321.124787 
L 466.968953 321.124787 
" style="fill:none;stroke:#30a2da;stroke-width:4.0;"/>
   </g>
   <g id="line2d_55">
    <path clip-path="url(#p14949075fb)" d="M 45.87 302.536875 
L 129.580775 244.753721 
L 211.600423 188.405624 
L 272.480987 146.819277 
L 301.230142 127.414684 
L 318.986973 115.685095 
L 330.82486 108.104518 
L 340.126057 102.381249 
L 347.736128 97.929047 
L 354.500635 94.216305 
L 360.419578 91.220248 
L 365.492959 88.8934 
L 369.720776 87.164588 
L 373.948593 85.666329 
L 377.330846 84.662668 
L 380.7131 83.859778 
L 384.095353 83.28643 
L 387.477607 82.97486 
L 390.014297 82.934439 
L 392.550987 83.078283 
L 395.087677 83.423795 
L 397.624367 83.990306 
L 400.161057 84.798246 
L 402.697748 85.869325 
L 405.234438 87.226105 
L 407.771128 88.893203 
L 410.307818 90.895567 
L 412.844508 93.259319 
L 415.381198 96.011983 
L 417.917888 99.180457 
L 420.454579 102.7932 
L 422.991269 106.877806 
L 425.527959 111.463605 
L 428.064649 116.578199 
L 430.601339 122.250871 
L 433.138029 128.505332 
L 435.674719 135.369396 
L 438.21141 142.868938 
L 440.7481 151.023524 
L 443.28479 159.858699 
L 445.82148 169.390207 
L 448.35817 179.640432 
L 450.89486 190.619121 
L 454.277114 206.424569 
L 457.659367 223.575948 
L 461.041621 242.08575 
L 464.423874 261.887413 
L 467.806128 282.560229 
L 467.806128 282.560229 
" style="fill:none;stroke:#e5ae38;stroke-width:4.0;"/>
   </g>
   <g id="line2d_56">
    <path clip-path="url(#p14949075fb)" d="M 45.87 302.536875 
L 133.135832 227.211112 
L 217.859941 154.368759 
L 275.472335 105.092446 
L 301.736809 82.885237 
L 317.834389 69.534181 
L 329.695764 59.9632 
L 339.015416 52.713343 
L 346.640586 47.04911 
L 353.418515 42.298179 
L 359.349203 38.433853 
L 364.432649 35.400616 
L 368.668854 33.115991 
L 372.90506 31.097182 
L 376.294024 29.706514 
L 379.682989 28.546417 
L 383.071953 27.649304 
L 385.613676 27.170629 
L 388.1554 26.877105 
L 390.697123 26.786192 
L 393.238846 26.917319 
L 395.780569 27.291 
L 398.322293 27.929024 
L 400.864016 28.853999 
L 403.405739 30.090641 
L 405.947462 31.663927 
L 408.489186 33.600006 
L 411.030909 35.926465 
L 413.572632 38.670115 
L 416.114355 41.859406 
L 418.656079 45.521774 
L 421.197802 49.686553 
L 423.739525 54.382108 
L 426.281248 59.634882 
L 428.822972 65.470837 
L 431.364695 71.916862 
L 433.906418 78.998778 
L 436.448142 86.735261 
L 438.989865 95.152268 
L 441.531588 104.264449 
L 444.073311 114.094823 
L 446.615035 124.653807 
L 449.156758 135.957066 
L 452.545722 152.2014 
L 455.934687 169.797972 
L 459.323651 188.69516 
L 466.10158 227.566449 
L 466.948821 231.561623 
L 467.796062 234.883399 
L 468.643303 237.22309 
L 468.643303 237.22309 
" style="fill:none;stroke:#8b8b8b;stroke-width:4.0;"/>
   </g>
   <g id="patch_7">
    <path d="M 503.7 302.536875 
L 503.7 13.006875 
" style="fill:none;stroke:#ffffff;stroke-linecap:square;stroke-linejoin:miter;stroke-width:3.0;"/>
   </g>
   <g id="patch_8">
    <path d="M 45.87 302.536875 
L 503.7 302.536875 
" style="fill:none;stroke:#ffffff;stroke-linecap:square;stroke-linejoin:miter;stroke-width:3.0;"/>
   </g>
   <g id="patch_9">
    <path d="M 45.87 13.006875 
L 503.7 13.006875 
" style="fill:none;stroke:#ffffff;stroke-linecap:square;stroke-linejoin:miter;stroke-width:3.0;"/>
   </g>
   <g id="patch_10">
    <path d="M 45.87 302.536875 
L 45.87 13.006875 
" style="fill:none;stroke:#ffffff;stroke-linecap:square;stroke-linejoin:miter;stroke-width:3.0;"/>
   </g>
  </g>
 </g>
 <defs>
  <clipPath id="p14949075fb">
   <rect height="289.53" width="457.83" x="45.87" y="13.006875"/>
  </clipPath>
 </defs>
</svg>
