<?xml version="1.0" encoding="utf-8" standalone="no"?>
<!DOCTYPE svg PUBLIC "-//W3C//DTD SVG 1.1//EN"
  "http://www.w3.org/Graphics/SVG/1.1/DTD/svg11.dtd">
<!-- Created with matplotlib (http://matplotlib.org/) -->
<svg height="344pt" version="1.1" viewBox="0 0 557 344" width="557pt" xmlns="http://www.w3.org/2000/svg" xmlns:xlink="http://www.w3.org/1999/xlink">
 <defs>
  <style type="text/css">
*{stroke-linecap:butt;stroke-linejoin:round;stroke-miterlimit:100000;}
  </style>
 </defs>
 <g id="figure_1">
  <g id="patch_1">
   <path d="M 0 344.750625 
L 557.205 344.750625 
L 557.205 0 
L 0 0 
z
" style="fill:none;opacity:0;"/>
  </g>
  <g id="axes_1">
   <g id="patch_2">
    <path d="M 45.87 302.536875 
L 503.7 302.536875 
L 503.7 13.006875 
L 45.87 13.006875 
z
" style="fill:#ffffff;"/>
   </g>
   <g id="matplotlib.axis_1">
    <g id="xtick_1">
     <g id="line2d_1">
      <path clip-path="url(#pe75093a333)" d="M 45.87 302.536875 
L 45.87 13.006875 
" style="fill:none;stroke:#cbcbcb;"/>
     </g>
     <g id="line2d_2"/>
     <g id="line2d_3"/>
     <g id="text_1">
      <!-- 0 -->
      <defs>
       <path d="M 31.78125 66.40625 
Q 24.171875 66.40625 20.328125 58.90625 
Q 16.5 51.421875 16.5 36.375 
Q 16.5 21.390625 20.328125 13.890625 
Q 24.171875 6.390625 31.78125 6.390625 
Q 39.453125 6.390625 43.28125 13.890625 
Q 47.125 21.390625 47.125 36.375 
Q 47.125 51.421875 43.28125 58.90625 
Q 39.453125 66.40625 31.78125 66.40625 
M 31.78125 74.21875 
Q 44.046875 74.21875 50.515625 64.515625 
Q 56.984375 54.828125 56.984375 36.375 
Q 56.984375 17.96875 50.515625 8.265625 
Q 44.046875 -1.421875 31.78125 -1.421875 
Q 19.53125 -1.421875 13.0625 8.265625 
Q 6.59375 17.96875 6.59375 36.375 
Q 6.59375 54.828125 13.0625 64.515625 
Q 19.53125 74.21875 31.78125 74.21875 
" id="BitstreamVeraSans-Roman-30"/>
      </defs>
      <g transform="translate(42.0525 315.655)scale(0.12 -0.12)">
       <use xlink:href="#BitstreamVeraSans-Roman-30"/>
      </g>
     </g>
    </g>
    <g id="xtick_2">
     <g id="line2d_4">
      <path clip-path="url(#pe75093a333)" d="M 111.274286 302.536875 
L 111.274286 13.006875 
" style="fill:none;stroke:#cbcbcb;"/>
     </g>
     <g id="line2d_5"/>
     <g id="line2d_6"/>
     <g id="text_2">
      <!-- 5 -->
      <defs>
       <path d="M 10.796875 72.90625 
L 49.515625 72.90625 
L 49.515625 64.59375 
L 19.828125 64.59375 
L 19.828125 46.734375 
Q 21.96875 47.46875 24.109375 47.828125 
Q 26.265625 48.1875 28.421875 48.1875 
Q 40.625 48.1875 47.75 41.5 
Q 54.890625 34.8125 54.890625 23.390625 
Q 54.890625 11.625 47.5625 5.09375 
Q 40.234375 -1.421875 26.90625 -1.421875 
Q 22.3125 -1.421875 17.546875 -0.640625 
Q 12.796875 0.140625 7.71875 1.703125 
L 7.71875 11.625 
Q 12.109375 9.234375 16.796875 8.0625 
Q 21.484375 6.890625 26.703125 6.890625 
Q 35.15625 6.890625 40.078125 11.328125 
Q 45.015625 15.765625 45.015625 23.390625 
Q 45.015625 31 40.078125 35.4375 
Q 35.15625 39.890625 26.703125 39.890625 
Q 22.75 39.890625 18.8125 39.015625 
Q 14.890625 38.140625 10.796875 36.28125 
z
" id="BitstreamVeraSans-Roman-35"/>
      </defs>
      <g transform="translate(107.456785714 315.655)scale(0.12 -0.12)">
       <use xlink:href="#BitstreamVeraSans-Roman-35"/>
      </g>
     </g>
    </g>
    <g id="xtick_3">
     <g id="line2d_7">
      <path clip-path="url(#pe75093a333)" d="M 176.678571 302.536875 
L 176.678571 13.006875 
" style="fill:none;stroke:#cbcbcb;"/>
     </g>
     <g id="line2d_8"/>
     <g id="line2d_9"/>
     <g id="text_3">
      <!-- 10 -->
      <defs>
       <path d="M 12.40625 8.296875 
L 28.515625 8.296875 
L 28.515625 63.921875 
L 10.984375 60.40625 
L 10.984375 69.390625 
L 28.421875 72.90625 
L 38.28125 72.90625 
L 38.28125 8.296875 
L 54.390625 8.296875 
L 54.390625 0 
L 12.40625 0 
z
" id="BitstreamVeraSans-Roman-31"/>
      </defs>
      <g transform="translate(169.043571429 315.655)scale(0.12 -0.12)">
       <use xlink:href="#BitstreamVeraSans-Roman-31"/>
       <use x="63.623046875" xlink:href="#BitstreamVeraSans-Roman-30"/>
      </g>
     </g>
    </g>
    <g id="xtick_4">
     <g id="line2d_10">
      <path clip-path="url(#pe75093a333)" d="M 242.082857 302.536875 
L 242.082857 13.006875 
" style="fill:none;stroke:#cbcbcb;"/>
     </g>
     <g id="line2d_11"/>
     <g id="line2d_12"/>
     <g id="text_4">
      <!-- 15 -->
      <g transform="translate(234.447857143 315.655)scale(0.12 -0.12)">
       <use xlink:href="#BitstreamVeraSans-Roman-31"/>
       <use x="63.623046875" xlink:href="#BitstreamVeraSans-Roman-35"/>
      </g>
     </g>
    </g>
    <g id="xtick_5">
     <g id="line2d_13">
      <path clip-path="url(#pe75093a333)" d="M 307.487143 302.536875 
L 307.487143 13.006875 
" style="fill:none;stroke:#cbcbcb;"/>
     </g>
     <g id="line2d_14"/>
     <g id="line2d_15"/>
     <g id="text_5">
      <!-- 20 -->
      <defs>
       <path d="M 19.1875 8.296875 
L 53.609375 8.296875 
L 53.609375 0 
L 7.328125 0 
L 7.328125 8.296875 
Q 12.9375 14.109375 22.625 23.890625 
Q 32.328125 33.6875 34.8125 36.53125 
Q 39.546875 41.84375 41.421875 45.53125 
Q 43.3125 49.21875 43.3125 52.78125 
Q 43.3125 58.59375 39.234375 62.25 
Q 35.15625 65.921875 28.609375 65.921875 
Q 23.96875 65.921875 18.8125 64.3125 
Q 13.671875 62.703125 7.8125 59.421875 
L 7.8125 69.390625 
Q 13.765625 71.78125 18.9375 73 
Q 24.125 74.21875 28.421875 74.21875 
Q 39.75 74.21875 46.484375 68.546875 
Q 53.21875 62.890625 53.21875 53.421875 
Q 53.21875 48.921875 51.53125 44.890625 
Q 49.859375 40.875 45.40625 35.40625 
Q 44.1875 33.984375 37.640625 27.21875 
Q 31.109375 20.453125 19.1875 8.296875 
" id="BitstreamVeraSans-Roman-32"/>
      </defs>
      <g transform="translate(299.852142857 315.655)scale(0.12 -0.12)">
       <use xlink:href="#BitstreamVeraSans-Roman-32"/>
       <use x="63.623046875" xlink:href="#BitstreamVeraSans-Roman-30"/>
      </g>
     </g>
    </g>
    <g id="xtick_6">
     <g id="line2d_16">
      <path clip-path="url(#pe75093a333)" d="M 372.891429 302.536875 
L 372.891429 13.006875 
" style="fill:none;stroke:#cbcbcb;"/>
     </g>
     <g id="line2d_17"/>
     <g id="line2d_18"/>
     <g id="text_6">
      <!-- 25 -->
      <g transform="translate(365.256428571 315.655)scale(0.12 -0.12)">
       <use xlink:href="#BitstreamVeraSans-Roman-32"/>
       <use x="63.623046875" xlink:href="#BitstreamVeraSans-Roman-35"/>
      </g>
     </g>
    </g>
    <g id="xtick_7">
     <g id="line2d_19">
      <path clip-path="url(#pe75093a333)" d="M 438.295714 302.536875 
L 438.295714 13.006875 
" style="fill:none;stroke:#cbcbcb;"/>
     </g>
     <g id="line2d_20"/>
     <g id="line2d_21"/>
     <g id="text_7">
      <!-- 30 -->
      <defs>
       <path d="M 40.578125 39.3125 
Q 47.65625 37.796875 51.625 33 
Q 55.609375 28.21875 55.609375 21.1875 
Q 55.609375 10.40625 48.1875 4.484375 
Q 40.765625 -1.421875 27.09375 -1.421875 
Q 22.515625 -1.421875 17.65625 -0.515625 
Q 12.796875 0.390625 7.625 2.203125 
L 7.625 11.71875 
Q 11.71875 9.328125 16.59375 8.109375 
Q 21.484375 6.890625 26.8125 6.890625 
Q 36.078125 6.890625 40.9375 10.546875 
Q 45.796875 14.203125 45.796875 21.1875 
Q 45.796875 27.640625 41.28125 31.265625 
Q 36.765625 34.90625 28.71875 34.90625 
L 20.21875 34.90625 
L 20.21875 43.015625 
L 29.109375 43.015625 
Q 36.375 43.015625 40.234375 45.921875 
Q 44.09375 48.828125 44.09375 54.296875 
Q 44.09375 59.90625 40.109375 62.90625 
Q 36.140625 65.921875 28.71875 65.921875 
Q 24.65625 65.921875 20.015625 65.03125 
Q 15.375 64.15625 9.8125 62.3125 
L 9.8125 71.09375 
Q 15.4375 72.65625 20.34375 73.4375 
Q 25.25 74.21875 29.59375 74.21875 
Q 40.828125 74.21875 47.359375 69.109375 
Q 53.90625 64.015625 53.90625 55.328125 
Q 53.90625 49.265625 50.4375 45.09375 
Q 46.96875 40.921875 40.578125 39.3125 
" id="BitstreamVeraSans-Roman-33"/>
      </defs>
      <g transform="translate(430.660714286 315.655)scale(0.12 -0.12)">
       <use xlink:href="#BitstreamVeraSans-Roman-33"/>
       <use x="63.623046875" xlink:href="#BitstreamVeraSans-Roman-30"/>
      </g>
     </g>
    </g>
    <g id="xtick_8">
     <g id="line2d_22">
      <path clip-path="url(#pe75093a333)" d="M 503.7 302.536875 
L 503.7 13.006875 
" style="fill:none;stroke:#cbcbcb;"/>
     </g>
     <g id="line2d_23"/>
     <g id="line2d_24"/>
     <g id="text_8">
      <!-- 35 -->
      <g transform="translate(496.065 315.655)scale(0.12 -0.12)">
       <use xlink:href="#BitstreamVeraSans-Roman-33"/>
       <use x="63.623046875" xlink:href="#BitstreamVeraSans-Roman-35"/>
      </g>
     </g>
    </g>
    <g id="text_9">
     <!-- $\sf V \,(V) $ -->
     <defs>
      <path d="M 6.5 -25 
Q 5.609375 -25 5.609375 -24.125 
Q 5.609375 -23.6875 5.8125 -23.484375 
Q 22.90625 -6.78125 22.90625 25 
Q 22.90625 56.78125 6 73.296875 
Q 5.609375 73.53125 5.609375 74.125 
Q 5.609375 74.46875 5.875 74.734375 
Q 6.15625 75 6.5 75 
L 7.421875 75 
Q 7.71875 75 7.90625 74.8125 
Q 15.09375 69.140625 19.875 61.03125 
Q 24.65625 52.9375 26.875 43.75 
Q 29.109375 34.578125 29.109375 25 
Q 29.109375 17.921875 27.90625 11.0625 
Q 26.703125 4.203125 24.09375 -2.453125 
Q 21.484375 -9.125 17.484375 -14.765625 
Q 13.484375 -20.40625 7.90625 -24.8125 
Q 7.71875 -25 7.421875 -25 
z
" id="Cmr10-29"/>
      <path d="M 31 -24.8125 
Q 25.4375 -20.40625 21.40625 -14.71875 
Q 17.390625 -9.03125 14.8125 -2.578125 
Q 12.25 3.859375 10.984375 10.890625 
Q 9.71875 17.921875 9.71875 25 
Q 9.71875 32.171875 10.984375 39.203125 
Q 12.25 46.234375 14.859375 52.734375 
Q 17.484375 59.234375 21.53125 64.890625 
Q 25.59375 70.5625 31 74.8125 
Q 31 75 31.5 75 
L 32.421875 75 
Q 32.71875 75 32.953125 74.734375 
Q 33.203125 74.46875 33.203125 74.125 
Q 33.203125 73.6875 33.015625 73.484375 
Q 28.125 68.703125 24.875 63.234375 
Q 21.625 57.765625 19.640625 51.578125 
Q 17.671875 45.40625 16.796875 38.78125 
Q 15.921875 32.171875 15.921875 25 
Q 15.921875 -6.78125 32.90625 -23.296875 
Q 33.203125 -23.578125 33.203125 -24.125 
Q 33.203125 -24.359375 32.9375 -24.671875 
Q 32.671875 -25 32.421875 -25 
L 31.5 -25 
Q 31 -25 31 -24.8125 
" id="Cmr10-28"/>
      <path d="M 28.515625 0 
L 1.421875 69.390625 
L 11.078125 69.390625 
Q 13.765625 62.5 20.109375 46.0625 
Q 26.46875 29.640625 30.25 19.265625 
Q 34.03125 8.890625 34.078125 7.328125 
Q 34.078125 8.9375 37.84375 19.28125 
Q 41.609375 29.640625 47.953125 46.0625 
Q 54.296875 62.5 56.984375 69.390625 
L 65.1875 69.390625 
L 38.09375 0 
z
" id="Cmss10-56"/>
     </defs>
     <g transform="translate(258.585 333.950625)scale(0.144 -0.144)">
      <use xlink:href="#Cmss10-56"/>
      <use transform="translate(79.83424902343751 0.0)" xlink:href="#Cmr10-28"/>
      <use transform="translate(118.65260839843751 0.0)" xlink:href="#Cmss10-56"/>
      <use transform="translate(185.2541708984375 0.0)" xlink:href="#Cmr10-29"/>
     </g>
    </g>
   </g>
   <g id="matplotlib.axis_2">
    <g id="ytick_1">
     <g id="line2d_25">
      <path clip-path="url(#pe75093a333)" d="M 45.87 302.536875 
L 503.7 302.536875 
" style="fill:none;stroke:#cbcbcb;"/>
     </g>
     <g id="line2d_26"/>
     <g id="text_10">
      <!-- 0 -->
      <g transform="translate(34.235 305.848125)scale(0.12 -0.12)">
       <use xlink:href="#BitstreamVeraSans-Roman-30"/>
      </g>
     </g>
    </g>
    <g id="ytick_2">
     <g id="line2d_27">
      <path clip-path="url(#pe75093a333)" d="M 45.87 244.630875 
L 503.7 244.630875 
" style="fill:none;stroke:#cbcbcb;"/>
     </g>
     <g id="line2d_28"/>
     <g id="text_11">
      <!-- 2 -->
      <g transform="translate(34.235 247.942125)scale(0.12 -0.12)">
       <use xlink:href="#BitstreamVeraSans-Roman-32"/>
      </g>
     </g>
    </g>
    <g id="ytick_3">
     <g id="line2d_29">
      <path clip-path="url(#pe75093a333)" d="M 45.87 186.724875 
L 503.7 186.724875 
" style="fill:none;stroke:#cbcbcb;"/>
     </g>
     <g id="line2d_30"/>
     <g id="text_12">
      <!-- 4 -->
      <defs>
       <path d="M 37.796875 64.3125 
L 12.890625 25.390625 
L 37.796875 25.390625 
z
M 35.203125 72.90625 
L 47.609375 72.90625 
L 47.609375 25.390625 
L 58.015625 25.390625 
L 58.015625 17.1875 
L 47.609375 17.1875 
L 47.609375 0 
L 37.796875 0 
L 37.796875 17.1875 
L 4.890625 17.1875 
L 4.890625 26.703125 
z
" id="BitstreamVeraSans-Roman-34"/>
      </defs>
      <g transform="translate(34.235 190.036125)scale(0.12 -0.12)">
       <use xlink:href="#BitstreamVeraSans-Roman-34"/>
      </g>
     </g>
    </g>
    <g id="ytick_4">
     <g id="line2d_31">
      <path clip-path="url(#pe75093a333)" d="M 45.87 128.818875 
L 503.7 128.818875 
" style="fill:none;stroke:#cbcbcb;"/>
     </g>
     <g id="line2d_32"/>
     <g id="text_13">
      <!-- 6 -->
      <defs>
       <path d="M 33.015625 40.375 
Q 26.375 40.375 22.484375 35.828125 
Q 18.609375 31.296875 18.609375 23.390625 
Q 18.609375 15.53125 22.484375 10.953125 
Q 26.375 6.390625 33.015625 6.390625 
Q 39.65625 6.390625 43.53125 10.953125 
Q 47.40625 15.53125 47.40625 23.390625 
Q 47.40625 31.296875 43.53125 35.828125 
Q 39.65625 40.375 33.015625 40.375 
M 52.59375 71.296875 
L 52.59375 62.3125 
Q 48.875 64.0625 45.09375 64.984375 
Q 41.3125 65.921875 37.59375 65.921875 
Q 27.828125 65.921875 22.671875 59.328125 
Q 17.53125 52.734375 16.796875 39.40625 
Q 19.671875 43.65625 24.015625 45.921875 
Q 28.375 48.1875 33.59375 48.1875 
Q 44.578125 48.1875 50.953125 41.515625 
Q 57.328125 34.859375 57.328125 23.390625 
Q 57.328125 12.15625 50.6875 5.359375 
Q 44.046875 -1.421875 33.015625 -1.421875 
Q 20.359375 -1.421875 13.671875 8.265625 
Q 6.984375 17.96875 6.984375 36.375 
Q 6.984375 53.65625 15.1875 63.9375 
Q 23.390625 74.21875 37.203125 74.21875 
Q 40.921875 74.21875 44.703125 73.484375 
Q 48.484375 72.75 52.59375 71.296875 
" id="BitstreamVeraSans-Roman-36"/>
      </defs>
      <g transform="translate(34.235 132.130125)scale(0.12 -0.12)">
       <use xlink:href="#BitstreamVeraSans-Roman-36"/>
      </g>
     </g>
    </g>
    <g id="ytick_5">
     <g id="line2d_33">
      <path clip-path="url(#pe75093a333)" d="M 45.87 70.912875 
L 503.7 70.912875 
" style="fill:none;stroke:#cbcbcb;"/>
     </g>
     <g id="line2d_34"/>
     <g id="text_14">
      <!-- 8 -->
      <defs>
       <path d="M 31.78125 34.625 
Q 24.75 34.625 20.71875 30.859375 
Q 16.703125 27.09375 16.703125 20.515625 
Q 16.703125 13.921875 20.71875 10.15625 
Q 24.75 6.390625 31.78125 6.390625 
Q 38.8125 6.390625 42.859375 10.171875 
Q 46.921875 13.96875 46.921875 20.515625 
Q 46.921875 27.09375 42.890625 30.859375 
Q 38.875 34.625 31.78125 34.625 
M 21.921875 38.8125 
Q 15.578125 40.375 12.03125 44.71875 
Q 8.5 49.078125 8.5 55.328125 
Q 8.5 64.0625 14.71875 69.140625 
Q 20.953125 74.21875 31.78125 74.21875 
Q 42.671875 74.21875 48.875 69.140625 
Q 55.078125 64.0625 55.078125 55.328125 
Q 55.078125 49.078125 51.53125 44.71875 
Q 48 40.375 41.703125 38.8125 
Q 48.828125 37.15625 52.796875 32.3125 
Q 56.78125 27.484375 56.78125 20.515625 
Q 56.78125 9.90625 50.3125 4.234375 
Q 43.84375 -1.421875 31.78125 -1.421875 
Q 19.734375 -1.421875 13.25 4.234375 
Q 6.78125 9.90625 6.78125 20.515625 
Q 6.78125 27.484375 10.78125 32.3125 
Q 14.796875 37.15625 21.921875 38.8125 
M 18.3125 54.390625 
Q 18.3125 48.734375 21.84375 45.5625 
Q 25.390625 42.390625 31.78125 42.390625 
Q 38.140625 42.390625 41.71875 45.5625 
Q 45.3125 48.734375 45.3125 54.390625 
Q 45.3125 60.0625 41.71875 63.234375 
Q 38.140625 66.40625 31.78125 66.40625 
Q 25.390625 66.40625 21.84375 63.234375 
Q 18.3125 60.0625 18.3125 54.390625 
" id="BitstreamVeraSans-Roman-38"/>
      </defs>
      <g transform="translate(34.235 74.224125)scale(0.12 -0.12)">
       <use xlink:href="#BitstreamVeraSans-Roman-38"/>
      </g>
     </g>
    </g>
    <g id="ytick_6">
     <g id="line2d_35">
      <path clip-path="url(#pe75093a333)" d="M 45.87 13.006875 
L 503.7 13.006875 
" style="fill:none;stroke:#cbcbcb;"/>
     </g>
     <g id="line2d_36"/>
     <g id="text_15">
      <!-- 10 -->
      <g transform="translate(26.6 16.318125)scale(0.12 -0.12)">
       <use xlink:href="#BitstreamVeraSans-Roman-31"/>
       <use x="63.623046875" xlink:href="#BitstreamVeraSans-Roman-30"/>
      </g>
     </g>
    </g>
    <g id="text_16">
     <!-- $\sf I \,(A) $ -->
     <defs>
      <path d="M 2.78125 0 
L 28.71875 69.390625 
L 37.890625 69.390625 
L 63.8125 0 
L 54.203125 0 
Q 50.25 10.6875 46.78125 19.921875 
L 18.015625 19.921875 
Q 13.578125 7.765625 10.59375 0 
z
M 20.21875 25.875 
L 44.578125 25.875 
Q 40.09375 38.28125 37.8125 44.796875 
Q 35.546875 51.3125 34.03125 56.078125 
Q 32.515625 60.84375 32.515625 62.109375 
L 32.421875 62.109375 
Q 32.421875 61.140625 31.421875 57.8125 
Q 30.421875 54.5 28.859375 49.953125 
Q 27.296875 45.40625 24.09375 36.546875 
Q 20.90625 27.6875 20.21875 25.875 
" id="Cmss10-41"/>
      <path d="M 9.1875 0 
L 9.1875 69.390625 
L 18.5 69.390625 
L 18.5 0 
z
" id="Cmss10-49"/>
     </defs>
     <g transform="translate(18.0 171.163875)rotate(-90.0)scale(0.144 -0.144)">
      <use xlink:href="#Cmss10-49"/>
      <use transform="translate(40.9182333984375 0.0)" xlink:href="#Cmr10-28"/>
      <use transform="translate(79.73659277343751 0.0)" xlink:href="#Cmss10-41"/>
      <use transform="translate(146.3381552734375 0.0)" xlink:href="#Cmr10-29"/>
     </g>
    </g>
   </g>
   <g id="line2d_37">
    <path clip-path="url(#pe75093a333)" d="M 45.87 112.47469 
L 276.226644 113.812051 
L 303.201493 114.191241 
L 319.900208 114.634802 
L 331.88903 115.159647 
L 341.736991 115.808485 
L 349.872263 116.567051 
L 356.723018 117.424141 
L 362.717429 118.390727 
L 368.283667 119.518971 
L 372.993561 120.687978 
L 377.703456 122.094717 
L 381.985178 123.618297 
L 385.838727 125.222469 
L 389.692277 127.080989 
L 393.117655 128.975949 
L 396.543032 131.128148 
L 399.96841 133.567802 
L 402.965615 135.963565 
L 405.962821 138.626472 
L 408.960026 141.580671 
L 411.957232 144.850441 
L 414.954437 148.460726 
L 417.951642 152.437521 
L 420.948848 156.804991 
L 423.946053 161.587523 
L 426.943259 166.809773 
L 429.940464 172.494943 
L 432.937669 178.663106 
L 435.934875 185.332096 
L 438.93208 192.522265 
L 441.929286 200.24401 
L 445.354663 209.739448 
L 448.780041 219.958256 
L 452.205419 230.91019 
L 455.630796 242.596512 
L 459.056174 255.014688 
L 462.909724 269.82514 
L 471.044995 301.73016 
L 472.329512 305.515588 
L 473.185856 307.324145 
L 473.614029 307.925737 
L 473.614029 307.925737 
" style="fill:none;stroke:#fc4f30;stroke-dasharray:6.000000,6.000000;stroke-dashoffset:0.0;stroke-width:4.0;"/>
   </g>
   <g id="line2d_38">
    <path clip-path="url(#pe75093a333)" d="M 45.87 110.622743 
L 220.674247 111.665503 
L 249.742819 112.056484 
L 267.812471 112.508696 
L 281.168301 113.05976 
L 291.381583 113.690576 
L 300.023591 114.436649 
L 307.487143 115.298564 
L 314.165058 116.29636 
L 320.057336 117.403732 
L 325.163977 118.576409 
L 329.877799 119.870227 
L 334.198803 121.266293 
L 338.519807 122.896294 
L 342.447992 124.611566 
L 346.376178 126.580687 
L 349.911544 128.597376 
L 353.446911 130.873244 
L 356.982278 133.436837 
L 360.124826 135.981683 
L 363.267375 138.799975 
L 366.409923 141.915556 
L 369.552471 145.352261 
L 372.695019 149.135001 
L 375.837568 153.288062 
L 378.980116 157.83637 
L 382.122664 162.803513 
L 385.265212 168.213806 
L 388.407761 174.090142 
L 391.550309 180.452555 
L 394.692857 187.319168 
L 397.835405 194.709984 
L 400.977954 202.636605 
L 404.120502 211.114393 
L 407.655869 221.318418 
L 411.191236 232.240993 
L 414.726602 243.885731 
L 418.654788 257.671861 
L 422.582973 272.334682 
L 426.903977 289.382525 
L 432.403436 311.265853 
L 433.97471 316.671604 
L 435.153166 319.934228 
L 435.938803 321.506759 
L 436.331622 322.051598 
L 436.72444 322.40299 
L 437.117259 322.533491 
L 437.510077 322.413281 
L 437.902896 322.010374 
L 438.295714 321.290999 
L 438.295714 321.290999 
" style="fill:none;stroke:#5cb85c;stroke-dasharray:6.000000,6.000000;stroke-dashoffset:0.0;stroke-width:4.0;"/>
   </g>
   <g id="line2d_39">
    <path clip-path="url(#pe75093a333)" d="M 45.87 108.77143 
L 166.426008 109.530718 
L 197.183699 109.937658 
L 216.27468 110.399558 
L 230.416147 110.956424 
L 241.375784 111.598217 
L 250.567737 112.347622 
L 258.699081 113.233593 
L 265.769815 114.229408 
L 272.133475 115.354789 
L 277.790062 116.580815 
L 283.093112 117.963951 
L 288.042625 119.497357 
L 292.638602 121.166691 
L 296.881042 122.949693 
L 300.769946 124.816333 
L 304.658849 126.933317 
L 308.194216 129.099612 
L 311.729583 131.520948 
L 315.26495 134.222775 
L 318.800317 137.231675 
L 321.982147 140.225758 
L 325.163977 143.512695 
L 328.345807 147.114183 
L 331.527637 151.052766 
L 334.709467 155.34995 
L 337.891297 160.028072 
L 341.073127 165.107951 
L 344.254958 170.611498 
L 347.436788 176.559159 
L 350.618618 182.968661 
L 353.800448 189.856338 
L 356.982278 197.240431 
L 360.517645 206.040506 
L 364.053012 215.485361 
L 367.588378 225.583997 
L 371.123745 236.348318 
L 374.659112 247.782237 
L 378.548015 261.134942 
L 382.436919 275.293203 
L 386.679359 291.621169 
L 396.224849 329.050418 
L 397.285459 332.295563 
L 398.346069 334.858829 
L 399.053143 336.03694 
L 399.053143 336.03694 
" style="fill:none;stroke:#30a2da;stroke-dasharray:6.000000,6.000000;stroke-dashoffset:0.0;stroke-width:4.0;"/>
   </g>
   <g id="patch_3">
    <path d="M 503.7 302.536875 
L 503.7 13.006875 
" style="fill:none;stroke:#ffffff;stroke-linecap:square;stroke-linejoin:miter;stroke-width:3.0;"/>
   </g>
   <g id="patch_4">
    <path d="M 45.87 302.536875 
L 503.7 302.536875 
" style="fill:none;stroke:#ffffff;stroke-linecap:square;stroke-linejoin:miter;stroke-width:3.0;"/>
   </g>
   <g id="patch_5">
    <path d="M 45.87 13.006875 
L 503.7 13.006875 
" style="fill:none;stroke:#ffffff;stroke-linecap:square;stroke-linejoin:miter;stroke-width:3.0;"/>
   </g>
   <g id="patch_6">
    <path d="M 45.87 302.536875 
L 45.87 13.006875 
" style="fill:none;stroke:#ffffff;stroke-linecap:square;stroke-linejoin:miter;stroke-width:3.0;"/>
   </g>
  </g>
  <g id="axes_2">
   <g id="matplotlib.axis_3">
    <g id="ytick_7">
     <g id="line2d_40">
      <path clip-path="url(#pe75093a333)" d="M 45.87 302.536875 
L 503.7 302.536875 
" style="fill:none;stroke:#cbcbcb;"/>
     </g>
     <g id="line2d_41"/>
     <g id="text_17">
      <!-- 0 -->
      <g transform="translate(507.7 305.848125)scale(0.12 -0.12)">
       <use xlink:href="#BitstreamVeraSans-Roman-30"/>
      </g>
     </g>
    </g>
    <g id="ytick_8">
     <g id="line2d_42">
      <path clip-path="url(#pe75093a333)" d="M 45.87 233.601161 
L 503.7 233.601161 
" style="fill:none;stroke:#cbcbcb;"/>
     </g>
     <g id="line2d_43"/>
     <g id="text_18">
      <!-- 50 -->
      <g transform="translate(507.7 236.912410714)scale(0.12 -0.12)">
       <use xlink:href="#BitstreamVeraSans-Roman-35"/>
       <use x="63.623046875" xlink:href="#BitstreamVeraSans-Roman-30"/>
      </g>
     </g>
    </g>
    <g id="ytick_9">
     <g id="line2d_44">
      <path clip-path="url(#pe75093a333)" d="M 45.87 164.665446 
L 503.7 164.665446 
" style="fill:none;stroke:#cbcbcb;"/>
     </g>
     <g id="line2d_45"/>
     <g id="text_19">
      <!-- 100 -->
      <g transform="translate(507.7 167.976696429)scale(0.12 -0.12)">
       <use xlink:href="#BitstreamVeraSans-Roman-31"/>
       <use x="63.623046875" xlink:href="#BitstreamVeraSans-Roman-30"/>
       <use x="127.24609375" xlink:href="#BitstreamVeraSans-Roman-30"/>
      </g>
     </g>
    </g>
    <g id="ytick_10">
     <g id="line2d_46">
      <path clip-path="url(#pe75093a333)" d="M 45.87 95.729732 
L 503.7 95.729732 
" style="fill:none;stroke:#cbcbcb;"/>
     </g>
     <g id="line2d_47"/>
     <g id="text_20">
      <!-- 150 -->
      <g transform="translate(507.7 99.0409821429)scale(0.12 -0.12)">
       <use xlink:href="#BitstreamVeraSans-Roman-31"/>
       <use x="63.623046875" xlink:href="#BitstreamVeraSans-Roman-35"/>
       <use x="127.24609375" xlink:href="#BitstreamVeraSans-Roman-30"/>
      </g>
     </g>
    </g>
    <g id="ytick_11">
     <g id="line2d_48">
      <path clip-path="url(#pe75093a333)" d="M 45.87 26.794018 
L 503.7 26.794018 
" style="fill:none;stroke:#cbcbcb;"/>
     </g>
     <g id="line2d_49"/>
     <g id="text_21">
      <!-- 200 -->
      <g transform="translate(507.7 30.1052678571)scale(0.12 -0.12)">
       <use xlink:href="#BitstreamVeraSans-Roman-32"/>
       <use x="63.623046875" xlink:href="#BitstreamVeraSans-Roman-30"/>
       <use x="127.24609375" xlink:href="#BitstreamVeraSans-Roman-30"/>
      </g>
     </g>
    </g>
    <g id="text_22">
     <!-- $\sf P \, (W)$ -->
     <defs>
      <path d="M 21.578125 0 
L 1.421875 69.390625 
L 10.40625 69.390625 
Q 14.5 55.328125 16.53125 48.296875 
Q 18.5625 41.265625 20.90625 32.8125 
Q 23.25 24.359375 25.03125 16.90625 
Q 26.8125 9.46875 26.8125 7.328125 
Q 26.90625 9.578125 28.53125 16.234375 
Q 30.171875 22.90625 33.09375 33.46875 
Q 36.03125 44.046875 38.453125 52.46875 
Q 40.875 60.890625 43.3125 69.390625 
L 51.8125 69.390625 
Q 55.28125 57.46875 57.734375 48.921875 
Q 60.203125 40.375 62.625 31.6875 
Q 65.046875 23 66.765625 15.984375 
Q 68.5 8.984375 68.5 7.328125 
Q 68.5625 9.03125 70.28125 16.015625 
Q 72.015625 23 74.4375 31.6875 
Q 76.859375 40.375 79.171875 48.40625 
Q 81.5 56.453125 85.296875 69.390625 
L 92.921875 69.390625 
L 72.703125 0 
L 63.625 0 
Q 60.0625 12.203125 56.125 25.953125 
Q 52.203125 39.703125 49.5625 49.75 
Q 46.921875 59.8125 46.921875 62.109375 
Q 46.875 59.96875 44.046875 49.21875 
Q 41.21875 38.484375 37.421875 25.34375 
Q 33.640625 12.203125 30.078125 0 
z
" id="Cmss10-57"/>
      <path d="M 9.421875 0 
L 9.421875 69.390625 
L 34.71875 69.390625 
Q 39.0625 69.390625 43.265625 67.9375 
Q 47.46875 66.5 50.828125 63.84375 
Q 54.203125 61.1875 56.203125 57.421875 
Q 58.203125 53.65625 58.203125 49.125 
Q 58.203125 43.109375 54.8125 38.390625 
Q 51.421875 33.6875 45.96875 31.09375 
Q 40.53125 28.515625 34.71875 28.515625 
L 18.703125 28.515625 
L 18.703125 0 
z
M 18.40625 34.71875 
L 32.328125 34.71875 
Q 36.921875 34.71875 40.875 36.328125 
Q 44.828125 37.9375 47.265625 41.203125 
Q 49.703125 44.484375 49.703125 49.125 
Q 49.703125 53.65625 47.265625 56.921875 
Q 44.828125 60.203125 40.84375 61.78125 
Q 36.859375 63.375 32.328125 63.375 
L 18.40625 63.375 
z
" id="Cmss10-50"/>
     </defs>
     <g transform="translate(546.405 175.771875)rotate(-90.0)scale(0.144 -0.144)">
      <use xlink:href="#Cmss10-50"/>
      <use transform="translate(77.05104589843751 0.0)" xlink:href="#Cmr10-28"/>
      <use transform="translate(115.86940527343751 0.0)" xlink:href="#Cmss10-57"/>
      <use transform="translate(210.2541708984375 0.0)" xlink:href="#Cmr10-29"/>
     </g>
    </g>
   </g>
   <g id="line2d_50">
    <path clip-path="url(#pe75093a333)" d="M 45.87 302.536875 
L 129.018639 245.14084 
L 211.310075 188.604589 
L 272.17145 147.029608 
L 301.316334 127.357082 
L 318.460383 116.027868 
L 330.461217 108.333137 
L 339.890444 102.522839 
L 347.605267 98.003387 
L 354.462886 94.236242 
L 360.463304 91.199163 
L 365.606518 88.844217 
L 369.892531 87.098958 
L 374.178543 85.59227 
L 377.607353 84.589127 
L 381.036163 83.794616 
L 384.464973 83.239026 
L 387.893782 82.956325 
L 390.46539 82.946228 
L 393.036997 83.128278 
L 395.608605 83.521449 
L 398.180212 84.145953 
L 400.751819 85.023358 
L 403.323427 86.176581 
L 405.895034 87.629382 
L 408.466641 89.407766 
L 411.038249 91.537981 
L 413.609856 94.047493 
L 416.181464 96.965306 
L 418.753071 100.319476 
L 421.324678 104.139832 
L 423.896286 108.454961 
L 426.467893 113.295601 
L 429.039501 118.691374 
L 431.611108 124.66959 
L 434.182715 131.256967 
L 436.754323 138.481515 
L 439.32593 146.370187 
L 441.897537 154.940934 
L 444.469145 164.22166 
L 447.040752 174.225488 
L 449.61236 184.975653 
L 452.183967 196.486871 
L 455.612777 213.034551 
L 459.041587 230.977204 
L 462.470397 250.302985 
L 466.756409 276.11538 
L 470.185219 296.666424 
L 471.899624 305.374426 
L 472.756826 308.707764 
L 473.614029 310.928104 
L 473.614029 310.928104 
" style="fill:none;stroke:#fc4f30;stroke-width:4.0;"/>
   </g>
   <g id="line2d_51">
    <path clip-path="url(#pe75093a333)" d="M 45.87 302.536875 
L 129.230973 244.433468 
L 203.154855 193.163761 
L 243.262494 165.58079 
L 265.282373 150.690155 
L 280.224435 140.84666 
L 291.234374 133.846873 
L 299.885042 128.586518 
L 307.749284 124.069119 
L 314.040678 120.701368 
L 319.545648 117.987237 
L 324.264194 115.875362 
L 328.98274 114.003638 
L 332.914861 112.661316 
L 336.846983 111.550366 
L 340.779104 110.706928 
L 343.924801 110.252075 
L 347.070498 110.017931 
L 350.216195 110.029602 
L 353.361892 110.31485 
L 355.721165 110.726225 
L 358.080438 111.321713 
L 360.439711 112.11548 
L 362.798984 113.121965 
L 365.158257 114.357248 
L 367.517529 115.837176 
L 369.876802 117.5784 
L 372.236075 119.598061 
L 374.595348 121.914506 
L 376.954621 124.544612 
L 379.313894 127.507067 
L 381.673166 130.819437 
L 384.032439 134.501199 
L 386.391712 138.570153 
L 388.750985 143.045667 
L 391.110258 147.943917 
L 393.46953 153.281616 
L 395.828803 159.077295 
L 398.188076 165.348305 
L 401.333773 174.470246 
L 404.47947 184.498185 
L 407.625167 195.457953 
L 410.770865 207.382643 
L 413.916562 220.294685 
L 417.062259 234.215332 
L 420.207956 249.158113 
L 423.353653 265.122908 
L 427.285774 286.412606 
L 432.790744 316.818377 
L 434.363593 324.186468 
L 435.150017 327.180494 
L 435.936441 329.468375 
L 436.722866 330.801888 
L 437.50929 330.875568 
L 438.295714 329.328481 
L 438.295714 329.328481 
" style="fill:none;stroke:#5cb85c;stroke-width:4.0;"/>
   </g>
   <g id="line2d_52">
    <path clip-path="url(#pe75093a333)" d="M 45.87 302.536875 
L 127.264913 245.259342 
L 182.471897 206.647786 
L 210.783171 187.092826 
L 228.477717 175.121277 
L 241.21779 166.745604 
L 251.834518 160.027666 
L 260.3279 154.909921 
L 267.405719 150.887456 
L 273.775756 147.514992 
L 279.43801 144.766846 
L 284.392483 142.599175 
L 288.639174 140.951495 
L 292.885865 139.53133 
L 296.424775 138.547647 
L 299.963684 137.770532 
L 303.502593 137.226167 
L 307.041502 136.942843 
L 309.87263 136.925139 
L 312.703757 137.111809 
L 315.534885 137.521255 
L 318.366012 138.173005 
L 321.197139 139.087194 
L 324.028267 140.286117 
L 326.859394 141.792081 
L 329.690522 143.628537 
L 332.521649 145.820405 
L 334.644995 147.711873 
L 337.476122 150.584668 
L 340.307249 153.881239 
L 343.138377 157.628389 
L 345.969504 161.852251 
L 348.800632 166.577663 
L 351.631759 171.829413 
L 354.462886 177.633129 
L 357.294014 184.01363 
L 360.125141 190.991057 
L 362.956269 198.590172 
L 365.787396 206.830049 
L 368.618523 215.728756 
L 371.449651 225.304267 
L 374.280778 235.574746 
L 377.111906 246.554863 
L 380.650815 261.288643 
L 384.189724 277.160047 
L 387.728633 294.136947 
L 392.683106 319.256361 
L 395.514234 333.181144 
L 396.929797 339.257754 
L 397.637579 341.848732 
L 398.345361 344.00857 
L 399.053143 345.608387 
L 399.053143 345.608387 
" style="fill:none;stroke:#30a2da;stroke-width:4.0;"/>
   </g>
   <g id="patch_7">
    <path d="M 503.7 302.536875 
L 503.7 13.006875 
" style="fill:none;stroke:#ffffff;stroke-linecap:square;stroke-linejoin:miter;stroke-width:3.0;"/>
   </g>
   <g id="patch_8">
    <path d="M 45.87 302.536875 
L 503.7 302.536875 
" style="fill:none;stroke:#ffffff;stroke-linecap:square;stroke-linejoin:miter;stroke-width:3.0;"/>
   </g>
   <g id="patch_9">
    <path d="M 45.87 13.006875 
L 503.7 13.006875 
" style="fill:none;stroke:#ffffff;stroke-linecap:square;stroke-linejoin:miter;stroke-width:3.0;"/>
   </g>
   <g id="patch_10">
    <path d="M 45.87 302.536875 
L 45.87 13.006875 
" style="fill:none;stroke:#ffffff;stroke-linecap:square;stroke-linejoin:miter;stroke-width:3.0;"/>
   </g>
   <g id="legend_1">
    <g id="patch_11">
     <path d="M 234.177 295.336875 
L 315.393 295.336875 
Q 318.273 295.336875 318.273 292.456875 
L 318.273 230.487375 
Q 318.273 227.607375 315.393 227.607375 
L 234.177 227.607375 
Q 231.297 227.607375 231.297 230.487375 
L 231.297 292.456875 
Q 231.297 295.336875 234.177 295.336875 
z
" style="fill:#ffffff;stroke:#ffffff;stroke-linejoin:miter;stroke-width:0.5;"/>
    </g>
    <g id="line2d_53">
     <path d="M 241.377 239.269125 
L 261.537 239.269125 
" style="fill:none;stroke:#fc4f30;stroke-width:4.0;"/>
    </g>
    <g id="line2d_54"/>
    <g id="text_23">
     <!-- $\sf 25\, ºC$ -->
     <defs>
      <path d="M 4.984375 0 
L 4.984375 2.6875 
Q 4.984375 2.9375 5.171875 3.21875 
L 20.703125 20.40625 
Q 24.21875 24.21875 26.40625 26.796875 
Q 28.609375 29.390625 30.75 32.765625 
Q 32.90625 36.140625 34.15625 39.625 
Q 35.40625 43.109375 35.40625 47.015625 
Q 35.40625 51.125 33.890625 54.859375 
Q 32.375 58.59375 29.375 60.84375 
Q 26.375 63.09375 22.125 63.09375 
Q 17.78125 63.09375 14.3125 60.46875 
Q 10.84375 57.859375 9.421875 53.71875 
Q 9.8125 53.8125 10.5 53.8125 
Q 12.75 53.8125 14.328125 52.296875 
Q 15.921875 50.78125 15.921875 48.390625 
Q 15.921875 46.09375 14.328125 44.5 
Q 12.75 42.921875 10.5 42.921875 
Q 8.15625 42.921875 6.5625 44.546875 
Q 4.984375 46.1875 4.984375 48.390625 
Q 4.984375 52.15625 6.390625 55.4375 
Q 7.8125 58.734375 10.46875 61.296875 
Q 13.140625 63.875 16.484375 65.234375 
Q 19.828125 66.609375 23.578125 66.609375 
Q 29.296875 66.609375 34.21875 64.1875 
Q 39.15625 61.765625 42.03125 57.34375 
Q 44.921875 52.9375 44.921875 47.015625 
Q 44.921875 42.671875 43.015625 38.765625 
Q 41.109375 34.859375 38.125 31.65625 
Q 35.15625 28.46875 30.515625 24.40625 
Q 25.875 20.359375 24.421875 19 
L 13.09375 8.109375 
L 22.703125 8.109375 
Q 29.78125 8.109375 34.546875 8.21875 
Q 39.3125 8.34375 39.59375 8.59375 
Q 40.765625 9.859375 42 17.828125 
L 44.921875 17.828125 
L 42.09375 0 
z
" id="Cmr10-32"/>
      <path d="M 22.21875 61.078125 
Q 22.21875 63.71875 23.90625 65.578125 
Q 25.59375 67.4375 28.171875 68.40625 
Q 30.765625 69.390625 33.296875 69.390625 
Q 35.84375 69.390625 38.421875 68.40625 
Q 41.015625 67.4375 42.703125 65.578125 
Q 44.390625 63.71875 44.390625 61.078125 
Q 44.390625 58.40625 42.703125 56.546875 
Q 41.015625 54.6875 38.421875 53.6875 
Q 35.84375 52.6875 33.296875 52.6875 
Q 29.296875 52.6875 25.75 54.953125 
Q 22.21875 57.234375 22.21875 61.078125 
M 27.78125 61.078125 
Q 27.78125 58.890625 29.34375 57.890625 
Q 30.90625 56.890625 33.296875 56.890625 
Q 35.640625 56.890625 37.21875 57.859375 
Q 38.8125 58.84375 38.8125 61.078125 
Q 38.8125 63.28125 37.21875 64.234375 
Q 35.640625 65.1875 33.296875 65.1875 
Q 30.953125 65.1875 29.359375 64.203125 
Q 27.78125 63.234375 27.78125 61.078125 
" id="Cmss10-ba"/>
      <path d="M 38.8125 -2.203125 
Q 31.6875 -2.203125 25.671875 0.921875 
Q 19.671875 4.046875 15.40625 9.375 
Q 11.140625 14.703125 8.8125 21.234375 
Q 6.5 27.78125 6.5 34.71875 
Q 6.5 41.65625 8.8125 48.21875 
Q 11.140625 54.78125 15.453125 60.125 
Q 19.78125 65.484375 25.734375 68.53125 
Q 31.6875 71.578125 38.8125 71.578125 
Q 42.53125 71.578125 45.53125 71.234375 
Q 48.53125 70.90625 51.65625 70.09375 
Q 54.78125 69.28125 57.71875 68.109375 
L 56.203125 59.515625 
L 56.109375 59.515625 
Q 51.953125 62.359375 47.890625 63.578125 
Q 43.84375 64.796875 38.8125 64.796875 
Q 33.296875 64.796875 28.96875 62.0625 
Q 24.65625 59.328125 21.71875 54.828125 
Q 18.796875 50.34375 17.3125 45.09375 
Q 15.828125 39.84375 15.828125 34.71875 
Q 15.828125 29.640625 17.328125 24.3125 
Q 18.84375 19 21.796875 14.5 
Q 24.75 10.015625 29.09375 7.296875 
Q 33.453125 4.59375 38.8125 4.59375 
Q 45.265625 4.59375 49.140625 5.8125 
Q 53.03125 7.03125 58.203125 10.6875 
L 58.796875 3.515625 
L 58.796875 3.421875 
Q 55.03125 1.078125 52.21875 -0.09375 
Q 49.421875 -1.265625 46.4375 -1.734375 
Q 43.453125 -2.203125 38.8125 -2.203125 
" id="Cmss10-43"/>
      <path d="M 8.6875 11.375 
Q 9.71875 8.453125 11.84375 6.046875 
Q 13.96875 3.65625 16.875 2.3125 
Q 19.78125 0.984375 22.90625 0.984375 
Q 30.125 0.984375 32.859375 6.59375 
Q 35.59375 12.203125 35.59375 20.21875 
Q 35.59375 23.6875 35.46875 26.046875 
Q 35.359375 28.421875 34.8125 30.609375 
Q 33.890625 34.125 31.5625 36.765625 
Q 29.25 39.40625 25.875 39.40625 
Q 22.515625 39.40625 20.09375 38.375 
Q 17.671875 37.359375 16.15625 35.984375 
Q 14.65625 34.625 13.484375 33.109375 
Q 12.3125 31.59375 12.015625 31.5 
L 10.890625 31.5 
Q 10.640625 31.5 10.265625 31.8125 
Q 9.90625 32.125 9.90625 32.421875 
L 9.90625 65.828125 
Q 9.90625 66.0625 10.21875 66.328125 
Q 10.546875 66.609375 10.890625 66.609375 
L 11.1875 66.609375 
Q 17.921875 63.375 25.484375 63.375 
Q 32.90625 63.375 39.796875 66.609375 
L 40.09375 66.609375 
Q 40.4375 66.609375 40.71875 66.359375 
Q 41.015625 66.109375 41.015625 65.828125 
L 41.015625 64.890625 
Q 41.015625 64.40625 40.828125 64.40625 
Q 37.40625 59.859375 32.25 57.3125 
Q 27.09375 54.78125 21.578125 54.78125 
Q 17.578125 54.78125 13.375 55.90625 
L 13.375 37.015625 
Q 16.703125 39.703125 19.3125 40.84375 
Q 21.921875 42 25.984375 42 
Q 31.5 42 35.859375 38.8125 
Q 40.234375 35.640625 42.578125 30.53125 
Q 44.921875 25.4375 44.921875 20.125 
Q 44.921875 14.109375 41.96875 8.984375 
Q 39.015625 3.859375 33.9375 0.828125 
Q 28.859375 -2.203125 22.90625 -2.203125 
Q 17.96875 -2.203125 13.84375 0.328125 
Q 9.71875 2.875 7.34375 7.171875 
Q 4.984375 11.46875 4.984375 16.3125 
Q 4.984375 18.5625 6.4375 19.96875 
Q 7.90625 21.390625 10.109375 21.390625 
Q 12.3125 21.390625 13.796875 19.9375 
Q 15.28125 18.5 15.28125 16.3125 
Q 15.28125 14.15625 13.796875 12.671875 
Q 12.3125 11.1875 10.109375 11.1875 
Q 9.765625 11.1875 9.328125 11.25 
Q 8.890625 11.328125 8.6875 11.375 
" id="Cmr10-35"/>
     </defs>
     <g transform="translate(277.377 244.309125)scale(0.144 -0.144)">
      <use transform="translate(0.0 0.421875)" xlink:href="#Cmr10-32"/>
      <use transform="translate(50.0 0.421875)" xlink:href="#Cmr10-35"/>
      <use transform="translate(113.23268652343751 0.421875)" xlink:href="#Cmss10-ba"/>
      <use transform="translate(179.8342490234375 0.421875)" xlink:href="#Cmss10-43"/>
     </g>
    </g>
    <g id="line2d_55">
     <path d="M 241.377 260.405625 
L 261.537 260.405625 
" style="fill:none;stroke:#5cb85c;stroke-width:4.0;"/>
    </g>
    <g id="line2d_56"/>
    <g id="text_24">
     <!-- $\sf 50\, ºC$ -->
     <defs>
      <path d="M 25 -2.203125 
Q 12.75 -2.203125 8.328125 7.875 
Q 3.90625 17.96875 3.90625 31.890625 
Q 3.90625 40.578125 5.484375 48.234375 
Q 7.078125 55.90625 11.78125 61.25 
Q 16.5 66.609375 25 66.609375 
Q 31.59375 66.609375 35.78125 63.375 
Q 39.984375 60.15625 42.1875 55.046875 
Q 44.390625 49.953125 45.1875 44.109375 
Q 46 38.28125 46 31.890625 
Q 46 23.296875 44.40625 15.796875 
Q 42.828125 8.296875 38.1875 3.046875 
Q 33.546875 -2.203125 25 -2.203125 
M 25 0.390625 
Q 30.5625 0.390625 33.296875 6.09375 
Q 36.03125 11.8125 36.671875 18.75 
Q 37.3125 25.6875 37.3125 33.5 
Q 37.3125 41.015625 36.671875 47.359375 
Q 36.03125 53.71875 33.3125 58.859375 
Q 30.609375 64.015625 25 64.015625 
Q 19.34375 64.015625 16.609375 58.828125 
Q 13.875 53.65625 13.234375 47.328125 
Q 12.59375 41.015625 12.59375 33.5 
Q 12.59375 27.9375 12.859375 23 
Q 13.140625 18.0625 14.3125 12.8125 
Q 15.484375 7.5625 18.09375 3.96875 
Q 20.703125 0.390625 25 0.390625 
" id="Cmr10-30"/>
     </defs>
     <g transform="translate(277.377 265.445625)scale(0.144 -0.144)">
      <use transform="translate(0.0 0.421875)" xlink:href="#Cmr10-35"/>
      <use transform="translate(50.0 0.421875)" xlink:href="#Cmr10-30"/>
      <use transform="translate(113.23268652343751 0.421875)" xlink:href="#Cmss10-ba"/>
      <use transform="translate(179.8342490234375 0.421875)" xlink:href="#Cmss10-43"/>
     </g>
    </g>
    <g id="line2d_57">
     <path d="M 241.377 281.542125 
L 261.537 281.542125 
" style="fill:none;stroke:#30a2da;stroke-width:4.0;"/>
    </g>
    <g id="line2d_58"/>
    <g id="text_25">
     <!-- $\sf 75\, ºC$ -->
     <defs>
      <path d="M 17.390625 2.59375 
Q 17.390625 8.15625 18.359375 13.46875 
Q 19.34375 18.796875 21.21875 24 
Q 23.09375 29.203125 25.75 34.203125 
Q 28.421875 39.203125 31.59375 43.609375 
L 40.71875 56.296875 
L 29.296875 56.296875 
Q 11.53125 56.296875 10.984375 55.8125 
Q 9.671875 54.203125 8.5 46.578125 
L 5.609375 46.578125 
L 8.890625 67.578125 
L 11.8125 67.578125 
L 11.8125 67.28125 
Q 11.8125 65.484375 17.921875 64.9375 
Q 24.03125 64.40625 29.890625 64.40625 
L 48.484375 64.40625 
L 48.484375 61.8125 
Q 48.484375 61.71875 48.453125 61.671875 
Q 48.4375 61.625 48.390625 61.53125 
L 34.625 42.1875 
Q 29.546875 34.671875 28.265625 25.484375 
Q 27 16.3125 27 2.59375 
Q 27 0.640625 25.578125 -0.78125 
Q 24.171875 -2.203125 22.21875 -2.203125 
Q 20.21875 -2.203125 18.796875 -0.78125 
Q 17.390625 0.640625 17.390625 2.59375 
" id="Cmr10-37"/>
     </defs>
     <g transform="translate(277.377 286.582125)scale(0.144 -0.144)">
      <use transform="translate(0.0 0.421875)" xlink:href="#Cmr10-37"/>
      <use transform="translate(50.0 0.421875)" xlink:href="#Cmr10-35"/>
      <use transform="translate(113.23268652343751 0.421875)" xlink:href="#Cmss10-ba"/>
      <use transform="translate(179.8342490234375 0.421875)" xlink:href="#Cmss10-43"/>
     </g>
    </g>
   </g>
  </g>
 </g>
 <defs>
  <clipPath id="pe75093a333">
   <rect height="289.53" width="457.83" x="45.87" y="13.006875"/>
  </clipPath>
 </defs>
</svg>
