<?xml version="1.0" encoding="utf-8" standalone="no"?>
<!DOCTYPE svg PUBLIC "-//W3C//DTD SVG 1.1//EN"
  "http://www.w3.org/Graphics/SVG/1.1/DTD/svg11.dtd">
<!-- Created with matplotlib (http://matplotlib.org/) -->
<svg height="369pt" version="1.1" viewBox="0 0 537 369" width="537pt" xmlns="http://www.w3.org/2000/svg" xmlns:xlink="http://www.w3.org/1999/xlink">
 <defs>
  <style type="text/css">
*{stroke-linecap:butt;stroke-linejoin:round;stroke-miterlimit:100000;}
  </style>
 </defs>
 <g id="figure_1">
  <g id="patch_1">
   <path d="M 0 369.235163 
L 537.107662 369.235163 
L 537.107662 0 
L 0 0 
z
" style="fill:none;opacity:0;"/>
  </g>
  <g id="axes_1">
   <g id="patch_2">
    <path d="M 57.975475 319.974688 
L 518.775475 319.974688 
L 518.775475 13.974688 
L 57.975475 13.974688 
z
" style="fill:#ffffff;"/>
   </g>
   <g id="matplotlib.axis_1">
    <g id="xtick_1">
     <g id="line2d_1">
      <path clip-path="url(#pd533883530)" d="M 57.975475 319.974688 
L 57.975475 13.974688 
" style="fill:none;stroke:#cbcbcb;"/>
     </g>
     <g id="line2d_2"/>
     <g id="line2d_3"/>
     <g id="text_1">
      <!-- 0.0 -->
      <defs>
       <path d="M 10.6875 12.40625 
L 21 12.40625 
L 21 0 
L 10.6875 0 
z
" id="BitstreamVeraSans-Roman-2e"/>
       <path d="M 31.78125 66.40625 
Q 24.171875 66.40625 20.328125 58.90625 
Q 16.5 51.421875 16.5 36.375 
Q 16.5 21.390625 20.328125 13.890625 
Q 24.171875 6.390625 31.78125 6.390625 
Q 39.453125 6.390625 43.28125 13.890625 
Q 47.125 21.390625 47.125 36.375 
Q 47.125 51.421875 43.28125 58.90625 
Q 39.453125 66.40625 31.78125 66.40625 
M 31.78125 74.21875 
Q 44.046875 74.21875 50.515625 64.515625 
Q 56.984375 54.828125 56.984375 36.375 
Q 56.984375 17.96875 50.515625 8.265625 
Q 44.046875 -1.421875 31.78125 -1.421875 
Q 19.53125 -1.421875 13.0625 8.265625 
Q 6.59375 17.96875 6.59375 36.375 
Q 6.59375 54.828125 13.0625 64.515625 
Q 19.53125 74.21875 31.78125 74.21875 
" id="BitstreamVeraSans-Roman-30"/>
      </defs>
      <g transform="translate(46.8432875 334.6125)scale(0.14 -0.14)">
       <use xlink:href="#BitstreamVeraSans-Roman-30"/>
       <use x="63.623046875" xlink:href="#BitstreamVeraSans-Roman-2e"/>
       <use x="95.41015625" xlink:href="#BitstreamVeraSans-Roman-30"/>
      </g>
     </g>
    </g>
    <g id="xtick_2">
     <g id="line2d_4">
      <path clip-path="url(#pd533883530)" d="M 134.775475 319.974688 
L 134.775475 13.974688 
" style="fill:none;stroke:#cbcbcb;"/>
     </g>
     <g id="line2d_5"/>
     <g id="line2d_6"/>
     <g id="text_2">
      <!-- 0.5 -->
      <defs>
       <path d="M 10.796875 72.90625 
L 49.515625 72.90625 
L 49.515625 64.59375 
L 19.828125 64.59375 
L 19.828125 46.734375 
Q 21.96875 47.46875 24.109375 47.828125 
Q 26.265625 48.1875 28.421875 48.1875 
Q 40.625 48.1875 47.75 41.5 
Q 54.890625 34.8125 54.890625 23.390625 
Q 54.890625 11.625 47.5625 5.09375 
Q 40.234375 -1.421875 26.90625 -1.421875 
Q 22.3125 -1.421875 17.546875 -0.640625 
Q 12.796875 0.140625 7.71875 1.703125 
L 7.71875 11.625 
Q 12.109375 9.234375 16.796875 8.0625 
Q 21.484375 6.890625 26.703125 6.890625 
Q 35.15625 6.890625 40.078125 11.328125 
Q 45.015625 15.765625 45.015625 23.390625 
Q 45.015625 31 40.078125 35.4375 
Q 35.15625 39.890625 26.703125 39.890625 
Q 22.75 39.890625 18.8125 39.015625 
Q 14.890625 38.140625 10.796875 36.28125 
z
" id="BitstreamVeraSans-Roman-35"/>
      </defs>
      <g transform="translate(123.6432875 334.6125)scale(0.14 -0.14)">
       <use xlink:href="#BitstreamVeraSans-Roman-30"/>
       <use x="63.623046875" xlink:href="#BitstreamVeraSans-Roman-2e"/>
       <use x="95.41015625" xlink:href="#BitstreamVeraSans-Roman-35"/>
      </g>
     </g>
    </g>
    <g id="xtick_3">
     <g id="line2d_7">
      <path clip-path="url(#pd533883530)" d="M 211.575475 319.974688 
L 211.575475 13.974688 
" style="fill:none;stroke:#cbcbcb;"/>
     </g>
     <g id="line2d_8"/>
     <g id="line2d_9"/>
     <g id="text_3">
      <!-- 1.0 -->
      <defs>
       <path d="M 12.40625 8.296875 
L 28.515625 8.296875 
L 28.515625 63.921875 
L 10.984375 60.40625 
L 10.984375 69.390625 
L 28.421875 72.90625 
L 38.28125 72.90625 
L 38.28125 8.296875 
L 54.390625 8.296875 
L 54.390625 0 
L 12.40625 0 
z
" id="BitstreamVeraSans-Roman-31"/>
      </defs>
      <g transform="translate(200.4432875 334.6125)scale(0.14 -0.14)">
       <use xlink:href="#BitstreamVeraSans-Roman-31"/>
       <use x="63.623046875" xlink:href="#BitstreamVeraSans-Roman-2e"/>
       <use x="95.41015625" xlink:href="#BitstreamVeraSans-Roman-30"/>
      </g>
     </g>
    </g>
    <g id="xtick_4">
     <g id="line2d_10">
      <path clip-path="url(#pd533883530)" d="M 288.375475 319.974688 
L 288.375475 13.974688 
" style="fill:none;stroke:#cbcbcb;"/>
     </g>
     <g id="line2d_11"/>
     <g id="line2d_12"/>
     <g id="text_4">
      <!-- 1.5 -->
      <g transform="translate(277.2432875 334.6125)scale(0.14 -0.14)">
       <use xlink:href="#BitstreamVeraSans-Roman-31"/>
       <use x="63.623046875" xlink:href="#BitstreamVeraSans-Roman-2e"/>
       <use x="95.41015625" xlink:href="#BitstreamVeraSans-Roman-35"/>
      </g>
     </g>
    </g>
    <g id="xtick_5">
     <g id="line2d_13">
      <path clip-path="url(#pd533883530)" d="M 365.175475 319.974688 
L 365.175475 13.974688 
" style="fill:none;stroke:#cbcbcb;"/>
     </g>
     <g id="line2d_14"/>
     <g id="line2d_15"/>
     <g id="text_5">
      <!-- 2.0 -->
      <defs>
       <path d="M 19.1875 8.296875 
L 53.609375 8.296875 
L 53.609375 0 
L 7.328125 0 
L 7.328125 8.296875 
Q 12.9375 14.109375 22.625 23.890625 
Q 32.328125 33.6875 34.8125 36.53125 
Q 39.546875 41.84375 41.421875 45.53125 
Q 43.3125 49.21875 43.3125 52.78125 
Q 43.3125 58.59375 39.234375 62.25 
Q 35.15625 65.921875 28.609375 65.921875 
Q 23.96875 65.921875 18.8125 64.3125 
Q 13.671875 62.703125 7.8125 59.421875 
L 7.8125 69.390625 
Q 13.765625 71.78125 18.9375 73 
Q 24.125 74.21875 28.421875 74.21875 
Q 39.75 74.21875 46.484375 68.546875 
Q 53.21875 62.890625 53.21875 53.421875 
Q 53.21875 48.921875 51.53125 44.890625 
Q 49.859375 40.875 45.40625 35.40625 
Q 44.1875 33.984375 37.640625 27.21875 
Q 31.109375 20.453125 19.1875 8.296875 
" id="BitstreamVeraSans-Roman-32"/>
      </defs>
      <g transform="translate(354.0432875 334.6125)scale(0.14 -0.14)">
       <use xlink:href="#BitstreamVeraSans-Roman-32"/>
       <use x="63.623046875" xlink:href="#BitstreamVeraSans-Roman-2e"/>
       <use x="95.41015625" xlink:href="#BitstreamVeraSans-Roman-30"/>
      </g>
     </g>
    </g>
    <g id="xtick_6">
     <g id="line2d_16">
      <path clip-path="url(#pd533883530)" d="M 441.975475 319.974688 
L 441.975475 13.974688 
" style="fill:none;stroke:#cbcbcb;"/>
     </g>
     <g id="line2d_17"/>
     <g id="line2d_18"/>
     <g id="text_6">
      <!-- 2.5 -->
      <g transform="translate(430.8432875 334.6125)scale(0.14 -0.14)">
       <use xlink:href="#BitstreamVeraSans-Roman-32"/>
       <use x="63.623046875" xlink:href="#BitstreamVeraSans-Roman-2e"/>
       <use x="95.41015625" xlink:href="#BitstreamVeraSans-Roman-35"/>
      </g>
     </g>
    </g>
    <g id="xtick_7">
     <g id="line2d_19">
      <path clip-path="url(#pd533883530)" d="M 518.775475 319.974688 
L 518.775475 13.974688 
" style="fill:none;stroke:#cbcbcb;"/>
     </g>
     <g id="line2d_20"/>
     <g id="line2d_21"/>
     <g id="text_7">
      <!-- 3.0 -->
      <defs>
       <path d="M 40.578125 39.3125 
Q 47.65625 37.796875 51.625 33 
Q 55.609375 28.21875 55.609375 21.1875 
Q 55.609375 10.40625 48.1875 4.484375 
Q 40.765625 -1.421875 27.09375 -1.421875 
Q 22.515625 -1.421875 17.65625 -0.515625 
Q 12.796875 0.390625 7.625 2.203125 
L 7.625 11.71875 
Q 11.71875 9.328125 16.59375 8.109375 
Q 21.484375 6.890625 26.8125 6.890625 
Q 36.078125 6.890625 40.9375 10.546875 
Q 45.796875 14.203125 45.796875 21.1875 
Q 45.796875 27.640625 41.28125 31.265625 
Q 36.765625 34.90625 28.71875 34.90625 
L 20.21875 34.90625 
L 20.21875 43.015625 
L 29.109375 43.015625 
Q 36.375 43.015625 40.234375 45.921875 
Q 44.09375 48.828125 44.09375 54.296875 
Q 44.09375 59.90625 40.109375 62.90625 
Q 36.140625 65.921875 28.71875 65.921875 
Q 24.65625 65.921875 20.015625 65.03125 
Q 15.375 64.15625 9.8125 62.3125 
L 9.8125 71.09375 
Q 15.4375 72.65625 20.34375 73.4375 
Q 25.25 74.21875 29.59375 74.21875 
Q 40.828125 74.21875 47.359375 69.109375 
Q 53.90625 64.015625 53.90625 55.328125 
Q 53.90625 49.265625 50.4375 45.09375 
Q 46.96875 40.921875 40.578125 39.3125 
" id="BitstreamVeraSans-Roman-33"/>
      </defs>
      <g transform="translate(507.6432875 334.6125)scale(0.14 -0.14)">
       <use xlink:href="#BitstreamVeraSans-Roman-33"/>
       <use x="63.623046875" xlink:href="#BitstreamVeraSans-Roman-2e"/>
       <use x="95.41015625" xlink:href="#BitstreamVeraSans-Roman-30"/>
      </g>
     </g>
    </g>
    <g id="text_8">
     <!-- $\sf \omega_t$ -->
     <defs>
      <path d="M 17.828125 -1.125 
Q 13.421875 -1.125 11.765625 3.296875 
Q 10.109375 7.71875 10.109375 12.984375 
L 10.109375 38.1875 
L 1.90625 38.1875 
L 1.90625 44.390625 
L 10.40625 44.390625 
L 10.40625 57.078125 
L 17.671875 57.078125 
L 17.671875 44.390625 
L 31.59375 44.390625 
L 31.59375 38.1875 
L 17.671875 38.1875 
L 17.671875 14.3125 
Q 17.671875 5.71875 22.3125 5.71875 
Q 27.4375 5.71875 31.5 8.890625 
L 33.203125 2.59375 
Q 29.4375 0.734375 25.71875 -0.1875 
Q 22.015625 -1.125 17.828125 -1.125 
" id="Cmss10-74"/>
      <path d="M 12.109375 -1.125 
Q 6.453125 -1.125 3.9375 3.015625 
Q 1.421875 7.171875 1.421875 13.1875 
Q 1.421875 17.140625 2.125 20.921875 
Q 2.828125 24.703125 4.265625 28.578125 
Q 5.71875 32.46875 7.5625 35.859375 
Q 9.421875 39.265625 11.71875 42.484375 
Q 12.15625 43.109375 12.890625 43.109375 
Q 13.53125 43.109375 13.921875 42.71875 
Q 14.3125 42.328125 14.3125 41.796875 
Q 14.3125 41.265625 14.015625 40.828125 
Q 4.890625 28.265625 4.890625 17.671875 
Q 4.890625 13.09375 7 9.796875 
Q 9.125 6.5 13.484375 6.5 
Q 17.234375 6.5 20.4375 8.6875 
Q 23.640625 10.890625 25.984375 14.3125 
Q 25.984375 16.0625 26.59375 19.765625 
Q 27.203125 23.484375 28.484375 26.390625 
Q 29.78125 29.296875 31.59375 29.296875 
Q 33.890625 29.296875 33.890625 26.609375 
Q 33.890625 25.046875 33.21875 22.671875 
Q 32.5625 20.3125 31.75 18.265625 
Q 30.953125 16.21875 29.78125 13.625 
Q 30.953125 6.5 36.921875 6.5 
Q 40.375 6.5 43.859375 8.5 
Q 47.359375 10.5 50.046875 13.75 
Q 52.734375 17 54.265625 20.75 
Q 55.8125 24.515625 55.8125 27.875 
Q 55.8125 30.90625 54.859375 32.59375 
Q 53.90625 34.28125 52.34375 36.125 
Q 50.78125 37.984375 50.78125 39.109375 
Q 50.78125 41.0625 52.4375 42.671875 
Q 54.109375 44.28125 56 44.28125 
Q 58.453125 44.28125 59.46875 42.0625 
Q 60.5 39.84375 60.5 37.015625 
Q 60.5 32.421875 58.671875 25.4375 
Q 56.84375 18.453125 54.5 13.8125 
Q 51.265625 7.515625 46.40625 3.1875 
Q 41.546875 -1.125 35.5 -1.125 
Q 31.640625 -1.125 29.265625 1.1875 
Q 26.90625 3.515625 26.21875 7.515625 
Q 23.4375 3.5625 19.875 1.21875 
Q 16.3125 -1.125 12.109375 -1.125 
" id="Cmmi10-21"/>
     </defs>
     <g transform="translate(278.799475 357.8425125)scale(0.2016 -0.2016)">
      <use transform="translate(0.0 0.71875)" xlink:href="#Cmmi10-21"/>
      <use transform="translate(62.20703125 -16.981250000000003)scale(0.7)" xlink:href="#Cmss10-74"/>
     </g>
    </g>
   </g>
   <g id="matplotlib.axis_2">
    <g id="ytick_1">
     <g id="line2d_22">
      <path clip-path="url(#pd533883530)" d="M 57.975475 319.974688 
L 518.775475 319.974688 
" style="fill:none;stroke:#cbcbcb;"/>
     </g>
     <g id="line2d_23"/>
     <g id="line2d_24"/>
     <g id="text_9">
      <!-- 0.0 -->
      <g transform="translate(31.7111 323.8378125)scale(0.14 -0.14)">
       <use xlink:href="#BitstreamVeraSans-Roman-30"/>
       <use x="63.623046875" xlink:href="#BitstreamVeraSans-Roman-2e"/>
       <use x="95.41015625" xlink:href="#BitstreamVeraSans-Roman-30"/>
      </g>
     </g>
    </g>
    <g id="ytick_2">
     <g id="line2d_25">
      <path clip-path="url(#pd533883530)" d="M 57.975475 258.774688 
L 518.775475 258.774688 
" style="fill:none;stroke:#cbcbcb;"/>
     </g>
     <g id="line2d_26"/>
     <g id="line2d_27"/>
     <g id="text_10">
      <!-- 0.5 -->
      <g transform="translate(31.7111 262.6378125)scale(0.14 -0.14)">
       <use xlink:href="#BitstreamVeraSans-Roman-30"/>
       <use x="63.623046875" xlink:href="#BitstreamVeraSans-Roman-2e"/>
       <use x="95.41015625" xlink:href="#BitstreamVeraSans-Roman-35"/>
      </g>
     </g>
    </g>
    <g id="ytick_3">
     <g id="line2d_28">
      <path clip-path="url(#pd533883530)" d="M 57.975475 197.574688 
L 518.775475 197.574688 
" style="fill:none;stroke:#cbcbcb;"/>
     </g>
     <g id="line2d_29"/>
     <g id="line2d_30"/>
     <g id="text_11">
      <!-- 1.0 -->
      <g transform="translate(31.7111 201.4378125)scale(0.14 -0.14)">
       <use xlink:href="#BitstreamVeraSans-Roman-31"/>
       <use x="63.623046875" xlink:href="#BitstreamVeraSans-Roman-2e"/>
       <use x="95.41015625" xlink:href="#BitstreamVeraSans-Roman-30"/>
      </g>
     </g>
    </g>
    <g id="ytick_4">
     <g id="line2d_31">
      <path clip-path="url(#pd533883530)" d="M 57.975475 136.374687 
L 518.775475 136.374687 
" style="fill:none;stroke:#cbcbcb;"/>
     </g>
     <g id="line2d_32"/>
     <g id="line2d_33"/>
     <g id="text_12">
      <!-- 1.5 -->
      <g transform="translate(31.7111 140.2378125)scale(0.14 -0.14)">
       <use xlink:href="#BitstreamVeraSans-Roman-31"/>
       <use x="63.623046875" xlink:href="#BitstreamVeraSans-Roman-2e"/>
       <use x="95.41015625" xlink:href="#BitstreamVeraSans-Roman-35"/>
      </g>
     </g>
    </g>
    <g id="ytick_5">
     <g id="line2d_34">
      <path clip-path="url(#pd533883530)" d="M 57.975475 75.174688 
L 518.775475 75.174688 
" style="fill:none;stroke:#cbcbcb;"/>
     </g>
     <g id="line2d_35"/>
     <g id="line2d_36"/>
     <g id="text_13">
      <!-- 2.0 -->
      <g transform="translate(31.7111 79.0378125)scale(0.14 -0.14)">
       <use xlink:href="#BitstreamVeraSans-Roman-32"/>
       <use x="63.623046875" xlink:href="#BitstreamVeraSans-Roman-2e"/>
       <use x="95.41015625" xlink:href="#BitstreamVeraSans-Roman-30"/>
      </g>
     </g>
    </g>
    <g id="ytick_6">
     <g id="line2d_37">
      <path clip-path="url(#pd533883530)" d="M 57.975475 13.974688 
L 518.775475 13.974688 
" style="fill:none;stroke:#cbcbcb;"/>
     </g>
     <g id="line2d_38"/>
     <g id="line2d_39"/>
     <g id="text_14">
      <!-- 2.5 -->
      <g transform="translate(31.7111 17.8378125)scale(0.14 -0.14)">
       <use xlink:href="#BitstreamVeraSans-Roman-32"/>
       <use x="63.623046875" xlink:href="#BitstreamVeraSans-Roman-2e"/>
       <use x="95.41015625" xlink:href="#BitstreamVeraSans-Roman-35"/>
      </g>
     </g>
    </g>
    <g id="text_15">
     <!-- $\sf P_t$ -->
     <defs>
      <path d="M 9.421875 0 
L 9.421875 69.390625 
L 34.71875 69.390625 
Q 39.0625 69.390625 43.265625 67.9375 
Q 47.46875 66.5 50.828125 63.84375 
Q 54.203125 61.1875 56.203125 57.421875 
Q 58.203125 53.65625 58.203125 49.125 
Q 58.203125 43.109375 54.8125 38.390625 
Q 51.421875 33.6875 45.96875 31.09375 
Q 40.53125 28.515625 34.71875 28.515625 
L 18.703125 28.515625 
L 18.703125 0 
z
M 18.40625 34.71875 
L 32.328125 34.71875 
Q 36.921875 34.71875 40.875 36.328125 
Q 44.828125 37.9375 47.265625 41.203125 
Q 49.703125 44.484375 49.703125 49.125 
Q 49.703125 53.65625 47.265625 56.921875 
Q 44.828125 60.203125 40.84375 61.78125 
Q 36.859375 63.375 32.328125 63.375 
L 18.40625 63.375 
z
" id="Cmss10-50"/>
     </defs>
     <g transform="translate(22.51845 177.1554875)rotate(-90.0)scale(0.2016 -0.2016)">
      <use transform="translate(0.0 0.609375)" xlink:href="#Cmss10-50"/>
      <use transform="translate(68.464609375 -17.090625000000003)scale(0.7)" xlink:href="#Cmss10-74"/>
     </g>
    </g>
   </g>
   <g id="line2d_40">
    <path clip-path="url(#pd533883530)" d="M 73.335475 319.47419 
L 78.610627 319.301312 
L 83.885778 319.111824 
L 89.16093 318.835521 
L 94.436081 318.331729 
L 99.711233 317.438964 
L 104.986384 316.042744 
L 110.261536 314.110906 
L 115.536687 311.691017 
L 120.811839 308.887253 
L 126.08699 305.833189 
L 131.362142 302.669235 
L 136.637293 299.527282 
L 141.912445 296.521995 
L 147.187596 293.747094 
L 152.462748 291.274911 
L 157.737899 289.15788 
L 163.013051 287.430975 
L 168.288202 286.114491 
L 173.563354 285.216788 
L 178.838505 284.736808 
L 184.113657 284.666276 
L 189.388808 284.991558 
L 194.66396 285.695194 
L 199.939111 286.757136 
L 205.214263 288.15573 
L 210.489414 289.868484 
L 215.764566 291.872657 
L 221.039717 294.145699 
L 226.314869 296.665582 
L 231.59002 299.41103 
L 236.865172 302.36168 
L 242.140323 305.498186 
L 247.415475 308.802277 
L 252.690627 312.256783 
L 257.965778 315.845637 
L 263.24093 319.553858 
L 268.516081 323.367516 
L 273.791233 327.273696 
L 279.066384 331.260451 
L 284.341536 335.31675 
L 289.616687 339.432429 
L 294.891839 343.598136 
L 300.16699 347.80528 
L 305.442142 352.04598 
L 310.717293 356.313018 
L 315.992445 360.599789 
L 321.267596 364.900258 
L 326.542748 369.208917 
L 327.79827 370.235163 
" style="fill:none;stroke:#fc4f30;stroke-width:4.0;"/>
   </g>
   <g id="line2d_41">
    <path clip-path="url(#pd533883530)" d="M 73.335475 319.19267 
L 78.610627 318.924049 
L 83.885778 318.653445 
L 89.16093 318.363477 
L 94.436081 317.991215 
L 99.711233 317.411645 
L 104.986384 316.46084 
L 110.261536 314.982937 
L 115.536687 312.870796 
L 120.811839 310.085263 
L 126.08699 306.654184 
L 131.362142 302.659144 
L 136.637293 298.217706 
L 141.912445 293.466274 
L 147.187596 288.54609 
L 152.462748 283.593053 
L 157.737899 278.731122 
L 163.013051 274.06863 
L 168.288202 269.696752 
L 173.563354 265.68948 
L 178.838505 262.104541 
L 184.113657 258.984871 
L 189.388808 256.360348 
L 194.66396 254.249599 
L 199.939111 252.661753 
L 205.214263 251.598072 
L 210.489414 251.053417 
L 215.764566 251.017547 
L 221.039717 251.476238 
L 226.314869 252.412237 
L 231.59002 253.806069 
L 236.865172 255.636709 
L 242.140323 257.882131 
L 247.415475 260.519761 
L 252.690627 263.526839 
L 257.965778 266.880708 
L 263.24093 270.559041 
L 268.516081 274.540019 
L 273.791233 278.802459 
L 279.066384 283.325914 
L 284.341536 288.090739 
L 289.616687 293.078139 
L 294.891839 298.270188 
L 300.16699 303.64985 
L 305.442142 309.200966 
L 310.717293 314.908252 
L 315.992445 320.757278 
L 321.267596 326.734444 
L 326.542748 332.826952 
L 331.817899 339.02278 
L 337.093051 345.310646 
L 342.368202 351.679976 
L 347.643354 358.120873 
L 352.918505 364.624078 
L 357.432755 370.235163 
" style="fill:none;stroke:#5cb85c;stroke-width:4.0;"/>
   </g>
   <g id="line2d_42">
    <path clip-path="url(#pd533883530)" d="M 73.335475 318.848583 
L 78.610627 318.461837 
L 83.885778 318.074901 
L 89.16093 317.684597 
L 94.436081 317.271894 
L 99.711233 316.778787 
L 104.986384 316.093695 
L 110.261536 315.061559 
L 115.536687 313.51402 
L 120.811839 311.303524 
L 126.08699 308.328487 
L 131.362142 304.54496 
L 136.637293 299.966371 
L 141.912445 294.6554 
L 147.187596 288.712079 
L 152.462748 282.261163 
L 157.737899 275.440613 
L 163.013051 268.392103 
L 168.288202 261.253785 
L 173.563354 254.155187 
L 178.838505 247.213936 
L 184.113657 240.533936 
L 189.388808 234.204655 
L 194.66396 228.301207 
L 199.939111 222.884975 
L 205.214263 218.004577 
L 210.489414 213.697027 
L 215.764566 209.988981 
L 221.039717 206.897992 
L 226.314869 204.433724 
L 231.59002 202.599094 
L 236.865172 201.391316 
L 242.140323 200.802859 
L 247.415475 200.822281 
L 252.690627 201.434987 
L 257.965778 202.623874 
L 263.24093 204.369897 
L 268.516081 206.65256 
L 273.791233 209.450325 
L 279.066384 212.740964 
L 284.341536 216.501856 
L 289.616687 220.710234 
L 294.891839 225.343384 
L 300.16699 230.378816 
L 305.442142 235.794398 
L 310.717293 241.568462 
L 315.992445 247.67989 
L 321.267596 254.10818 
L 326.542748 260.833491 
L 331.817899 267.836681 
L 337.093051 275.099328 
L 342.368202 282.603741 
L 347.643354 290.332969 
L 352.918505 298.270793 
L 358.193657 306.401728 
L 363.468808 314.711001 
L 368.74396 323.184545 
L 374.019111 331.808976 
L 379.294263 340.571576 
L 384.569414 349.460272 
L 389.844566 358.46361 
L 395.119717 367.570739 
L 396.647354 370.235163 
" style="fill:none;stroke:#30a2da;stroke-width:4.0;"/>
   </g>
   <g id="line2d_43">
    <path clip-path="url(#pd533883530)" d="M 73.335475 318.441934 
L 78.610627 317.915533 
L 83.885778 317.389117 
L 89.16093 316.8622 
L 94.436081 316.330182 
L 99.711233 315.772559 
L 104.986384 315.13482 
L 110.261536 314.316072 
L 115.536687 313.172649 
L 120.811839 311.537066 
L 126.08699 309.24387 
L 131.362142 306.153452 
L 136.637293 302.16847 
L 141.912445 297.241499 
L 147.187596 291.375103 
L 152.462748 284.6166 
L 157.737899 277.049833 
L 163.013051 268.785833 
L 168.288202 259.953666 
L 173.563354 250.69225 
L 178.838505 241.143506 
L 184.113657 231.446954 
L 189.388808 221.735676 
L 194.66396 212.133489 
L 199.939111 202.753134 
L 205.214263 193.695287 
L 210.489414 185.048192 
L 215.764566 176.887773 
L 221.039717 169.278083 
L 226.314869 162.271977 
L 231.59002 155.911932 
L 236.865172 150.230942 
L 242.140323 145.253447 
L 247.415475 140.996251 
L 252.690627 137.469412 
L 257.965778 134.677084 
L 263.24093 132.618302 
L 268.516081 131.287705 
L 273.791233 130.676197 
L 279.066384 130.771534 
L 284.341536 131.558865 
L 289.616687 133.021198 
L 294.891839 135.139823 
L 300.16699 137.89468 
L 305.442142 141.264676 
L 310.717293 145.22797 
L 315.992445 149.762214 
L 321.267596 154.844755 
L 326.542748 160.452823 
L 331.817899 166.563672 
L 337.093051 173.154715 
L 342.368202 180.203625 
L 347.643354 187.688427 
L 352.918505 195.587569 
L 358.193657 203.87998 
L 363.468808 212.54512 
L 368.74396 221.563009 
L 374.019111 230.914261 
L 379.294263 240.580099 
L 384.569414 250.542371 
L 389.844566 260.783554 
L 395.119717 271.286756 
L 400.394869 282.03572 
L 405.67002 293.01481 
L 410.945172 304.209012 
L 416.220323 315.603917 
L 421.495475 327.185713 
L 426.770627 338.941171 
L 432.045778 350.857626 
L 437.32093 362.92297 
L 440.481956 370.235163 
" style="fill:none;stroke:#e5ae38;stroke-width:4.0;"/>
   </g>
   <g id="line2d_44">
    <path clip-path="url(#pd533883530)" d="M 73.335475 317.972723 
L 78.610627 317.28518 
L 83.885778 316.597636 
L 89.16093 315.910024 
L 94.436081 315.221384 
L 99.711233 314.525613 
L 104.986384 313.800921 
L 110.261536 312.995378 
L 115.536687 312.016515 
L 120.811839 310.731674 
L 126.08699 308.979797 
L 131.362142 306.590276 
L 136.637293 303.403051 
L 141.912445 299.285447 
L 147.187596 294.143435 
L 152.462748 287.926958 
L 157.737899 280.630159 
L 163.013051 272.287862 
L 168.288202 262.969718 
L 173.563354 252.77321 
L 178.838505 241.816433 
L 184.113657 230.231255 
L 189.388808 218.157227 
L 194.66396 205.736421 
L 199.939111 193.109236 
L 205.214263 180.411135 
L 210.489414 167.770228 
L 215.764566 155.305574 
L 221.039717 143.126109 
L 226.314869 131.330058 
L 231.59002 120.004747 
L 236.865172 109.226713 
L 242.140323 99.06204 
L 247.415475 89.566854 
L 252.690627 80.787928 
L 257.965778 72.763342 
L 263.24093 65.523197 
L 268.516081 59.090315 
L 273.791233 53.48095 
L 279.066384 48.70546 
L 284.341536 44.768959 
L 289.616687 41.671926 
L 294.891839 39.410768 
L 300.16699 37.978355 
L 305.442142 37.364491 
L 310.717293 37.556362 
L 315.992445 38.538928 
L 321.267596 40.295285 
L 326.542748 42.806988 
L 331.817899 46.054336 
L 337.093051 50.016634 
L 342.368202 54.672412 
L 347.643354 59.999634 
L 352.918505 65.975869 
L 358.193657 72.578446 
L 363.468808 79.784592 
L 368.74396 87.571543 
L 374.019111 95.916649 
L 379.294263 104.797456 
L 384.569414 114.191785 
L 389.844566 124.077787 
L 395.119717 134.434 
L 400.394869 145.239391 
L 405.67002 156.473387 
L 410.945172 168.115908 
L 416.220323 180.147386 
L 421.495475 192.548783 
L 426.770627 205.301599 
L 432.045778 218.387885 
L 437.32093 231.790243 
L 442.596081 245.49183 
L 447.871233 259.476354 
L 453.146384 273.728072 
L 458.421536 288.231783 
L 463.696687 302.972821 
L 468.971839 317.937048 
L 474.24699 333.110841 
L 479.522142 348.481085 
L 484.797293 364.035159 
L 486.877062 370.235163 
" style="fill:none;stroke:#8b8b8b;stroke-width:4.0;"/>
   </g>
   <g id="patch_3">
    <path d="M 518.775475 319.974688 
L 518.775475 13.974688 
" style="fill:none;stroke:#ffffff;stroke-linecap:square;stroke-linejoin:miter;stroke-width:3.0;"/>
   </g>
   <g id="patch_4">
    <path d="M 57.975475 13.974688 
L 518.775475 13.974688 
" style="fill:none;stroke:#ffffff;stroke-linecap:square;stroke-linejoin:miter;stroke-width:3.0;"/>
   </g>
   <g id="patch_5">
    <path d="M 57.975475 319.974688 
L 57.975475 13.974688 
" style="fill:none;stroke:#ffffff;stroke-linecap:square;stroke-linejoin:miter;stroke-width:3.0;"/>
   </g>
   <g id="patch_6">
    <path d="M 57.975475 319.974688 
L 518.775475 319.974688 
" style="fill:none;stroke:#ffffff;stroke-linecap:square;stroke-linejoin:miter;stroke-width:3.0;"/>
   </g>
  </g>
 </g>
 <defs>
  <clipPath id="pd533883530">
   <rect height="306.0" width="460.8" x="57.975475" y="13.9746875"/>
  </clipPath>
 </defs>
</svg>
