<?xml version="1.0" encoding="utf-8" standalone="no"?>
<!DOCTYPE svg PUBLIC "-//W3C//DTD SVG 1.1//EN"
  "http://www.w3.org/Graphics/SVG/1.1/DTD/svg11.dtd">
<!-- Created with matplotlib (http://matplotlib.org/) -->
<svg height="360pt" version="1.1" viewBox="0 0 526 360" width="526pt" xmlns="http://www.w3.org/2000/svg" xmlns:xlink="http://www.w3.org/1999/xlink">
 <defs>
  <style type="text/css">
*{stroke-linecap:butt;stroke-linejoin:round;stroke-miterlimit:100000;}
  </style>
 </defs>
 <g id="figure_1">
  <g id="patch_1">
   <path d="M 0 360.757125 
L 526.762125 360.757125 
L 526.762125 -0 
L 0 -0 
z
" style="fill:none;opacity:0;"/>
  </g>
  <g id="axes_1">
   <g id="patch_2">
    <path d="M 49.22025 319.006875 
L 510.02025 319.006875 
L 510.02025 13.006875 
L 49.22025 13.006875 
z
" style="fill:#ffffff;"/>
   </g>
   <g id="matplotlib.axis_1">
    <g id="xtick_1">
     <g id="line2d_1">
      <path clip-path="url(#pedac3a4371)" d="M 49.22025 319.006875 
L 49.22025 13.006875 
" style="fill:none;stroke:#cbcbcb;"/>
     </g>
     <g id="line2d_2"/>
     <g id="line2d_3"/>
     <g id="text_1">
      <!-- 0.0 -->
      <defs>
       <path d="M 10.6875 12.40625 
L 21 12.40625 
L 21 0 
L 10.6875 0 
z
" id="BitstreamVeraSans-Roman-2e"/>
       <path d="M 31.78125 66.40625 
Q 24.171875 66.40625 20.328125 58.90625 
Q 16.5 51.421875 16.5 36.375 
Q 16.5 21.390625 20.328125 13.890625 
Q 24.171875 6.390625 31.78125 6.390625 
Q 39.453125 6.390625 43.28125 13.890625 
Q 47.125 21.390625 47.125 36.375 
Q 47.125 51.421875 43.28125 58.90625 
Q 39.453125 66.40625 31.78125 66.40625 
M 31.78125 74.21875 
Q 44.046875 74.21875 50.515625 64.515625 
Q 56.984375 54.828125 56.984375 36.375 
Q 56.984375 17.96875 50.515625 8.265625 
Q 44.046875 -1.421875 31.78125 -1.421875 
Q 19.53125 -1.421875 13.0625 8.265625 
Q 6.59375 17.96875 6.59375 36.375 
Q 6.59375 54.828125 13.0625 64.515625 
Q 19.53125 74.21875 31.78125 74.21875 
" id="BitstreamVeraSans-Roman-30"/>
      </defs>
      <g transform="translate(39.678375 332.125)scale(0.12 -0.12)">
       <use xlink:href="#BitstreamVeraSans-Roman-30"/>
       <use x="63.623046875" xlink:href="#BitstreamVeraSans-Roman-2e"/>
       <use x="95.41015625" xlink:href="#BitstreamVeraSans-Roman-30"/>
      </g>
     </g>
    </g>
    <g id="xtick_2">
     <g id="line2d_4">
      <path clip-path="url(#pedac3a4371)" d="M 126.02025 319.006875 
L 126.02025 13.006875 
" style="fill:none;stroke:#cbcbcb;"/>
     </g>
     <g id="line2d_5"/>
     <g id="line2d_6"/>
     <g id="text_2">
      <!-- 0.5 -->
      <defs>
       <path d="M 10.796875 72.90625 
L 49.515625 72.90625 
L 49.515625 64.59375 
L 19.828125 64.59375 
L 19.828125 46.734375 
Q 21.96875 47.46875 24.109375 47.828125 
Q 26.265625 48.1875 28.421875 48.1875 
Q 40.625 48.1875 47.75 41.5 
Q 54.890625 34.8125 54.890625 23.390625 
Q 54.890625 11.625 47.5625 5.09375 
Q 40.234375 -1.421875 26.90625 -1.421875 
Q 22.3125 -1.421875 17.546875 -0.640625 
Q 12.796875 0.140625 7.71875 1.703125 
L 7.71875 11.625 
Q 12.109375 9.234375 16.796875 8.0625 
Q 21.484375 6.890625 26.703125 6.890625 
Q 35.15625 6.890625 40.078125 11.328125 
Q 45.015625 15.765625 45.015625 23.390625 
Q 45.015625 31 40.078125 35.4375 
Q 35.15625 39.890625 26.703125 39.890625 
Q 22.75 39.890625 18.8125 39.015625 
Q 14.890625 38.140625 10.796875 36.28125 
z
" id="BitstreamVeraSans-Roman-35"/>
      </defs>
      <g transform="translate(116.478375 332.125)scale(0.12 -0.12)">
       <use xlink:href="#BitstreamVeraSans-Roman-30"/>
       <use x="63.623046875" xlink:href="#BitstreamVeraSans-Roman-2e"/>
       <use x="95.41015625" xlink:href="#BitstreamVeraSans-Roman-35"/>
      </g>
     </g>
    </g>
    <g id="xtick_3">
     <g id="line2d_7">
      <path clip-path="url(#pedac3a4371)" d="M 202.82025 319.006875 
L 202.82025 13.006875 
" style="fill:none;stroke:#cbcbcb;"/>
     </g>
     <g id="line2d_8"/>
     <g id="line2d_9"/>
     <g id="text_3">
      <!-- 1.0 -->
      <defs>
       <path d="M 12.40625 8.296875 
L 28.515625 8.296875 
L 28.515625 63.921875 
L 10.984375 60.40625 
L 10.984375 69.390625 
L 28.421875 72.90625 
L 38.28125 72.90625 
L 38.28125 8.296875 
L 54.390625 8.296875 
L 54.390625 0 
L 12.40625 0 
z
" id="BitstreamVeraSans-Roman-31"/>
      </defs>
      <g transform="translate(193.278375 332.125)scale(0.12 -0.12)">
       <use xlink:href="#BitstreamVeraSans-Roman-31"/>
       <use x="63.623046875" xlink:href="#BitstreamVeraSans-Roman-2e"/>
       <use x="95.41015625" xlink:href="#BitstreamVeraSans-Roman-30"/>
      </g>
     </g>
    </g>
    <g id="xtick_4">
     <g id="line2d_10">
      <path clip-path="url(#pedac3a4371)" d="M 279.62025 319.006875 
L 279.62025 13.006875 
" style="fill:none;stroke:#cbcbcb;"/>
     </g>
     <g id="line2d_11"/>
     <g id="line2d_12"/>
     <g id="text_4">
      <!-- 1.5 -->
      <g transform="translate(270.078375 332.125)scale(0.12 -0.12)">
       <use xlink:href="#BitstreamVeraSans-Roman-31"/>
       <use x="63.623046875" xlink:href="#BitstreamVeraSans-Roman-2e"/>
       <use x="95.41015625" xlink:href="#BitstreamVeraSans-Roman-35"/>
      </g>
     </g>
    </g>
    <g id="xtick_5">
     <g id="line2d_13">
      <path clip-path="url(#pedac3a4371)" d="M 356.42025 319.006875 
L 356.42025 13.006875 
" style="fill:none;stroke:#cbcbcb;"/>
     </g>
     <g id="line2d_14"/>
     <g id="line2d_15"/>
     <g id="text_5">
      <!-- 2.0 -->
      <defs>
       <path d="M 19.1875 8.296875 
L 53.609375 8.296875 
L 53.609375 0 
L 7.328125 0 
L 7.328125 8.296875 
Q 12.9375 14.109375 22.625 23.890625 
Q 32.328125 33.6875 34.8125 36.53125 
Q 39.546875 41.84375 41.421875 45.53125 
Q 43.3125 49.21875 43.3125 52.78125 
Q 43.3125 58.59375 39.234375 62.25 
Q 35.15625 65.921875 28.609375 65.921875 
Q 23.96875 65.921875 18.8125 64.3125 
Q 13.671875 62.703125 7.8125 59.421875 
L 7.8125 69.390625 
Q 13.765625 71.78125 18.9375 73 
Q 24.125 74.21875 28.421875 74.21875 
Q 39.75 74.21875 46.484375 68.546875 
Q 53.21875 62.890625 53.21875 53.421875 
Q 53.21875 48.921875 51.53125 44.890625 
Q 49.859375 40.875 45.40625 35.40625 
Q 44.1875 33.984375 37.640625 27.21875 
Q 31.109375 20.453125 19.1875 8.296875 
" id="BitstreamVeraSans-Roman-32"/>
      </defs>
      <g transform="translate(346.878375 332.125)scale(0.12 -0.12)">
       <use xlink:href="#BitstreamVeraSans-Roman-32"/>
       <use x="63.623046875" xlink:href="#BitstreamVeraSans-Roman-2e"/>
       <use x="95.41015625" xlink:href="#BitstreamVeraSans-Roman-30"/>
      </g>
     </g>
    </g>
    <g id="xtick_6">
     <g id="line2d_16">
      <path clip-path="url(#pedac3a4371)" d="M 433.22025 319.006875 
L 433.22025 13.006875 
" style="fill:none;stroke:#cbcbcb;"/>
     </g>
     <g id="line2d_17"/>
     <g id="line2d_18"/>
     <g id="text_6">
      <!-- 2.5 -->
      <g transform="translate(423.678375 332.125)scale(0.12 -0.12)">
       <use xlink:href="#BitstreamVeraSans-Roman-32"/>
       <use x="63.623046875" xlink:href="#BitstreamVeraSans-Roman-2e"/>
       <use x="95.41015625" xlink:href="#BitstreamVeraSans-Roman-35"/>
      </g>
     </g>
    </g>
    <g id="xtick_7">
     <g id="line2d_19">
      <path clip-path="url(#pedac3a4371)" d="M 510.02025 319.006875 
L 510.02025 13.006875 
" style="fill:none;stroke:#cbcbcb;"/>
     </g>
     <g id="line2d_20"/>
     <g id="line2d_21"/>
     <g id="text_7">
      <!-- 3.0 -->
      <defs>
       <path d="M 40.578125 39.3125 
Q 47.65625 37.796875 51.625 33 
Q 55.609375 28.21875 55.609375 21.1875 
Q 55.609375 10.40625 48.1875 4.484375 
Q 40.765625 -1.421875 27.09375 -1.421875 
Q 22.515625 -1.421875 17.65625 -0.515625 
Q 12.796875 0.390625 7.625 2.203125 
L 7.625 11.71875 
Q 11.71875 9.328125 16.59375 8.109375 
Q 21.484375 6.890625 26.8125 6.890625 
Q 36.078125 6.890625 40.9375 10.546875 
Q 45.796875 14.203125 45.796875 21.1875 
Q 45.796875 27.640625 41.28125 31.265625 
Q 36.765625 34.90625 28.71875 34.90625 
L 20.21875 34.90625 
L 20.21875 43.015625 
L 29.109375 43.015625 
Q 36.375 43.015625 40.234375 45.921875 
Q 44.09375 48.828125 44.09375 54.296875 
Q 44.09375 59.90625 40.109375 62.90625 
Q 36.140625 65.921875 28.71875 65.921875 
Q 24.65625 65.921875 20.015625 65.03125 
Q 15.375 64.15625 9.8125 62.3125 
L 9.8125 71.09375 
Q 15.4375 72.65625 20.34375 73.4375 
Q 25.25 74.21875 29.59375 74.21875 
Q 40.828125 74.21875 47.359375 69.109375 
Q 53.90625 64.015625 53.90625 55.328125 
Q 53.90625 49.265625 50.4375 45.09375 
Q 46.96875 40.921875 40.578125 39.3125 
" id="BitstreamVeraSans-Roman-33"/>
      </defs>
      <g transform="translate(500.478375 332.125)scale(0.12 -0.12)">
       <use xlink:href="#BitstreamVeraSans-Roman-33"/>
       <use x="63.623046875" xlink:href="#BitstreamVeraSans-Roman-2e"/>
       <use x="95.41015625" xlink:href="#BitstreamVeraSans-Roman-30"/>
      </g>
     </g>
    </g>
    <g id="text_8">
     <!-- $\sf \omega_t$ -->
     <defs>
      <path d="M 12.109375 -1.125 
Q 6.453125 -1.125 3.9375 3.015625 
Q 1.421875 7.171875 1.421875 13.1875 
Q 1.421875 17.140625 2.125 20.921875 
Q 2.828125 24.703125 4.265625 28.578125 
Q 5.71875 32.46875 7.5625 35.859375 
Q 9.421875 39.265625 11.71875 42.484375 
Q 12.15625 43.109375 12.890625 43.109375 
Q 13.53125 43.109375 13.921875 42.71875 
Q 14.3125 42.328125 14.3125 41.796875 
Q 14.3125 41.265625 14.015625 40.828125 
Q 4.890625 28.265625 4.890625 17.671875 
Q 4.890625 13.09375 7 9.796875 
Q 9.125 6.5 13.484375 6.5 
Q 17.234375 6.5 20.4375 8.6875 
Q 23.640625 10.890625 25.984375 14.3125 
Q 25.984375 16.0625 26.59375 19.765625 
Q 27.203125 23.484375 28.484375 26.390625 
Q 29.78125 29.296875 31.59375 29.296875 
Q 33.890625 29.296875 33.890625 26.609375 
Q 33.890625 25.046875 33.21875 22.671875 
Q 32.5625 20.3125 31.75 18.265625 
Q 30.953125 16.21875 29.78125 13.625 
Q 30.953125 6.5 36.921875 6.5 
Q 40.375 6.5 43.859375 8.5 
Q 47.359375 10.5 50.046875 13.75 
Q 52.734375 17 54.265625 20.75 
Q 55.8125 24.515625 55.8125 27.875 
Q 55.8125 30.90625 54.859375 32.59375 
Q 53.90625 34.28125 52.34375 36.125 
Q 50.78125 37.984375 50.78125 39.109375 
Q 50.78125 41.0625 52.4375 42.671875 
Q 54.109375 44.28125 56 44.28125 
Q 58.453125 44.28125 59.46875 42.0625 
Q 60.5 39.84375 60.5 37.015625 
Q 60.5 32.421875 58.671875 25.4375 
Q 56.84375 18.453125 54.5 13.8125 
Q 51.265625 7.515625 46.40625 3.1875 
Q 41.546875 -1.125 35.5 -1.125 
Q 31.640625 -1.125 29.265625 1.1875 
Q 26.90625 3.515625 26.21875 7.515625 
Q 23.4375 3.5625 19.875 1.21875 
Q 16.3125 -1.125 12.109375 -1.125 
" id="Cmmi10-21"/>
      <path d="M 17.828125 -1.125 
Q 13.421875 -1.125 11.765625 3.296875 
Q 10.109375 7.71875 10.109375 12.984375 
L 10.109375 38.1875 
L 1.90625 38.1875 
L 1.90625 44.390625 
L 10.40625 44.390625 
L 10.40625 57.078125 
L 17.671875 57.078125 
L 17.671875 44.390625 
L 31.59375 44.390625 
L 31.59375 38.1875 
L 17.671875 38.1875 
L 17.671875 14.3125 
Q 17.671875 5.71875 22.3125 5.71875 
Q 27.4375 5.71875 31.5 8.890625 
L 33.203125 2.59375 
Q 29.4375 0.734375 25.71875 -0.1875 
Q 22.015625 -1.125 17.828125 -1.125 
" id="Cmss10-74"/>
     </defs>
     <g transform="translate(272.78025 350.562375)scale(0.144 -0.144)">
      <use transform="translate(0.0 0.71875)" xlink:href="#Cmmi10-21"/>
      <use transform="translate(62.20703125 -16.981250000000003)scale(0.7)" xlink:href="#Cmss10-74"/>
     </g>
    </g>
   </g>
   <g id="matplotlib.axis_2">
    <g id="ytick_1">
     <g id="line2d_22">
      <path clip-path="url(#pedac3a4371)" d="M 49.22025 319.006875 
L 510.02025 319.006875 
" style="fill:none;stroke:#cbcbcb;"/>
     </g>
     <g id="line2d_23"/>
     <g id="line2d_24"/>
     <g id="text_9">
      <!-- 0.0 -->
      <g transform="translate(26.1365 322.318125)scale(0.12 -0.12)">
       <use xlink:href="#BitstreamVeraSans-Roman-30"/>
       <use x="63.623046875" xlink:href="#BitstreamVeraSans-Roman-2e"/>
       <use x="95.41015625" xlink:href="#BitstreamVeraSans-Roman-30"/>
      </g>
     </g>
    </g>
    <g id="ytick_2">
     <g id="line2d_25">
      <path clip-path="url(#pedac3a4371)" d="M 49.22025 257.806875 
L 510.02025 257.806875 
" style="fill:none;stroke:#cbcbcb;"/>
     </g>
     <g id="line2d_26"/>
     <g id="line2d_27"/>
     <g id="text_10">
      <!-- 0.5 -->
      <g transform="translate(26.1365 261.118125)scale(0.12 -0.12)">
       <use xlink:href="#BitstreamVeraSans-Roman-30"/>
       <use x="63.623046875" xlink:href="#BitstreamVeraSans-Roman-2e"/>
       <use x="95.41015625" xlink:href="#BitstreamVeraSans-Roman-35"/>
      </g>
     </g>
    </g>
    <g id="ytick_3">
     <g id="line2d_28">
      <path clip-path="url(#pedac3a4371)" d="M 49.22025 196.606875 
L 510.02025 196.606875 
" style="fill:none;stroke:#cbcbcb;"/>
     </g>
     <g id="line2d_29"/>
     <g id="line2d_30"/>
     <g id="text_11">
      <!-- 1.0 -->
      <g transform="translate(26.1365 199.918125)scale(0.12 -0.12)">
       <use xlink:href="#BitstreamVeraSans-Roman-31"/>
       <use x="63.623046875" xlink:href="#BitstreamVeraSans-Roman-2e"/>
       <use x="95.41015625" xlink:href="#BitstreamVeraSans-Roman-30"/>
      </g>
     </g>
    </g>
    <g id="ytick_4">
     <g id="line2d_31">
      <path clip-path="url(#pedac3a4371)" d="M 49.22025 135.406875 
L 510.02025 135.406875 
" style="fill:none;stroke:#cbcbcb;"/>
     </g>
     <g id="line2d_32"/>
     <g id="line2d_33"/>
     <g id="text_12">
      <!-- 1.5 -->
      <g transform="translate(26.1365 138.718125)scale(0.12 -0.12)">
       <use xlink:href="#BitstreamVeraSans-Roman-31"/>
       <use x="63.623046875" xlink:href="#BitstreamVeraSans-Roman-2e"/>
       <use x="95.41015625" xlink:href="#BitstreamVeraSans-Roman-35"/>
      </g>
     </g>
    </g>
    <g id="ytick_5">
     <g id="line2d_34">
      <path clip-path="url(#pedac3a4371)" d="M 49.22025 74.206875 
L 510.02025 74.206875 
" style="fill:none;stroke:#cbcbcb;"/>
     </g>
     <g id="line2d_35"/>
     <g id="line2d_36"/>
     <g id="text_13">
      <!-- 2.0 -->
      <g transform="translate(26.1365 77.518125)scale(0.12 -0.12)">
       <use xlink:href="#BitstreamVeraSans-Roman-32"/>
       <use x="63.623046875" xlink:href="#BitstreamVeraSans-Roman-2e"/>
       <use x="95.41015625" xlink:href="#BitstreamVeraSans-Roman-30"/>
      </g>
     </g>
    </g>
    <g id="ytick_6">
     <g id="line2d_37">
      <path clip-path="url(#pedac3a4371)" d="M 49.22025 13.006875 
L 510.02025 13.006875 
" style="fill:none;stroke:#cbcbcb;"/>
     </g>
     <g id="line2d_38"/>
     <g id="line2d_39"/>
     <g id="text_14">
      <!-- 2.5 -->
      <g transform="translate(26.1365 16.318125)scale(0.12 -0.12)">
       <use xlink:href="#BitstreamVeraSans-Roman-32"/>
       <use x="63.623046875" xlink:href="#BitstreamVeraSans-Roman-2e"/>
       <use x="95.41015625" xlink:href="#BitstreamVeraSans-Roman-35"/>
      </g>
     </g>
    </g>
    <g id="text_15">
     <!-- $\sf P_t$ -->
     <defs>
      <path d="M 9.421875 0 
L 9.421875 69.390625 
L 34.71875 69.390625 
Q 39.0625 69.390625 43.265625 67.9375 
Q 47.46875 66.5 50.828125 63.84375 
Q 54.203125 61.1875 56.203125 57.421875 
Q 58.203125 53.65625 58.203125 49.125 
Q 58.203125 43.109375 54.8125 38.390625 
Q 51.421875 33.6875 45.96875 31.09375 
Q 40.53125 28.515625 34.71875 28.515625 
L 18.703125 28.515625 
L 18.703125 0 
z
M 18.40625 34.71875 
L 32.328125 34.71875 
Q 36.921875 34.71875 40.875 36.328125 
Q 44.828125 37.9375 47.265625 41.203125 
Q 49.703125 44.484375 49.703125 49.125 
Q 49.703125 53.65625 47.265625 56.921875 
Q 44.828125 60.203125 40.84375 61.78125 
Q 36.859375 63.375 32.328125 63.375 
L 18.40625 63.375 
z
" id="Cmss10-50"/>
     </defs>
     <g transform="translate(18.14175 173.278875)rotate(-90.0)scale(0.144 -0.144)">
      <use transform="translate(0.0 0.609375)" xlink:href="#Cmss10-50"/>
      <use transform="translate(68.464609375 -17.090625000000003)scale(0.7)" xlink:href="#Cmss10-74"/>
     </g>
    </g>
   </g>
   <g id="line2d_40">
    <path clip-path="url(#pedac3a4371)" d="M 64.58025 318.506378 
L 69.855402 318.333499 
L 75.130553 318.144011 
L 80.405705 317.867708 
L 85.680856 317.363916 
L 90.956008 316.471151 
L 96.231159 315.074931 
L 101.506311 313.143093 
L 106.781462 310.723204 
L 112.056614 307.91944 
L 117.331765 304.865376 
L 122.606917 301.701422 
L 127.882068 298.559469 
L 133.15722 295.554183 
L 138.432371 292.779281 
L 143.707523 290.307098 
L 148.982674 288.190067 
L 154.257826 286.463163 
L 159.532977 285.146679 
L 164.808129 284.248976 
L 170.08328 283.768995 
L 175.358432 283.698463 
L 180.633583 284.023745 
L 185.908735 284.727381 
L 191.183886 285.789323 
L 196.459038 287.187917 
L 201.734189 288.900672 
L 207.009341 290.904844 
L 212.284492 293.177887 
L 217.559644 295.69777 
L 222.834795 298.443218 
L 228.109947 301.393868 
L 233.385098 304.530374 
L 238.66025 307.834465 
L 243.935402 311.288971 
L 249.210553 314.877825 
L 254.485705 318.586045 
L 259.760856 322.399703 
L 265.036008 326.305883 
L 270.311159 330.292638 
L 275.586311 334.348938 
L 280.861462 338.464617 
L 286.136614 342.630324 
L 291.411765 346.837467 
L 296.686917 351.078168 
L 301.962068 355.345206 
L 307.23722 359.631976 
L 309.844024 361.757125 
" style="fill:none;stroke:#fc4f30;stroke-width:4.0;"/>
   </g>
   <g id="line2d_41">
    <path clip-path="url(#pedac3a4371)" d="M 64.58025 318.224858 
L 69.855402 317.956236 
L 75.130553 317.685632 
L 80.405705 317.395664 
L 85.680856 317.023402 
L 90.956008 316.443832 
L 96.231159 315.493028 
L 101.506311 314.015124 
L 106.781462 311.902983 
L 112.056614 309.117451 
L 117.331765 305.686372 
L 122.606917 301.691332 
L 127.882068 297.249893 
L 133.15722 292.498462 
L 138.432371 287.578277 
L 143.707523 282.62524 
L 148.982674 277.76331 
L 154.257826 273.100817 
L 159.532977 268.72894 
L 164.808129 264.721668 
L 170.08328 261.136729 
L 175.358432 258.017058 
L 180.633583 255.392535 
L 185.908735 253.281786 
L 191.183886 251.693941 
L 196.459038 250.630259 
L 201.734189 250.085605 
L 207.009341 250.049735 
L 212.284492 250.508425 
L 217.559644 251.444424 
L 222.834795 252.838257 
L 228.109947 254.668897 
L 233.385098 256.914319 
L 238.66025 259.551949 
L 243.935402 262.559027 
L 249.210553 265.912895 
L 254.485705 269.591229 
L 259.760856 273.572207 
L 265.036008 277.834647 
L 270.311159 282.358102 
L 275.586311 287.122927 
L 280.861462 292.110326 
L 286.136614 297.302376 
L 291.411765 302.682037 
L 296.686917 308.233154 
L 301.962068 313.94044 
L 307.23722 319.789466 
L 312.512371 325.766631 
L 317.787523 331.859139 
L 323.062674 338.054967 
L 328.337826 344.342833 
L 333.612977 350.712164 
L 338.888129 357.15306 
L 342.62277 361.757125 
" style="fill:none;stroke:#5cb85c;stroke-width:4.0;"/>
   </g>
   <g id="line2d_42">
    <path clip-path="url(#pedac3a4371)" d="M 64.58025 317.88077 
L 69.855402 317.494025 
L 75.130553 317.107088 
L 80.405705 316.716784 
L 85.680856 316.304081 
L 90.956008 315.810974 
L 96.231159 315.125882 
L 101.506311 314.093746 
L 106.781462 312.546208 
L 112.056614 310.335711 
L 117.331765 307.360674 
L 122.606917 303.577148 
L 127.882068 298.998559 
L 133.15722 293.687587 
L 138.432371 287.744267 
L 143.707523 281.293351 
L 148.982674 274.4728 
L 154.257826 267.42429 
L 159.532977 260.285972 
L 164.808129 253.187375 
L 170.08328 246.246124 
L 175.358432 239.566123 
L 180.633583 233.236842 
L 185.908735 227.333394 
L 191.183886 221.917162 
L 196.459038 217.036764 
L 201.734189 212.729215 
L 207.009341 209.021169 
L 212.284492 205.93018 
L 217.559644 203.465912 
L 222.834795 201.631281 
L 228.109947 200.423504 
L 233.385098 199.835046 
L 238.66025 199.854469 
L 243.935402 200.467175 
L 249.210553 201.656061 
L 254.485705 203.402085 
L 259.760856 205.684748 
L 265.036008 208.482512 
L 270.311159 211.773151 
L 275.586311 215.534044 
L 280.861462 219.742421 
L 286.136614 224.375571 
L 291.411765 229.411003 
L 296.686917 234.826585 
L 301.962068 240.600649 
L 307.23722 246.712077 
L 312.512371 253.140367 
L 317.787523 259.865678 
L 323.062674 266.868869 
L 328.337826 274.131516 
L 333.612977 281.635929 
L 338.888129 289.365156 
L 344.16328 297.302981 
L 349.438432 305.433915 
L 354.713583 313.743188 
L 359.988735 322.216732 
L 365.263886 330.841164 
L 370.539038 339.603764 
L 375.814189 348.492459 
L 381.089341 357.495798 
L 383.557643 361.757125 
" style="fill:none;stroke:#30a2da;stroke-width:4.0;"/>
   </g>
   <g id="line2d_43">
    <path clip-path="url(#pedac3a4371)" d="M 64.58025 317.474121 
L 69.855402 316.947721 
L 75.130553 316.421304 
L 80.405705 315.894387 
L 85.680856 315.362369 
L 90.956008 314.804746 
L 96.231159 314.167007 
L 101.506311 313.348259 
L 106.781462 312.204837 
L 112.056614 310.569254 
L 117.331765 308.276058 
L 122.606917 305.185639 
L 127.882068 301.200657 
L 133.15722 296.273686 
L 138.432371 290.407291 
L 143.707523 283.648788 
L 148.982674 276.082021 
L 154.257826 267.818021 
L 159.532977 258.985854 
L 164.808129 249.724437 
L 170.08328 240.175693 
L 175.358432 230.479142 
L 180.633583 220.767864 
L 185.908735 211.165676 
L 191.183886 201.785322 
L 196.459038 192.727475 
L 201.734189 184.080379 
L 207.009341 175.919961 
L 212.284492 168.310271 
L 217.559644 161.304165 
L 222.834795 154.944119 
L 228.109947 149.263129 
L 233.385098 144.285634 
L 238.66025 140.028438 
L 243.935402 136.501599 
L 249.210553 133.709271 
L 254.485705 131.650489 
L 259.760856 130.319893 
L 265.036008 129.708384 
L 270.311159 129.803722 
L 275.586311 130.591052 
L 280.861462 132.053385 
L 286.136614 134.172011 
L 291.411765 136.926867 
L 296.686917 140.296863 
L 301.962068 144.260158 
L 307.23722 148.794401 
L 312.512371 153.876943 
L 317.787523 159.485011 
L 323.062674 165.59586 
L 328.337826 172.186902 
L 333.612977 179.235812 
L 338.888129 186.720614 
L 344.16328 194.619756 
L 349.438432 202.912168 
L 354.713583 211.577307 
L 359.988735 220.595197 
L 365.263886 229.946448 
L 370.539038 239.612287 
L 375.814189 249.574559 
L 381.089341 259.815741 
L 386.364492 270.318944 
L 391.639644 281.067907 
L 396.914795 292.046998 
L 402.189947 303.241199 
L 407.465098 314.636105 
L 412.74025 326.217901 
L 418.015402 337.973358 
L 423.290553 349.889814 
L 428.479122 361.757125 
" style="fill:none;stroke:#e5ae38;stroke-width:4.0;"/>
   </g>
   <g id="line2d_44">
    <path clip-path="url(#pedac3a4371)" d="M 64.58025 317.004911 
L 69.855402 316.317368 
L 75.130553 315.629823 
L 80.405705 314.942212 
L 85.680856 314.253572 
L 90.956008 313.557801 
L 96.231159 312.833108 
L 101.506311 312.027566 
L 106.781462 311.048702 
L 112.056614 309.763861 
L 117.331765 308.011985 
L 122.606917 305.622464 
L 127.882068 302.435239 
L 133.15722 298.317635 
L 138.432371 293.175622 
L 143.707523 286.959145 
L 148.982674 279.662346 
L 154.257826 271.32005 
L 159.532977 262.001905 
L 164.808129 251.805398 
L 170.08328 240.848621 
L 175.358432 229.263442 
L 180.633583 217.189414 
L 185.908735 204.768608 
L 191.183886 192.141423 
L 196.459038 179.443323 
L 201.734189 166.802415 
L 207.009341 154.337762 
L 212.284492 142.158297 
L 217.559644 130.362246 
L 222.834795 119.036934 
L 228.109947 108.2589 
L 233.385098 98.094227 
L 238.66025 88.599042 
L 243.935402 79.820115 
L 249.210553 71.79553 
L 254.485705 64.555384 
L 259.760856 58.122503 
L 265.036008 52.513138 
L 270.311159 47.737648 
L 275.586311 43.801147 
L 280.861462 40.704113 
L 286.136614 38.442956 
L 291.411765 37.010542 
L 296.686917 36.396679 
L 301.962068 36.58855 
L 307.23722 37.571115 
L 312.512371 39.327473 
L 317.787523 41.839175 
L 323.062674 45.086524 
L 328.337826 49.048821 
L 333.612977 53.7046 
L 338.888129 59.031821 
L 344.16328 65.008056 
L 349.438432 71.610634 
L 354.713583 78.81678 
L 359.988735 86.603731 
L 365.263886 94.948836 
L 370.539038 103.829644 
L 375.814189 113.223972 
L 381.089341 123.109974 
L 386.364492 133.466188 
L 391.639644 144.271578 
L 396.914795 155.505574 
L 402.189947 167.148096 
L 407.465098 179.179574 
L 412.74025 191.58097 
L 418.015402 204.333786 
L 423.290553 217.420072 
L 428.565705 230.822431 
L 433.840856 244.524018 
L 439.116008 258.508542 
L 444.391159 272.76026 
L 449.666311 287.263971 
L 454.941462 302.005009 
L 460.216614 316.969235 
L 465.491765 332.143028 
L 470.766917 347.513272 
L 475.597708 361.757125 
" style="fill:none;stroke:#8b8b8b;stroke-width:4.0;"/>
   </g>
   <g id="patch_3">
    <path d="M 49.22025 319.006875 
L 49.22025 13.006875 
" style="fill:none;stroke:#ffffff;stroke-linecap:square;stroke-linejoin:miter;stroke-width:3.0;"/>
   </g>
   <g id="patch_4">
    <path d="M 49.22025 13.006875 
L 510.02025 13.006875 
" style="fill:none;stroke:#ffffff;stroke-linecap:square;stroke-linejoin:miter;stroke-width:3.0;"/>
   </g>
   <g id="patch_5">
    <path d="M 49.22025 319.006875 
L 510.02025 319.006875 
" style="fill:none;stroke:#ffffff;stroke-linecap:square;stroke-linejoin:miter;stroke-width:3.0;"/>
   </g>
   <g id="patch_6">
    <path d="M 510.02025 319.006875 
L 510.02025 13.006875 
" style="fill:none;stroke:#ffffff;stroke-linecap:square;stroke-linejoin:miter;stroke-width:3.0;"/>
   </g>
  </g>
 </g>
 <defs>
  <clipPath id="pedac3a4371">
   <rect height="306.0" width="460.8" x="49.22025" y="13.006875"/>
  </clipPath>
 </defs>
</svg>
