<?xml version="1.0" encoding="utf-8" standalone="no"?>
<!DOCTYPE svg PUBLIC "-//W3C//DTD SVG 1.1//EN"
  "http://www.w3.org/Graphics/SVG/1.1/DTD/svg11.dtd">
<!-- Created with matplotlib (http://matplotlib.org/) -->
<svg height="432pt" version="1.1" viewBox="0 0 576 432" width="576pt" xmlns="http://www.w3.org/2000/svg" xmlns:xlink="http://www.w3.org/1999/xlink">
 <defs>
  <style type="text/css">
*{stroke-linecap:butt;stroke-linejoin:round;stroke-miterlimit:100000;}
  </style>
 </defs>
 <g id="figure_1">
  <g id="patch_1">
   <path d="M 0 432 
L 576 432 
L 576 0 
L 0 0 
z
" style="fill:none;opacity:0;"/>
  </g>
  <g id="axes_1">
   <g id="patch_2">
    <path d="M 72 200.290909 
L 518.4 200.290909 
L 518.4 43.2 
L 72 43.2 
z
" style="fill:#ffffff;"/>
   </g>
   <g id="line2d_1">
    <path clip-path="url(#p0b10285c65)" d="M 72 121.745455 
L 76.509091 121.924339 
L 81.018182 122.444701 
L 85.527273 123.262314 
L 90.036364 124.316384 
L 94.545455 125.542186 
L 99.054545 126.880513 
L 103.563636 128.282536 
L 108.072727 129.710905 
L 112.581818 131.138661 
L 117.090909 132.547298 
L 121.6 133.924732 
L 126.109091 135.263549 
L 130.618182 136.559623 
L 135.127273 137.811088 
L 139.636364 139.01759 
L 144.145455 140.179764 
L 148.654545 141.29887 
L 153.163636 142.37654 
L 157.672727 143.414609 
L 162.181818 144.415003 
L 166.690909 145.37966 
L 171.2 146.310486 
L 175.709091 147.209319 
L 180.218182 148.077917 
L 184.727273 148.917945 
L 189.236364 149.730973 
L 193.745455 150.518474 
L 198.254545 151.281829 
L 202.763636 152.022326 
L 207.272727 152.741173 
L 211.781818 153.439492 
L 216.290909 154.118333 
L 220.8 154.778677 
L 225.309091 155.421437 
L 229.818182 156.047468 
L 234.327273 156.657569 
L 238.836364 157.252485 
L 243.345455 157.832916 
L 247.854545 158.399517 
L 252.363636 158.952902 
L 256.872727 159.493646 
L 261.381818 160.022292 
L 265.890909 160.539347 
L 270.4 161.045292 
L 274.909091 161.540575 
L 279.418182 162.025624 
L 283.927273 162.500839 
L 288.436364 162.966599 
L 292.945455 163.423261 
L 297.454545 163.871165 
L 301.963636 164.310632 
L 306.472727 164.741966 
L 310.981818 165.165454 
L 315.490909 165.581371 
L 320 165.989976 
L 324.509091 166.391517 
L 329.018182 166.786228 
L 333.527273 167.174334 
L 338.036364 167.556048 
L 342.545455 167.931572 
L 347.054545 168.301101 
L 351.563636 168.66482 
L 356.072727 169.022906 
L 360.581818 169.375528 
L 365.090909 169.722847 
L 369.6 170.065017 
L 374.109091 170.402189 
L 378.618182 170.734502 
L 383.127273 171.062093 
L 387.636364 171.385093 
L 392.145455 171.703627 
L 396.654545 172.017816 
L 401.163636 172.327774 
L 405.672727 172.633613 
L 410.181818 172.935439 
L 414.690909 173.233355 
L 419.2 173.527461 
L 423.709091 173.817851 
L 428.218182 174.104617 
L 432.727273 174.387848 
L 437.236364 174.667629 
L 441.745455 174.944041 
L 446.254545 175.217165 
L 450.763636 175.487077 
L 455.272727 175.753851 
L 459.781818 176.017558 
L 464.290909 176.278268 
L 468.8 176.536047 
L 473.309091 176.79096 
L 477.818182 177.04307 
L 482.327273 177.292437 
L 486.836364 177.539119 
L 491.345455 177.783174 
L 495.854545 178.024656 
L 500.363636 178.263618 
L 504.872727 178.500113 
L 509.381818 178.734191 
L 513.890909 178.965899 
L 518.4 179.195285 
" style="fill:none;stroke:#ff0000;stroke-linecap:square;stroke-width:2.0;"/>
   </g>
   <g id="line2d_2">
    <path clip-path="url(#p0b10285c65)" d="M 244.845318 200.290909 
L 244.845318 43.2 
" style="fill:none;stroke:#008000;stroke-linecap:square;stroke-width:4.0;"/>
   </g>
   <g id="line2d_3">
    <path clip-path="url(#p0b10285c65)" d="M 72 121.745455 
L 76.509091 121.008051 
L 81.018182 119.04563 
L 85.527273 116.380114 
L 90.036364 113.462344 
L 94.545455 110.558448 
L 99.054545 107.79217 
L 103.563636 105.207942 
L 108.072727 102.812288 
L 112.581818 100.595536 
L 117.090909 98.54218 
L 121.6 96.63555 
L 126.109091 94.85978 
L 130.618182 93.200531 
L 135.127273 91.645153 
L 139.636364 90.182614 
L 144.145455 88.80333 
L 148.654545 87.498986 
L 153.163636 86.262352 
L 157.672727 85.087129 
L 162.181818 83.96781 
L 166.690909 82.899559 
L 171.2 81.87812 
L 175.709091 80.899725 
L 180.218182 79.961031 
L 184.727273 79.05906 
L 189.236364 78.191146 
L 193.745455 77.354899 
L 198.254545 76.548167 
L 202.763636 75.769006 
L 207.272727 75.015656 
L 211.781818 74.286518 
L 216.290909 73.580133 
L 220.8 72.895172 
L 225.309091 72.230417 
L 229.818182 71.584748 
L 234.327273 70.95714 
L 238.836364 70.346642 
L 243.345455 69.752382 
L 247.854545 69.173547 
L 252.363636 68.609387 
L 256.872727 68.059206 
L 261.381818 67.522353 
L 265.890909 66.998224 
L 270.4 66.486255 
L 274.909091 65.985918 
L 279.418182 65.49672 
L 283.927273 65.018197 
L 288.436364 64.549914 
L 292.945455 64.091464 
L 297.454545 63.642463 
L 301.963636 63.202547 
L 306.472727 62.771376 
L 310.981818 62.348628 
L 315.490909 61.933997 
L 320 61.527196 
L 324.509091 61.12795 
L 329.018182 60.736003 
L 333.527273 60.351106 
L 338.036364 59.973029 
L 342.545455 59.601548 
L 347.054545 59.236453 
L 351.563636 58.877542 
L 356.072727 58.524626 
L 360.581818 58.17752 
L 365.090909 57.836051 
L 369.6 57.500052 
L 374.109091 57.169366 
L 378.618182 56.843838 
L 383.127273 56.523325 
L 387.636364 56.207687 
L 392.145455 55.89679 
L 396.654545 55.590506 
L 401.163636 55.288714 
L 405.672727 54.991294 
L 410.181818 54.698134 
L 414.690909 54.409126 
L 419.2 54.124164 
L 423.709091 53.843148 
L 428.218182 53.565982 
L 432.727273 53.292572 
L 437.236364 53.022828 
L 441.745455 52.756665 
L 446.254545 52.493998 
L 450.763636 52.234748 
L 455.272727 51.978837 
L 459.781818 51.726189 
L 464.290909 51.476733 
L 468.8 51.230399 
L 473.309091 50.987118 
L 477.818182 50.746826 
L 482.327273 50.509459 
L 486.836364 50.274956 
L 491.345455 50.043259 
L 495.854545 49.814308 
L 500.363636 49.58805 
L 504.872727 49.36443 
L 509.381818 49.143395 
L 513.890909 48.924896 
L 518.4 48.708883 
" style="fill:none;stroke:#0000ff;stroke-linecap:square;stroke-width:2.0;"/>
   </g>
   <g id="line2d_4">
    <path clip-path="url(#p0b10285c65)" d="M 72 121.745455 
L 76.509091 121.186936 
L 81.018182 119.744877 
L 85.527273 117.896974 
L 90.036364 116.033274 
L 94.545455 114.355179 
L 99.054545 112.927228 
L 103.563636 111.745024 
L 108.072727 110.777738 
L 112.581818 109.988742 
L 117.090909 109.344024 
L 121.6 108.814828 
L 126.109091 108.377874 
L 130.618182 108.014699 
L 135.127273 107.710787 
L 139.636364 107.454749 
L 144.145455 107.23764 
L 148.654545 107.052401 
L 153.163636 106.893437 
L 157.672727 106.756284 
L 162.181818 106.637358 
L 166.690909 106.533765 
L 171.2 106.443151 
L 175.709091 106.36359 
L 180.218182 106.293494 
L 184.727273 106.23155 
L 189.236364 106.176664 
L 193.745455 106.127918 
L 198.254545 106.084541 
L 202.763636 106.045878 
L 207.272727 106.011375 
L 211.781818 105.980555 
L 216.290909 105.953012 
L 220.8 105.928395 
L 225.309091 105.906399 
L 229.818182 105.886762 
L 234.327273 105.869254 
L 238.836364 105.853673 
L 243.345455 105.839843 
L 247.854545 105.827609 
L 252.363636 105.816834 
L 256.872727 105.807397 
L 261.381818 105.79919 
L 265.890909 105.792117 
L 270.4 105.786092 
L 274.909091 105.781039 
L 279.418182 105.77689 
L 283.927273 105.773581 
L 288.436364 105.771058 
L 292.945455 105.769271 
L 297.454545 105.768174 
L 301.963636 105.767725 
L 306.472727 105.767888 
L 310.981818 105.768627 
L 315.490909 105.769913 
L 320 105.771717 
L 324.509091 105.774013 
L 329.018182 105.776776 
L 333.527273 105.779986 
L 338.036364 105.783622 
L 342.545455 105.787665 
L 347.054545 105.792099 
L 351.563636 105.796908 
L 356.072727 105.802077 
L 360.581818 105.807593 
L 365.090909 105.813443 
L 369.6 105.819615 
L 374.109091 105.8261 
L 378.618182 105.832885 
L 383.127273 105.839964 
L 387.636364 105.847326 
L 392.145455 105.854963 
L 396.654545 105.862868 
L 401.163636 105.871033 
L 405.672727 105.879452 
L 410.181818 105.888118 
L 414.690909 105.897026 
L 419.2 105.90617 
L 423.709091 105.915545 
L 428.218182 105.925144 
L 432.727273 105.934965 
L 437.236364 105.945002 
L 441.745455 105.955252 
L 446.254545 105.965709 
L 450.763636 105.976371 
L 455.272727 105.987233 
L 459.781818 105.998293 
L 464.290909 106.009547 
L 468.8 106.020991 
L 473.309091 106.032624 
L 477.818182 106.044441 
L 482.327273 106.056441 
L 486.836364 106.068621 
L 491.345455 106.080978 
L 495.854545 106.09351 
L 500.363636 106.106214 
L 504.872727 106.119089 
L 509.381818 106.132131 
L 513.890909 106.14534 
L 518.4 106.158714 
" style="fill:none;stroke:#008000;stroke-linecap:square;stroke-width:2.0;"/>
   </g>
   <g id="patch_3">
    <path d="M 72 200.290909 
L 518.4 200.290909 
" style="fill:none;stroke:#000000;stroke-linecap:square;stroke-linejoin:miter;"/>
   </g>
   <g id="patch_4">
    <path d="M 72 200.290909 
L 72 43.2 
" style="fill:none;stroke:#000000;stroke-linecap:square;stroke-linejoin:miter;"/>
   </g>
   <g id="patch_5">
    <path d="M 518.4 200.290909 
L 518.4 43.2 
" style="fill:none;stroke:#000000;stroke-linecap:square;stroke-linejoin:miter;"/>
   </g>
   <g id="patch_6">
    <path d="M 72 43.2 
L 518.4 43.2 
" style="fill:none;stroke:#000000;stroke-linecap:square;stroke-linejoin:miter;"/>
   </g>
   <g id="matplotlib.axis_1">
    <g id="xtick_1">
     <g id="line2d_5">
      <path clip-path="url(#p0b10285c65)" d="M 72 200.290909 
L 72 43.2 
" style="fill:none;stroke:#000000;stroke-dasharray:1.000000,3.000000;stroke-dashoffset:0.0;stroke-width:0.5;"/>
     </g>
     <g id="line2d_6">
      <defs>
       <path d="M 0 0 
L 0 -4 
" id="me6a0a2cdd8" style="stroke:#000000;stroke-width:0.5;"/>
      </defs>
      <g>
       <use style="stroke:#000000;stroke-width:0.5;" x="72.0" xlink:href="#me6a0a2cdd8" y="200.290909091"/>
      </g>
     </g>
     <g id="line2d_7">
      <defs>
       <path d="M 0 0 
L 0 4 
" id="m7bca8fb725" style="stroke:#000000;stroke-width:0.5;"/>
      </defs>
      <g>
       <use style="stroke:#000000;stroke-width:0.5;" x="72.0" xlink:href="#m7bca8fb725" y="43.2"/>
      </g>
     </g>
     <g id="text_1">
      <!-- 0 -->
      <defs>
       <path d="M 31.78125 66.40625 
Q 24.171875 66.40625 20.328125 58.90625 
Q 16.5 51.421875 16.5 36.375 
Q 16.5 21.390625 20.328125 13.890625 
Q 24.171875 6.390625 31.78125 6.390625 
Q 39.453125 6.390625 43.28125 13.890625 
Q 47.125 21.390625 47.125 36.375 
Q 47.125 51.421875 43.28125 58.90625 
Q 39.453125 66.40625 31.78125 66.40625 
M 31.78125 74.21875 
Q 44.046875 74.21875 50.515625 64.515625 
Q 56.984375 54.828125 56.984375 36.375 
Q 56.984375 17.96875 50.515625 8.265625 
Q 44.046875 -1.421875 31.78125 -1.421875 
Q 19.53125 -1.421875 13.0625 8.265625 
Q 6.59375 17.96875 6.59375 36.375 
Q 6.59375 54.828125 13.0625 64.515625 
Q 19.53125 74.21875 31.78125 74.21875 
" id="BitstreamVeraSans-Roman-30"/>
      </defs>
      <g transform="translate(68.1825 213.409034091)scale(0.12 -0.12)">
       <use xlink:href="#BitstreamVeraSans-Roman-30"/>
      </g>
     </g>
    </g>
    <g id="xtick_2">
     <g id="line2d_8">
      <path clip-path="url(#p0b10285c65)" d="M 183.6 200.290909 
L 183.6 43.2 
" style="fill:none;stroke:#000000;stroke-dasharray:1.000000,3.000000;stroke-dashoffset:0.0;stroke-width:0.5;"/>
     </g>
     <g id="line2d_9">
      <g>
       <use style="stroke:#000000;stroke-width:0.5;" x="183.6" xlink:href="#me6a0a2cdd8" y="200.290909091"/>
      </g>
     </g>
     <g id="line2d_10">
      <g>
       <use style="stroke:#000000;stroke-width:0.5;" x="183.6" xlink:href="#m7bca8fb725" y="43.2"/>
      </g>
     </g>
     <g id="text_2">
      <!-- 5 -->
      <defs>
       <path d="M 10.796875 72.90625 
L 49.515625 72.90625 
L 49.515625 64.59375 
L 19.828125 64.59375 
L 19.828125 46.734375 
Q 21.96875 47.46875 24.109375 47.828125 
Q 26.265625 48.1875 28.421875 48.1875 
Q 40.625 48.1875 47.75 41.5 
Q 54.890625 34.8125 54.890625 23.390625 
Q 54.890625 11.625 47.5625 5.09375 
Q 40.234375 -1.421875 26.90625 -1.421875 
Q 22.3125 -1.421875 17.546875 -0.640625 
Q 12.796875 0.140625 7.71875 1.703125 
L 7.71875 11.625 
Q 12.109375 9.234375 16.796875 8.0625 
Q 21.484375 6.890625 26.703125 6.890625 
Q 35.15625 6.890625 40.078125 11.328125 
Q 45.015625 15.765625 45.015625 23.390625 
Q 45.015625 31 40.078125 35.4375 
Q 35.15625 39.890625 26.703125 39.890625 
Q 22.75 39.890625 18.8125 39.015625 
Q 14.890625 38.140625 10.796875 36.28125 
z
" id="BitstreamVeraSans-Roman-35"/>
      </defs>
      <g transform="translate(179.7825 213.409034091)scale(0.12 -0.12)">
       <use xlink:href="#BitstreamVeraSans-Roman-35"/>
      </g>
     </g>
    </g>
    <g id="xtick_3">
     <g id="line2d_11">
      <path clip-path="url(#p0b10285c65)" d="M 295.2 200.290909 
L 295.2 43.2 
" style="fill:none;stroke:#000000;stroke-dasharray:1.000000,3.000000;stroke-dashoffset:0.0;stroke-width:0.5;"/>
     </g>
     <g id="line2d_12">
      <g>
       <use style="stroke:#000000;stroke-width:0.5;" x="295.2" xlink:href="#me6a0a2cdd8" y="200.290909091"/>
      </g>
     </g>
     <g id="line2d_13">
      <g>
       <use style="stroke:#000000;stroke-width:0.5;" x="295.2" xlink:href="#m7bca8fb725" y="43.2"/>
      </g>
     </g>
     <g id="text_3">
      <!-- 10 -->
      <defs>
       <path d="M 12.40625 8.296875 
L 28.515625 8.296875 
L 28.515625 63.921875 
L 10.984375 60.40625 
L 10.984375 69.390625 
L 28.421875 72.90625 
L 38.28125 72.90625 
L 38.28125 8.296875 
L 54.390625 8.296875 
L 54.390625 0 
L 12.40625 0 
z
" id="BitstreamVeraSans-Roman-31"/>
      </defs>
      <g transform="translate(287.565 213.409034091)scale(0.12 -0.12)">
       <use xlink:href="#BitstreamVeraSans-Roman-31"/>
       <use x="63.623046875" xlink:href="#BitstreamVeraSans-Roman-30"/>
      </g>
     </g>
    </g>
    <g id="xtick_4">
     <g id="line2d_14">
      <path clip-path="url(#p0b10285c65)" d="M 406.8 200.290909 
L 406.8 43.2 
" style="fill:none;stroke:#000000;stroke-dasharray:1.000000,3.000000;stroke-dashoffset:0.0;stroke-width:0.5;"/>
     </g>
     <g id="line2d_15">
      <g>
       <use style="stroke:#000000;stroke-width:0.5;" x="406.8" xlink:href="#me6a0a2cdd8" y="200.290909091"/>
      </g>
     </g>
     <g id="line2d_16">
      <g>
       <use style="stroke:#000000;stroke-width:0.5;" x="406.8" xlink:href="#m7bca8fb725" y="43.2"/>
      </g>
     </g>
     <g id="text_4">
      <!-- 15 -->
      <g transform="translate(399.165 213.409034091)scale(0.12 -0.12)">
       <use xlink:href="#BitstreamVeraSans-Roman-31"/>
       <use x="63.623046875" xlink:href="#BitstreamVeraSans-Roman-35"/>
      </g>
     </g>
    </g>
    <g id="xtick_5">
     <g id="line2d_17">
      <path clip-path="url(#p0b10285c65)" d="M 518.4 200.290909 
L 518.4 43.2 
" style="fill:none;stroke:#000000;stroke-dasharray:1.000000,3.000000;stroke-dashoffset:0.0;stroke-width:0.5;"/>
     </g>
     <g id="line2d_18">
      <g>
       <use style="stroke:#000000;stroke-width:0.5;" x="518.4" xlink:href="#me6a0a2cdd8" y="200.290909091"/>
      </g>
     </g>
     <g id="line2d_19">
      <g>
       <use style="stroke:#000000;stroke-width:0.5;" x="518.4" xlink:href="#m7bca8fb725" y="43.2"/>
      </g>
     </g>
     <g id="text_5">
      <!-- 20 -->
      <defs>
       <path d="M 19.1875 8.296875 
L 53.609375 8.296875 
L 53.609375 0 
L 7.328125 0 
L 7.328125 8.296875 
Q 12.9375 14.109375 22.625 23.890625 
Q 32.328125 33.6875 34.8125 36.53125 
Q 39.546875 41.84375 41.421875 45.53125 
Q 43.3125 49.21875 43.3125 52.78125 
Q 43.3125 58.59375 39.234375 62.25 
Q 35.15625 65.921875 28.609375 65.921875 
Q 23.96875 65.921875 18.8125 64.3125 
Q 13.671875 62.703125 7.8125 59.421875 
L 7.8125 69.390625 
Q 13.765625 71.78125 18.9375 73 
Q 24.125 74.21875 28.421875 74.21875 
Q 39.75 74.21875 46.484375 68.546875 
Q 53.21875 62.890625 53.21875 53.421875 
Q 53.21875 48.921875 51.53125 44.890625 
Q 49.859375 40.875 45.40625 35.40625 
Q 44.1875 33.984375 37.640625 27.21875 
Q 31.109375 20.453125 19.1875 8.296875 
" id="BitstreamVeraSans-Roman-32"/>
      </defs>
      <g transform="translate(510.765 213.409034091)scale(0.12 -0.12)">
       <use xlink:href="#BitstreamVeraSans-Roman-32"/>
       <use x="63.623046875" xlink:href="#BitstreamVeraSans-Roman-30"/>
      </g>
     </g>
    </g>
   </g>
   <g id="matplotlib.axis_2">
    <g id="ytick_1">
     <g id="line2d_20">
      <path clip-path="url(#p0b10285c65)" d="M 72 200.290909 
L 518.4 200.290909 
" style="fill:none;stroke:#000000;stroke-dasharray:1.000000,3.000000;stroke-dashoffset:0.0;stroke-width:0.5;"/>
     </g>
     <g id="line2d_21">
      <defs>
       <path d="M 0 0 
L 4 0 
" id="m5a482c8d17" style="stroke:#000000;stroke-width:0.5;"/>
      </defs>
      <g>
       <use style="stroke:#000000;stroke-width:0.5;" x="72.0" xlink:href="#m5a482c8d17" y="200.290909091"/>
      </g>
     </g>
     <g id="line2d_22">
      <defs>
       <path d="M 0 0 
L -4 0 
" id="mab27e136e9" style="stroke:#000000;stroke-width:0.5;"/>
      </defs>
      <g>
       <use style="stroke:#000000;stroke-width:0.5;" x="518.4" xlink:href="#mab27e136e9" y="200.290909091"/>
      </g>
     </g>
     <g id="text_6">
      <!-- −30 -->
      <defs>
       <path d="M 40.578125 39.3125 
Q 47.65625 37.796875 51.625 33 
Q 55.609375 28.21875 55.609375 21.1875 
Q 55.609375 10.40625 48.1875 4.484375 
Q 40.765625 -1.421875 27.09375 -1.421875 
Q 22.515625 -1.421875 17.65625 -0.515625 
Q 12.796875 0.390625 7.625 2.203125 
L 7.625 11.71875 
Q 11.71875 9.328125 16.59375 8.109375 
Q 21.484375 6.890625 26.8125 6.890625 
Q 36.078125 6.890625 40.9375 10.546875 
Q 45.796875 14.203125 45.796875 21.1875 
Q 45.796875 27.640625 41.28125 31.265625 
Q 36.765625 34.90625 28.71875 34.90625 
L 20.21875 34.90625 
L 20.21875 43.015625 
L 29.109375 43.015625 
Q 36.375 43.015625 40.234375 45.921875 
Q 44.09375 48.828125 44.09375 54.296875 
Q 44.09375 59.90625 40.109375 62.90625 
Q 36.140625 65.921875 28.71875 65.921875 
Q 24.65625 65.921875 20.015625 65.03125 
Q 15.375 64.15625 9.8125 62.3125 
L 9.8125 71.09375 
Q 15.4375 72.65625 20.34375 73.4375 
Q 25.25 74.21875 29.59375 74.21875 
Q 40.828125 74.21875 47.359375 69.109375 
Q 53.90625 64.015625 53.90625 55.328125 
Q 53.90625 49.265625 50.4375 45.09375 
Q 46.96875 40.921875 40.578125 39.3125 
" id="BitstreamVeraSans-Roman-33"/>
       <path d="M 10.59375 35.5 
L 73.1875 35.5 
L 73.1875 27.203125 
L 10.59375 27.203125 
z
" id="BitstreamVeraSans-Roman-2212"/>
      </defs>
      <g transform="translate(42.674375 203.602159091)scale(0.12 -0.12)">
       <use xlink:href="#BitstreamVeraSans-Roman-2212"/>
       <use x="83.7890625" xlink:href="#BitstreamVeraSans-Roman-33"/>
       <use x="147.412109375" xlink:href="#BitstreamVeraSans-Roman-30"/>
      </g>
     </g>
    </g>
    <g id="ytick_2">
     <g id="line2d_23">
      <path clip-path="url(#p0b10285c65)" d="M 72 174.109091 
L 518.4 174.109091 
" style="fill:none;stroke:#000000;stroke-dasharray:1.000000,3.000000;stroke-dashoffset:0.0;stroke-width:0.5;"/>
     </g>
     <g id="line2d_24">
      <g>
       <use style="stroke:#000000;stroke-width:0.5;" x="72.0" xlink:href="#m5a482c8d17" y="174.109090909"/>
      </g>
     </g>
     <g id="line2d_25">
      <g>
       <use style="stroke:#000000;stroke-width:0.5;" x="518.4" xlink:href="#mab27e136e9" y="174.109090909"/>
      </g>
     </g>
     <g id="text_7">
      <!-- −20 -->
      <g transform="translate(42.674375 177.420340909)scale(0.12 -0.12)">
       <use xlink:href="#BitstreamVeraSans-Roman-2212"/>
       <use x="83.7890625" xlink:href="#BitstreamVeraSans-Roman-32"/>
       <use x="147.412109375" xlink:href="#BitstreamVeraSans-Roman-30"/>
      </g>
     </g>
    </g>
    <g id="ytick_3">
     <g id="line2d_26">
      <path clip-path="url(#p0b10285c65)" d="M 72 147.927273 
L 518.4 147.927273 
" style="fill:none;stroke:#000000;stroke-dasharray:1.000000,3.000000;stroke-dashoffset:0.0;stroke-width:0.5;"/>
     </g>
     <g id="line2d_27">
      <g>
       <use style="stroke:#000000;stroke-width:0.5;" x="72.0" xlink:href="#m5a482c8d17" y="147.927272727"/>
      </g>
     </g>
     <g id="line2d_28">
      <g>
       <use style="stroke:#000000;stroke-width:0.5;" x="518.4" xlink:href="#mab27e136e9" y="147.927272727"/>
      </g>
     </g>
     <g id="text_8">
      <!-- −10 -->
      <g transform="translate(42.674375 151.238522727)scale(0.12 -0.12)">
       <use xlink:href="#BitstreamVeraSans-Roman-2212"/>
       <use x="83.7890625" xlink:href="#BitstreamVeraSans-Roman-31"/>
       <use x="147.412109375" xlink:href="#BitstreamVeraSans-Roman-30"/>
      </g>
     </g>
    </g>
    <g id="ytick_4">
     <g id="line2d_29">
      <path clip-path="url(#p0b10285c65)" d="M 72 121.745455 
L 518.4 121.745455 
" style="fill:none;stroke:#000000;stroke-dasharray:1.000000,3.000000;stroke-dashoffset:0.0;stroke-width:0.5;"/>
     </g>
     <g id="line2d_30">
      <g>
       <use style="stroke:#000000;stroke-width:0.5;" x="72.0" xlink:href="#m5a482c8d17" y="121.745454545"/>
      </g>
     </g>
     <g id="line2d_31">
      <g>
       <use style="stroke:#000000;stroke-width:0.5;" x="518.4" xlink:href="#mab27e136e9" y="121.745454545"/>
      </g>
     </g>
     <g id="text_9">
      <!-- 0 -->
      <g transform="translate(60.365 125.056704545)scale(0.12 -0.12)">
       <use xlink:href="#BitstreamVeraSans-Roman-30"/>
      </g>
     </g>
    </g>
    <g id="ytick_5">
     <g id="line2d_32">
      <path clip-path="url(#p0b10285c65)" d="M 72 95.563636 
L 518.4 95.563636 
" style="fill:none;stroke:#000000;stroke-dasharray:1.000000,3.000000;stroke-dashoffset:0.0;stroke-width:0.5;"/>
     </g>
     <g id="line2d_33">
      <g>
       <use style="stroke:#000000;stroke-width:0.5;" x="72.0" xlink:href="#m5a482c8d17" y="95.5636363636"/>
      </g>
     </g>
     <g id="line2d_34">
      <g>
       <use style="stroke:#000000;stroke-width:0.5;" x="518.4" xlink:href="#mab27e136e9" y="95.5636363636"/>
      </g>
     </g>
     <g id="text_10">
      <!-- 10 -->
      <g transform="translate(52.73 98.8748863636)scale(0.12 -0.12)">
       <use xlink:href="#BitstreamVeraSans-Roman-31"/>
       <use x="63.623046875" xlink:href="#BitstreamVeraSans-Roman-30"/>
      </g>
     </g>
    </g>
    <g id="ytick_6">
     <g id="line2d_35">
      <path clip-path="url(#p0b10285c65)" d="M 72 69.381818 
L 518.4 69.381818 
" style="fill:none;stroke:#000000;stroke-dasharray:1.000000,3.000000;stroke-dashoffset:0.0;stroke-width:0.5;"/>
     </g>
     <g id="line2d_36">
      <g>
       <use style="stroke:#000000;stroke-width:0.5;" x="72.0" xlink:href="#m5a482c8d17" y="69.3818181818"/>
      </g>
     </g>
     <g id="line2d_37">
      <g>
       <use style="stroke:#000000;stroke-width:0.5;" x="518.4" xlink:href="#mab27e136e9" y="69.3818181818"/>
      </g>
     </g>
     <g id="text_11">
      <!-- 20 -->
      <g transform="translate(52.73 72.6930681818)scale(0.12 -0.12)">
       <use xlink:href="#BitstreamVeraSans-Roman-32"/>
       <use x="63.623046875" xlink:href="#BitstreamVeraSans-Roman-30"/>
      </g>
     </g>
    </g>
    <g id="ytick_7">
     <g id="line2d_38">
      <path clip-path="url(#p0b10285c65)" d="M 72 43.2 
L 518.4 43.2 
" style="fill:none;stroke:#000000;stroke-dasharray:1.000000,3.000000;stroke-dashoffset:0.0;stroke-width:0.5;"/>
     </g>
     <g id="line2d_39">
      <g>
       <use style="stroke:#000000;stroke-width:0.5;" x="72.0" xlink:href="#m5a482c8d17" y="43.2"/>
      </g>
     </g>
     <g id="line2d_40">
      <g>
       <use style="stroke:#000000;stroke-width:0.5;" x="518.4" xlink:href="#mab27e136e9" y="43.2"/>
      </g>
     </g>
     <g id="text_12">
      <!-- 30 -->
      <g transform="translate(52.73 46.51125)scale(0.12 -0.12)">
       <use xlink:href="#BitstreamVeraSans-Roman-33"/>
       <use x="63.623046875" xlink:href="#BitstreamVeraSans-Roman-30"/>
      </g>
     </g>
    </g>
    <g id="text_13">
     <!-- Gain (-) -->
     <defs>
      <path id="BitstreamVeraSans-Roman-20"/>
      <path d="M 8.015625 75.875 
L 15.828125 75.875 
Q 23.140625 64.359375 26.78125 53.3125 
Q 30.421875 42.28125 30.421875 31.390625 
Q 30.421875 20.453125 26.78125 9.375 
Q 23.140625 -1.703125 15.828125 -13.1875 
L 8.015625 -13.1875 
Q 14.5 -2 17.703125 9.0625 
Q 20.90625 20.125 20.90625 31.390625 
Q 20.90625 42.671875 17.703125 53.65625 
Q 14.5 64.65625 8.015625 75.875 
" id="BitstreamVeraSans-Roman-29"/>
      <path d="M 34.28125 27.484375 
Q 23.390625 27.484375 19.1875 25 
Q 14.984375 22.515625 14.984375 16.5 
Q 14.984375 11.71875 18.140625 8.90625 
Q 21.296875 6.109375 26.703125 6.109375 
Q 34.1875 6.109375 38.703125 11.40625 
Q 43.21875 16.703125 43.21875 25.484375 
L 43.21875 27.484375 
z
M 52.203125 31.203125 
L 52.203125 0 
L 43.21875 0 
L 43.21875 8.296875 
Q 40.140625 3.328125 35.546875 0.953125 
Q 30.953125 -1.421875 24.3125 -1.421875 
Q 15.921875 -1.421875 10.953125 3.296875 
Q 6 8.015625 6 15.921875 
Q 6 25.140625 12.171875 29.828125 
Q 18.359375 34.515625 30.609375 34.515625 
L 43.21875 34.515625 
L 43.21875 35.40625 
Q 43.21875 41.609375 39.140625 45 
Q 35.0625 48.390625 27.6875 48.390625 
Q 23 48.390625 18.546875 47.265625 
Q 14.109375 46.140625 10.015625 43.890625 
L 10.015625 52.203125 
Q 14.9375 54.109375 19.578125 55.046875 
Q 24.21875 56 28.609375 56 
Q 40.484375 56 46.34375 49.84375 
Q 52.203125 43.703125 52.203125 31.203125 
" id="BitstreamVeraSans-Roman-61"/>
      <path d="M 54.890625 33.015625 
L 54.890625 0 
L 45.90625 0 
L 45.90625 32.71875 
Q 45.90625 40.484375 42.875 44.328125 
Q 39.84375 48.1875 33.796875 48.1875 
Q 26.515625 48.1875 22.3125 43.546875 
Q 18.109375 38.921875 18.109375 30.90625 
L 18.109375 0 
L 9.078125 0 
L 9.078125 54.6875 
L 18.109375 54.6875 
L 18.109375 46.1875 
Q 21.34375 51.125 25.703125 53.5625 
Q 30.078125 56 35.796875 56 
Q 45.21875 56 50.046875 50.171875 
Q 54.890625 44.34375 54.890625 33.015625 
" id="BitstreamVeraSans-Roman-6e"/>
      <path d="M 4.890625 31.390625 
L 31.203125 31.390625 
L 31.203125 23.390625 
L 4.890625 23.390625 
z
" id="BitstreamVeraSans-Roman-2d"/>
      <path d="M 59.515625 10.40625 
L 59.515625 29.984375 
L 43.40625 29.984375 
L 43.40625 38.09375 
L 69.28125 38.09375 
L 69.28125 6.78125 
Q 63.578125 2.734375 56.6875 0.65625 
Q 49.8125 -1.421875 42 -1.421875 
Q 24.90625 -1.421875 15.25 8.5625 
Q 5.609375 18.5625 5.609375 36.375 
Q 5.609375 54.25 15.25 64.234375 
Q 24.90625 74.21875 42 74.21875 
Q 49.125 74.21875 55.546875 72.453125 
Q 61.96875 70.703125 67.390625 67.28125 
L 67.390625 56.78125 
Q 61.921875 61.421875 55.765625 63.765625 
Q 49.609375 66.109375 42.828125 66.109375 
Q 29.4375 66.109375 22.71875 58.640625 
Q 16.015625 51.171875 16.015625 36.375 
Q 16.015625 21.625 22.71875 14.15625 
Q 29.4375 6.6875 42.828125 6.6875 
Q 48.046875 6.6875 52.140625 7.59375 
Q 56.25 8.5 59.515625 10.40625 
" id="BitstreamVeraSans-Roman-47"/>
      <path d="M 9.421875 54.6875 
L 18.40625 54.6875 
L 18.40625 0 
L 9.421875 0 
z
M 9.421875 75.984375 
L 18.40625 75.984375 
L 18.40625 64.59375 
L 9.421875 64.59375 
z
" id="BitstreamVeraSans-Roman-69"/>
      <path d="M 31 75.875 
Q 24.46875 64.65625 21.28125 53.65625 
Q 18.109375 42.671875 18.109375 31.390625 
Q 18.109375 20.125 21.3125 9.0625 
Q 24.515625 -2 31 -13.1875 
L 23.1875 -13.1875 
Q 15.875 -1.703125 12.234375 9.375 
Q 8.59375 20.453125 8.59375 31.390625 
Q 8.59375 42.28125 12.203125 53.3125 
Q 15.828125 64.359375 23.1875 75.875 
z
" id="BitstreamVeraSans-Roman-28"/>
     </defs>
     <g transform="translate(35.17875 144.294204545)rotate(-90.0)scale(0.12 -0.12)">
      <use xlink:href="#BitstreamVeraSans-Roman-47"/>
      <use x="77.490234375" xlink:href="#BitstreamVeraSans-Roman-61"/>
      <use x="138.76953125" xlink:href="#BitstreamVeraSans-Roman-69"/>
      <use x="166.552734375" xlink:href="#BitstreamVeraSans-Roman-6e"/>
      <use x="229.931640625" xlink:href="#BitstreamVeraSans-Roman-20"/>
      <use x="261.71875" xlink:href="#BitstreamVeraSans-Roman-28"/>
      <use x="300.732421875" xlink:href="#BitstreamVeraSans-Roman-2d"/>
      <use x="336.81640625" xlink:href="#BitstreamVeraSans-Roman-29"/>
     </g>
    </g>
   </g>
   <g id="legend_1">
    <g id="patch_7">
     <path d="M 406.368 121.644 
L 511.2 121.644 
L 511.2 50.4 
L 406.368 50.4 
z
" style="fill:#ffffff;stroke:#000000;stroke-linejoin:miter;"/>
    </g>
    <g id="line2d_41">
     <path d="M 416.448 62.06175 
L 436.608 62.06175 
" style="fill:none;stroke:#ff0000;stroke-linecap:square;stroke-width:2.0;"/>
    </g>
    <g id="line2d_42"/>
    <g id="text_14">
     <!-- $\sf G_{syn}$ -->
     <defs>
      <path d="M 7.90625 0 
L 7.90625 45.015625 
L 15.484375 45.015625 
L 15.484375 38.1875 
Q 18.171875 41.65625 21.90625 43.578125 
Q 25.640625 45.515625 29.890625 45.515625 
Q 37.359375 45.515625 40.53125 41.328125 
Q 43.703125 37.15625 43.703125 29.390625 
L 43.703125 0 
L 35.5 0 
L 35.5 29.390625 
Q 35.5 34.375 33.03125 36.6875 
Q 30.5625 39.015625 25.59375 39.015625 
Q 22.265625 39.015625 20.140625 36.796875 
Q 18.015625 34.578125 17.0625 31.328125 
Q 16.109375 28.078125 16.109375 24.8125 
L 16.109375 0 
z
" id="Cmss10-6e"/>
      <path d="M 38.921875 -2.203125 
Q 31.78125 -2.203125 25.71875 0.953125 
Q 19.671875 4.109375 15.375 9.453125 
Q 11.078125 14.796875 8.78125 21.40625 
Q 6.5 28.03125 6.5 34.71875 
Q 6.5 41.40625 8.78125 48.046875 
Q 11.078125 54.6875 15.453125 60.0625 
Q 19.828125 65.4375 25.796875 68.5 
Q 31.78125 71.578125 38.921875 71.578125 
Q 44.875 71.578125 49.40625 70.484375 
Q 53.953125 69.390625 59.078125 66.703125 
L 57.625 58.015625 
Q 53.21875 61.671875 48.84375 63.234375 
Q 44.484375 64.796875 38.921875 64.796875 
Q 31.6875 64.796875 26.453125 60.234375 
Q 21.234375 55.671875 18.53125 48.65625 
Q 15.828125 41.65625 15.828125 34.71875 
Q 15.828125 27.78125 18.53125 20.765625 
Q 21.234375 13.765625 26.453125 9.171875 
Q 31.6875 4.59375 38.921875 4.59375 
Q 45.015625 4.59375 51.703125 6.5 
L 51.703125 23.390625 
L 38.921875 23.390625 
L 38.921875 29.890625 
L 59.90625 29.890625 
L 59.90625 2.6875 
Q 56.734375 1.125 53.1875 0.015625 
Q 49.65625 -1.078125 46.015625 -1.640625 
Q 42.390625 -2.203125 38.921875 -2.203125 
" id="Cmss10-47"/>
      <path d="M 2.78125 3.328125 
L 4.109375 10.5 
Q 11.1875 5.609375 19.671875 5.609375 
Q 23.34375 5.609375 25.921875 7.203125 
Q 28.515625 8.796875 28.515625 12.203125 
Q 28.515625 14.796875 26.53125 16.453125 
Q 24.5625 18.109375 21.921875 18.609375 
L 15.828125 19.828125 
Q 10.75 20.84375 7.03125 24.359375 
Q 3.328125 27.875 3.328125 32.8125 
Q 3.328125 37.359375 5.515625 40.359375 
Q 7.71875 43.359375 11.421875 44.71875 
Q 15.140625 46.09375 19.671875 46.09375 
Q 24.03125 46.09375 27.265625 45.375 
Q 30.515625 44.671875 34.28125 42.921875 
L 33.109375 35.890625 
Q 29.5 38.03125 26.140625 38.90625 
Q 22.796875 39.796875 18.609375 39.796875 
Q 15.328125 39.796875 13.0625 38.359375 
Q 10.796875 36.921875 10.796875 33.796875 
Q 10.796875 31.640625 12.5 30.09375 
Q 14.203125 28.5625 16.609375 27.984375 
L 23.296875 26.703125 
Q 26.703125 25.921875 29.609375 24.015625 
Q 32.515625 22.125 34.25 19.265625 
Q 35.984375 16.40625 35.984375 12.984375 
Q 35.984375 8.203125 33.859375 5.046875 
Q 31.734375 1.90625 28.09375 0.390625 
Q 24.46875 -1.125 19.671875 -1.125 
Q 10.6875 -1.125 2.78125 3.328125 
" id="Cmss10-73"/>
      <path d="M 4.296875 -19.671875 
L 3.71875 -12.796875 
Q 7.5625 -14.40625 12.015625 -14.40625 
Q 14.109375 -14.40625 15.453125 -12.078125 
Q 16.796875 -9.765625 18.015625 -6.5 
L 20.609375 0 
L 1.421875 44.390625 
L 9.71875 44.390625 
Q 13.28125 36.234375 16.359375 28.765625 
Q 19.4375 21.296875 21.5625 14.890625 
Q 23.6875 8.5 23.6875 5.421875 
Q 23.734375 8.546875 25.734375 15.0625 
Q 27.734375 21.578125 30.703125 29.296875 
Q 33.6875 37.015625 36.71875 44.390625 
L 44.578125 44.390625 
L 24.21875 -6.5 
Q 22.265625 -11.1875 21.046875 -13.625 
Q 19.828125 -16.0625 17.484375 -18.28125 
Q 15.140625 -20.515625 12.015625 -20.515625 
Q 11.375 -20.515625 8.046875 -20.265625 
Q 4.734375 -20.015625 4.296875 -19.671875 
" id="Cmss10-79"/>
     </defs>
     <g transform="translate(452.448 67.10175)scale(0.144 -0.144)">
      <use transform="translate(0.0 0.421875)" xlink:href="#Cmss10-47"/>
      <use transform="translate(71.2478125 -17.278125000000003)scale(0.7)" xlink:href="#Cmss10-73"/>
      <use transform="translate(98.0446875 -17.278125000000003)scale(0.7)" xlink:href="#Cmss10-79"/>
      <use transform="translate(130.3103125 -17.278125000000003)scale(0.7)" xlink:href="#Cmss10-6e"/>
     </g>
    </g>
    <g id="line2d_43">
     <path d="M 416.448 84.9555 
L 436.608 84.9555 
" style="fill:none;stroke:#0000ff;stroke-linecap:square;stroke-width:2.0;"/>
    </g>
    <g id="line2d_44"/>
    <g id="text_15">
     <!-- $\sf G_{lead}$ -->
     <defs>
      <path d="M 7.90625 0 
L 7.90625 69.390625 
L 15.828125 69.390625 
L 15.828125 0 
z
" id="Cmss10-6c"/>
      <path d="M 15.1875 -1.125 
Q 11.96875 -1.125 9.453125 0.75 
Q 6.9375 2.640625 5.5625 5.609375 
Q 4.203125 8.59375 4.203125 11.921875 
Q 4.203125 16.75 9.0625 19.625 
Q 13.921875 22.515625 20.390625 23.609375 
Q 26.859375 24.703125 31.890625 24.703125 
L 31.890625 29.390625 
Q 31.890625 33.25 29.6875 36.515625 
Q 27.484375 39.796875 23.78125 39.796875 
Q 19.140625 39.796875 15.625 38.640625 
Q 12.109375 37.5 8.296875 34.71875 
L 7.71875 41.796875 
Q 11.765625 44.140625 15.421875 45.109375 
Q 19.09375 46.09375 23.78125 46.09375 
Q 28.21875 46.09375 31.984375 43.765625 
Q 35.75 41.453125 37.921875 37.625 
Q 40.09375 33.796875 40.09375 29.390625 
L 40.09375 0 
L 32.171875 0 
L 32.171875 3.71875 
Q 29.046875 1.3125 24.625 0.09375 
Q 20.21875 -1.125 15.1875 -1.125 
M 11.8125 11.921875 
Q 11.8125 8.84375 14.640625 7.125 
Q 17.484375 5.421875 20.796875 5.421875 
Q 25 5.421875 28.4375 7.296875 
Q 31.890625 9.1875 31.890625 12.984375 
L 31.890625 19.1875 
Q 25.640625 19.1875 18.71875 17.578125 
Q 11.8125 15.96875 11.8125 11.921875 
" id="Cmss10-61"/>
      <path d="M 24.90625 -1.125 
Q 20.3125 -1.125 16.3125 0.796875 
Q 12.3125 2.734375 9.40625 6.09375 
Q 6.5 9.46875 4.90625 13.78125 
Q 3.328125 18.109375 3.328125 22.515625 
Q 3.328125 28.21875 5.828125 33.734375 
Q 8.34375 39.265625 12.984375 42.671875 
Q 17.625 46.09375 23.484375 46.09375 
Q 33.0625 46.09375 37.28125 39.0625 
Q 41.5 32.03125 41.5 21.921875 
L 10.6875 21.921875 
Q 10.6875 17.96875 12.515625 14.125 
Q 14.359375 10.296875 17.65625 7.859375 
Q 20.953125 5.421875 24.90625 5.421875 
Q 33.59375 5.421875 40.375 10.796875 
L 41.015625 4 
Q 38.921875 1.90625 33.78125 0.390625 
Q 28.65625 -1.125 24.90625 -1.125 
M 11.28125 27.78125 
L 35.296875 27.78125 
Q 34.515625 32.859375 31.484375 36.21875 
Q 28.46875 39.59375 23.484375 39.59375 
Q 20.5625 39.59375 17.96875 37.90625 
Q 15.375 36.234375 13.6875 33.515625 
Q 12.015625 30.8125 11.28125 27.78125 
" id="Cmss10-65"/>
      <path d="M 20.3125 -1.125 
Q 14.984375 -1.125 11.125 2.515625 
Q 7.28125 6.15625 5.34375 11.578125 
Q 3.421875 17 3.421875 22.21875 
Q 3.421875 26.171875 4.546875 30.203125 
Q 5.671875 34.234375 7.8125 37.71875 
Q 9.96875 41.21875 13.234375 43.359375 
Q 16.5 45.515625 20.609375 45.515625 
Q 24.859375 45.515625 28.78125 44.09375 
Q 32.71875 42.671875 35.6875 40.1875 
L 35.6875 69.390625 
L 43.609375 69.390625 
L 43.609375 0 
L 35.40625 0 
L 35.40625 4.984375 
Q 32.171875 2 28.40625 0.4375 
Q 24.65625 -1.125 20.3125 -1.125 
M 24.90625 5.421875 
Q 28.21875 5.421875 31 7.265625 
Q 33.796875 9.125 35.40625 12.203125 
L 35.40625 33.796875 
Q 33.84375 36.1875 31.34375 37.59375 
Q 28.859375 39.015625 26.125 39.015625 
Q 21.4375 39.015625 18.140625 36.71875 
Q 14.84375 34.421875 13.234375 30.59375 
Q 11.625 26.765625 11.625 22.21875 
Q 11.625 15.328125 14.984375 10.375 
Q 18.359375 5.421875 24.90625 5.421875 
" id="Cmss10-64"/>
     </defs>
     <g transform="translate(452.448 89.9955)scale(0.144 -0.144)">
      <use transform="translate(0.0 0.421875)" xlink:href="#Cmss10-47"/>
      <use transform="translate(71.2478125 -17.278125000000003)scale(0.7)" xlink:href="#Cmss10-6c"/>
      <use transform="translate(87.8933203125 -17.278125000000003)scale(0.7)" xlink:href="#Cmss10-65"/>
      <use transform="translate(118.96265624999998 -17.278125000000003)scale(0.7)" xlink:href="#Cmss10-61"/>
      <use transform="translate(152.56128906249995 -17.278125000000003)scale(0.7)" xlink:href="#Cmss10-64"/>
     </g>
    </g>
    <g id="line2d_45">
     <path d="M 416.448 106.092 
L 436.608 106.092 
" style="fill:none;stroke:#008000;stroke-linecap:square;stroke-width:2.0;"/>
    </g>
    <g id="line2d_46"/>
    <g id="text_16">
     <!-- $\sf G_{syn+lead}$ -->
     <defs>
      <path d="M 7.515625 23 
Q 6.6875 23 6.140625 23.625 
Q 5.609375 24.265625 5.609375 25 
Q 5.609375 25.734375 6.140625 26.359375 
Q 6.6875 27 7.515625 27 
L 36.921875 27 
L 36.921875 56.5 
Q 36.921875 57.28125 37.5 57.78125 
Q 38.09375 58.296875 38.921875 58.296875 
Q 39.65625 58.296875 40.28125 57.78125 
Q 40.921875 57.28125 40.921875 56.5 
L 40.921875 27 
L 70.3125 27 
Q 71.046875 27 71.578125 26.359375 
Q 72.125 25.734375 72.125 25 
Q 72.125 24.265625 71.578125 23.625 
Q 71.046875 23 70.3125 23 
L 40.921875 23 
L 40.921875 -6.5 
Q 40.921875 -7.28125 40.28125 -7.78125 
Q 39.65625 -8.296875 38.921875 -8.296875 
Q 38.09375 -8.296875 37.5 -7.78125 
Q 36.921875 -7.28125 36.921875 -6.5 
L 36.921875 23 
z
" id="Cmr10-2b"/>
     </defs>
     <g transform="translate(452.448 111.132)scale(0.144 -0.144)">
      <use transform="translate(0.0 0.421875)" xlink:href="#Cmss10-47"/>
      <use transform="translate(71.2478125 -17.278125000000003)scale(0.7)" xlink:href="#Cmss10-73"/>
      <use transform="translate(98.0446875 -17.278125000000003)scale(0.7)" xlink:href="#Cmss10-79"/>
      <use transform="translate(130.3103125 -17.278125000000003)scale(0.7)" xlink:href="#Cmss10-6e"/>
      <use transform="translate(177.5534765625 -17.278125000000003)scale(0.7)" xlink:href="#Cmr10-2b"/>
      <use transform="translate(243.04859375 -17.278125000000003)scale(0.7)" xlink:href="#Cmss10-6c"/>
      <use transform="translate(259.6941015625 -17.278125000000003)scale(0.7)" xlink:href="#Cmss10-65"/>
      <use transform="translate(290.7634375 -17.278125000000003)scale(0.7)" xlink:href="#Cmss10-61"/>
      <use transform="translate(324.3620703125 -17.278125000000003)scale(0.7)" xlink:href="#Cmss10-64"/>
     </g>
    </g>
   </g>
  </g>
  <g id="axes_2">
   <g id="patch_8">
    <path d="M 72 388.8 
L 518.4 388.8 
L 518.4 231.709091 
L 72 231.709091 
z
" style="fill:#ffffff;"/>
   </g>
   <g id="line2d_47">
    <path clip-path="url(#pc4caa1f953)" d="M 72 310.254545 
L 76.509091 315.891805 
L 81.018182 321.357511 
L 85.527273 326.509507 
L 90.036364 331.252875 
L 94.545455 335.54232 
L 99.054545 339.373214 
L 103.563636 342.768329 
L 108.072727 345.765496 
L 112.581818 348.408486 
L 117.090909 350.741262 
L 121.6 352.804857 
L 126.109091 354.635988 
L 130.618182 356.266693 
L 135.127273 357.724518 
L 139.636364 359.032947 
L 144.145455 360.21192 
L 148.654545 361.27834 
L 153.163636 362.246549 
L 157.672727 363.128732 
L 162.181818 363.935271 
L 166.690909 364.675037 
L 171.2 365.355638 
L 175.709091 365.983623 
L 180.218182 366.564647 
L 184.727273 367.103614 
L 189.236364 367.604792 
L 193.745455 368.071909 
L 198.254545 368.508231 
L 202.763636 368.916632 
L 207.272727 369.299648 
L 211.781818 369.659524 
L 216.290909 369.998252 
L 220.8 370.317609 
L 225.309091 370.619181 
L 229.818182 370.904388 
L 234.327273 371.174506 
L 238.836364 371.430683 
L 243.345455 371.673956 
L 247.854545 371.905263 
L 252.363636 372.125454 
L 256.872727 372.335302 
L 261.381818 372.53551 
L 265.890909 372.726721 
L 270.4 372.909521 
L 274.909091 373.084447 
L 279.418182 373.251993 
L 283.927273 373.412611 
L 288.436364 373.566719 
L 292.945455 373.714701 
L 297.454545 373.856912 
L 301.963636 373.993682 
L 306.472727 374.125312 
L 310.981818 374.252087 
L 315.490909 374.374268 
L 320 374.492098 
L 324.509091 374.605805 
L 329.018182 374.715599 
L 333.527273 374.821678 
L 338.036364 374.924226 
L 342.545455 375.023416 
L 347.054545 375.119408 
L 351.563636 375.212355 
L 356.072727 375.302398 
L 360.581818 375.389671 
L 365.090909 375.474298 
L 369.6 375.556399 
L 374.109091 375.636082 
L 378.618182 375.713455 
L 383.127273 375.788614 
L 387.636364 375.861653 
L 392.145455 375.932661 
L 396.654545 376.001721 
L 401.163636 376.068911 
L 405.672727 376.134306 
L 410.181818 376.197976 
L 414.690909 376.25999 
L 419.2 376.320409 
L 423.709091 376.379296 
L 428.218182 376.436707 
L 432.727273 376.492697 
L 437.236364 376.547318 
L 441.745455 376.600619 
L 446.254545 376.652648 
L 450.763636 376.703448 
L 455.272727 376.753064 
L 459.781818 376.801536 
L 464.290909 376.848904 
L 468.8 376.895203 
L 473.309091 376.94047 
L 477.818182 376.984739 
L 482.327273 377.028043 
L 486.836364 377.070412 
L 491.345455 377.111877 
L 495.854545 377.152466 
L 500.363636 377.192206 
L 504.872727 377.231124 
L 509.381818 377.269245 
L 513.890909 377.306593 
L 518.4 377.343192 
" style="fill:none;stroke:#ff0000;stroke-linecap:square;stroke-width:2.0;"/>
   </g>
   <g id="line2d_48">
    <path clip-path="url(#pc4caa1f953)" d="M 244.845318 388.8 
L 244.845318 231.709091 
" style="fill:none;stroke:#008000;stroke-linecap:square;stroke-width:4.0;"/>
   </g>
   <g id="line2d_49">
    <defs>
     <path d="M 0 3 
C 0.795609 3 1.55874 2.683901 2.12132 2.12132 
C 2.683901 1.55874 3 0.795609 3 0 
C 3 -0.795609 2.683901 -1.55874 2.12132 -2.12132 
C 1.55874 -2.683901 0.795609 -3 0 -3 
C -0.795609 -3 -1.55874 -2.683901 -2.12132 -2.12132 
C -2.683901 -1.55874 -3 -0.795609 -3 0 
C -3 0.795609 -2.683901 1.55874 -2.12132 2.12132 
C -1.55874 2.683901 -0.795609 3 0 3 
z
" id="m422d681a7f" style="stroke:#000000;stroke-width:0.5;"/>
    </defs>
    <g clip-path="url(#pc4caa1f953)">
     <use style="fill:#ff0000;stroke:#000000;stroke-width:0.5;" x="244.845318101" xlink:href="#m422d681a7f" y="371.905262679"/>
    </g>
   </g>
   <g id="line2d_50">
    <path clip-path="url(#pc4caa1f953)" d="M 72 310.254545 
L 76.509091 298.97358 
L 81.018182 288.99216 
L 85.527273 280.894083 
L 90.036364 274.598916 
L 94.545455 269.759296 
L 99.054545 266.01713 
L 103.563636 263.085954 
L 108.072727 260.755382 
L 112.581818 258.874897 
L 117.090909 257.336946 
L 121.6 256.063946 
L 126.109091 254.999144 
L 130.618182 254.100371 
L 135.127273 253.33581 
L 139.636364 252.681091 
L 144.145455 252.117286 
L 148.654545 251.629498 
L 153.163636 251.205865 
L 157.672727 250.836836 
L 162.181818 250.514638 
L 166.690909 250.232891 
L 171.2 249.98631 
L 175.709091 249.770481 
L 180.218182 249.581692 
L 184.727273 249.416801 
L 189.236364 249.273129 
L 193.745455 249.148378 
L 198.254545 249.040569 
L 202.763636 248.947986 
L 207.272727 248.869135 
L 211.781818 248.802711 
L 216.290909 248.747565 
L 220.8 248.702685 
L 225.309091 248.667176 
L 229.818182 248.640242 
L 234.327273 248.621174 
L 238.836364 248.609337 
L 243.345455 248.604162 
L 247.854545 248.605139 
L 252.363636 248.611805 
L 256.872727 248.623743 
L 261.381818 248.640575 
L 265.890909 248.661957 
L 270.4 248.687577 
L 274.909091 248.717148 
L 279.418182 248.750409 
L 283.927273 248.787121 
L 288.436364 248.827065 
L 292.945455 248.870037 
L 297.454545 248.915852 
L 301.963636 248.964338 
L 306.472727 249.015335 
L 310.981818 249.068698 
L 315.490909 249.124288 
L 320 249.18198 
L 324.509091 249.241656 
L 329.018182 249.303206 
L 333.527273 249.366528 
L 338.036364 249.431526 
L 342.545455 249.498112 
L 347.054545 249.5662 
L 351.563636 249.635714 
L 356.072727 249.70658 
L 360.581818 249.778728 
L 365.090909 249.852095 
L 369.6 249.926619 
L 374.109091 250.002242 
L 378.618182 250.078912 
L 383.127273 250.156575 
L 387.636364 250.235185 
L 392.145455 250.314696 
L 396.654545 250.395064 
L 401.163636 250.476248 
L 405.672727 250.558211 
L 410.181818 250.640915 
L 414.690909 250.724325 
L 419.2 250.808408 
L 423.709091 250.893133 
L 428.218182 250.97847 
L 432.727273 251.06439 
L 437.236364 251.150866 
L 441.745455 251.237873 
L 446.254545 251.325384 
L 450.763636 251.413378 
L 455.272727 251.501831 
L 459.781818 251.590722 
L 464.290909 251.68003 
L 468.8 251.769735 
L 473.309091 251.859819 
L 477.818182 251.950264 
L 482.327273 252.041052 
L 486.836364 252.132167 
L 491.345455 252.223592 
L 495.854545 252.315313 
L 500.363636 252.407314 
L 504.872727 252.499582 
L 509.381818 252.592103 
L 513.890909 252.684864 
L 518.4 252.777853 
" style="fill:none;stroke:#0000ff;stroke-linecap:square;stroke-width:2.0;"/>
   </g>
   <g id="line2d_51">
    <path clip-path="url(#pc4caa1f953)" d="M 72 310.254545 
L 76.509091 304.61084 
L 81.018182 300.095125 
L 85.527273 297.149044 
L 90.036364 295.597245 
L 94.545455 295.04707 
L 99.054545 295.135798 
L 103.563636 295.599737 
L 108.072727 296.266333 
L 112.581818 297.028837 
L 117.090909 297.823662 
L 121.6 298.614258 
L 126.109091 299.380586 
L 130.618182 300.112518 
L 135.127273 300.805783 
L 139.636364 301.459493 
L 144.145455 302.07466 
L 148.654545 302.653293 
L 153.163636 303.197869 
L 157.672727 303.711022 
L 162.181818 304.195363 
L 166.690909 304.653382 
L 171.2 305.087402 
L 175.709091 305.499558 
L 180.218182 305.891794 
L 184.727273 306.26587 
L 189.236364 306.623375 
L 193.745455 306.965741 
L 198.254545 307.294254 
L 202.763636 307.610072 
L 207.272727 307.914238 
L 211.781818 308.207689 
L 216.290909 308.491271 
L 220.8 308.765749 
L 225.309091 309.031812 
L 229.818182 309.290085 
L 234.327273 309.541134 
L 238.836364 309.785474 
L 243.345455 310.023573 
L 247.854545 310.255856 
L 252.363636 310.482713 
L 256.872727 310.7045 
L 261.381818 310.92154 
L 265.890909 311.134133 
L 270.4 311.342552 
L 274.909091 311.54705 
L 279.418182 311.747857 
L 283.927273 311.945187 
L 288.436364 312.139238 
L 292.945455 312.330193 
L 297.454545 312.518219 
L 301.963636 312.703474 
L 306.472727 312.886102 
L 310.981818 313.066239 
L 315.490909 313.244011 
L 320 313.419533 
L 324.509091 313.592916 
L 329.018182 313.76426 
L 333.527273 313.933661 
L 338.036364 314.101207 
L 342.545455 314.266982 
L 347.054545 314.431063 
L 351.563636 314.593524 
L 356.072727 314.754433 
L 360.581818 314.913854 
L 365.090909 315.071848 
L 369.6 315.228472 
L 374.109091 315.383779 
L 378.618182 315.537821 
L 383.127273 315.690644 
L 387.636364 315.842293 
L 392.145455 315.992811 
L 396.654545 316.142239 
L 401.163636 316.290614 
L 405.672727 316.437971 
L 410.181818 316.584346 
L 414.690909 316.729769 
L 419.2 316.874272 
L 423.709091 317.017884 
L 428.218182 317.160632 
L 432.727273 317.302542 
L 437.236364 317.443639 
L 441.745455 317.583946 
L 446.254545 317.723487 
L 450.763636 317.862281 
L 455.272727 318.00035 
L 459.781818 318.137713 
L 464.290909 318.274388 
L 468.8 318.410393 
L 473.309091 318.545744 
L 477.818182 318.680458 
L 482.327273 318.814549 
L 486.836364 318.948033 
L 491.345455 319.080923 
L 495.854545 319.213233 
L 500.363636 319.344975 
L 504.872727 319.476161 
L 509.381818 319.606803 
L 513.890909 319.736912 
L 518.4 319.866499 
" style="fill:none;stroke:#008000;stroke-linecap:square;stroke-width:2.0;"/>
   </g>
   <g id="patch_9">
    <path d="M 72 388.8 
L 518.4 388.8 
" style="fill:none;stroke:#000000;stroke-linecap:square;stroke-linejoin:miter;"/>
   </g>
   <g id="patch_10">
    <path d="M 72 388.8 
L 72 231.709091 
" style="fill:none;stroke:#000000;stroke-linecap:square;stroke-linejoin:miter;"/>
   </g>
   <g id="patch_11">
    <path d="M 518.4 388.8 
L 518.4 231.709091 
" style="fill:none;stroke:#000000;stroke-linecap:square;stroke-linejoin:miter;"/>
   </g>
   <g id="patch_12">
    <path d="M 72 231.709091 
L 518.4 231.709091 
" style="fill:none;stroke:#000000;stroke-linecap:square;stroke-linejoin:miter;"/>
   </g>
   <g id="matplotlib.axis_3">
    <g id="xtick_6">
     <g id="line2d_52">
      <path clip-path="url(#pc4caa1f953)" d="M 72 388.8 
L 72 231.709091 
" style="fill:none;stroke:#000000;stroke-dasharray:1.000000,3.000000;stroke-dashoffset:0.0;stroke-width:0.5;"/>
     </g>
     <g id="line2d_53">
      <g>
       <use style="stroke:#000000;stroke-width:0.5;" x="72.0" xlink:href="#me6a0a2cdd8" y="388.8"/>
      </g>
     </g>
     <g id="line2d_54">
      <g>
       <use style="stroke:#000000;stroke-width:0.5;" x="72.0" xlink:href="#m7bca8fb725" y="231.709090909"/>
      </g>
     </g>
     <g id="text_17">
      <!-- 0 -->
      <g transform="translate(68.1825 401.918125)scale(0.12 -0.12)">
       <use xlink:href="#BitstreamVeraSans-Roman-30"/>
      </g>
     </g>
    </g>
    <g id="xtick_7">
     <g id="line2d_55">
      <path clip-path="url(#pc4caa1f953)" d="M 183.6 388.8 
L 183.6 231.709091 
" style="fill:none;stroke:#000000;stroke-dasharray:1.000000,3.000000;stroke-dashoffset:0.0;stroke-width:0.5;"/>
     </g>
     <g id="line2d_56">
      <g>
       <use style="stroke:#000000;stroke-width:0.5;" x="183.6" xlink:href="#me6a0a2cdd8" y="388.8"/>
      </g>
     </g>
     <g id="line2d_57">
      <g>
       <use style="stroke:#000000;stroke-width:0.5;" x="183.6" xlink:href="#m7bca8fb725" y="231.709090909"/>
      </g>
     </g>
     <g id="text_18">
      <!-- 5 -->
      <g transform="translate(179.7825 401.918125)scale(0.12 -0.12)">
       <use xlink:href="#BitstreamVeraSans-Roman-35"/>
      </g>
     </g>
    </g>
    <g id="xtick_8">
     <g id="line2d_58">
      <path clip-path="url(#pc4caa1f953)" d="M 295.2 388.8 
L 295.2 231.709091 
" style="fill:none;stroke:#000000;stroke-dasharray:1.000000,3.000000;stroke-dashoffset:0.0;stroke-width:0.5;"/>
     </g>
     <g id="line2d_59">
      <g>
       <use style="stroke:#000000;stroke-width:0.5;" x="295.2" xlink:href="#me6a0a2cdd8" y="388.8"/>
      </g>
     </g>
     <g id="line2d_60">
      <g>
       <use style="stroke:#000000;stroke-width:0.5;" x="295.2" xlink:href="#m7bca8fb725" y="231.709090909"/>
      </g>
     </g>
     <g id="text_19">
      <!-- 10 -->
      <g transform="translate(287.565 401.918125)scale(0.12 -0.12)">
       <use xlink:href="#BitstreamVeraSans-Roman-31"/>
       <use x="63.623046875" xlink:href="#BitstreamVeraSans-Roman-30"/>
      </g>
     </g>
    </g>
    <g id="xtick_9">
     <g id="line2d_61">
      <path clip-path="url(#pc4caa1f953)" d="M 406.8 388.8 
L 406.8 231.709091 
" style="fill:none;stroke:#000000;stroke-dasharray:1.000000,3.000000;stroke-dashoffset:0.0;stroke-width:0.5;"/>
     </g>
     <g id="line2d_62">
      <g>
       <use style="stroke:#000000;stroke-width:0.5;" x="406.8" xlink:href="#me6a0a2cdd8" y="388.8"/>
      </g>
     </g>
     <g id="line2d_63">
      <g>
       <use style="stroke:#000000;stroke-width:0.5;" x="406.8" xlink:href="#m7bca8fb725" y="231.709090909"/>
      </g>
     </g>
     <g id="text_20">
      <!-- 15 -->
      <g transform="translate(399.165 401.918125)scale(0.12 -0.12)">
       <use xlink:href="#BitstreamVeraSans-Roman-31"/>
       <use x="63.623046875" xlink:href="#BitstreamVeraSans-Roman-35"/>
      </g>
     </g>
    </g>
    <g id="xtick_10">
     <g id="line2d_64">
      <path clip-path="url(#pc4caa1f953)" d="M 518.4 388.8 
L 518.4 231.709091 
" style="fill:none;stroke:#000000;stroke-dasharray:1.000000,3.000000;stroke-dashoffset:0.0;stroke-width:0.5;"/>
     </g>
     <g id="line2d_65">
      <g>
       <use style="stroke:#000000;stroke-width:0.5;" x="518.4" xlink:href="#me6a0a2cdd8" y="388.8"/>
      </g>
     </g>
     <g id="line2d_66">
      <g>
       <use style="stroke:#000000;stroke-width:0.5;" x="518.4" xlink:href="#m7bca8fb725" y="231.709090909"/>
      </g>
     </g>
     <g id="text_21">
      <!-- 20 -->
      <g transform="translate(510.765 401.918125)scale(0.12 -0.12)">
       <use xlink:href="#BitstreamVeraSans-Roman-32"/>
       <use x="63.623046875" xlink:href="#BitstreamVeraSans-Roman-30"/>
      </g>
     </g>
    </g>
    <g id="text_22">
     <!-- Frequency (rad/s) -->
     <defs>
      <path d="M 14.796875 27.296875 
Q 14.796875 17.390625 18.875 11.75 
Q 22.953125 6.109375 30.078125 6.109375 
Q 37.203125 6.109375 41.296875 11.75 
Q 45.40625 17.390625 45.40625 27.296875 
Q 45.40625 37.203125 41.296875 42.84375 
Q 37.203125 48.484375 30.078125 48.484375 
Q 22.953125 48.484375 18.875 42.84375 
Q 14.796875 37.203125 14.796875 27.296875 
M 45.40625 8.203125 
Q 42.578125 3.328125 38.25 0.953125 
Q 33.9375 -1.421875 27.875 -1.421875 
Q 17.96875 -1.421875 11.734375 6.484375 
Q 5.515625 14.40625 5.515625 27.296875 
Q 5.515625 40.1875 11.734375 48.09375 
Q 17.96875 56 27.875 56 
Q 33.9375 56 38.25 53.625 
Q 42.578125 51.265625 45.40625 46.390625 
L 45.40625 54.6875 
L 54.390625 54.6875 
L 54.390625 -20.796875 
L 45.40625 -20.796875 
z
" id="BitstreamVeraSans-Roman-71"/>
      <path d="M 32.171875 -5.078125 
Q 28.375 -14.84375 24.75 -17.8125 
Q 21.140625 -20.796875 15.09375 -20.796875 
L 7.90625 -20.796875 
L 7.90625 -13.28125 
L 13.1875 -13.28125 
Q 16.890625 -13.28125 18.9375 -11.515625 
Q 21 -9.765625 23.484375 -3.21875 
L 25.09375 0.875 
L 2.984375 54.6875 
L 12.5 54.6875 
L 29.59375 11.921875 
L 46.6875 54.6875 
L 56.203125 54.6875 
z
" id="BitstreamVeraSans-Roman-79"/>
      <path d="M 48.78125 52.59375 
L 48.78125 44.1875 
Q 44.96875 46.296875 41.140625 47.34375 
Q 37.3125 48.390625 33.40625 48.390625 
Q 24.65625 48.390625 19.8125 42.84375 
Q 14.984375 37.3125 14.984375 27.296875 
Q 14.984375 17.28125 19.8125 11.734375 
Q 24.65625 6.203125 33.40625 6.203125 
Q 37.3125 6.203125 41.140625 7.25 
Q 44.96875 8.296875 48.78125 10.40625 
L 48.78125 2.09375 
Q 45.015625 0.34375 40.984375 -0.53125 
Q 36.96875 -1.421875 32.421875 -1.421875 
Q 20.0625 -1.421875 12.78125 6.34375 
Q 5.515625 14.109375 5.515625 27.296875 
Q 5.515625 40.671875 12.859375 48.328125 
Q 20.21875 56 33.015625 56 
Q 37.15625 56 41.109375 55.140625 
Q 45.0625 54.296875 48.78125 52.59375 
" id="BitstreamVeraSans-Roman-63"/>
      <path d="M 44.28125 53.078125 
L 44.28125 44.578125 
Q 40.484375 46.53125 36.375 47.5 
Q 32.28125 48.484375 27.875 48.484375 
Q 21.1875 48.484375 17.84375 46.4375 
Q 14.5 44.390625 14.5 40.28125 
Q 14.5 37.15625 16.890625 35.375 
Q 19.28125 33.59375 26.515625 31.984375 
L 29.59375 31.296875 
Q 39.15625 29.25 43.1875 25.515625 
Q 47.21875 21.78125 47.21875 15.09375 
Q 47.21875 7.46875 41.1875 3.015625 
Q 35.15625 -1.421875 24.609375 -1.421875 
Q 20.21875 -1.421875 15.453125 -0.5625 
Q 10.6875 0.296875 5.421875 2 
L 5.421875 11.28125 
Q 10.40625 8.6875 15.234375 7.390625 
Q 20.0625 6.109375 24.8125 6.109375 
Q 31.15625 6.109375 34.5625 8.28125 
Q 37.984375 10.453125 37.984375 14.40625 
Q 37.984375 18.0625 35.515625 20.015625 
Q 33.0625 21.96875 24.703125 23.78125 
L 21.578125 24.515625 
Q 13.234375 26.265625 9.515625 29.90625 
Q 5.8125 33.546875 5.8125 39.890625 
Q 5.8125 47.609375 11.28125 51.796875 
Q 16.75 56 26.8125 56 
Q 31.78125 56 36.171875 55.265625 
Q 40.578125 54.546875 44.28125 53.078125 
" id="BitstreamVeraSans-Roman-73"/>
      <path d="M 45.40625 46.390625 
L 45.40625 75.984375 
L 54.390625 75.984375 
L 54.390625 0 
L 45.40625 0 
L 45.40625 8.203125 
Q 42.578125 3.328125 38.25 0.953125 
Q 33.9375 -1.421875 27.875 -1.421875 
Q 17.96875 -1.421875 11.734375 6.484375 
Q 5.515625 14.40625 5.515625 27.296875 
Q 5.515625 40.1875 11.734375 48.09375 
Q 17.96875 56 27.875 56 
Q 33.9375 56 38.25 53.625 
Q 42.578125 51.265625 45.40625 46.390625 
M 14.796875 27.296875 
Q 14.796875 17.390625 18.875 11.75 
Q 22.953125 6.109375 30.078125 6.109375 
Q 37.203125 6.109375 41.296875 11.75 
Q 45.40625 17.390625 45.40625 27.296875 
Q 45.40625 37.203125 41.296875 42.84375 
Q 37.203125 48.484375 30.078125 48.484375 
Q 22.953125 48.484375 18.875 42.84375 
Q 14.796875 37.203125 14.796875 27.296875 
" id="BitstreamVeraSans-Roman-64"/>
      <path d="M 56.203125 29.59375 
L 56.203125 25.203125 
L 14.890625 25.203125 
Q 15.484375 15.921875 20.484375 11.0625 
Q 25.484375 6.203125 34.421875 6.203125 
Q 39.59375 6.203125 44.453125 7.46875 
Q 49.3125 8.734375 54.109375 11.28125 
L 54.109375 2.78125 
Q 49.265625 0.734375 44.1875 -0.34375 
Q 39.109375 -1.421875 33.890625 -1.421875 
Q 20.796875 -1.421875 13.15625 6.1875 
Q 5.515625 13.8125 5.515625 26.8125 
Q 5.515625 40.234375 12.765625 48.109375 
Q 20.015625 56 32.328125 56 
Q 43.359375 56 49.78125 48.890625 
Q 56.203125 41.796875 56.203125 29.59375 
M 47.21875 32.234375 
Q 47.125 39.59375 43.09375 43.984375 
Q 39.0625 48.390625 32.421875 48.390625 
Q 24.90625 48.390625 20.390625 44.140625 
Q 15.875 39.890625 15.1875 32.171875 
z
" id="BitstreamVeraSans-Roman-65"/>
      <path d="M 41.109375 46.296875 
Q 39.59375 47.171875 37.8125 47.578125 
Q 36.03125 48 33.890625 48 
Q 26.265625 48 22.1875 43.046875 
Q 18.109375 38.09375 18.109375 28.8125 
L 18.109375 0 
L 9.078125 0 
L 9.078125 54.6875 
L 18.109375 54.6875 
L 18.109375 46.1875 
Q 20.953125 51.171875 25.484375 53.578125 
Q 30.03125 56 36.53125 56 
Q 37.453125 56 38.578125 55.875 
Q 39.703125 55.765625 41.0625 55.515625 
z
" id="BitstreamVeraSans-Roman-72"/>
      <path d="M 9.8125 72.90625 
L 51.703125 72.90625 
L 51.703125 64.59375 
L 19.671875 64.59375 
L 19.671875 43.109375 
L 48.578125 43.109375 
L 48.578125 34.8125 
L 19.671875 34.8125 
L 19.671875 0 
L 9.8125 0 
z
" id="BitstreamVeraSans-Roman-46"/>
      <path d="M 25.390625 72.90625 
L 33.6875 72.90625 
L 8.296875 -9.28125 
L 0 -9.28125 
z
" id="BitstreamVeraSans-Roman-2f"/>
      <path d="M 8.5 21.578125 
L 8.5 54.6875 
L 17.484375 54.6875 
L 17.484375 21.921875 
Q 17.484375 14.15625 20.5 10.265625 
Q 23.53125 6.390625 29.59375 6.390625 
Q 36.859375 6.390625 41.078125 11.03125 
Q 45.3125 15.671875 45.3125 23.6875 
L 45.3125 54.6875 
L 54.296875 54.6875 
L 54.296875 0 
L 45.3125 0 
L 45.3125 8.40625 
Q 42.046875 3.421875 37.71875 1 
Q 33.40625 -1.421875 27.6875 -1.421875 
Q 18.265625 -1.421875 13.375 4.4375 
Q 8.5 10.296875 8.5 21.578125 
" id="BitstreamVeraSans-Roman-75"/>
     </defs>
     <g transform="translate(241.9546875 418.531875)scale(0.12 -0.12)">
      <use xlink:href="#BitstreamVeraSans-Roman-46"/>
      <use x="57.41015625" xlink:href="#BitstreamVeraSans-Roman-72"/>
      <use x="98.4921875" xlink:href="#BitstreamVeraSans-Roman-65"/>
      <use x="160.015625" xlink:href="#BitstreamVeraSans-Roman-71"/>
      <use x="223.4921875" xlink:href="#BitstreamVeraSans-Roman-75"/>
      <use x="286.87109375" xlink:href="#BitstreamVeraSans-Roman-65"/>
      <use x="348.39453125" xlink:href="#BitstreamVeraSans-Roman-6e"/>
      <use x="411.7734375" xlink:href="#BitstreamVeraSans-Roman-63"/>
      <use x="466.75390625" xlink:href="#BitstreamVeraSans-Roman-79"/>
      <use x="525.93359375" xlink:href="#BitstreamVeraSans-Roman-20"/>
      <use x="557.720703125" xlink:href="#BitstreamVeraSans-Roman-28"/>
      <use x="596.734375" xlink:href="#BitstreamVeraSans-Roman-72"/>
      <use x="637.84765625" xlink:href="#BitstreamVeraSans-Roman-61"/>
      <use x="699.126953125" xlink:href="#BitstreamVeraSans-Roman-64"/>
      <use x="762.603515625" xlink:href="#BitstreamVeraSans-Roman-2f"/>
      <use x="796.294921875" xlink:href="#BitstreamVeraSans-Roman-73"/>
      <use x="848.39453125" xlink:href="#BitstreamVeraSans-Roman-29"/>
     </g>
    </g>
   </g>
   <g id="matplotlib.axis_4">
    <g id="ytick_8">
     <g id="line2d_67">
      <path clip-path="url(#pc4caa1f953)" d="M 72 388.8 
L 518.4 388.8 
" style="fill:none;stroke:#000000;stroke-dasharray:1.000000,3.000000;stroke-dashoffset:0.0;stroke-width:0.5;"/>
     </g>
     <g id="line2d_68">
      <g>
       <use style="stroke:#000000;stroke-width:0.5;" x="72.0" xlink:href="#m5a482c8d17" y="388.8"/>
      </g>
     </g>
     <g id="line2d_69">
      <g>
       <use style="stroke:#000000;stroke-width:0.5;" x="518.4" xlink:href="#mab27e136e9" y="388.8"/>
      </g>
     </g>
     <g id="text_23">
      <!-- −100 -->
      <g transform="translate(35.039375 392.11125)scale(0.12 -0.12)">
       <use xlink:href="#BitstreamVeraSans-Roman-2212"/>
       <use x="83.7890625" xlink:href="#BitstreamVeraSans-Roman-31"/>
       <use x="147.412109375" xlink:href="#BitstreamVeraSans-Roman-30"/>
       <use x="211.03515625" xlink:href="#BitstreamVeraSans-Roman-30"/>
      </g>
     </g>
    </g>
    <g id="ytick_9">
     <g id="line2d_70">
      <path clip-path="url(#pc4caa1f953)" d="M 72 349.527273 
L 518.4 349.527273 
" style="fill:none;stroke:#000000;stroke-dasharray:1.000000,3.000000;stroke-dashoffset:0.0;stroke-width:0.5;"/>
     </g>
     <g id="line2d_71">
      <g>
       <use style="stroke:#000000;stroke-width:0.5;" x="72.0" xlink:href="#m5a482c8d17" y="349.527272727"/>
      </g>
     </g>
     <g id="line2d_72">
      <g>
       <use style="stroke:#000000;stroke-width:0.5;" x="518.4" xlink:href="#mab27e136e9" y="349.527272727"/>
      </g>
     </g>
     <g id="text_24">
      <!-- −50 -->
      <g transform="translate(42.674375 352.838522727)scale(0.12 -0.12)">
       <use xlink:href="#BitstreamVeraSans-Roman-2212"/>
       <use x="83.7890625" xlink:href="#BitstreamVeraSans-Roman-35"/>
       <use x="147.412109375" xlink:href="#BitstreamVeraSans-Roman-30"/>
      </g>
     </g>
    </g>
    <g id="ytick_10">
     <g id="line2d_73">
      <path clip-path="url(#pc4caa1f953)" d="M 72 310.254545 
L 518.4 310.254545 
" style="fill:none;stroke:#000000;stroke-dasharray:1.000000,3.000000;stroke-dashoffset:0.0;stroke-width:0.5;"/>
     </g>
     <g id="line2d_74">
      <g>
       <use style="stroke:#000000;stroke-width:0.5;" x="72.0" xlink:href="#m5a482c8d17" y="310.254545455"/>
      </g>
     </g>
     <g id="line2d_75">
      <g>
       <use style="stroke:#000000;stroke-width:0.5;" x="518.4" xlink:href="#mab27e136e9" y="310.254545455"/>
      </g>
     </g>
     <g id="text_25">
      <!-- 0 -->
      <g transform="translate(60.365 313.565795455)scale(0.12 -0.12)">
       <use xlink:href="#BitstreamVeraSans-Roman-30"/>
      </g>
     </g>
    </g>
    <g id="ytick_11">
     <g id="line2d_76">
      <path clip-path="url(#pc4caa1f953)" d="M 72 270.981818 
L 518.4 270.981818 
" style="fill:none;stroke:#000000;stroke-dasharray:1.000000,3.000000;stroke-dashoffset:0.0;stroke-width:0.5;"/>
     </g>
     <g id="line2d_77">
      <g>
       <use style="stroke:#000000;stroke-width:0.5;" x="72.0" xlink:href="#m5a482c8d17" y="270.981818182"/>
      </g>
     </g>
     <g id="line2d_78">
      <g>
       <use style="stroke:#000000;stroke-width:0.5;" x="518.4" xlink:href="#mab27e136e9" y="270.981818182"/>
      </g>
     </g>
     <g id="text_26">
      <!-- 50 -->
      <g transform="translate(52.73 274.293068182)scale(0.12 -0.12)">
       <use xlink:href="#BitstreamVeraSans-Roman-35"/>
       <use x="63.623046875" xlink:href="#BitstreamVeraSans-Roman-30"/>
      </g>
     </g>
    </g>
    <g id="ytick_12">
     <g id="line2d_79">
      <path clip-path="url(#pc4caa1f953)" d="M 72 231.709091 
L 518.4 231.709091 
" style="fill:none;stroke:#000000;stroke-dasharray:1.000000,3.000000;stroke-dashoffset:0.0;stroke-width:0.5;"/>
     </g>
     <g id="line2d_80">
      <g>
       <use style="stroke:#000000;stroke-width:0.5;" x="72.0" xlink:href="#m5a482c8d17" y="231.709090909"/>
      </g>
     </g>
     <g id="line2d_81">
      <g>
       <use style="stroke:#000000;stroke-width:0.5;" x="518.4" xlink:href="#mab27e136e9" y="231.709090909"/>
      </g>
     </g>
     <g id="text_27">
      <!-- 100 -->
      <g transform="translate(45.095 235.020340909)scale(0.12 -0.12)">
       <use xlink:href="#BitstreamVeraSans-Roman-31"/>
       <use x="63.623046875" xlink:href="#BitstreamVeraSans-Roman-30"/>
       <use x="127.24609375" xlink:href="#BitstreamVeraSans-Roman-30"/>
      </g>
     </g>
    </g>
    <g id="text_28">
     <!-- Phase (deg) -->
     <defs>
      <path d="M 19.671875 64.796875 
L 19.671875 37.40625 
L 32.078125 37.40625 
Q 38.96875 37.40625 42.71875 40.96875 
Q 46.484375 44.53125 46.484375 51.125 
Q 46.484375 57.671875 42.71875 61.234375 
Q 38.96875 64.796875 32.078125 64.796875 
z
M 9.8125 72.90625 
L 32.078125 72.90625 
Q 44.34375 72.90625 50.609375 67.359375 
Q 56.890625 61.8125 56.890625 51.125 
Q 56.890625 40.328125 50.609375 34.8125 
Q 44.34375 29.296875 32.078125 29.296875 
L 19.671875 29.296875 
L 19.671875 0 
L 9.8125 0 
z
" id="BitstreamVeraSans-Roman-50"/>
      <path d="M 45.40625 27.984375 
Q 45.40625 37.75 41.375 43.109375 
Q 37.359375 48.484375 30.078125 48.484375 
Q 22.859375 48.484375 18.828125 43.109375 
Q 14.796875 37.75 14.796875 27.984375 
Q 14.796875 18.265625 18.828125 12.890625 
Q 22.859375 7.515625 30.078125 7.515625 
Q 37.359375 7.515625 41.375 12.890625 
Q 45.40625 18.265625 45.40625 27.984375 
M 54.390625 6.78125 
Q 54.390625 -7.171875 48.1875 -13.984375 
Q 42 -20.796875 29.203125 -20.796875 
Q 24.46875 -20.796875 20.265625 -20.09375 
Q 16.0625 -19.390625 12.109375 -17.921875 
L 12.109375 -9.1875 
Q 16.0625 -11.328125 19.921875 -12.34375 
Q 23.78125 -13.375 27.78125 -13.375 
Q 36.625 -13.375 41.015625 -8.765625 
Q 45.40625 -4.15625 45.40625 5.171875 
L 45.40625 9.625 
Q 42.625 4.78125 38.28125 2.390625 
Q 33.9375 0 27.875 0 
Q 17.828125 0 11.671875 7.65625 
Q 5.515625 15.328125 5.515625 27.984375 
Q 5.515625 40.671875 11.671875 48.328125 
Q 17.828125 56 27.875 56 
Q 33.9375 56 38.28125 53.609375 
Q 42.625 51.21875 45.40625 46.390625 
L 45.40625 54.6875 
L 54.390625 54.6875 
z
" id="BitstreamVeraSans-Roman-67"/>
      <path d="M 54.890625 33.015625 
L 54.890625 0 
L 45.90625 0 
L 45.90625 32.71875 
Q 45.90625 40.484375 42.875 44.328125 
Q 39.84375 48.1875 33.796875 48.1875 
Q 26.515625 48.1875 22.3125 43.546875 
Q 18.109375 38.921875 18.109375 30.90625 
L 18.109375 0 
L 9.078125 0 
L 9.078125 75.984375 
L 18.109375 75.984375 
L 18.109375 46.1875 
Q 21.34375 51.125 25.703125 53.5625 
Q 30.078125 56 35.796875 56 
Q 45.21875 56 50.046875 50.171875 
Q 54.890625 44.34375 54.890625 33.015625 
" id="BitstreamVeraSans-Roman-68"/>
     </defs>
     <g transform="translate(27.54375 346.067982955)rotate(-90.0)scale(0.12 -0.12)">
      <use xlink:href="#BitstreamVeraSans-Roman-50"/>
      <use x="60.302734375" xlink:href="#BitstreamVeraSans-Roman-68"/>
      <use x="123.681640625" xlink:href="#BitstreamVeraSans-Roman-61"/>
      <use x="184.9609375" xlink:href="#BitstreamVeraSans-Roman-73"/>
      <use x="237.060546875" xlink:href="#BitstreamVeraSans-Roman-65"/>
      <use x="298.583984375" xlink:href="#BitstreamVeraSans-Roman-20"/>
      <use x="330.37109375" xlink:href="#BitstreamVeraSans-Roman-28"/>
      <use x="369.384765625" xlink:href="#BitstreamVeraSans-Roman-64"/>
      <use x="432.861328125" xlink:href="#BitstreamVeraSans-Roman-65"/>
      <use x="494.384765625" xlink:href="#BitstreamVeraSans-Roman-67"/>
      <use x="557.861328125" xlink:href="#BitstreamVeraSans-Roman-29"/>
     </g>
    </g>
   </g>
   <g id="legend_2">
    <g id="patch_13">
     <path d="M 406.368 310.153091 
L 511.2 310.153091 
L 511.2 238.909091 
L 406.368 238.909091 
z
" style="fill:#ffffff;stroke:#000000;stroke-linejoin:miter;"/>
    </g>
    <g id="line2d_82">
     <path d="M 416.448 250.570841 
L 436.608 250.570841 
" style="fill:none;stroke:#ff0000;stroke-linecap:square;stroke-width:2.0;"/>
    </g>
    <g id="line2d_83"/>
    <g id="text_29">
     <!-- $\sf G_{syn}$ -->
     <g transform="translate(452.448 255.610840909)scale(0.144 -0.144)">
      <use transform="translate(0.0 0.421875)" xlink:href="#Cmss10-47"/>
      <use transform="translate(71.2478125 -17.278125000000003)scale(0.7)" xlink:href="#Cmss10-73"/>
      <use transform="translate(98.0446875 -17.278125000000003)scale(0.7)" xlink:href="#Cmss10-79"/>
      <use transform="translate(130.3103125 -17.278125000000003)scale(0.7)" xlink:href="#Cmss10-6e"/>
     </g>
    </g>
    <g id="line2d_84">
     <path d="M 416.448 273.464591 
L 436.608 273.464591 
" style="fill:none;stroke:#0000ff;stroke-linecap:square;stroke-width:2.0;"/>
    </g>
    <g id="line2d_85"/>
    <g id="text_30">
     <!-- $\sf G_{lead}$ -->
     <g transform="translate(452.448 278.504590909)scale(0.144 -0.144)">
      <use transform="translate(0.0 0.421875)" xlink:href="#Cmss10-47"/>
      <use transform="translate(71.2478125 -17.278125000000003)scale(0.7)" xlink:href="#Cmss10-6c"/>
      <use transform="translate(87.8933203125 -17.278125000000003)scale(0.7)" xlink:href="#Cmss10-65"/>
      <use transform="translate(118.96265624999998 -17.278125000000003)scale(0.7)" xlink:href="#Cmss10-61"/>
      <use transform="translate(152.56128906249995 -17.278125000000003)scale(0.7)" xlink:href="#Cmss10-64"/>
     </g>
    </g>
    <g id="line2d_86">
     <path d="M 416.448 294.601091 
L 436.608 294.601091 
" style="fill:none;stroke:#008000;stroke-linecap:square;stroke-width:2.0;"/>
    </g>
    <g id="line2d_87"/>
    <g id="text_31">
     <!-- $\sf G_{syn+lead}$ -->
     <g transform="translate(452.448 299.641090909)scale(0.144 -0.144)">
      <use transform="translate(0.0 0.421875)" xlink:href="#Cmss10-47"/>
      <use transform="translate(71.2478125 -17.278125000000003)scale(0.7)" xlink:href="#Cmss10-73"/>
      <use transform="translate(98.0446875 -17.278125000000003)scale(0.7)" xlink:href="#Cmss10-79"/>
      <use transform="translate(130.3103125 -17.278125000000003)scale(0.7)" xlink:href="#Cmss10-6e"/>
      <use transform="translate(177.5534765625 -17.278125000000003)scale(0.7)" xlink:href="#Cmr10-2b"/>
      <use transform="translate(243.04859375 -17.278125000000003)scale(0.7)" xlink:href="#Cmss10-6c"/>
      <use transform="translate(259.6941015625 -17.278125000000003)scale(0.7)" xlink:href="#Cmss10-65"/>
      <use transform="translate(290.7634375 -17.278125000000003)scale(0.7)" xlink:href="#Cmss10-61"/>
      <use transform="translate(324.3620703125 -17.278125000000003)scale(0.7)" xlink:href="#Cmss10-64"/>
     </g>
    </g>
   </g>
  </g>
 </g>
 <defs>
  <clipPath id="pc4caa1f953">
   <rect height="157.090909091" width="446.4" x="72.0" y="231.709090909"/>
  </clipPath>
  <clipPath id="p0b10285c65">
   <rect height="157.090909091" width="446.4" x="72.0" y="43.2"/>
  </clipPath>
 </defs>
</svg>
