<?xml version="1.0" encoding="utf-8" standalone="no"?>
<!DOCTYPE svg PUBLIC "-//W3C//DTD SVG 1.1//EN"
  "http://www.w3.org/Graphics/SVG/1.1/DTD/svg11.dtd">
<!-- Created with matplotlib (http://matplotlib.org/) -->
<svg height="381pt" version="1.1" viewBox="0 0 509 381" width="509pt" xmlns="http://www.w3.org/2000/svg" xmlns:xlink="http://www.w3.org/1999/xlink">
 <defs>
  <style type="text/css">
*{stroke-linecap:butt;stroke-linejoin:round;stroke-miterlimit:100000;}
  </style>
 </defs>
 <g id="figure_1">
  <g id="patch_1">
   <path d="M 0 381.420625 
L 509.209375 381.420625 
L 509.209375 0 
L 0 0 
z
" style="fill:none;opacity:0;"/>
  </g>
  <g id="axes_1">
   <g id="patch_2">
    <path d="M 47.974375 170.097784 
L 494.374375 170.097784 
L 494.374375 13.006875 
L 47.974375 13.006875 
z
" style="fill:#ffffff;"/>
   </g>
   <g id="line2d_1">
    <path clip-path="url(#pa327da971e)" d="M 47.974375 157.976132 
L 48.420775 156.795822 
L 51.545575 140.836457 
L 53.777575 130.485485 
L 56.009575 121.164895 
L 58.241575 112.871802 
L 60.473575 105.553399 
L 62.705575 99.122857 
L 64.937575 93.456813 
L 67.169575 88.396521 
L 69.847975 82.873814 
L 73.865575 75.159569 
L 79.222375 65.348092 
L 82.347175 60.041235 
L 85.025575 55.937726 
L 87.257575 52.910967 
L 89.489575 50.271553 
L 91.721575 48.02233 
L 93.953575 46.147933 
L 96.185575 44.616346 
L 98.417575 43.37551 
L 101.095975 42.162713 
L 109.131175 38.756603 
L 112.255975 37.070377 
L 121.630375 31.760693 
L 124.308775 30.635332 
L 126.540775 29.915708 
L 128.772775 29.396416 
L 131.451175 29.014446 
L 134.575975 28.821224 
L 142.164775 28.497313 
L 144.843175 28.116015 
L 147.967975 27.430493 
L 153.324775 25.943094 
L 157.342375 24.95054 
L 160.467175 24.42507 
L 163.145575 24.184421 
L 166.270375 24.135765 
L 170.287975 24.329906 
L 176.091175 24.623802 
L 179.215975 24.551127 
L 182.340775 24.257213 
L 186.804775 23.571285 
L 192.607975 22.697779 
L 196.179175 22.408934 
L 199.750375 22.374281 
L 203.767975 22.585783 
L 211.803175 23.104041 
L 215.374375 23.063312 
L 219.391975 22.761857 
L 230.105575 21.774698 
L 233.676775 21.736323 
L 238.140775 21.932775 
L 247.515175 22.47214 
L 251.532775 22.418903 
L 256.443175 22.101364 
L 264.031975 21.588046 
L 268.495975 21.539376 
L 273.406375 21.731636 
L 282.780775 22.176574 
L 287.244775 22.123035 
L 293.940775 21.764458 
L 300.190375 21.505764 
L 305.100775 21.535541 
L 312.689575 21.866772 
L 318.492775 22.027631 
L 323.849575 21.936897 
L 338.134375 21.513879 
L 344.383975 21.681894 
L 353.758375 21.938223 
L 360.007975 21.835988 
L 372.507175 21.541383 
L 379.649575 21.685622 
L 389.470375 21.88026 
L 396.612775 21.760758 
L 407.326375 21.573123 
L 415.361575 21.703714 
L 425.182375 21.837984 
L 434.556775 21.685456 
L 443.931175 21.608542 
L 468.929575 21.700443 
L 479.643175 21.634659 
L 493.481575 21.786364 
L 493.481575 21.786364 
" style="fill:none;stroke:#0000ff;stroke-linecap:square;"/>
   </g>
   <g id="line2d_2">
    <path clip-path="url(#pa327da971e)" d="M 47.974375 155.611493 
L 50.652775 143.350379 
L 53.331175 132.214483 
L 56.009575 122.100544 
L 58.687975 112.914774 
L 61.366375 104.571995 
L 64.044775 96.994844 
L 66.723175 90.113058 
L 69.401575 83.862823 
L 72.079975 78.186181 
L 74.758375 73.030492 
L 77.436775 68.347947 
L 80.115175 64.095125 
L 82.793575 60.232591 
L 85.471975 56.724527 
L 88.150375 53.538402 
L 91.275175 50.18889 
L 94.399975 47.195183 
L 97.524775 44.519486 
L 100.649575 42.128017 
L 103.774375 39.990584 
L 107.345575 37.824386 
L 110.916775 35.919107 
L 114.934375 34.048568 
L 118.951975 32.429521 
L 123.415975 30.88457 
L 127.879975 29.568619 
L 132.790375 28.345209 
L 138.147175 27.235161 
L 143.950375 26.250863 
L 150.646375 25.343061 
L 158.235175 24.546596 
L 167.163175 23.849383 
L 177.430375 23.280709 
L 189.929575 22.819597 
L 205.999975 22.462845 
L 227.873575 22.214389 
L 262.692775 22.065945 
L 341.259175 22.009984 
L 493.481575 22.006466 
L 493.481575 22.006466 
" style="fill:none;stroke:#008000;stroke-linecap:square;"/>
   </g>
   <g id="line2d_3">
    <defs>
     <path d="M 0 3 
C 0.795609 3 1.55874 2.683901 2.12132 2.12132 
C 2.683901 1.55874 3 0.795609 3 0 
C 3 -0.795609 2.683901 -1.55874 2.12132 -2.12132 
C 1.55874 -2.683901 0.795609 -3 0 -3 
C -0.795609 -3 -1.55874 -2.683901 -2.12132 -2.12132 
C -2.683901 -1.55874 -3 -0.795609 -3 0 
C -3 0.795609 -2.683901 1.55874 -2.12132 2.12132 
C -1.55874 2.683901 -0.795609 3 0 3 
z
" id="m2dc2274232" style="stroke:#000000;stroke-width:0.5;"/>
    </defs>
    <g clip-path="url(#pa327da971e)">
     <use style="fill:#ff0000;stroke:#000000;stroke-width:0.5;" x="75.651175" xlink:href="#m2dc2274232" y="72.1765783656"/>
    </g>
   </g>
   <g id="patch_3">
    <path d="M 47.974375 13.006875 
L 494.374375 13.006875 
" style="fill:none;stroke:#000000;stroke-linecap:square;stroke-linejoin:miter;"/>
   </g>
   <g id="patch_4">
    <path d="M 47.974375 170.097784 
L 47.974375 13.006875 
" style="fill:none;stroke:#000000;stroke-linecap:square;stroke-linejoin:miter;"/>
   </g>
   <g id="patch_5">
    <path d="M 494.374375 170.097784 
L 494.374375 13.006875 
" style="fill:none;stroke:#000000;stroke-linecap:square;stroke-linejoin:miter;"/>
   </g>
   <g id="patch_6">
    <path d="M 47.974375 170.097784 
L 494.374375 170.097784 
" style="fill:none;stroke:#000000;stroke-linecap:square;stroke-linejoin:miter;"/>
   </g>
   <g id="matplotlib.axis_1">
    <g id="xtick_1">
     <g id="line2d_4">
      <defs>
       <path d="M 0 0 
L 0 -4 
" id="mbaf0536de2" style="stroke:#000000;stroke-width:0.5;"/>
      </defs>
      <g>
       <use style="stroke:#000000;stroke-width:0.5;" x="47.974375" xlink:href="#mbaf0536de2" y="170.097784091"/>
      </g>
     </g>
     <g id="line2d_5">
      <defs>
       <path d="M 0 0 
L 0 4 
" id="mfdb00c5f20" style="stroke:#000000;stroke-width:0.5;"/>
      </defs>
      <g>
       <use style="stroke:#000000;stroke-width:0.5;" x="47.974375" xlink:href="#mfdb00c5f20" y="13.006875"/>
      </g>
     </g>
     <g id="text_1">
      <!-- 0 -->
      <defs>
       <path d="M 31.78125 66.40625 
Q 24.171875 66.40625 20.328125 58.90625 
Q 16.5 51.421875 16.5 36.375 
Q 16.5 21.390625 20.328125 13.890625 
Q 24.171875 6.390625 31.78125 6.390625 
Q 39.453125 6.390625 43.28125 13.890625 
Q 47.125 21.390625 47.125 36.375 
Q 47.125 51.421875 43.28125 58.90625 
Q 39.453125 66.40625 31.78125 66.40625 
M 31.78125 74.21875 
Q 44.046875 74.21875 50.515625 64.515625 
Q 56.984375 54.828125 56.984375 36.375 
Q 56.984375 17.96875 50.515625 8.265625 
Q 44.046875 -1.421875 31.78125 -1.421875 
Q 19.53125 -1.421875 13.0625 8.265625 
Q 6.59375 17.96875 6.59375 36.375 
Q 6.59375 54.828125 13.0625 64.515625 
Q 19.53125 74.21875 31.78125 74.21875 
" id="BitstreamVeraSans-Roman-30"/>
      </defs>
      <g transform="translate(44.156875 183.215909091)scale(0.12 -0.12)">
       <use xlink:href="#BitstreamVeraSans-Roman-30"/>
      </g>
     </g>
    </g>
    <g id="xtick_2">
     <g id="line2d_6">
      <g>
       <use style="stroke:#000000;stroke-width:0.5;" x="137.254375" xlink:href="#mbaf0536de2" y="170.097784091"/>
      </g>
     </g>
     <g id="line2d_7">
      <g>
       <use style="stroke:#000000;stroke-width:0.5;" x="137.254375" xlink:href="#mfdb00c5f20" y="13.006875"/>
      </g>
     </g>
     <g id="text_2">
      <!-- 2 -->
      <defs>
       <path d="M 19.1875 8.296875 
L 53.609375 8.296875 
L 53.609375 0 
L 7.328125 0 
L 7.328125 8.296875 
Q 12.9375 14.109375 22.625 23.890625 
Q 32.328125 33.6875 34.8125 36.53125 
Q 39.546875 41.84375 41.421875 45.53125 
Q 43.3125 49.21875 43.3125 52.78125 
Q 43.3125 58.59375 39.234375 62.25 
Q 35.15625 65.921875 28.609375 65.921875 
Q 23.96875 65.921875 18.8125 64.3125 
Q 13.671875 62.703125 7.8125 59.421875 
L 7.8125 69.390625 
Q 13.765625 71.78125 18.9375 73 
Q 24.125 74.21875 28.421875 74.21875 
Q 39.75 74.21875 46.484375 68.546875 
Q 53.21875 62.890625 53.21875 53.421875 
Q 53.21875 48.921875 51.53125 44.890625 
Q 49.859375 40.875 45.40625 35.40625 
Q 44.1875 33.984375 37.640625 27.21875 
Q 31.109375 20.453125 19.1875 8.296875 
" id="BitstreamVeraSans-Roman-32"/>
      </defs>
      <g transform="translate(133.436875 183.215909091)scale(0.12 -0.12)">
       <use xlink:href="#BitstreamVeraSans-Roman-32"/>
      </g>
     </g>
    </g>
    <g id="xtick_3">
     <g id="line2d_8">
      <g>
       <use style="stroke:#000000;stroke-width:0.5;" x="226.534375" xlink:href="#mbaf0536de2" y="170.097784091"/>
      </g>
     </g>
     <g id="line2d_9">
      <g>
       <use style="stroke:#000000;stroke-width:0.5;" x="226.534375" xlink:href="#mfdb00c5f20" y="13.006875"/>
      </g>
     </g>
     <g id="text_3">
      <!-- 4 -->
      <defs>
       <path d="M 37.796875 64.3125 
L 12.890625 25.390625 
L 37.796875 25.390625 
z
M 35.203125 72.90625 
L 47.609375 72.90625 
L 47.609375 25.390625 
L 58.015625 25.390625 
L 58.015625 17.1875 
L 47.609375 17.1875 
L 47.609375 0 
L 37.796875 0 
L 37.796875 17.1875 
L 4.890625 17.1875 
L 4.890625 26.703125 
z
" id="BitstreamVeraSans-Roman-34"/>
      </defs>
      <g transform="translate(222.716875 183.215909091)scale(0.12 -0.12)">
       <use xlink:href="#BitstreamVeraSans-Roman-34"/>
      </g>
     </g>
    </g>
    <g id="xtick_4">
     <g id="line2d_10">
      <g>
       <use style="stroke:#000000;stroke-width:0.5;" x="315.814375" xlink:href="#mbaf0536de2" y="170.097784091"/>
      </g>
     </g>
     <g id="line2d_11">
      <g>
       <use style="stroke:#000000;stroke-width:0.5;" x="315.814375" xlink:href="#mfdb00c5f20" y="13.006875"/>
      </g>
     </g>
     <g id="text_4">
      <!-- 6 -->
      <defs>
       <path d="M 33.015625 40.375 
Q 26.375 40.375 22.484375 35.828125 
Q 18.609375 31.296875 18.609375 23.390625 
Q 18.609375 15.53125 22.484375 10.953125 
Q 26.375 6.390625 33.015625 6.390625 
Q 39.65625 6.390625 43.53125 10.953125 
Q 47.40625 15.53125 47.40625 23.390625 
Q 47.40625 31.296875 43.53125 35.828125 
Q 39.65625 40.375 33.015625 40.375 
M 52.59375 71.296875 
L 52.59375 62.3125 
Q 48.875 64.0625 45.09375 64.984375 
Q 41.3125 65.921875 37.59375 65.921875 
Q 27.828125 65.921875 22.671875 59.328125 
Q 17.53125 52.734375 16.796875 39.40625 
Q 19.671875 43.65625 24.015625 45.921875 
Q 28.375 48.1875 33.59375 48.1875 
Q 44.578125 48.1875 50.953125 41.515625 
Q 57.328125 34.859375 57.328125 23.390625 
Q 57.328125 12.15625 50.6875 5.359375 
Q 44.046875 -1.421875 33.015625 -1.421875 
Q 20.359375 -1.421875 13.671875 8.265625 
Q 6.984375 17.96875 6.984375 36.375 
Q 6.984375 53.65625 15.1875 63.9375 
Q 23.390625 74.21875 37.203125 74.21875 
Q 40.921875 74.21875 44.703125 73.484375 
Q 48.484375 72.75 52.59375 71.296875 
" id="BitstreamVeraSans-Roman-36"/>
      </defs>
      <g transform="translate(311.996875 183.215909091)scale(0.12 -0.12)">
       <use xlink:href="#BitstreamVeraSans-Roman-36"/>
      </g>
     </g>
    </g>
    <g id="xtick_5">
     <g id="line2d_12">
      <g>
       <use style="stroke:#000000;stroke-width:0.5;" x="405.094375" xlink:href="#mbaf0536de2" y="170.097784091"/>
      </g>
     </g>
     <g id="line2d_13">
      <g>
       <use style="stroke:#000000;stroke-width:0.5;" x="405.094375" xlink:href="#mfdb00c5f20" y="13.006875"/>
      </g>
     </g>
     <g id="text_5">
      <!-- 8 -->
      <defs>
       <path d="M 31.78125 34.625 
Q 24.75 34.625 20.71875 30.859375 
Q 16.703125 27.09375 16.703125 20.515625 
Q 16.703125 13.921875 20.71875 10.15625 
Q 24.75 6.390625 31.78125 6.390625 
Q 38.8125 6.390625 42.859375 10.171875 
Q 46.921875 13.96875 46.921875 20.515625 
Q 46.921875 27.09375 42.890625 30.859375 
Q 38.875 34.625 31.78125 34.625 
M 21.921875 38.8125 
Q 15.578125 40.375 12.03125 44.71875 
Q 8.5 49.078125 8.5 55.328125 
Q 8.5 64.0625 14.71875 69.140625 
Q 20.953125 74.21875 31.78125 74.21875 
Q 42.671875 74.21875 48.875 69.140625 
Q 55.078125 64.0625 55.078125 55.328125 
Q 55.078125 49.078125 51.53125 44.71875 
Q 48 40.375 41.703125 38.8125 
Q 48.828125 37.15625 52.796875 32.3125 
Q 56.78125 27.484375 56.78125 20.515625 
Q 56.78125 9.90625 50.3125 4.234375 
Q 43.84375 -1.421875 31.78125 -1.421875 
Q 19.734375 -1.421875 13.25 4.234375 
Q 6.78125 9.90625 6.78125 20.515625 
Q 6.78125 27.484375 10.78125 32.3125 
Q 14.796875 37.15625 21.921875 38.8125 
M 18.3125 54.390625 
Q 18.3125 48.734375 21.84375 45.5625 
Q 25.390625 42.390625 31.78125 42.390625 
Q 38.140625 42.390625 41.71875 45.5625 
Q 45.3125 48.734375 45.3125 54.390625 
Q 45.3125 60.0625 41.71875 63.234375 
Q 38.140625 66.40625 31.78125 66.40625 
Q 25.390625 66.40625 21.84375 63.234375 
Q 18.3125 60.0625 18.3125 54.390625 
" id="BitstreamVeraSans-Roman-38"/>
      </defs>
      <g transform="translate(401.276875 183.215909091)scale(0.12 -0.12)">
       <use xlink:href="#BitstreamVeraSans-Roman-38"/>
      </g>
     </g>
    </g>
    <g id="xtick_6">
     <g id="line2d_14">
      <g>
       <use style="stroke:#000000;stroke-width:0.5;" x="494.374375" xlink:href="#mbaf0536de2" y="170.097784091"/>
      </g>
     </g>
     <g id="line2d_15">
      <g>
       <use style="stroke:#000000;stroke-width:0.5;" x="494.374375" xlink:href="#mfdb00c5f20" y="13.006875"/>
      </g>
     </g>
     <g id="text_6">
      <!-- 10 -->
      <defs>
       <path d="M 12.40625 8.296875 
L 28.515625 8.296875 
L 28.515625 63.921875 
L 10.984375 60.40625 
L 10.984375 69.390625 
L 28.421875 72.90625 
L 38.28125 72.90625 
L 38.28125 8.296875 
L 54.390625 8.296875 
L 54.390625 0 
L 12.40625 0 
z
" id="BitstreamVeraSans-Roman-31"/>
      </defs>
      <g transform="translate(486.739375 183.215909091)scale(0.12 -0.12)">
       <use xlink:href="#BitstreamVeraSans-Roman-31"/>
       <use x="63.623046875" xlink:href="#BitstreamVeraSans-Roman-30"/>
      </g>
     </g>
    </g>
   </g>
   <g id="matplotlib.axis_2">
    <g id="ytick_1">
     <g id="line2d_16">
      <defs>
       <path d="M 0 0 
L 4 0 
" id="ma6bdc3fc27" style="stroke:#000000;stroke-width:0.5;"/>
      </defs>
      <g>
       <use style="stroke:#000000;stroke-width:0.5;" x="47.974375" xlink:href="#ma6bdc3fc27" y="170.097784091"/>
      </g>
     </g>
     <g id="line2d_17">
      <defs>
       <path d="M 0 0 
L -4 0 
" id="m5bd08f1b05" style="stroke:#000000;stroke-width:0.5;"/>
      </defs>
      <g>
       <use style="stroke:#000000;stroke-width:0.5;" x="494.374375" xlink:href="#m5bd08f1b05" y="170.097784091"/>
      </g>
     </g>
     <g id="text_7">
      <!-- 0.92 -->
      <defs>
       <path d="M 10.984375 1.515625 
L 10.984375 10.5 
Q 14.703125 8.734375 18.5 7.8125 
Q 22.3125 6.890625 25.984375 6.890625 
Q 35.75 6.890625 40.890625 13.453125 
Q 46.046875 20.015625 46.78125 33.40625 
Q 43.953125 29.203125 39.59375 26.953125 
Q 35.25 24.703125 29.984375 24.703125 
Q 19.046875 24.703125 12.671875 31.3125 
Q 6.296875 37.9375 6.296875 49.421875 
Q 6.296875 60.640625 12.9375 67.421875 
Q 19.578125 74.21875 30.609375 74.21875 
Q 43.265625 74.21875 49.921875 64.515625 
Q 56.59375 54.828125 56.59375 36.375 
Q 56.59375 19.140625 48.40625 8.859375 
Q 40.234375 -1.421875 26.421875 -1.421875 
Q 22.703125 -1.421875 18.890625 -0.6875 
Q 15.09375 0.046875 10.984375 1.515625 
M 30.609375 32.421875 
Q 37.25 32.421875 41.125 36.953125 
Q 45.015625 41.5 45.015625 49.421875 
Q 45.015625 57.28125 41.125 61.84375 
Q 37.25 66.40625 30.609375 66.40625 
Q 23.96875 66.40625 20.09375 61.84375 
Q 16.21875 57.28125 16.21875 49.421875 
Q 16.21875 41.5 20.09375 36.953125 
Q 23.96875 32.421875 30.609375 32.421875 
" id="BitstreamVeraSans-Roman-39"/>
       <path d="M 10.6875 12.40625 
L 21 12.40625 
L 21 0 
L 10.6875 0 
z
" id="BitstreamVeraSans-Roman-2e"/>
      </defs>
      <g transform="translate(17.255625 173.409034091)scale(0.12 -0.12)">
       <use xlink:href="#BitstreamVeraSans-Roman-30"/>
       <use x="63.623046875" xlink:href="#BitstreamVeraSans-Roman-2e"/>
       <use x="95.41015625" xlink:href="#BitstreamVeraSans-Roman-39"/>
       <use x="159.033203125" xlink:href="#BitstreamVeraSans-Roman-32"/>
      </g>
     </g>
    </g>
    <g id="ytick_2">
     <g id="line2d_18">
      <g>
       <use style="stroke:#000000;stroke-width:0.5;" x="47.974375" xlink:href="#ma6bdc3fc27" y="138.679602273"/>
      </g>
     </g>
     <g id="line2d_19">
      <g>
       <use style="stroke:#000000;stroke-width:0.5;" x="494.374375" xlink:href="#m5bd08f1b05" y="138.679602273"/>
      </g>
     </g>
     <g id="text_8">
      <!-- 0.94 -->
      <g transform="translate(17.255625 141.990852273)scale(0.12 -0.12)">
       <use xlink:href="#BitstreamVeraSans-Roman-30"/>
       <use x="63.623046875" xlink:href="#BitstreamVeraSans-Roman-2e"/>
       <use x="95.41015625" xlink:href="#BitstreamVeraSans-Roman-39"/>
       <use x="159.033203125" xlink:href="#BitstreamVeraSans-Roman-34"/>
      </g>
     </g>
    </g>
    <g id="ytick_3">
     <g id="line2d_20">
      <g>
       <use style="stroke:#000000;stroke-width:0.5;" x="47.974375" xlink:href="#ma6bdc3fc27" y="107.261420455"/>
      </g>
     </g>
     <g id="line2d_21">
      <g>
       <use style="stroke:#000000;stroke-width:0.5;" x="494.374375" xlink:href="#m5bd08f1b05" y="107.261420455"/>
      </g>
     </g>
     <g id="text_9">
      <!-- 0.96 -->
      <g transform="translate(17.255625 110.572670455)scale(0.12 -0.12)">
       <use xlink:href="#BitstreamVeraSans-Roman-30"/>
       <use x="63.623046875" xlink:href="#BitstreamVeraSans-Roman-2e"/>
       <use x="95.41015625" xlink:href="#BitstreamVeraSans-Roman-39"/>
       <use x="159.033203125" xlink:href="#BitstreamVeraSans-Roman-36"/>
      </g>
     </g>
    </g>
    <g id="ytick_4">
     <g id="line2d_22">
      <g>
       <use style="stroke:#000000;stroke-width:0.5;" x="47.974375" xlink:href="#ma6bdc3fc27" y="75.8432386364"/>
      </g>
     </g>
     <g id="line2d_23">
      <g>
       <use style="stroke:#000000;stroke-width:0.5;" x="494.374375" xlink:href="#m5bd08f1b05" y="75.8432386364"/>
      </g>
     </g>
     <g id="text_10">
      <!-- 0.98 -->
      <g transform="translate(17.255625 79.1544886364)scale(0.12 -0.12)">
       <use xlink:href="#BitstreamVeraSans-Roman-30"/>
       <use x="63.623046875" xlink:href="#BitstreamVeraSans-Roman-2e"/>
       <use x="95.41015625" xlink:href="#BitstreamVeraSans-Roman-39"/>
       <use x="159.033203125" xlink:href="#BitstreamVeraSans-Roman-38"/>
      </g>
     </g>
    </g>
    <g id="ytick_5">
     <g id="line2d_24">
      <g>
       <use style="stroke:#000000;stroke-width:0.5;" x="47.974375" xlink:href="#ma6bdc3fc27" y="44.4250568182"/>
      </g>
     </g>
     <g id="line2d_25">
      <g>
       <use style="stroke:#000000;stroke-width:0.5;" x="494.374375" xlink:href="#m5bd08f1b05" y="44.4250568182"/>
      </g>
     </g>
     <g id="text_11">
      <!-- 1.00 -->
      <g transform="translate(17.255625 47.7363068182)scale(0.12 -0.12)">
       <use xlink:href="#BitstreamVeraSans-Roman-31"/>
       <use x="63.623046875" xlink:href="#BitstreamVeraSans-Roman-2e"/>
       <use x="95.41015625" xlink:href="#BitstreamVeraSans-Roman-30"/>
       <use x="159.033203125" xlink:href="#BitstreamVeraSans-Roman-30"/>
      </g>
     </g>
    </g>
    <g id="ytick_6">
     <g id="line2d_26">
      <g>
       <use style="stroke:#000000;stroke-width:0.5;" x="47.974375" xlink:href="#ma6bdc3fc27" y="13.006875"/>
      </g>
     </g>
     <g id="line2d_27">
      <g>
       <use style="stroke:#000000;stroke-width:0.5;" x="494.374375" xlink:href="#m5bd08f1b05" y="13.006875"/>
      </g>
     </g>
     <g id="text_12">
      <!-- 1.02 -->
      <g transform="translate(17.255625 16.318125)scale(0.12 -0.12)">
       <use xlink:href="#BitstreamVeraSans-Roman-31"/>
       <use x="63.623046875" xlink:href="#BitstreamVeraSans-Roman-2e"/>
       <use x="95.41015625" xlink:href="#BitstreamVeraSans-Roman-30"/>
       <use x="159.033203125" xlink:href="#BitstreamVeraSans-Roman-32"/>
      </g>
     </g>
    </g>
   </g>
  </g>
  <g id="axes_2">
   <g id="patch_7">
    <path d="M 47.974375 358.606875 
L 494.374375 358.606875 
L 494.374375 201.515966 
L 47.974375 201.515966 
z
" style="fill:#ffffff;"/>
   </g>
   <g id="line2d_28">
    <path clip-path="url(#pa6f6e6cd70)" d="M 47.974375 280.06142 
L 47.974375 280.06142 
L 48.420775 277.195863 
L 50.652775 250.131545 
L 51.991975 236.679775 
L 52.884775 229.417421 
L 53.777575 223.743006 
L 54.670375 219.794552 
L 55.116775 218.497359 
L 55.563175 217.661237 
L 56.009575 217.289595 
L 56.455975 217.382753 
L 56.902375 217.937957 
L 57.348775 218.94943 
L 57.795175 220.408422 
L 58.687975 224.61958 
L 59.580775 230.445288 
L 60.473575 237.718414 
L 61.812775 250.888721 
L 63.598375 271.380009 
L 67.615975 318.952752 
L 68.955175 331.99845 
L 69.847975 339.230421 
L 70.740775 345.083157 
L 71.633575 349.420195 
L 72.079975 350.988456 
L 72.526375 352.144672 
L 72.972775 352.883204 
L 73.419175 353.201053 
L 73.865575 353.097852 
L 74.311975 352.575855 
L 74.758375 351.639907 
L 75.204775 350.297395 
L 76.097575 346.434592 
L 76.990375 341.094874 
L 77.883175 334.421238 
L 79.222375 322.299767 
L 81.007975 303.316399 
L 85.471975 253.908828 
L 86.811175 241.924633 
L 87.703975 235.325349 
L 88.596775 230.0222 
L 89.489575 226.134654 
L 89.935975 224.748932 
L 90.382375 223.744903 
L 90.828775 223.126704 
L 91.275175 222.895961 
L 91.721575 223.051788 
L 92.167975 223.590803 
L 92.614375 224.507158 
L 93.060775 225.792594 
L 93.953575 229.425986 
L 94.846375 234.379447 
L 95.739175 240.508561 
L 97.078375 251.521203 
L 98.863975 268.519392 
L 102.435175 303.61029 
L 103.774375 314.834155 
L 105.113575 323.988132 
L 106.006375 328.696859 
L 106.899175 332.163232 
L 107.345575 333.406602 
L 107.791975 334.314889 
L 108.238375 334.884375 
L 108.684775 335.113499 
L 109.131175 335.002849 
L 109.577575 334.555142 
L 110.023975 333.775194 
L 110.470375 332.669873 
L 111.363175 329.520501 
L 112.255975 325.200622 
L 113.148775 319.831956 
L 114.487975 310.138946 
L 116.273575 295.076081 
L 120.291175 259.966548 
L 121.630375 250.24382 
L 122.523175 244.811675 
L 123.415975 240.372414 
L 124.308775 237.02758 
L 125.201575 234.849578 
L 125.647975 234.212381 
L 126.094375 233.880045 
L 126.540775 233.852837 
L 126.987175 234.129043 
L 127.433575 234.704994 
L 127.879975 235.575097 
L 128.772775 238.166075 
L 129.665575 241.82088 
L 130.558375 246.431904 
L 131.897575 254.849352 
L 133.683175 268.044038 
L 137.700775 299.023653 
L 139.039975 307.641345 
L 140.379175 314.563074 
L 141.271975 318.052582 
L 142.164775 320.549206 
L 142.611175 321.408402 
L 143.057575 322.002593 
L 143.503975 322.329708 
L 143.950375 322.38938 
L 144.396775 322.18293 
L 144.843175 321.71335 
L 145.289575 320.985275 
L 146.182375 318.78011 
L 147.075175 315.635531 
L 147.967975 311.642359 
L 149.307175 304.30918 
L 151.092775 292.732983 
L 155.556775 262.456222 
L 156.895975 255.115026 
L 157.788775 251.078626 
L 158.681575 247.841661 
L 159.574375 245.477261 
L 160.467175 244.035366 
L 160.913575 243.669346 
L 161.359975 243.541654 
L 161.806375 243.651641 
L 162.252775 243.997122 
L 162.699175 244.574405 
L 163.591975 246.402251 
L 164.484775 249.076891 
L 165.377575 252.518926 
L 166.716775 258.90162 
L 168.502375 269.05631 
L 172.966375 295.822663 
L 174.305575 302.353654 
L 175.198375 305.959002 
L 176.091175 308.865474 
L 176.983975 311.008471 
L 177.876775 312.343625 
L 178.323175 312.700136 
L 178.769575 312.847599 
L 179.215975 312.786427 
L 179.662375 312.518348 
L 180.108775 312.046393 
L 181.001575 310.509279 
L 181.894375 308.224029 
L 182.787175 305.257805 
L 184.126375 299.718183 
L 185.911975 290.838418 
L 190.822375 265.037319 
L 192.161575 259.521036 
L 193.054375 256.540784 
L 193.947175 254.201388 
L 194.839975 252.554868 
L 195.286375 252.002697 
L 195.732775 251.634891 
L 196.179175 251.452682 
L 196.625575 251.456093 
L 197.071975 251.643953 
L 197.518375 252.013904 
L 198.411175 253.284879 
L 199.303975 255.22752 
L 200.196775 257.783572 
L 201.535975 262.60385 
L 202.875175 268.336882 
L 205.553575 281.131636 
L 207.785575 291.379191 
L 209.124775 296.619287 
L 210.463975 300.821032 
L 211.356775 302.934359 
L 212.249575 304.441124 
L 213.142375 305.310983 
L 213.588775 305.502105 
L 214.035175 305.530123 
L 214.481575 305.395911 
L 214.927975 305.101367 
L 215.820775 304.043871 
L 216.713575 302.392424 
L 217.606375 300.196366 
L 218.945575 296.02098 
L 220.284775 291.02039 
L 222.963175 279.76414 
L 225.195175 270.654307 
L 226.534375 265.952197 
L 227.873575 262.145214 
L 228.766375 260.206446 
L 229.659175 258.799808 
L 230.551975 257.954732 
L 230.998375 257.747957 
L 231.444775 257.685917 
L 231.891175 257.768112 
L 232.337575 257.993115 
L 233.230375 258.861306 
L 234.123175 260.261255 
L 235.015975 262.150445 
L 236.355175 265.77934 
L 237.694375 270.157564 
L 239.926375 278.3897 
L 242.604775 288.160302 
L 243.943975 292.352285 
L 245.283175 295.765742 
L 246.175975 297.518133 
L 247.068775 298.804742 
L 247.961575 299.598924 
L 248.407975 299.806533 
L 248.854375 299.886875 
L 249.300775 299.84026 
L 249.747175 299.667799 
L 250.639975 298.953747 
L 251.532775 297.76914 
L 252.425575 296.149993 
L 253.318375 294.142863 
L 254.657575 290.52892 
L 256.443175 284.93326 
L 260.460775 271.988775 
L 261.799975 268.438394 
L 263.139175 265.618115 
L 264.031975 264.218543 
L 264.924775 263.24109 
L 265.817575 262.705519 
L 266.710375 262.62005 
L 267.603175 262.981276 
L 268.495975 263.774392 
L 269.388775 264.973704 
L 270.281575 266.543434 
L 271.620775 269.492354 
L 273.406375 274.241298 
L 278.316775 288.104968 
L 279.655975 291.081136 
L 280.548775 292.693502 
L 281.441575 293.963988 
L 282.334375 294.864707 
L 283.227175 295.377535 
L 284.119975 295.494428 
L 285.012775 295.21749 
L 285.905575 294.558781 
L 286.798375 293.539883 
L 287.691175 292.191231 
L 289.030375 289.635907 
L 290.815975 285.487657 
L 296.172775 272.268464 
L 297.511975 269.778679 
L 298.404775 268.463992 
L 299.297575 267.461644 
L 300.190375 266.793358 
L 301.083175 266.472057 
L 301.975975 266.501635 
L 302.868775 266.87696 
L 303.761575 267.584118 
L 304.654375 268.600875 
L 305.547175 269.897349 
L 306.886375 272.284733 
L 308.671975 276.059786 
L 313.135975 285.933148 
L 314.475175 288.324118 
L 315.814375 290.199003 
L 316.707175 291.112946 
L 317.599975 291.734006 
L 318.492775 292.050151 
L 319.385575 292.057247 
L 320.278375 291.75906 
L 321.171175 291.167054 
L 322.063975 290.300003 
L 323.403175 288.541198 
L 324.742375 286.332913 
L 326.527975 282.923383 
L 330.545575 275.070119 
L 331.884775 272.926323 
L 333.223975 271.229571 
L 334.116775 270.391762 
L 335.009575 269.811063 
L 335.902375 269.499097 
L 336.795175 269.460478 
L 337.687975 269.692776 
L 338.580775 270.186669 
L 339.473575 270.926257 
L 340.812775 272.446732 
L 342.151975 274.372964 
L 343.937575 277.366846 
L 347.955175 284.323838 
L 349.294375 286.240417 
L 350.633575 287.768523 
L 351.526375 288.531026 
L 352.419175 289.0682 
L 353.311975 289.369261 
L 354.204775 289.429568 
L 355.097575 289.250656 
L 355.990375 288.840116 
L 356.883175 288.211327 
L 358.222375 286.901282 
L 359.561575 285.226471 
L 361.347175 282.60454 
L 365.811175 275.842304 
L 367.150375 274.228929 
L 368.489575 272.978352 
L 369.382375 272.379111 
L 370.275175 271.983262 
L 371.167975 271.798366 
L 372.060775 271.826504 
L 372.953575 272.064289 
L 373.846375 272.503021 
L 375.185575 273.506595 
L 376.524775 274.865116 
L 378.310375 277.080868 
L 383.667175 284.185551 
L 385.006375 285.532519 
L 386.345575 286.542189 
L 387.238375 287.001773 
L 388.131175 287.278792 
L 389.023975 287.368524 
L 389.916775 287.271069 
L 390.809575 286.991284 
L 391.702375 286.5386 
L 393.041575 285.566437 
L 394.380775 284.299065 
L 396.166375 282.285981 
L 401.076775 276.524627 
L 402.415975 275.314212 
L 403.755175 274.397162 
L 405.094375 273.820304 
L 405.987175 273.638717 
L 406.879975 273.623155 
L 407.772775 273.771934 
L 409.111975 274.289327 
L 410.451175 275.126144 
L 411.790375 276.228602 
L 413.575975 277.992823 
L 418.486375 283.096969 
L 419.825575 284.182196 
L 421.164775 285.01202 
L 422.503975 285.544046 
L 423.843175 285.753647 
L 425.182375 285.635019 
L 426.521575 285.201141 
L 427.860775 284.482678 
L 429.199975 283.525907 
L 430.985575 281.982811 
L 436.342375 277.117492 
L 437.681575 276.212436 
L 439.020775 275.543807 
L 440.359975 275.145314 
L 441.699175 275.034623 
L 443.038375 275.212648 
L 444.377575 275.6638 
L 445.716775 276.357195 
L 447.502375 277.580695 
L 450.180775 279.779646 
L 453.305575 282.284618 
L 455.091175 283.406863 
L 456.430375 284.013522 
L 457.769575 284.383498 
L 459.108775 284.500217 
L 460.447975 284.361836 
L 461.787175 283.98107 
L 463.126375 283.384182 
L 464.911975 282.319352 
L 467.590375 280.387234 
L 470.715175 278.16385 
L 472.500775 277.156845 
L 473.839975 276.605933 
L 475.179175 276.262377 
L 476.518375 276.141877 
L 477.857575 276.247116 
L 479.196775 276.567844 
L 480.535975 277.081703 
L 482.321575 278.009044 
L 484.999975 279.707588 
L 488.124775 281.680415 
L 489.910375 282.582687 
L 491.695975 283.208575 
L 493.035175 283.461654 
L 493.481575 283.5021 
L 493.481575 283.5021 
" style="fill:none;stroke:#0000ff;stroke-linecap:square;"/>
   </g>
   <g id="patch_8">
    <path d="M 47.974375 201.515966 
L 494.374375 201.515966 
" style="fill:none;stroke:#000000;stroke-linecap:square;stroke-linejoin:miter;"/>
   </g>
   <g id="patch_9">
    <path d="M 47.974375 358.606875 
L 47.974375 201.515966 
" style="fill:none;stroke:#000000;stroke-linecap:square;stroke-linejoin:miter;"/>
   </g>
   <g id="patch_10">
    <path d="M 494.374375 358.606875 
L 494.374375 201.515966 
" style="fill:none;stroke:#000000;stroke-linecap:square;stroke-linejoin:miter;"/>
   </g>
   <g id="patch_11">
    <path d="M 47.974375 358.606875 
L 494.374375 358.606875 
" style="fill:none;stroke:#000000;stroke-linecap:square;stroke-linejoin:miter;"/>
   </g>
   <g id="matplotlib.axis_3">
    <g id="xtick_7">
     <g id="line2d_29">
      <g>
       <use style="stroke:#000000;stroke-width:0.5;" x="47.974375" xlink:href="#mbaf0536de2" y="358.606875"/>
      </g>
     </g>
     <g id="line2d_30">
      <g>
       <use style="stroke:#000000;stroke-width:0.5;" x="47.974375" xlink:href="#mfdb00c5f20" y="201.515965909"/>
      </g>
     </g>
     <g id="text_13">
      <!-- 0 -->
      <g transform="translate(44.156875 371.725)scale(0.12 -0.12)">
       <use xlink:href="#BitstreamVeraSans-Roman-30"/>
      </g>
     </g>
    </g>
    <g id="xtick_8">
     <g id="line2d_31">
      <g>
       <use style="stroke:#000000;stroke-width:0.5;" x="137.254375" xlink:href="#mbaf0536de2" y="358.606875"/>
      </g>
     </g>
     <g id="line2d_32">
      <g>
       <use style="stroke:#000000;stroke-width:0.5;" x="137.254375" xlink:href="#mfdb00c5f20" y="201.515965909"/>
      </g>
     </g>
     <g id="text_14">
      <!-- 2 -->
      <g transform="translate(133.436875 371.725)scale(0.12 -0.12)">
       <use xlink:href="#BitstreamVeraSans-Roman-32"/>
      </g>
     </g>
    </g>
    <g id="xtick_9">
     <g id="line2d_33">
      <g>
       <use style="stroke:#000000;stroke-width:0.5;" x="226.534375" xlink:href="#mbaf0536de2" y="358.606875"/>
      </g>
     </g>
     <g id="line2d_34">
      <g>
       <use style="stroke:#000000;stroke-width:0.5;" x="226.534375" xlink:href="#mfdb00c5f20" y="201.515965909"/>
      </g>
     </g>
     <g id="text_15">
      <!-- 4 -->
      <g transform="translate(222.716875 371.725)scale(0.12 -0.12)">
       <use xlink:href="#BitstreamVeraSans-Roman-34"/>
      </g>
     </g>
    </g>
    <g id="xtick_10">
     <g id="line2d_35">
      <g>
       <use style="stroke:#000000;stroke-width:0.5;" x="315.814375" xlink:href="#mbaf0536de2" y="358.606875"/>
      </g>
     </g>
     <g id="line2d_36">
      <g>
       <use style="stroke:#000000;stroke-width:0.5;" x="315.814375" xlink:href="#mfdb00c5f20" y="201.515965909"/>
      </g>
     </g>
     <g id="text_16">
      <!-- 6 -->
      <g transform="translate(311.996875 371.725)scale(0.12 -0.12)">
       <use xlink:href="#BitstreamVeraSans-Roman-36"/>
      </g>
     </g>
    </g>
    <g id="xtick_11">
     <g id="line2d_37">
      <g>
       <use style="stroke:#000000;stroke-width:0.5;" x="405.094375" xlink:href="#mbaf0536de2" y="358.606875"/>
      </g>
     </g>
     <g id="line2d_38">
      <g>
       <use style="stroke:#000000;stroke-width:0.5;" x="405.094375" xlink:href="#mfdb00c5f20" y="201.515965909"/>
      </g>
     </g>
     <g id="text_17">
      <!-- 8 -->
      <g transform="translate(401.276875 371.725)scale(0.12 -0.12)">
       <use xlink:href="#BitstreamVeraSans-Roman-38"/>
      </g>
     </g>
    </g>
    <g id="xtick_12">
     <g id="line2d_39">
      <g>
       <use style="stroke:#000000;stroke-width:0.5;" x="494.374375" xlink:href="#mbaf0536de2" y="358.606875"/>
      </g>
     </g>
     <g id="line2d_40">
      <g>
       <use style="stroke:#000000;stroke-width:0.5;" x="494.374375" xlink:href="#mfdb00c5f20" y="201.515965909"/>
      </g>
     </g>
     <g id="text_18">
      <!-- 10 -->
      <g transform="translate(486.739375 371.725)scale(0.12 -0.12)">
       <use xlink:href="#BitstreamVeraSans-Roman-31"/>
       <use x="63.623046875" xlink:href="#BitstreamVeraSans-Roman-30"/>
      </g>
     </g>
    </g>
   </g>
   <g id="matplotlib.axis_4">
    <g id="ytick_7">
     <g id="line2d_41">
      <g>
       <use style="stroke:#000000;stroke-width:0.5;" x="47.974375" xlink:href="#ma6bdc3fc27" y="358.606875"/>
      </g>
     </g>
     <g id="line2d_42">
      <g>
       <use style="stroke:#000000;stroke-width:0.5;" x="494.374375" xlink:href="#m5bd08f1b05" y="358.606875"/>
      </g>
     </g>
     <g id="text_19">
      <!-- −0.04 -->
      <defs>
       <path d="M 10.59375 35.5 
L 73.1875 35.5 
L 73.1875 27.203125 
L 10.59375 27.203125 
z
" id="BitstreamVeraSans-Roman-2212"/>
      </defs>
      <g transform="translate(7.2 361.918125)scale(0.12 -0.12)">
       <use xlink:href="#BitstreamVeraSans-Roman-2212"/>
       <use x="83.7890625" xlink:href="#BitstreamVeraSans-Roman-30"/>
       <use x="147.412109375" xlink:href="#BitstreamVeraSans-Roman-2e"/>
       <use x="179.19921875" xlink:href="#BitstreamVeraSans-Roman-30"/>
       <use x="242.822265625" xlink:href="#BitstreamVeraSans-Roman-34"/>
      </g>
     </g>
    </g>
    <g id="ytick_8">
     <g id="line2d_43">
      <g>
       <use style="stroke:#000000;stroke-width:0.5;" x="47.974375" xlink:href="#ma6bdc3fc27" y="338.970511364"/>
      </g>
     </g>
     <g id="line2d_44">
      <g>
       <use style="stroke:#000000;stroke-width:0.5;" x="494.374375" xlink:href="#m5bd08f1b05" y="338.970511364"/>
      </g>
     </g>
     <g id="text_20">
      <!-- −0.03 -->
      <defs>
       <path d="M 40.578125 39.3125 
Q 47.65625 37.796875 51.625 33 
Q 55.609375 28.21875 55.609375 21.1875 
Q 55.609375 10.40625 48.1875 4.484375 
Q 40.765625 -1.421875 27.09375 -1.421875 
Q 22.515625 -1.421875 17.65625 -0.515625 
Q 12.796875 0.390625 7.625 2.203125 
L 7.625 11.71875 
Q 11.71875 9.328125 16.59375 8.109375 
Q 21.484375 6.890625 26.8125 6.890625 
Q 36.078125 6.890625 40.9375 10.546875 
Q 45.796875 14.203125 45.796875 21.1875 
Q 45.796875 27.640625 41.28125 31.265625 
Q 36.765625 34.90625 28.71875 34.90625 
L 20.21875 34.90625 
L 20.21875 43.015625 
L 29.109375 43.015625 
Q 36.375 43.015625 40.234375 45.921875 
Q 44.09375 48.828125 44.09375 54.296875 
Q 44.09375 59.90625 40.109375 62.90625 
Q 36.140625 65.921875 28.71875 65.921875 
Q 24.65625 65.921875 20.015625 65.03125 
Q 15.375 64.15625 9.8125 62.3125 
L 9.8125 71.09375 
Q 15.4375 72.65625 20.34375 73.4375 
Q 25.25 74.21875 29.59375 74.21875 
Q 40.828125 74.21875 47.359375 69.109375 
Q 53.90625 64.015625 53.90625 55.328125 
Q 53.90625 49.265625 50.4375 45.09375 
Q 46.96875 40.921875 40.578125 39.3125 
" id="BitstreamVeraSans-Roman-33"/>
      </defs>
      <g transform="translate(7.2 342.281761364)scale(0.12 -0.12)">
       <use xlink:href="#BitstreamVeraSans-Roman-2212"/>
       <use x="83.7890625" xlink:href="#BitstreamVeraSans-Roman-30"/>
       <use x="147.412109375" xlink:href="#BitstreamVeraSans-Roman-2e"/>
       <use x="179.19921875" xlink:href="#BitstreamVeraSans-Roman-30"/>
       <use x="242.822265625" xlink:href="#BitstreamVeraSans-Roman-33"/>
      </g>
     </g>
    </g>
    <g id="ytick_9">
     <g id="line2d_45">
      <g>
       <use style="stroke:#000000;stroke-width:0.5;" x="47.974375" xlink:href="#ma6bdc3fc27" y="319.334147727"/>
      </g>
     </g>
     <g id="line2d_46">
      <g>
       <use style="stroke:#000000;stroke-width:0.5;" x="494.374375" xlink:href="#m5bd08f1b05" y="319.334147727"/>
      </g>
     </g>
     <g id="text_21">
      <!-- −0.02 -->
      <g transform="translate(7.2 322.645397727)scale(0.12 -0.12)">
       <use xlink:href="#BitstreamVeraSans-Roman-2212"/>
       <use x="83.7890625" xlink:href="#BitstreamVeraSans-Roman-30"/>
       <use x="147.412109375" xlink:href="#BitstreamVeraSans-Roman-2e"/>
       <use x="179.19921875" xlink:href="#BitstreamVeraSans-Roman-30"/>
       <use x="242.822265625" xlink:href="#BitstreamVeraSans-Roman-32"/>
      </g>
     </g>
    </g>
    <g id="ytick_10">
     <g id="line2d_47">
      <g>
       <use style="stroke:#000000;stroke-width:0.5;" x="47.974375" xlink:href="#ma6bdc3fc27" y="299.697784091"/>
      </g>
     </g>
     <g id="line2d_48">
      <g>
       <use style="stroke:#000000;stroke-width:0.5;" x="494.374375" xlink:href="#m5bd08f1b05" y="299.697784091"/>
      </g>
     </g>
     <g id="text_22">
      <!-- −0.01 -->
      <g transform="translate(7.2 303.009034091)scale(0.12 -0.12)">
       <use xlink:href="#BitstreamVeraSans-Roman-2212"/>
       <use x="83.7890625" xlink:href="#BitstreamVeraSans-Roman-30"/>
       <use x="147.412109375" xlink:href="#BitstreamVeraSans-Roman-2e"/>
       <use x="179.19921875" xlink:href="#BitstreamVeraSans-Roman-30"/>
       <use x="242.822265625" xlink:href="#BitstreamVeraSans-Roman-31"/>
      </g>
     </g>
    </g>
    <g id="ytick_11">
     <g id="line2d_49">
      <g>
       <use style="stroke:#000000;stroke-width:0.5;" x="47.974375" xlink:href="#ma6bdc3fc27" y="280.061420455"/>
      </g>
     </g>
     <g id="line2d_50">
      <g>
       <use style="stroke:#000000;stroke-width:0.5;" x="494.374375" xlink:href="#m5bd08f1b05" y="280.061420455"/>
      </g>
     </g>
     <g id="text_23">
      <!-- 0.00 -->
      <g transform="translate(17.255625 283.372670455)scale(0.12 -0.12)">
       <use xlink:href="#BitstreamVeraSans-Roman-30"/>
       <use x="63.623046875" xlink:href="#BitstreamVeraSans-Roman-2e"/>
       <use x="95.41015625" xlink:href="#BitstreamVeraSans-Roman-30"/>
       <use x="159.033203125" xlink:href="#BitstreamVeraSans-Roman-30"/>
      </g>
     </g>
    </g>
    <g id="ytick_12">
     <g id="line2d_51">
      <g>
       <use style="stroke:#000000;stroke-width:0.5;" x="47.974375" xlink:href="#ma6bdc3fc27" y="260.425056818"/>
      </g>
     </g>
     <g id="line2d_52">
      <g>
       <use style="stroke:#000000;stroke-width:0.5;" x="494.374375" xlink:href="#m5bd08f1b05" y="260.425056818"/>
      </g>
     </g>
     <g id="text_24">
      <!-- 0.01 -->
      <g transform="translate(17.255625 263.736306818)scale(0.12 -0.12)">
       <use xlink:href="#BitstreamVeraSans-Roman-30"/>
       <use x="63.623046875" xlink:href="#BitstreamVeraSans-Roman-2e"/>
       <use x="95.41015625" xlink:href="#BitstreamVeraSans-Roman-30"/>
       <use x="159.033203125" xlink:href="#BitstreamVeraSans-Roman-31"/>
      </g>
     </g>
    </g>
    <g id="ytick_13">
     <g id="line2d_53">
      <g>
       <use style="stroke:#000000;stroke-width:0.5;" x="47.974375" xlink:href="#ma6bdc3fc27" y="240.788693182"/>
      </g>
     </g>
     <g id="line2d_54">
      <g>
       <use style="stroke:#000000;stroke-width:0.5;" x="494.374375" xlink:href="#m5bd08f1b05" y="240.788693182"/>
      </g>
     </g>
     <g id="text_25">
      <!-- 0.02 -->
      <g transform="translate(17.255625 244.099943182)scale(0.12 -0.12)">
       <use xlink:href="#BitstreamVeraSans-Roman-30"/>
       <use x="63.623046875" xlink:href="#BitstreamVeraSans-Roman-2e"/>
       <use x="95.41015625" xlink:href="#BitstreamVeraSans-Roman-30"/>
       <use x="159.033203125" xlink:href="#BitstreamVeraSans-Roman-32"/>
      </g>
     </g>
    </g>
    <g id="ytick_14">
     <g id="line2d_55">
      <g>
       <use style="stroke:#000000;stroke-width:0.5;" x="47.974375" xlink:href="#ma6bdc3fc27" y="221.152329545"/>
      </g>
     </g>
     <g id="line2d_56">
      <g>
       <use style="stroke:#000000;stroke-width:0.5;" x="494.374375" xlink:href="#m5bd08f1b05" y="221.152329545"/>
      </g>
     </g>
     <g id="text_26">
      <!-- 0.03 -->
      <g transform="translate(17.255625 224.463579545)scale(0.12 -0.12)">
       <use xlink:href="#BitstreamVeraSans-Roman-30"/>
       <use x="63.623046875" xlink:href="#BitstreamVeraSans-Roman-2e"/>
       <use x="95.41015625" xlink:href="#BitstreamVeraSans-Roman-30"/>
       <use x="159.033203125" xlink:href="#BitstreamVeraSans-Roman-33"/>
      </g>
     </g>
    </g>
    <g id="ytick_15">
     <g id="line2d_57">
      <g>
       <use style="stroke:#000000;stroke-width:0.5;" x="47.974375" xlink:href="#ma6bdc3fc27" y="201.515965909"/>
      </g>
     </g>
     <g id="line2d_58">
      <g>
       <use style="stroke:#000000;stroke-width:0.5;" x="494.374375" xlink:href="#m5bd08f1b05" y="201.515965909"/>
      </g>
     </g>
     <g id="text_27">
      <!-- 0.04 -->
      <g transform="translate(17.255625 204.827215909)scale(0.12 -0.12)">
       <use xlink:href="#BitstreamVeraSans-Roman-30"/>
       <use x="63.623046875" xlink:href="#BitstreamVeraSans-Roman-2e"/>
       <use x="95.41015625" xlink:href="#BitstreamVeraSans-Roman-30"/>
       <use x="159.033203125" xlink:href="#BitstreamVeraSans-Roman-34"/>
      </g>
     </g>
    </g>
   </g>
  </g>
 </g>
 <defs>
  <clipPath id="pa327da971e">
   <rect height="157.090909091" width="446.4" x="47.974375" y="13.006875"/>
  </clipPath>
  <clipPath id="pa6f6e6cd70">
   <rect height="157.090909091" width="446.4" x="47.974375" y="201.515965909"/>
  </clipPath>
 </defs>
</svg>
