<?xml version="1.0" encoding="utf-8" standalone="no"?>
<!DOCTYPE svg PUBLIC "-//W3C//DTD SVG 1.1//EN"
  "http://www.w3.org/Graphics/SVG/1.1/DTD/svg11.dtd">
<!-- Created with matplotlib (http://matplotlib.org/) -->
<svg height="398pt" version="1.1" viewBox="0 0 486 398" width="486pt" xmlns="http://www.w3.org/2000/svg" xmlns:xlink="http://www.w3.org/1999/xlink">
 <defs>
  <style type="text/css">
*{stroke-linecap:butt;stroke-linejoin:round;stroke-miterlimit:100000;}
  </style>
 </defs>
 <g id="figure_1">
  <g id="patch_1">
   <path d="M 0 398.034375 
L 486.308125 398.034375 
L 486.308125 0 
L 0 0 
z
" style="fill:none;opacity:0;"/>
  </g>
  <g id="axes_1">
   <g id="patch_2">
    <path d="M 28.890625 358.606875 
L 475.290625 358.606875 
L 475.290625 13.006875 
L 28.890625 13.006875 
z
" style="fill:#ffffff;"/>
   </g>
   <g id="line2d_1">
    <path clip-path="url(#p7969c2711d)" d="M 28.890625 185.806875 
L 33.363571 167.973011 
L 36.047338 158.007032 
L 38.731106 149.029817 
L 40.520284 143.753795 
L 42.309463 139.143634 
L 44.098641 135.272327 
L 45.887819 132.201174 
L 46.782409 130.981369 
L 47.676998 129.978803 
L 48.571587 129.197448 
L 49.466176 128.640401 
L 50.360765 128.309868 
L 51.255354 128.20716 
L 52.149944 128.332684 
L 53.044533 128.685942 
L 53.939122 129.265534 
L 54.833711 130.069164 
L 55.7283 131.093647 
L 56.62289 132.334924 
L 58.412068 135.447349 
L 60.201246 139.357155 
L 61.990425 144.002436 
L 63.779603 149.30964 
L 65.568781 155.194733 
L 68.252549 164.899935 
L 71.830906 178.933197 
L 78.987619 207.387951 
L 81.671387 217.030941 
L 83.460565 222.862298 
L 85.249743 228.106928 
L 87.038922 232.681788 
L 88.8281 236.514441 
L 90.617278 239.544201 
L 91.511867 240.742486 
L 92.406457 241.723095 
L 93.301046 242.482144 
L 94.195635 243.016624 
L 95.090224 243.324418 
L 95.984813 243.404307 
L 96.879403 243.255972 
L 97.773992 242.880003 
L 98.668581 242.277889 
L 99.56317 241.452016 
L 100.457759 240.405657 
L 101.352348 239.142956 
L 103.141527 235.989384 
L 104.930705 232.041233 
L 106.719884 227.361016 
L 108.509062 222.022841 
L 110.29824 216.111229 
L 112.982008 206.375497 
L 116.560364 192.320374 
L 122.822489 167.284808 
L 125.506256 157.374043 
L 128.190024 148.474555 
L 129.979202 143.261524 
L 131.768381 138.722148 
L 133.557559 134.928301 
L 135.346737 131.940054 
L 136.241326 130.763337 
L 137.135916 129.804723 
L 138.030505 129.06801 
L 138.925094 128.556118 
L 139.819683 128.271075 
L 140.714272 128.214009 
L 141.608861 128.385149 
L 142.503451 128.783814 
L 143.39804 129.408426 
L 144.292629 130.256509 
L 145.187218 131.324704 
L 146.081807 132.608777 
L 147.870986 135.803373 
L 149.660164 139.789713 
L 151.449342 144.504679 
L 153.238521 149.873615 
L 155.027699 155.81151 
L 157.711467 165.577386 
L 161.289823 179.653813 
L 167.551948 204.671949 
L 170.235715 214.554517 
L 172.919483 223.414612 
L 174.708661 228.595836 
L 176.497839 233.09955 
L 178.287018 236.854441 
L 180.076196 239.801056 
L 180.970785 240.956159 
L 181.865374 241.892739 
L 182.759964 242.607086 
L 183.654553 243.09637 
L 184.549142 243.358652 
L 185.443731 243.392892 
L 186.33832 243.198955 
L 187.23291 242.777609 
L 188.127499 242.130524 
L 189.022088 241.260263 
L 189.916677 240.170276 
L 190.811266 238.864881 
L 192.600445 235.629389 
L 194.389623 231.605018 
L 196.178801 226.85549 
L 197.96798 221.456006 
L 200.651747 212.327618 
L 203.335515 202.255961 
L 207.808461 184.356481 
L 212.281407 166.599542 
L 214.965174 156.745562 
L 217.648942 147.925212 
L 219.43812 142.775999 
L 221.227298 138.308127 
L 223.016477 134.592341 
L 224.805655 131.687474 
L 225.700244 130.554032 
L 226.594833 129.639522 
L 227.489423 128.947568 
L 228.384012 128.480912 
L 229.278601 128.241403 
L 230.17319 128.22999 
L 231.067779 128.446717 
L 231.962368 128.890727 
L 232.856958 129.56026 
L 233.751547 130.452662 
L 234.646136 131.564399 
L 235.540725 132.891064 
L 237.329904 136.167324 
L 239.119082 140.229566 
L 240.90826 145.013469 
L 242.697439 150.443286 
L 245.381206 159.608567 
L 248.064974 169.705648 
L 252.53792 187.619759 
L 257.010865 205.355706 
L 259.694633 215.180707 
L 261.483811 221.170464 
L 263.27299 226.600281 
L 265.062168 231.384184 
L 266.851346 235.446426 
L 268.640525 238.722686 
L 269.535114 240.049351 
L 270.429703 241.161088 
L 271.324292 242.05349 
L 272.218882 242.723023 
L 273.113471 243.167033 
L 274.00806 243.38376 
L 274.902649 243.372347 
L 275.797238 243.132838 
L 276.691827 242.666182 
L 277.586417 241.974228 
L 278.481006 241.059718 
L 279.375595 239.926276 
L 280.270184 238.578393 
L 282.059362 235.261495 
L 283.848541 231.161543 
L 285.637719 226.343455 
L 287.426898 220.88352 
L 290.110665 211.68171 
L 292.794433 201.559604 
L 298.161968 180.014495 
L 301.740324 165.917321 
L 304.424092 156.121688 
L 306.21327 150.157744 
L 308.002449 144.75826 
L 309.791627 140.008732 
L 311.580805 135.984361 
L 313.369984 132.748869 
L 314.264573 131.443474 
L 315.159162 130.353487 
L 316.053751 129.483226 
L 316.94834 128.836141 
L 317.84293 128.414795 
L 318.737519 128.220858 
L 319.632108 128.255098 
L 320.526697 128.51738 
L 321.421286 129.006664 
L 322.315876 129.721011 
L 323.210465 130.657591 
L 324.105054 131.812694 
L 324.999643 133.181741 
L 326.788821 136.539146 
L 328.578 140.676646 
L 330.367178 145.528727 
L 332.156356 151.018565 
L 334.840124 160.256539 
L 337.523892 170.403267 
L 342.891427 191.959937 
L 346.469783 206.036364 
L 349.153551 215.80224 
L 350.942729 221.740135 
L 352.731908 227.109071 
L 354.521086 231.824037 
L 356.310264 235.810377 
L 358.099443 239.004973 
L 358.994032 240.289046 
L 359.888621 241.357241 
L 360.78321 242.205324 
L 361.677799 242.829936 
L 362.572389 243.228601 
L 363.466978 243.399741 
L 364.361567 243.342675 
L 365.256156 243.057632 
L 366.150745 242.54574 
L 367.045334 241.809027 
L 367.939924 240.850413 
L 368.834513 239.673696 
L 369.729102 238.283539 
L 371.51828 234.88576 
L 373.307459 230.710877 
L 375.096637 225.824994 
L 376.885815 220.305472 
L 379.569583 211.031699 
L 382.25335 200.860751 
L 387.620886 179.293376 
L 391.199242 165.238253 
L 393.88301 155.502521 
L 395.672188 149.590909 
L 397.461366 144.252734 
L 399.250545 139.572517 
L 401.039723 135.624366 
L 402.828902 132.470794 
L 403.723491 131.208093 
L 404.61808 130.161734 
L 405.512669 129.335861 
L 406.407258 128.733747 
L 407.301847 128.357778 
L 408.196437 128.209443 
L 409.091026 128.289332 
L 409.985615 128.597126 
L 410.880204 129.131606 
L 411.774793 129.890655 
L 412.669383 130.871264 
L 413.563972 132.069549 
L 415.35315 135.099309 
L 417.142328 138.931962 
L 418.931507 143.506822 
L 420.720685 148.751452 
L 422.509863 154.582809 
L 425.193631 164.225799 
L 428.771988 178.21367 
L 435.928701 206.713815 
L 438.612469 216.419017 
L 440.401647 222.30411 
L 442.190825 227.611314 
L 443.980004 232.256595 
L 445.769182 236.166401 
L 447.55836 239.278826 
L 448.45295 240.520103 
L 449.347539 241.544586 
L 450.242128 242.348216 
L 451.136717 242.927808 
L 452.031306 243.281066 
L 452.925896 243.40659 
L 453.820485 243.303882 
L 454.715074 242.973349 
L 455.609663 242.416302 
L 456.504252 241.634947 
L 457.398841 240.632381 
L 458.293431 239.412576 
L 460.082609 236.341423 
L 461.871787 232.470116 
L 463.660966 227.859955 
L 465.450144 222.583933 
L 467.239322 216.725592 
L 469.92309 207.051304 
L 473.501447 193.04046 
L 475.290625 185.806875 
L 475.290625 185.806875 
" style="fill:none;stroke:#0000ff;stroke-linecap:square;stroke-width:3.0;"/>
   </g>
   <g id="line2d_2">
    <path clip-path="url(#p7969c2711d)" d="M 28.890625 185.806875 
L 29.785214 177.104075 
L 30.679803 169.126658 
L 32.468982 155.338175 
L 34.25816 144.409221 
L 35.152749 140.001175 
L 36.047338 136.286158 
L 36.941928 133.253903 
L 37.836517 130.892636 
L 38.731106 129.189101 
L 39.625695 128.128543 
L 40.520284 127.694702 
L 41.414873 127.869841 
L 42.309463 128.634759 
L 43.204052 129.968829 
L 44.098641 131.850003 
L 44.99323 134.254939 
L 45.887819 137.158928 
L 46.782409 140.536076 
L 48.571587 148.600413 
L 50.360765 158.218586 
L 52.149944 169.146302 
L 54.833711 187.430295 
L 58.412068 213.937066 
L 63.779603 253.870709 
L 66.46337 272.019074 
L 68.252549 282.900943 
L 70.041727 292.565855 
L 71.830906 300.830236 
L 73.620084 307.535602 
L 74.514673 310.261546 
L 75.409262 312.550777 
L 76.303851 314.391459 
L 77.198441 315.773698 
L 78.09303 316.689526 
L 78.987619 317.132923 
L 79.882208 317.099879 
L 80.776797 316.588381 
L 81.671387 315.598411 
L 82.565976 314.131956 
L 83.460565 312.192981 
L 84.355154 309.787413 
L 85.249743 306.923103 
L 86.144332 303.609821 
L 87.933511 295.684602 
L 89.722689 286.126027 
L 91.511867 275.075289 
L 93.301046 262.698194 
L 95.984813 242.061394 
L 98.668581 219.576219 
L 109.403651 127.158702 
L 112.087419 107.484634 
L 113.876597 95.911816 
L 115.665775 85.787289 
L 117.454954 77.268961 
L 119.244132 70.489492 
L 120.138721 67.78594 
L 121.03331 65.55443 
L 121.9279 63.80358 
L 122.822489 62.540122 
L 123.717078 61.768846 
L 124.611667 61.492658 
L 125.506256 61.712463 
L 126.400845 62.427214 
L 127.295435 63.633929 
L 128.190024 65.327674 
L 129.084613 67.501594 
L 129.979202 70.146941 
L 130.873791 73.253108 
L 132.66297 80.796371 
L 134.452148 90.011036 
L 136.241326 100.750366 
L 138.030505 112.843588 
L 140.714272 133.096494 
L 143.39804 155.23661 
L 154.13311 246.479789 
L 156.816878 265.883977 
L 158.606056 277.279355 
L 160.395234 287.228405 
L 162.184413 295.573391 
L 163.973591 302.182042 
L 164.86818 304.801357 
L 165.762769 306.949537 
L 166.657358 308.618041 
L 167.551948 309.800244 
L 168.446537 310.49144 
L 169.341126 310.688886 
L 170.235715 310.391783 
L 171.130304 309.601292 
L 172.024894 308.320534 
L 172.919483 306.554576 
L 173.814072 304.310399 
L 174.708661 301.596878 
L 175.60325 298.424761 
L 177.392429 290.756746 
L 179.181607 281.42771 
L 180.970785 270.585257 
L 182.759964 258.401012 
L 185.443731 238.035795 
L 188.127499 215.813918 
L 198.862569 124.557009 
L 201.546336 105.221803 
L 203.335515 93.885729 
L 205.124693 84.005262 
L 206.913871 75.736858 
L 207.808461 72.249141 
L 208.70305 69.211411 
L 209.597639 66.635705 
L 210.492228 64.532237 
L 211.386817 62.909322 
L 212.281407 61.7734 
L 213.175996 61.128982 
L 214.070585 60.978605 
L 214.965174 61.322869 
L 215.859763 62.160407 
L 216.754352 63.487886 
L 217.648942 65.300069 
L 218.543531 67.589759 
L 219.43812 70.347874 
L 220.332709 73.56351 
L 222.121888 81.314582 
L 223.911066 90.720214 
L 225.700244 101.631471 
L 227.489423 113.875613 
L 230.17319 134.311797 
L 232.856958 156.579618 
L 242.697439 240.807049 
L 245.381206 260.87088 
L 247.170385 272.803937 
L 248.959563 283.359532 
L 250.748741 292.370512 
L 252.53792 299.694211 
L 253.432509 302.685978 
L 254.327098 305.214632 
L 255.221687 307.27015 
L 256.116276 308.844413 
L 257.010865 309.931133 
L 257.905455 310.526035 
L 258.800044 310.626754 
L 259.694633 310.232885 
L 260.589222 309.34599 
L 261.483811 307.969594 
L 262.378401 306.109155 
L 263.27299 303.772026 
L 264.167579 300.967477 
L 265.062168 297.706617 
L 266.851346 289.869423 
L 268.640525 280.384529 
L 270.429703 269.402113 
L 272.218882 257.096078 
L 274.902649 236.586439 
L 277.586417 214.270715 
L 287.426898 130.10295 
L 290.110665 110.117 
L 291.899843 98.248422 
L 293.689022 87.766234 
L 295.4782 78.836389 
L 297.267379 71.600288 
L 298.161968 68.654308 
L 299.056557 66.172518 
L 299.951146 64.164774 
L 300.845735 62.638965 
L 301.740324 61.601242 
L 302.634914 61.055679 
L 303.529503 61.004415 
L 304.424092 61.447678 
L 305.318681 62.383693 
L 306.21327 63.808756 
L 307.107859 65.717227 
L 308.002449 68.101536 
L 308.897038 70.952237 
L 309.791627 74.258037 
L 311.580805 82.180775 
L 313.369984 91.744295 
L 315.159162 102.797189 
L 316.94834 115.164443 
L 319.632108 135.746435 
L 323.210465 165.822615 
L 331.261767 235.094328 
L 333.945535 255.753017 
L 335.734713 268.18533 
L 337.523892 279.313305 
L 339.31307 288.96072 
L 341.102248 296.974825 
L 341.996837 300.328671 
L 342.891427 303.22873 
L 343.786016 305.663517 
L 344.680605 307.623389 
L 345.575194 309.100583 
L 346.469783 310.089235 
L 347.364372 310.585428 
L 348.258962 310.587207 
L 349.153551 310.094561 
L 350.04814 309.109441 
L 350.942729 307.63575 
L 351.837318 305.67933 
L 352.731908 303.247934 
L 353.626497 300.351186 
L 354.521086 297.000571 
L 356.310264 288.992594 
L 358.099443 279.350798 
L 359.888621 268.227845 
L 361.677799 255.799859 
L 364.361567 235.146284 
L 367.939924 205.01489 
L 375.991226 135.798308 
L 378.674994 115.211124 
L 380.464172 102.839514 
L 382.25335 91.78156 
L 384.042529 82.212381 
L 385.831707 74.283528 
L 386.726296 70.974492 
L 387.620886 68.120456 
L 388.515475 65.732746 
L 389.410064 63.820827 
L 390.304653 62.392264 
L 391.199242 61.452701 
L 392.093831 61.00589 
L 392.988421 61.05359 
L 393.88301 61.595601 
L 394.777599 62.629783 
L 395.672188 64.152037 
L 396.566777 66.15634 
L 397.461366 68.634741 
L 398.355956 71.577422 
L 399.250545 74.972722 
L 401.039723 83.065615 
L 402.828902 92.785301 
L 404.61808 103.97786 
L 406.407258 116.466067 
L 409.091026 137.190389 
L 412.669383 167.375818 
L 419.826096 229.25723 
L 422.509863 250.45831 
L 424.299042 263.358338 
L 426.08822 275.03044 
L 427.877399 285.289765 
L 429.666577 293.973915 
L 431.455755 300.945383 
L 432.350344 303.753257 
L 433.244934 306.093774 
L 434.139523 307.957661 
L 435.034112 309.337548 
L 435.928701 310.227972 
L 436.82329 310.625379 
L 437.71788 310.528207 
L 438.612469 309.936846 
L 439.507058 308.853637 
L 440.401647 307.282873 
L 441.296236 305.230775 
L 442.190825 302.705473 
L 443.085415 299.716975 
L 444.874593 292.399548 
L 446.663771 283.394362 
L 448.45295 272.844011 
L 450.242128 260.915531 
L 452.925896 240.857259 
L 455.609663 218.840929 
L 460.977198 172.10833 
L 464.555555 141.620585 
L 467.239322 120.484394 
L 469.028501 107.641062 
L 470.817679 96.035386 
L 472.606857 85.851143 
L 474.396036 77.249566 
L 475.290625 73.585864 
L 475.290625 73.585864 
" style="fill:none;stroke:#008000;stroke-linecap:square;stroke-width:3.0;"/>
   </g>
   <g id="patch_3">
    <path d="M 475.290625 358.606875 
L 475.290625 13.006875 
" style="fill:none;stroke:#000000;stroke-linecap:square;stroke-linejoin:miter;"/>
   </g>
   <g id="patch_4">
    <path d="M 28.890625 13.006875 
L 475.290625 13.006875 
" style="fill:none;stroke:#000000;stroke-linecap:square;stroke-linejoin:miter;"/>
   </g>
   <g id="patch_5">
    <path d="M 28.890625 358.606875 
L 475.290625 358.606875 
" style="fill:none;stroke:#000000;stroke-linecap:square;stroke-linejoin:miter;"/>
   </g>
   <g id="patch_6">
    <path d="M 28.890625 358.606875 
L 28.890625 13.006875 
" style="fill:none;stroke:#000000;stroke-linecap:square;stroke-linejoin:miter;"/>
   </g>
   <g id="matplotlib.axis_1">
    <g id="xtick_1">
     <g id="line2d_3">
      <path clip-path="url(#p7969c2711d)" d="M 28.890625 358.606875 
L 28.890625 13.006875 
" style="fill:none;stroke:#000000;stroke-dasharray:1.000000,3.000000;stroke-dashoffset:0.0;stroke-width:0.5;"/>
     </g>
     <g id="line2d_4">
      <defs>
       <path d="M 0 0 
L 0 -4 
" id="ma051023f5a" style="stroke:#000000;stroke-width:0.5;"/>
      </defs>
      <g>
       <use style="stroke:#000000;stroke-width:0.5;" x="28.890625" xlink:href="#ma051023f5a" y="358.606875"/>
      </g>
     </g>
     <g id="line2d_5">
      <defs>
       <path d="M 0 0 
L 0 4 
" id="m76406f09b0" style="stroke:#000000;stroke-width:0.5;"/>
      </defs>
      <g>
       <use style="stroke:#000000;stroke-width:0.5;" x="28.890625" xlink:href="#m76406f09b0" y="13.006875"/>
      </g>
     </g>
     <g id="text_1">
      <!-- 0 -->
      <defs>
       <path d="M 31.78125 66.40625 
Q 24.171875 66.40625 20.328125 58.90625 
Q 16.5 51.421875 16.5 36.375 
Q 16.5 21.390625 20.328125 13.890625 
Q 24.171875 6.390625 31.78125 6.390625 
Q 39.453125 6.390625 43.28125 13.890625 
Q 47.125 21.390625 47.125 36.375 
Q 47.125 51.421875 43.28125 58.90625 
Q 39.453125 66.40625 31.78125 66.40625 
M 31.78125 74.21875 
Q 44.046875 74.21875 50.515625 64.515625 
Q 56.984375 54.828125 56.984375 36.375 
Q 56.984375 17.96875 50.515625 8.265625 
Q 44.046875 -1.421875 31.78125 -1.421875 
Q 19.53125 -1.421875 13.0625 8.265625 
Q 6.59375 17.96875 6.59375 36.375 
Q 6.59375 54.828125 13.0625 64.515625 
Q 19.53125 74.21875 31.78125 74.21875 
" id="BitstreamVeraSans-Roman-30"/>
      </defs>
      <g transform="translate(25.073125 371.725)scale(0.12 -0.12)">
       <use xlink:href="#BitstreamVeraSans-Roman-30"/>
      </g>
     </g>
    </g>
    <g id="xtick_2">
     <g id="line2d_6">
      <path clip-path="url(#p7969c2711d)" d="M 118.170625 358.606875 
L 118.170625 13.006875 
" style="fill:none;stroke:#000000;stroke-dasharray:1.000000,3.000000;stroke-dashoffset:0.0;stroke-width:0.5;"/>
     </g>
     <g id="line2d_7">
      <g>
       <use style="stroke:#000000;stroke-width:0.5;" x="118.170625" xlink:href="#ma051023f5a" y="358.606875"/>
      </g>
     </g>
     <g id="line2d_8">
      <g>
       <use style="stroke:#000000;stroke-width:0.5;" x="118.170625" xlink:href="#m76406f09b0" y="13.006875"/>
      </g>
     </g>
     <g id="text_2">
      <!-- 1 -->
      <defs>
       <path d="M 12.40625 8.296875 
L 28.515625 8.296875 
L 28.515625 63.921875 
L 10.984375 60.40625 
L 10.984375 69.390625 
L 28.421875 72.90625 
L 38.28125 72.90625 
L 38.28125 8.296875 
L 54.390625 8.296875 
L 54.390625 0 
L 12.40625 0 
z
" id="BitstreamVeraSans-Roman-31"/>
      </defs>
      <g transform="translate(114.353125 371.725)scale(0.12 -0.12)">
       <use xlink:href="#BitstreamVeraSans-Roman-31"/>
      </g>
     </g>
    </g>
    <g id="xtick_3">
     <g id="line2d_9">
      <path clip-path="url(#p7969c2711d)" d="M 207.450625 358.606875 
L 207.450625 13.006875 
" style="fill:none;stroke:#000000;stroke-dasharray:1.000000,3.000000;stroke-dashoffset:0.0;stroke-width:0.5;"/>
     </g>
     <g id="line2d_10">
      <g>
       <use style="stroke:#000000;stroke-width:0.5;" x="207.450625" xlink:href="#ma051023f5a" y="358.606875"/>
      </g>
     </g>
     <g id="line2d_11">
      <g>
       <use style="stroke:#000000;stroke-width:0.5;" x="207.450625" xlink:href="#m76406f09b0" y="13.006875"/>
      </g>
     </g>
     <g id="text_3">
      <!-- 2 -->
      <defs>
       <path d="M 19.1875 8.296875 
L 53.609375 8.296875 
L 53.609375 0 
L 7.328125 0 
L 7.328125 8.296875 
Q 12.9375 14.109375 22.625 23.890625 
Q 32.328125 33.6875 34.8125 36.53125 
Q 39.546875 41.84375 41.421875 45.53125 
Q 43.3125 49.21875 43.3125 52.78125 
Q 43.3125 58.59375 39.234375 62.25 
Q 35.15625 65.921875 28.609375 65.921875 
Q 23.96875 65.921875 18.8125 64.3125 
Q 13.671875 62.703125 7.8125 59.421875 
L 7.8125 69.390625 
Q 13.765625 71.78125 18.9375 73 
Q 24.125 74.21875 28.421875 74.21875 
Q 39.75 74.21875 46.484375 68.546875 
Q 53.21875 62.890625 53.21875 53.421875 
Q 53.21875 48.921875 51.53125 44.890625 
Q 49.859375 40.875 45.40625 35.40625 
Q 44.1875 33.984375 37.640625 27.21875 
Q 31.109375 20.453125 19.1875 8.296875 
" id="BitstreamVeraSans-Roman-32"/>
      </defs>
      <g transform="translate(203.633125 371.725)scale(0.12 -0.12)">
       <use xlink:href="#BitstreamVeraSans-Roman-32"/>
      </g>
     </g>
    </g>
    <g id="xtick_4">
     <g id="line2d_12">
      <path clip-path="url(#p7969c2711d)" d="M 296.730625 358.606875 
L 296.730625 13.006875 
" style="fill:none;stroke:#000000;stroke-dasharray:1.000000,3.000000;stroke-dashoffset:0.0;stroke-width:0.5;"/>
     </g>
     <g id="line2d_13">
      <g>
       <use style="stroke:#000000;stroke-width:0.5;" x="296.730625" xlink:href="#ma051023f5a" y="358.606875"/>
      </g>
     </g>
     <g id="line2d_14">
      <g>
       <use style="stroke:#000000;stroke-width:0.5;" x="296.730625" xlink:href="#m76406f09b0" y="13.006875"/>
      </g>
     </g>
     <g id="text_4">
      <!-- 3 -->
      <defs>
       <path d="M 40.578125 39.3125 
Q 47.65625 37.796875 51.625 33 
Q 55.609375 28.21875 55.609375 21.1875 
Q 55.609375 10.40625 48.1875 4.484375 
Q 40.765625 -1.421875 27.09375 -1.421875 
Q 22.515625 -1.421875 17.65625 -0.515625 
Q 12.796875 0.390625 7.625 2.203125 
L 7.625 11.71875 
Q 11.71875 9.328125 16.59375 8.109375 
Q 21.484375 6.890625 26.8125 6.890625 
Q 36.078125 6.890625 40.9375 10.546875 
Q 45.796875 14.203125 45.796875 21.1875 
Q 45.796875 27.640625 41.28125 31.265625 
Q 36.765625 34.90625 28.71875 34.90625 
L 20.21875 34.90625 
L 20.21875 43.015625 
L 29.109375 43.015625 
Q 36.375 43.015625 40.234375 45.921875 
Q 44.09375 48.828125 44.09375 54.296875 
Q 44.09375 59.90625 40.109375 62.90625 
Q 36.140625 65.921875 28.71875 65.921875 
Q 24.65625 65.921875 20.015625 65.03125 
Q 15.375 64.15625 9.8125 62.3125 
L 9.8125 71.09375 
Q 15.4375 72.65625 20.34375 73.4375 
Q 25.25 74.21875 29.59375 74.21875 
Q 40.828125 74.21875 47.359375 69.109375 
Q 53.90625 64.015625 53.90625 55.328125 
Q 53.90625 49.265625 50.4375 45.09375 
Q 46.96875 40.921875 40.578125 39.3125 
" id="BitstreamVeraSans-Roman-33"/>
      </defs>
      <g transform="translate(292.913125 371.725)scale(0.12 -0.12)">
       <use xlink:href="#BitstreamVeraSans-Roman-33"/>
      </g>
     </g>
    </g>
    <g id="xtick_5">
     <g id="line2d_15">
      <path clip-path="url(#p7969c2711d)" d="M 386.010625 358.606875 
L 386.010625 13.006875 
" style="fill:none;stroke:#000000;stroke-dasharray:1.000000,3.000000;stroke-dashoffset:0.0;stroke-width:0.5;"/>
     </g>
     <g id="line2d_16">
      <g>
       <use style="stroke:#000000;stroke-width:0.5;" x="386.010625" xlink:href="#ma051023f5a" y="358.606875"/>
      </g>
     </g>
     <g id="line2d_17">
      <g>
       <use style="stroke:#000000;stroke-width:0.5;" x="386.010625" xlink:href="#m76406f09b0" y="13.006875"/>
      </g>
     </g>
     <g id="text_5">
      <!-- 4 -->
      <defs>
       <path d="M 37.796875 64.3125 
L 12.890625 25.390625 
L 37.796875 25.390625 
z
M 35.203125 72.90625 
L 47.609375 72.90625 
L 47.609375 25.390625 
L 58.015625 25.390625 
L 58.015625 17.1875 
L 47.609375 17.1875 
L 47.609375 0 
L 37.796875 0 
L 37.796875 17.1875 
L 4.890625 17.1875 
L 4.890625 26.703125 
z
" id="BitstreamVeraSans-Roman-34"/>
      </defs>
      <g transform="translate(382.193125 371.725)scale(0.12 -0.12)">
       <use xlink:href="#BitstreamVeraSans-Roman-34"/>
      </g>
     </g>
    </g>
    <g id="xtick_6">
     <g id="line2d_18">
      <path clip-path="url(#p7969c2711d)" d="M 475.290625 358.606875 
L 475.290625 13.006875 
" style="fill:none;stroke:#000000;stroke-dasharray:1.000000,3.000000;stroke-dashoffset:0.0;stroke-width:0.5;"/>
     </g>
     <g id="line2d_19">
      <g>
       <use style="stroke:#000000;stroke-width:0.5;" x="475.290625" xlink:href="#ma051023f5a" y="358.606875"/>
      </g>
     </g>
     <g id="line2d_20">
      <g>
       <use style="stroke:#000000;stroke-width:0.5;" x="475.290625" xlink:href="#m76406f09b0" y="13.006875"/>
      </g>
     </g>
     <g id="text_6">
      <!-- 5 -->
      <defs>
       <path d="M 10.796875 72.90625 
L 49.515625 72.90625 
L 49.515625 64.59375 
L 19.828125 64.59375 
L 19.828125 46.734375 
Q 21.96875 47.46875 24.109375 47.828125 
Q 26.265625 48.1875 28.421875 48.1875 
Q 40.625 48.1875 47.75 41.5 
Q 54.890625 34.8125 54.890625 23.390625 
Q 54.890625 11.625 47.5625 5.09375 
Q 40.234375 -1.421875 26.90625 -1.421875 
Q 22.3125 -1.421875 17.546875 -0.640625 
Q 12.796875 0.140625 7.71875 1.703125 
L 7.71875 11.625 
Q 12.109375 9.234375 16.796875 8.0625 
Q 21.484375 6.890625 26.703125 6.890625 
Q 35.15625 6.890625 40.078125 11.328125 
Q 45.015625 15.765625 45.015625 23.390625 
Q 45.015625 31 40.078125 35.4375 
Q 35.15625 39.890625 26.703125 39.890625 
Q 22.75 39.890625 18.8125 39.015625 
Q 14.890625 38.140625 10.796875 36.28125 
z
" id="BitstreamVeraSans-Roman-35"/>
      </defs>
      <g transform="translate(471.473125 371.725)scale(0.12 -0.12)">
       <use xlink:href="#BitstreamVeraSans-Roman-35"/>
      </g>
     </g>
    </g>
    <g id="text_7">
     <!-- Time (s) -->
     <defs>
      <path d="M 56.203125 29.59375 
L 56.203125 25.203125 
L 14.890625 25.203125 
Q 15.484375 15.921875 20.484375 11.0625 
Q 25.484375 6.203125 34.421875 6.203125 
Q 39.59375 6.203125 44.453125 7.46875 
Q 49.3125 8.734375 54.109375 11.28125 
L 54.109375 2.78125 
Q 49.265625 0.734375 44.1875 -0.34375 
Q 39.109375 -1.421875 33.890625 -1.421875 
Q 20.796875 -1.421875 13.15625 6.1875 
Q 5.515625 13.8125 5.515625 26.8125 
Q 5.515625 40.234375 12.765625 48.109375 
Q 20.015625 56 32.328125 56 
Q 43.359375 56 49.78125 48.890625 
Q 56.203125 41.796875 56.203125 29.59375 
M 47.21875 32.234375 
Q 47.125 39.59375 43.09375 43.984375 
Q 39.0625 48.390625 32.421875 48.390625 
Q 24.90625 48.390625 20.390625 44.140625 
Q 15.875 39.890625 15.1875 32.171875 
z
" id="BitstreamVeraSans-Roman-65"/>
      <path id="BitstreamVeraSans-Roman-20"/>
      <path d="M 8.015625 75.875 
L 15.828125 75.875 
Q 23.140625 64.359375 26.78125 53.3125 
Q 30.421875 42.28125 30.421875 31.390625 
Q 30.421875 20.453125 26.78125 9.375 
Q 23.140625 -1.703125 15.828125 -13.1875 
L 8.015625 -13.1875 
Q 14.5 -2 17.703125 9.0625 
Q 20.90625 20.125 20.90625 31.390625 
Q 20.90625 42.671875 17.703125 53.65625 
Q 14.5 64.65625 8.015625 75.875 
" id="BitstreamVeraSans-Roman-29"/>
      <path d="M 31 75.875 
Q 24.46875 64.65625 21.28125 53.65625 
Q 18.109375 42.671875 18.109375 31.390625 
Q 18.109375 20.125 21.3125 9.0625 
Q 24.515625 -2 31 -13.1875 
L 23.1875 -13.1875 
Q 15.875 -1.703125 12.234375 9.375 
Q 8.59375 20.453125 8.59375 31.390625 
Q 8.59375 42.28125 12.203125 53.3125 
Q 15.828125 64.359375 23.1875 75.875 
z
" id="BitstreamVeraSans-Roman-28"/>
      <path d="M 44.28125 53.078125 
L 44.28125 44.578125 
Q 40.484375 46.53125 36.375 47.5 
Q 32.28125 48.484375 27.875 48.484375 
Q 21.1875 48.484375 17.84375 46.4375 
Q 14.5 44.390625 14.5 40.28125 
Q 14.5 37.15625 16.890625 35.375 
Q 19.28125 33.59375 26.515625 31.984375 
L 29.59375 31.296875 
Q 39.15625 29.25 43.1875 25.515625 
Q 47.21875 21.78125 47.21875 15.09375 
Q 47.21875 7.46875 41.1875 3.015625 
Q 35.15625 -1.421875 24.609375 -1.421875 
Q 20.21875 -1.421875 15.453125 -0.5625 
Q 10.6875 0.296875 5.421875 2 
L 5.421875 11.28125 
Q 10.40625 8.6875 15.234375 7.390625 
Q 20.0625 6.109375 24.8125 6.109375 
Q 31.15625 6.109375 34.5625 8.28125 
Q 37.984375 10.453125 37.984375 14.40625 
Q 37.984375 18.0625 35.515625 20.015625 
Q 33.0625 21.96875 24.703125 23.78125 
L 21.578125 24.515625 
Q 13.234375 26.265625 9.515625 29.90625 
Q 5.8125 33.546875 5.8125 39.890625 
Q 5.8125 47.609375 11.28125 51.796875 
Q 16.75 56 26.8125 56 
Q 31.78125 56 36.171875 55.265625 
Q 40.578125 54.546875 44.28125 53.078125 
" id="BitstreamVeraSans-Roman-73"/>
      <path d="M -0.296875 72.90625 
L 61.375 72.90625 
L 61.375 64.59375 
L 35.5 64.59375 
L 35.5 0 
L 25.59375 0 
L 25.59375 64.59375 
L -0.296875 64.59375 
z
" id="BitstreamVeraSans-Roman-54"/>
      <path d="M 9.421875 54.6875 
L 18.40625 54.6875 
L 18.40625 0 
L 9.421875 0 
z
M 9.421875 75.984375 
L 18.40625 75.984375 
L 18.40625 64.59375 
L 9.421875 64.59375 
z
" id="BitstreamVeraSans-Roman-69"/>
      <path d="M 52 44.1875 
Q 55.375 50.25 60.0625 53.125 
Q 64.75 56 71.09375 56 
Q 79.640625 56 84.28125 50.015625 
Q 88.921875 44.046875 88.921875 33.015625 
L 88.921875 0 
L 79.890625 0 
L 79.890625 32.71875 
Q 79.890625 40.578125 77.09375 44.375 
Q 74.3125 48.1875 68.609375 48.1875 
Q 61.625 48.1875 57.5625 43.546875 
Q 53.515625 38.921875 53.515625 30.90625 
L 53.515625 0 
L 44.484375 0 
L 44.484375 32.71875 
Q 44.484375 40.625 41.703125 44.40625 
Q 38.921875 48.1875 33.109375 48.1875 
Q 26.21875 48.1875 22.15625 43.53125 
Q 18.109375 38.875 18.109375 30.90625 
L 18.109375 0 
L 9.078125 0 
L 9.078125 54.6875 
L 18.109375 54.6875 
L 18.109375 46.1875 
Q 21.1875 51.21875 25.484375 53.609375 
Q 29.78125 56 35.6875 56 
Q 41.65625 56 45.828125 52.96875 
Q 50 49.953125 52 44.1875 
" id="BitstreamVeraSans-Roman-6d"/>
     </defs>
     <g transform="translate(227.51125 388.33875)scale(0.12 -0.12)">
      <use xlink:href="#BitstreamVeraSans-Roman-54"/>
      <use x="61.037109375" xlink:href="#BitstreamVeraSans-Roman-69"/>
      <use x="88.8203125" xlink:href="#BitstreamVeraSans-Roman-6d"/>
      <use x="186.232421875" xlink:href="#BitstreamVeraSans-Roman-65"/>
      <use x="247.755859375" xlink:href="#BitstreamVeraSans-Roman-20"/>
      <use x="279.54296875" xlink:href="#BitstreamVeraSans-Roman-28"/>
      <use x="318.556640625" xlink:href="#BitstreamVeraSans-Roman-73"/>
      <use x="370.65625" xlink:href="#BitstreamVeraSans-Roman-29"/>
     </g>
    </g>
   </g>
   <g id="matplotlib.axis_2">
    <g id="ytick_1">
     <g id="line2d_21">
      <path clip-path="url(#p7969c2711d)" d="M 28.890625 358.606875 
L 475.290625 358.606875 
" style="fill:none;stroke:#000000;stroke-dasharray:1.000000,3.000000;stroke-dashoffset:0.0;stroke-width:0.5;"/>
     </g>
     <g id="line2d_22">
      <defs>
       <path d="M 0 0 
L 4 0 
" id="mb45708da7c" style="stroke:#000000;stroke-width:0.5;"/>
      </defs>
      <g>
       <use style="stroke:#000000;stroke-width:0.5;" x="28.890625" xlink:href="#mb45708da7c" y="358.606875"/>
      </g>
     </g>
     <g id="line2d_23">
      <defs>
       <path d="M 0 0 
L -4 0 
" id="m3e2d4dee9b" style="stroke:#000000;stroke-width:0.5;"/>
      </defs>
      <g>
       <use style="stroke:#000000;stroke-width:0.5;" x="475.290625" xlink:href="#m3e2d4dee9b" y="358.606875"/>
      </g>
     </g>
     <g id="text_8">
      <!-- −3 -->
      <defs>
       <path d="M 10.59375 35.5 
L 73.1875 35.5 
L 73.1875 27.203125 
L 10.59375 27.203125 
z
" id="BitstreamVeraSans-Roman-2212"/>
      </defs>
      <g transform="translate(7.2 361.918125)scale(0.12 -0.12)">
       <use xlink:href="#BitstreamVeraSans-Roman-2212"/>
       <use x="83.7890625" xlink:href="#BitstreamVeraSans-Roman-33"/>
      </g>
     </g>
    </g>
    <g id="ytick_2">
     <g id="line2d_24">
      <path clip-path="url(#p7969c2711d)" d="M 28.890625 301.006875 
L 475.290625 301.006875 
" style="fill:none;stroke:#000000;stroke-dasharray:1.000000,3.000000;stroke-dashoffset:0.0;stroke-width:0.5;"/>
     </g>
     <g id="line2d_25">
      <g>
       <use style="stroke:#000000;stroke-width:0.5;" x="28.890625" xlink:href="#mb45708da7c" y="301.006875"/>
      </g>
     </g>
     <g id="line2d_26">
      <g>
       <use style="stroke:#000000;stroke-width:0.5;" x="475.290625" xlink:href="#m3e2d4dee9b" y="301.006875"/>
      </g>
     </g>
     <g id="text_9">
      <!-- −2 -->
      <g transform="translate(7.2 304.318125)scale(0.12 -0.12)">
       <use xlink:href="#BitstreamVeraSans-Roman-2212"/>
       <use x="83.7890625" xlink:href="#BitstreamVeraSans-Roman-32"/>
      </g>
     </g>
    </g>
    <g id="ytick_3">
     <g id="line2d_27">
      <path clip-path="url(#p7969c2711d)" d="M 28.890625 243.406875 
L 475.290625 243.406875 
" style="fill:none;stroke:#000000;stroke-dasharray:1.000000,3.000000;stroke-dashoffset:0.0;stroke-width:0.5;"/>
     </g>
     <g id="line2d_28">
      <g>
       <use style="stroke:#000000;stroke-width:0.5;" x="28.890625" xlink:href="#mb45708da7c" y="243.406875"/>
      </g>
     </g>
     <g id="line2d_29">
      <g>
       <use style="stroke:#000000;stroke-width:0.5;" x="475.290625" xlink:href="#m3e2d4dee9b" y="243.406875"/>
      </g>
     </g>
     <g id="text_10">
      <!-- −1 -->
      <g transform="translate(7.2 246.718125)scale(0.12 -0.12)">
       <use xlink:href="#BitstreamVeraSans-Roman-2212"/>
       <use x="83.7890625" xlink:href="#BitstreamVeraSans-Roman-31"/>
      </g>
     </g>
    </g>
    <g id="ytick_4">
     <g id="line2d_30">
      <path clip-path="url(#p7969c2711d)" d="M 28.890625 185.806875 
L 475.290625 185.806875 
" style="fill:none;stroke:#000000;stroke-dasharray:1.000000,3.000000;stroke-dashoffset:0.0;stroke-width:0.5;"/>
     </g>
     <g id="line2d_31">
      <g>
       <use style="stroke:#000000;stroke-width:0.5;" x="28.890625" xlink:href="#mb45708da7c" y="185.806875"/>
      </g>
     </g>
     <g id="line2d_32">
      <g>
       <use style="stroke:#000000;stroke-width:0.5;" x="475.290625" xlink:href="#m3e2d4dee9b" y="185.806875"/>
      </g>
     </g>
     <g id="text_11">
      <!-- 0 -->
      <g transform="translate(17.255625 189.118125)scale(0.12 -0.12)">
       <use xlink:href="#BitstreamVeraSans-Roman-30"/>
      </g>
     </g>
    </g>
    <g id="ytick_5">
     <g id="line2d_33">
      <path clip-path="url(#p7969c2711d)" d="M 28.890625 128.206875 
L 475.290625 128.206875 
" style="fill:none;stroke:#000000;stroke-dasharray:1.000000,3.000000;stroke-dashoffset:0.0;stroke-width:0.5;"/>
     </g>
     <g id="line2d_34">
      <g>
       <use style="stroke:#000000;stroke-width:0.5;" x="28.890625" xlink:href="#mb45708da7c" y="128.206875"/>
      </g>
     </g>
     <g id="line2d_35">
      <g>
       <use style="stroke:#000000;stroke-width:0.5;" x="475.290625" xlink:href="#m3e2d4dee9b" y="128.206875"/>
      </g>
     </g>
     <g id="text_12">
      <!-- 1 -->
      <g transform="translate(17.255625 131.518125)scale(0.12 -0.12)">
       <use xlink:href="#BitstreamVeraSans-Roman-31"/>
      </g>
     </g>
    </g>
    <g id="ytick_6">
     <g id="line2d_36">
      <path clip-path="url(#p7969c2711d)" d="M 28.890625 70.606875 
L 475.290625 70.606875 
" style="fill:none;stroke:#000000;stroke-dasharray:1.000000,3.000000;stroke-dashoffset:0.0;stroke-width:0.5;"/>
     </g>
     <g id="line2d_37">
      <g>
       <use style="stroke:#000000;stroke-width:0.5;" x="28.890625" xlink:href="#mb45708da7c" y="70.606875"/>
      </g>
     </g>
     <g id="line2d_38">
      <g>
       <use style="stroke:#000000;stroke-width:0.5;" x="475.290625" xlink:href="#m3e2d4dee9b" y="70.606875"/>
      </g>
     </g>
     <g id="text_13">
      <!-- 2 -->
      <g transform="translate(17.255625 73.918125)scale(0.12 -0.12)">
       <use xlink:href="#BitstreamVeraSans-Roman-32"/>
      </g>
     </g>
    </g>
    <g id="ytick_7">
     <g id="line2d_39">
      <path clip-path="url(#p7969c2711d)" d="M 28.890625 13.006875 
L 475.290625 13.006875 
" style="fill:none;stroke:#000000;stroke-dasharray:1.000000,3.000000;stroke-dashoffset:0.0;stroke-width:0.5;"/>
     </g>
     <g id="line2d_40">
      <g>
       <use style="stroke:#000000;stroke-width:0.5;" x="28.890625" xlink:href="#mb45708da7c" y="13.006875"/>
      </g>
     </g>
     <g id="line2d_41">
      <g>
       <use style="stroke:#000000;stroke-width:0.5;" x="475.290625" xlink:href="#m3e2d4dee9b" y="13.006875"/>
      </g>
     </g>
     <g id="text_14">
      <!-- 3 -->
      <g transform="translate(17.255625 16.318125)scale(0.12 -0.12)">
       <use xlink:href="#BitstreamVeraSans-Roman-33"/>
      </g>
     </g>
    </g>
   </g>
   <g id="legend_1">
    <g id="patch_7">
     <path d="M 407.124625 66.799875 
L 468.090625 66.799875 
L 468.090625 20.206875 
L 407.124625 20.206875 
z
" style="fill:#ffffff;stroke:#000000;stroke-linejoin:miter;"/>
    </g>
    <g id="line2d_42">
     <path d="M 417.204625 31.868625 
L 437.364625 31.868625 
" style="fill:none;stroke:#0000ff;stroke-linecap:square;stroke-width:3.0;"/>
    </g>
    <g id="line2d_43"/>
    <g id="text_15">
     <!-- u -->
     <defs>
      <path d="M 8.5 21.578125 
L 8.5 54.6875 
L 17.484375 54.6875 
L 17.484375 21.921875 
Q 17.484375 14.15625 20.5 10.265625 
Q 23.53125 6.390625 29.59375 6.390625 
Q 36.859375 6.390625 41.078125 11.03125 
Q 45.3125 15.671875 45.3125 23.6875 
L 45.3125 54.6875 
L 54.296875 54.6875 
L 54.296875 0 
L 45.3125 0 
L 45.3125 8.40625 
Q 42.046875 3.421875 37.71875 1 
Q 33.40625 -1.421875 27.6875 -1.421875 
Q 18.265625 -1.421875 13.375 4.4375 
Q 8.5 10.296875 8.5 21.578125 
" id="BitstreamVeraSans-Roman-75"/>
     </defs>
     <g transform="translate(453.204625 36.908625)scale(0.144 -0.144)">
      <use xlink:href="#BitstreamVeraSans-Roman-75"/>
     </g>
    </g>
    <g id="line2d_44">
     <path d="M 417.204625 53.005125 
L 437.364625 53.005125 
" style="fill:none;stroke:#008000;stroke-linecap:square;stroke-width:3.0;"/>
    </g>
    <g id="line2d_45"/>
    <g id="text_16">
     <!-- y -->
     <defs>
      <path d="M 32.171875 -5.078125 
Q 28.375 -14.84375 24.75 -17.8125 
Q 21.140625 -20.796875 15.09375 -20.796875 
L 7.90625 -20.796875 
L 7.90625 -13.28125 
L 13.1875 -13.28125 
Q 16.890625 -13.28125 18.9375 -11.515625 
Q 21 -9.765625 23.484375 -3.21875 
L 25.09375 0.875 
L 2.984375 54.6875 
L 12.5 54.6875 
L 29.59375 11.921875 
L 46.6875 54.6875 
L 56.203125 54.6875 
z
" id="BitstreamVeraSans-Roman-79"/>
     </defs>
     <g transform="translate(453.204625 58.045125)scale(0.144 -0.144)">
      <use xlink:href="#BitstreamVeraSans-Roman-79"/>
     </g>
    </g>
   </g>
  </g>
 </g>
 <defs>
  <clipPath id="p7969c2711d">
   <rect height="345.6" width="446.4" x="28.890625" y="13.006875"/>
  </clipPath>
 </defs>
</svg>
