<?xml version="1.0" encoding="utf-8" standalone="no"?>
<!DOCTYPE svg PUBLIC "-//W3C//DTD SVG 1.1//EN"
  "http://www.w3.org/Graphics/SVG/1.1/DTD/svg11.dtd">
<!-- Created with matplotlib (http://matplotlib.org/) -->
<svg height="392pt" version="1.1" viewBox="0 0 501 392" width="501pt" xmlns="http://www.w3.org/2000/svg" xmlns:xlink="http://www.w3.org/1999/xlink">
 <defs>
  <style type="text/css">
*{stroke-linecap:butt;stroke-linejoin:round;stroke-miterlimit:100000;}
  </style>
 </defs>
 <g id="figure_1">
  <g id="patch_1">
   <path d="M 0 392.2275 
L 501.574375 392.2275 
L 501.574375 0 
L 0 0 
z
" style="fill:none;opacity:0;"/>
  </g>
  <g id="axes_1">
   <g id="patch_2">
    <path d="M 40.339375 352.8 
L 486.739375 352.8 
L 486.739375 7.2 
L 40.339375 7.2 
z
" style="fill:#ffffff;"/>
   </g>
   <g id="line2d_1">
    <path clip-path="url(#p041d55fba1)" d="M 40.339375 192.342857 
L 43.023143 146.819081 
L 44.812321 119.667687 
L 46.601499 97.100964 
L 47.496088 87.995638 
L 48.390678 80.542523 
L 49.285267 74.85963 
L 50.179856 71.036942 
L 51.074445 69.134986 
L 51.969034 69.183876 
L 52.863623 71.18284 
L 53.758213 75.100225 
L 54.652802 80.874006 
L 55.547391 88.41276 
L 56.44198 97.597121 
L 58.231159 120.297217 
L 60.020337 147.542272 
L 62.704104 193.119931 
L 65.387872 238.588019 
L 67.17705 265.644677 
L 68.966229 288.077132 
L 69.860818 297.103063 
L 70.755407 304.470243 
L 71.649996 310.062023 
L 72.544585 313.789862 
L 73.439175 315.594736 
L 74.333764 315.448066 
L 75.228353 313.352174 
L 76.122942 309.340246 
L 77.017531 303.475807 
L 77.91212 295.851713 
L 78.80671 286.588681 
L 80.595888 263.756111 
L 82.385066 236.418476 
L 85.963423 175.301734 
L 88.647191 131.415361 
L 90.436369 106.589746 
L 91.330958 96.119996 
L 92.225547 87.173818 
L 93.120137 79.892864 
L 94.014726 74.392419 
L 94.909315 70.759576 
L 95.803904 69.051856 
L 96.698493 69.296301 
L 97.593082 71.489037 
L 98.487672 75.595348 
L 99.382261 81.550213 
L 100.27685 89.259346 
L 101.171439 98.60068 
L 102.960617 121.56482 
L 104.749796 148.993952 
L 108.328153 210.153275 
L 111.01192 253.944947 
L 112.801098 278.653173 
L 113.695688 289.050492 
L 114.590277 297.916562 
L 115.484866 305.111001 
L 116.379455 310.519893 
L 117.274044 314.057596 
L 118.168634 315.668093 
L 119.063223 315.325885 
L 119.957812 313.03639 
L 120.852401 308.835859 
L 121.74699 302.790803 
L 122.641579 294.996938 
L 123.536169 285.577671 
L 125.325347 262.482872 
L 127.114525 234.963331 
L 130.692882 173.763852 
L 133.37665 130.068615 
L 135.165828 105.478757 
L 136.060417 95.154283 
L 136.955006 86.368671 
L 137.849595 79.261033 
L 138.744185 73.943908 
L 139.638774 70.501486 
L 140.533363 68.988275 
L 141.427952 69.428233 
L 142.322541 71.814396 
L 143.217131 76.10898 
L 144.11172 82.243987 
L 145.006309 90.122275 
L 145.900898 99.619103 
L 147.690076 122.843644 
L 149.479255 150.452504 
L 156.635968 268.121976 
L 158.425147 290.008519 
L 159.319736 298.713323 
L 160.214325 305.73388 
L 161.108914 310.959027 
L 162.003503 314.306032 
L 162.898092 315.721897 
L 163.792682 315.184206 
L 164.687271 312.70147 
L 165.58186 308.313002 
L 166.476449 302.088288 
L 167.371038 294.125888 
L 168.265628 284.551878 
L 170.054806 261.198513 
L 171.843984 233.501429 
L 178.106108 128.731743 
L 179.895287 104.38154 
L 180.789876 94.203979 
L 181.684465 85.580327 
L 182.579054 78.647131 
L 183.473644 73.514168 
L 184.368233 70.262714 
L 185.262822 68.94425 
L 186.157411 69.579653 
L 187.052 72.158863 
L 187.946589 76.64104 
L 188.841179 82.955216 
L 189.735768 91.001411 
L 190.630357 100.652226 
L 192.419535 124.133487 
L 194.208714 151.917698 
L 200.470838 256.618639 
L 202.260016 280.847564 
L 203.154605 290.951062 
L 204.049195 299.49322 
L 204.943784 306.338781 
L 205.838373 311.379355 
L 206.732962 314.535131 
L 207.627551 315.75614 
L 208.522141 315.02305 
L 209.41673 312.347469 
L 210.311319 307.771759 
L 211.205908 301.368374 
L 212.100497 293.238701 
L 212.995086 283.511466 
L 214.784265 259.903237 
L 216.573443 232.033001 
L 222.835567 127.404956 
L 224.624746 103.298269 
L 225.519335 93.269234 
L 226.413924 84.808909 
L 227.308513 78.051255 
L 228.203102 73.103268 
L 229.097692 70.043296 
L 229.992281 68.91979 
L 230.88687 69.750537 
L 231.781459 72.522385 
L 232.676048 77.191445 
L 233.570638 83.683787 
L 234.465227 91.896614 
L 235.359816 101.699886 
L 237.148994 125.434145 
L 238.938173 153.389302 
L 245.200297 257.940304 
L 246.989475 281.923798 
L 247.884064 291.877972 
L 248.778654 300.256128 
L 249.673243 306.925608 
L 250.567832 311.78081 
L 251.462421 314.744857 
L 252.35701 315.770817 
L 253.251599 314.842445 
L 254.146189 311.974441 
L 255.040778 307.212215 
L 255.935367 300.631173 
L 256.829956 292.335517 
L 257.724545 282.456599 
L 259.513724 258.59725 
L 261.302902 230.55828 
L 267.565026 126.088464 
L 269.354205 102.229115 
L 270.248794 92.350197 
L 271.143383 84.054541 
L 272.037972 77.473499 
L 272.932561 72.711274 
L 273.827151 69.843269 
L 274.72174 68.914897 
L 275.616329 69.940857 
L 276.510918 72.904904 
L 277.405507 77.760106 
L 278.300096 84.429586 
L 279.194686 92.807743 
L 280.089275 102.761917 
L 281.878453 126.74541 
L 283.667632 154.867081 
L 289.929756 259.25157 
L 291.718934 282.985829 
L 292.613523 292.7891 
L 293.508112 301.001927 
L 294.402702 307.49427 
L 295.297291 312.163329 
L 296.19188 314.935177 
L 297.086469 315.765925 
L 297.981058 314.642418 
L 298.875648 311.582446 
L 299.770237 306.63446 
L 300.664826 299.876805 
L 301.559415 291.41648 
L 302.454004 281.387445 
L 304.243183 257.280759 
L 306.032361 229.077501 
L 312.294485 124.782477 
L 314.083664 101.174249 
L 314.978253 91.447013 
L 315.872842 83.317341 
L 316.767431 76.913955 
L 317.66202 72.338246 
L 318.556609 69.662664 
L 319.451199 68.929574 
L 320.345788 70.150583 
L 321.240377 73.306359 
L 322.134966 78.346933 
L 323.029555 85.192495 
L 323.924145 93.734652 
L 324.818734 103.83815 
L 326.607912 128.067075 
L 328.39709 156.350802 
L 334.659215 260.552227 
L 336.448393 284.033489 
L 337.342982 293.684303 
L 338.237571 301.730499 
L 339.132161 308.044674 
L 340.02675 312.526851 
L 340.921339 315.106061 
L 341.815928 315.741464 
L 342.710517 314.423001 
L 343.605106 311.171546 
L 344.499696 306.038584 
L 345.394285 299.105387 
L 346.288874 290.481736 
L 347.183463 280.304174 
L 348.972642 255.953972 
L 350.76182 227.590898 
L 357.023944 123.487201 
L 358.813122 100.133837 
L 359.707712 90.559826 
L 360.602301 82.597426 
L 361.49689 76.372712 
L 362.391479 71.984244 
L 363.286068 69.501509 
L 364.180658 68.963817 
L 365.075247 70.379683 
L 365.969836 73.726687 
L 366.864425 78.951835 
L 367.759014 85.972391 
L 368.653603 94.677195 
L 369.548193 104.928416 
L 371.337371 129.398931 
L 373.126549 157.840229 
L 378.494084 248.482088 
L 380.283263 274.101616 
L 381.177852 285.066612 
L 382.072441 294.563439 
L 382.96703 302.441728 
L 383.861619 308.576734 
L 384.756209 312.871319 
L 385.650798 315.257481 
L 386.545387 315.69744 
L 387.439976 314.184228 
L 388.334565 310.741807 
L 389.229155 305.424681 
L 390.123744 298.317043 
L 391.018333 289.531432 
L 391.912922 279.206957 
L 393.7021 254.617099 
L 395.491279 226.098706 
L 400.858814 135.512694 
L 402.647992 110.003572 
L 403.542581 99.108044 
L 404.437171 89.688776 
L 405.33176 81.894911 
L 406.226349 75.849855 
L 407.120938 71.649325 
L 408.015527 69.35983 
L 408.910116 69.017621 
L 409.804706 70.628119 
L 410.699295 74.165821 
L 411.593884 79.574713 
L 412.488473 86.769152 
L 413.383062 95.635223 
L 414.277652 106.032541 
L 416.06683 130.740767 
L 417.856008 159.335126 
L 423.223543 249.861699 
L 425.012722 275.259406 
L 425.907311 286.085034 
L 426.8019 295.426369 
L 427.696489 303.135501 
L 428.591078 309.090366 
L 429.485668 313.196677 
L 430.380257 315.389414 
L 431.274846 315.633858 
L 432.169435 313.926139 
L 433.064024 310.293296 
L 433.958613 304.792851 
L 434.853203 297.511897 
L 435.747792 288.565719 
L 436.642381 278.095968 
L 438.431559 253.270354 
L 440.220738 224.601162 
L 445.588273 134.137616 
L 447.377451 108.852332 
L 448.27204 98.097033 
L 449.16663 88.834001 
L 450.061219 81.209907 
L 450.955808 75.345468 
L 451.850397 71.333541 
L 452.744986 69.237649 
L 453.639575 69.090978 
L 454.534165 70.895852 
L 455.428754 74.623691 
L 456.323343 80.215471 
L 457.217932 87.582651 
L 458.112521 96.608583 
L 459.00711 107.15035 
L 460.796289 132.092369 
L 462.585467 160.835257 
L 467.953002 251.23219 
L 469.742181 276.404049 
L 470.63677 287.088593 
L 471.531359 296.272955 
L 472.425948 303.811709 
L 473.320537 309.585489 
L 474.215127 313.502874 
L 475.109716 315.501838 
L 476.004305 315.550729 
L 476.898894 313.648772 
L 477.793483 309.826084 
L 478.688072 304.143192 
L 479.582662 296.690077 
L 480.477251 287.58475 
L 481.37184 276.971384 
L 483.161018 251.913948 
L 484.950197 223.098504 
L 486.739375 192.342857 
L 486.739375 192.342857 
" style="fill:none;stroke:#0000ff;stroke-linecap:square;stroke-width:3.0;"/>
   </g>
   <g id="line2d_2">
    <path clip-path="url(#p041d55fba1)" d="M 40.339375 217.028571 
L 41.233964 216.384513 
L 42.128553 215.448133 
L 43.023143 214.232506 
L 43.917732 212.755164 
L 45.70691 209.106002 
L 47.496088 204.717822 
L 50.179856 197.336913 
L 52.863623 189.895905 
L 54.652802 185.405371 
L 56.44198 181.613132 
L 57.336569 180.052553 
L 58.231159 178.748173 
L 59.125748 177.719423 
L 60.020337 176.981399 
L 60.914926 176.544602 
L 61.809515 176.414806 
L 62.704104 176.592934 
L 63.598694 177.07506 
L 64.493283 177.85247 
L 65.387872 178.911788 
L 66.282461 180.235202 
L 68.07164 183.582589 
L 69.860818 187.675606 
L 72.544585 194.623045 
L 75.228353 201.639237 
L 77.017531 205.851041 
L 78.80671 209.368635 
L 79.701299 210.793676 
L 80.595888 211.963882 
L 81.490477 212.860004 
L 82.385066 213.467117 
L 83.279656 213.774897 
L 84.174245 213.777778 
L 85.068834 213.475032 
L 85.963423 212.870772 
L 86.858012 211.973916 
L 87.752601 210.798019 
L 88.647191 209.361071 
L 90.436369 205.796355 
L 92.225547 201.499854 
L 94.909315 194.274459 
L 97.593082 187.013178 
L 99.382261 182.655329 
L 101.171439 179.004312 
L 102.066028 177.51681 
L 102.960617 176.286675 
L 103.855207 175.332942 
L 104.749796 174.67026 
L 105.644385 174.3087 
L 106.538974 174.253562 
L 107.433563 174.505286 
L 108.328153 175.059511 
L 109.222742 175.907058 
L 110.117331 177.034109 
L 111.01192 178.422435 
L 112.801098 181.889723 
L 114.590277 186.0873 
L 117.274044 193.159131 
L 119.957812 200.259152 
L 121.74699 204.505399 
L 123.536169 208.042361 
L 124.430758 209.472257 
L 125.325347 210.644636 
L 126.219936 211.540659 
L 127.114525 212.145871 
L 128.009114 212.450424 
L 128.903704 212.44925 
L 129.798293 212.142112 
L 130.692882 211.533629 
L 131.587471 210.63319 
L 132.48206 209.454819 
L 133.37665 208.016945 
L 135.165828 204.456592 
L 136.955006 200.174982 
L 140.533363 190.550282 
L 143.217131 183.592159 
L 145.006309 179.629399 
L 146.795487 176.503093 
L 147.690076 175.317246 
L 148.584666 174.409116 
L 149.479255 173.792922 
L 150.373844 173.478265 
L 151.268433 173.46997 
L 152.163022 173.768005 
L 153.057611 174.367513 
L 153.952201 175.258862 
L 154.84679 176.427787 
L 155.741379 177.85564 
L 157.530557 181.393411 
L 159.319736 185.647931 
L 162.898092 195.201378 
L 165.58186 202.090161 
L 167.371038 205.999908 
L 168.265628 207.653086 
L 169.160217 209.068978 
L 170.054806 210.225054 
L 170.949395 211.102923 
L 171.843984 211.688584 
L 172.738573 211.972662 
L 173.633163 211.95057 
L 174.527752 211.622574 
L 175.422341 210.993764 
L 176.31693 210.07401 
L 177.211519 208.877789 
L 178.106108 207.423958 
L 179.895287 203.838927 
L 181.684465 199.544438 
L 185.262822 189.935971 
L 187.946589 183.028273 
L 189.735768 179.11555 
L 190.630357 177.463371 
L 191.524946 176.049914 
L 192.419535 174.897483 
L 193.314124 174.024259 
L 194.208714 173.444018 
L 195.103303 173.165895 
L 195.997892 173.194224 
L 196.892481 173.528498 
L 197.78707 174.163381 
L 198.68166 175.088752 
L 199.576249 176.289928 
L 200.470838 177.747833 
L 202.260016 181.337575 
L 204.049195 185.631131 
L 207.627551 195.217468 
L 210.311319 202.090198 
L 212.100497 205.971725 
L 212.995086 207.606334 
L 213.889676 209.00115 
L 214.784265 210.134049 
L 215.678854 210.987058 
L 216.573443 211.546631 
L 217.468032 211.803872 
L 218.362621 211.754678 
L 219.257211 211.399799 
L 220.1518 210.74481 
L 221.046389 209.800053 
L 221.940978 208.580457 
L 222.835567 207.105299 
L 224.624746 203.485288 
L 226.413924 199.16815 
L 229.992281 189.557793 
L 232.676048 182.687827 
L 234.465227 178.817036 
L 235.359816 177.190057 
L 236.254405 175.804153 
L 237.148994 174.681238 
L 238.043583 173.839071 
L 238.938173 173.290964 
L 239.832762 173.045575 
L 240.727351 173.106765 
L 241.62194 173.473545 
L 242.516529 174.140098 
L 243.411118 175.09584 
L 244.305708 176.325622 
L 245.200297 177.809954 
L 246.989475 181.444512 
L 248.778654 185.770097 
L 255.935367 204.240696 
L 257.724545 207.683786 
L 258.619135 209.054791 
L 259.513724 210.161861 
L 260.408313 210.98745 
L 261.302902 211.518481 
L 262.197491 211.746528 
L 263.09208 211.667967 
L 263.98667 211.284039 
L 264.881259 210.60079 
L 265.775848 209.62904 
L 266.670437 208.384162 
L 267.565026 206.885856 
L 269.354205 203.227451 
L 271.143383 198.884523 
L 278.300096 180.420037 
L 280.089275 176.995857 
L 280.983864 175.636212 
L 281.878453 174.541507 
L 282.773042 173.729067 
L 283.667632 173.21175 
L 284.562221 172.997736 
L 285.45681 173.090407 
L 286.351399 173.488285 
L 287.245988 174.18507 
L 288.140577 175.169723 
L 289.035167 176.42664 
L 289.929756 177.935917 
L 291.718934 181.612299 
L 293.508112 185.966906 
L 299.770237 202.403923 
L 301.559415 206.214668 
L 302.454004 207.805296 
L 303.348593 209.151353 
L 304.243183 210.231515 
L 305.137772 211.028677 
L 306.032361 211.530217 
L 306.92695 211.728177 
L 307.821539 211.619427 
L 308.716129 211.205689 
L 309.610718 210.493493 
L 310.505307 209.494119 
L 311.399896 208.223396 
L 312.294485 206.701425 
L 314.083664 203.003735 
L 315.872842 198.634291 
L 322.134966 182.204421 
L 323.924145 178.411754 
L 324.818734 176.832274 
L 325.713323 175.498541 
L 326.607912 174.431671 
L 327.502501 173.64855 
L 328.39709 173.161575 
L 329.29168 172.978509 
L 330.186269 173.102142 
L 331.080858 173.530562 
L 331.975447 174.256976 
L 332.870036 175.269894 
L 333.764626 176.553284 
L 334.659215 178.086806 
L 336.448393 181.803541 
L 338.237571 186.185622 
L 344.499696 202.601225 
L 346.288874 206.373988 
L 347.183463 207.941437 
L 348.078052 209.261986 
L 348.972642 210.314727 
L 349.867231 211.083003 
L 350.76182 211.554638 
L 351.656409 211.722168 
L 352.550998 211.582937 
L 353.445587 211.139147 
L 354.340177 210.39782 
L 355.234766 209.370693 
L 356.129355 208.074029 
L 357.023944 206.528358 
L 358.813122 202.79144 
L 360.602301 198.395666 
L 366.864425 181.991032 
L 368.653603 178.237297 
L 369.548193 176.681449 
L 370.442782 175.373641 
L 371.337371 174.334573 
L 372.23196 173.580695 
L 373.126549 173.123951 
L 374.021139 172.971569 
L 374.915728 173.125964 
L 375.810317 173.58467 
L 376.704906 174.340445 
L 377.599495 175.381318 
L 378.494084 176.690801 
L 379.388674 178.24816 
L 381.177852 182.004344 
L 382.96703 186.412899 
L 389.229155 202.803519 
L 391.018333 206.537439 
L 391.912922 208.081324 
L 392.807511 209.376044 
L 393.7021 210.401093 
L 394.59669 211.140252 
L 395.491279 211.581808 
L 396.385868 211.718765 
L 397.280457 211.548961 
L 398.175046 211.075096 
L 399.069636 210.304648 
L 399.964225 209.249825 
L 400.858814 207.927336 
L 402.647992 204.566993 
L 404.437171 200.435602 
L 407.120938 193.372224 
L 410.699295 183.906847 
L 412.488473 179.827096 
L 414.277652 176.536966 
L 415.172241 175.255208 
L 416.06683 174.244038 
L 416.961419 173.519455 
L 417.856008 173.09294 
L 418.750597 172.971295 
L 419.645187 173.156345 
L 420.539776 173.645192 
L 421.434365 174.430125 
L 422.328954 175.498707 
L 423.223543 176.834012 
L 425.012722 180.216335 
L 426.8019 184.363727 
L 429.485668 191.437791 
L 433.064024 200.890804 
L 434.853203 204.953684 
L 436.642381 208.221081 
L 437.53697 209.489704 
L 438.431559 210.486852 
L 439.326149 211.196729 
L 440.220738 211.608083 
L 441.115327 211.714408 
L 442.009916 211.514021 
L 442.904505 211.0101 
L 443.799094 210.210612 
L 444.693684 209.128221 
L 445.588273 207.780063 
L 447.377451 204.37571 
L 449.16663 200.212311 
L 451.850397 193.127599 
L 455.428754 183.687037 
L 457.217932 179.641038 
L 459.00711 176.396354 
L 459.9017 175.140825 
L 460.796289 174.157681 
L 461.690878 173.462485 
L 462.585467 173.066248 
L 463.480056 172.975235 
L 464.374646 173.190891 
L 465.269235 173.709802 
L 466.163824 174.523755 
L 467.058413 175.619857 
L 467.953002 176.980756 
L 469.742181 180.406893 
L 471.531359 184.586029 
L 474.215127 191.680954 
L 477.793483 201.108482 
L 479.582662 205.13735 
L 481.37184 208.359107 
L 482.266429 209.601437 
L 483.161018 210.570499 
L 484.055607 211.25096 
L 484.950197 211.632038 
L 485.844786 211.707691 
L 486.739375 211.476738 
L 486.739375 211.476738 
" style="fill:none;stroke:#008000;stroke-linecap:square;stroke-width:3.0;"/>
   </g>
   <g id="patch_3">
    <path d="M 486.739375 352.8 
L 486.739375 7.2 
" style="fill:none;stroke:#000000;stroke-linecap:square;stroke-linejoin:miter;"/>
   </g>
   <g id="patch_4">
    <path d="M 40.339375 7.2 
L 486.739375 7.2 
" style="fill:none;stroke:#000000;stroke-linecap:square;stroke-linejoin:miter;"/>
   </g>
   <g id="patch_5">
    <path d="M 40.339375 352.8 
L 486.739375 352.8 
" style="fill:none;stroke:#000000;stroke-linecap:square;stroke-linejoin:miter;"/>
   </g>
   <g id="patch_6">
    <path d="M 40.339375 352.8 
L 40.339375 7.2 
" style="fill:none;stroke:#000000;stroke-linecap:square;stroke-linejoin:miter;"/>
   </g>
   <g id="matplotlib.axis_1">
    <g id="xtick_1">
     <g id="line2d_3">
      <path clip-path="url(#p041d55fba1)" d="M 40.339375 352.8 
L 40.339375 7.2 
" style="fill:none;stroke:#000000;stroke-dasharray:1.000000,3.000000;stroke-dashoffset:0.0;stroke-width:0.5;"/>
     </g>
     <g id="line2d_4">
      <defs>
       <path d="M 0 0 
L 0 -4 
" id="mab1a2005e4" style="stroke:#000000;stroke-width:0.5;"/>
      </defs>
      <g>
       <use style="stroke:#000000;stroke-width:0.5;" x="40.339375" xlink:href="#mab1a2005e4" y="352.8"/>
      </g>
     </g>
     <g id="line2d_5">
      <defs>
       <path d="M 0 0 
L 0 4 
" id="ma72c033c5b" style="stroke:#000000;stroke-width:0.5;"/>
      </defs>
      <g>
       <use style="stroke:#000000;stroke-width:0.5;" x="40.339375" xlink:href="#ma72c033c5b" y="7.2"/>
      </g>
     </g>
     <g id="text_1">
      <!-- 0 -->
      <defs>
       <path d="M 31.78125 66.40625 
Q 24.171875 66.40625 20.328125 58.90625 
Q 16.5 51.421875 16.5 36.375 
Q 16.5 21.390625 20.328125 13.890625 
Q 24.171875 6.390625 31.78125 6.390625 
Q 39.453125 6.390625 43.28125 13.890625 
Q 47.125 21.390625 47.125 36.375 
Q 47.125 51.421875 43.28125 58.90625 
Q 39.453125 66.40625 31.78125 66.40625 
M 31.78125 74.21875 
Q 44.046875 74.21875 50.515625 64.515625 
Q 56.984375 54.828125 56.984375 36.375 
Q 56.984375 17.96875 50.515625 8.265625 
Q 44.046875 -1.421875 31.78125 -1.421875 
Q 19.53125 -1.421875 13.0625 8.265625 
Q 6.59375 17.96875 6.59375 36.375 
Q 6.59375 54.828125 13.0625 64.515625 
Q 19.53125 74.21875 31.78125 74.21875 
" id="BitstreamVeraSans-Roman-30"/>
      </defs>
      <g transform="translate(36.521875 365.918125)scale(0.12 -0.12)">
       <use xlink:href="#BitstreamVeraSans-Roman-30"/>
      </g>
     </g>
    </g>
    <g id="xtick_2">
     <g id="line2d_6">
      <path clip-path="url(#p041d55fba1)" d="M 129.619375 352.8 
L 129.619375 7.2 
" style="fill:none;stroke:#000000;stroke-dasharray:1.000000,3.000000;stroke-dashoffset:0.0;stroke-width:0.5;"/>
     </g>
     <g id="line2d_7">
      <g>
       <use style="stroke:#000000;stroke-width:0.5;" x="129.619375" xlink:href="#mab1a2005e4" y="352.8"/>
      </g>
     </g>
     <g id="line2d_8">
      <g>
       <use style="stroke:#000000;stroke-width:0.5;" x="129.619375" xlink:href="#ma72c033c5b" y="7.2"/>
      </g>
     </g>
     <g id="text_2">
      <!-- 2 -->
      <defs>
       <path d="M 19.1875 8.296875 
L 53.609375 8.296875 
L 53.609375 0 
L 7.328125 0 
L 7.328125 8.296875 
Q 12.9375 14.109375 22.625 23.890625 
Q 32.328125 33.6875 34.8125 36.53125 
Q 39.546875 41.84375 41.421875 45.53125 
Q 43.3125 49.21875 43.3125 52.78125 
Q 43.3125 58.59375 39.234375 62.25 
Q 35.15625 65.921875 28.609375 65.921875 
Q 23.96875 65.921875 18.8125 64.3125 
Q 13.671875 62.703125 7.8125 59.421875 
L 7.8125 69.390625 
Q 13.765625 71.78125 18.9375 73 
Q 24.125 74.21875 28.421875 74.21875 
Q 39.75 74.21875 46.484375 68.546875 
Q 53.21875 62.890625 53.21875 53.421875 
Q 53.21875 48.921875 51.53125 44.890625 
Q 49.859375 40.875 45.40625 35.40625 
Q 44.1875 33.984375 37.640625 27.21875 
Q 31.109375 20.453125 19.1875 8.296875 
" id="BitstreamVeraSans-Roman-32"/>
      </defs>
      <g transform="translate(125.801875 365.918125)scale(0.12 -0.12)">
       <use xlink:href="#BitstreamVeraSans-Roman-32"/>
      </g>
     </g>
    </g>
    <g id="xtick_3">
     <g id="line2d_9">
      <path clip-path="url(#p041d55fba1)" d="M 218.899375 352.8 
L 218.899375 7.2 
" style="fill:none;stroke:#000000;stroke-dasharray:1.000000,3.000000;stroke-dashoffset:0.0;stroke-width:0.5;"/>
     </g>
     <g id="line2d_10">
      <g>
       <use style="stroke:#000000;stroke-width:0.5;" x="218.899375" xlink:href="#mab1a2005e4" y="352.8"/>
      </g>
     </g>
     <g id="line2d_11">
      <g>
       <use style="stroke:#000000;stroke-width:0.5;" x="218.899375" xlink:href="#ma72c033c5b" y="7.2"/>
      </g>
     </g>
     <g id="text_3">
      <!-- 4 -->
      <defs>
       <path d="M 37.796875 64.3125 
L 12.890625 25.390625 
L 37.796875 25.390625 
z
M 35.203125 72.90625 
L 47.609375 72.90625 
L 47.609375 25.390625 
L 58.015625 25.390625 
L 58.015625 17.1875 
L 47.609375 17.1875 
L 47.609375 0 
L 37.796875 0 
L 37.796875 17.1875 
L 4.890625 17.1875 
L 4.890625 26.703125 
z
" id="BitstreamVeraSans-Roman-34"/>
      </defs>
      <g transform="translate(215.081875 365.918125)scale(0.12 -0.12)">
       <use xlink:href="#BitstreamVeraSans-Roman-34"/>
      </g>
     </g>
    </g>
    <g id="xtick_4">
     <g id="line2d_12">
      <path clip-path="url(#p041d55fba1)" d="M 308.179375 352.8 
L 308.179375 7.2 
" style="fill:none;stroke:#000000;stroke-dasharray:1.000000,3.000000;stroke-dashoffset:0.0;stroke-width:0.5;"/>
     </g>
     <g id="line2d_13">
      <g>
       <use style="stroke:#000000;stroke-width:0.5;" x="308.179375" xlink:href="#mab1a2005e4" y="352.8"/>
      </g>
     </g>
     <g id="line2d_14">
      <g>
       <use style="stroke:#000000;stroke-width:0.5;" x="308.179375" xlink:href="#ma72c033c5b" y="7.2"/>
      </g>
     </g>
     <g id="text_4">
      <!-- 6 -->
      <defs>
       <path d="M 33.015625 40.375 
Q 26.375 40.375 22.484375 35.828125 
Q 18.609375 31.296875 18.609375 23.390625 
Q 18.609375 15.53125 22.484375 10.953125 
Q 26.375 6.390625 33.015625 6.390625 
Q 39.65625 6.390625 43.53125 10.953125 
Q 47.40625 15.53125 47.40625 23.390625 
Q 47.40625 31.296875 43.53125 35.828125 
Q 39.65625 40.375 33.015625 40.375 
M 52.59375 71.296875 
L 52.59375 62.3125 
Q 48.875 64.0625 45.09375 64.984375 
Q 41.3125 65.921875 37.59375 65.921875 
Q 27.828125 65.921875 22.671875 59.328125 
Q 17.53125 52.734375 16.796875 39.40625 
Q 19.671875 43.65625 24.015625 45.921875 
Q 28.375 48.1875 33.59375 48.1875 
Q 44.578125 48.1875 50.953125 41.515625 
Q 57.328125 34.859375 57.328125 23.390625 
Q 57.328125 12.15625 50.6875 5.359375 
Q 44.046875 -1.421875 33.015625 -1.421875 
Q 20.359375 -1.421875 13.671875 8.265625 
Q 6.984375 17.96875 6.984375 36.375 
Q 6.984375 53.65625 15.1875 63.9375 
Q 23.390625 74.21875 37.203125 74.21875 
Q 40.921875 74.21875 44.703125 73.484375 
Q 48.484375 72.75 52.59375 71.296875 
" id="BitstreamVeraSans-Roman-36"/>
      </defs>
      <g transform="translate(304.361875 365.918125)scale(0.12 -0.12)">
       <use xlink:href="#BitstreamVeraSans-Roman-36"/>
      </g>
     </g>
    </g>
    <g id="xtick_5">
     <g id="line2d_15">
      <path clip-path="url(#p041d55fba1)" d="M 397.459375 352.8 
L 397.459375 7.2 
" style="fill:none;stroke:#000000;stroke-dasharray:1.000000,3.000000;stroke-dashoffset:0.0;stroke-width:0.5;"/>
     </g>
     <g id="line2d_16">
      <g>
       <use style="stroke:#000000;stroke-width:0.5;" x="397.459375" xlink:href="#mab1a2005e4" y="352.8"/>
      </g>
     </g>
     <g id="line2d_17">
      <g>
       <use style="stroke:#000000;stroke-width:0.5;" x="397.459375" xlink:href="#ma72c033c5b" y="7.2"/>
      </g>
     </g>
     <g id="text_5">
      <!-- 8 -->
      <defs>
       <path d="M 31.78125 34.625 
Q 24.75 34.625 20.71875 30.859375 
Q 16.703125 27.09375 16.703125 20.515625 
Q 16.703125 13.921875 20.71875 10.15625 
Q 24.75 6.390625 31.78125 6.390625 
Q 38.8125 6.390625 42.859375 10.171875 
Q 46.921875 13.96875 46.921875 20.515625 
Q 46.921875 27.09375 42.890625 30.859375 
Q 38.875 34.625 31.78125 34.625 
M 21.921875 38.8125 
Q 15.578125 40.375 12.03125 44.71875 
Q 8.5 49.078125 8.5 55.328125 
Q 8.5 64.0625 14.71875 69.140625 
Q 20.953125 74.21875 31.78125 74.21875 
Q 42.671875 74.21875 48.875 69.140625 
Q 55.078125 64.0625 55.078125 55.328125 
Q 55.078125 49.078125 51.53125 44.71875 
Q 48 40.375 41.703125 38.8125 
Q 48.828125 37.15625 52.796875 32.3125 
Q 56.78125 27.484375 56.78125 20.515625 
Q 56.78125 9.90625 50.3125 4.234375 
Q 43.84375 -1.421875 31.78125 -1.421875 
Q 19.734375 -1.421875 13.25 4.234375 
Q 6.78125 9.90625 6.78125 20.515625 
Q 6.78125 27.484375 10.78125 32.3125 
Q 14.796875 37.15625 21.921875 38.8125 
M 18.3125 54.390625 
Q 18.3125 48.734375 21.84375 45.5625 
Q 25.390625 42.390625 31.78125 42.390625 
Q 38.140625 42.390625 41.71875 45.5625 
Q 45.3125 48.734375 45.3125 54.390625 
Q 45.3125 60.0625 41.71875 63.234375 
Q 38.140625 66.40625 31.78125 66.40625 
Q 25.390625 66.40625 21.84375 63.234375 
Q 18.3125 60.0625 18.3125 54.390625 
" id="BitstreamVeraSans-Roman-38"/>
      </defs>
      <g transform="translate(393.641875 365.918125)scale(0.12 -0.12)">
       <use xlink:href="#BitstreamVeraSans-Roman-38"/>
      </g>
     </g>
    </g>
    <g id="xtick_6">
     <g id="line2d_18">
      <path clip-path="url(#p041d55fba1)" d="M 486.739375 352.8 
L 486.739375 7.2 
" style="fill:none;stroke:#000000;stroke-dasharray:1.000000,3.000000;stroke-dashoffset:0.0;stroke-width:0.5;"/>
     </g>
     <g id="line2d_19">
      <g>
       <use style="stroke:#000000;stroke-width:0.5;" x="486.739375" xlink:href="#mab1a2005e4" y="352.8"/>
      </g>
     </g>
     <g id="line2d_20">
      <g>
       <use style="stroke:#000000;stroke-width:0.5;" x="486.739375" xlink:href="#ma72c033c5b" y="7.2"/>
      </g>
     </g>
     <g id="text_6">
      <!-- 10 -->
      <defs>
       <path d="M 12.40625 8.296875 
L 28.515625 8.296875 
L 28.515625 63.921875 
L 10.984375 60.40625 
L 10.984375 69.390625 
L 28.421875 72.90625 
L 38.28125 72.90625 
L 38.28125 8.296875 
L 54.390625 8.296875 
L 54.390625 0 
L 12.40625 0 
z
" id="BitstreamVeraSans-Roman-31"/>
      </defs>
      <g transform="translate(479.104375 365.918125)scale(0.12 -0.12)">
       <use xlink:href="#BitstreamVeraSans-Roman-31"/>
       <use x="63.623046875" xlink:href="#BitstreamVeraSans-Roman-30"/>
      </g>
     </g>
    </g>
    <g id="text_7">
     <!-- Time (s) -->
     <defs>
      <path d="M 56.203125 29.59375 
L 56.203125 25.203125 
L 14.890625 25.203125 
Q 15.484375 15.921875 20.484375 11.0625 
Q 25.484375 6.203125 34.421875 6.203125 
Q 39.59375 6.203125 44.453125 7.46875 
Q 49.3125 8.734375 54.109375 11.28125 
L 54.109375 2.78125 
Q 49.265625 0.734375 44.1875 -0.34375 
Q 39.109375 -1.421875 33.890625 -1.421875 
Q 20.796875 -1.421875 13.15625 6.1875 
Q 5.515625 13.8125 5.515625 26.8125 
Q 5.515625 40.234375 12.765625 48.109375 
Q 20.015625 56 32.328125 56 
Q 43.359375 56 49.78125 48.890625 
Q 56.203125 41.796875 56.203125 29.59375 
M 47.21875 32.234375 
Q 47.125 39.59375 43.09375 43.984375 
Q 39.0625 48.390625 32.421875 48.390625 
Q 24.90625 48.390625 20.390625 44.140625 
Q 15.875 39.890625 15.1875 32.171875 
z
" id="BitstreamVeraSans-Roman-65"/>
      <path id="BitstreamVeraSans-Roman-20"/>
      <path d="M 8.015625 75.875 
L 15.828125 75.875 
Q 23.140625 64.359375 26.78125 53.3125 
Q 30.421875 42.28125 30.421875 31.390625 
Q 30.421875 20.453125 26.78125 9.375 
Q 23.140625 -1.703125 15.828125 -13.1875 
L 8.015625 -13.1875 
Q 14.5 -2 17.703125 9.0625 
Q 20.90625 20.125 20.90625 31.390625 
Q 20.90625 42.671875 17.703125 53.65625 
Q 14.5 64.65625 8.015625 75.875 
" id="BitstreamVeraSans-Roman-29"/>
      <path d="M 31 75.875 
Q 24.46875 64.65625 21.28125 53.65625 
Q 18.109375 42.671875 18.109375 31.390625 
Q 18.109375 20.125 21.3125 9.0625 
Q 24.515625 -2 31 -13.1875 
L 23.1875 -13.1875 
Q 15.875 -1.703125 12.234375 9.375 
Q 8.59375 20.453125 8.59375 31.390625 
Q 8.59375 42.28125 12.203125 53.3125 
Q 15.828125 64.359375 23.1875 75.875 
z
" id="BitstreamVeraSans-Roman-28"/>
      <path d="M 44.28125 53.078125 
L 44.28125 44.578125 
Q 40.484375 46.53125 36.375 47.5 
Q 32.28125 48.484375 27.875 48.484375 
Q 21.1875 48.484375 17.84375 46.4375 
Q 14.5 44.390625 14.5 40.28125 
Q 14.5 37.15625 16.890625 35.375 
Q 19.28125 33.59375 26.515625 31.984375 
L 29.59375 31.296875 
Q 39.15625 29.25 43.1875 25.515625 
Q 47.21875 21.78125 47.21875 15.09375 
Q 47.21875 7.46875 41.1875 3.015625 
Q 35.15625 -1.421875 24.609375 -1.421875 
Q 20.21875 -1.421875 15.453125 -0.5625 
Q 10.6875 0.296875 5.421875 2 
L 5.421875 11.28125 
Q 10.40625 8.6875 15.234375 7.390625 
Q 20.0625 6.109375 24.8125 6.109375 
Q 31.15625 6.109375 34.5625 8.28125 
Q 37.984375 10.453125 37.984375 14.40625 
Q 37.984375 18.0625 35.515625 20.015625 
Q 33.0625 21.96875 24.703125 23.78125 
L 21.578125 24.515625 
Q 13.234375 26.265625 9.515625 29.90625 
Q 5.8125 33.546875 5.8125 39.890625 
Q 5.8125 47.609375 11.28125 51.796875 
Q 16.75 56 26.8125 56 
Q 31.78125 56 36.171875 55.265625 
Q 40.578125 54.546875 44.28125 53.078125 
" id="BitstreamVeraSans-Roman-73"/>
      <path d="M -0.296875 72.90625 
L 61.375 72.90625 
L 61.375 64.59375 
L 35.5 64.59375 
L 35.5 0 
L 25.59375 0 
L 25.59375 64.59375 
L -0.296875 64.59375 
z
" id="BitstreamVeraSans-Roman-54"/>
      <path d="M 9.421875 54.6875 
L 18.40625 54.6875 
L 18.40625 0 
L 9.421875 0 
z
M 9.421875 75.984375 
L 18.40625 75.984375 
L 18.40625 64.59375 
L 9.421875 64.59375 
z
" id="BitstreamVeraSans-Roman-69"/>
      <path d="M 52 44.1875 
Q 55.375 50.25 60.0625 53.125 
Q 64.75 56 71.09375 56 
Q 79.640625 56 84.28125 50.015625 
Q 88.921875 44.046875 88.921875 33.015625 
L 88.921875 0 
L 79.890625 0 
L 79.890625 32.71875 
Q 79.890625 40.578125 77.09375 44.375 
Q 74.3125 48.1875 68.609375 48.1875 
Q 61.625 48.1875 57.5625 43.546875 
Q 53.515625 38.921875 53.515625 30.90625 
L 53.515625 0 
L 44.484375 0 
L 44.484375 32.71875 
Q 44.484375 40.625 41.703125 44.40625 
Q 38.921875 48.1875 33.109375 48.1875 
Q 26.21875 48.1875 22.15625 43.53125 
Q 18.109375 38.875 18.109375 30.90625 
L 18.109375 0 
L 9.078125 0 
L 9.078125 54.6875 
L 18.109375 54.6875 
L 18.109375 46.1875 
Q 21.1875 51.21875 25.484375 53.609375 
Q 29.78125 56 35.6875 56 
Q 41.65625 56 45.828125 52.96875 
Q 50 49.953125 52 44.1875 
" id="BitstreamVeraSans-Roman-6d"/>
     </defs>
     <g transform="translate(238.96 382.531875)scale(0.12 -0.12)">
      <use xlink:href="#BitstreamVeraSans-Roman-54"/>
      <use x="61.037109375" xlink:href="#BitstreamVeraSans-Roman-69"/>
      <use x="88.8203125" xlink:href="#BitstreamVeraSans-Roman-6d"/>
      <use x="186.232421875" xlink:href="#BitstreamVeraSans-Roman-65"/>
      <use x="247.755859375" xlink:href="#BitstreamVeraSans-Roman-20"/>
      <use x="279.54296875" xlink:href="#BitstreamVeraSans-Roman-28"/>
      <use x="318.556640625" xlink:href="#BitstreamVeraSans-Roman-73"/>
      <use x="370.65625" xlink:href="#BitstreamVeraSans-Roman-29"/>
     </g>
    </g>
   </g>
   <g id="matplotlib.axis_2">
    <g id="ytick_1">
     <g id="line2d_21">
      <path clip-path="url(#p041d55fba1)" d="M 40.339375 340.457143 
L 486.739375 340.457143 
" style="fill:none;stroke:#000000;stroke-dasharray:1.000000,3.000000;stroke-dashoffset:0.0;stroke-width:0.5;"/>
     </g>
     <g id="line2d_22">
      <defs>
       <path d="M 0 0 
L 4 0 
" id="me283ee8c07" style="stroke:#000000;stroke-width:0.5;"/>
      </defs>
      <g>
       <use style="stroke:#000000;stroke-width:0.5;" x="40.339375" xlink:href="#me283ee8c07" y="340.457142857"/>
      </g>
     </g>
     <g id="line2d_23">
      <defs>
       <path d="M 0 0 
L -4 0 
" id="m459659c0d5" style="stroke:#000000;stroke-width:0.5;"/>
      </defs>
      <g>
       <use style="stroke:#000000;stroke-width:0.5;" x="486.739375" xlink:href="#m459659c0d5" y="340.457142857"/>
      </g>
     </g>
     <g id="text_8">
      <!-- −1.0 -->
      <defs>
       <path d="M 10.6875 12.40625 
L 21 12.40625 
L 21 0 
L 10.6875 0 
z
" id="BitstreamVeraSans-Roman-2e"/>
       <path d="M 10.59375 35.5 
L 73.1875 35.5 
L 73.1875 27.203125 
L 10.59375 27.203125 
z
" id="BitstreamVeraSans-Roman-2212"/>
      </defs>
      <g transform="translate(7.2 343.768392857)scale(0.12 -0.12)">
       <use xlink:href="#BitstreamVeraSans-Roman-2212"/>
       <use x="83.7890625" xlink:href="#BitstreamVeraSans-Roman-31"/>
       <use x="147.412109375" xlink:href="#BitstreamVeraSans-Roman-2e"/>
       <use x="179.19921875" xlink:href="#BitstreamVeraSans-Roman-30"/>
      </g>
     </g>
    </g>
    <g id="ytick_2">
     <g id="line2d_24">
      <path clip-path="url(#p041d55fba1)" d="M 40.339375 278.742857 
L 486.739375 278.742857 
" style="fill:none;stroke:#000000;stroke-dasharray:1.000000,3.000000;stroke-dashoffset:0.0;stroke-width:0.5;"/>
     </g>
     <g id="line2d_25">
      <g>
       <use style="stroke:#000000;stroke-width:0.5;" x="40.339375" xlink:href="#me283ee8c07" y="278.742857143"/>
      </g>
     </g>
     <g id="line2d_26">
      <g>
       <use style="stroke:#000000;stroke-width:0.5;" x="486.739375" xlink:href="#m459659c0d5" y="278.742857143"/>
      </g>
     </g>
     <g id="text_9">
      <!-- −0.5 -->
      <defs>
       <path d="M 10.796875 72.90625 
L 49.515625 72.90625 
L 49.515625 64.59375 
L 19.828125 64.59375 
L 19.828125 46.734375 
Q 21.96875 47.46875 24.109375 47.828125 
Q 26.265625 48.1875 28.421875 48.1875 
Q 40.625 48.1875 47.75 41.5 
Q 54.890625 34.8125 54.890625 23.390625 
Q 54.890625 11.625 47.5625 5.09375 
Q 40.234375 -1.421875 26.90625 -1.421875 
Q 22.3125 -1.421875 17.546875 -0.640625 
Q 12.796875 0.140625 7.71875 1.703125 
L 7.71875 11.625 
Q 12.109375 9.234375 16.796875 8.0625 
Q 21.484375 6.890625 26.703125 6.890625 
Q 35.15625 6.890625 40.078125 11.328125 
Q 45.015625 15.765625 45.015625 23.390625 
Q 45.015625 31 40.078125 35.4375 
Q 35.15625 39.890625 26.703125 39.890625 
Q 22.75 39.890625 18.8125 39.015625 
Q 14.890625 38.140625 10.796875 36.28125 
z
" id="BitstreamVeraSans-Roman-35"/>
      </defs>
      <g transform="translate(7.2 282.054107143)scale(0.12 -0.12)">
       <use xlink:href="#BitstreamVeraSans-Roman-2212"/>
       <use x="83.7890625" xlink:href="#BitstreamVeraSans-Roman-30"/>
       <use x="147.412109375" xlink:href="#BitstreamVeraSans-Roman-2e"/>
       <use x="179.19921875" xlink:href="#BitstreamVeraSans-Roman-35"/>
      </g>
     </g>
    </g>
    <g id="ytick_3">
     <g id="line2d_27">
      <path clip-path="url(#p041d55fba1)" d="M 40.339375 217.028571 
L 486.739375 217.028571 
" style="fill:none;stroke:#000000;stroke-dasharray:1.000000,3.000000;stroke-dashoffset:0.0;stroke-width:0.5;"/>
     </g>
     <g id="line2d_28">
      <g>
       <use style="stroke:#000000;stroke-width:0.5;" x="40.339375" xlink:href="#me283ee8c07" y="217.028571429"/>
      </g>
     </g>
     <g id="line2d_29">
      <g>
       <use style="stroke:#000000;stroke-width:0.5;" x="486.739375" xlink:href="#m459659c0d5" y="217.028571429"/>
      </g>
     </g>
     <g id="text_10">
      <!-- 0.0 -->
      <g transform="translate(17.255625 220.339821429)scale(0.12 -0.12)">
       <use xlink:href="#BitstreamVeraSans-Roman-30"/>
       <use x="63.623046875" xlink:href="#BitstreamVeraSans-Roman-2e"/>
       <use x="95.41015625" xlink:href="#BitstreamVeraSans-Roman-30"/>
      </g>
     </g>
    </g>
    <g id="ytick_4">
     <g id="line2d_30">
      <path clip-path="url(#p041d55fba1)" d="M 40.339375 155.314286 
L 486.739375 155.314286 
" style="fill:none;stroke:#000000;stroke-dasharray:1.000000,3.000000;stroke-dashoffset:0.0;stroke-width:0.5;"/>
     </g>
     <g id="line2d_31">
      <g>
       <use style="stroke:#000000;stroke-width:0.5;" x="40.339375" xlink:href="#me283ee8c07" y="155.314285714"/>
      </g>
     </g>
     <g id="line2d_32">
      <g>
       <use style="stroke:#000000;stroke-width:0.5;" x="486.739375" xlink:href="#m459659c0d5" y="155.314285714"/>
      </g>
     </g>
     <g id="text_11">
      <!-- 0.5 -->
      <g transform="translate(17.255625 158.625535714)scale(0.12 -0.12)">
       <use xlink:href="#BitstreamVeraSans-Roman-30"/>
       <use x="63.623046875" xlink:href="#BitstreamVeraSans-Roman-2e"/>
       <use x="95.41015625" xlink:href="#BitstreamVeraSans-Roman-35"/>
      </g>
     </g>
    </g>
    <g id="ytick_5">
     <g id="line2d_33">
      <path clip-path="url(#p041d55fba1)" d="M 40.339375 93.6 
L 486.739375 93.6 
" style="fill:none;stroke:#000000;stroke-dasharray:1.000000,3.000000;stroke-dashoffset:0.0;stroke-width:0.5;"/>
     </g>
     <g id="line2d_34">
      <g>
       <use style="stroke:#000000;stroke-width:0.5;" x="40.339375" xlink:href="#me283ee8c07" y="93.6"/>
      </g>
     </g>
     <g id="line2d_35">
      <g>
       <use style="stroke:#000000;stroke-width:0.5;" x="486.739375" xlink:href="#m459659c0d5" y="93.6"/>
      </g>
     </g>
     <g id="text_12">
      <!-- 1.0 -->
      <g transform="translate(17.255625 96.91125)scale(0.12 -0.12)">
       <use xlink:href="#BitstreamVeraSans-Roman-31"/>
       <use x="63.623046875" xlink:href="#BitstreamVeraSans-Roman-2e"/>
       <use x="95.41015625" xlink:href="#BitstreamVeraSans-Roman-30"/>
      </g>
     </g>
    </g>
    <g id="ytick_6">
     <g id="line2d_36">
      <path clip-path="url(#p041d55fba1)" d="M 40.339375 31.885714 
L 486.739375 31.885714 
" style="fill:none;stroke:#000000;stroke-dasharray:1.000000,3.000000;stroke-dashoffset:0.0;stroke-width:0.5;"/>
     </g>
     <g id="line2d_37">
      <g>
       <use style="stroke:#000000;stroke-width:0.5;" x="40.339375" xlink:href="#me283ee8c07" y="31.8857142857"/>
      </g>
     </g>
     <g id="line2d_38">
      <g>
       <use style="stroke:#000000;stroke-width:0.5;" x="486.739375" xlink:href="#m459659c0d5" y="31.8857142857"/>
      </g>
     </g>
     <g id="text_13">
      <!-- 1.5 -->
      <g transform="translate(17.255625 35.1969642857)scale(0.12 -0.12)">
       <use xlink:href="#BitstreamVeraSans-Roman-31"/>
       <use x="63.623046875" xlink:href="#BitstreamVeraSans-Roman-2e"/>
       <use x="95.41015625" xlink:href="#BitstreamVeraSans-Roman-35"/>
      </g>
     </g>
    </g>
   </g>
   <g id="legend_1">
    <g id="patch_7">
     <path d="M 418.573375 60.993 
L 479.539375 60.993 
L 479.539375 14.4 
L 418.573375 14.4 
z
" style="fill:#ffffff;stroke:#000000;stroke-linejoin:miter;"/>
    </g>
    <g id="line2d_39">
     <path d="M 428.653375 26.06175 
L 448.813375 26.06175 
" style="fill:none;stroke:#0000ff;stroke-linecap:square;stroke-width:3.0;"/>
    </g>
    <g id="line2d_40"/>
    <g id="text_14">
     <!-- u -->
     <defs>
      <path d="M 8.5 21.578125 
L 8.5 54.6875 
L 17.484375 54.6875 
L 17.484375 21.921875 
Q 17.484375 14.15625 20.5 10.265625 
Q 23.53125 6.390625 29.59375 6.390625 
Q 36.859375 6.390625 41.078125 11.03125 
Q 45.3125 15.671875 45.3125 23.6875 
L 45.3125 54.6875 
L 54.296875 54.6875 
L 54.296875 0 
L 45.3125 0 
L 45.3125 8.40625 
Q 42.046875 3.421875 37.71875 1 
Q 33.40625 -1.421875 27.6875 -1.421875 
Q 18.265625 -1.421875 13.375 4.4375 
Q 8.5 10.296875 8.5 21.578125 
" id="BitstreamVeraSans-Roman-75"/>
     </defs>
     <g transform="translate(464.653375 31.10175)scale(0.144 -0.144)">
      <use xlink:href="#BitstreamVeraSans-Roman-75"/>
     </g>
    </g>
    <g id="line2d_41">
     <path d="M 428.653375 47.19825 
L 448.813375 47.19825 
" style="fill:none;stroke:#008000;stroke-linecap:square;stroke-width:3.0;"/>
    </g>
    <g id="line2d_42"/>
    <g id="text_15">
     <!-- y -->
     <defs>
      <path d="M 32.171875 -5.078125 
Q 28.375 -14.84375 24.75 -17.8125 
Q 21.140625 -20.796875 15.09375 -20.796875 
L 7.90625 -20.796875 
L 7.90625 -13.28125 
L 13.1875 -13.28125 
Q 16.890625 -13.28125 18.9375 -11.515625 
Q 21 -9.765625 23.484375 -3.21875 
L 25.09375 0.875 
L 2.984375 54.6875 
L 12.5 54.6875 
L 29.59375 11.921875 
L 46.6875 54.6875 
L 56.203125 54.6875 
z
" id="BitstreamVeraSans-Roman-79"/>
     </defs>
     <g transform="translate(464.653375 52.23825)scale(0.144 -0.144)">
      <use xlink:href="#BitstreamVeraSans-Roman-79"/>
     </g>
    </g>
   </g>
  </g>
 </g>
 <defs>
  <clipPath id="p041d55fba1">
   <rect height="345.6" width="446.4" x="40.339375" y="7.2"/>
  </clipPath>
 </defs>
</svg>
