<?xml version="1.0" encoding="utf-8" standalone="no"?>
<!DOCTYPE svg PUBLIC "-//W3C//DTD SVG 1.1//EN"
  "http://www.w3.org/Graphics/SVG/1.1/DTD/svg11.dtd">
<!-- Created with matplotlib (http://matplotlib.org/) -->
<svg height="392pt" version="1.1" viewBox="0 0 501 392" width="501pt" xmlns="http://www.w3.org/2000/svg" xmlns:xlink="http://www.w3.org/1999/xlink">
 <defs>
  <style type="text/css">
*{stroke-linecap:butt;stroke-linejoin:round;stroke-miterlimit:100000;}
  </style>
 </defs>
 <g id="figure_1">
  <g id="patch_1">
   <path d="M 0 392.2275 
L 501.574375 392.2275 
L 501.574375 0 
L 0 0 
z
" style="fill:none;opacity:0;"/>
  </g>
  <g id="axes_1">
   <g id="patch_2">
    <path d="M 40.339375 352.8 
L 486.739375 352.8 
L 486.739375 7.2 
L 40.339375 7.2 
z
" style="fill:#ffffff;"/>
   </g>
   <g id="line2d_1">
    <path clip-path="url(#p1076b17859)" d="M 40.339375 192.342857 
L 43.023143 146.819081 
L 44.812321 119.667687 
L 46.601499 97.100964 
L 47.496088 87.995638 
L 48.390678 80.542523 
L 49.285267 74.85963 
L 50.179856 71.036942 
L 51.074445 69.134986 
L 51.969034 69.183876 
L 52.863623 71.18284 
L 53.758213 75.100225 
L 54.652802 80.874006 
L 55.547391 88.41276 
L 56.44198 97.597121 
L 58.231159 120.297217 
L 60.020337 147.542272 
L 62.704104 193.119931 
L 65.387872 238.588019 
L 67.17705 265.644677 
L 68.966229 288.077132 
L 69.860818 297.103063 
L 70.755407 304.470243 
L 71.649996 310.062023 
L 72.544585 313.789862 
L 73.439175 315.594736 
L 74.333764 315.448066 
L 75.228353 313.352174 
L 76.122942 309.340246 
L 77.017531 303.475807 
L 77.91212 295.851713 
L 78.80671 286.588681 
L 80.595888 263.756111 
L 82.385066 236.418476 
L 85.963423 175.301734 
L 88.647191 131.415361 
L 90.436369 106.589746 
L 91.330958 96.119996 
L 92.225547 87.173818 
L 93.120137 79.892864 
L 94.014726 74.392419 
L 94.909315 70.759576 
L 95.803904 69.051856 
L 96.698493 69.296301 
L 97.593082 71.489037 
L 98.487672 75.595348 
L 99.382261 81.550213 
L 100.27685 89.259346 
L 101.171439 98.60068 
L 102.960617 121.56482 
L 104.749796 148.993952 
L 108.328153 210.153275 
L 111.01192 253.944947 
L 112.801098 278.653173 
L 113.695688 289.050492 
L 114.590277 297.916562 
L 115.484866 305.111001 
L 116.379455 310.519893 
L 117.274044 314.057596 
L 118.168634 315.668093 
L 119.063223 315.325885 
L 119.957812 313.03639 
L 120.852401 308.835859 
L 121.74699 302.790803 
L 122.641579 294.996938 
L 123.536169 285.577671 
L 125.325347 262.482872 
L 127.114525 234.963331 
L 130.692882 173.763852 
L 133.37665 130.068615 
L 135.165828 105.478757 
L 136.060417 95.154283 
L 136.955006 86.368671 
L 137.849595 79.261033 
L 138.744185 73.943908 
L 139.638774 70.501486 
L 140.533363 68.988275 
L 141.427952 69.428233 
L 142.322541 71.814396 
L 143.217131 76.10898 
L 144.11172 82.243987 
L 145.006309 90.122275 
L 145.900898 99.619103 
L 147.690076 122.843644 
L 149.479255 150.452504 
L 156.635968 268.121976 
L 158.425147 290.008519 
L 159.319736 298.713323 
L 160.214325 305.73388 
L 161.108914 310.959027 
L 162.003503 314.306032 
L 162.898092 315.721897 
L 163.792682 315.184206 
L 164.687271 312.70147 
L 165.58186 308.313002 
L 166.476449 302.088288 
L 167.371038 294.125888 
L 168.265628 284.551878 
L 170.054806 261.198513 
L 171.843984 233.501429 
L 178.106108 128.731743 
L 179.895287 104.38154 
L 180.789876 94.203979 
L 181.684465 85.580327 
L 182.579054 78.647131 
L 183.473644 73.514168 
L 184.368233 70.262714 
L 185.262822 68.94425 
L 186.157411 69.579653 
L 187.052 72.158863 
L 187.946589 76.64104 
L 188.841179 82.955216 
L 189.735768 91.001411 
L 190.630357 100.652226 
L 192.419535 124.133487 
L 194.208714 151.917698 
L 200.470838 256.618639 
L 202.260016 280.847564 
L 203.154605 290.951062 
L 204.049195 299.49322 
L 204.943784 306.338781 
L 205.838373 311.379355 
L 206.732962 314.535131 
L 207.627551 315.75614 
L 208.522141 315.02305 
L 209.41673 312.347469 
L 210.311319 307.771759 
L 211.205908 301.368374 
L 212.100497 293.238701 
L 212.995086 283.511466 
L 214.784265 259.903237 
L 216.573443 232.033001 
L 222.835567 127.404956 
L 224.624746 103.298269 
L 225.519335 93.269234 
L 226.413924 84.808909 
L 227.308513 78.051255 
L 228.203102 73.103268 
L 229.097692 70.043296 
L 229.992281 68.91979 
L 230.88687 69.750537 
L 231.781459 72.522385 
L 232.676048 77.191445 
L 233.570638 83.683787 
L 234.465227 91.896614 
L 235.359816 101.699886 
L 237.148994 125.434145 
L 238.938173 153.389302 
L 245.200297 257.940304 
L 246.989475 281.923798 
L 247.884064 291.877972 
L 248.778654 300.256128 
L 249.673243 306.925608 
L 250.567832 311.78081 
L 251.462421 314.744857 
L 252.35701 315.770817 
L 253.251599 314.842445 
L 254.146189 311.974441 
L 255.040778 307.212215 
L 255.935367 300.631173 
L 256.829956 292.335517 
L 257.724545 282.456599 
L 259.513724 258.59725 
L 261.302902 230.55828 
L 267.565026 126.088464 
L 269.354205 102.229115 
L 270.248794 92.350197 
L 271.143383 84.054541 
L 272.037972 77.473499 
L 272.932561 72.711274 
L 273.827151 69.843269 
L 274.72174 68.914897 
L 275.616329 69.940857 
L 276.510918 72.904904 
L 277.405507 77.760106 
L 278.300096 84.429586 
L 279.194686 92.807743 
L 280.089275 102.761917 
L 281.878453 126.74541 
L 283.667632 154.867081 
L 289.929756 259.25157 
L 291.718934 282.985829 
L 292.613523 292.7891 
L 293.508112 301.001927 
L 294.402702 307.49427 
L 295.297291 312.163329 
L 296.19188 314.935177 
L 297.086469 315.765925 
L 297.981058 314.642418 
L 298.875648 311.582446 
L 299.770237 306.63446 
L 300.664826 299.876805 
L 301.559415 291.41648 
L 302.454004 281.387445 
L 304.243183 257.280759 
L 306.032361 229.077501 
L 312.294485 124.782477 
L 314.083664 101.174249 
L 314.978253 91.447013 
L 315.872842 83.317341 
L 316.767431 76.913955 
L 317.66202 72.338246 
L 318.556609 69.662664 
L 319.451199 68.929574 
L 320.345788 70.150583 
L 321.240377 73.306359 
L 322.134966 78.346933 
L 323.029555 85.192495 
L 323.924145 93.734652 
L 324.818734 103.83815 
L 326.607912 128.067075 
L 328.39709 156.350802 
L 334.659215 260.552227 
L 336.448393 284.033489 
L 337.342982 293.684303 
L 338.237571 301.730499 
L 339.132161 308.044674 
L 340.02675 312.526851 
L 340.921339 315.106061 
L 341.815928 315.741464 
L 342.710517 314.423001 
L 343.605106 311.171546 
L 344.499696 306.038584 
L 345.394285 299.105387 
L 346.288874 290.481736 
L 347.183463 280.304174 
L 348.972642 255.953972 
L 350.76182 227.590898 
L 357.023944 123.487201 
L 358.813122 100.133837 
L 359.707712 90.559826 
L 360.602301 82.597426 
L 361.49689 76.372712 
L 362.391479 71.984244 
L 363.286068 69.501509 
L 364.180658 68.963817 
L 365.075247 70.379683 
L 365.969836 73.726687 
L 366.864425 78.951835 
L 367.759014 85.972391 
L 368.653603 94.677195 
L 369.548193 104.928416 
L 371.337371 129.398931 
L 373.126549 157.840229 
L 378.494084 248.482088 
L 380.283263 274.101616 
L 381.177852 285.066612 
L 382.072441 294.563439 
L 382.96703 302.441728 
L 383.861619 308.576734 
L 384.756209 312.871319 
L 385.650798 315.257481 
L 386.545387 315.69744 
L 387.439976 314.184228 
L 388.334565 310.741807 
L 389.229155 305.424681 
L 390.123744 298.317043 
L 391.018333 289.531432 
L 391.912922 279.206957 
L 393.7021 254.617099 
L 395.491279 226.098706 
L 400.858814 135.512694 
L 402.647992 110.003572 
L 403.542581 99.108044 
L 404.437171 89.688776 
L 405.33176 81.894911 
L 406.226349 75.849855 
L 407.120938 71.649325 
L 408.015527 69.35983 
L 408.910116 69.017621 
L 409.804706 70.628119 
L 410.699295 74.165821 
L 411.593884 79.574713 
L 412.488473 86.769152 
L 413.383062 95.635223 
L 414.277652 106.032541 
L 416.06683 130.740767 
L 417.856008 159.335126 
L 423.223543 249.861699 
L 425.012722 275.259406 
L 425.907311 286.085034 
L 426.8019 295.426369 
L 427.696489 303.135501 
L 428.591078 309.090366 
L 429.485668 313.196677 
L 430.380257 315.389414 
L 431.274846 315.633858 
L 432.169435 313.926139 
L 433.064024 310.293296 
L 433.958613 304.792851 
L 434.853203 297.511897 
L 435.747792 288.565719 
L 436.642381 278.095968 
L 438.431559 253.270354 
L 440.220738 224.601162 
L 445.588273 134.137616 
L 447.377451 108.852332 
L 448.27204 98.097033 
L 449.16663 88.834001 
L 450.061219 81.209907 
L 450.955808 75.345468 
L 451.850397 71.333541 
L 452.744986 69.237649 
L 453.639575 69.090978 
L 454.534165 70.895852 
L 455.428754 74.623691 
L 456.323343 80.215471 
L 457.217932 87.582651 
L 458.112521 96.608583 
L 459.00711 107.15035 
L 460.796289 132.092369 
L 462.585467 160.835257 
L 467.953002 251.23219 
L 469.742181 276.404049 
L 470.63677 287.088593 
L 471.531359 296.272955 
L 472.425948 303.811709 
L 473.320537 309.585489 
L 474.215127 313.502874 
L 475.109716 315.501838 
L 476.004305 315.550729 
L 476.898894 313.648772 
L 477.793483 309.826084 
L 478.688072 304.143192 
L 479.582662 296.690077 
L 480.477251 287.58475 
L 481.37184 276.971384 
L 483.161018 251.913948 
L 484.950197 223.098504 
L 486.739375 192.342857 
L 486.739375 192.342857 
" style="fill:none;stroke:#0000ff;stroke-linecap:square;stroke-width:3.0;"/>
   </g>
   <g id="line2d_2">
    <path clip-path="url(#p1076b17859)" d="M 40.339375 192.342857 
L 43.023143 147.389638 
L 44.812321 120.90465 
L 46.601499 99.19826 
L 47.496088 90.582468 
L 48.390678 83.65005 
L 49.285267 78.512041 
L 50.179856 75.251069 
L 51.074445 73.920029 
L 51.969034 74.541248 
L 52.863623 77.106158 
L 53.758213 81.575391 
L 54.652802 87.879423 
L 55.547391 95.919682 
L 56.44198 105.570095 
L 58.231159 129.071983 
L 60.020337 156.912229 
L 66.282461 262.151727 
L 68.07164 286.631467 
L 68.966229 296.873727 
L 69.860818 305.562218 
L 70.755407 312.560523 
L 71.649996 317.758985 
L 72.544585 321.076445 
L 73.439175 322.461516 
L 74.333764 321.89341 
L 75.228353 319.382254 
L 76.122942 314.968955 
L 77.017531 308.724494 
L 77.91212 300.74888 
L 78.80671 291.169506 
L 80.595888 267.833636 
L 82.385066 240.197822 
L 88.647191 136.029123 
L 90.436369 111.951777 
L 91.330958 101.923284 
L 92.225547 93.455428 
L 93.120137 86.683337 
L 94.014726 81.715278 
L 94.909315 78.630955 
L 95.803904 77.480243 
L 96.698493 78.28239 
L 97.593082 81.025721 
L 98.487672 85.667824 
L 99.382261 92.136211 
L 100.27685 100.32948 
L 101.171439 110.118912 
L 102.960617 133.847436 
L 104.749796 161.832856 
L 111.01192 266.834875 
L 112.801098 291.044327 
L 113.695688 301.124777 
L 114.590277 309.636722 
L 115.484866 316.446333 
L 116.379455 321.446732 
L 117.274044 324.559685 
L 118.168634 325.736838 
L 119.063223 324.960482 
L 119.957812 322.243844 
L 120.852401 317.63086 
L 121.74699 311.195503 
L 122.641579 303.040573 
L 123.536169 293.296114 
L 125.325347 269.682115 
L 127.114525 241.850402 
L 133.37665 137.745541 
L 135.165828 113.889348 
L 136.060417 103.998098 
L 136.955006 95.682191 
L 137.849595 89.074165 
L 138.744185 84.279501 
L 139.638774 81.374968 
L 140.533363 80.407398 
L 141.427952 81.392957 
L 142.322541 84.316884 
L 143.217131 89.133718 
L 144.11172 95.76802 
L 145.006309 104.115584 
L 145.900898 114.045055 
L 147.690076 138.001546 
L 149.479255 166.132767 
L 155.741379 270.898066 
L 157.530557 294.838292 
L 158.425147 304.757764 
L 159.319736 313.094233 
L 160.214325 319.716478 
L 161.108914 324.520422 
L 162.003503 327.430759 
L 162.898092 328.402186 
L 163.792682 327.420084 
L 164.687271 324.500753 
L 165.58186 319.691179 
L 166.476449 313.068277 
L 167.371038 304.737657 
L 168.265628 294.83197 
L 170.054806 270.948212 
L 171.843984 242.929598 
L 178.106108 138.920836 
L 179.895287 115.293994 
L 180.789876 105.543745 
L 181.684465 97.38329 
L 182.579054 90.942547 
L 183.473644 86.324198 
L 184.368233 83.602064 
L 185.262822 82.819943 
L 186.157411 83.990902 
L 187.052 87.097099 
L 187.946589 92.090028 
L 188.841179 98.891319 
L 189.735768 107.393959 
L 190.630357 117.463991 
L 192.419535 141.648857 
L 194.208714 169.925564 
L 200.470838 274.451793 
L 202.260016 298.122971 
L 203.154605 307.881873 
L 204.049195 316.043529 
L 204.943784 322.479329 
L 205.838373 327.08801 
L 206.732962 329.797237 
L 207.627551 330.564737 
L 208.522141 329.378972 
L 209.41673 326.259348 
L 210.311319 321.255874 
L 211.205908 314.448399 
L 212.100497 305.945321 
L 212.995086 295.881887 
L 214.784265 271.73594 
L 216.573443 243.53862 
L 222.835567 139.655341 
L 224.624746 116.265203 
L 225.519335 106.659289 
L 226.413924 98.65737 
L 227.308513 92.386721 
L 228.203102 87.94721 
L 229.097692 85.409686 
L 229.992281 84.8149 
L 230.88687 86.172839 
L 231.781459 89.46256 
L 232.676048 94.632536 
L 233.570638 101.601459 
L 234.465227 110.259556 
L 235.359816 120.470284 
L 237.148994 144.883089 
L 238.938173 173.304199 
L 245.200297 277.586432 
L 246.989475 300.988094 
L 247.884064 310.586508 
L 248.778654 318.573662 
L 249.673243 324.823614 
L 250.567832 329.237922 
L 251.462421 331.747201 
L 252.35701 332.312235 
L 253.251599 330.924589 
L 254.146189 327.606743 
L 255.040778 322.411737 
L 255.935367 315.422336 
L 256.829956 306.749716 
L 257.724545 296.531686 
L 259.513724 272.130478 
L 261.302902 243.761993 
L 266.670437 153.351938 
L 268.459615 127.810742 
L 269.354205 116.88448 
L 270.248794 107.425914 
L 271.143383 99.585268 
L 272.037972 93.487169 
L 272.932561 89.228637 
L 273.827151 86.877568 
L 274.72174 86.471655 
L 275.616329 88.017787 
L 276.510918 91.491944 
L 277.405507 96.839575 
L 278.300096 103.97646 
L 279.194686 112.790052 
L 280.089275 123.141251 
L 281.878453 147.780941 
L 283.667632 176.344713 
L 289.035167 267.047999 
L 290.824345 292.593353 
L 291.718934 303.507095 
L 292.613523 312.944834 
L 293.508112 320.757562 
L 294.402702 326.821999 
L 295.297291 331.042543 
L 296.19188 333.352792 
L 297.086469 333.716581 
L 297.981058 332.128574 
L 298.875648 328.614327 
L 299.770237 323.229916 
L 300.664826 316.060982 
L 301.559415 307.221461 
L 302.454004 296.851739 
L 304.243183 272.201657 
L 306.032361 243.669025 
L 311.399896 153.341232 
L 313.189074 128.01092 
L 314.083664 117.218565 
L 314.978253 107.910037 
L 315.872842 100.233118 
L 316.767431 94.309728 
L 317.66202 90.234047 
L 318.556609 88.070991 
L 319.451199 87.855197 
L 320.345788 89.590456 
L 321.240377 93.249667 
L 322.134966 98.775262 
L 323.029555 106.080135 
L 323.924145 115.048988 
L 324.818734 125.540179 
L 326.607912 150.405127 
L 328.39709 179.109309 
L 333.764626 269.659725 
L 335.553804 294.971386 
L 336.448393 305.740021 
L 337.342982 315.01667 
L 338.237571 322.654814 
L 339.132161 328.533853 
L 340.02675 332.561044 
L 340.921339 334.672967 
L 341.815928 334.836536 
L 342.710517 333.049482 
L 343.605106 329.340453 
L 344.499696 323.768531 
L 345.394285 316.422261 
L 346.288874 307.418294 
L 347.183463 296.899545 
L 348.972642 272.006577 
L 350.76182 243.316366 
L 356.129355 153.091247 
L 357.918533 127.977826 
L 358.813122 117.322079 
L 359.707712 108.166053 
L 360.602301 100.655037 
L 361.49689 94.908269 
L 362.391479 91.017059 
L 363.286068 89.043336 
L 364.180658 89.01866 
L 365.075247 90.943727 
L 365.969836 94.788369 
L 366.864425 100.492012 
L 367.759014 107.964662 
L 368.653603 117.088296 
L 369.548193 127.718761 
L 371.337371 152.806898 
L 373.126549 181.648794 
L 378.494084 272.037475 
L 380.283263 297.113212 
L 381.177852 307.735926 
L 382.072441 316.850923 
L 382.96703 324.314155 
L 383.861619 330.007736 
L 384.756209 333.841811 
L 385.650798 335.755943 
L 386.545387 335.720116 
L 387.439976 333.735175 
L 388.334565 329.832815 
L 389.229155 324.075116 
L 390.123744 316.553521 
L 391.018333 307.387398 
L 391.912922 296.72215 
L 393.7021 271.59194 
L 395.491279 242.750383 
L 400.858814 152.647193 
L 402.647992 127.756275 
L 403.542581 117.23964 
L 404.437171 108.238377 
L 405.33176 100.895261 
L 406.226349 95.326828 
L 407.120938 91.621509 
L 408.015527 89.838224 
L 408.910116 90.005458 
L 409.804706 92.12082 
L 410.699295 96.15107 
L 411.593884 102.032645 
L 412.488473 109.672663 
L 413.383062 118.950407 
L 415.172241 141.80886 
L 416.961419 169.167943 
L 420.539776 230.316917 
L 423.223543 274.221812 
L 425.012722 299.059134 
L 425.907311 309.534975 
L 426.8019 318.487592 
L 427.696489 325.775458 
L 428.591078 331.283418 
L 429.485668 334.924494 
L 430.380257 336.641262 
L 431.274846 336.406767 
L 432.169435 334.224953 
L 433.064024 330.130597 
L 433.958613 324.188755 
L 434.853203 316.493735 
L 435.747792 307.167603 
L 437.53697 284.237065 
L 439.326149 256.845473 
L 442.904505 195.770432 
L 445.588273 152.046335 
L 447.377451 127.383196 
L 448.27204 117.008001 
L 449.16663 108.163588 
L 450.061219 100.990211 
L 450.955808 95.60166 
L 451.850397 92.083466 
L 452.744986 90.491539 
L 453.639575 90.851307 
L 454.534165 93.157275 
L 455.428754 97.373136 
L 456.323343 103.432343 
L 457.217932 111.239159 
L 458.112521 120.670173 
L 459.9017 143.784967 
L 461.690878 171.320145 
L 465.269235 232.540488 
L 467.953002 276.245973 
L 469.742181 300.842144 
L 470.63677 311.170052 
L 471.531359 319.959467 
L 472.425948 327.07141 
L 473.320537 332.393469 
L 474.215127 335.84156 
L 475.109716 337.361276 
L 476.004305 336.928743 
L 476.898894 334.551001 
L 477.793483 330.265877 
L 478.688072 324.141409 
L 479.582662 316.274777 
L 480.477251 306.79069 
L 482.266429 283.594853 
L 484.055607 256.018646 
L 486.739375 210.298542 
L 486.739375 210.298542 
" style="fill:none;stroke:#008000;stroke-linecap:square;stroke-width:3.0;"/>
   </g>
   <g id="patch_3">
    <path d="M 486.739375 352.8 
L 486.739375 7.2 
" style="fill:none;stroke:#000000;stroke-linecap:square;stroke-linejoin:miter;"/>
   </g>
   <g id="patch_4">
    <path d="M 40.339375 7.2 
L 486.739375 7.2 
" style="fill:none;stroke:#000000;stroke-linecap:square;stroke-linejoin:miter;"/>
   </g>
   <g id="patch_5">
    <path d="M 40.339375 352.8 
L 486.739375 352.8 
" style="fill:none;stroke:#000000;stroke-linecap:square;stroke-linejoin:miter;"/>
   </g>
   <g id="patch_6">
    <path d="M 40.339375 352.8 
L 40.339375 7.2 
" style="fill:none;stroke:#000000;stroke-linecap:square;stroke-linejoin:miter;"/>
   </g>
   <g id="matplotlib.axis_1">
    <g id="xtick_1">
     <g id="line2d_3">
      <path clip-path="url(#p1076b17859)" d="M 40.339375 352.8 
L 40.339375 7.2 
" style="fill:none;stroke:#000000;stroke-dasharray:1.000000,3.000000;stroke-dashoffset:0.0;stroke-width:0.5;"/>
     </g>
     <g id="line2d_4">
      <defs>
       <path d="M 0 0 
L 0 -4 
" id="m256cb2ce0b" style="stroke:#000000;stroke-width:0.5;"/>
      </defs>
      <g>
       <use style="stroke:#000000;stroke-width:0.5;" x="40.339375" xlink:href="#m256cb2ce0b" y="352.8"/>
      </g>
     </g>
     <g id="line2d_5">
      <defs>
       <path d="M 0 0 
L 0 4 
" id="mabae973390" style="stroke:#000000;stroke-width:0.5;"/>
      </defs>
      <g>
       <use style="stroke:#000000;stroke-width:0.5;" x="40.339375" xlink:href="#mabae973390" y="7.2"/>
      </g>
     </g>
     <g id="text_1">
      <!-- 0 -->
      <defs>
       <path d="M 31.78125 66.40625 
Q 24.171875 66.40625 20.328125 58.90625 
Q 16.5 51.421875 16.5 36.375 
Q 16.5 21.390625 20.328125 13.890625 
Q 24.171875 6.390625 31.78125 6.390625 
Q 39.453125 6.390625 43.28125 13.890625 
Q 47.125 21.390625 47.125 36.375 
Q 47.125 51.421875 43.28125 58.90625 
Q 39.453125 66.40625 31.78125 66.40625 
M 31.78125 74.21875 
Q 44.046875 74.21875 50.515625 64.515625 
Q 56.984375 54.828125 56.984375 36.375 
Q 56.984375 17.96875 50.515625 8.265625 
Q 44.046875 -1.421875 31.78125 -1.421875 
Q 19.53125 -1.421875 13.0625 8.265625 
Q 6.59375 17.96875 6.59375 36.375 
Q 6.59375 54.828125 13.0625 64.515625 
Q 19.53125 74.21875 31.78125 74.21875 
" id="BitstreamVeraSans-Roman-30"/>
      </defs>
      <g transform="translate(36.521875 365.918125)scale(0.12 -0.12)">
       <use xlink:href="#BitstreamVeraSans-Roman-30"/>
      </g>
     </g>
    </g>
    <g id="xtick_2">
     <g id="line2d_6">
      <path clip-path="url(#p1076b17859)" d="M 129.619375 352.8 
L 129.619375 7.2 
" style="fill:none;stroke:#000000;stroke-dasharray:1.000000,3.000000;stroke-dashoffset:0.0;stroke-width:0.5;"/>
     </g>
     <g id="line2d_7">
      <g>
       <use style="stroke:#000000;stroke-width:0.5;" x="129.619375" xlink:href="#m256cb2ce0b" y="352.8"/>
      </g>
     </g>
     <g id="line2d_8">
      <g>
       <use style="stroke:#000000;stroke-width:0.5;" x="129.619375" xlink:href="#mabae973390" y="7.2"/>
      </g>
     </g>
     <g id="text_2">
      <!-- 2 -->
      <defs>
       <path d="M 19.1875 8.296875 
L 53.609375 8.296875 
L 53.609375 0 
L 7.328125 0 
L 7.328125 8.296875 
Q 12.9375 14.109375 22.625 23.890625 
Q 32.328125 33.6875 34.8125 36.53125 
Q 39.546875 41.84375 41.421875 45.53125 
Q 43.3125 49.21875 43.3125 52.78125 
Q 43.3125 58.59375 39.234375 62.25 
Q 35.15625 65.921875 28.609375 65.921875 
Q 23.96875 65.921875 18.8125 64.3125 
Q 13.671875 62.703125 7.8125 59.421875 
L 7.8125 69.390625 
Q 13.765625 71.78125 18.9375 73 
Q 24.125 74.21875 28.421875 74.21875 
Q 39.75 74.21875 46.484375 68.546875 
Q 53.21875 62.890625 53.21875 53.421875 
Q 53.21875 48.921875 51.53125 44.890625 
Q 49.859375 40.875 45.40625 35.40625 
Q 44.1875 33.984375 37.640625 27.21875 
Q 31.109375 20.453125 19.1875 8.296875 
" id="BitstreamVeraSans-Roman-32"/>
      </defs>
      <g transform="translate(125.801875 365.918125)scale(0.12 -0.12)">
       <use xlink:href="#BitstreamVeraSans-Roman-32"/>
      </g>
     </g>
    </g>
    <g id="xtick_3">
     <g id="line2d_9">
      <path clip-path="url(#p1076b17859)" d="M 218.899375 352.8 
L 218.899375 7.2 
" style="fill:none;stroke:#000000;stroke-dasharray:1.000000,3.000000;stroke-dashoffset:0.0;stroke-width:0.5;"/>
     </g>
     <g id="line2d_10">
      <g>
       <use style="stroke:#000000;stroke-width:0.5;" x="218.899375" xlink:href="#m256cb2ce0b" y="352.8"/>
      </g>
     </g>
     <g id="line2d_11">
      <g>
       <use style="stroke:#000000;stroke-width:0.5;" x="218.899375" xlink:href="#mabae973390" y="7.2"/>
      </g>
     </g>
     <g id="text_3">
      <!-- 4 -->
      <defs>
       <path d="M 37.796875 64.3125 
L 12.890625 25.390625 
L 37.796875 25.390625 
z
M 35.203125 72.90625 
L 47.609375 72.90625 
L 47.609375 25.390625 
L 58.015625 25.390625 
L 58.015625 17.1875 
L 47.609375 17.1875 
L 47.609375 0 
L 37.796875 0 
L 37.796875 17.1875 
L 4.890625 17.1875 
L 4.890625 26.703125 
z
" id="BitstreamVeraSans-Roman-34"/>
      </defs>
      <g transform="translate(215.081875 365.918125)scale(0.12 -0.12)">
       <use xlink:href="#BitstreamVeraSans-Roman-34"/>
      </g>
     </g>
    </g>
    <g id="xtick_4">
     <g id="line2d_12">
      <path clip-path="url(#p1076b17859)" d="M 308.179375 352.8 
L 308.179375 7.2 
" style="fill:none;stroke:#000000;stroke-dasharray:1.000000,3.000000;stroke-dashoffset:0.0;stroke-width:0.5;"/>
     </g>
     <g id="line2d_13">
      <g>
       <use style="stroke:#000000;stroke-width:0.5;" x="308.179375" xlink:href="#m256cb2ce0b" y="352.8"/>
      </g>
     </g>
     <g id="line2d_14">
      <g>
       <use style="stroke:#000000;stroke-width:0.5;" x="308.179375" xlink:href="#mabae973390" y="7.2"/>
      </g>
     </g>
     <g id="text_4">
      <!-- 6 -->
      <defs>
       <path d="M 33.015625 40.375 
Q 26.375 40.375 22.484375 35.828125 
Q 18.609375 31.296875 18.609375 23.390625 
Q 18.609375 15.53125 22.484375 10.953125 
Q 26.375 6.390625 33.015625 6.390625 
Q 39.65625 6.390625 43.53125 10.953125 
Q 47.40625 15.53125 47.40625 23.390625 
Q 47.40625 31.296875 43.53125 35.828125 
Q 39.65625 40.375 33.015625 40.375 
M 52.59375 71.296875 
L 52.59375 62.3125 
Q 48.875 64.0625 45.09375 64.984375 
Q 41.3125 65.921875 37.59375 65.921875 
Q 27.828125 65.921875 22.671875 59.328125 
Q 17.53125 52.734375 16.796875 39.40625 
Q 19.671875 43.65625 24.015625 45.921875 
Q 28.375 48.1875 33.59375 48.1875 
Q 44.578125 48.1875 50.953125 41.515625 
Q 57.328125 34.859375 57.328125 23.390625 
Q 57.328125 12.15625 50.6875 5.359375 
Q 44.046875 -1.421875 33.015625 -1.421875 
Q 20.359375 -1.421875 13.671875 8.265625 
Q 6.984375 17.96875 6.984375 36.375 
Q 6.984375 53.65625 15.1875 63.9375 
Q 23.390625 74.21875 37.203125 74.21875 
Q 40.921875 74.21875 44.703125 73.484375 
Q 48.484375 72.75 52.59375 71.296875 
" id="BitstreamVeraSans-Roman-36"/>
      </defs>
      <g transform="translate(304.361875 365.918125)scale(0.12 -0.12)">
       <use xlink:href="#BitstreamVeraSans-Roman-36"/>
      </g>
     </g>
    </g>
    <g id="xtick_5">
     <g id="line2d_15">
      <path clip-path="url(#p1076b17859)" d="M 397.459375 352.8 
L 397.459375 7.2 
" style="fill:none;stroke:#000000;stroke-dasharray:1.000000,3.000000;stroke-dashoffset:0.0;stroke-width:0.5;"/>
     </g>
     <g id="line2d_16">
      <g>
       <use style="stroke:#000000;stroke-width:0.5;" x="397.459375" xlink:href="#m256cb2ce0b" y="352.8"/>
      </g>
     </g>
     <g id="line2d_17">
      <g>
       <use style="stroke:#000000;stroke-width:0.5;" x="397.459375" xlink:href="#mabae973390" y="7.2"/>
      </g>
     </g>
     <g id="text_5">
      <!-- 8 -->
      <defs>
       <path d="M 31.78125 34.625 
Q 24.75 34.625 20.71875 30.859375 
Q 16.703125 27.09375 16.703125 20.515625 
Q 16.703125 13.921875 20.71875 10.15625 
Q 24.75 6.390625 31.78125 6.390625 
Q 38.8125 6.390625 42.859375 10.171875 
Q 46.921875 13.96875 46.921875 20.515625 
Q 46.921875 27.09375 42.890625 30.859375 
Q 38.875 34.625 31.78125 34.625 
M 21.921875 38.8125 
Q 15.578125 40.375 12.03125 44.71875 
Q 8.5 49.078125 8.5 55.328125 
Q 8.5 64.0625 14.71875 69.140625 
Q 20.953125 74.21875 31.78125 74.21875 
Q 42.671875 74.21875 48.875 69.140625 
Q 55.078125 64.0625 55.078125 55.328125 
Q 55.078125 49.078125 51.53125 44.71875 
Q 48 40.375 41.703125 38.8125 
Q 48.828125 37.15625 52.796875 32.3125 
Q 56.78125 27.484375 56.78125 20.515625 
Q 56.78125 9.90625 50.3125 4.234375 
Q 43.84375 -1.421875 31.78125 -1.421875 
Q 19.734375 -1.421875 13.25 4.234375 
Q 6.78125 9.90625 6.78125 20.515625 
Q 6.78125 27.484375 10.78125 32.3125 
Q 14.796875 37.15625 21.921875 38.8125 
M 18.3125 54.390625 
Q 18.3125 48.734375 21.84375 45.5625 
Q 25.390625 42.390625 31.78125 42.390625 
Q 38.140625 42.390625 41.71875 45.5625 
Q 45.3125 48.734375 45.3125 54.390625 
Q 45.3125 60.0625 41.71875 63.234375 
Q 38.140625 66.40625 31.78125 66.40625 
Q 25.390625 66.40625 21.84375 63.234375 
Q 18.3125 60.0625 18.3125 54.390625 
" id="BitstreamVeraSans-Roman-38"/>
      </defs>
      <g transform="translate(393.641875 365.918125)scale(0.12 -0.12)">
       <use xlink:href="#BitstreamVeraSans-Roman-38"/>
      </g>
     </g>
    </g>
    <g id="xtick_6">
     <g id="line2d_18">
      <path clip-path="url(#p1076b17859)" d="M 486.739375 352.8 
L 486.739375 7.2 
" style="fill:none;stroke:#000000;stroke-dasharray:1.000000,3.000000;stroke-dashoffset:0.0;stroke-width:0.5;"/>
     </g>
     <g id="line2d_19">
      <g>
       <use style="stroke:#000000;stroke-width:0.5;" x="486.739375" xlink:href="#m256cb2ce0b" y="352.8"/>
      </g>
     </g>
     <g id="line2d_20">
      <g>
       <use style="stroke:#000000;stroke-width:0.5;" x="486.739375" xlink:href="#mabae973390" y="7.2"/>
      </g>
     </g>
     <g id="text_6">
      <!-- 10 -->
      <defs>
       <path d="M 12.40625 8.296875 
L 28.515625 8.296875 
L 28.515625 63.921875 
L 10.984375 60.40625 
L 10.984375 69.390625 
L 28.421875 72.90625 
L 38.28125 72.90625 
L 38.28125 8.296875 
L 54.390625 8.296875 
L 54.390625 0 
L 12.40625 0 
z
" id="BitstreamVeraSans-Roman-31"/>
      </defs>
      <g transform="translate(479.104375 365.918125)scale(0.12 -0.12)">
       <use xlink:href="#BitstreamVeraSans-Roman-31"/>
       <use x="63.623046875" xlink:href="#BitstreamVeraSans-Roman-30"/>
      </g>
     </g>
    </g>
    <g id="text_7">
     <!-- Time (s) -->
     <defs>
      <path d="M 56.203125 29.59375 
L 56.203125 25.203125 
L 14.890625 25.203125 
Q 15.484375 15.921875 20.484375 11.0625 
Q 25.484375 6.203125 34.421875 6.203125 
Q 39.59375 6.203125 44.453125 7.46875 
Q 49.3125 8.734375 54.109375 11.28125 
L 54.109375 2.78125 
Q 49.265625 0.734375 44.1875 -0.34375 
Q 39.109375 -1.421875 33.890625 -1.421875 
Q 20.796875 -1.421875 13.15625 6.1875 
Q 5.515625 13.8125 5.515625 26.8125 
Q 5.515625 40.234375 12.765625 48.109375 
Q 20.015625 56 32.328125 56 
Q 43.359375 56 49.78125 48.890625 
Q 56.203125 41.796875 56.203125 29.59375 
M 47.21875 32.234375 
Q 47.125 39.59375 43.09375 43.984375 
Q 39.0625 48.390625 32.421875 48.390625 
Q 24.90625 48.390625 20.390625 44.140625 
Q 15.875 39.890625 15.1875 32.171875 
z
" id="BitstreamVeraSans-Roman-65"/>
      <path id="BitstreamVeraSans-Roman-20"/>
      <path d="M 8.015625 75.875 
L 15.828125 75.875 
Q 23.140625 64.359375 26.78125 53.3125 
Q 30.421875 42.28125 30.421875 31.390625 
Q 30.421875 20.453125 26.78125 9.375 
Q 23.140625 -1.703125 15.828125 -13.1875 
L 8.015625 -13.1875 
Q 14.5 -2 17.703125 9.0625 
Q 20.90625 20.125 20.90625 31.390625 
Q 20.90625 42.671875 17.703125 53.65625 
Q 14.5 64.65625 8.015625 75.875 
" id="BitstreamVeraSans-Roman-29"/>
      <path d="M 31 75.875 
Q 24.46875 64.65625 21.28125 53.65625 
Q 18.109375 42.671875 18.109375 31.390625 
Q 18.109375 20.125 21.3125 9.0625 
Q 24.515625 -2 31 -13.1875 
L 23.1875 -13.1875 
Q 15.875 -1.703125 12.234375 9.375 
Q 8.59375 20.453125 8.59375 31.390625 
Q 8.59375 42.28125 12.203125 53.3125 
Q 15.828125 64.359375 23.1875 75.875 
z
" id="BitstreamVeraSans-Roman-28"/>
      <path d="M 44.28125 53.078125 
L 44.28125 44.578125 
Q 40.484375 46.53125 36.375 47.5 
Q 32.28125 48.484375 27.875 48.484375 
Q 21.1875 48.484375 17.84375 46.4375 
Q 14.5 44.390625 14.5 40.28125 
Q 14.5 37.15625 16.890625 35.375 
Q 19.28125 33.59375 26.515625 31.984375 
L 29.59375 31.296875 
Q 39.15625 29.25 43.1875 25.515625 
Q 47.21875 21.78125 47.21875 15.09375 
Q 47.21875 7.46875 41.1875 3.015625 
Q 35.15625 -1.421875 24.609375 -1.421875 
Q 20.21875 -1.421875 15.453125 -0.5625 
Q 10.6875 0.296875 5.421875 2 
L 5.421875 11.28125 
Q 10.40625 8.6875 15.234375 7.390625 
Q 20.0625 6.109375 24.8125 6.109375 
Q 31.15625 6.109375 34.5625 8.28125 
Q 37.984375 10.453125 37.984375 14.40625 
Q 37.984375 18.0625 35.515625 20.015625 
Q 33.0625 21.96875 24.703125 23.78125 
L 21.578125 24.515625 
Q 13.234375 26.265625 9.515625 29.90625 
Q 5.8125 33.546875 5.8125 39.890625 
Q 5.8125 47.609375 11.28125 51.796875 
Q 16.75 56 26.8125 56 
Q 31.78125 56 36.171875 55.265625 
Q 40.578125 54.546875 44.28125 53.078125 
" id="BitstreamVeraSans-Roman-73"/>
      <path d="M -0.296875 72.90625 
L 61.375 72.90625 
L 61.375 64.59375 
L 35.5 64.59375 
L 35.5 0 
L 25.59375 0 
L 25.59375 64.59375 
L -0.296875 64.59375 
z
" id="BitstreamVeraSans-Roman-54"/>
      <path d="M 9.421875 54.6875 
L 18.40625 54.6875 
L 18.40625 0 
L 9.421875 0 
z
M 9.421875 75.984375 
L 18.40625 75.984375 
L 18.40625 64.59375 
L 9.421875 64.59375 
z
" id="BitstreamVeraSans-Roman-69"/>
      <path d="M 52 44.1875 
Q 55.375 50.25 60.0625 53.125 
Q 64.75 56 71.09375 56 
Q 79.640625 56 84.28125 50.015625 
Q 88.921875 44.046875 88.921875 33.015625 
L 88.921875 0 
L 79.890625 0 
L 79.890625 32.71875 
Q 79.890625 40.578125 77.09375 44.375 
Q 74.3125 48.1875 68.609375 48.1875 
Q 61.625 48.1875 57.5625 43.546875 
Q 53.515625 38.921875 53.515625 30.90625 
L 53.515625 0 
L 44.484375 0 
L 44.484375 32.71875 
Q 44.484375 40.625 41.703125 44.40625 
Q 38.921875 48.1875 33.109375 48.1875 
Q 26.21875 48.1875 22.15625 43.53125 
Q 18.109375 38.875 18.109375 30.90625 
L 18.109375 0 
L 9.078125 0 
L 9.078125 54.6875 
L 18.109375 54.6875 
L 18.109375 46.1875 
Q 21.1875 51.21875 25.484375 53.609375 
Q 29.78125 56 35.6875 56 
Q 41.65625 56 45.828125 52.96875 
Q 50 49.953125 52 44.1875 
" id="BitstreamVeraSans-Roman-6d"/>
     </defs>
     <g transform="translate(238.96 382.531875)scale(0.12 -0.12)">
      <use xlink:href="#BitstreamVeraSans-Roman-54"/>
      <use x="61.037109375" xlink:href="#BitstreamVeraSans-Roman-69"/>
      <use x="88.8203125" xlink:href="#BitstreamVeraSans-Roman-6d"/>
      <use x="186.232421875" xlink:href="#BitstreamVeraSans-Roman-65"/>
      <use x="247.755859375" xlink:href="#BitstreamVeraSans-Roman-20"/>
      <use x="279.54296875" xlink:href="#BitstreamVeraSans-Roman-28"/>
      <use x="318.556640625" xlink:href="#BitstreamVeraSans-Roman-73"/>
      <use x="370.65625" xlink:href="#BitstreamVeraSans-Roman-29"/>
     </g>
    </g>
   </g>
   <g id="matplotlib.axis_2">
    <g id="ytick_1">
     <g id="line2d_21">
      <path clip-path="url(#p1076b17859)" d="M 40.339375 340.457143 
L 486.739375 340.457143 
" style="fill:none;stroke:#000000;stroke-dasharray:1.000000,3.000000;stroke-dashoffset:0.0;stroke-width:0.5;"/>
     </g>
     <g id="line2d_22">
      <defs>
       <path d="M 0 0 
L 4 0 
" id="mbb25b11602" style="stroke:#000000;stroke-width:0.5;"/>
      </defs>
      <g>
       <use style="stroke:#000000;stroke-width:0.5;" x="40.339375" xlink:href="#mbb25b11602" y="340.457142857"/>
      </g>
     </g>
     <g id="line2d_23">
      <defs>
       <path d="M 0 0 
L -4 0 
" id="m70fb7b9fe6" style="stroke:#000000;stroke-width:0.5;"/>
      </defs>
      <g>
       <use style="stroke:#000000;stroke-width:0.5;" x="486.739375" xlink:href="#m70fb7b9fe6" y="340.457142857"/>
      </g>
     </g>
     <g id="text_8">
      <!-- −1.0 -->
      <defs>
       <path d="M 10.6875 12.40625 
L 21 12.40625 
L 21 0 
L 10.6875 0 
z
" id="BitstreamVeraSans-Roman-2e"/>
       <path d="M 10.59375 35.5 
L 73.1875 35.5 
L 73.1875 27.203125 
L 10.59375 27.203125 
z
" id="BitstreamVeraSans-Roman-2212"/>
      </defs>
      <g transform="translate(7.2 343.768392857)scale(0.12 -0.12)">
       <use xlink:href="#BitstreamVeraSans-Roman-2212"/>
       <use x="83.7890625" xlink:href="#BitstreamVeraSans-Roman-31"/>
       <use x="147.412109375" xlink:href="#BitstreamVeraSans-Roman-2e"/>
       <use x="179.19921875" xlink:href="#BitstreamVeraSans-Roman-30"/>
      </g>
     </g>
    </g>
    <g id="ytick_2">
     <g id="line2d_24">
      <path clip-path="url(#p1076b17859)" d="M 40.339375 278.742857 
L 486.739375 278.742857 
" style="fill:none;stroke:#000000;stroke-dasharray:1.000000,3.000000;stroke-dashoffset:0.0;stroke-width:0.5;"/>
     </g>
     <g id="line2d_25">
      <g>
       <use style="stroke:#000000;stroke-width:0.5;" x="40.339375" xlink:href="#mbb25b11602" y="278.742857143"/>
      </g>
     </g>
     <g id="line2d_26">
      <g>
       <use style="stroke:#000000;stroke-width:0.5;" x="486.739375" xlink:href="#m70fb7b9fe6" y="278.742857143"/>
      </g>
     </g>
     <g id="text_9">
      <!-- −0.5 -->
      <defs>
       <path d="M 10.796875 72.90625 
L 49.515625 72.90625 
L 49.515625 64.59375 
L 19.828125 64.59375 
L 19.828125 46.734375 
Q 21.96875 47.46875 24.109375 47.828125 
Q 26.265625 48.1875 28.421875 48.1875 
Q 40.625 48.1875 47.75 41.5 
Q 54.890625 34.8125 54.890625 23.390625 
Q 54.890625 11.625 47.5625 5.09375 
Q 40.234375 -1.421875 26.90625 -1.421875 
Q 22.3125 -1.421875 17.546875 -0.640625 
Q 12.796875 0.140625 7.71875 1.703125 
L 7.71875 11.625 
Q 12.109375 9.234375 16.796875 8.0625 
Q 21.484375 6.890625 26.703125 6.890625 
Q 35.15625 6.890625 40.078125 11.328125 
Q 45.015625 15.765625 45.015625 23.390625 
Q 45.015625 31 40.078125 35.4375 
Q 35.15625 39.890625 26.703125 39.890625 
Q 22.75 39.890625 18.8125 39.015625 
Q 14.890625 38.140625 10.796875 36.28125 
z
" id="BitstreamVeraSans-Roman-35"/>
      </defs>
      <g transform="translate(7.2 282.054107143)scale(0.12 -0.12)">
       <use xlink:href="#BitstreamVeraSans-Roman-2212"/>
       <use x="83.7890625" xlink:href="#BitstreamVeraSans-Roman-30"/>
       <use x="147.412109375" xlink:href="#BitstreamVeraSans-Roman-2e"/>
       <use x="179.19921875" xlink:href="#BitstreamVeraSans-Roman-35"/>
      </g>
     </g>
    </g>
    <g id="ytick_3">
     <g id="line2d_27">
      <path clip-path="url(#p1076b17859)" d="M 40.339375 217.028571 
L 486.739375 217.028571 
" style="fill:none;stroke:#000000;stroke-dasharray:1.000000,3.000000;stroke-dashoffset:0.0;stroke-width:0.5;"/>
     </g>
     <g id="line2d_28">
      <g>
       <use style="stroke:#000000;stroke-width:0.5;" x="40.339375" xlink:href="#mbb25b11602" y="217.028571429"/>
      </g>
     </g>
     <g id="line2d_29">
      <g>
       <use style="stroke:#000000;stroke-width:0.5;" x="486.739375" xlink:href="#m70fb7b9fe6" y="217.028571429"/>
      </g>
     </g>
     <g id="text_10">
      <!-- 0.0 -->
      <g transform="translate(17.255625 220.339821429)scale(0.12 -0.12)">
       <use xlink:href="#BitstreamVeraSans-Roman-30"/>
       <use x="63.623046875" xlink:href="#BitstreamVeraSans-Roman-2e"/>
       <use x="95.41015625" xlink:href="#BitstreamVeraSans-Roman-30"/>
      </g>
     </g>
    </g>
    <g id="ytick_4">
     <g id="line2d_30">
      <path clip-path="url(#p1076b17859)" d="M 40.339375 155.314286 
L 486.739375 155.314286 
" style="fill:none;stroke:#000000;stroke-dasharray:1.000000,3.000000;stroke-dashoffset:0.0;stroke-width:0.5;"/>
     </g>
     <g id="line2d_31">
      <g>
       <use style="stroke:#000000;stroke-width:0.5;" x="40.339375" xlink:href="#mbb25b11602" y="155.314285714"/>
      </g>
     </g>
     <g id="line2d_32">
      <g>
       <use style="stroke:#000000;stroke-width:0.5;" x="486.739375" xlink:href="#m70fb7b9fe6" y="155.314285714"/>
      </g>
     </g>
     <g id="text_11">
      <!-- 0.5 -->
      <g transform="translate(17.255625 158.625535714)scale(0.12 -0.12)">
       <use xlink:href="#BitstreamVeraSans-Roman-30"/>
       <use x="63.623046875" xlink:href="#BitstreamVeraSans-Roman-2e"/>
       <use x="95.41015625" xlink:href="#BitstreamVeraSans-Roman-35"/>
      </g>
     </g>
    </g>
    <g id="ytick_5">
     <g id="line2d_33">
      <path clip-path="url(#p1076b17859)" d="M 40.339375 93.6 
L 486.739375 93.6 
" style="fill:none;stroke:#000000;stroke-dasharray:1.000000,3.000000;stroke-dashoffset:0.0;stroke-width:0.5;"/>
     </g>
     <g id="line2d_34">
      <g>
       <use style="stroke:#000000;stroke-width:0.5;" x="40.339375" xlink:href="#mbb25b11602" y="93.6"/>
      </g>
     </g>
     <g id="line2d_35">
      <g>
       <use style="stroke:#000000;stroke-width:0.5;" x="486.739375" xlink:href="#m70fb7b9fe6" y="93.6"/>
      </g>
     </g>
     <g id="text_12">
      <!-- 1.0 -->
      <g transform="translate(17.255625 96.91125)scale(0.12 -0.12)">
       <use xlink:href="#BitstreamVeraSans-Roman-31"/>
       <use x="63.623046875" xlink:href="#BitstreamVeraSans-Roman-2e"/>
       <use x="95.41015625" xlink:href="#BitstreamVeraSans-Roman-30"/>
      </g>
     </g>
    </g>
    <g id="ytick_6">
     <g id="line2d_36">
      <path clip-path="url(#p1076b17859)" d="M 40.339375 31.885714 
L 486.739375 31.885714 
" style="fill:none;stroke:#000000;stroke-dasharray:1.000000,3.000000;stroke-dashoffset:0.0;stroke-width:0.5;"/>
     </g>
     <g id="line2d_37">
      <g>
       <use style="stroke:#000000;stroke-width:0.5;" x="40.339375" xlink:href="#mbb25b11602" y="31.8857142857"/>
      </g>
     </g>
     <g id="line2d_38">
      <g>
       <use style="stroke:#000000;stroke-width:0.5;" x="486.739375" xlink:href="#m70fb7b9fe6" y="31.8857142857"/>
      </g>
     </g>
     <g id="text_13">
      <!-- 1.5 -->
      <g transform="translate(17.255625 35.1969642857)scale(0.12 -0.12)">
       <use xlink:href="#BitstreamVeraSans-Roman-31"/>
       <use x="63.623046875" xlink:href="#BitstreamVeraSans-Roman-2e"/>
       <use x="95.41015625" xlink:href="#BitstreamVeraSans-Roman-35"/>
      </g>
     </g>
    </g>
   </g>
   <g id="legend_1">
    <g id="patch_7">
     <path d="M 418.573375 60.993 
L 479.539375 60.993 
L 479.539375 14.4 
L 418.573375 14.4 
z
" style="fill:#ffffff;stroke:#000000;stroke-linejoin:miter;"/>
    </g>
    <g id="line2d_39">
     <path d="M 428.653375 26.06175 
L 448.813375 26.06175 
" style="fill:none;stroke:#0000ff;stroke-linecap:square;stroke-width:3.0;"/>
    </g>
    <g id="line2d_40"/>
    <g id="text_14">
     <!-- u -->
     <defs>
      <path d="M 8.5 21.578125 
L 8.5 54.6875 
L 17.484375 54.6875 
L 17.484375 21.921875 
Q 17.484375 14.15625 20.5 10.265625 
Q 23.53125 6.390625 29.59375 6.390625 
Q 36.859375 6.390625 41.078125 11.03125 
Q 45.3125 15.671875 45.3125 23.6875 
L 45.3125 54.6875 
L 54.296875 54.6875 
L 54.296875 0 
L 45.3125 0 
L 45.3125 8.40625 
Q 42.046875 3.421875 37.71875 1 
Q 33.40625 -1.421875 27.6875 -1.421875 
Q 18.265625 -1.421875 13.375 4.4375 
Q 8.5 10.296875 8.5 21.578125 
" id="BitstreamVeraSans-Roman-75"/>
     </defs>
     <g transform="translate(464.653375 31.10175)scale(0.144 -0.144)">
      <use xlink:href="#BitstreamVeraSans-Roman-75"/>
     </g>
    </g>
    <g id="line2d_41">
     <path d="M 428.653375 47.19825 
L 448.813375 47.19825 
" style="fill:none;stroke:#008000;stroke-linecap:square;stroke-width:3.0;"/>
    </g>
    <g id="line2d_42"/>
    <g id="text_15">
     <!-- y -->
     <defs>
      <path d="M 32.171875 -5.078125 
Q 28.375 -14.84375 24.75 -17.8125 
Q 21.140625 -20.796875 15.09375 -20.796875 
L 7.90625 -20.796875 
L 7.90625 -13.28125 
L 13.1875 -13.28125 
Q 16.890625 -13.28125 18.9375 -11.515625 
Q 21 -9.765625 23.484375 -3.21875 
L 25.09375 0.875 
L 2.984375 54.6875 
L 12.5 54.6875 
L 29.59375 11.921875 
L 46.6875 54.6875 
L 56.203125 54.6875 
z
" id="BitstreamVeraSans-Roman-79"/>
     </defs>
     <g transform="translate(464.653375 52.23825)scale(0.144 -0.144)">
      <use xlink:href="#BitstreamVeraSans-Roman-79"/>
     </g>
    </g>
   </g>
  </g>
 </g>
 <defs>
  <clipPath id="p1076b17859">
   <rect height="345.6" width="446.4" x="40.339375" y="7.2"/>
  </clipPath>
 </defs>
</svg>
